<?xml version="1.0" encoding="UTF-8" standalone="no"?>
<!-- Created with Inkscape (http://www.inkscape.org/) -->
<svg
   xmlns:dc="http://purl.org/dc/elements/1.1/"
   xmlns:cc="http://creativecommons.org/ns#"
   xmlns:rdf="http://www.w3.org/1999/02/22-rdf-syntax-ns#"
   xmlns:svg="http://www.w3.org/2000/svg"
   xmlns="http://www.w3.org/2000/svg"
   xmlns:sodipodi="http://sodipodi.sourceforge.net/DTD/sodipodi-0.dtd"
   xmlns:inkscape="http://www.inkscape.org/namespaces/inkscape"
   id="svg6854"
   sodipodi:version="0.32"
   inkscape:version="0.46"
   width="230.31497"
   height="318.84155"
   version="1.0"
   sodipodi:docname="10c.svg"
   inkscape:output_extension="org.inkscape.output.svg.inkscape">
  <metadata
     id="metadata6859">
    <rdf:RDF>
      <cc:Work
         rdf:about="">
        <dc:format>image/svg+xml</dc:format>
        <dc:type
           rdf:resource="http://purl.org/dc/dcmitype/StillImage" />
      </cc:Work>
    </rdf:RDF>
  </metadata>
  <defs
     id="defs6857">
    <inkscape:perspective
       sodipodi:type="inkscape:persp3d"
       inkscape:vp_x="0 : 526.18109 : 1"
       inkscape:vp_y="0 : 1000 : 0"
       inkscape:vp_z="744.09448 : 526.18109 : 1"
       inkscape:persp3d-origin="372.04724 : 350.78739 : 1"
       id="perspective6861" />
  </defs>
  <sodipodi:namedview
     inkscape:window-height="667"
     inkscape:window-width="809"
     inkscape:pageshadow="2"
     inkscape:pageopacity="0.0"
     guidetolerance="10.0"
     gridtolerance="10.0"
     objecttolerance="10.0"
     borderopacity="1.0"
     bordercolor="#666666"
     pagecolor="#ffffff"
     id="base"
     showgrid="false"
     inkscape:zoom="1.4489956"
     inkscape:cx="115.15749"
     inkscape:cy="159.42078"
     inkscape:window-x="22"
     inkscape:window-y="29"
     inkscape:current-layer="svg6854" />
  <path
     style="fill:#000000"
     d="M 200.92897,300.1623 C 199.33666,299.8809 197.71696,298.6718 196.96951,297.2067 C 196.11533,295.5324 196.04704,294.22 196.20821,282.5769 C 196.34041,273.0263 196.34698,272.9569 197.27398,271.3144 C 197.83522,270.3199 198.69363,269.5382 199.77089,269.0407 C 200.53357,268.6885 200.78173,268.6534 202.54593,268.648 C 204.36402,268.6424 204.53847,268.6679 205.37718,269.0605 C 206.39165,269.5355 206.80147,269.8772 207.37755,270.7286 C 208.01131,271.6652 208.43969,272.8654 208.58296,274.1058 C 208.65548,274.7337 208.72502,279.7637 208.73751,285.2835 L 208.7602,295.3195 L 208.37427,296.5243 C 208.04128,297.564 207.86759,297.853 207.10799,298.6317 C 205.9343,299.8349 205.0079,300.2071 203.06756,300.255 C 202.28885,300.2743 201.32648,300.2325 200.92897,300.1623 z M 204.14255,296.5505 C 205.23828,295.9347 205.36752,295.5337 205.45213,292.4878 C 205.49311,291.0123 205.52194,286.4518 205.5162,282.3534 C 205.5059,275.0085 205.50088,274.887 205.16626,273.8882 C 204.87654,273.0234 204.73613,272.8163 204.20799,272.4745 C 203.66768,272.125 203.43663,272.0739 202.38663,272.072 C 201.33216,272.0702 201.1102,272.1187 200.58424,272.4665 C 199.52342,273.1677 199.42835,273.5468 199.37532,277.2861 C 199.34975,279.0895 199.38493,283.7506 199.45352,287.6441 C 199.5756,294.5742 199.58527,294.7368 199.9134,295.3632 C 200.54774,296.5743 201.44383,297.0749 202.75661,296.9517 C 203.20036,296.9101 203.82403,296.7295 204.14255,296.5505 z M 212.50947,300.2065 C 212.26436,300.0374 212.13354,290.5602 212.1525,274.3479 C 212.1597,268.1941 211.9948,268.741 213.86006,268.6853 C 214.69105,268.6606 215.04605,268.7094 215.20403,268.8704 C 215.52321,269.1956 215.7368,299.7051 215.42171,299.963 C 215.16949,300.1694 212.7491,300.3718 212.50947,300.2065 z M 162.00825,286.6596 C 160.3282,286.4118 159.15142,286.0432 157.53718,285.2594 C 155.99232,284.5093 155.60226,284.2421 154.67305,283.2977 C 153.16344,281.7633 152.75935,281.2068 152.00298,279.6207 C 150.98075,277.4771 150.82797,276.7551 150.84667,274.1564 C 150.87584,270.1029 151.80782,267.4666 154.20766,264.6492 C 156.10679,262.4196 156.56845,261.8459 156.56845,261.7156 C 156.56845,261.6498 156.44232,261.4401 156.28816,261.2498 L 156.00786,260.9036 L 155.37393,261.345 C 153.88992,262.3784 153.41877,262.6138 151.65028,263.2061 C 148.69126,264.197 146.17229,264.1983 143.54177,263.2104 C 141.29462,262.3665 139.35956,260.8255 138.03255,258.823 C 136.32494,256.2463 135.96906,255.126 135.94394,252.2482 C 135.91647,249.1014 136.40402,247.3265 137.90889,245.0945 C 140.19285,241.707 143.33108,239.7013 147.14075,239.1943 C 149.85837,238.8327 153.76041,240.0717 155.95803,241.9941 C 157.98871,243.7705 159.90965,246.483 160.21179,248.0007 C 160.48944,249.3953 160.82361,249.8557 161.28196,249.4753 C 161.75605,249.0819 161.30625,245.0117 160.42724,241.7412 C 160.262,241.1264 159.92907,239.8619 159.6874,238.9311 C 159.01468,236.3404 158.5745,235.1454 157.45138,232.8612 C 156.8838,231.7069 156.41942,230.6841 156.41942,230.5884 C 156.41942,230.3879 156.22024,230.3923 164.24379,230.4141 C 167.44061,230.4228 170.11515,230.4887 170.18723,230.5606 C 170.26255,230.6358 170.13265,230.997 169.88175,231.4099 C 169.64167,231.8051 169.32234,232.4637 169.17213,232.8735 C 169.02192,233.2834 168.61088,234.2894 168.25871,235.1091 C 167.29555,237.3509 166.23758,241.0907 165.74928,243.9793 C 165.09456,247.8526 165.11243,249.64 165.80585,249.64 C 166.17747,249.64 166.24744,249.5069 166.49337,248.3315 C 166.78631,246.9313 168.00198,244.5359 168.96373,243.4637 C 170.5249,241.7232 173.29337,240.0192 175.64501,239.3515 C 177.03938,238.9555 179.75844,238.8075 181.30837,239.0433 C 182.48133,239.2217 184.66895,240.1589 185.74633,240.9446 C 187.50374,242.2262 188.95072,243.9759 189.83375,245.8872 C 190.73211,247.8317 191.00852,249.1537 191.01954,251.5585 C 191.0282,253.4488 190.99372,253.712 190.54799,255.1586 C 189.98674,256.98 189.57079,257.8568 188.6556,259.1476 C 187.78354,260.3776 185.82621,262.042 184.48647,262.6929 C 181.20324,264.2879 175.82703,263.8442 172.44465,261.6992 C 171.61274,261.1716 171.26668,261.1845 171.20179,261.7455 C 171.1632,262.0791 171.39969,262.4074 172.56619,263.6398 C 173.76825,264.9097 174.10963,265.3907 174.87076,266.8863 C 176.78198,270.642 177.23446,275.1292 176.02374,278.3202 C 175.67458,279.2404 174.42052,281.4868 174.10501,281.7572 C 174.00936,281.8392 173.74402,282.1567 173.51535,282.4629 C 172.97783,283.1826 171.03177,284.6614 169.73295,285.337 C 168.29382,286.0856 166.10665,286.6029 164.09476,286.6705 C 163.19309,286.7008 162.25417,286.6959 162.00825,286.6596 z M 63.691812,286.3669 C 62.454262,286.143 59.955052,285.1093 58.918462,284.3926 C 58.133552,283.8499 56.485422,282.1436 55.861822,281.2281 C 55.158642,280.1957 54.191722,277.9346 53.936972,276.7268 C 53.561552,274.9471 53.696082,271.8405 54.235442,269.8344 C 54.551812,268.6576 55.364412,266.8217 55.952272,265.9556 C 56.248612,265.5189 57.144962,264.4171 57.944162,263.507 C 59.464062,261.7763 59.688092,261.2819 59.096112,260.9651 C 58.763352,260.787 58.719332,260.8059 57.757872,261.5406 C 56.321532,262.6382 53.474952,263.6296 51.393162,263.7573 C 47.140292,264.0182 43.415382,262.1312 40.991082,258.4879 C 39.330962,255.9931 38.887732,254.3996 39.018922,251.3976 C 39.143542,248.546 39.639282,246.889 40.968152,244.8824 C 41.922562,243.4411 42.825872,242.4778 44.121112,241.5198 C 46.660932,239.6414 48.470262,238.9968 51.200302,238.9976 C 53.251272,238.9982 54.208972,239.232 56.345022,240.2536 C 59.489782,241.7576 62.514782,245.3324 63.119992,248.2598 C 63.329502,249.2733 63.548742,249.5652 63.994122,249.4239 C 64.404592,249.2936 64.462842,248.905 64.303192,247.3619 C 64.050802,244.9224 63.740332,243.3407 62.834192,239.8782 C 61.736302,235.683 61.404462,234.7837 59.800072,231.6556 C 59.456502,230.9857 59.214252,230.3988 59.261742,230.3513 C 59.376902,230.2361 72.813832,230.2191 72.928702,230.334 C 72.978002,230.3833 72.909952,230.6071 72.777462,230.8314 C 72.644982,231.0557 72.065422,232.3224 71.489562,233.6463 C 70.580762,235.7356 70.139412,237.057 69.159132,240.6234 C 68.696602,242.3061 68.182322,245.5078 68.093602,247.2569 C 68.012402,248.858 68.032592,249.1492 68.236572,249.3185 C 68.734782,249.732 68.985712,249.4721 69.263102,248.2554 C 70.088922,244.6331 72.438652,241.8553 76.163762,240.0977 C 78.447542,239.0202 79.239192,238.8392 81.678082,238.8369 C 84.185702,238.8346 84.917882,238.996 86.819802,239.9702 C 90.079742,241.6401 92.444612,244.7411 93.284842,248.4478 C 93.409732,248.9987 93.509362,250.2197 93.515862,251.2789 C 93.530142,253.6061 93.198932,255.0733 92.184272,257.1773 C 91.300192,259.0106 90.606362,259.9093 89.166692,261.0857 C 86.915712,262.925 85.259552,263.5004 82.215732,263.5004 C 79.729882,263.5004 77.315442,262.8864 75.445162,261.7787 C 74.556272,261.2522 74.094882,261.1442 73.922992,261.4223 C 73.710632,261.7659 74.047812,262.2925 75.330322,263.6199 C 76.477812,264.8075 76.789692,265.2474 77.507042,266.6893 C 78.612812,268.9121 79.066802,270.6429 79.173262,273.0417 C 79.315322,276.2423 78.961282,277.917 77.688382,280.0657 C 75.952322,282.9962 73.651162,284.9653 70.920572,285.857 C 68.553922,286.6298 66.101152,286.8028 63.691812,286.3669 z M 204.95694,263.7894 C 203.94887,263.6234 203.50356,263.4491 202.59409,262.8646 C 200.51698,261.5297 199.6691,258.5874 200.71038,256.3277 C 200.92292,255.8665 201.53738,254.9839 202.07586,254.3665 C 203.17787,253.1029 203.12033,252.7875 201.92611,253.5457 C 199.99759,254.7701 198.33025,254.891 196.58451,253.9332 C 195.96543,253.5936 194.9233,252.4884 194.71447,251.9501 C 194.15957,250.5196 194.13341,248.5137 194.64937,246.9574 C 195.45212,244.5362 198.29435,243.1271 200.8028,243.9067 C 201.49774,244.1227 201.8319,244.3555 202.64509,245.19 C 203.62744,246.1981 203.96551,246.8615 204.32405,248.485 C 204.42357,248.9357 204.66619,249.0255 204.80525,248.6631 C 204.91934,248.3657 204.63207,246.542 204.17868,244.6852 C 203.85916,243.3766 203.33544,241.9809 202.7175,240.7912 C 202.2901,239.9682 202.34894,239.9527 205.90299,239.9527 C 207.69085,239.9527 209.25972,239.9934 209.38938,240.0432 C 209.71498,240.1681 209.68767,240.3428 209.21915,241.1319 C 207.98105,243.2172 206.41147,247.9238 206.70182,248.6805 C 206.84102,249.0432 206.98342,248.84 207.38698,247.7028 C 208.28354,245.1764 209.74306,244.0625 212.15873,244.0611 C 214.42444,244.0598 215.96957,245.0621 216.70106,247.0078 C 217.22782,248.4088 217.31686,249.4847 217.00528,250.6833 C 216.66457,251.9939 216.27771,252.6361 215.44738,253.2693 C 213.41681,254.8178 211.40345,254.7943 208.7038,253.1905 C 208.15034,252.8617 207.61146,252.6219 207.50628,252.6577 C 207.39008,252.6972 207.75839,253.185 208.44519,253.9013 C 210.28376,255.8186 210.74536,256.8939 210.6377,259.0085 C 210.55736,260.5864 210.12402,261.5387 209.08047,262.4307 C 207.71789,263.5954 206.40523,264.0279 204.95694,263.7894 z M 113.49717,252.2221 C 112.01765,252.072 109.6032,251.1796 108.03575,250.2034 C 107.07015,249.6021 105.36484,247.9109 104.59318,246.7893 C 103.93612,245.8343 102.97576,243.6249 102.70257,242.4398 C 102.41061,241.1733 102.407,240.0171 102.68852,237.9313 C 102.97246,235.8275 103.09528,235.4113 103.96105,233.6187 C 104.57143,232.355 104.9433,231.8379 106.40673,230.2177 C 108.30045,228.1212 108.48866,227.8535 108.35803,227.4419 C 108.19208,226.9191 107.81549,226.9563 106.92048,227.5841 C 104.54416,229.251 100.91963,230.1495 98.006032,229.7939 C 96.656942,229.6292 94.796542,229.0256 93.770252,228.4195 C 91.927822,227.3314 89.855622,225.1365 88.909402,223.2707 C 88.089122,221.6533 87.857322,220.754 87.744412,218.7511 C 87.557892,215.4422 88.094542,213.2142 89.634852,210.9024 C 91.264052,208.4572 94.034102,206.2661 96.568612,205.4178 C 97.663362,205.0514 97.978972,205.0142 100.00945,205.0122 C 102.59119,205.0095 103.29907,205.1853 105.74732,206.4366 C 107.40471,207.2837 108.62414,208.3235 110.06615,210.1194 C 111.2889,211.6422 111.80916,212.6355 112.22646,214.2441 C 112.52581,215.398 112.55004,215.4364 112.97921,215.4364 L 113.42266,215.4364 L 113.46568,214.3095 C 113.51903,212.912 112.94942,209.4736 112.22038,206.7923 C 111.93065,205.7267 111.52175,204.2177 111.31172,203.439 C 110.93158,202.0296 109.74036,199.1747 108.88459,197.622 C 108.05271,196.1127 107.44465,196.2323 115.32286,196.3554 C 119.19695,196.4159 122.27939,196.5237 122.36106,196.6015 C 122.45494,196.6909 122.43594,196.8526 122.30736,197.0585 C 122.19791,197.2338 121.61683,198.4355 121.01607,199.7291 C 119.2316,203.5714 118.02983,207.8301 117.38269,212.6047 C 117.18351,214.0743 117.17973,214.7814 117.36841,215.2776 C 117.62644,215.9563 118.41535,215.6801 118.41535,214.9111 C 118.41535,214.4185 118.99867,212.6903 119.49638,211.7083 C 121.17981,208.387 125.22991,205.7211 129.59301,205.0625 C 131.73654,204.739 134.19697,205.1403 136.18606,206.138 C 139.56866,207.8347 141.85484,210.6748 142.87404,214.4465 C 143.67429,217.408 143.25813,220.8404 141.7331,223.8569 C 141.01843,225.2705 140.39581,226.0625 139.05677,227.2615 C 136.20353,229.8163 132.6869,230.5214 128.08376,229.4618 C 126.81715,229.1702 126.05707,228.8635 124.68366,228.0897 C 123.57127,227.463 123.28096,227.4145 123.12202,227.8287 C 122.98811,228.1776 123.27944,228.5942 124.7353,230.1353 C 125.85767,231.3233 126.22707,231.8434 126.88405,233.1605 C 128.24609,235.891 128.78322,238.8817 128.42517,241.7412 C 128.13523,244.0567 127.45597,245.5026 125.6098,247.7339 C 122.78234,251.1512 118.51784,252.7313 113.49717,252.2221 z M 161.63566,220.8681 C 160.34139,220.7105 158.86637,220.2383 157.23911,219.4606 C 154.97917,218.3806 152.98164,216.2935 151.74271,213.7176 C 150.5779,211.2959 150.28945,209.5724 150.59497,206.8597 C 150.82984,204.7744 151.22018,203.3939 152.01645,201.8323 C 152.70028,200.4913 152.95736,200.1403 155.04084,197.7032 C 155.71709,196.9122 156.27038,196.1794 156.27038,196.0747 C 156.27038,195.97 156.13451,195.7614 155.96844,195.6112 C 155.67297,195.3438 155.64658,195.3519 154.73889,195.9921 C 153.55071,196.83 152.77872,197.1965 151.17531,197.684 C 146.86007,198.9959 143.24418,198.3261 139.78306,195.5737 C 138.06469,194.2072 135.99657,190.7466 135.7105,188.759 C 135.49055,187.2309 135.52188,185.3804 135.7923,183.927 C 136.47926,180.2349 139.08783,176.8613 142.87226,174.7707 C 144.6194,173.8055 147.23875,173.335 149.24584,173.6258 C 150.39184,173.7918 152.37097,174.4297 153.46857,174.9868 C 156.33199,176.4403 159.42192,180.1807 159.98249,182.8721 C 160.20072,183.9199 160.32162,184.1019 160.75831,184.0402 C 161.11083,183.9903 161.11389,183.9745 161.09764,182.276 C 161.08006,180.4384 160.65787,178.0331 159.85507,175.1968 C 159.62306,174.3771 159.22135,172.9352 158.96238,171.9925 C 158.51214,170.3536 157.97607,169.0269 156.70193,166.3981 C 156.38261,165.7393 156.12135,165.1294 156.12135,165.0428 C 156.12135,164.6217 169.01533,164.5748 169.69276,164.9935 C 169.82269,165.0738 169.76927,165.3173 169.49336,165.9025 C 166.8585,171.4908 165.44465,176.6161 164.97663,182.276 C 164.86965,183.5696 165.04693,184.2134 165.5101,184.2134 C 165.86467,184.2134 166.02761,183.8831 166.25699,182.699 C 166.45904,181.6561 167.39829,179.6862 168.28793,178.4395 C 169.61904,176.5741 172.84216,174.5068 175.59223,173.7546 C 177.02766,173.3619 180.29431,173.2852 181.60644,173.6134 C 183.10147,173.9872 185.17338,175.1697 186.51117,176.4125 C 187.92268,177.7238 188.69005,178.789 189.51376,180.5804 C 190.3697,182.4419 190.69762,183.9701 190.6975,186.0968 C 190.69737,188.1993 190.28996,189.9264 189.33173,191.8866 C 188.5405,193.5052 187.88742,194.3438 186.45081,195.5858 C 184.36683,197.3876 182.95023,197.9157 179.88703,198.0327 C 178.06641,198.1023 177.60243,198.069 176.31017,197.7763 C 174.28736,197.318 172.63481,196.6636 171.89416,196.0276 C 171.52273,195.7087 170.96041,195.842 170.90081,196.263 C 170.86249,196.5337 171.1373,196.9062 172.11017,197.9024 C 174.118,199.9583 175.21229,201.9434 175.94283,204.8549 C 176.81946,208.3486 176.45708,211.7586 174.94507,214.2441 C 173.06387,217.3364 170.54533,219.4637 167.8191,220.2631 C 165.38104,220.978 163.80473,221.1322 161.63566,220.8681 z M 64.298602,220.5716 C 63.165902,220.4145 61.029172,219.6365 59.753782,218.9167 C 58.679702,218.3105 56.895862,216.6388 56.040642,215.437 C 55.201612,214.258 54.219972,212.0488 53.941362,210.7125 C 53.464242,208.4242 53.808672,205.0408 54.754852,202.7214 C 55.422852,201.084 56.021742,200.191 57.796762,198.1856 C 59.182252,196.6203 59.404532,196.2987 59.366752,195.9139 C 59.300312,195.2371 58.822172,195.2535 57.875892,195.965 C 55.882622,197.4636 52.099132,198.523 49.503312,198.3092 C 48.821022,198.253 47.685112,198.004 46.795612,197.7155 C 44.188222,196.87 42.158662,195.2814 40.573342,192.8449 C 39.022912,190.462 38.605552,188.9414 38.729302,186.1261 C 38.826142,183.9228 38.994472,183.0215 39.555292,181.7036 C 41.031902,178.2336 44.519922,175.0742 47.996042,174.058 C 48.972992,173.7724 49.524782,173.7106 51.051272,173.7157 C 52.723782,173.7213 53.066562,173.7705 54.404572,174.1965 C 57.084452,175.0497 58.910172,176.3344 60.892412,178.7617 C 62.024542,180.1481 62.698292,181.3157 62.963282,182.3505 C 63.390602,184.0193 63.414312,184.0644 63.863942,184.0644 C 64.108342,184.0644 64.321162,183.9664 64.373632,183.8296 C 64.495472,183.5121 64.212262,180.3642 63.945562,179.0717 C 63.726732,178.0111 63.223292,176.0394 62.689832,174.1535 C 62.527522,173.5797 62.222062,172.4943 62.011032,171.7414 C 61.607502,170.3018 61.018102,168.8983 59.913622,166.747 C 59.547652,166.0342 59.248222,165.3468 59.248222,165.2194 C 59.248222,165.0167 59.689922,164.9868 62.787822,164.9798 C 64.734602,164.9753 66.998072,164.9359 67.817772,164.8922 C 68.637462,164.8486 70.135652,164.8593 71.147072,164.9161 C 72.757992,165.0066 72.976502,165.0498 72.909322,165.2644 C 72.867152,165.3992 72.317062,166.6831 71.686922,168.1176 C 69.908802,172.1653 68.959812,175.6152 68.284152,180.4875 C 68.244372,180.7744 68.165782,181.3281 68.109512,181.718 C 67.950162,182.822 68.147392,184.0307 68.505442,184.1443 C 68.940562,184.2824 69.188132,183.993 69.305752,183.2086 C 69.691742,180.6346 71.697482,177.6126 74.071582,176.028 C 77.111142,173.9992 79.774562,173.1888 82.759042,173.3845 C 85.579122,173.5695 87.759552,174.5183 89.841972,176.4666 C 91.807122,178.3052 92.870112,180.0665 93.617352,182.722 C 94.141232,184.5838 94.128872,187.3418 93.588302,189.2064 C 92.663492,192.3964 91.324442,194.3519 88.818742,196.1716 C 87.217302,197.3346 85.769372,197.7597 83.013902,197.8756 C 81.183752,197.9526 80.739842,197.9222 79.467242,197.6323 C 77.783412,197.2487 76.635332,196.8196 75.523802,196.1585 C 74.649492,195.6384 74.229462,195.5699 74.093212,195.9249 C 73.930882,196.3479 73.988292,196.4355 75.257592,197.702 C 75.947752,198.3906 76.710272,199.2422 76.952082,199.5944 C 77.903162,200.9797 78.734712,202.9077 79.220872,204.8549 C 79.673642,206.6683 79.698752,206.9033 79.613042,208.5259 C 79.506392,210.545 79.321562,211.5307 78.827182,212.7167 C 78.004492,214.6902 76.178492,217.0153 74.506162,218.2187 C 72.909892,219.3673 72.100302,219.7566 70.351372,220.2165 C 68.679642,220.6562 66.029832,220.8116 64.298602,220.5716 z M 156.1875,154.6909 C 156.13225,154.6015 156.3226,154.0146 156.61051,153.3868 C 157.91859,150.5344 158.65948,148.6999 159.08791,147.2526 C 159.34269,146.3919 159.61531,145.4865 159.69374,145.2406 C 160.48181,142.7697 161.2648,137.2909 160.98767,136.1867 C 160.87838,135.7513 160.49274,135.5504 160.21258,135.7829 C 160.10642,135.871 159.97553,136.2242 159.92168,136.5679 C 159.78926,137.413 159.33613,138.6258 158.70108,139.8348 C 157.1136,142.857 153.13566,145.4781 149.18157,146.1072 C 147.89617,146.3118 145.54289,146.2136 144.34844,145.9055 C 142.93728,145.5416 140.9716,144.4163 139.61727,143.197 C 138.44492,142.1416 136.74691,140.0064 136.7466,139.5872 C 136.74654,139.4998 136.55095,139.0149 136.31195,138.5097 C 135.66516,137.1425 135.3713,135.464 135.41956,133.4124 C 135.50228,129.8955 136.66762,127.064 138.98859,124.7406 C 140.4038,123.3239 141.56505,122.5485 142.98676,122.0711 C 145.05932,121.3752 148.08672,121.3113 150.38348,121.9149 C 151.62333,122.2408 154.07046,123.3142 154.3549,123.657 C 154.56211,123.9066 155.17248,123.9138 155.26612,123.6677 C 155.40349,123.3067 155.08222,122.817 153.806,121.4423 C 152.71697,120.2692 152.37853,119.773 151.62599,118.2459 C 150.23837,115.4302 149.71389,112.6557 150.0148,109.7228 C 150.2191,107.7315 150.57743,106.6112 151.49116,105.1068 C 153.76019,101.3709 156.35722,99.5221 160.44338,98.7337 C 162.35196,98.3654 165.34327,98.5169 166.99444,99.0654 C 171.1798,100.4558 173.76401,103.0901 175.37554,107.6092 C 176.02023,109.417 175.8481,113.5806 175.02787,116.0187 C 174.21633,118.4311 173.69005,119.2141 170.64652,122.5374 C 169.8286,123.4306 169.70869,123.7963 170.10418,124.1918 L 170.40693,124.4946 L 171.44087,123.7281 C 172.54236,122.9115 174.459,122.1221 176.42657,121.6746 C 178.05246,121.3048 180.84799,121.453 182.42613,121.9928 C 183.95706,122.5163 184.30398,122.6948 185.49513,123.5714 C 187.93976,125.3706 190.03084,128.585 190.39491,131.1034 C 190.73743,133.4728 190.50626,136.0322 189.76484,138.0794 C 189.01191,140.1583 186.61552,142.978 184.51528,144.2561 C 181.77392,145.9244 181.08229,146.1276 178.17862,146.1178 C 176.11682,146.1108 175.95602,146.088 174.67628,145.6212 C 172.58774,144.8593 171.43452,144.2126 170.1749,143.0971 C 167.90403,141.086 166.7716,139.4396 166.11376,137.1927 C 165.7598,135.9837 165.68313,135.8469 165.33679,135.8061 C 164.78341,135.7408 164.72652,136.0394 164.9176,138.0067 C 165.11526,140.0419 165.50545,142.0929 166.1237,144.3464 C 166.37105,145.2481 166.70665,146.4888 166.86944,147.1036 C 167.38077,149.0345 168.28902,151.2994 169.42646,153.4801 C 169.73793,154.0772 169.95279,154.6305 169.90391,154.7096 C 169.77303,154.9214 156.3186,154.903 156.1875,154.6909 z M 65.215252,154.5952 C 62.144482,154.5712 59.572962,154.4926 59.500772,154.4204 C 59.425112,154.3448 59.466972,154.1403 59.599572,153.9379 C 60.365342,152.7687 62.305652,147.6018 63.060162,144.7226 C 64.034772,141.0035 64.563802,135.9741 64.017362,135.6229 C 63.669572,135.3993 63.362902,135.5207 63.247972,135.9274 C 63.190292,136.1315 63.026122,136.7344 62.883162,137.2672 C 62.408472,139.0364 61.160302,141.1884 59.956192,142.3138 C 58.599542,143.5818 55.940292,145.1147 54.249242,145.6036 C 52.219812,146.1903 49.493852,146.2996 47.697972,145.8664 C 46.509022,145.5795 44.695912,144.6998 43.607382,143.8815 C 43.122022,143.5167 42.246192,142.7055 41.661102,142.079 C 40.411112,140.7406 39.376912,138.7456 38.833192,136.6239 C 38.539992,135.4799 38.506172,135.0559 38.571602,133.3452 C 38.658682,131.0683 39.012142,129.6528 40.030772,127.5016 C 40.542372,126.4212 40.881742,125.9472 41.796462,125.0358 C 43.444462,123.3938 44.336222,122.748 45.646362,122.2477 C 47.983892,121.3551 51.034002,121.2538 53.693562,121.9804 C 55.058182,122.3533 56.610632,123.0413 57.293602,123.5758 C 57.720142,123.9097 58.182652,123.9366 58.298662,123.6343 C 58.402802,123.3629 57.879962,122.4933 57.336842,122.0346 C 56.396902,121.2408 55.222402,119.6407 54.502842,118.1737 C 52.287802,113.6578 52.287382,108.5466 54.501762,104.9265 C 55.814042,102.7812 57.733182,100.9246 59.621892,99.9733 C 61.576142,98.9889 64.389542,98.4329 66.705612,98.5733 C 69.718222,98.7559 72.627352,99.9364 74.627952,101.7883 C 77.113632,104.0891 78.771882,107.6879 78.771882,110.7815 C 78.771882,113.164 78.180662,115.8066 77.221612,117.7109 C 76.513102,119.1177 76.238892,119.491 74.263562,121.7384 C 72.895472,123.2949 72.666532,123.8358 73.244872,124.1453 C 73.478532,124.2704 73.690432,124.1776 74.414442,123.6334 C 75.914302,122.5059 78.620472,121.5345 80.853252,121.322 C 84.949212,120.9323 88.621682,122.5033 91.119452,125.7135 C 91.950482,126.7816 91.950762,126.782 92.721492,128.2663 C 93.476222,129.7198 93.624122,130.3275 93.751382,132.4981 C 93.923912,135.4409 93.323282,137.6739 91.719272,140.0532 C 90.003022,142.599 87.398652,144.5549 84.460682,145.5044 C 83.651502,145.7659 83.105972,145.8257 81.529042,145.8259 C 79.223392,145.8262 78.416402,145.6317 76.014722,144.497 C 74.060092,143.5736 73.071022,142.7677 71.273372,140.6341 C 70.272662,139.4464 69.645902,138.2827 69.285972,136.9441 C 68.978352,135.8001 68.858922,135.6278 68.373512,135.6278 L 67.997032,135.6278 L 68.087722,137.3045 C 68.320792,141.6133 70.923392,150.2673 72.937202,153.4295 C 73.612062,154.4892 73.580762,154.555 72.400612,154.5574 C 71.847322,154.5585 71.260492,154.5773 71.096552,154.599 C 70.932612,154.6208 68.286032,154.6191 65.215252,154.5952 z M 111.71337,122.8452 C 109.78963,122.8232 108.16306,122.7525 108.09876,122.6882 C 108.03447,122.6239 108.20933,122.1055 108.48733,121.536 C 109.23241,120.01 110.4771,116.8489 111.04151,115.0494 C 111.92792,112.2233 112.71276,108.1003 112.84682,105.5655 C 112.93309,103.9343 112.91773,103.7821 112.63193,103.4362 C 112.35521,103.1012 112.30067,103.0866 112.09198,103.2914 C 111.96431,103.4167 111.78625,103.9197 111.6963,104.4092 C 111.50383,105.4565 110.87503,106.9939 110.11917,108.2654 C 108.54016,110.9214 104.81729,113.3722 101.36206,114.0303 C 100.21415,114.2489 97.440752,114.212 96.494462,113.9655 C 94.225432,113.3745 91.454172,111.4257 89.930642,109.3496 C 89.156052,108.2941 88.193312,106.3115 87.891342,105.1501 C 87.806092,104.8222 87.661232,104.2678 87.569422,103.918 C 87.477612,103.5683 87.399942,102.3553 87.396822,101.2225 C 87.391852,99.4206 87.440402,98.9965 87.784752,97.8344 C 88.266522,96.2085 89.141652,94.3697 89.903092,93.3834 C 90.747162,92.2901 92.597592,90.756 93.750092,90.1941 C 95.778172,89.2052 98.867442,88.8942 101.42161,89.4218 C 103.11282,89.7711 104.69756,90.3684 105.81793,91.0789 C 106.60659,91.5791 106.99164,91.5925 107.05908,91.1223 C 107.09118,90.8985 106.67355,90.3443 105.60018,89.1863 C 104.28018,87.7622 103.98883,87.3452 103.21733,85.7754 C 102.01839,83.336 101.64501,81.7104 101.6598,78.9943 C 101.67356,76.4683 101.95523,75.1528 102.82361,73.5589 C 104.56752,70.358 107.31122,67.9039 110.06935,67.078 C 113.59309,66.0228 116.79539,66.1195 119.73379,67.3699 C 123.2018,68.8457 125.15719,70.9765 126.88863,75.1666 C 126.98404,75.3975 127.16664,76.2358 127.2944,77.0296 C 127.48834,78.2344 127.49831,78.7311 127.3548,80.0376 C 127.08617,82.4829 126.79667,83.5613 125.93191,85.3377 C 125.23361,86.7722 124.92457,87.2081 123.55414,88.691 C 121.78126,90.6095 121.38784,91.2188 121.68819,91.5807 C 121.99286,91.9478 122.39561,91.854 123.23437,91.2208 C 125.18043,89.7515 128.48824,88.8624 131.39095,89.0285 C 135.18159,89.2454 138.27406,91.1012 140.49854,94.494 C 140.95536,95.1908 141.50914,96.2179 141.72917,96.7765 C 142.67877,99.1874 142.55473,103.1228 141.44466,105.8024 C 140.91861,107.0723 139.51353,109.1229 138.43907,110.1888 C 137.60227,111.0189 135.55145,112.5193 134.56144,113.0256 C 133.68877,113.472 131.24727,114.0178 130.13558,114.0151 C 127.48066,114.0086 124.07656,112.71 122.18055,110.9802 C 119.78734,108.7969 118.17719,106.3986 117.81791,104.482 C 117.63596,103.5114 117.34301,103.1367 116.95945,103.384 C 116.43635,103.7214 116.8565,107.8962 117.74609,111.2004 C 117.95361,111.9712 118.31896,113.3396 118.55797,114.2412 C 118.79699,115.1429 119.08785,116.216 119.20433,116.6258 C 119.44521,117.4734 120.73108,120.3348 121.50302,121.7411 C 121.78751,122.2593 121.98157,122.7221 121.93426,122.7694 C 121.83613,122.8675 116.87198,122.9043 111.71337,122.8452 z M 156.29988,89.4482 C 156.14925,89.3527 156.22431,89.089 156.63521,88.2703 C 156.92637,87.6901 157.1646,87.1785 157.1646,87.1333 C 157.1646,87.0881 157.32642,86.697 157.52421,86.2642 C 159.33031,82.3124 160.71962,76.8059 160.97532,72.5858 C 161.07444,70.9499 160.93475,70.2012 160.53038,70.2012 C 160.22984,70.2012 160.15133,70.3629 159.83276,71.6377 C 158.76541,75.9089 155.4552,79.1852 150.82008,80.5581 C 146.69109,81.781 142.62609,80.8383 139.52738,77.9391 C 138.05308,76.5598 137.29077,75.5205 136.50845,73.8234 C 135.61571,71.8867 135.35256,70.5919 135.36272,68.1861 C 135.3708,66.2751 135.4119,65.9657 135.84334,64.5676 C 136.51948,62.3765 137.35734,60.8112 138.50545,59.5941 C 141.0483,56.8986 143.10662,56.0147 146.88114,55.9975 C 149.32374,55.9863 150.92055,56.3651 153.10036,57.4727 C 153.97249,57.9158 154.77427,58.2784 154.88208,58.2784 C 155.20757,58.2784 155.1031,57.7359 154.67618,57.2093 C 154.45512,56.9366 153.89689,56.3111 153.43567,55.8193 C 151.95167,54.2368 150.72647,51.8478 150.11082,49.3362 C 149.59341,47.2254 149.49811,45.9759 149.70671,44.0378 C 149.97772,41.5198 150.86531,39.5547 152.67273,37.4711 C 153.61389,36.3861 155.42285,34.9296 156.49394,34.3944 C 157.14659,34.0683 159.32503,33.4276 160.44023,33.2337 C 161.78058,33.0007 164.22071,33.036 165.52103,33.3071 C 166.70224,33.5534 168.41551,34.2192 169.62681,34.9028 C 172.50074,36.5246 174.93259,40.1475 175.50237,43.6561 C 175.87232,45.9342 175.32152,49.4506 174.20861,51.9154 C 173.58898,53.2877 173.21298,53.8449 171.94567,55.2689 C 170.18223,57.2503 169.82151,57.7437 169.8651,58.1143 C 169.94661,58.8074 170.31638,58.8213 171.14994,58.1624 C 172.40026,57.174 174.71423,56.2408 176.83014,55.8715 C 178.46393,55.5864 180.99684,55.7878 182.57517,56.3283 C 185.59022,57.361 188.03303,59.6901 189.66227,63.0855 C 190.36089,64.5415 190.54268,65.5341 190.54236,67.8912 C 190.54176,72.0908 188.70229,75.7659 185.33233,78.3003 C 182.93035,80.1067 180.73398,80.8703 178.02958,80.8394 C 176.6434,80.8235 176.27163,80.7571 174.77392,80.2577 C 171.89292,79.2971 170.13556,78.04 168.00742,75.4175 C 167.00903,74.1871 166.34719,72.8759 165.97644,71.3935 C 165.77877,70.6032 165.67425,70.4163 165.40891,70.3785 C 165.20878,70.35 165.0259,70.4401 164.93353,70.6127 C 164.60345,71.2294 165.33357,76.0099 166.2478,79.2179 C 166.48141,80.0376 166.88439,81.4657 167.14331,82.3915 C 167.40224,83.3173 167.9456,84.7811 168.35077,85.6445 C 168.75595,86.5079 169.08745,87.2362 169.08745,87.263 C 169.08745,87.2898 169.32498,87.7319 169.6153,88.2455 C 169.90561,88.7592 170.10892,89.2686 170.06709,89.3776 C 170.00531,89.5386 168.72201,89.5754 163.24248,89.5736 C 159.53077,89.5723 156.40661,89.5159 156.29988,89.4482 z M 59.312362,88.9319 C 59.270812,88.8236 59.499652,88.1697 59.820902,87.4788 C 61.743742,83.3432 62.730242,80.2671 63.497122,76.0155 C 63.957552,73.4628 64.146242,70.5715 63.884332,70.0821 C 63.584292,69.5215 63.156232,69.666 62.979512,70.3875 C 62.493892,72.3704 61.797442,74.018 60.884822,75.343 C 59.308582,77.6314 56.290532,79.5606 53.063252,80.3427 C 51.601522,80.6969 49.152242,80.7262 47.792572,80.4057 C 46.323042,80.0593 44.142782,78.8628 42.878532,77.7089 C 41.452852,76.4077 40.743302,75.4269 39.855242,73.5299 C 38.850772,71.3842 38.635722,70.2309 38.720512,67.4441 C 38.781892,65.427 38.834822,65.0714 39.262222,63.8056 C 40.025092,61.5462 40.827892,60.1677 42.150662,58.8459 C 43.363602,57.6339 44.603512,56.7227 45.611472,56.3025 C 46.848052,55.7871 47.564662,55.6852 50.008022,55.6778 C 52.143422,55.6712 52.622382,55.7152 53.646762,56.0119 C 54.868422,56.3657 56.544842,57.1395 57.301472,57.6989 C 57.825402,58.0863 58.204972,57.9828 58.204972,57.4526 C 58.204972,57.176 57.919422,56.7698 57.209962,56.0373 C 55.222412,53.9853 54.010172,51.7394 53.261872,48.7227 C 52.826432,46.9673 52.808042,46.7716 52.885442,44.7161 C 53.003472,41.5817 53.530892,40.1432 55.531512,37.4991 C 58.451102,33.6404 63.815892,31.8504 68.929452,33.0287 C 69.458902,33.1507 70.661462,33.6233 71.601802,34.0788 C 73.147252,34.8274 73.441382,35.0382 74.663122,36.273 C 75.406502,37.0243 76.233832,38.0125 76.501632,38.4691 C 77.297152,39.8254 78.030292,41.8012 78.280422,43.263 C 78.496442,44.5254 78.494802,44.7971 78.259522,46.7238 C 77.778402,50.6637 76.973352,52.3494 73.880182,55.8938 C 72.453742,57.5283 72.303212,57.9271 72.976712,58.2876 C 73.202302,58.4083 73.409512,58.3226 74.039682,57.8479 C 75.061662,57.078 76.010972,56.611 77.735982,56.0296 C 80.601212,55.0639 84.200422,55.2551 86.692072,56.5054 C 86.990682,56.6552 87.783342,57.191 88.453532,57.696 C 90.620442,59.3288 92.746722,62.6642 93.077092,64.9487 C 93.286572,66.3973 93.260572,68.6002 93.017732,69.9777 C 92.472122,73.0724 90.636972,75.9701 87.960882,77.9623 C 83.880982,80.9996 79.890472,81.2711 75.195032,78.831 C 73.774262,78.0927 72.939342,77.3714 71.435152,75.5829 C 70.365242,74.3108 69.084572,72.1488 69.084572,71.6147 C 69.084572,71.5228 68.980162,71.096 68.852552,70.6663 C 68.640442,69.9521 68.586072,69.889 68.219152,69.9313 L 67.817772,69.9777 L 67.841932,71.6171 C 67.871542,73.6263 68.298912,75.8363 69.526892,80.3303 C 70.415242,83.5814 71.159242,85.5135 72.376712,87.7313 C 72.697242,88.3151 72.959502,88.8684 72.959502,88.9608 C 72.959502,89.2261 59.414232,89.1973 59.312362,88.9319 z M 20.871562,79.0234 C 20.625662,78.9648 20.424462,78.8505 20.424462,78.7693 C 20.424462,78.6881 20.735472,77.9846 21.115602,77.2059 C 22.233252,74.9164 23.451932,70.9888 23.226772,70.402 C 23.064322,69.9787 22.748232,70.2325 22.502502,70.9837 C 21.642842,73.6115 20.045602,74.9704 17.816342,74.9704 C 15.934912,74.9704 14.331912,73.9468 13.555992,72.2501 C 13.166312,71.398 13.130182,71.1736 13.130072,69.6051 C 13.129962,68.0796 13.171842,67.801 13.511112,67.0712 C 14.178362,65.6359 15.752252,64.6081 17.538432,64.4413 C 18.395382,64.3612 18.628062,64.4006 19.468652,64.7681 C 19.994342,64.9979 20.815082,65.4464 21.292512,65.7648 C 21.769932,66.0832 22.229482,66.3208 22.313732,66.2927 C 22.397982,66.2646 21.992322,65.7191 21.412262,65.0805 C 20.135172,63.6745 19.478612,62.4105 19.300272,61.0146 C 18.935812,58.1618 20.360552,55.8831 23.010432,55.0808 C 23.827662,54.8334 24.050512,54.8218 24.919232,54.9819 C 26.210412,55.2198 27.183482,55.7282 27.895042,56.5365 C 29.420202,58.2692 29.820172,60.5108 28.952162,62.4611 C 28.588822,63.2775 27.425222,64.8284 26.798832,65.3311 C 26.612692,65.4805 26.460402,65.6985 26.460402,65.8155 C 26.460402,66.1654 26.978712,66.0575 27.575102,65.5836 C 29.835262,63.7874 32.219942,63.8361 34.072192,65.7162 C 34.788452,66.4432 34.937262,66.6963 35.152692,67.554 C 35.290112,68.101 35.400142,68.9707 35.397222,69.4867 C 35.378462,72.803 33.527482,75.0599 30.676312,75.243 C 29.284262,75.3324 28.376442,74.9572 27.317292,73.8548 C 26.422662,72.9237 25.939932,72.0778 25.658382,70.9481 C 25.550392,70.5148 25.399802,70.2616 25.230852,70.2293 C 24.835562,70.1536 24.890692,71.161 25.406062,73.4312 C 25.870672,75.4777 26.329652,76.8262 26.966362,78.0155 C 27.199872,78.4517 27.305292,78.8052 27.225622,78.8849 C 27.060692,79.0498 21.491952,79.1712 20.871562,79.0234 z M 25.538202,50.0776 C 23.834662,49.7903 22.385742,48.5732 21.720752,46.8708 C 21.162882,45.4428 21.112682,44.4423 21.074262,33.9856 C 21.039792,24.6034 21.058142,23.6989 21.300912,22.8169 C 21.684772,21.4221 22.012452,20.8701 22.998292,19.9574 C 24.142822,18.8977 24.934842,18.6349 26.983442,18.6349 C 29.077512,18.6349 30.186872,18.9811 31.272682,19.9735 C 32.233712,20.8518 32.783152,21.9682 33.111652,23.7098 C 33.304122,24.7303 33.329382,26.4066 33.279482,34.8509 C 33.227842,43.5917 33.190632,44.8946 32.971032,45.6522 C 32.458132,47.4216 31.422822,48.8767 30.217342,49.5225 C 29.073042,50.1355 27.199442,50.3577 25.538202,50.0776 z M 28.836822,46.5087 C 29.599782,46.1195 29.981322,45.6069 30.172842,44.7139 C 30.372912,43.781 30.238742,25.758 30.023502,24.6522 C 29.820422,23.609 29.148572,22.5948 28.411492,22.2187 C 26.877062,21.4359 24.653332,22.3 24.223852,23.846 C 24.134932,24.166 24.077802,28.1743 24.078272,34.0601 C 24.078942,42.2564 24.113572,43.8612 24.303332,44.4868 C 24.808892,46.1534 25.620842,46.7572 27.397812,46.7878 C 27.986502,46.7979 28.443772,46.7092 28.836822,46.5087 z M 14.779502,49.8961 C 14.510012,49.6929 14.497012,49.126 14.423022,34.3449 C 14.355932,20.9446 14.374012,18.9815 14.565982,18.8222 C 14.779292,18.6452 17.266822,18.4821 17.418522,18.6352 C 17.562812,18.7808 17.680002,49.556 17.537082,49.7699 C 17.331002,50.0784 15.153342,50.178 14.779502,49.8961 z"
     id="path6865" />
  <g
     id="g3796"
     transform="translate(1.593878e-6,0)">
    <rect
       ry="11.25"
       rx="11.25"
       y="3.4247196"
       x="3.6058116"
       height="311.81104"
       width="223.22835"
       id="rect2382"
       style="fill:none;fill-opacity:1;fill-rule:nonzero;stroke:#000000;stroke-width:0.03543307;stroke-linejoin:round;stroke-miterlimit:4;stroke-dasharray:none;stroke-opacity:1" />
    <g
       transform="translate(3.5433116,3.3622195)"
       id="g3164">
      <path
         style="fill:none;fill-rule:evenodd;stroke:#000000;stroke-width:0.03221492;stroke-linecap:butt;stroke-linejoin:miter;stroke-miterlimit:4;stroke-dasharray:none;stroke-opacity:1"
         d="M 219.74754,0.062511534 L 226.70838,0.062511534"
         id="path3160"
         sodipodi:nodetypes="cc" />
      <path
         sodipodi:nodetypes="cc"
         id="path3162"
         d="M 223.29036,-3.2997195 L 223.29036,3.6063107"
         style="fill:none;fill-rule:evenodd;stroke:#000000;stroke-width:0.03196126;stroke-linecap:butt;stroke-linejoin:miter;stroke-miterlimit:4;stroke-dasharray:none;stroke-opacity:1" />
    </g>
    <g
       transform="matrix(1.0001093,0,0,1,3.519309,315.17275)"
       id="g3168">
      <path
         sodipodi:nodetypes="cc"
         id="path3170"
         d="M 219.74754,0.062511534 L 226.70838,0.062511534"
         style="fill:none;fill-rule:evenodd;stroke:#000000;stroke-width:0.03221492;stroke-linecap:butt;stroke-linejoin:miter;stroke-miterlimit:4;stroke-dasharray:none;stroke-opacity:1" />
      <path
         style="fill:none;fill-rule:evenodd;stroke:#000000;stroke-width:0.03196126;stroke-linecap:butt;stroke-linejoin:miter;stroke-miterlimit:4;stroke-dasharray:none;stroke-opacity:1"
         d="M 223.29036,-3.2997195 L 223.29036,3.6063107"
         id="path3172"
         sodipodi:nodetypes="cc" />
    </g>
    <g
       id="g3174"
       transform="matrix(1.0001093,0,0,1,-219.70906,315.17275)">
      <path
         style="fill:none;fill-rule:evenodd;stroke:#000000;stroke-width:0.03221492;stroke-linecap:butt;stroke-linejoin:miter;stroke-miterlimit:4;stroke-dasharray:none;stroke-opacity:1"
         d="M 219.74754,0.062511534 L 226.70838,0.062511534"
         id="path3176"
         sodipodi:nodetypes="cc" />
      <path
         sodipodi:nodetypes="cc"
         id="path3178"
         d="M 223.29036,-3.2997195 L 223.29036,3.6063107"
         style="fill:none;fill-rule:evenodd;stroke:#000000;stroke-width:0.03196126;stroke-linecap:butt;stroke-linejoin:miter;stroke-miterlimit:4;stroke-dasharray:none;stroke-opacity:1" />
    </g>
    <g
       transform="translate(-219.68504,3.3622195)"
       id="g3180">
      <path
         sodipodi:nodetypes="cc"
         id="path3182"
         d="M 219.74754,0.062511534 L 226.70838,0.062511534"
         style="fill:none;fill-rule:evenodd;stroke:#000000;stroke-width:0.03221492;stroke-linecap:butt;stroke-linejoin:miter;stroke-miterlimit:4;stroke-dasharray:none;stroke-opacity:1" />
      <path
         style="fill:none;fill-rule:evenodd;stroke:#000000;stroke-width:0.03196126;stroke-linecap:butt;stroke-linejoin:miter;stroke-miterlimit:4;stroke-dasharray:none;stroke-opacity:1"
         d="M 223.29036,-3.2997195 L 223.29036,3.6063107"
         id="path3184"
         sodipodi:nodetypes="cc" />
    </g>
  </g>
</svg>
