<?xml version="1.0" encoding="UTF-8" standalone="no"?>
<!-- Created with Inkscape (http://www.inkscape.org/) -->
<svg
   xmlns:dc="http://purl.org/dc/elements/1.1/"
   xmlns:cc="http://creativecommons.org/ns#"
   xmlns:rdf="http://www.w3.org/1999/02/22-rdf-syntax-ns#"
   xmlns:svg="http://www.w3.org/2000/svg"
   xmlns="http://www.w3.org/2000/svg"
   xmlns:sodipodi="http://sodipodi.sourceforge.net/DTD/sodipodi-0.dtd"
   xmlns:inkscape="http://www.inkscape.org/namespaces/inkscape"
   id="svg17044"
   sodipodi:version="0.32"
   inkscape:version="0.46"
   width="230.31497"
   height="318.84155"
   version="1.0"
   sodipodi:docname="10d.svg"
   inkscape:output_extension="org.inkscape.output.svg.inkscape">
  <metadata
     id="metadata17049">
    <rdf:RDF>
      <cc:Work
         rdf:about="">
        <dc:format>image/svg+xml</dc:format>
        <dc:type
           rdf:resource="http://purl.org/dc/dcmitype/StillImage" />
      </cc:Work>
    </rdf:RDF>
  </metadata>
  <defs
     id="defs17047">
    <inkscape:perspective
       sodipodi:type="inkscape:persp3d"
       inkscape:vp_x="0 : 526.18109 : 1"
       inkscape:vp_y="0 : 1000 : 0"
       inkscape:vp_z="744.09448 : 526.18109 : 1"
       inkscape:persp3d-origin="372.04724 : 350.78739 : 1"
       id="perspective17051" />
  </defs>
  <sodipodi:namedview
     inkscape:window-height="667"
     inkscape:window-width="799"
     inkscape:pageshadow="2"
     inkscape:pageopacity="0.0"
     guidetolerance="10.0"
     gridtolerance="10.0"
     objecttolerance="10.0"
     borderopacity="1.0"
     bordercolor="#666666"
     pagecolor="#ffffff"
     id="base"
     showgrid="false"
     inkscape:zoom="1.4489956"
     inkscape:cx="115.15749"
     inkscape:cy="159.42078"
     inkscape:window-x="22"
     inkscape:window-y="29"
     inkscape:current-layer="svg17044" />
  <path
     style="fill:#e00000;fill-opacity:1"
     d="M 202.24645,300.063 C 200.53123,299.6247 199.41653,298.7442 198.75204,297.3025 C 197.81684,295.2736 197.79409,294.9383 197.89617,284.6955 C 197.9921,275.0692 198.02571,274.2258 198.36861,272.8444 C 198.76776,271.2364 199.92929,269.7348 201.33211,269.0134 C 202.00414,268.6677 202.31932,268.6122 203.9353,268.5543 C 205.96171,268.4818 206.79115,268.6313 207.78637,269.2486 C 208.58931,269.7467 208.98579,270.2206 209.51098,271.3099 C 210.39963,273.1532 210.40072,273.1694 210.40891,284.7077 C 210.41697,296.0443 210.42471,295.916 209.63858,297.4595 C 209.17903,298.3617 207.9642,299.4564 206.9999,299.8372 C 205.95776,300.2486 203.44106,300.3682 202.24645,300.063 z M 205.94508,296.5966 C 206.25641,296.3906 206.697,295.9411 206.92416,295.5978 L 207.33719,294.9736 L 207.33656,284.8561 C 207.33608,277.22 207.29026,274.5881 207.14971,274.1249 C 206.7176,272.7007 205.87975,272.0207 204.36445,271.8643 C 203.70006,271.7957 203.40591,271.8488 202.72608,272.1601 C 201.86229,272.5555 201.50798,272.9469 201.27349,273.7645 C 201.19498,274.0382 201.12553,278.6291 201.11407,284.3012 C 201.09539,293.545 201.11481,294.4071 201.35563,295.0267 C 201.6866,295.8782 202.23022,296.4823 202.99509,296.8485 C 203.80763,297.2375 205.1498,297.1229 205.94508,296.5966 z M 214.10372,300.1712 C 214.05093,300.1184 214.00522,293.0483 214.00213,284.4597 C 213.99782,272.4585 214.03817,268.8185 214.17645,268.7331 C 214.27542,268.6719 214.86576,268.5943 215.48835,268.5605 C 217.42876,268.4554 217.21167,266.527 217.26723,284.3627 C 217.31125,298.4956 217.29482,299.7959 217.06938,300.0213 C 216.87878,300.2119 216.52856,300.2672 215.5116,300.2672 C 214.79006,300.2672 214.15652,300.224 214.10372,300.1712 z M 60.386892,285.8062 C 60.132232,285.4289 59.782892,284.8393 59.610562,284.4961 C 59.438242,284.1529 59.035432,283.5289 58.715422,283.1095 C 58.395412,282.6902 58.133592,282.3029 58.133592,282.2488 C 58.133592,282.0853 54.150522,276.1164 52.997232,274.5516 C 52.404692,273.7477 51.717762,272.8103 51.470712,272.4686 C 47.883612,267.507 42.164822,261.0179 39.822062,259.2508 C 38.520742,258.2692 38.508192,258.1977 39.445222,257.1014 C 39.881952,256.5904 40.273452,256.1387 40.315232,256.0975 C 40.357012,256.0564 40.828412,255.5173 41.362792,254.8997 C 41.897172,254.2821 42.680322,253.4062 43.103132,252.9533 C 43.525932,252.5003 44.400672,251.4897 45.047002,250.7073 C 45.693322,249.925 46.369432,249.1165 46.549462,248.9106 C 48.170722,247.0566 51.522992,242.6802 53.578522,239.7341 C 55.786632,236.5693 57.954312,232.9298 59.553662,229.7018 C 60.034792,228.7307 60.487762,227.8995 60.560262,227.8547 C 60.784742,227.716 61.108342,228.0951 61.776252,229.2794 C 62.129832,229.9063 62.671602,230.8235 62.980202,231.3176 C 63.288792,231.8117 64.138102,233.193 64.867552,234.387 C 65.597002,235.5811 66.416462,236.8613 66.688572,237.2319 C 66.960682,237.6024 67.705042,238.6805 68.342722,239.6275 C 68.980392,240.5745 69.944322,241.9558 70.484792,242.6969 C 71.025272,243.4381 71.796462,244.5161 72.198572,245.0926 C 72.600672,245.669 73.289462,246.5571 73.729212,247.0661 C 74.168972,247.5752 75.000412,248.5509 75.576862,249.2345 C 76.153312,249.918 77.828962,251.6913 79.300532,253.1751 C 80.772102,254.6589 82.075522,256.0225 82.197022,256.2053 C 82.407762,256.5223 82.356952,256.6056 81.093582,258.015 C 78.208542,261.2335 75.794372,264.0848 74.528762,265.7687 C 73.631092,266.963 70.211942,271.4088 69.946392,271.727 C 69.668352,272.0601 66.939882,276.1041 66.485102,276.8571 C 66.343302,277.0919 65.951492,277.7191 65.614402,278.2509 C 64.590992,279.8655 62.574952,283.4849 61.837102,285.0324 C 61.454272,285.8353 61.075532,286.4923 60.995472,286.4923 C 60.915412,286.4923 60.641542,286.1835 60.386892,285.8062 z M 168.81596,284.3645 C 168.31861,283.5172 167.28221,281.8668 166.51284,280.697 C 165.74348,279.5272 164.79308,278.0786 164.40085,277.4779 C 164.00864,276.8772 163.31974,275.8803 162.86999,275.2627 C 162.42024,274.6451 161.67674,273.5855 161.21776,272.908 C 160.7588,272.2306 160.29901,271.5905 160.19601,271.4856 C 160.09301,271.3807 159.37579,270.4527 158.60217,269.4233 C 155.82287,265.7252 151.11336,260.5615 148.60652,258.4638 C 147.92713,257.8953 147.37127,257.3473 147.37127,257.246 C 147.37127,257.0436 148.13912,256.1595 150.96746,253.1055 C 154.30841,249.498 159.68645,243.1502 160.92756,241.3494 C 161.45092,240.59 163.24546,238.0835 164.0659,236.966 C 164.31295,236.6295 164.71721,236.0105 164.96426,235.5905 C 165.21131,235.1705 165.6534,234.4416 165.94669,233.9706 C 167.10709,232.1073 168.02176,230.4978 168.77323,228.9968 C 169.20614,228.1322 169.65914,227.3236 169.77989,227.2001 C 169.97464,227.0009 170.03093,227.0139 170.27793,227.315 C 170.43109,227.5017 171.3763,229.0177 172.3784,230.6839 C 174.82104,234.7452 177.82394,239.3998 178.87275,240.7505 C 179.28119,241.2765 181.26974,244.0226 181.69166,244.6434 C 182.074,245.2059 182.97951,246.2994 185.23496,248.9221 C 186.24887,250.1011 189.21033,253.1527 190.85421,254.7124 C 191.3966,255.227 191.84038,255.7204 191.84038,255.8088 C 191.84038,255.8973 190.78598,257.1248 189.49727,258.5367 C 188.20857,259.9485 186.4563,261.9481 185.60335,262.9802 C 184.75041,264.0122 183.67135,265.3114 183.20548,265.8673 C 182.7396,266.4233 182.25156,267.0395 182.12095,267.2368 C 181.99035,267.434 181.50668,268.0572 181.04614,268.6217 C 179.18665,270.9006 175.81952,275.5579 175.81952,275.8509 C 175.81952,275.9334 175.62736,276.2222 175.39249,276.4927 C 175.15762,276.7632 174.77928,277.3214 174.55174,277.7332 C 174.32419,278.1449 174.0216,278.6503 173.8793,278.8561 C 173.73702,279.062 173.22553,279.9379 172.74267,280.8026 C 172.25982,281.6673 171.82814,282.4084 171.78338,282.4496 C 171.73863,282.4908 171.33143,283.2616 170.8785,284.1625 C 170.42558,285.0634 169.97967,285.824 169.88761,285.8528 C 169.79555,285.8816 169.31331,285.2118 168.81596,284.3645 z M 207.44508,262.6481 C 207.36072,262.5452 206.75388,261.6458 206.09653,260.6495 C 204.85948,258.7747 203.2105,256.4489 202.408,255.4472 C 201.51093,254.3274 199.22195,251.6777 198.97662,251.4751 C 198.8398,251.3621 198.72785,251.1755 198.72785,251.0606 C 198.72785,250.9456 199.43113,250.0121 200.2907,248.9861 C 203.06697,245.6722 204.5991,243.5378 206.14296,240.8333 C 206.63905,239.9642 207.14251,239.2532 207.26178,239.2532 C 207.38106,239.2532 207.77987,239.6911 208.14805,240.2264 C 208.51622,240.7617 209.27704,241.8734 209.83878,242.6969 C 211.45807,245.0708 213.50769,247.6485 215.00971,249.2001 C 215.77202,249.9876 216.39571,250.7268 216.39571,250.8427 C 216.39571,251.0795 215.96056,251.6819 214.77266,253.0896 C 213.18254,254.974 208.957,261.0009 208.17611,262.4984 C 207.98124,262.8721 207.67929,262.9339 207.44508,262.6481 z M 114.50111,251.8997 C 114.34935,251.732 113.81673,250.9238 113.31752,250.1036 C 112.2738,248.3888 109.27462,243.9448 108.11021,242.3876 C 105.90261,239.4354 104.90509,238.1354 104.31281,237.4387 C 103.95449,237.0172 103.30284,236.1992 102.86471,235.6209 C 102.14249,234.6676 101.58144,234.017 99.233832,231.4104 C 97.741362,229.7533 93.672872,225.7617 92.805842,225.1039 C 92.317412,224.7333 91.892042,224.35 91.860572,224.252 C 91.829102,224.154 92.161352,223.6793 92.598902,223.1971 C 93.036452,222.7149 93.798642,221.8517 94.292662,221.279 C 94.786682,220.7063 95.696272,219.6947 96.313982,219.031 C 97.753092,217.4847 99.802092,215.1142 100.62229,214.0467 C 100.9742,213.5887 101.31282,213.1772 101.3748,213.1324 C 101.43677,213.0875 101.72106,212.7476 102.00654,212.3771 C 102.29203,212.0065 102.57512,211.6813 102.63564,211.6545 C 102.7775,211.5916 104.86114,208.8051 106.62975,206.3131 C 107.38954,205.2425 108.11843,204.2359 108.24952,204.0762 C 109.12574,203.0083 111.95777,198.2719 113.22357,195.7573 C 114.09599,194.0242 114.23532,193.8108 114.49467,193.8108 C 114.64389,193.8108 115.82826,195.6347 119.57862,201.64 C 119.89803,202.1514 120.35,202.8119 120.583,203.1076 C 120.816,203.4033 121.47153,204.3466 122.03973,205.2038 C 122.60793,206.0609 123.46982,207.2816 123.95503,207.9162 C 124.44026,208.5509 125.17414,209.545 125.58589,210.1254 C 127.32562,212.5777 131.16805,216.9997 133.52731,219.2645 C 136.24148,221.8701 136.59087,222.2441 136.59087,222.5436 C 136.59087,222.7072 136.47154,222.9291 136.3257,223.0367 C 135.88251,223.3637 131.26414,228.5727 129.17936,231.0969 C 128.68525,231.6952 128.01148,232.5021 127.68208,232.8901 C 127.35268,233.2781 126.40939,234.4557 125.58589,235.507 C 124.76239,236.5583 123.88392,237.6628 123.63374,237.9615 C 122.99716,238.7215 121.54745,240.777 120.3995,242.5472 C 119.86547,243.3707 119.11267,244.5321 118.72659,245.1282 C 118.34052,245.7242 118.02465,246.2745 118.02465,246.351 C 118.02465,246.4274 117.97072,246.5125 117.90481,246.5399 C 117.74113,246.6081 116.7935,248.3259 115.75034,250.4453 C 115.27409,251.4129 114.86027,252.2046 114.83074,252.2046 C 114.80121,252.2046 114.65288,252.0674 114.50111,251.8997 z M 59.580412,221.1736 C 58.769362,219.75 57.953492,218.3844 57.321682,217.3929 C 56.954332,216.8165 56.471562,216.0417 56.248872,215.6711 C 55.749142,214.8395 52.749492,210.3588 51.537732,208.6339 C 50.623352,207.3323 50.132612,206.6684 49.070372,205.2961 C 48.738402,204.8673 48.359552,204.3479 48.228512,204.142 C 48.097462,203.9362 47.627932,203.3528 47.185102,202.8457 C 46.742282,202.3386 46.219722,201.7322 46.023862,201.4981 C 43.737192,198.7658 40.593112,195.4581 39.155612,194.2724 C 38.640922,193.8478 38.219812,193.4097 38.219812,193.2988 C 38.219812,193.1106 42.184972,188.5551 42.444172,188.4455 C 42.602382,188.3786 46.139732,184.3119 47.349642,182.8059 C 47.878912,182.1471 48.639612,181.2441 49.040062,180.7993 C 49.677932,180.0908 50.482272,179 54.120582,173.9092 C 55.731802,171.6548 57.362912,168.9034 59.181682,165.3719 C 59.848082,164.078 60.393222,163.1915 60.522512,163.1915 C 60.648172,163.1915 61.329012,164.237 62.131342,165.662 C 63.783072,168.5957 64.989772,170.603 66.527272,172.9746 C 67.149802,173.9349 67.873342,175.0575 68.135122,175.4692 C 69.553302,177.6999 74.209862,184.0874 74.738832,184.5277 C 74.788302,184.5689 75.518542,185.3774 76.361602,186.3245 C 77.204662,187.2715 78.771072,188.9194 79.842502,189.9864 C 80.913932,191.0535 81.790552,192.0156 81.790552,192.1245 C 81.790552,192.2334 81.445272,192.6742 81.023252,193.1041 C 80.601232,193.534 79.699192,194.5258 79.018722,195.3081 C 78.338252,196.0904 77.567742,196.9662 77.306482,197.2542 C 75.763762,198.9551 71.320792,204.3827 69.213432,207.1409 C 68.760512,207.7337 68.318842,208.2953 68.231962,208.3888 C 68.145082,208.4824 67.555792,209.3339 66.922422,210.2809 C 66.289062,211.2279 65.585302,212.2723 65.358522,212.6017 C 64.361202,214.0503 62.100412,217.9695 61.202512,219.8063 C 60.663822,220.9083 60.160042,221.8099 60.083002,221.8099 C 60.005972,221.8099 59.779802,221.5236 59.580412,221.1736 z M 168.93255,219.7661 C 168.6687,219.3752 168.39075,218.892 168.31488,218.6925 C 168.23903,218.493 167.91748,217.9505 167.60032,217.487 C 167.28318,217.0235 166.21906,215.3978 165.2356,213.8743 C 163.52869,211.2302 163.03764,210.5163 161.80444,208.8865 C 161.50455,208.4901 160.95116,207.7153 160.57465,207.1646 C 160.19816,206.6139 159.5495,205.7531 159.13318,205.2517 C 158.71687,204.7502 158.00567,203.8527 157.55275,203.2572 C 157.09982,202.6617 156.52711,201.9568 156.28006,201.6908 C 155.57986,200.9369 153.89408,199.0257 153.79793,198.8768 C 153.52972,198.4614 149.20211,194.2082 148.15734,193.3332 C 147.47795,192.7642 146.92208,192.2361 146.92208,192.1597 C 146.92208,192.0042 148.80484,189.8865 150.97146,187.6049 C 152.30519,186.2003 154.18003,184.0552 155.75563,182.131 C 156.80701,180.847 156.98405,180.6364 157.69508,179.824 C 158.42057,178.9951 160.62182,176.0217 162.66127,173.1156 C 164.40235,170.6348 166.73984,166.6972 168.05275,164.0335 C 168.64633,162.8293 169.20491,161.7933 169.29404,161.7313 C 169.52305,161.572 169.81415,161.9779 171.36166,164.6139 C 172.11099,165.8904 173.10602,167.5411 173.57285,168.2823 C 174.03969,169.0234 174.61825,169.9454 174.85855,170.3311 C 175.39751,171.1962 177.89971,174.874 179.11829,176.5922 C 179.61472,177.2921 180.27954,178.2354 180.59565,178.6883 C 180.91177,179.1413 181.41921,179.815 181.72332,180.1856 C 182.02742,180.5562 182.38293,180.9942 182.51335,181.1589 C 182.64376,181.3236 183.20031,181.9636 183.75013,182.5813 C 184.29994,183.1989 184.91341,183.9044 185.11338,184.149 C 185.72873,184.9019 187.21487,186.4522 188.47099,187.6516 C 190.90473,189.9756 191.39119,190.4727 191.39119,190.6355 C 191.39119,190.7271 190.92846,191.2938 190.36289,191.8947 C 189.26242,193.064 185.26428,197.6475 183.90481,199.2983 C 183.45188,199.8483 182.8118,200.6138 182.4824,200.9994 C 182.153,201.385 181.00758,202.8312 179.93703,204.2132 C 178.86647,205.5952 177.92075,206.8015 177.83544,206.8938 C 177.75011,206.9862 177.4526,207.3986 177.1743,207.8104 C 174.43576,211.8621 174.39609,211.9232 173.57344,213.3503 C 173.24687,213.9168 171.91461,216.1521 171.43163,216.9438 C 171.23068,217.2732 170.98478,217.7785 170.88521,218.0667 C 170.61317,218.8541 169.77919,220.3653 169.58391,220.4247 C 169.48953,220.4535 169.19642,220.1571 168.93255,219.7661 z M 60.035252,155.2929 C 59.755482,154.8555 59.440472,154.3314 59.335232,154.1282 C 59.229992,153.925 58.163262,152.2764 56.964712,150.4647 C 53.447092,145.1475 49.575022,140.0534 46.183392,136.2808 C 43.881302,133.72 40.001852,129.7882 38.854482,128.8528 C 38.162512,128.2887 38.089702,128.1783 38.255572,127.9448 C 38.479002,127.6303 39.866102,126.0546 41.738412,123.9886 C 45.410492,119.9364 49.919912,114.4833 51.461722,112.2303 C 51.703832,111.8765 52.056392,111.4407 52.245202,111.2618 C 52.434012,111.0829 52.589652,110.8631 52.591082,110.7732 C 52.592502,110.6834 53.010392,110.0096 53.519732,109.276 C 55.339032,106.6554 57.471222,103.0428 59.205582,99.6425 C 59.727712,98.6189 60.230382,97.7571 60.322612,97.7275 C 60.480582,97.6768 60.948102,98.3272 61.750712,99.714 C 62.886512,101.6766 64.352622,104.0909 64.565102,104.3486 C 64.700932,104.5133 64.937782,104.8933 65.091452,105.193 C 65.245122,105.4928 65.621002,106.0991 65.926742,106.5406 C 66.232482,106.982 66.943142,108.0506 67.506002,108.9153 C 68.464092,110.3871 69.044242,111.2069 71.793172,114.9735 C 72.670732,116.176 74.366502,118.2806 74.753402,118.6476 C 74.796822,118.6887 75.336752,119.2942 75.953242,119.9931 C 76.569732,120.692 78.236992,122.4101 79.658272,123.8112 C 81.079552,125.2122 82.240272,126.4259 82.237672,126.5083 C 82.235062,126.5906 81.858002,127.0622 81.399762,127.5563 C 80.941512,128.0505 80.252422,128.8157 79.868452,129.2568 C 79.484482,129.698 78.507712,130.8097 77.697842,131.7273 C 76.363742,133.2389 73.780102,136.3513 73.035362,137.3439 C 72.872792,137.5605 72.266392,138.3193 71.687812,139.03 C 71.109232,139.7406 70.265272,140.8095 69.812342,141.4052 C 69.359422,142.0009 68.917752,142.5648 68.830862,142.6584 C 68.480452,143.0359 66.218882,146.3258 66.218882,146.4581 C 66.218882,146.5362 66.076952,146.7286 65.903492,146.8854 C 65.730032,147.0423 65.460892,147.4065 65.305422,147.6947 C 65.149942,147.9829 64.870752,148.4677 64.685012,148.7719 C 63.639392,150.4844 62.124282,153.1976 61.500452,154.4746 C 61.106962,155.28 60.730772,155.9726 60.664472,156.0136 C 60.598172,156.0545 60.315022,155.7302 60.035252,155.2929 z M 168.1575,154.9227 C 168.03176,154.7766 167.23461,153.4779 166.38608,152.0368 C 164.71926,149.206 163.51042,147.2837 162.43152,145.7483 C 162.05539,145.213 161.32287,144.1349 160.80372,143.3526 C 157.24959,137.9969 153.38844,133.3067 148.99127,129.0041 C 147.68852,127.7293 146.62263,126.6287 146.62263,126.5583 C 146.62263,126.4879 147.08345,125.9425 147.64667,125.3463 C 149.81142,123.0549 153.59075,118.6095 155.72156,115.8483 C 156.07318,115.3927 156.74887,114.5391 157.22309,113.9515 C 157.6973,113.3638 158.24858,112.6472 158.44815,112.359 C 158.64772,112.0708 158.85624,111.8013 158.91152,111.7601 C 158.9668,111.7189 159.17363,111.4458 159.37114,111.1532 C 159.56865,110.8607 159.97094,110.3216 160.26511,109.9554 C 160.55928,109.5892 161.05589,108.8685 161.36869,108.3538 C 161.68149,107.8391 161.99067,107.418 162.05576,107.418 C 162.12086,107.418 162.2183,107.2788 162.27228,107.1087 C 162.32627,106.9386 162.66771,106.3652 163.03101,105.8346 C 163.39432,105.3039 163.69158,104.832 163.69158,104.7858 C 163.69158,104.7397 163.88366,104.4203 164.11842,104.0761 C 164.76453,103.1287 166.35411,100.2392 167.58867,97.768 C 167.87461,97.1957 168.19229,96.7018 168.29462,96.6704 C 168.39696,96.639 168.73385,97.0274 169.04326,97.5334 C 170.41996,99.7849 175.3491,107.121 176.50454,108.6382 C 176.84012,109.0788 177.5139,109.97 178.00181,110.6186 C 179.9944,113.2676 180.63938,114.0856 182.05169,115.7549 C 182.86503,116.7163 184.27819,118.2826 185.19203,119.2356 C 186.10587,120.1886 187.08284,121.2247 187.36308,121.538 C 187.64331,121.8514 188.34424,122.4874 188.92069,122.9515 C 190.32922,124.0855 191.09174,124.8113 191.09174,125.0182 C 191.09174,125.1122 190.94755,125.3175 190.77132,125.4744 C 190.59509,125.6313 189.73357,126.5707 188.85683,127.5619 C 187.9801,128.5532 186.81986,129.8334 186.27853,130.4068 C 185.73719,130.9801 185.06587,131.7188 184.78671,132.0482 C 184.50754,132.3776 184.11069,132.8326 183.90481,133.0594 C 183.69893,133.2861 183.05885,134.0366 182.4824,134.7271 C 181.90595,135.4176 181.31639,136.0174 181.17228,136.0601 C 181.02817,136.1027 180.91026,136.2529 180.91026,136.3937 C 180.91026,136.5345 180.51748,137.0966 180.03739,137.6429 C 179.1416,138.6623 177.2577,141.1214 176.19384,142.66 C 175.86444,143.1364 175.35782,143.8409 175.068,144.2255 C 174.07561,145.5425 171.22306,150.2086 170.24692,152.1117 C 168.52303,155.4725 168.57292,155.4054 168.1575,154.9227 z M 171.32769,107.1185 C 171.32769,107.0362 171.22662,106.9688 171.1031,106.9688 C 170.97957,106.9688 170.8785,107.0362 170.8785,107.1185 C 170.8785,107.2009 170.97957,107.2683 171.1031,107.2683 C 171.22662,107.2683 171.32769,107.2009 171.32769,107.1185 z M 113.48204,123.5981 C 113.26292,123.267 113.08363,122.9523 113.08363,122.8987 C 113.08363,122.8452 112.82834,122.4226 112.51631,121.9597 C 112.20428,121.4968 111.52414,120.4106 111.00489,119.5459 C 109.30239,116.7109 106.5348,112.524 104.47264,109.6639 C 104.02732,109.0463 103.30651,108.0451 102.87081,107.4391 C 100.51757,104.1657 97.172552,100.4717 92.902522,96.4308 C 92.390752,95.9465 91.972032,95.4944 91.972032,95.4262 C 91.972032,95.358 92.129742,95.1478 92.322502,94.9592 C 94.627832,92.7033 101.14634,84.9942 105.33195,79.5736 C 105.55661,79.2826 106.27695,78.2361 106.93271,77.2479 C 107.58846,76.2597 108.28523,75.249 108.48108,75.0019 C 108.67693,74.7549 109.102,74.0906 109.42569,73.5258 C 109.74938,72.9609 110.08159,72.388 110.16394,72.2526 C 110.24629,72.1172 110.55074,71.6024 110.8405,71.1085 C 111.13025,70.6147 111.48751,70.0085 111.6344,69.7615 C 111.78129,69.5144 112.26457,68.5543 112.70835,67.6279 C 113.15213,66.7014 113.58947,65.9434 113.68022,65.9434 C 113.77097,65.9434 114.09497,66.3537 114.40022,66.8552 C 114.70548,67.3567 115.22474,68.1679 115.55414,68.6578 C 115.88354,69.1477 116.38887,69.907 116.6771,70.3452 C 118.10742,72.5196 119.79813,74.9566 120.37521,75.6757 C 120.47434,75.7992 120.7777,76.2122 121.04935,76.5935 C 121.82211,77.6781 123.75256,80.2342 123.86163,80.3173 C 123.9157,80.3585 124.49267,81.0659 125.14379,81.8894 C 127.60112,84.9973 132.80974,90.4387 135.13103,92.323 C 136.62554,93.5362 136.84263,93.8906 136.32413,94.2709 C 136.17742,94.3785 135.52882,95.0729 134.8828,95.8141 C 134.23678,96.5552 133.12718,97.7695 132.41702,98.5125 C 131.70686,99.2554 130.99694,100.0303 130.83942,100.2344 C 130.6819,100.4384 130.10272,101.1107 129.55236,101.7283 C 129.002,102.346 128.29683,103.1882 127.98533,103.5999 C 127.67382,104.0117 127.16212,104.6518 126.84823,105.0223 C 125.17517,106.9975 124.20568,108.219 123.40208,109.3644 C 122.911,110.0644 121.83875,111.5804 121.01931,112.7333 C 120.19988,113.8862 119.31294,115.2001 119.04834,115.653 C 118.78375,116.1059 118.45485,116.6449 118.31746,116.8508 C 117.73552,117.7228 116.24452,120.3578 115.30975,122.1662 C 114.75637,123.2367 114.20839,124.1323 114.09203,124.1564 C 113.97566,124.1805 113.70117,123.9292 113.48204,123.5981 z M 58.409122,90.2404 C 58.284462,90.0943 57.892172,89.4694 57.537362,88.8518 C 55.634592,85.5395 54.803812,84.1313 54.504302,83.7107 C 54.321252,83.4536 53.968082,82.8692 53.719462,82.4119 C 53.470852,81.9546 52.948542,81.111 52.558782,80.5371 C 51.840842,79.4801 48.614142,74.6668 47.652652,73.2186 C 47.364422,72.7844 46.454832,71.6091 45.631332,70.6067 C 44.807822,69.6043 43.910972,68.4988 43.638312,68.1499 C 43.365662,67.801 41.950732,66.2781 40.494032,64.7656 C 39.037332,63.2532 37.784672,61.8888 37.710342,61.7337 C 37.601342,61.5063 37.731722,61.2842 38.384112,60.5861 C 40.045782,58.8081 43.093222,55.353 43.773032,54.4764 C 43.986222,54.2015 44.366912,53.7214 44.619002,53.4094 C 44.871092,53.0975 45.527952,52.2695 46.078682,51.5696 C 46.629412,50.8696 47.629962,49.599 48.302122,48.7459 C 51.656102,44.4895 51.480752,44.7244 53.166362,42.2296 C 54.854552,39.7309 57.231352,35.7194 58.277972,33.6022 C 59.183282,31.771 59.197632,31.7631 59.800092,32.7712 C 60.077592,33.2355 60.678992,34.202 61.136542,34.919 C 61.594092,35.6359 62.301562,36.7456 62.708682,37.385 C 64.622992,40.3913 67.177372,44.1413 68.579892,46.0042 C 68.931422,46.4711 69.739942,47.5519 70.376622,48.406 C 71.013292,49.2601 71.803722,50.2765 72.133122,50.6647 C 72.462522,51.0529 73.102612,51.8331 73.555532,52.3986 C 75.277972,54.5489 79.475652,58.9606 80.705032,59.9125 C 80.972672,60.1198 81.191642,60.3562 81.191642,60.4379 C 81.191642,60.6814 77.974872,64.4111 76.565402,65.8018 C 76.268752,66.0945 75.554402,66.8962 74.977952,67.5834 C 74.401492,68.2705 73.684092,69.1091 73.383702,69.4469 C 71.477052,71.5906 68.756932,75.0003 67.040742,77.3976 C 66.392272,78.3034 65.487262,79.5559 65.029632,80.1809 C 64.571992,80.8059 64.020292,81.6145 63.803622,81.9777 C 63.586962,82.3409 63.046812,83.2108 62.603292,83.9107 C 61.374362,85.8503 60.987522,86.5177 59.919222,88.5416 C 59.377842,89.5672 58.867592,90.4288 58.785332,90.4562 C 58.703082,90.4836 58.533782,90.3865 58.409122,90.2404 z M 58.433042,66.8601 C 58.433042,66.665 58.046322,66.3801 57.933952,66.4924 C 57.821582,66.6048 58.106492,66.9915 58.301652,66.9915 C 58.373912,66.9915 58.433042,66.9324 58.433042,66.8601 z M 167.86262,89.7875 C 167.59862,89.4695 167.14049,88.7565 166.05868,86.9802 C 163.39062,82.5992 160.51422,78.2276 158.37423,75.3014 C 157.83222,74.5602 156.99031,73.3811 156.50332,72.6812 C 156.01634,71.9812 155.46369,71.2379 155.27521,71.0293 C 154.57579,70.2554 152.81562,68.2449 152.33017,67.6653 C 151.73679,66.9569 148.70538,63.8653 147.3069,62.5423 C 146.76585,62.0304 146.32317,61.5018 146.32317,61.3674 C 146.32317,61.2331 146.60132,60.8097 146.94128,60.4265 C 150.0178,56.9586 151.72243,54.9774 152.88717,53.516 C 153.64196,52.569 154.56037,51.4236 154.92807,50.9707 C 155.29577,50.5177 155.94792,49.6755 156.37728,49.0991 C 156.80665,48.5226 157.19791,48.0173 157.24676,47.9761 C 157.29561,47.9349 158.04361,46.958 158.90899,45.8051 C 161.89771,41.8233 164.65491,37.4935 166.39362,34.0514 C 166.95519,32.9397 167.51573,31.8954 167.63922,31.7307 C 167.92499,31.3496 168.02134,31.4395 169.00691,33.0073 C 171.00435,36.1846 177.26174,45.1754 177.75752,45.5805 C 177.80792,45.6216 178.53206,46.5312 179.36671,47.6018 C 180.20136,48.6723 181.00852,49.683 181.16042,49.8477 C 181.31231,50.0124 182.05073,50.8546 182.80136,51.7193 C 183.55199,52.584 184.84625,53.9893 185.67751,54.8423 C 186.50875,55.6952 187.22933,56.5206 187.2788,56.6764 C 187.32826,56.8323 187.42444,56.9598 187.49252,56.9598 C 187.56062,56.9598 187.83949,57.1682 188.11222,57.423 C 188.38496,57.6778 188.88057,58.0745 189.21358,58.3046 C 189.99781,58.8466 190.64255,59.4505 190.64255,59.6431 C 190.64255,59.7806 188.63776,62.107 187.21307,63.6226 C 186.20833,64.6916 183.99502,67.2002 183.38076,67.9664 C 183.05136,68.3772 182.73081,68.736 182.66842,68.7637 C 182.60603,68.7913 182.23744,69.2293 181.84935,69.7369 C 181.46125,70.2445 180.46795,71.469 179.642,72.4579 C 178.81606,73.4469 177.93816,74.5574 177.69111,74.9257 C 177.1096,75.7927 174.93659,78.8501 174.28472,79.7184 C 173.74149,80.442 171.62714,83.8509 171.62714,84.0032 C 171.62714,84.0537 171.3317,84.5421 170.9706,85.0884 C 170.6095,85.6348 170.07752,86.5534 169.78844,87.1299 C 168.85592,88.9893 168.26955,90.0496 168.17369,90.0496 C 168.12221,90.0496 167.98222,89.9317 167.86262,89.7875 z M 166.17769,85.8977 C 166.12793,85.848 166.09254,85.9364 166.09903,86.0943 C 166.10622,86.2687 166.14171,86.3042 166.1895,86.1847 C 166.23276,86.0766 166.22744,85.9475 166.17769,85.8977 z M 173.321,78.5075 C 173.12217,78.3087 172.90186,78.581 173.05763,78.833 C 173.13006,78.9503 173.20378,78.9503 173.321,78.833 C 173.4382,78.7158 173.4382,78.6247 173.321,78.5075 z M 171.32769,37.6449 C 171.32769,37.5625 171.26031,37.4952 171.17796,37.4952 C 171.09561,37.4952 171.02823,37.5625 171.02823,37.6449 C 171.02823,37.7272 171.09561,37.7946 171.17796,37.7946 C 171.26031,37.7946 171.32769,37.7272 171.32769,37.6449 z M 22.382842,78.558 C 22.282932,78.4139 21.563892,77.319 20.784982,76.1249 C 18.111502,72.0264 16.717412,70.176 14.909612,68.3262 C 13.800172,67.191 13.780712,67.0035 14.670152,66.0183 C 16.020462,64.5226 21.601422,56.5095 21.943832,55.5748 C 22.115282,55.1068 22.573492,55.2777 22.947222,55.9491 C 23.142052,56.2991 23.412812,56.7539 23.548912,56.9598 C 23.685012,57.1656 24.394502,58.2437 25.125562,59.3554 C 26.807272,61.9128 28.125812,63.659 30.019292,65.8363 C 30.576762,66.4773 31.032842,67.05 31.032792,67.1089 C 31.032742,67.1679 30.712692,67.6105 30.321582,68.0925 C 27.784832,71.219 26.366832,73.0425 25.867282,73.8206 C 25.702582,74.0771 25.324762,74.65 25.027682,75.0936 C 24.730612,75.5373 24.231762,76.372 23.919132,76.9484 C 23.260702,78.1625 22.822202,78.82 22.670992,78.82 C 22.612432,78.82 22.482762,78.7021 22.382842,78.558 z M 23.667892,49.8521 C 21.734462,49.3197 20.496262,47.7903 19.918022,45.2205 C 19.798262,44.6883 19.743632,41.2651 19.737392,33.9017 L 19.728442,23.3459 L 20.077392,22.2349 C 20.371252,21.2992 20.567072,20.9773 21.317762,20.1955 C 22.467382,18.9983 23.465312,18.6295 25.555192,18.6295 C 28.236542,18.6295 29.727302,19.43 30.770932,21.4302 C 31.708762,23.2276 31.706772,23.2003 31.705522,34.276 C 31.704472,43.6038 31.684722,44.3813 31.424112,45.3559 C 30.888952,47.357 30.011592,48.6377 28.682692,49.3574 C 27.420622,50.0409 25.162252,50.2637 23.667892,49.8521 z M 27.611142,46.3473 C 28.382022,45.8585 28.734202,45.1701 28.865072,43.8964 C 28.909522,43.4638 28.890912,38.8652 28.823732,33.6771 C 28.706582,24.6298 28.689062,24.2167 28.394932,23.5705 C 27.755532,22.1656 26.428112,21.4629 24.994572,21.7703 C 23.760472,22.035 22.925352,22.7287 22.647122,23.7202 C 22.466122,24.3653 22.457062,42.041 22.636942,43.5927 C 22.899202,45.855 23.837132,46.7783 25.873082,46.7783 C 26.782052,46.7783 27.027622,46.7174 27.611142,46.3473 z M 13.266502,49.7354 C 13.118452,49.4969 13.101102,48.146 13.040622,32.15 C 13.007232,23.316 13.041212,18.8936 13.143272,18.7914 C 13.297922,18.6367 15.676902,18.4918 15.801972,18.6295 C 15.839372,18.6707 15.916212,25.6568 15.972732,34.1543 C 16.074582,49.4671 16.072852,49.6058 15.778192,49.7635 C 15.353282,49.9909 13.411632,49.9692 13.266502,49.7354 z"
     id="path17055" />
  <g
     id="g3796"
     transform="translate(1.593878e-6,0)">
    <rect
       ry="11.25"
       rx="11.25"
       y="3.4247196"
       x="3.6058116"
       height="311.81104"
       width="223.22835"
       id="rect2382"
       style="fill:none;fill-opacity:1;fill-rule:nonzero;stroke:#000000;stroke-width:0.03543307;stroke-linejoin:round;stroke-miterlimit:4;stroke-dasharray:none;stroke-opacity:1" />
    <g
       transform="translate(3.5433116,3.3622195)"
       id="g3164">
      <path
         style="fill:none;fill-rule:evenodd;stroke:#000000;stroke-width:0.03221492;stroke-linecap:butt;stroke-linejoin:miter;stroke-miterlimit:4;stroke-dasharray:none;stroke-opacity:1"
         d="M 219.74754,0.062511534 L 226.70838,0.062511534"
         id="path3160"
         sodipodi:nodetypes="cc" />
      <path
         sodipodi:nodetypes="cc"
         id="path3162"
         d="M 223.29036,-3.2997195 L 223.29036,3.6063107"
         style="fill:none;fill-rule:evenodd;stroke:#000000;stroke-width:0.03196126;stroke-linecap:butt;stroke-linejoin:miter;stroke-miterlimit:4;stroke-dasharray:none;stroke-opacity:1" />
    </g>
    <g
       transform="matrix(1.0001093,0,0,1,3.519309,315.17275)"
       id="g3168">
      <path
         sodipodi:nodetypes="cc"
         id="path3170"
         d="M 219.74754,0.062511534 L 226.70838,0.062511534"
         style="fill:none;fill-rule:evenodd;stroke:#000000;stroke-width:0.03221492;stroke-linecap:butt;stroke-linejoin:miter;stroke-miterlimit:4;stroke-dasharray:none;stroke-opacity:1" />
      <path
         style="fill:none;fill-rule:evenodd;stroke:#000000;stroke-width:0.03196126;stroke-linecap:butt;stroke-linejoin:miter;stroke-miterlimit:4;stroke-dasharray:none;stroke-opacity:1"
         d="M 223.29036,-3.2997195 L 223.29036,3.6063107"
         id="path3172"
         sodipodi:nodetypes="cc" />
    </g>
    <g
       id="g3174"
       transform="matrix(1.0001093,0,0,1,-219.70906,315.17275)">
      <path
         style="fill:none;fill-rule:evenodd;stroke:#000000;stroke-width:0.03221492;stroke-linecap:butt;stroke-linejoin:miter;stroke-miterlimit:4;stroke-dasharray:none;stroke-opacity:1"
         d="M 219.74754,0.062511534 L 226.70838,0.062511534"
         id="path3176"
         sodipodi:nodetypes="cc" />
      <path
         sodipodi:nodetypes="cc"
         id="path3178"
         d="M 223.29036,-3.2997195 L 223.29036,3.6063107"
         style="fill:none;fill-rule:evenodd;stroke:#000000;stroke-width:0.03196126;stroke-linecap:butt;stroke-linejoin:miter;stroke-miterlimit:4;stroke-dasharray:none;stroke-opacity:1" />
    </g>
    <g
       transform="translate(-219.68504,3.3622195)"
       id="g3180">
      <path
         sodipodi:nodetypes="cc"
         id="path3182"
         d="M 219.74754,0.062511534 L 226.70838,0.062511534"
         style="fill:none;fill-rule:evenodd;stroke:#000000;stroke-width:0.03221492;stroke-linecap:butt;stroke-linejoin:miter;stroke-miterlimit:4;stroke-dasharray:none;stroke-opacity:1" />
      <path
         style="fill:none;fill-rule:evenodd;stroke:#000000;stroke-width:0.03196126;stroke-linecap:butt;stroke-linejoin:miter;stroke-miterlimit:4;stroke-dasharray:none;stroke-opacity:1"
         d="M 223.29036,-3.2997195 L 223.29036,3.6063107"
         id="path3184"
         sodipodi:nodetypes="cc" />
    </g>
  </g>
</svg>
