<?xml version="1.0" encoding="UTF-8" standalone="no"?>
<!-- Created with Inkscape (http://www.inkscape.org/) -->
<svg
   xmlns:dc="http://purl.org/dc/elements/1.1/"
   xmlns:cc="http://creativecommons.org/ns#"
   xmlns:rdf="http://www.w3.org/1999/02/22-rdf-syntax-ns#"
   xmlns:svg="http://www.w3.org/2000/svg"
   xmlns="http://www.w3.org/2000/svg"
   xmlns:sodipodi="http://sodipodi.sourceforge.net/DTD/sodipodi-0.dtd"
   xmlns:inkscape="http://www.inkscape.org/namespaces/inkscape"
   id="svg17646"
   sodipodi:version="0.32"
   inkscape:version="0.46"
   width="230.31497"
   height="318.84155"
   version="1.0"
   sodipodi:docname="10h.svg"
   inkscape:output_extension="org.inkscape.output.svg.inkscape">
  <metadata
     id="metadata17651">
    <rdf:RDF>
      <cc:Work
         rdf:about="">
        <dc:format>image/svg+xml</dc:format>
        <dc:type
           rdf:resource="http://purl.org/dc/dcmitype/StillImage" />
      </cc:Work>
    </rdf:RDF>
  </metadata>
  <defs
     id="defs17649">
    <inkscape:perspective
       sodipodi:type="inkscape:persp3d"
       inkscape:vp_x="0 : 526.18109 : 1"
       inkscape:vp_y="0 : 1000 : 0"
       inkscape:vp_z="744.09448 : 526.18109 : 1"
       inkscape:persp3d-origin="372.04724 : 350.78739 : 1"
       id="perspective17653" />
  </defs>
  <sodipodi:namedview
     inkscape:window-height="667"
     inkscape:window-width="843"
     inkscape:pageshadow="2"
     inkscape:pageopacity="0.0"
     guidetolerance="10.0"
     gridtolerance="10.0"
     objecttolerance="10.0"
     borderopacity="1.0"
     bordercolor="#666666"
     pagecolor="#ffffff"
     id="base"
     showgrid="false"
     inkscape:zoom="1.4489956"
     inkscape:cx="115.15749"
     inkscape:cy="159.42078"
     inkscape:window-x="88"
     inkscape:window-y="116"
     inkscape:current-layer="svg17646" />
  <path
     style="fill:#e00000;fill-opacity:1"
     d="M 201.67438,300.0528 C 200.49185,299.785 199.95051,299.4965 199.03795,298.6478 C 198.23823,297.904 197.76525,297.0103 197.35556,295.4689 C 197.13281,294.6308 197.10679,293.543 197.12419,285.7989 C 197.13497,280.9997 197.18118,276.469 197.22685,275.7307 C 197.40378,272.8707 198.10095,270.9395 199.37043,269.7926 C 200.6314,268.6534 201.77045,268.3603 204.37882,268.5042 C 206.96903,268.647 208.18574,269.5623 209.131,272.079 C 209.69272,273.5745 209.75511,275.1596 209.67394,285.8734 L 209.59936,295.7179 L 209.23442,296.6874 C 208.73618,298.011 207.2873,299.4859 206.09414,299.8841 C 205.02617,300.2404 202.86688,300.3229 201.67438,300.0528 z M 205.18064,296.5515 C 205.43733,296.3687 205.83179,295.9774 206.0572,295.6819 L 206.46704,295.1446 L 206.5083,284.8717 C 206.5351,278.1966 206.49604,274.4 206.39674,274.0313 C 206.01076,272.5978 205.05268,271.8983 203.43655,271.87 C 202.59567,271.8553 202.32908,271.9176 201.7321,272.2685 C 200.75113,272.8452 200.56076,273.2976 200.40391,275.4253 C 200.19802,278.2178 200.31971,294.2449 200.55207,294.9389 C 200.78526,295.6353 201.53919,296.5136 202.13868,296.7871 C 202.83581,297.1053 204.59421,296.969 205.18064,296.5515 z M 213.33801,300.1337 C 213.26264,300.0118 213.22356,270.9407 213.29668,269.3931 C 213.32566,268.7799 213.36589,268.7156 213.77579,268.6277 C 214.0219,268.575 214.62995,268.5239 215.127,268.5141 C 216.70099,268.4834 216.5438,266.7258 216.53732,284.284 C 216.53355,294.4957 216.48013,299.7931 216.37902,299.982 C 216.24536,300.2318 216.05217,300.2672 214.82345,300.2672 C 214.05182,300.2672 213.38339,300.2071 213.33801,300.1337 z M 49.005322,287.1373 C 46.347412,286.6907 44.353292,285.5673 42.347762,283.3865 C 40.989822,281.91 40.690882,281.4312 39.709572,279.1613 C 39.454862,278.5721 38.957032,276.4694 38.730652,275.0266 C 38.363422,272.6861 38.880502,267.9934 39.803242,265.2925 C 40.854772,262.2146 42.116342,259.4586 43.218412,257.8317 C 43.551852,257.3395 44.240642,256.2991 44.749062,255.5197 C 49.044132,248.9358 52.742982,243.4962 53.476902,242.6845 C 53.584342,242.5656 53.886382,242.1204 54.148112,241.6951 C 54.409842,241.2697 55.194512,240.0091 55.891832,238.8938 C 58.681132,234.4323 59.084722,233.7429 60.021532,231.8399 C 60.556892,230.7523 61.045142,229.8315 61.106542,229.7936 C 61.264592,229.6959 61.757012,230.2709 62.189182,231.0578 C 62.391932,231.427 63.256192,232.7593 64.109752,234.0185 C 64.963322,235.2778 65.762372,236.4655 65.885432,236.6579 C 66.008482,236.8503 66.444772,237.49 66.854962,238.0794 C 67.265142,238.6689 67.993962,239.7297 68.474552,240.4369 C 68.955152,241.144 69.928402,242.4883 70.637352,243.4242 C 72.521052,245.911 74.766782,249.0078 75.676932,250.3738 C 76.114232,251.0301 76.686892,251.8691 76.949532,252.2383 C 78.636462,254.6095 81.923982,260.7919 83.056822,263.7234 C 84.379752,267.1469 84.843032,270.3728 84.536942,274.0296 C 84.193262,278.1354 83.270102,280.5094 81.040872,283.0201 C 79.029182,285.2859 75.337172,286.9965 72.472562,286.9903 C 70.865772,286.9867 68.334612,286.086 66.708392,284.9391 C 65.145132,283.8366 63.121952,280.5235 62.314772,277.7443 C 62.136072,277.129 61.955702,276.5082 61.913962,276.3646 C 61.815752,276.0269 61.322912,276.0268 61.193322,276.3645 C 61.138252,276.508 61.060382,276.8939 61.020292,277.2222 C 60.715452,279.7173 59.740592,282.0185 58.145152,284.009 C 57.478612,284.8405 57.395942,284.9119 56.146202,285.7348 C 54.663132,286.7113 53.283872,287.129 51.316002,287.1979 C 50.428172,287.2289 49.388372,287.2017 49.005322,287.1373 z M 155.15662,286.5339 C 152.5682,286.1041 150.24229,284.7787 148.28964,282.621 C 146.50114,280.6446 145.69904,278.9359 145.02018,275.6561 C 144.59289,273.5917 144.57266,271.9384 144.9408,269.1677 C 145.32594,266.2691 145.97832,264.0532 147.19044,261.5262 C 147.59304,260.6869 147.9236,259.9485 147.92502,259.8854 C 147.92963,259.6796 149.45528,257.2411 151.05477,254.8832 C 151.91615,253.6134 153.45458,251.3409 154.47349,249.8333 C 155.4924,248.3258 157.27303,245.817 158.43045,244.2583 C 159.58786,242.6996 160.69603,241.1558 160.89303,240.8277 C 161.09004,240.4995 161.44538,239.9803 161.68268,239.6738 C 162.56457,238.5349 165.99129,232.9127 166.9365,231.0538 C 167.59341,229.7619 167.97964,229.1549 168.11233,229.2059 C 168.22102,229.2476 168.46575,229.5639 168.65618,229.9087 C 169.00862,230.547 170.66835,233.1537 171.23972,233.9664 C 171.41276,234.2125 171.84606,234.8501 172.20262,235.3834 C 172.55919,235.9166 172.94721,236.4871 173.06491,236.6512 C 173.41872,237.1444 174.76403,239.0949 175.8056,240.6248 C 176.34403,241.4157 176.96353,242.2882 177.18227,242.5639 C 178.55109,244.2887 181.34505,248.1516 182.45345,249.8517 C 182.85456,250.467 183.39878,251.2534 183.66281,251.5994 C 184.0925,252.1623 185.6108,254.6031 186.51905,256.1909 C 187.15963,257.3108 189.37566,262.0282 189.97268,263.5429 C 191.10928,266.4265 191.63075,270.3407 191.32793,273.7155 C 191.23584,274.7418 191.10462,275.8164 191.03634,276.1036 C 190.49543,278.3782 189.9661,279.6665 188.97245,281.1269 C 188.41775,281.9421 186.6672,283.7741 186.0237,284.2128 C 185.47241,284.5887 183.1956,285.7402 182.52715,285.9812 C 178.55118,287.4149 173.94325,286.003 171.2809,282.5352 C 170.06941,280.9573 168.95024,278.4693 168.38771,276.1036 C 168.23475,275.4603 167.71359,275.3563 167.64005,275.9544 C 167.61484,276.1595 167.42855,277.0321 167.22605,277.8935 C 166.2588,282.0082 163.66587,285.0882 160.25422,286.175 C 158.96632,286.5853 156.50831,286.7583 155.15662,286.5339 z M 150.60729,277.2792 C 150.60729,277.1972 150.54017,277.1716 150.45813,277.2223 C 150.3761,277.273 150.30898,277.3816 150.30898,277.4636 C 150.30898,277.5456 150.3761,277.5713 150.45813,277.5206 C 150.54017,277.4699 150.60729,277.3613 150.60729,277.2792 z M 201.31201,263.2974 C 199.52766,262.8392 198.22863,261.5346 197.66201,259.6318 C 197.33302,258.527 197.37458,255.9928 197.74546,254.541 C 198.24853,252.5718 200.00928,249.2194 202.98946,244.5566 C 204.08908,242.8361 205.04313,241.1661 205.78084,239.6704 C 206.13522,238.9518 206.47733,238.3317 206.54108,238.2923 C 206.70539,238.1907 206.9494,238.5194 207.74058,239.9081 C 208.84845,241.8527 210.43958,244.4423 212.37967,247.4582 C 214.16044,250.2266 215.67158,253.176 216.16601,254.8485 C 216.4806,255.9127 216.56554,256.5216 216.57579,257.7862 C 216.58836,259.3365 216.57321,259.4128 216.03755,260.4966 C 215.29142,262.0063 214.3706,262.8329 213.03116,263.1955 C 211.81655,263.5243 210.44927,263.4493 209.58085,263.0063 C 208.47155,262.4403 207.57212,261.1185 207.34964,259.7271 C 207.20731,258.837 206.69078,258.9431 206.69078,259.8625 C 206.69078,260.2163 206.0384,261.5317 205.53604,262.1909 C 205.0976,262.7662 203.89011,263.3674 202.96182,263.4727 C 202.5678,263.5174 201.88646,263.445 201.31201,263.2974 z M 101.60732,253.1307 C 97.666402,252.3472 94.082032,248.9681 92.591482,244.6312 C 91.796502,242.3181 91.484792,239.1617 91.832872,236.9495 C 91.910332,236.4573 92.016412,235.6519 92.068612,235.1596 C 92.217522,233.7555 92.389292,233.1133 93.240322,230.7785 C 94.557202,227.1657 95.985092,224.552 99.240002,219.7963 C 99.352302,219.6323 100.18136,218.3905 101.08235,217.0369 C 102.64214,214.6936 104.82451,211.5361 106.05626,209.8406 C 106.5808,209.1186 108.66515,206.0553 109.62103,204.6017 C 109.84385,204.2628 110.17148,203.7171 110.3491,203.3889 C 110.52671,203.0608 110.92142,202.4231 111.22622,201.9719 C 112.09562,200.685 112.93523,199.2004 113.77797,197.4599 C 114.205,196.578 114.61451,195.8564 114.68801,195.8564 C 114.76151,195.8564 115.03693,196.2088 115.30006,196.6395 C 116.70392,198.9374 122.90556,208.0204 124.55966,210.2013 C 126.67952,212.9964 129.85487,217.5825 131.15138,219.7218 C 131.62372,220.5011 132.22871,221.4816 132.49582,221.9006 C 133.16031,222.943 135.62951,228.0665 136.62141,230.4612 C 137.04964,231.495 137.76071,234.2924 137.93848,235.6427 C 138.15858,237.3145 138.03376,241.4269 137.71998,242.8413 C 137.07746,245.7375 136.1501,247.5034 134.24907,249.4508 C 133.09713,250.6308 132.48417,251.0732 130.84383,251.9085 C 128.80566,252.9463 127.92925,253.1807 126.14534,253.1649 C 122.96871,253.1368 120.10923,251.7218 118.22074,249.2434 C 117.38536,248.1471 116.21475,245.9934 115.87595,244.9295 C 115.03752,242.2966 115.07385,242.3774 114.74954,242.4237 C 114.48604,242.4613 114.41992,242.6095 114.33021,243.3633 C 114.10684,245.2403 113.27956,247.4286 112.21694,248.9533 C 111.7268,249.6565 111.7125,249.6763 111.20104,250.3569 C 110.66022,251.0766 108.34702,252.4918 107.03298,252.9069 C 106.01468,253.2286 105.58381,253.28 104.02494,253.266 C 103.02422,253.257 101.93629,253.1962 101.60732,253.1307 z M 49.203762,221.6562 C 47.189512,221.3806 45.320012,220.5125 43.633122,219.0693 C 42.381162,217.9982 40.955982,216.2337 40.304162,214.9476 C 38.170952,210.7388 38.040392,204.8723 39.960782,199.5186 C 40.818352,197.1278 42.286642,194.1225 43.371612,192.5374 C 43.778582,191.9428 44.734542,190.5501 45.495982,189.4426 C 46.257412,188.3351 47.764112,186.1386 48.844182,184.5615 C 49.924262,182.9843 51.326332,181.0042 51.959892,180.1613 C 54.821672,176.3537 58.987822,169.8194 60.581922,166.6382 C 61.120952,165.5625 61.625792,164.6824 61.703782,164.6824 C 61.781772,164.6824 62.027862,165.0012 62.250642,165.3909 C 62.673112,166.1298 66.402402,171.7763 67.824492,173.8301 C 68.275692,174.4818 68.913342,175.4291 69.241492,175.9353 C 69.569642,176.4414 70.714742,178.0264 71.786162,179.4574 C 75.197242,184.0134 76.926752,186.4978 79.382462,190.3693 C 80.035242,191.3985 81.828082,194.9099 82.928902,197.3153 C 84.489862,200.7261 85.242032,204.3964 85.060132,207.7145 C 84.794502,212.5602 83.731892,215.3723 81.186642,217.9654 C 78.320802,220.8851 74.026672,222.2815 70.731952,221.3651 C 69.169582,220.9306 67.485922,220.0479 66.437982,219.1138 C 64.738982,217.5995 62.998242,214.3975 62.161642,211.2477 C 62.036782,210.7776 61.924162,210.6173 61.743312,210.6521 C 61.481042,210.7026 61.454682,210.7831 60.965552,213.0263 C 60.218202,216.4538 57.929942,219.5748 55.249972,220.8218 C 53.537052,221.6188 51.243832,221.9353 49.203762,221.6562 z M 177.97782,220.9647 C 175.84011,220.7031 173.10321,219.2931 171.86724,217.8166 C 170.42758,216.0968 169.0896,213.5227 168.58774,211.5072 C 168.27108,210.2354 168.10872,209.8773 167.84883,209.8773 C 167.70508,209.8773 167.57397,210.1652 167.45818,210.735 C 166.79831,213.9821 165.80888,216.0549 163.97133,218.0396 C 163.07978,219.0026 160.96089,220.27 159.63136,220.6354 C 158.66017,220.9024 155.42091,220.9041 154.33625,220.6381 C 153.88504,220.5275 152.82938,220.1095 151.99032,219.7092 C 148.95441,218.2609 146.49978,215.2995 145.47292,211.8464 C 144.87092,209.822 144.76641,209.2413 144.68041,207.4429 C 144.6013,205.7887 144.65971,205.0538 145.10926,202.0465 C 145.49425,199.4712 147.71922,194.2665 149.58356,191.5802 C 150.10559,190.8281 151.10695,189.385 151.8088,188.3733 C 153.90193,185.3564 155.85411,182.5863 157.36223,180.4932 C 157.62822,180.124 158.44797,179.0165 159.1839,178.032 C 162.51219,173.5798 166.58094,167.1607 167.71648,164.5705 C 167.96128,164.0122 168.21655,163.6383 168.35301,163.6383 C 168.48347,163.6383 168.92163,164.2281 169.37806,165.018 C 170.37546,166.7442 171.05143,167.8476 171.63967,168.7097 C 171.89158,169.0788 173.12336,170.9247 174.37698,172.8115 C 176.80011,176.4586 178.05341,178.2597 178.83724,179.2211 C 179.10289,179.547 179.40875,179.983 179.51692,180.1901 C 179.62511,180.3972 179.96459,180.9025 180.27135,181.313 C 180.57811,181.7235 180.99301,182.306 181.19336,182.6074 C 181.39371,182.9089 182.33783,184.3185 183.29142,185.7398 C 184.24502,187.1611 185.14229,188.5589 185.28538,188.846 C 185.42847,189.1331 185.69561,189.5694 185.87903,189.8155 C 186.27038,190.3406 187.19808,192.0949 187.81161,193.4699 C 188.04953,194.0032 188.40546,194.7751 188.60257,195.1852 C 189.77437,197.6239 190.45396,199.5627 190.98136,201.9719 C 191.28496,203.3588 191.32946,208.2075 191.05391,209.8773 C 190.51774,213.1266 189.10486,215.7669 186.74516,217.9291 C 186.0156,218.5976 185.26304,219.0827 183.95049,219.7304 C 181.58782,220.8962 180.03693,221.2167 177.97782,220.9647 z M 61.013642,154.2786 C 60.200552,152.8722 56.666732,147.6308 55.155802,145.5901 C 54.700242,144.9749 54.080502,144.0911 53.778602,143.6263 C 53.476702,143.1615 52.576962,141.9263 51.779182,140.8813 C 50.467992,139.1639 47.811602,135.4687 46.377762,133.3675 C 46.073002,132.9209 45.650352,132.384 45.438532,132.1743 C 45.226722,131.9646 45.010612,131.6252 44.958282,131.4201 C 44.905952,131.215 44.421992,130.3424 43.882822,129.481 C 43.343642,128.6197 42.694702,127.4786 42.440732,126.9454 C 39.781612,121.3623 39.849292,121.5167 39.250382,119.6689 C 38.428712,117.1338 38.221062,115.7376 38.236212,112.8499 C 38.251062,110.0195 38.440052,108.4974 38.995372,106.7355 C 39.640662,104.6881 40.724682,103.0084 42.542172,101.2395 C 43.247952,100.5526 43.846982,100.1698 45.376172,99.4287 C 46.442662,98.9119 47.717962,98.4036 48.210182,98.2994 C 51.290702,97.6466 55.105292,98.7844 57.218702,100.9862 C 58.755522,102.5873 60.168012,105.3798 60.910572,108.285 C 61.064742,108.8882 61.498492,109.2329 61.698922,108.9116 C 61.770752,108.7964 61.874012,108.3266 61.928402,107.8675 C 62.219172,105.413 63.641062,102.3903 65.309532,100.6798 C 66.097892,99.8716 67.802802,98.8241 68.991962,98.4174 C 70.851602,97.7813 73.942812,97.8056 75.929922,98.4718 C 78.195232,99.2313 79.884052,100.4491 81.821432,102.7199 C 82.349932,103.3394 83.835882,106.2801 84.000682,107.0327 C 84.815812,110.7552 84.909812,112.3925 84.493102,115.6093 C 84.216452,117.745 84.143822,118.0292 83.215932,120.6061 C 82.370372,122.9544 80.599082,126.5542 79.913172,127.3182 C 79.679202,127.5789 76.105392,132.8424 74.292402,135.5965 C 73.941382,136.1298 73.567462,136.6785 73.461472,136.8158 C 73.355482,136.9532 73.000282,137.4423 72.672132,137.9028 C 72.343982,138.3632 71.516322,139.4925 70.832892,140.4124 C 70.149452,141.3323 69.048282,142.8904 68.385852,143.8748 C 67.723422,144.8593 67.091192,145.7184 66.980902,145.784 C 66.870612,145.8496 66.780382,145.9585 66.780382,146.026 C 66.780382,146.1833 65.392252,148.4936 64.502112,149.8176 C 64.124742,150.3789 63.358702,151.7693 62.799782,152.9073 C 62.240872,154.0452 61.702512,154.9788 61.603422,154.9817 C 61.504332,154.9847 61.238932,154.6683 61.013642,154.2786 z M 51.267922,113.2228 C 51.267922,113.1408 51.167242,113.0736 51.044192,113.0736 C 50.921132,113.0736 50.820452,113.1408 50.820452,113.2228 C 50.820452,113.3048 50.921132,113.372 51.044192,113.372 C 51.167242,113.372 51.267922,113.3048 51.267922,113.2228 z M 167.63938,154.3965 C 167.45987,154.1537 167.31301,153.9135 167.31301,153.8626 C 167.31301,153.7867 165.92354,151.5491 165.31351,150.6426 C 164.49465,149.4258 162.66843,146.791 162.01837,145.8884 C 161.57522,145.2732 160.91505,144.3335 160.55133,143.8002 C 160.18762,143.267 158.92569,141.539 157.74706,139.9603 C 152.42577,132.8326 149.94524,128.9906 148.03845,124.9229 C 146.34445,121.3091 145.99528,120.4928 145.64957,119.3383 C 144.75283,116.3436 144.7153,116.0638 144.71916,112.4024 C 144.72259,109.1429 144.74342,108.8919 145.13661,107.3709 C 145.79741,104.8146 146.5546,103.3541 148.08458,101.6847 C 149.25618,100.4063 150.26596,99.6559 151.94716,98.8143 C 155.20414,97.1839 158.197,97.1708 161.38391,98.7732 C 163.43698,99.8054 164.79705,101.3295 166.12153,104.082 C 166.54199,104.9558 167.04749,106.2741 167.24487,107.0117 C 167.44225,107.7492 167.66973,108.4186 167.75037,108.4993 C 168.01572,108.7646 168.32736,108.3142 168.4348,107.51 C 169.18788,101.8731 172.75761,97.9777 177.66424,97.4385 C 181.94865,96.9677 185.59617,98.6143 188.46615,102.3146 C 189.45817,103.5936 190.53879,106.0465 190.82116,107.6602 C 190.86127,107.8893 190.9552,108.3118 191.02991,108.5989 C 191.2962,109.6224 191.36596,111.8373 191.18769,113.6084 C 190.98263,115.6458 190.66183,117.6357 190.45411,118.1588 C 190.3757,118.3563 190.12861,119.0884 189.90503,119.7858 C 189.68146,120.4831 189.41192,121.2214 189.30606,121.4265 C 189.2002,121.6316 188.90288,122.2692 188.64535,122.8435 C 187.93585,124.4256 186.62322,126.7638 185.88213,127.7657 C 185.51805,128.2579 184.81155,129.2983 184.31214,130.0777 C 183.81271,130.857 182.90554,132.1994 182.2962,133.0608 C 181.68688,133.9222 181.08162,134.8183 180.9512,135.0522 C 180.82076,135.2861 180.25001,136.1251 179.68285,136.9167 C 179.1157,137.7083 178.56717,138.4768 178.4639,138.6245 C 178.36063,138.7721 177.8156,139.5105 177.25273,140.2652 C 176.68985,141.0199 175.8253,142.2415 175.3315,142.9799 C 174.8377,143.7182 174.24883,144.5572 174.0229,144.8443 C 173.11814,145.9942 169.79572,151.5999 168.95375,153.3972 C 168.58458,154.1852 168.21125,154.8318 168.12414,154.8339 C 168.03702,154.8361 167.81888,154.6393 167.63938,154.3965 z M 113.22745,122.6482 C 113.05474,122.4275 112.79347,122.0119 112.64685,121.7248 C 112.31029,121.0657 108.00102,114.6897 106.70149,112.9281 C 106.37012,112.4789 105.8606,111.7294 105.56923,111.2627 C 105.12267,110.5473 103.67819,108.5731 101.98321,106.3615 C 100.9592,105.0254 96.851632,99.0789 96.298302,98.1314 C 95.957232,97.5475 95.514072,96.8278 95.313502,96.5323 C 94.789212,95.7599 92.109722,90.3937 91.544692,88.9846 C 90.456712,86.2713 90.088622,84.5975 89.953832,81.7504 C 89.692452,76.2297 91.028452,72.3323 94.211722,69.3294 C 95.073922,68.516 95.647832,68.144 97.248562,67.3609 C 99.898062,66.0648 101.86776,65.7718 104.18844,66.3289 C 105.60155,66.6681 107.75894,67.7377 108.65514,68.5434 C 110.31983,70.0401 111.71515,72.4409 112.64653,75.4111 C 113.17526,77.0972 113.48894,77.3847 113.75486,76.4271 C 113.84167,76.1145 113.91308,75.7064 113.91354,75.5203 C 113.91504,74.9107 114.50971,72.9441 114.96572,72.0408 C 116.00387,69.9842 117.16459,68.5237 118.42619,67.6865 C 120.47436,66.3274 121.7888,65.9323 124.28087,65.9269 C 126.38903,65.9223 127.73588,66.2188 129.62224,67.1028 C 131.62357,68.0406 134.12262,70.5483 135.15213,72.6518 C 136.30224,75.0016 136.72284,76.7401 136.83012,79.5876 C 136.98015,83.5695 136.17692,87.0269 134.12722,91.222 C 133.39957,92.7112 132.19606,94.8391 131.97599,95.0255 C 131.84487,95.1365 131.27085,95.966 130.27831,97.4787 C 129.79102,98.2214 129.26586,98.9968 129.11128,99.2019 C 128.95669,99.407 127.99602,100.8166 126.97644,102.3342 C 125.95686,103.8519 124.58442,105.832 123.92657,106.7344 C 122.41361,108.8098 118.69946,114.345 117.57106,116.206 C 117.0985,116.9853 116.6215,117.7266 116.51106,117.8533 C 116.40062,117.9799 115.7455,119.1855 115.05524,120.5323 C 114.36498,121.8791 113.742,122.9964 113.67085,123.0152 C 113.5997,123.0341 113.40017,122.8689 113.22745,122.6482 z M 60.942022,89.5476 C 60.819282,89.402 60.444962,88.8131 60.110182,88.2388 C 59.547752,87.274 58.008492,84.9054 56.672342,82.9487 C 56.366122,82.5002 55.530312,81.2585 54.815002,80.1892 C 54.099692,79.12 53.295572,77.9431 53.028062,77.574 C 52.290832,76.5566 48.798692,71.6344 48.213102,70.7873 C 46.879942,68.8588 44.989972,65.913 44.480782,64.9701 C 44.170692,64.3959 43.833712,63.8253 43.731952,63.7023 C 43.365862,63.2595 42.340762,61.1666 40.685342,57.482 C 39.816092,55.5473 38.835512,52.3709 38.576482,50.6509 C 38.331362,49.0233 38.367842,45.4368 38.647022,43.7151 C 39.219312,40.1856 40.308782,38.0737 42.740802,35.7795 C 43.546052,35.0199 44.198552,34.5836 45.481852,33.9469 C 46.408172,33.4873 47.568802,33.016 48.061022,32.8996 C 49.257822,32.6166 51.383452,32.6225 52.514242,32.912 C 53.621722,33.1954 55.263372,33.9657 56.226292,34.6537 C 57.005012,35.2101 58.483232,36.9744 58.985862,37.9473 C 59.780932,39.4864 60.361942,40.8959 60.596662,41.855 C 60.918102,43.1684 61.069342,43.5659 61.247672,43.5659 C 61.542812,43.5659 61.858172,43.0791 61.858532,42.623 C 61.858742,42.3623 62.024732,41.53 62.227412,40.7735 C 63.240382,36.9924 65.660162,34.172 68.794012,33.1195 C 72.363942,31.9207 76.470292,32.7141 79.380342,35.1651 C 82.097452,37.4535 83.536092,40.1802 84.166952,44.2371 C 84.438642,45.9843 84.434282,47.4951 84.151102,49.7306 C 83.858102,52.0436 83.531032,53.3212 82.601062,55.7853 C 81.896162,57.6531 80.130332,61.2674 79.678352,61.7676 C 79.564982,61.893 77.962662,64.2586 76.117642,67.0245 C 72.638402,72.2402 72.407442,72.5751 69.689392,76.3451 C 67.033102,80.0295 63.936622,84.9348 62.422182,87.8576 C 61.893202,88.8785 61.393972,89.7359 61.312782,89.763 C 61.231602,89.7901 61.064752,89.6931 60.942022,89.5476 z M 57.162862,69.2246 C 57.016122,69.0625 56.834662,68.9678 56.759602,69.0142 C 56.573642,69.1291 56.914682,69.5194 57.201052,69.5194 C 57.393522,69.5194 57.387482,69.4728 57.162862,69.2246 z M 167.04554,88.458 C 166.02691,86.8008 164.54162,84.5752 161.52411,80.1843 C 161.0731,79.528 160.24308,78.3198 159.67964,77.4994 C 159.1162,76.679 158.50567,75.8048 158.32291,75.5566 C 158.14015,75.3084 157.4472,74.3687 156.78302,73.4684 C 156.11885,72.568 154.91748,70.8581 154.11333,69.6686 C 153.30917,68.4791 152.434,67.2038 152.1685,66.8346 C 149.6497,63.3323 146.23545,56.3318 145.18477,52.5154 C 144.45995,49.8826 144.25759,45.8326 144.71151,43.0439 C 145.56631,37.7923 148.53795,34.3411 153.79226,32.4977 C 154.89578,32.1105 157.5046,32.0385 158.81099,32.3592 C 160.13552,32.6843 162.28651,33.7973 163.19517,34.6278 C 164.80971,36.1034 166.3731,38.8586 167.1796,41.6497 C 167.69329,43.4274 168.08047,43.4445 168.35671,41.7014 C 169.21738,36.2706 172.73856,32.5652 177.49462,32.0853 C 179.00266,31.9332 181.1308,32.121 182.22883,32.5031 C 184.54526,33.3092 186.02268,34.3213 187.70841,36.2572 C 188.99896,37.7392 190.11027,39.8717 190.50671,41.6269 C 190.64566,42.2421 190.82413,42.9469 190.90327,43.193 C 191.21133,44.1509 191.20011,46.8636 190.87796,49.3152 C 190.63224,51.1852 190.42081,52.1255 189.89095,53.7044 C 188.40757,58.1247 187.6449,59.4478 180.59508,69.8309 C 179.89392,70.8635 178.91752,72.2594 178.42529,72.9327 C 177.93307,73.6061 177.17754,74.6406 176.74634,75.2316 C 175.66053,76.7198 172.96913,80.7127 172.86104,80.9957 C 172.81216,81.1236 172.40676,81.7653 171.96015,82.4216 C 170.67436,84.3111 169.83688,85.7195 168.87805,87.6049 C 168.38783,88.5688 167.89936,89.3575 167.79258,89.3575 C 167.6858,89.3575 167.34963,88.9527 167.04554,88.458 z M 22.471422,79.6349 C 21.922962,78.5374 20.843272,76.5971 19.664612,74.5908 C 19.206752,73.8115 18.674122,72.8811 18.480992,72.5233 C 18.287852,72.1655 17.903052,71.5182 17.625882,71.0849 C 16.701532,69.6399 14.558052,65.1399 14.191302,63.8743 C 13.691842,62.1507 13.677832,59.8342 14.159622,58.6338 C 14.880502,56.8376 15.875522,55.8417 17.388772,55.4018 C 18.487482,55.0824 19.738782,55.2004 20.599062,55.7045 C 21.494782,56.2295 22.325162,57.5016 22.470312,58.5712 C 22.531272,59.0204 22.654642,59.4614 22.744482,59.5513 C 23.024492,59.8313 23.329142,59.5758 23.426512,58.9793 C 23.514842,58.4381 24.077242,57.2621 24.568602,56.591 C 24.956022,56.0619 25.896002,55.5228 26.734732,55.3487 C 28.193562,55.0459 30.000062,55.7314 30.930212,56.9408 C 31.666012,57.8975 31.849192,58.2558 32.108512,59.2458 C 32.404282,60.375 32.327902,63.1304 31.965232,64.4148 C 31.454612,66.2231 29.871442,69.3652 28.077932,72.1297 C 26.726232,74.2132 25.083482,76.996 24.164292,78.7592 C 23.674782,79.6982 23.199572,80.4914 23.108282,80.5219 C 23.016982,80.5523 22.730392,80.1532 22.471422,79.6349 z M 23.963022,49.8577 C 22.777902,49.3783 22.324222,49.0331 21.721972,48.1523 C 21.106022,47.2515 20.820742,46.6175 20.530682,45.505 C 20.301362,44.6253 20.325612,24.6759 20.557612,23.3627 C 20.792252,22.0345 21.430012,20.7686 22.237202,20.029 C 23.331352,19.0264 24.064692,18.7663 26.012102,18.6901 C 27.457002,18.6337 27.815022,18.6701 28.696942,18.9632 C 29.535632,19.242 29.873382,19.4611 30.617782,20.2095 C 31.398682,20.9946 31.580492,21.2893 31.960212,22.3854 L 32.399412,23.6533 L 32.446222,32.6028 C 32.492122,41.3796 32.379752,44.7367 31.999372,45.9524 C 31.447672,47.7157 30.337802,49.0887 28.968772,49.7017 C 27.913152,50.1744 24.972572,50.266 23.963022,49.8577 z M 28.248722,46.3126 C 29.520782,45.5304 29.484982,45.8678 29.493322,34.5826 C 29.501392,23.6651 29.511472,23.7831 28.478322,22.7012 C 27.769362,21.9589 26.644662,21.6749 25.527562,21.9562 C 24.618142,22.1852 23.613142,23.1431 23.382102,24.0011 C 23.274632,24.4002 23.220912,27.836 23.220572,34.3331 C 23.220002,45.1351 23.206952,44.9787 24.193022,45.994 C 25.131262,46.9601 26.962022,47.1039 28.248722,46.3126 z M 13.875302,49.7933 C 13.733872,49.5747 13.677802,20.2083 13.817132,19.3277 L 13.911532,18.7311 L 15.158502,18.6178 C 15.886702,18.5516 16.474602,18.5618 16.571642,18.6424 C 16.691972,18.7422 16.733742,23.046 16.723082,34.2454 C 16.710632,47.3343 16.676252,49.7308 16.499352,49.8428 C 16.168832,50.0521 14.016502,50.0114 13.875302,49.7933 z"
     id="path17657" />
  <g
     id="g3796"
     transform="translate(1.593878e-6,0)">
    <rect
       ry="11.25"
       rx="11.25"
       y="3.4247196"
       x="3.6058116"
       height="311.81104"
       width="223.22835"
       id="rect2382"
       style="fill:none;fill-opacity:1;fill-rule:nonzero;stroke:#000000;stroke-width:0.03543307;stroke-linejoin:round;stroke-miterlimit:4;stroke-dasharray:none;stroke-opacity:1" />
    <g
       transform="translate(3.5433116,3.3622195)"
       id="g3164">
      <path
         style="fill:none;fill-rule:evenodd;stroke:#000000;stroke-width:0.03221492;stroke-linecap:butt;stroke-linejoin:miter;stroke-miterlimit:4;stroke-dasharray:none;stroke-opacity:1"
         d="M 219.74754,0.062511534 L 226.70838,0.062511534"
         id="path3160"
         sodipodi:nodetypes="cc" />
      <path
         sodipodi:nodetypes="cc"
         id="path3162"
         d="M 223.29036,-3.2997195 L 223.29036,3.6063107"
         style="fill:none;fill-rule:evenodd;stroke:#000000;stroke-width:0.03196126;stroke-linecap:butt;stroke-linejoin:miter;stroke-miterlimit:4;stroke-dasharray:none;stroke-opacity:1" />
    </g>
    <g
       transform="matrix(1.0001093,0,0,1,3.519309,315.17275)"
       id="g3168">
      <path
         sodipodi:nodetypes="cc"
         id="path3170"
         d="M 219.74754,0.062511534 L 226.70838,0.062511534"
         style="fill:none;fill-rule:evenodd;stroke:#000000;stroke-width:0.03221492;stroke-linecap:butt;stroke-linejoin:miter;stroke-miterlimit:4;stroke-dasharray:none;stroke-opacity:1" />
      <path
         style="fill:none;fill-rule:evenodd;stroke:#000000;stroke-width:0.03196126;stroke-linecap:butt;stroke-linejoin:miter;stroke-miterlimit:4;stroke-dasharray:none;stroke-opacity:1"
         d="M 223.29036,-3.2997195 L 223.29036,3.6063107"
         id="path3172"
         sodipodi:nodetypes="cc" />
    </g>
    <g
       id="g3174"
       transform="matrix(1.0001093,0,0,1,-219.70906,315.17275)">
      <path
         style="fill:none;fill-rule:evenodd;stroke:#000000;stroke-width:0.03221492;stroke-linecap:butt;stroke-linejoin:miter;stroke-miterlimit:4;stroke-dasharray:none;stroke-opacity:1"
         d="M 219.74754,0.062511534 L 226.70838,0.062511534"
         id="path3176"
         sodipodi:nodetypes="cc" />
      <path
         sodipodi:nodetypes="cc"
         id="path3178"
         d="M 223.29036,-3.2997195 L 223.29036,3.6063107"
         style="fill:none;fill-rule:evenodd;stroke:#000000;stroke-width:0.03196126;stroke-linecap:butt;stroke-linejoin:miter;stroke-miterlimit:4;stroke-dasharray:none;stroke-opacity:1" />
    </g>
    <g
       transform="translate(-219.68504,3.3622195)"
       id="g3180">
      <path
         sodipodi:nodetypes="cc"
         id="path3182"
         d="M 219.74754,0.062511534 L 226.70838,0.062511534"
         style="fill:none;fill-rule:evenodd;stroke:#000000;stroke-width:0.03221492;stroke-linecap:butt;stroke-linejoin:miter;stroke-miterlimit:4;stroke-dasharray:none;stroke-opacity:1" />
      <path
         style="fill:none;fill-rule:evenodd;stroke:#000000;stroke-width:0.03196126;stroke-linecap:butt;stroke-linejoin:miter;stroke-miterlimit:4;stroke-dasharray:none;stroke-opacity:1"
         d="M 223.29036,-3.2997195 L 223.29036,3.6063107"
         id="path3184"
         sodipodi:nodetypes="cc" />
    </g>
  </g>
</svg>
