<?xml version="1.0" encoding="UTF-8" standalone="no"?>
<!-- Created with Inkscape (http://www.inkscape.org/) -->
<svg
   xmlns:dc="http://purl.org/dc/elements/1.1/"
   xmlns:cc="http://creativecommons.org/ns#"
   xmlns:rdf="http://www.w3.org/1999/02/22-rdf-syntax-ns#"
   xmlns:svg="http://www.w3.org/2000/svg"
   xmlns="http://www.w3.org/2000/svg"
   xmlns:sodipodi="http://sodipodi.sourceforge.net/DTD/sodipodi-0.dtd"
   xmlns:inkscape="http://www.inkscape.org/namespaces/inkscape"
   id="svg6947"
   sodipodi:version="0.32"
   inkscape:version="0.46"
   width="230.31497"
   height="318.84155"
   version="1.0"
   sodipodi:docname="10s.svg"
   inkscape:output_extension="org.inkscape.output.svg.inkscape">
  <metadata
     id="metadata6952">
    <rdf:RDF>
      <cc:Work
         rdf:about="">
        <dc:format>image/svg+xml</dc:format>
        <dc:type
           rdf:resource="http://purl.org/dc/dcmitype/StillImage" />
      </cc:Work>
    </rdf:RDF>
  </metadata>
  <defs
     id="defs6950">
    <inkscape:perspective
       sodipodi:type="inkscape:persp3d"
       inkscape:vp_x="0 : 526.18109 : 1"
       inkscape:vp_y="0 : 1000 : 0"
       inkscape:vp_z="744.09448 : 526.18109 : 1"
       inkscape:persp3d-origin="372.04724 : 350.78739 : 1"
       id="perspective6954" />
  </defs>
  <sodipodi:namedview
     inkscape:window-height="667"
     inkscape:window-width="798"
     inkscape:pageshadow="2"
     inkscape:pageopacity="0.0"
     guidetolerance="10.0"
     gridtolerance="10.0"
     objecttolerance="10.0"
     borderopacity="1.0"
     bordercolor="#666666"
     pagecolor="#ffffff"
     id="base"
     showgrid="false"
     inkscape:zoom="1.4489956"
     inkscape:cx="115.15749"
     inkscape:cy="159.42078"
     inkscape:window-x="88"
     inkscape:window-y="116"
     inkscape:current-layer="svg6947" />
  <path
     style="fill:#000000"
     d="M 214.01695,300.2125 C 213.89348,300.169 213.74299,300.0593 213.68251,299.9687 C 213.62203,299.8782 213.57152,292.849 213.57027,284.3484 L 213.56798,268.8926 L 213.95186,268.7467 C 214.49721,268.5394 216.31389,268.563 216.53117,268.7803 C 216.79822,269.0474 216.79089,299.5712 216.52369,299.9075 C 216.33206,300.1486 214.47602,300.3745 214.01695,300.2125 z M 201.24986,299.8232 C 199.52843,299.2367 198.33272,297.8139 197.7416,295.6488 C 197.46533,294.637 197.45286,293.7641 197.54445,281.8453 C 197.6118,273.0805 197.76556,272.1301 199.43512,270.1594 C 200.37733,269.0473 201.47795,268.5898 203.45378,268.4889 C 206.28642,268.3444 207.9922,269.1946 209.00045,271.2538 C 209.92289,273.1376 209.87919,272.5625 209.93595,283.5664 C 209.99047,294.1377 209.93501,295.4348 209.3628,296.9681 C 208.87315,298.2803 207.62622,299.4614 206.29728,299.8718 C 204.86262,300.315 202.62982,300.2935 201.24986,299.8232 z M 204.82742,296.8151 C 205.62476,296.5783 206.4112,295.8911 206.66964,295.2055 C 206.76496,294.9526 206.86177,291.1938 206.92406,285.3281 C 207.03126,275.2307 206.98744,274.3201 206.3392,273.1755 C 205.88803,272.3788 205.4141,272.0666 204.36262,271.8731 C 202.85999,271.5966 201.49836,272.168 200.92202,273.3169 C 200.63149,273.896 200.62271,274.2122 200.62271,284.0902 C 200.62271,295.5127 200.58318,295.0777 201.72178,296.1895 C 202.58961,297.0369 203.47782,297.2158 204.82742,296.8151 z M 61.943562,285.5493 C 61.654452,285.203 60.857612,283.9673 59.796282,282.2195 C 59.321452,281.4375 58.683442,280.4947 58.378492,280.1243 C 58.073552,279.7539 57.363922,278.7774 56.801562,277.9543 C 55.010422,275.3326 54.290942,274.3416 52.922192,272.6107 C 52.187052,271.681 50.846912,269.9439 49.944112,268.7504 C 49.041312,267.5569 47.988712,266.21 47.604992,265.7573 C 44.816562,262.4675 40.551762,255.1277 39.721862,252.1903 C 38.903862,249.295 38.703982,245.9862 39.230542,244.0571 C 39.399042,243.4398 39.602092,242.674 39.681772,242.3553 C 40.031002,240.9587 41.508382,238.6359 43.034392,237.0842 C 43.725972,236.381 44.296382,235.9905 45.514582,235.3863 C 47.390122,234.4559 48.749942,234.2205 50.778122,234.4748 C 52.835482,234.7327 54.161462,235.5342 55.893552,237.5666 C 57.430342,239.3698 58.163942,241.0444 59.045842,244.7626 C 59.315892,245.9012 59.539782,246.1279 60.190112,245.9215 C 60.498402,245.8237 60.506442,245.7607 60.425792,244.0781 C 60.352052,242.5398 60.064932,240.5106 59.586392,238.1457 C 59.226192,236.3656 57.463272,231.7139 55.883672,228.3756 C 55.522112,227.6115 55.210652,226.837 55.191522,226.6546 L 55.156762,226.3228 L 61.853882,226.2839 C 66.410662,226.2574 68.551002,226.2946 68.551002,226.4004 C 68.551002,226.4859 68.355492,226.9432 68.116532,227.4165 C 67.266562,229.1003 65.999062,232.3938 65.702822,233.6883 C 65.537362,234.4113 65.303502,235.3396 65.183142,235.7512 C 64.677592,237.4798 64.066372,241.9865 64.063072,244.0099 C 64.060722,245.4463 64.223462,245.853 64.800622,245.853 C 65.398712,245.853 65.500832,245.6058 65.604542,243.9074 C 65.784552,240.9595 66.654122,239.0223 68.684462,237.0462 C 70.544352,235.236 72.247322,234.5587 74.836562,234.5994 C 77.506812,234.6414 79.126232,235.27 80.975542,236.9821 C 83.695902,239.5008 84.790732,242.0674 84.971242,246.3494 C 85.094972,249.2847 84.706632,251.6071 83.627822,254.3834 C 83.001782,255.9945 80.846922,260.0213 79.743682,261.6417 C 77.762682,264.5514 75.658442,267.4797 73.893822,269.7826 C 72.155822,272.0507 70.090982,274.87 69.224142,276.1584 C 68.781102,276.8169 67.791782,278.2129 67.025662,279.2606 C 66.259532,280.3084 65.127612,281.9084 64.510282,282.8163 C 62.997582,285.0409 62.424372,285.8112 62.281772,285.8112 C 62.215992,285.8112 62.063792,285.6934 61.943562,285.5493 z M 167.07211,284.5017 C 166.65968,283.8638 166.02575,282.8506 165.66338,282.2502 C 165.301,281.6497 164.66191,280.7069 164.24318,280.155 C 163.82446,279.6031 162.75377,278.1143 161.86387,276.8467 C 159.72142,273.7948 156.95571,270.2155 153.16989,265.5954 C 152.36516,264.6133 151.20064,262.9889 149.92408,261.0677 C 149.51192,260.4474 148.4648,258.6992 147.30976,256.7031 C 146.0352,254.5004 144.96248,251.8793 144.7939,250.5559 C 144.75275,250.2328 144.65708,249.5645 144.58129,249.0706 C 144.16329,246.3466 144.22042,245.2353 144.89672,242.9347 C 145.3718,241.3186 145.75022,240.4857 146.52774,239.3447 C 148.193,236.901 149.19615,236.0163 151.59977,234.8717 L 152.88234,234.261 L 154.97753,234.2578 C 157.43831,234.2541 158.20065,234.4518 159.63578,235.4661 C 161.83812,237.0225 163.47887,239.5451 164.3476,242.7102 C 164.60742,243.6568 164.89518,244.7006 164.98706,245.0299 C 165.1413,245.5824 165.19447,245.6285 165.67795,245.6285 L 166.20175,245.6285 L 166.24702,244.5061 C 166.29647,243.2804 165.96748,240.6702 165.51139,238.6695 C 164.88192,235.9082 163.3691,231.8219 161.48618,227.7968 C 161.12614,227.0272 160.88576,226.3225 160.93738,226.188 C 161.01964,225.9736 161.72453,225.9487 167.69831,225.9487 C 173.01614,225.9487 174.38247,225.9879 174.44172,226.1423 C 174.48259,226.2488 174.14724,227.1178 173.69652,228.0733 C 173.2458,229.0289 172.64752,230.4065 172.36701,231.1347 C 171.83498,232.5158 170.83598,236.2979 170.59418,237.8464 C 170.1693,240.5672 170.02095,242.014 170.00672,243.5757 C 169.99299,245.081 170.02653,245.3394 170.25753,245.5083 C 170.59439,245.7547 170.9837,245.758 171.18367,245.5163 C 171.26878,245.4134 171.38541,244.7567 171.44285,244.0571 C 171.72301,240.6448 172.54231,238.8235 174.73352,236.7421 C 176.59339,234.9754 178.65109,234.2361 181.31704,234.3766 C 183.85434,234.5104 185.44115,235.237 187.35615,237.1417 C 189.97171,239.7433 190.9077,242.0513 191.07105,246.3019 C 191.17128,248.9098 190.94213,250.4695 190.08159,253.0365 C 188.86178,256.6752 186.90723,260.1093 183.39364,264.7872 C 182.66306,265.7599 181.7099,267.0571 181.27551,267.6698 C 180.84112,268.2826 180.09448,269.2647 179.61631,269.8522 C 178.36844,271.3854 176.11117,274.4112 174.80699,276.2988 C 174.18966,277.1924 173.47595,278.1661 173.22095,278.4626 C 172.96596,278.7592 171.94339,280.1804 170.94858,281.6208 C 168.79058,284.7455 168.10963,285.6616 167.94493,285.6616 C 167.87729,285.6616 167.48451,285.1396 167.07211,284.5017 z M 206.35736,263.0973 C 206.23812,262.9552 205.77874,262.1992 205.33652,261.4172 C 204.57022,260.0623 204.22311,259.5215 201.78226,255.88 C 198.09012,250.3716 197.12456,247.0457 198.4627,244.4455 C 199.4311,242.5638 201.56527,241.6081 203.089,242.3737 C 203.37541,242.5176 203.86279,242.9721 204.17206,243.3836 C 204.55669,243.8955 204.8414,244.1319 205.07304,244.1319 C 205.37778,244.1319 205.41635,244.0501 205.45801,243.3156 C 205.53193,242.0123 204.63445,239.8935 203.34486,238.3268 C 203.02033,237.9325 202.78973,237.575 202.83241,237.5323 C 202.95233,237.4124 208.02474,237.3113 208.74156,237.4146 C 209.10355,237.4667 209.3776,237.5872 209.3776,237.6941 C 209.3776,237.7975 209.10599,238.2232 208.77402,238.6402 C 207.69533,239.9949 206.68178,242.8763 206.91324,243.93 C 207.0822,244.6994 207.69302,244.4278 208.24539,243.3377 C 208.38331,243.0655 208.8087,242.6446 209.19066,242.4024 C 210.92705,241.3012 213.58273,242.2257 214.47795,244.2431 C 214.9296,245.2609 214.93066,247.0256 214.4807,248.8461 C 214.19993,249.9821 212.56729,253.5386 212.00748,254.2337 C 211.90805,254.3572 211.53069,254.9633 211.1689,255.5806 C 210.80712,256.198 210.26957,257.0398 209.97436,257.4513 C 209.28555,258.4116 208.8785,259.1276 207.74368,261.375 C 207.23588,262.3807 206.76501,263.2377 206.69727,263.2796 C 206.62955,263.3215 206.47659,263.2394 206.35736,263.0973 z M 113.99989,253.1487 C 113.80124,252.8812 113.31613,252.1236 112.92186,251.4651 C 112.0891,250.0743 110.70391,248.0475 109.85336,246.9754 C 109.52686,246.5638 108.84382,245.621 108.33551,244.8802 C 107.42199,243.5489 105.39556,240.9099 103.2791,238.2953 C 97.675012,231.3723 95.802842,228.6506 93.375992,223.8986 C 91.911382,221.0307 91.361232,219.1834 91.170142,216.4917 C 90.846772,211.9367 91.848222,208.913 94.787962,205.5684 C 95.675022,204.5592 96.835542,203.7873 98.557092,203.0614 C 99.600742,202.6213 99.962972,202.5473 101.38047,202.4847 C 104.09332,202.3647 105.74705,202.932 107.48308,204.578 C 109.70987,206.6892 110.74374,208.7394 111.61873,212.7789 L 111.89427,214.051 L 112.42756,214.0963 C 112.76321,214.1248 112.98843,214.0694 113.03529,213.9467 C 113.2784,213.3099 112.68613,208.3454 112.08363,205.9696 C 111.72829,204.5684 110.29129,200.4621 109.86134,199.6194 C 109.69788,199.2989 109.40125,198.61 109.20215,198.0883 C 109.00306,197.5667 108.59734,196.6535 108.30056,196.059 C 108.00378,195.4645 107.76096,194.8752 107.76096,194.7495 C 107.76096,194.5478 108.54798,194.5209 114.4305,194.5209 C 118.65391,194.5209 121.20408,194.5765 121.38371,194.6727 C 121.64989,194.8151 121.61783,194.919 120.86406,196.3563 C 119.8021,198.3813 118.9378,200.5403 118.45396,202.3768 C 118.23726,203.1993 118.03898,203.9064 118.01334,203.9482 C 117.93474,204.0761 117.22455,207.7185 117.12315,208.5137 C 116.91491,210.1468 116.76321,213.2168 116.87072,213.6219 C 116.95768,213.9496 117.08661,214.0629 117.41629,214.1013 C 118.0107,214.1704 118.2369,213.8026 118.2369,212.7669 C 118.2369,209.9105 119.3809,207.2582 121.44613,205.3262 C 123.18965,203.6953 125.2356,202.9096 127.75355,202.9042 C 130.18679,202.899 132.36057,203.7705 134.19523,205.4867 C 136.66893,207.8007 137.6473,210.0368 138.00199,214.1872 C 138.2388,216.9584 137.86576,219.4967 136.80256,222.3485 C 136.06158,224.3361 134.15979,227.9175 132.91655,229.6665 C 132.29188,230.5453 131.6461,231.4553 131.48148,231.6885 C 131.31686,231.9218 130.53845,232.9314 129.75169,233.9319 C 128.96493,234.9325 128.12425,236.0206 127.88351,236.3498 C 127.64278,236.679 126.83528,237.6892 126.08908,238.5946 C 125.34287,239.5001 124.60094,240.4173 124.44033,240.633 C 124.27973,240.8487 123.76999,241.4906 123.30757,242.0594 C 122.84516,242.6282 121.86866,243.8752 121.13756,244.8305 C 120.40646,245.7858 119.40422,247.073 118.91035,247.691 C 118.41648,248.309 117.578,249.4446 117.04705,250.2147 C 115.61061,252.298 114.60554,253.6351 114.47607,253.6351 C 114.41282,253.6351 114.19854,253.4162 113.99989,253.1487 z M 60.821922,220.5983 C 60.340032,219.8472 59.676382,218.7814 59.347132,218.23 C 59.017892,217.6786 58.449112,216.8157 58.083182,216.3126 C 57.717252,215.8095 56.847292,214.5561 56.149932,213.5272 C 54.626562,211.2796 52.994992,209.0857 50.855682,206.4083 C 48.200882,203.0858 46.434962,200.7762 45.482502,199.3808 C 43.996762,197.2043 42.260862,194.4359 41.901152,193.6695 C 41.739342,193.3247 41.386822,192.6512 41.117782,192.1729 C 40.088632,190.3432 39.185302,187.906 38.936502,186.2877 C 38.390832,182.7385 38.631842,180.3965 39.852612,177.3852 C 40.571012,175.6131 42.629302,173.019 44.052792,172.0916 C 44.574302,171.7518 45.046632,171.4738 45.102402,171.4738 C 45.158182,171.4738 45.657802,171.2593 46.212682,170.9971 C 47.098752,170.5785 47.413222,170.5126 48.796522,170.4556 C 51.365972,170.3497 52.864822,170.8532 54.534402,172.3831 C 56.797402,174.4567 57.993282,176.8053 58.834002,180.8273 C 59.084202,182.0242 59.214002,182.249 59.654922,182.249 C 60.284942,182.249 60.384182,181.77 60.188082,179.6756 C 59.710772,174.5782 58.582532,170.6249 55.804742,164.3165 C 55.394292,163.3844 55.095302,162.5258 55.140332,162.4084 C 55.209492,162.2282 56.238972,162.1955 61.774352,162.1974 C 65.378042,162.1986 68.408162,162.2516 68.507942,162.315 C 68.639662,162.3987 68.468172,162.8889 67.881982,164.1044 C 66.347872,167.2854 65.846492,168.7635 64.874642,172.9703 C 64.141992,176.1418 63.649512,181.3204 64.026192,181.8921 C 64.217232,182.1821 64.737842,182.2597 65.034992,182.0424 C 65.255132,181.8814 65.327352,181.6188 65.354152,180.8819 C 65.472812,177.6187 66.396932,175.4001 68.506892,173.3129 C 70.430902,171.4096 72.686762,170.6238 75.484842,170.8821 C 77.182572,171.0389 77.808442,171.2136 78.952112,171.8504 C 80.773082,172.8642 82.604682,174.8771 83.613792,176.9735 C 84.278742,178.3549 84.707262,180.4487 84.816012,182.8477 C 85.004552,187.0069 83.901222,190.5532 80.731192,195.977 C 79.782082,197.6009 76.864482,201.6344 74.098572,205.1465 C 73.353102,206.093 72.479892,207.2042 72.158102,207.6158 C 71.376022,208.616 69.448132,211.1756 68.776372,212.1055 C 68.479072,212.517 67.683792,213.5871 67.009092,214.4835 C 65.695812,216.2282 64.761712,217.5476 63.236322,219.8128 C 62.709732,220.5947 62.148212,221.3986 61.988492,221.5993 L 61.698082,221.964 L 60.821922,220.5983 z M 166.72163,220.8978 C 166.55151,220.5891 166.01299,219.6968 165.52493,218.9148 C 165.03685,218.1329 164.53923,217.3196 164.41909,217.1076 C 164.29894,216.8956 163.70226,216.0538 163.09315,215.2369 C 162.48402,214.42 161.45806,212.9772 160.81324,212.0306 C 160.16841,211.0841 159.39667,210.0065 159.09825,209.6361 C 158.79984,209.2657 158.45013,208.7943 158.32112,208.5886 C 158.19212,208.3828 157.69009,207.7371 157.2055,207.1536 C 156.72091,206.5702 155.81934,205.4341 155.20201,204.629 C 154.58468,203.8239 153.6568,202.6513 153.14007,202.0232 C 152.11315,200.775 149.52045,197.1033 148.90278,196.0225 C 148.68949,195.6493 148.22749,194.8784 147.87613,194.3094 C 146.86297,192.6686 145.09027,189.0081 144.74657,187.847 C 144.34929,186.5049 144.16046,185.1748 144.05799,182.9966 C 143.96982,181.1223 144.10883,180.2032 144.78969,178.1587 C 145.2557,176.7593 145.46912,176.3225 146.26456,175.1404 C 147.82695,172.8184 149.26344,171.6091 151.68509,170.5771 C 152.84597,170.0824 152.94143,170.067 154.82787,170.0733 C 156.91523,170.0802 157.8223,170.3029 159.14341,171.1331 C 159.89914,171.608 161.66644,173.4303 162.29572,174.3835 C 163.2434,175.8191 164.08396,178.1767 164.62759,180.924 C 164.80632,181.8273 165.13452,182.0909 165.70215,181.7871 C 165.93497,181.6625 165.97721,181.4509 165.97691,180.4105 C 165.97628,178.2016 165.30333,174.2145 164.53172,171.8479 C 163.43092,168.4718 163.11974,167.6574 161.48201,163.867 C 160.82494,162.3462 160.72249,161.9984 160.89913,161.8882 C 161.17156,161.7181 174.22315,161.8895 174.44847,162.0661 C 174.56285,162.1557 174.35476,162.714 173.77279,163.879 C 172.37483,166.6773 171.63564,168.7665 170.74144,172.4465 C 170.20542,174.6525 169.71867,178.3802 169.71867,180.2793 C 169.71867,181.5967 169.86525,181.8544 170.56829,181.7735 L 170.98703,181.7252 L 171.16842,180.0042 C 171.50032,176.8552 172.43182,174.8745 174.49727,172.9261 C 175.67494,171.8151 177.21285,170.9989 178.61755,170.7392 C 180.59966,170.3728 183.08776,170.6679 184.64507,171.454 C 186.46204,172.3712 188.57046,174.5819 189.5882,176.6369 C 190.72685,178.9361 191.18939,183.2936 190.62421,186.3969 C 190.05981,189.496 188.11491,193.7873 185.7599,197.1298 C 185.46605,197.5469 185.08699,198.0904 184.91755,198.3377 C 184.14321,199.4676 180.016,204.7906 177.95579,207.3165 C 177.08302,208.3865 175.73128,210.1306 174.95193,211.1923 C 174.17257,212.254 173.09438,213.6682 172.55596,214.3351 C 172.01754,215.002 171.27119,215.9853 170.89738,216.5203 C 170.52357,217.0554 169.84262,218.0319 169.38413,218.6904 C 167.73408,221.0602 167.42365,221.459 167.22881,221.459 C 167.11998,221.459 166.89176,221.2065 166.72163,220.8978 z M 55.331362,157.3063 C 55.136462,157.1114 55.240612,156.7916 55.992982,155.2747 C 57.024572,153.1948 57.688972,151.381 58.320672,148.9203 C 59.253082,145.2883 59.702982,142.3215 59.714742,139.7276 C 59.721812,138.1689 59.596432,137.8842 58.943822,137.9767 C 58.621042,138.0225 58.586842,138.1315 58.412012,139.6718 C 58.213212,141.4234 57.626622,143.5534 57.187372,144.1186 C 57.041112,144.3068 56.820662,144.6554 56.697482,144.8932 C 56.574302,145.131 55.975202,145.8234 55.366162,146.4319 C 54.160142,147.6368 52.568312,148.5342 51.065202,148.8566 C 49.086182,149.281 46.501052,148.9388 44.677302,148.0111 C 43.046352,147.1814 40.997162,145.0843 40.122522,143.3498 C 39.242452,141.6046 38.619112,138.6971 38.620332,136.3429 C 38.622032,133.0649 39.949912,128.9338 42.336732,124.781 C 42.653742,124.2295 44.414892,121.5729 45.351262,120.2339 C 45.925072,119.4133 49.745082,114.3634 50.813802,113.0126 C 52.438152,110.9595 53.301482,109.8159 55.091622,107.346 C 55.926852,106.1937 56.765152,105.0825 56.954522,104.8767 C 57.269862,104.534 59.286362,101.7165 60.386442,100.0816 C 61.028752,99.1269 61.843512,98.1422 61.991062,98.1422 C 62.059532,98.1422 62.435492,98.6439 62.826532,99.2571 C 63.217572,99.8703 63.806892,100.7945 64.136142,101.3109 C 64.465382,101.8274 64.789172,102.3864 64.855662,102.5531 C 64.922162,102.7199 65.226332,103.1594 65.531602,103.5298 C 66.246602,104.3974 66.662182,104.9631 67.730232,106.5229 C 68.978722,108.3463 70.894472,110.8945 72.964972,113.486 C 76.804352,118.2914 77.488352,119.1744 78.451972,120.5696 C 81.099452,124.4029 83.781192,129.134 84.493222,131.2275 C 85.083782,132.9638 85.344432,134.6905 85.361272,136.978 C 85.374892,138.8287 85.329132,139.2443 84.969172,140.5391 C 84.479842,142.2994 83.965982,143.3481 82.878272,144.806 C 81.337552,146.8711 80.711202,147.4159 78.777762,148.373 L 77.006582,149.2498 L 74.686912,149.2498 L 72.367232,149.2498 L 71.173622,148.6799 C 70.199942,148.2151 69.729482,147.8566 68.620372,146.7344 C 66.698082,144.7895 65.903792,143.1596 64.777352,138.8487 C 64.575942,138.0779 64.530732,138.0225 64.066292,137.9771 L 63.570322,137.9287 L 63.658922,140.0723 C 63.836832,144.3765 65.273572,149.2548 68.201282,155.4951 C 68.577062,156.2961 68.845262,157.0537 68.797282,157.1788 C 68.721072,157.3774 67.871222,157.4061 62.070592,157.4061 C 58.418882,157.4061 55.386232,157.3612 55.331362,157.3063 z M 160.7431,156.813 C 160.55379,156.6933 160.57271,156.5712 160.87609,155.9547 C 161.41562,154.8585 162.55691,152.2897 162.6915,151.8688 C 162.75729,151.663 162.95473,151.0987 163.13028,150.6147 C 163.30581,150.1307 163.50674,149.4572 163.57679,149.1181 C 163.64685,148.779 163.81223,148.1084 163.94432,147.6278 C 164.80312,144.5032 165.41417,138.0462 164.89974,137.5317 C 164.63431,137.2663 164.06202,137.3138 163.90746,137.614 C 163.8333,137.7581 163.72742,138.4999 163.67217,139.2624 C 163.54854,140.9683 163.05279,142.7322 162.37439,143.88 C 162.09243,144.3571 161.35663,145.2639 160.73929,145.8951 C 159.46074,147.2024 157.82313,148.137 156.32606,148.4137 C 154.22455,148.8022 151.49728,148.4422 149.99677,147.5783 C 148.27496,146.5869 146.28076,144.5109 145.32159,142.7113 C 145.06703,142.2337 144.70073,141.2198 144.50757,140.4581 C 142.88378,134.0549 144.44372,128.4176 150.14301,120.0928 C 150.77258,119.1733 153.46558,115.4945 154.65377,113.9309 C 157.31794,110.4251 158.9805,108.1817 160.31003,106.2985 C 161.1236,105.1461 162.04766,103.8665 162.36353,103.455 C 163.08559,102.5142 164.23179,100.8784 165.46552,99.028 C 166.9719,96.7688 166.83447,96.7957 167.95872,98.5384 C 168.48188,99.3494 169.20489,100.4843 169.56537,101.0605 C 169.92586,101.6367 170.46369,102.4111 170.76055,102.7815 C 171.05741,103.1519 171.79782,104.1621 172.40589,105.0264 C 174.46006,107.946 177.74742,112.1994 181.16387,116.358 C 181.51668,116.7874 182.20056,117.685 182.68361,118.3527 C 183.16667,119.0203 183.892,120.0158 184.29548,120.5649 C 186.2174,123.1808 189.07331,128.3086 189.77301,130.4 C 190.40044,132.2754 190.68136,134.0517 190.7026,136.2781 C 190.71806,137.9003 190.66341,138.3848 190.32535,139.6214 C 189.66937,142.0209 189.0904,143.094 187.31061,145.2091 C 186.19705,146.5324 185.5665,147.0033 183.76902,147.8537 C 181.70594,148.8297 179.18791,148.9665 177.11759,148.215 C 175.84327,147.7525 175.24577,147.3236 173.80782,145.8391 C 172.01617,143.9895 171.1887,142.2959 170.24605,138.5494 C 169.95715,137.4011 169.88916,137.2729 169.54763,137.2323 C 168.83244,137.1473 168.74878,137.4656 168.93331,139.5699 C 169.32877,144.0794 170.5881,148.2892 173.23739,153.958 C 173.8637,155.2982 174.34473,156.4766 174.30634,156.5766 C 174.19442,156.8683 161.18897,157.0949 160.7431,156.813 z M 107.82459,123.5337 C 107.78245,123.4239 108.11909,122.5872 108.57268,121.6744 C 109.77714,119.2505 110.36079,117.6674 111.04131,114.9785 C 111.65764,112.5432 111.77728,111.9109 112.17389,108.9923 C 112.40025,107.3265 112.47622,104.6501 112.30946,104.2155 C 112.21468,103.9685 111.43113,103.8805 111.29455,104.1015 C 111.25285,104.1689 111.14672,104.932 111.05871,105.7972 C 110.73697,108.9602 109.9011,110.8144 107.91061,112.7805 C 106.11171,114.5573 104.19736,115.3459 101.67175,115.3505 C 98.873212,115.3555 96.752382,114.4273 94.691062,112.2953 C 92.204892,109.7239 91.223932,106.9263 91.223932,102.4074 C 91.223932,99.5582 91.458292,98.2675 92.425512,95.7899 C 94.222372,91.1871 95.855842,88.7109 103.21937,79.4274 C 104.38434,77.9587 105.96696,75.9038 106.7363,74.861 C 107.50564,73.8181 108.52077,72.4845 108.99216,71.8974 C 109.46354,71.3103 110.54107,69.8617 111.38666,68.6784 C 113.91489,65.1404 114.48763,64.3947 114.67677,64.3947 C 114.77587,64.3947 115.53326,65.4762 116.35985,66.7981 C 117.18645,68.1199 118.38826,69.9046 119.03054,70.764 C 119.67283,71.6233 120.88827,73.2693 121.73153,74.4217 C 122.5748,75.574 123.62206,76.9546 124.05878,77.4896 C 127.53474,81.7479 129.24775,83.8863 130.35286,85.3466 C 132.55113,88.2513 132.77031,88.5689 134.27749,91.0335 C 137.45671,96.2322 138.28897,98.6905 138.29027,102.8864 C 138.29126,106.0502 137.70452,108.0459 136.03321,110.5637 C 134.6802,112.6019 133.39631,113.8004 131.66431,114.642 C 129.87328,115.5123 129.33084,115.6436 127.50962,115.6483 C 124.78334,115.6553 123.44261,115.0655 121.34674,112.9372 C 120.10783,111.6792 119.79354,111.2549 119.22783,110.0765 C 118.54341,108.6509 118.13693,107.4245 117.70278,105.4753 C 117.56528,104.858 117.39112,104.2351 117.31577,104.091 C 117.15772,103.7889 116.73223,103.7474 116.47095,104.0087 C 116.25108,104.2286 116.22881,106.5702 116.43553,107.7326 C 116.51482,108.1785 116.7194,109.3377 116.89015,110.3086 C 117.42779,113.3658 118.98355,117.7132 121.22403,122.4191 C 121.48727,122.972 121.65969,123.4939 121.60716,123.5789 C 121.54377,123.6815 119.22442,123.7334 114.70644,123.7334 C 109.1711,123.7334 107.88692,123.6962 107.82459,123.5337 z M 57.102292,92.3056 C 55.510372,92.2588 54.574812,92.1747 54.602692,92.0811 C 54.627202,91.9988 54.984762,91.2301 55.397262,90.3728 C 56.275482,88.5477 57.205752,86.2269 57.441942,85.2717 C 57.533542,84.9013 57.744852,84.0595 57.911532,83.401 C 58.593222,80.7079 59.120382,76.9184 59.119002,74.721 C 59.118032,73.1637 59.068622,72.9661 58.640602,72.8083 C 58.206622,72.6483 57.970882,73.078 57.863362,74.225 C 57.602502,77.0078 57.213472,78.2592 56.069132,79.9962 C 54.198042,82.8363 51.210732,84.3923 48.087632,84.1535 C 45.447732,83.9516 43.870572,83.2199 41.978822,81.3195 C 39.799872,79.1306 39.042322,77.5607 38.542112,74.1972 C 38.236742,72.1438 38.302832,69.1884 38.692722,67.4626 C 39.816162,62.4899 42.983012,56.9669 49.571732,48.4897 C 50.421102,47.3969 51.250732,46.32 51.415352,46.0966 C 51.579972,45.8733 52.190692,45.0501 52.772502,44.2673 C 53.354302,43.4846 54.314462,42.1707 54.906182,41.3476 C 55.497902,40.5245 56.368792,39.3397 56.841482,38.7147 C 57.314172,38.0898 58.172332,36.8899 58.748512,36.0484 C 60.412112,33.6187 61.080712,32.7422 61.267942,32.7453 C 61.363852,32.7469 61.805832,33.3362 62.250122,34.0548 C 64.085532,37.0234 64.584322,37.7883 65.102912,38.4293 C 65.402562,38.7997 66.144962,39.8099 66.752682,40.6742 C 68.370162,42.9744 69.294002,44.2444 69.970882,45.098 C 70.301142,45.5146 71.110122,46.5515 71.768612,47.4024 C 72.427102,48.2533 73.035312,49.0237 73.120192,49.1145 C 73.205072,49.2052 73.605482,49.7171 74.010012,50.2522 C 74.414532,50.7872 75.127062,51.6963 75.593412,52.2725 C 78.510252,55.8763 82.673272,62.9534 83.685712,66.0295 C 84.422172,68.267 84.776472,72.2553 84.400682,74.0776 C 83.740342,77.2798 82.655272,79.3396 80.414112,81.6455 C 79.585112,82.4985 79.137982,82.8129 77.952722,83.3763 C 75.980732,84.3137 75.418752,84.4343 73.511792,84.3294 C 71.610072,84.2248 70.467782,83.8686 69.387382,83.0433 C 66.699832,80.9902 65.233602,78.4472 64.273042,74.1729 C 63.982582,72.8803 63.844562,72.6702 63.325842,72.7305 L 62.938892,72.7754 L 62.965862,74.4217 C 62.980702,75.3271 63.061872,76.4719 63.146232,76.9658 C 63.819692,80.9082 63.928552,81.3357 65.070572,84.5235 C 65.693472,86.2622 66.840322,88.9733 67.697762,90.7342 C 68.224482,91.8159 68.307352,92.1445 68.074932,92.23 C 67.780832,92.3381 60.025262,92.3916 57.102292,92.3056 z M 160.23414,92.1861 C 160.19353,92.1204 160.52543,91.3291 160.97173,90.4276 C 162.1679,88.0115 162.79759,86.311 163.51819,83.5507 C 164.56945,79.5238 165.14826,73.5392 164.54484,72.9358 C 164.2608,72.6517 164.16454,72.6452 163.83356,72.8877 C 163.65152,73.021 163.55509,73.3756 163.49779,74.1223 C 163.29283,76.7933 162.90032,78.1305 161.85048,79.7345 C 160.49285,81.8086 158.52853,83.3017 156.45249,83.8373 C 155.12043,84.1809 152.84659,84.1492 151.4701,83.7678 C 148.98039,83.0778 146.64044,81.0769 145.09806,78.3188 C 143.50539,75.4709 143.2045,69.677 144.44877,65.8164 C 145.32588,63.0951 146.97591,59.7999 148.91529,56.8967 C 150.27599,54.8598 153.80761,50.0119 155.22756,48.2318 C 156.74544,46.329 157.85674,44.8912 158.75569,43.6673 C 159.26956,42.9676 160.11615,41.8228 160.637,41.1231 C 164.32352,36.1712 165.29325,34.8339 165.57928,34.3077 C 165.7117,34.0641 166.08276,33.5651 166.40386,33.1988 L 166.9877,32.5329 L 167.86681,33.9024 C 168.35031,34.6556 169.01529,35.7207 169.34453,36.2693 C 169.67378,36.8179 170.23045,37.6297 170.58161,38.0733 C 170.93275,38.517 172.00434,39.9739 172.96294,41.311 C 173.92152,42.6481 175.86045,45.19 177.27165,46.9597 C 178.68286,48.7294 180.17037,50.6002 180.57726,51.1171 C 180.98414,51.634 181.57364,52.3748 181.88727,52.7634 C 182.74795,53.8296 185.20837,57.4727 186.38454,59.4224 C 187.60061,61.4382 189.30813,64.9259 189.69332,66.1806 C 190.18983,67.798 190.36177,68.9458 190.46828,71.3537 C 190.55037,73.2097 190.52578,73.4991 190.16607,74.9103 C 189.4932,77.5502 188.838,78.7729 186.79009,81.2104 C 186.2063,81.9052 184.56906,83.1766 184.25804,83.1766 C 184.19985,83.1766 183.77835,83.3705 183.32136,83.6077 C 181.81972,84.3867 179.79578,84.5854 177.75815,84.1536 C 176.25734,83.8356 175.34782,83.2739 173.75688,81.6827 C 171.68875,79.6143 170.9575,78.1033 169.84455,73.5985 C 169.65458,72.8296 169.61171,72.7754 169.19354,72.7754 L 168.74591,72.7754 L 168.75786,74.6461 C 168.77811,77.8132 169.53331,81.2355 171.1324,85.4068 C 171.75135,87.0214 171.77552,87.0769 172.99737,89.693 C 173.4988,90.7666 173.90905,91.7936 173.90905,91.9753 L 173.90905,92.3056 L 167.10852,92.3056 C 163.36823,92.3056 160.27476,92.2518 160.23414,92.1861 z M 20.623562,82.031 C 20.249992,81.926 20.294812,81.7388 20.862772,81.0317 C 21.887062,79.7566 22.575942,78.0341 22.698292,76.442 C 22.784992,75.3137 22.626812,74.9174 22.223422,75.2522 C 22.082482,75.3692 21.806902,75.7187 21.611022,76.029 C 21.415132,76.3393 20.969712,76.8007 20.621192,77.0543 C 20.025602,77.4876 19.920062,77.5122 18.865102,77.4648 C 17.845232,77.419 17.660852,77.3597 16.847192,76.8159 C 16.128942,76.336 15.862352,76.0398 15.500282,75.3196 C 15.078342,74.4803 15.050092,74.319 15.067722,72.8503 C 15.089062,71.0728 15.521302,69.3374 16.347142,67.7135 C 16.852552,66.7198 18.745932,63.374 19.495662,62.1498 C 20.260382,60.9012 20.513522,60.4357 21.580572,58.3156 C 22.144842,57.1945 22.606512,56.2094 22.606512,56.1265 C 22.606512,56.0436 22.699492,55.8986 22.813142,55.8043 C 23.032582,55.6221 23.362652,56.0662 24.362602,57.8889 C 24.612262,58.344 25.346282,59.5179 25.993772,60.4975 C 29.807862,66.2682 31.183602,68.829 31.527252,70.7975 C 32.158022,74.4106 30.046192,77.666 27.335202,77.2595 C 26.582102,77.1465 25.593912,76.4062 25.212932,75.6694 C 25.047042,75.3486 24.893102,75.2391 24.655642,75.2729 C 24.360722,75.3149 24.329112,75.4036 24.342982,76.1507 C 24.371052,77.6622 25.396772,79.9714 26.616712,81.2694 C 26.859692,81.528 26.951722,81.7347 26.863232,81.8232 C 26.715392,81.971 21.078242,82.1587 20.623562,82.031 z M 23.937272,49.7502 C 22.206422,49.0382 21.532252,48.3415 20.816312,46.5252 C 20.321712,45.2704 20.230022,43.4424 20.217062,34.5788 C 20.210422,30.0328 20.169462,26.2208 20.126042,26.1076 C 19.977332,25.7201 20.336672,23.0902 20.681282,22.0439 C 20.967642,21.1745 21.177962,20.8466 21.929222,20.0984 C 23.158912,18.8736 23.989712,18.5949 26.356662,18.6132 C 27.869422,18.6248 28.189492,18.6737 28.907652,19.0024 C 30.006162,19.5054 30.737222,20.1741 31.371342,21.256 C 32.339652,22.9082 32.374082,23.2191 32.427922,30.7968 C 32.484912,38.8189 32.305162,44.9115 31.981432,45.9299 C 31.478382,47.5123 30.560152,48.7696 29.428392,49.4258 C 28.142192,50.1715 25.360842,50.3358 23.937272,49.7502 z M 27.814072,46.423 C 28.241232,46.2102 28.717492,45.8566 28.872442,45.6373 C 29.399152,44.892 29.378632,45.443 29.349912,32.8172 C 29.340032,28.4744 29.270272,25.2666 29.173502,24.7053 C 28.842772,22.7871 27.708872,21.7581 26.077022,21.8953 C 24.767782,22.0053 23.870422,22.6642 23.418162,23.8475 C 23.214622,24.38 23.191532,25.6851 23.232812,34.3234 L 23.279962,44.1911 L 23.628782,44.962 C 24.076372,45.9513 24.519352,46.3585 25.408262,46.5975 C 26.476822,46.8849 26.957142,46.8501 27.814072,46.423 z M 13.928232,49.7305 C 13.719042,49.4785 13.669342,46.4412 13.597092,29.4954 C 13.567642,22.588 13.603872,18.9383 13.702892,18.8389 C 13.912302,18.6287 16.196162,18.4742 16.457122,18.6525 C 16.726042,18.8363 16.729922,19.0612 16.757492,36.0978 C 16.775172,47.0209 16.741672,49.7288 16.587642,49.8265 C 16.233562,50.0512 14.131392,49.9753 13.928232,49.7305 z"
     id="path6958" />
  <g
     id="g3796"
     transform="translate(1.593878e-6,0)">
    <rect
       ry="11.25"
       rx="11.25"
       y="3.4247196"
       x="3.6058116"
       height="311.81104"
       width="223.22835"
       id="rect2382"
       style="fill:none;fill-opacity:1;fill-rule:nonzero;stroke:#000000;stroke-width:0.03543307;stroke-linejoin:round;stroke-miterlimit:4;stroke-dasharray:none;stroke-opacity:1" />
    <g
       transform="translate(3.5433116,3.3622195)"
       id="g3164">
      <path
         style="fill:none;fill-rule:evenodd;stroke:#000000;stroke-width:0.03221492;stroke-linecap:butt;stroke-linejoin:miter;stroke-miterlimit:4;stroke-dasharray:none;stroke-opacity:1"
         d="M 219.74754,0.062511534 L 226.70838,0.062511534"
         id="path3160"
         sodipodi:nodetypes="cc" />
      <path
         sodipodi:nodetypes="cc"
         id="path3162"
         d="M 223.29036,-3.2997195 L 223.29036,3.6063107"
         style="fill:none;fill-rule:evenodd;stroke:#000000;stroke-width:0.03196126;stroke-linecap:butt;stroke-linejoin:miter;stroke-miterlimit:4;stroke-dasharray:none;stroke-opacity:1" />
    </g>
    <g
       transform="matrix(1.0001093,0,0,1,3.519309,315.17275)"
       id="g3168">
      <path
         sodipodi:nodetypes="cc"
         id="path3170"
         d="M 219.74754,0.062511534 L 226.70838,0.062511534"
         style="fill:none;fill-rule:evenodd;stroke:#000000;stroke-width:0.03221492;stroke-linecap:butt;stroke-linejoin:miter;stroke-miterlimit:4;stroke-dasharray:none;stroke-opacity:1" />
      <path
         style="fill:none;fill-rule:evenodd;stroke:#000000;stroke-width:0.03196126;stroke-linecap:butt;stroke-linejoin:miter;stroke-miterlimit:4;stroke-dasharray:none;stroke-opacity:1"
         d="M 223.29036,-3.2997195 L 223.29036,3.6063107"
         id="path3172"
         sodipodi:nodetypes="cc" />
    </g>
    <g
       id="g3174"
       transform="matrix(1.0001093,0,0,1,-219.70906,315.17275)">
      <path
         style="fill:none;fill-rule:evenodd;stroke:#000000;stroke-width:0.03221492;stroke-linecap:butt;stroke-linejoin:miter;stroke-miterlimit:4;stroke-dasharray:none;stroke-opacity:1"
         d="M 219.74754,0.062511534 L 226.70838,0.062511534"
         id="path3176"
         sodipodi:nodetypes="cc" />
      <path
         sodipodi:nodetypes="cc"
         id="path3178"
         d="M 223.29036,-3.2997195 L 223.29036,3.6063107"
         style="fill:none;fill-rule:evenodd;stroke:#000000;stroke-width:0.03196126;stroke-linecap:butt;stroke-linejoin:miter;stroke-miterlimit:4;stroke-dasharray:none;stroke-opacity:1" />
    </g>
    <g
       transform="translate(-219.68504,3.3622195)"
       id="g3180">
      <path
         sodipodi:nodetypes="cc"
         id="path3182"
         d="M 219.74754,0.062511534 L 226.70838,0.062511534"
         style="fill:none;fill-rule:evenodd;stroke:#000000;stroke-width:0.03221492;stroke-linecap:butt;stroke-linejoin:miter;stroke-miterlimit:4;stroke-dasharray:none;stroke-opacity:1" />
      <path
         style="fill:none;fill-rule:evenodd;stroke:#000000;stroke-width:0.03196126;stroke-linecap:butt;stroke-linejoin:miter;stroke-miterlimit:4;stroke-dasharray:none;stroke-opacity:1"
         d="M 223.29036,-3.2997195 L 223.29036,3.6063107"
         id="path3184"
         sodipodi:nodetypes="cc" />
    </g>
  </g>
</svg>
