<?xml version="1.0" encoding="UTF-8" standalone="no"?>
<!-- Created with Inkscape (http://www.inkscape.org/) -->
<svg
   xmlns:dc="http://purl.org/dc/elements/1.1/"
   xmlns:cc="http://creativecommons.org/ns#"
   xmlns:rdf="http://www.w3.org/1999/02/22-rdf-syntax-ns#"
   xmlns:svg="http://www.w3.org/2000/svg"
   xmlns="http://www.w3.org/2000/svg"
   xmlns:sodipodi="http://sodipodi.sourceforge.net/DTD/sodipodi-0.dtd"
   xmlns:inkscape="http://www.inkscape.org/namespaces/inkscape"
   id="svg5366"
   sodipodi:version="0.32"
   inkscape:version="0.46"
   width="230.31497"
   height="318.84155"
   version="1.0"
   sodipodi:docname="2c.svg"
   inkscape:output_extension="org.inkscape.output.svg.inkscape">
  <metadata
     id="metadata5371">
    <rdf:RDF>
      <cc:Work
         rdf:about="">
        <dc:format>image/svg+xml</dc:format>
        <dc:type
           rdf:resource="http://purl.org/dc/dcmitype/StillImage" />
      </cc:Work>
    </rdf:RDF>
  </metadata>
  <defs
     id="defs5369">
    <inkscape:perspective
       sodipodi:type="inkscape:persp3d"
       inkscape:vp_x="0 : 526.18109 : 1"
       inkscape:vp_y="0 : 1000 : 0"
       inkscape:vp_z="744.09448 : 526.18109 : 1"
       inkscape:persp3d-origin="372.04724 : 350.78739 : 1"
       id="perspective5373" />
  </defs>
  <sodipodi:namedview
     inkscape:window-height="667"
     inkscape:window-width="808"
     inkscape:pageshadow="2"
     inkscape:pageopacity="0.0"
     guidetolerance="10.0"
     gridtolerance="10.0"
     objecttolerance="10.0"
     borderopacity="1.0"
     bordercolor="#666666"
     pagecolor="#ffffff"
     id="base"
     showgrid="false"
     inkscape:zoom="1.6400838"
     inkscape:cx="103.71856"
     inkscape:cy="188.62748"
     inkscape:window-x="110"
     inkscape:window-y="145"
     inkscape:current-layer="svg5366" />
  <path
     style="fill:#000000"
     d="M 205.80121,299.8894 C 202.77351,298.9724 201.04825,297.6272 199.50731,294.9821 C 198.19807,292.7346 198.44663,289.7866 200.16336,287.201 C 201.04085,285.8795 203.91348,283.0281 205.87629,281.5303 C 208.45808,279.5603 210.69383,277.4367 211.91248,275.7971 C 212.89815,274.4709 213.7402,272.4264 213.65704,271.5613 L 213.60951,271.0671 L 208.08813,271.0277 L 202.56676,270.9883 L 202.4196,271.3753 C 202.33868,271.5882 202.27246,272.4545 202.27246,273.3005 C 202.27246,275.3717 202.22972,275.4243 200.55637,275.4128 C 199.847,275.408 199.19638,275.3338 199.11055,275.2479 C 198.86646,275.0039 198.89345,267.8279 199.13903,267.6761 C 199.24405,267.6112 199.63729,267.5188 200.01289,267.4708 C 200.90158,267.3571 217.23914,267.4901 217.43737,267.6126 C 217.65513,267.7472 217.61876,269.9163 217.36934,271.6703 C 216.74719,276.0455 214.76478,279.0047 209.72442,283.0819 C 208.90902,283.7414 207.83646,284.6103 207.34095,285.0127 C 205.43008,286.5644 203.70401,288.4334 203.16313,289.5364 C 202.69998,290.4809 202.64931,290.7088 202.66233,291.7888 C 202.67411,292.7662 202.74935,293.133 203.06575,293.7549 C 203.57569,294.7573 204.85863,295.918 205.84651,296.2706 C 207.5565,296.881 210.08057,296.8589 211.53366,296.2206 C 212.45364,295.8166 213.45052,294.8263 213.83352,293.936 C 214.16866,293.1569 214.18785,292.2758 213.90051,290.8597 L 213.80334,290.3808 L 214.83262,290.0779 C 216.53244,289.5778 216.89478,289.6036 217.24434,290.2499 C 217.66303,291.0241 217.61762,293.7391 217.16486,295.001 C 216.45453,296.9808 214.9497,298.5669 213.05599,299.3318 C 210.55126,300.3435 207.95836,300.5428 205.80121,299.8894 z M 114.27891,286.9485 C 112.26277,286.7839 111.07029,286.5368 109.69133,285.9978 C 107.66426,285.2055 106.93953,284.722 105.33728,283.0933 C 103.9062,281.6385 102.98735,280.132 102.30669,278.1246 C 101.63274,276.1368 101.54599,274.9511 101.89475,272.4936 C 102.44324,268.6286 103.38161,266.745 106.30827,263.6342 C 107.36346,262.5125 107.63334,262.0394 107.46624,261.6039 C 107.29056,261.1461 106.92462,261.2138 105.99031,261.8771 C 105.04226,262.5501 104.13375,262.9605 101.89073,263.729 C 100.79459,264.1046 100.49233,264.141 98.437062,264.1459 C 96.264373,264.151 96.134186,264.1335 94.75815,263.6515 C 91.736735,262.5931 89.267255,260.4126 87.699809,257.4191 C 86.879772,255.853 86.641769,254.9356 86.543923,252.9635 C 86.352248,249.1003 87.450629,246.1917 90.161838,243.3828 C 92.760548,240.6905 95.682404,239.3788 99.0377,239.3983 C 101.05507,239.41 102.42864,239.7586 104.59361,240.8085 C 106.27291,241.6228 107.25836,242.4301 108.98791,244.4084 C 110.23625,245.8363 111.00036,247.209 111.26854,248.5055 C 111.43183,249.2949 111.72727,249.8195 112.00854,249.8195 C 112.06944,249.8195 112.23223,249.735 112.3703,249.6318 C 112.59481,249.4639 112.60554,249.2696 112.47196,247.7923 C 112.28878,245.7665 112.21323,245.2175 112.03805,244.639 C 111.96303,244.3912 111.85733,243.9182 111.80317,243.5878 C 111.71068,243.0237 111.09381,240.7925 110.04815,237.24 C 109.76441,236.276 109.12043,234.7602 108.33151,233.1994 C 107.6371,231.8255 107.09841,230.672 107.13443,230.636 C 107.22829,230.5421 121.05162,230.5909 121.2049,230.6856 C 121.27507,230.729 121.10371,231.2188 120.82409,231.774 C 118.37379,236.6397 116.37651,243.9745 116.38344,248.0818 C 116.38601,249.602 116.48082,249.8687 116.9926,249.7951 C 117.29226,249.752 117.37201,249.6099 117.52669,248.8434 C 118.49645,244.0383 122.52756,240.3715 128.0936,239.2313 C 129.59805,238.9232 132.11586,238.9968 133.57442,239.3917 C 135.88493,240.0172 138.64762,242.0018 140.15252,244.1171 C 141.761,246.378 142.50241,248.7437 142.50635,251.6279 C 142.50851,253.2117 142.44716,253.7253 142.12066,254.8563 C 141.13204,258.2809 139.71729,260.3805 137.32841,261.9685 C 135.20227,263.3818 133.82199,263.7844 131.10278,263.7842 C 128.32768,263.784 125.99689,263.2167 124.0264,262.0618 C 122.96691,261.4409 122.48433,261.417 122.4197,261.9824 C 122.38547,262.2818 122.68233,262.6707 123.8858,263.9033 C 125.23585,265.286 125.48716,265.6341 126.27129,267.2068 C 127.47793,269.6271 127.96656,271.6248 127.97286,274.1636 C 127.97897,276.6251 127.67477,278.0461 126.78736,279.7012 C 125.4979,282.1062 123.66283,284.0419 121.46817,285.312 C 119.76422,286.2981 116.21348,287.1064 114.27891,286.9485 z M 205.65105,263.2735 C 204.03967,262.7625 202.86996,261.7309 202.14409,260.1805 C 201.60634,259.0319 201.59245,257.3093 202.11161,256.1508 C 202.52091,255.2375 203.46964,253.9604 204.18744,253.3564 C 204.45561,253.1307 204.67501,252.8846 204.67501,252.8093 C 204.67501,252.5697 204.13019,252.6623 203.87393,252.9454 C 203.73808,253.0955 203.11316,253.4757 202.4852,253.7903 C 201.53513,254.2662 201.18826,254.3624 200.41898,254.3635 C 198.53731,254.3663 196.67879,253.2088 195.94697,251.5784 C 195.645,250.9056 195.59519,250.5526 195.59295,249.0687 C 195.59061,247.5136 195.62973,247.2579 195.98605,246.4979 C 196.53822,245.3203 197.38047,244.4436 198.44339,243.9399 C 199.19632,243.5831 199.53885,243.513 200.5282,243.5129 C 202.15626,243.5127 202.768,243.7316 203.7941,244.6816 C 204.81655,245.6282 205.12246,246.0978 205.57581,247.4169 C 206.03153,248.7428 206.17661,248.8456 206.17661,247.8425 C 206.17661,246.1184 205.16179,242.5301 204.19486,240.8353 C 203.84643,240.2246 203.77978,239.9933 203.91366,239.8593 C 204.11938,239.6534 210.87677,239.6044 211.08004,239.8073 C 211.14814,239.8752 210.8845,240.5249 210.49418,241.251 C 209.61147,242.893 208.81592,244.9345 208.42765,246.5541 C 207.88244,248.8282 208.13972,249.1375 208.9353,247.1644 C 209.7378,245.1741 210.69523,244.2896 212.56476,243.8115 C 213.79467,243.4969 214.34487,243.5395 215.78683,244.0612 C 217.41315,244.6495 218.50795,246.1753 218.80406,248.2663 C 219.08898,250.2782 218.53286,251.7691 217.04815,252.9737 C 216.21342,253.6509 215.90368,253.806 215.05969,253.9693 C 213.48934,254.2731 211.87388,253.8795 210.10343,252.7619 C 209.74843,252.5378 209.34469,252.3769 209.20626,252.4044 C 209.0229,252.4407 209.26032,252.7591 210.08076,253.5771 C 210.8556,254.3497 211.37093,255.0279 211.73252,255.7509 C 212.22806,256.7419 212.25808,256.8877 212.25808,258.3035 C 212.25808,259.6455 212.21322,259.8964 211.83599,260.6646 C 211.33608,261.6826 210.51756,262.4259 209.22249,263.0378 C 208.45353,263.4011 208.08978,263.4821 207.26486,263.4739 C 206.70762,263.4684 205.9814,263.3782 205.65105,263.2735 z M 107.65891,88.6901 C 107.5469,88.6209 107.58922,88.4036 107.79231,88.0053 C 107.95593,87.6844 108.52766,86.3744 109.06283,85.0943 C 109.90198,83.0871 110.23225,82.1004 111.12349,78.9378 C 111.28164,78.3766 111.73475,76.0896 112.03217,74.3514 C 112.1317,73.7697 112.22182,72.5059 112.23244,71.5429 C 112.24908,70.0347 112.21398,69.7546 111.97929,69.5222 C 111.71698,69.2625 111.69598,69.2657 111.41618,69.607 C 111.25634,69.8019 111.12555,70.1449 111.12555,70.369 C 111.12555,70.8611 110.54583,72.607 110.07433,73.5349 C 108.35912,76.9104 104.54693,79.5355 100.25236,80.2982 C 99.047417,80.5122 96.436968,80.4012 95.283709,80.0869 C 93.774774,79.6756 92.015235,78.6767 90.693901,77.481 C 89.057662,76.0004 88.416096,75.1487 87.546227,73.3026 C 86.50687,71.0968 86.143817,69.363 86.234665,67.0391 C 86.297468,65.4326 86.376315,64.99 86.853874,63.5637 C 87.154857,62.6647 87.748797,61.2997 88.173741,60.5304 C 88.885286,59.2423 89.063749,59.0391 90.431117,57.9605 C 91.999779,56.723 93.441211,55.9424 94.68307,55.6577 C 95.096009,55.5631 96.318453,55.4488 97.399613,55.4038 C 98.947927,55.3393 99.617549,55.3775 100.55297,55.5836 C 102.26657,55.961 103.40447,56.3747 104.54473,57.0349 C 105.7814,57.7508 106.17028,57.7863 106.17028,57.1832 C 106.17028,56.8449 105.93921,56.5275 105.10444,55.7191 C 104.51823,55.1515 103.74459,54.2778 103.38523,53.7777 C 102.46193,52.4926 101.44326,50.288 100.96077,48.5304 C 100.59257,47.1892 100.54971,46.7883 100.55955,44.7765 C 100.57254,42.1191 100.77863,41.1696 101.72447,39.4097 C 102.97047,37.0912 105.00359,34.981 107.11986,33.8096 C 107.95906,33.3451 109.84571,32.7623 111.50096,32.4563 C 113.71434,32.0471 116.4317,32.3192 118.63354,33.1704 C 120.7875,34.0031 122.05864,34.8479 123.55709,36.4426 C 124.75314,37.7155 125.99191,40.014 126.45261,41.8154 C 127.00346,43.9692 126.71152,47.8567 125.83562,50.0315 C 124.92357,52.2961 124.78763,52.5063 122.49318,55.1998 C 120.97237,56.9851 120.77208,57.4477 121.36044,57.8159 C 121.55737,57.9392 121.78303,57.8411 122.4354,57.3485 C 123.55005,56.5069 124.85367,55.8959 126.74216,55.3297 C 128.13165,54.9131 128.54168,54.8558 130.19583,54.847 C 132.4332,54.8353 133.72641,55.1262 135.48807,56.0375 C 137.19223,56.9191 138.5778,58.091 139.71676,59.614 C 141.72715,62.3023 142.32516,64.2323 142.16004,67.4993 C 142.01636,70.342 141.651,71.5438 140.29364,73.6385 C 139.26526,75.2255 138.19749,76.3881 136.85656,77.3809 C 134.37615,79.2172 132.45098,79.8909 129.67027,79.8956 C 127.68767,79.8989 126.33565,79.56 124.20999,78.5267 C 122.57386,77.7315 121.31359,76.7115 119.73268,74.9032 C 118.45421,73.4409 117.82437,72.3175 117.36423,70.679 C 117.081,69.6704 117.00665,69.548 116.65237,69.5065 C 116.10114,69.4421 116.04318,69.7387 116.22673,71.685 C 116.41488,73.6802 116.95734,76.0665 118.14851,80.1391 C 119.04925,83.2186 120.02605,85.5682 121.237,87.5678 C 121.53571,88.0611 121.73096,88.5115 121.67088,88.5686 C 121.52827,88.7044 107.87351,88.8228 107.65891,88.6901 z M 20.766983,79.4248 C 19.381848,79.3903 18.927527,79.3308 18.927527,79.1839 C 18.927527,79.0766 19.240914,78.3534 19.623943,77.5769 C 20.006971,76.8003 20.485193,75.7245 20.686657,75.1863 C 21.143075,73.967 21.780561,71.4936 21.780561,70.9421 C 21.780561,70.2743 21.382059,70.4513 21.105324,71.2421 C 20.101674,74.1102 18.415002,75.4479 15.991202,75.2981 C 13.352782,75.1351 11.661882,73.3489 11.460602,70.5123 C 11.318102,68.5041 11.878422,66.9799 13.138892,65.9471 C 15.058262,64.3743 17.418142,64.4739 19.979482,66.2358 C 20.735571,66.7559 21.029763,66.8802 21.029763,66.6797 C 21.029763,66.6273 20.573047,66.1036 20.014839,65.5159 C 18.225892,63.6324 17.631942,62.2022 17.763422,60.0947 C 17.856632,58.6007 18.307782,57.6215 19.308981,56.7402 C 20.498226,55.6934 21.189521,55.4378 22.831678,55.4378 C 24.164559,55.4378 24.31894,55.4707 25.183632,55.9398 C 26.268344,56.5281 26.534894,56.7904 27.238715,57.9616 C 28.626716,60.2713 28.22297,62.7187 26.069671,65.048 C 25.535236,65.6261 25.094844,66.1836 25.091022,66.2868 C 25.078735,66.6187 25.594611,66.4868 26.13519,66.0198 C 27.882495,64.5105 30.23261,64.2757 32.051023,65.4289 C 33.691153,66.4691 34.44715,68.6965 34.016892,71.2211 C 33.455898,74.5128 30.47841,76.4123 27.57972,75.3278 C 26.958845,75.0955 26.527577,74.7743 25.797842,74.0008 C 24.949648,73.1016 24.784748,72.8254 24.411964,71.6794 C 24.179243,70.964 23.90473,70.3787 23.801934,70.3787 C 23.35951,70.3787 23.40785,71.3649 23.974901,73.9074 C 24.319281,75.4516 24.742547,76.7012 25.33004,77.9084 C 25.616641,78.4973 25.815808,79.0712 25.772634,79.1837 C 25.714476,79.3353 25.345926,79.3883 24.350268,79.3883 C 23.611141,79.3883 22.916409,79.4068 22.806419,79.4294 C 22.69643,79.4521 21.778684,79.45 20.766983,79.4248 z M 14.422742,51.1654 L 13.897182,51.0832 L 13.848242,49.8068 C 13.653022,44.7146 15.607432,40.774 20.278684,36.8412 C 25.893887,32.1138 26.90067,31.1377 27.736965,29.6103 C 28.287654,28.6046 28.312046,28.5009 28.301873,27.2078 C 28.289848,25.6795 28.044613,25.0323 27.06802,23.9513 C 26.350881,23.1575 25.618047,22.7014 24.613902,22.4239 C 23.331441,22.0694 22.526163,22.0078 21.351829,22.1743 C 19.347191,22.4587 17.935252,23.4295 17.239702,25.002 C 16.986452,25.5745 16.955462,25.8466 17.049522,26.6721 C 17.276542,28.6642 17.336842,28.5148 16.149572,28.9018 C 14.804092,29.3403 14.441932,29.2966 14.066072,28.6507 C 13.612212,27.8708 13.627302,25.4672 14.094932,24.0544 C 14.435222,23.0264 15.334512,21.5298 16.007852,20.871 C 16.481372,20.4078 17.831952,19.5733 18.586302,19.2778 C 20.804462,18.4091 23.669767,18.3388 25.797723,19.1009 C 28.202354,19.9622 30.192339,21.7439 31.324379,24.0492 C 32.540551,26.5258 32.32269,29.201 30.703867,31.6689 C 29.595959,33.3578 28.067726,34.812 22.701031,39.284 C 19.917298,41.6036 17.922582,44.3622 17.425632,46.5797 C 17.146182,47.8267 16.924752,47.7797 23.076613,47.7797 C 26.013414,47.7797 28.474101,47.7439 28.544808,47.7002 C 28.615514,47.6565 28.720826,46.7218 28.778831,45.623 C 28.882869,43.6523 28.889578,43.6232 29.27412,43.4748 C 29.710514,43.3063 31.608532,43.367 31.795657,43.5554 C 31.981578,43.7426 31.946316,50.813 31.758525,51.0007 C 31.591324,51.1679 15.419972,51.3216 14.422742,51.1654 z"
     id="path5377" />
  <g
     id="g3796"
     transform="translate(1.593878e-6,0)">
    <rect
       ry="11.25"
       rx="11.25"
       y="3.4247196"
       x="3.6058116"
       height="311.81104"
       width="223.22835"
       id="rect2382"
       style="fill:none;fill-opacity:1;fill-rule:nonzero;stroke:#000000;stroke-width:0.03543307;stroke-linejoin:round;stroke-miterlimit:4;stroke-dasharray:none;stroke-opacity:1" />
    <g
       transform="translate(3.5433116,3.3622195)"
       id="g3164">
      <path
         style="fill:none;fill-rule:evenodd;stroke:#000000;stroke-width:0.03221492;stroke-linecap:butt;stroke-linejoin:miter;stroke-miterlimit:4;stroke-dasharray:none;stroke-opacity:1"
         d="M 219.74754,0.062511534 L 226.70838,0.062511534"
         id="path3160"
         sodipodi:nodetypes="cc" />
      <path
         sodipodi:nodetypes="cc"
         id="path3162"
         d="M 223.29036,-3.2997195 L 223.29036,3.6063107"
         style="fill:none;fill-rule:evenodd;stroke:#000000;stroke-width:0.03196126;stroke-linecap:butt;stroke-linejoin:miter;stroke-miterlimit:4;stroke-dasharray:none;stroke-opacity:1" />
    </g>
    <g
       transform="matrix(1.0001093,0,0,1,3.519309,315.17275)"
       id="g3168">
      <path
         sodipodi:nodetypes="cc"
         id="path3170"
         d="M 219.74754,0.062511534 L 226.70838,0.062511534"
         style="fill:none;fill-rule:evenodd;stroke:#000000;stroke-width:0.03221492;stroke-linecap:butt;stroke-linejoin:miter;stroke-miterlimit:4;stroke-dasharray:none;stroke-opacity:1" />
      <path
         style="fill:none;fill-rule:evenodd;stroke:#000000;stroke-width:0.03196126;stroke-linecap:butt;stroke-linejoin:miter;stroke-miterlimit:4;stroke-dasharray:none;stroke-opacity:1"
         d="M 223.29036,-3.2997195 L 223.29036,3.6063107"
         id="path3172"
         sodipodi:nodetypes="cc" />
    </g>
    <g
       id="g3174"
       transform="matrix(1.0001093,0,0,1,-219.70906,315.17275)">
      <path
         style="fill:none;fill-rule:evenodd;stroke:#000000;stroke-width:0.03221492;stroke-linecap:butt;stroke-linejoin:miter;stroke-miterlimit:4;stroke-dasharray:none;stroke-opacity:1"
         d="M 219.74754,0.062511534 L 226.70838,0.062511534"
         id="path3176"
         sodipodi:nodetypes="cc" />
      <path
         sodipodi:nodetypes="cc"
         id="path3178"
         d="M 223.29036,-3.2997195 L 223.29036,3.6063107"
         style="fill:none;fill-rule:evenodd;stroke:#000000;stroke-width:0.03196126;stroke-linecap:butt;stroke-linejoin:miter;stroke-miterlimit:4;stroke-dasharray:none;stroke-opacity:1" />
    </g>
    <g
       transform="translate(-219.68504,3.3622195)"
       id="g3180">
      <path
         sodipodi:nodetypes="cc"
         id="path3182"
         d="M 219.74754,0.062511534 L 226.70838,0.062511534"
         style="fill:none;fill-rule:evenodd;stroke:#000000;stroke-width:0.03221492;stroke-linecap:butt;stroke-linejoin:miter;stroke-miterlimit:4;stroke-dasharray:none;stroke-opacity:1" />
      <path
         style="fill:none;fill-rule:evenodd;stroke:#000000;stroke-width:0.03196126;stroke-linecap:butt;stroke-linejoin:miter;stroke-miterlimit:4;stroke-dasharray:none;stroke-opacity:1"
         d="M 223.29036,-3.2997195 L 223.29036,3.6063107"
         id="path3184"
         sodipodi:nodetypes="cc" />
    </g>
  </g>
</svg>
