<?xml version="1.0" encoding="UTF-8" standalone="no"?>
<!-- Created with Inkscape (http://www.inkscape.org/) -->
<svg
   xmlns:dc="http://purl.org/dc/elements/1.1/"
   xmlns:cc="http://creativecommons.org/ns#"
   xmlns:rdf="http://www.w3.org/1999/02/22-rdf-syntax-ns#"
   xmlns:svg="http://www.w3.org/2000/svg"
   xmlns="http://www.w3.org/2000/svg"
   xmlns:sodipodi="http://sodipodi.sourceforge.net/DTD/sodipodi-0.dtd"
   xmlns:inkscape="http://www.inkscape.org/namespaces/inkscape"
   id="svg7412"
   sodipodi:version="0.32"
   inkscape:version="0.46"
   width="230.31497"
   height="318.84155"
   version="1.0"
   sodipodi:docname="2d.svg"
   inkscape:output_extension="org.inkscape.output.svg.inkscape">
  <metadata
     id="metadata7417">
    <rdf:RDF>
      <cc:Work
         rdf:about="">
        <dc:format>image/svg+xml</dc:format>
        <dc:type
           rdf:resource="http://purl.org/dc/dcmitype/StillImage" />
      </cc:Work>
    </rdf:RDF>
  </metadata>
  <defs
     id="defs7415">
    <inkscape:perspective
       sodipodi:type="inkscape:persp3d"
       inkscape:vp_x="0 : 526.18109 : 1"
       inkscape:vp_y="0 : 1000 : 0"
       inkscape:vp_z="744.09448 : 526.18109 : 1"
       inkscape:persp3d-origin="372.04724 : 350.78739 : 1"
       id="perspective7419" />
  </defs>
  <sodipodi:namedview
     inkscape:window-height="667"
     inkscape:window-width="837"
     inkscape:pageshadow="2"
     inkscape:pageopacity="0.0"
     guidetolerance="10.0"
     gridtolerance="10.0"
     objecttolerance="10.0"
     borderopacity="1.0"
     bordercolor="#666666"
     pagecolor="#ffffff"
     id="base"
     showgrid="false"
     inkscape:zoom="1.4489955"
     inkscape:cx="115.15748"
     inkscape:cy="159.42077"
     inkscape:window-x="22"
     inkscape:window-y="29"
     inkscape:current-layer="svg7412" />
  <path
     style="fill:#e00000;fill-opacity:1"
     d="M 206.08919,300.18165 C 203.1727,299.65705 200.93139,298.27495 199.39661,296.05485 C 197.60648,293.46535 197.41512,290.92175 198.80488,288.19005 C 199.6345,286.55935 202.33349,283.71945 205.2141,281.44635 C 207.01252,280.02715 209.17188,277.97885 210.19231,276.72415 C 211.24178,275.43375 212.31346,273.42425 212.5762,272.25405 C 212.88582,270.87505 213.30863,270.96445 207.05986,271.08815 C 203.293,271.16275 201.52821,271.24945 201.45288,271.36385 C 201.39243,271.45555 201.34194,272.35155 201.34069,273.35475 C 201.3379,275.57035 201.28189,275.64455 199.61333,275.64455 C 197.89862,275.64455 197.98019,275.83825 197.92767,271.64215 C 197.88735,268.42185 197.90833,268.04295 198.13747,267.85275 C 198.34662,267.67915 199.96574,267.61995 207.2075,267.52075 C 213.08562,267.44025 216.08346,267.45025 216.20456,267.55075 C 216.57188,267.85565 216.30132,271.58305 215.76089,273.66305 C 214.87977,277.05425 212.87198,279.59975 207.54192,284.08315 C 202.63306,288.21215 201.29163,290.22515 201.80131,292.69775 C 202.31937,295.21095 204.45897,296.73125 207.48433,296.73605 C 210.00172,296.73995 211.46251,296.09655 212.52079,294.51765 C 213.094,293.66245 213.15658,293.48015 213.15658,292.66505 C 213.15658,292.16785 213.07774,291.49785 212.98137,291.17625 C 212.83773,290.69675 212.84473,290.55285 213.0203,290.37725 C 213.27196,290.12565 215.64481,289.50555 215.85621,289.63615 C 215.93587,289.68545 216.11774,289.94025 216.26033,290.20245 C 216.65323,290.92475 216.61002,293.65305 216.18606,294.89125 C 215.60376,296.59185 214.3725,298.05385 212.70779,299.02125 C 211.18029,299.90885 207.83401,300.49555 206.08919,300.18165 z M 114.27281,285.65105 C 111.65854,281.53225 106.13153,273.63945 104.63584,271.88885 C 104.38237,271.59225 103.70451,270.75075 103.12948,270.01895 C 100.84849,267.11595 95.109342,261.02275 93.691092,259.99825 C 92.696282,259.27965 92.132422,258.77055 92.132422,258.59085 C 92.132422,258.49815 93.226352,257.20865 94.563372,255.72535 C 95.900402,254.24205 97.488102,252.46185 98.091602,251.76935 C 98.695092,251.07685 99.249702,250.54785 99.324062,250.59385 C 99.398422,250.63975 99.426162,250.58975 99.385722,250.48265 C 99.345272,250.37555 100.32608,249.07615 101.5653,247.59515 C 103.53662,245.23915 106.39102,241.48785 107.59836,239.66645 C 107.81652,239.33735 108.30083,238.63055 108.67461,238.09565 C 109.99577,236.20535 111.84239,232.99815 114.01435,228.82175 C 114.3614,228.15435 114.65277,228.27855 115.30804,229.37295 C 115.64345,229.93315 116.22148,230.86265 116.59257,231.43865 C 116.96365,232.01455 117.34942,232.65405 117.44984,232.85975 C 117.65324,233.27645 119.44913,236.04435 120.11908,236.97375 C 120.35632,237.30285 120.93586,238.14435 121.40693,238.84365 C 121.87801,239.54305 123.42228,241.66355 124.83865,243.55595 C 128.18742,248.03025 131.1574,251.35275 135.02942,254.95635 C 135.87278,255.74125 136.56279,256.49715 136.56279,256.63615 C 136.56279,256.77515 136.105,257.38955 135.54547,258.00145 C 134.98595,258.61345 134.32204,259.34975 134.07011,259.63765 C 133.81819,259.92565 133.21571,260.60495 132.73128,261.14715 C 132.24684,261.68945 131.49903,262.56455 131.06947,263.09195 C 130.63992,263.61935 129.6638,264.81505 128.90031,265.74905 C 128.13683,266.68315 127.35051,267.69285 127.15295,267.99305 C 126.95538,268.29315 126.75342,268.57235 126.70415,268.61355 C 126.26819,268.97755 123.07406,273.30105 121.78594,275.27065 C 121.19403,276.17565 120.50683,277.19945 120.25882,277.54565 C 120.01082,277.89185 119.8079,278.22145 119.8079,278.27805 C 119.8079,278.33465 119.40919,279.02755 118.92187,279.81775 C 117.84009,281.57195 117.06681,282.99535 116.0487,285.10665 C 115.62217,285.99115 115.19957,286.71405 115.10959,286.71315 C 115.01961,286.71235 114.64306,286.23435 114.27281,285.65105 z M 207.06947,262.39235 C 204.79379,259.05595 202.22878,255.81225 200.01386,253.46975 C 199.17907,252.58695 198.49605,251.76855 198.49605,251.65115 C 198.49605,251.53375 198.91679,250.93315 199.43103,250.31655 C 201.18314,248.21565 203.20664,245.56935 204.03115,244.30055 C 204.3329,243.83615 206.19528,240.65035 206.41218,240.22745 C 206.72224,239.62295 207.10323,239.82265 207.98216,241.05025 C 211.08472,245.38365 212.61982,247.26685 214.78518,249.39585 C 215.6173,250.21395 216.29812,250.99345 216.29812,251.12795 C 216.29812,251.26255 215.83061,251.95225 215.25923,252.66065 C 213.37249,254.99995 209.7583,260.26245 208.87499,261.95645 C 208.41432,262.83995 208.09587,263.22805 207.83166,263.22805 C 207.72593,263.22805 207.38295,262.85195 207.06947,262.39235 z M 113.92933,89.28017 C 113.79256,89.12907 113.35483,88.47057 112.95659,87.81697 C 111.46919,85.37557 111.19851,84.94057 110.05647,83.15557 C 109.41343,82.15057 108.88731,81.28517 108.88731,81.23237 C 108.88731,81.17967 108.69457,80.89117 108.459,80.59137 C 107.92065,79.90617 106.37909,77.62687 106.11738,77.12907 C 106.00924,76.92337 105.78951,76.61617 105.6291,76.44647 C 105.46869,76.27677 105.25945,75.99217 105.16412,75.81397 C 105.06879,75.63587 104.6726,75.06547 104.2837,74.54637 C 103.8948,74.02727 103.27367,73.17657 102.90342,72.65577 C 101.22621,70.29677 97.384182,65.95397 94.689492,63.37127 C 93.447662,62.18107 92.431612,61.11247 92.431612,60.99667 C 92.431612,60.88097 93.054312,60.09977 93.815392,59.26087 C 97.471362,55.23087 98.221112,54.35527 101.13907,50.70767 C 101.52628,50.22357 102.3341,49.22397 102.93424,48.48617 C 104.71103,46.30177 106.83345,43.46977 108.20186,41.45737 C 110.3305,38.32707 111.67517,36.07047 113.17597,33.11007 C 113.64274,32.18937 114.08318,31.50197 114.20631,31.50197 C 114.3246,31.50197 114.67406,31.91577 114.98288,32.42147 C 116.1396,34.31577 121.07016,41.63667 121.81932,42.57217 C 122.2476,43.10697 122.83225,43.88637 123.11854,44.30427 C 124.24732,45.95177 128.53198,51.24557 129.10255,51.69757 C 129.15448,51.73867 129.44848,52.07527 129.75588,52.44557 C 130.6707,53.54747 134.18491,57.10627 135.06895,57.82607 C 136.22164,58.76467 136.86199,59.36517 136.86199,59.50757 C 136.86199,59.57467 136.37239,60.15047 135.774,60.78727 C 135.17561,61.42397 134.42442,62.24787 134.10469,62.61817 C 133.78496,62.98837 132.97154,63.87517 132.29709,64.58867 C 131.62264,65.30217 130.74331,66.27827 130.34303,66.75777 C 129.94275,67.23727 129.34401,67.93647 129.0125,68.31137 C 128.68098,68.68637 128.00583,69.49187 127.51216,70.10147 C 127.01849,70.71107 126.26863,71.59047 125.8458,72.05577 C 125.0578,72.92277 123.24704,75.31887 121.67257,77.57787 C 121.18514,78.27727 120.66344,78.98397 120.51325,79.14837 C 120.2936,79.38877 118.98149,81.40587 118.23713,82.64747 C 118.15485,82.78467 117.67795,83.56827 117.17734,84.38877 C 116.67674,85.20927 115.87857,86.62107 115.40363,87.52607 C 114.34178,89.54957 114.26057,89.64617 113.92933,89.28017 z M 22.341932,78.36327 C 22.179232,78.05477 21.992742,77.73497 21.927502,77.65267 C 21.862262,77.57037 21.507202,76.99817 21.138482,76.38107 C 19.898012,74.30507 16.370782,69.45737 15.172232,68.18127 C 14.160652,67.10427 14.158682,67.12497 15.405562,65.71717 C 18.221822,62.53737 21.197212,58.40377 22.401162,55.99847 C 22.715352,55.37077 23.079342,55.48437 23.599692,56.37247 C 25.493322,59.60447 28.295222,63.53027 30.110482,65.49477 C 30.850152,66.29527 31.507812,67.04397 31.571952,67.15857 C 31.650392,67.29877 31.408022,67.70447 30.831672,68.39777 C 30.027522,69.36517 28.797722,70.89737 27.726032,72.26717 C 27.281142,72.83587 24.737212,76.47367 23.616892,78.14337 C 23.328912,78.57257 22.990802,78.92377 22.865522,78.92397 C 22.740242,78.92417 22.504632,78.67177 22.341932,78.36327 z M 14.167602,50.85187 C 13.776242,50.74357 13.748222,50.49157 13.890922,48.36357 C 14.035392,46.20927 14.175132,45.46697 14.741702,43.84367 C 15.615952,41.33897 17.511402,38.93327 20.699742,36.28167 C 25.734562,32.09447 27.029732,30.79437 27.845722,29.10837 C 28.248662,28.27587 28.315352,27.97467 28.309482,27.01397 C 28.301002,25.62657 27.951442,24.77387 26.953852,23.70737 C 25.711112,22.37877 24.125872,21.83717 21.896522,21.97967 C 19.739182,22.11747 18.537782,22.70277 17.633992,24.05617 C 16.967492,25.05427 16.734742,26.22177 17.015482,27.15877 C 17.279452,28.03977 17.230712,28.30597 16.772812,28.48407 C 16.104482,28.74397 15.194632,28.95707 14.749552,28.95797 C 14.235572,28.95897 14.083422,28.61007 13.867132,26.93457 C 13.728522,25.86087 13.747472,25.59837 14.042512,24.50497 C 15.072272,20.68867 18.182872,18.54417 22.644512,18.57467 C 24.090882,18.58457 24.449152,18.64247 25.604222,19.05357 C 26.327012,19.31067 27.111562,19.65867 27.347692,19.82687 C 27.583812,19.99497 27.841002,20.13257 27.919222,20.13257 C 28.183922,20.13257 29.835632,21.84717 30.465612,22.77597 C 31.710012,24.61057 32.171662,26.67017 31.748702,28.50017 C 31.510242,29.53187 30.729572,31.24727 30.110302,32.10037 C 29.276312,33.24917 27.028292,35.36417 24.147782,37.71017 C 21.426832,39.92627 20.593412,40.73897 19.231542,42.50437 C 17.888952,44.24477 16.904482,46.76717 17.355642,47.31077 C 17.486532,47.46847 18.625792,47.50887 22.946012,47.50887 C 27.755792,47.50887 28.382302,47.48197 28.462792,47.27217 C 28.512742,47.14207 28.554632,46.25007 28.555892,45.29007 C 28.557152,44.32997 28.615972,43.45327 28.686602,43.34187 C 28.871562,43.04997 31.372392,43.04477 31.562732,43.33587 C 31.785372,43.67637 31.659282,50.44747 31.425972,50.68057 C 31.271812,50.83457 29.492372,50.87957 22.824132,50.89777 C 18.200022,50.91037 14.304582,50.88977 14.167602,50.85187 z"
     id="path7423" />
  <g
     id="g3796"
     transform="translate(1.593878e-6,0)">
    <rect
       ry="11.25"
       rx="11.25"
       y="3.4247196"
       x="3.6058116"
       height="311.81104"
       width="223.22835"
       id="rect2382"
       style="fill:none;fill-opacity:1;fill-rule:nonzero;stroke:#000000;stroke-width:0.03543307;stroke-linejoin:round;stroke-miterlimit:4;stroke-dasharray:none;stroke-opacity:1" />
    <g
       transform="translate(3.5433116,3.3622195)"
       id="g3164">
      <path
         style="fill:none;fill-rule:evenodd;stroke:#000000;stroke-width:0.03221492;stroke-linecap:butt;stroke-linejoin:miter;stroke-miterlimit:4;stroke-dasharray:none;stroke-opacity:1"
         d="M 219.74754,0.062511534 L 226.70838,0.062511534"
         id="path3160"
         sodipodi:nodetypes="cc" />
      <path
         sodipodi:nodetypes="cc"
         id="path3162"
         d="M 223.29036,-3.2997195 L 223.29036,3.6063107"
         style="fill:none;fill-rule:evenodd;stroke:#000000;stroke-width:0.03196126;stroke-linecap:butt;stroke-linejoin:miter;stroke-miterlimit:4;stroke-dasharray:none;stroke-opacity:1" />
    </g>
    <g
       transform="matrix(1.0001093,0,0,1,3.519309,315.17275)"
       id="g3168">
      <path
         sodipodi:nodetypes="cc"
         id="path3170"
         d="M 219.74754,0.062511534 L 226.70838,0.062511534"
         style="fill:none;fill-rule:evenodd;stroke:#000000;stroke-width:0.03221492;stroke-linecap:butt;stroke-linejoin:miter;stroke-miterlimit:4;stroke-dasharray:none;stroke-opacity:1" />
      <path
         style="fill:none;fill-rule:evenodd;stroke:#000000;stroke-width:0.03196126;stroke-linecap:butt;stroke-linejoin:miter;stroke-miterlimit:4;stroke-dasharray:none;stroke-opacity:1"
         d="M 223.29036,-3.2997195 L 223.29036,3.6063107"
         id="path3172"
         sodipodi:nodetypes="cc" />
    </g>
    <g
       id="g3174"
       transform="matrix(1.0001093,0,0,1,-219.70906,315.17275)">
      <path
         style="fill:none;fill-rule:evenodd;stroke:#000000;stroke-width:0.03221492;stroke-linecap:butt;stroke-linejoin:miter;stroke-miterlimit:4;stroke-dasharray:none;stroke-opacity:1"
         d="M 219.74754,0.062511534 L 226.70838,0.062511534"
         id="path3176"
         sodipodi:nodetypes="cc" />
      <path
         sodipodi:nodetypes="cc"
         id="path3178"
         d="M 223.29036,-3.2997195 L 223.29036,3.6063107"
         style="fill:none;fill-rule:evenodd;stroke:#000000;stroke-width:0.03196126;stroke-linecap:butt;stroke-linejoin:miter;stroke-miterlimit:4;stroke-dasharray:none;stroke-opacity:1" />
    </g>
    <g
       transform="translate(-219.68504,3.3622195)"
       id="g3180">
      <path
         sodipodi:nodetypes="cc"
         id="path3182"
         d="M 219.74754,0.062511534 L 226.70838,0.062511534"
         style="fill:none;fill-rule:evenodd;stroke:#000000;stroke-width:0.03221492;stroke-linecap:butt;stroke-linejoin:miter;stroke-miterlimit:4;stroke-dasharray:none;stroke-opacity:1" />
      <path
         style="fill:none;fill-rule:evenodd;stroke:#000000;stroke-width:0.03196126;stroke-linecap:butt;stroke-linejoin:miter;stroke-miterlimit:4;stroke-dasharray:none;stroke-opacity:1"
         d="M 223.29036,-3.2997195 L 223.29036,3.6063107"
         id="path3184"
         sodipodi:nodetypes="cc" />
    </g>
  </g>
</svg>
