<?xml version="1.0" encoding="UTF-8" standalone="no"?>
<!-- Created with Inkscape (http://www.inkscape.org/) -->
<svg
   xmlns:dc="http://purl.org/dc/elements/1.1/"
   xmlns:cc="http://creativecommons.org/ns#"
   xmlns:rdf="http://www.w3.org/1999/02/22-rdf-syntax-ns#"
   xmlns:svg="http://www.w3.org/2000/svg"
   xmlns="http://www.w3.org/2000/svg"
   xmlns:sodipodi="http://sodipodi.sourceforge.net/DTD/sodipodi-0.dtd"
   xmlns:inkscape="http://www.inkscape.org/namespaces/inkscape"
   id="svg8014"
   sodipodi:version="0.32"
   inkscape:version="0.46"
   width="230.31497"
   height="318.84155"
   version="1.0"
   sodipodi:docname="2h.svg"
   inkscape:output_extension="org.inkscape.output.svg.inkscape">
  <metadata
     id="metadata8019">
    <rdf:RDF>
      <cc:Work
         rdf:about="">
        <dc:format>image/svg+xml</dc:format>
        <dc:type
           rdf:resource="http://purl.org/dc/dcmitype/StillImage" />
      </cc:Work>
    </rdf:RDF>
  </metadata>
  <defs
     id="defs8017">
    <inkscape:perspective
       sodipodi:type="inkscape:persp3d"
       inkscape:vp_x="0 : 526.18109 : 1"
       inkscape:vp_y="0 : 1000 : 0"
       inkscape:vp_z="744.09448 : 526.18109 : 1"
       inkscape:persp3d-origin="372.04724 : 350.78739 : 1"
       id="perspective8021" />
  </defs>
  <sodipodi:namedview
     inkscape:window-height="667"
     inkscape:window-width="812"
     inkscape:pageshadow="2"
     inkscape:pageopacity="0.0"
     guidetolerance="10.0"
     gridtolerance="10.0"
     objecttolerance="10.0"
     borderopacity="1.0"
     bordercolor="#666666"
     pagecolor="#ffffff"
     id="base"
     showgrid="false"
     inkscape:zoom="1.4489956"
     inkscape:cx="115.15749"
     inkscape:cy="159.42078"
     inkscape:window-x="149"
     inkscape:window-y="121"
     inkscape:current-layer="svg8014" />
  <path
     style="fill:#e00000;fill-opacity:1"
     d="M 205.57042,300.18456 C 204.48084,299.93966 202.75451,299.28476 202.01112,298.83436 C 199.64311,297.39946 197.82481,294.62076 197.63806,292.15156 C 197.55194,291.01276 197.88563,289.56046 198.52495,288.29136 C 199.51963,286.31686 201.78599,284.05976 206.35231,280.49586 C 209.48568,278.05046 211.5494,275.51216 212.42014,273.03286 C 212.66259,272.34256 212.7245,271.43916 212.53728,271.32346 C 212.47574,271.28546 209.99572,271.23326 207.02614,271.20756 C 203.01527,271.17276 201.58155,271.20606 201.45062,271.33706 C 201.34338,271.44426 201.24016,272.26926 201.18701,273.44396 C 201.13894,274.50586 201.04974,275.42436 200.98876,275.48516 C 200.92777,275.54596 200.2914,275.58716 199.5746,275.57666 C 198.52757,275.56136 198.23438,275.50716 198.08344,275.30066 C 197.94506,275.11146 197.89557,274.13166 197.89557,271.58076 C 197.89557,268.60156 197.92896,268.08436 198.13459,267.87876 C 198.34904,267.66426 199.26358,267.64226 207.02851,267.66466 C 211.78869,267.67836 215.85573,267.73626 216.06637,267.79326 C 216.44616,267.89606 216.44893,267.90796 216.40105,269.22616 C 216.17806,275.36456 214.45332,278.43976 208.55094,283.22266 C 203.21269,287.54846 201.93711,288.94856 201.52871,290.93036 C 201.18015,292.62176 201.69541,294.10386 203.0835,295.40216 C 205.163,297.34736 209.94343,297.30126 211.78613,295.31846 C 212.02725,295.05896 212.3942,294.51646 212.60157,294.11276 C 212.98836,293.35996 213.00972,292.76666 212.71273,291.02396 C 212.63642,290.57626 212.66879,290.46506 212.89537,290.39696 C 214.55924,289.89656 215.39679,289.72966 215.62679,289.85276 C 216.03096,290.06906 216.30108,291.27906 216.29252,292.83486 C 216.28553,294.10496 216.23265,294.37156 215.77863,295.42676 C 215.09387,297.01806 213.6001,298.58616 212.13692,299.24956 C 210.5522,299.96806 209.06903,300.28376 207.35873,300.26656 C 206.53909,300.25836 205.73435,300.22146 205.57042,300.18456 z M 102.20317,286.86846 C 97.031532,286.26426 92.977412,282.47206 91.534372,276.88906 C 91.167662,275.47026 91.129832,275.07396 91.128992,272.64176 C 91.127802,269.18136 91.459872,267.25336 92.579162,264.22176 C 93.403872,261.98806 94.683352,259.33646 95.563342,258.03716 C 96.644992,256.44026 99.663572,251.96836 101.09603,249.84076 C 102.55313,247.67656 102.96005,247.10476 105.35027,243.86196 C 108.20854,239.98426 111.31716,235.08236 113.02512,231.75976 C 113.54487,230.74866 114.00991,230.02026 114.13573,230.02026 C 114.36341,230.02026 114.48231,230.18096 116.28571,232.92626 C 117.422,234.65606 118.24053,235.86076 119.57655,237.76966 C 121.15156,240.02006 123.97558,243.87706 124.48658,244.47586 C 125.91783,246.15276 130.22797,252.30706 132.32402,255.66666 C 134.38857,258.97566 136.66914,264.07876 137.44607,267.12786 C 137.9499,269.10506 138.01534,274.43916 137.55942,276.36746 C 137.00353,278.71856 136.08996,280.74046 135.06135,281.89616 C 134.90823,282.06816 134.57457,282.44526 134.31989,282.73396 C 133.42257,283.75146 132.08299,284.70076 130.46119,285.46836 C 127.20345,287.01036 124.77584,287.11006 121.74316,285.82666 C 120.70372,285.38666 119.10522,284.36046 118.58908,283.80156 C 117.18619,282.28266 115.67618,279.48226 115.04253,277.22436 C 114.58652,275.59936 114.16549,275.58526 113.92967,277.18706 C 113.72537,278.57486 113.49807,279.38276 112.98633,280.54016 C 111.66465,283.52946 109.80283,285.35346 107.05644,286.34966 C 106.14302,286.68096 104.04642,287.05746 103.41683,287.00326 C 103.29174,286.99246 102.74559,286.93176 102.20317,286.86846 z M 200.62488,263.19986 C 198.21898,262.36856 197.00141,260.43126 197.00141,257.43466 C 197.00141,254.41546 197.97939,252.06076 201.45518,246.71126 C 204.11978,242.61016 204.75894,241.56276 205.57477,239.96066 C 206.07809,238.97226 206.34936,238.58826 206.52107,238.62136 C 206.65347,238.64686 207.36896,239.70626 208.11106,240.97566 C 208.85315,242.24506 210.25309,244.52426 211.22203,246.04056 C 213.18357,249.11036 213.28408,249.28166 214.54319,251.70356 C 216.44081,255.35366 216.85734,258.31056 215.78916,260.54876 C 214.83693,262.54396 213.29311,263.48276 210.98115,263.47246 C 210.20829,263.46906 209.88506,263.38296 209.16274,262.98816 C 208.06928,262.39046 207.46201,261.57086 207.12719,260.24076 C 206.98894,259.69166 206.81124,259.22076 206.7323,259.19446 C 206.65335,259.16816 206.50478,259.43346 206.40216,259.78416 C 206.29954,260.13476 206.08718,260.64346 205.93026,260.91446 C 205.77333,261.18556 205.64493,261.47386 205.64493,261.55526 C 205.64493,261.86136 204.62842,262.73296 203.84762,263.09646 C 202.8674,263.55266 201.74971,263.58856 200.62488,263.19986 z M 113.18562,87.17885 C 112.48261,86.12345 111.90742,85.20915 111.90742,85.14695 C 111.90742,85.08485 111.75007,84.86275 111.55774,84.65335 C 111.36542,84.44395 110.61631,83.40075 109.89306,82.33525 C 109.16981,81.26975 108.34009,80.06255 108.04923,79.65275 C 107.75838,79.24295 107.0489,78.22585 106.4726,77.39265 C 105.8963,76.55935 104.91879,75.21815 104.30037,74.41215 C 99.621392,68.31375 96.007762,62.68455 94.414602,59.01265 C 94.183452,58.47985 93.801562,57.66435 93.565952,57.20035 C 92.657362,55.41095 92.018682,53.53865 91.362862,50.74165 C 91.044962,49.38585 91.022592,44.38895 91.327502,42.84325 C 91.834712,40.27205 92.682302,38.42285 94.143532,36.69935 C 95.885922,34.64415 97.395232,33.63395 100.26244,32.60375 C 101.59022,32.12665 104.0742,32.06505 105.55891,32.47235 C 107.10539,32.89665 108.90133,33.83865 109.89465,34.74645 C 111.65995,36.35985 113.19227,39.18115 113.99381,42.29375 C 114.13184,42.82975 114.21311,42.92865 114.48352,42.88985 C 114.75741,42.85055 114.83361,42.69295 114.97444,41.87465 C 115.38674,39.47895 116.08315,37.74685 117.29193,36.11065 C 118.59441,34.34755 120.10419,33.23985 122.1815,32.52315 C 123.1779,32.17945 123.54018,32.13455 125.31979,32.13385 C 127.50055,32.13305 128.52397,32.32475 130.15326,33.03935 C 131.9293,33.81825 133.7315,35.27985 135.12387,37.07065 C 136.50842,38.85135 137.54098,41.82975 137.80755,44.81165 C 137.95513,46.46245 137.9448,46.69645 137.60164,49.47495 C 137.31864,51.76645 137.27945,51.92865 136.44323,54.26955 C 135.47339,56.98455 133.92991,60.05795 132.63929,61.84415 C 132.25432,62.37695 131.13733,63.99935 130.15709,65.44965 C 126.82474,70.37975 126.28233,71.15715 123.79485,74.56825 C 122.65945,76.12515 119.83374,80.28755 119.12911,81.44105 C 118.72855,82.09685 118.35612,82.66685 118.30146,82.70785 C 118.0933,82.86395 116.03889,86.41645 115.44006,87.65585 C 115.09542,88.36915 114.73477,88.98545 114.63862,89.02525 C 114.53939,89.06645 113.91119,88.26815 113.18562,87.17885 z M 23.481452,80.13715 C 23.366342,79.95265 22.691162,78.72885 21.981052,77.41735 C 20.451592,74.59275 20.695192,75.02925 18.957432,71.99955 C 18.188552,70.65905 17.253712,68.91545 16.880022,68.12485 C 16.506322,67.33435 16.005522,66.27335 15.767132,65.76705 C 15.018812,64.17805 14.702472,62.59335 14.774122,60.79265 C 14.840922,59.11395 15.009232,58.59345 15.939602,57.18885 C 16.721002,56.00915 18.246142,55.28695 19.956012,55.28695 C 21.887402,55.28695 23.380812,56.75815 23.662202,58.93815 C 23.740602,59.54545 23.812292,59.68325 24.049772,59.68325 C 24.268592,59.68325 24.371292,59.53815 24.462182,59.10075 C 24.602472,58.42555 25.390822,56.97375 25.828692,56.58425 C 27.274472,55.29815 29.210192,55.17685 30.986172,56.26105 C 32.455972,57.15835 33.267292,58.76325 33.431902,61.09905 C 33.625382,63.84455 32.886732,65.90405 30.064552,70.48765 C 28.424922,73.15065 28.729512,72.67285 27.394762,74.67525 C 26.247862,76.39585 24.874972,78.68215 24.293952,79.83905 C 23.932862,80.55805 23.779362,80.61435 23.481452,80.13715 z M 14.257972,51.00385 C 14.037362,50.95265 13.997362,50.76705 13.998392,49.79935 C 14.002332,46.11565 14.736762,43.48155 16.484332,40.88325 C 17.509802,39.35855 19.701142,37.15835 22.073622,35.27135 C 22.458422,34.96535 22.967252,34.53195 23.204362,34.30825 C 23.441462,34.08465 24.167742,33.43225 24.818302,32.85855 C 26.430712,31.43655 27.331632,30.37125 27.899632,29.21515 C 28.980812,27.01445 28.252222,24.47045 26.112032,22.97345 C 25.849212,22.78955 25.079802,22.49895 24.402232,22.32765 C 21.596862,21.61825 18.874772,22.45425 17.658392,24.39885 C 17.042072,25.38415 16.898962,26.29015 17.177092,27.44585 C 17.289122,27.91145 17.332362,28.37065 17.273182,28.46645 C 17.163082,28.64455 15.330612,29.20735 14.860732,29.20735 C 14.438402,29.20735 14.157902,28.59665 13.982852,27.29585 C 13.844242,26.26595 13.858352,25.89745 14.073432,24.93075 C 14.213562,24.30095 14.383642,23.68105 14.451392,23.55325 C 14.519142,23.42545 14.729672,22.98955 14.919242,22.58465 C 15.332442,21.70205 16.792562,20.22505 17.723892,19.74765 C 18.093322,19.55825 18.998652,19.21785 19.735752,18.99115 C 20.847302,18.64935 21.355572,18.57825 22.715212,18.57455 C 24.174952,18.57055 24.493242,18.61995 25.621222,19.02595 C 28.093432,19.91595 29.561432,21.09265 30.836272,23.20635 C 32.558842,26.06245 32.399412,29.09225 30.376632,31.94105 C 29.695282,32.90065 27.129002,35.47855 25.759232,36.57945 C 24.350872,37.71135 21.790632,39.88285 21.281272,40.37745 C 20.905152,40.74265 20.418632,41.30935 19.410722,42.55625 C 18.795102,43.31775 18.088292,44.67155 17.719092,45.79615 C 17.363272,46.88005 17.347412,47.32705 17.660502,47.44715 C 17.790152,47.49695 20.258032,47.53765 23.144672,47.53765 C 27.028092,47.53765 28.439622,47.49115 28.571942,47.35875 C 28.690972,47.23975 28.751532,46.57935 28.753052,45.38415 C 28.754312,44.39655 28.815872,43.49275 28.889852,43.37585 C 28.987432,43.22165 29.358472,43.16055 30.241422,43.15315 C 31.983692,43.13865 31.912462,42.96005 31.853752,47.19505 C 31.825362,49.24205 31.745022,50.70965 31.656782,50.79245 C 31.512342,50.92815 14.805992,51.13115 14.257972,51.00385 z"
     id="path8025" />
  <g
     id="g3796"
     transform="translate(1.5938779e-6,0)">
    <rect
       ry="11.25"
       rx="11.25"
       y="3.4247196"
       x="3.6058116"
       height="311.81104"
       width="223.22835"
       id="rect2382"
       style="fill:none;fill-opacity:1;fill-rule:nonzero;stroke:#000000;stroke-width:0.03543307;stroke-linejoin:round;stroke-miterlimit:4;stroke-dasharray:none;stroke-opacity:1" />
    <g
       transform="translate(3.5433116,3.3622195)"
       id="g3164">
      <path
         style="fill:none;fill-rule:evenodd;stroke:#000000;stroke-width:0.03221492;stroke-linecap:butt;stroke-linejoin:miter;stroke-miterlimit:4;stroke-dasharray:none;stroke-opacity:1"
         d="M 219.74754,0.062511534 L 226.70838,0.062511534"
         id="path3160"
         sodipodi:nodetypes="cc" />
      <path
         sodipodi:nodetypes="cc"
         id="path3162"
         d="M 223.29036,-3.2997195 L 223.29036,3.6063107"
         style="fill:none;fill-rule:evenodd;stroke:#000000;stroke-width:0.03196126;stroke-linecap:butt;stroke-linejoin:miter;stroke-miterlimit:4;stroke-dasharray:none;stroke-opacity:1" />
    </g>
    <g
       transform="matrix(1.0001093,0,0,1,3.519309,315.17275)"
       id="g3168">
      <path
         sodipodi:nodetypes="cc"
         id="path3170"
         d="M 219.74754,0.062511534 L 226.70838,0.062511534"
         style="fill:none;fill-rule:evenodd;stroke:#000000;stroke-width:0.03221492;stroke-linecap:butt;stroke-linejoin:miter;stroke-miterlimit:4;stroke-dasharray:none;stroke-opacity:1" />
      <path
         style="fill:none;fill-rule:evenodd;stroke:#000000;stroke-width:0.03196126;stroke-linecap:butt;stroke-linejoin:miter;stroke-miterlimit:4;stroke-dasharray:none;stroke-opacity:1"
         d="M 223.29036,-3.2997195 L 223.29036,3.6063107"
         id="path3172"
         sodipodi:nodetypes="cc" />
    </g>
    <g
       id="g3174"
       transform="matrix(1.0001093,0,0,1,-219.70906,315.17275)">
      <path
         style="fill:none;fill-rule:evenodd;stroke:#000000;stroke-width:0.03221492;stroke-linecap:butt;stroke-linejoin:miter;stroke-miterlimit:4;stroke-dasharray:none;stroke-opacity:1"
         d="M 219.74754,0.062511534 L 226.70838,0.062511534"
         id="path3176"
         sodipodi:nodetypes="cc" />
      <path
         sodipodi:nodetypes="cc"
         id="path3178"
         d="M 223.29036,-3.2997195 L 223.29036,3.6063107"
         style="fill:none;fill-rule:evenodd;stroke:#000000;stroke-width:0.03196126;stroke-linecap:butt;stroke-linejoin:miter;stroke-miterlimit:4;stroke-dasharray:none;stroke-opacity:1" />
    </g>
    <g
       transform="translate(-219.68504,3.3622195)"
       id="g3180">
      <path
         sodipodi:nodetypes="cc"
         id="path3182"
         d="M 219.74754,0.062511534 L 226.70838,0.062511534"
         style="fill:none;fill-rule:evenodd;stroke:#000000;stroke-width:0.03221492;stroke-linecap:butt;stroke-linejoin:miter;stroke-miterlimit:4;stroke-dasharray:none;stroke-opacity:1" />
      <path
         style="fill:none;fill-rule:evenodd;stroke:#000000;stroke-width:0.03196126;stroke-linecap:butt;stroke-linejoin:miter;stroke-miterlimit:4;stroke-dasharray:none;stroke-opacity:1"
         d="M 223.29036,-3.2997195 L 223.29036,3.6063107"
         id="path3184"
         sodipodi:nodetypes="cc" />
    </g>
  </g>
</svg>
