<?xml version="1.0" encoding="UTF-8" standalone="no"?>
<!-- Created with Inkscape (http://www.inkscape.org/) -->
<svg
   xmlns:dc="http://purl.org/dc/elements/1.1/"
   xmlns:cc="http://creativecommons.org/ns#"
   xmlns:rdf="http://www.w3.org/1999/02/22-rdf-syntax-ns#"
   xmlns:svg="http://www.w3.org/2000/svg"
   xmlns="http://www.w3.org/2000/svg"
   xmlns:sodipodi="http://sodipodi.sourceforge.net/DTD/sodipodi-0.dtd"
   xmlns:inkscape="http://www.inkscape.org/namespaces/inkscape"
   id="svg5459"
   sodipodi:version="0.32"
   inkscape:version="0.46"
   width="230.31497"
   height="318.84155"
   version="1.0"
   sodipodi:docname="2s.svg"
   inkscape:output_extension="org.inkscape.output.svg.inkscape">
  <metadata
     id="metadata5464">
    <rdf:RDF>
      <cc:Work
         rdf:about="">
        <dc:format>image/svg+xml</dc:format>
        <dc:type
           rdf:resource="http://purl.org/dc/dcmitype/StillImage" />
      </cc:Work>
    </rdf:RDF>
  </metadata>
  <defs
     id="defs5462">
    <inkscape:perspective
       sodipodi:type="inkscape:persp3d"
       inkscape:vp_x="0 : 526.18109 : 1"
       inkscape:vp_y="0 : 1000 : 0"
       inkscape:vp_z="744.09448 : 526.18109 : 1"
       inkscape:persp3d-origin="372.04724 : 350.78739 : 1"
       id="perspective5466" />
  </defs>
  <sodipodi:namedview
     inkscape:window-height="667"
     inkscape:window-width="812"
     inkscape:pageshadow="2"
     inkscape:pageopacity="0.0"
     guidetolerance="10.0"
     gridtolerance="10.0"
     objecttolerance="10.0"
     borderopacity="1.0"
     bordercolor="#666666"
     pagecolor="#ffffff"
     id="base"
     showgrid="false"
     inkscape:zoom="1.4489956"
     inkscape:cx="115.15749"
     inkscape:cy="159.42078"
     inkscape:window-x="176"
     inkscape:window-y="232"
     inkscape:current-layer="svg5459" />
  <path
     style="fill:#000000"
     d="M 204.31626,300.05552 C 200.76196,299.26382 198.14717,297.03712 197.00994,293.83372 C 195.99558,290.97642 197.06936,288.03172 200.27857,284.87002 C 201.11739,284.04362 202.46436,282.83082 203.27186,282.17502 C 206.40818,279.62782 207.87748,278.28542 208.9613,276.97692 C 210.61091,274.98542 211.85863,272.21722 211.41397,271.53532 C 211.30418,271.36692 210.27795,271.32342 205.81545,271.29832 C 200.71751,271.26952 200.34188,271.28522 200.20983,271.53192 C 200.132,271.67732 200.06831,272.56732 200.06831,273.50962 C 200.06831,275.59972 200.00934,275.69222 198.67894,275.68922 C 197.54143,275.68672 197.13665,275.58432 197.0089,275.26672 C 196.85276,274.87852 196.9346,268.37502 197.09951,268.06682 C 197.24024,267.80392 197.64642,267.79162 206.18465,267.79162 L 215.12246,267.79162 L 215.13843,268.12692 C 215.24033,270.26842 214.81579,273.39902 214.21066,274.96812 C 213.09228,277.86822 211.30589,280.02572 207.12723,283.52332 C 203.94344,286.18812 204.39189,285.79362 202.90909,287.23402 C 201.62543,288.48102 200.81683,289.71822 200.49394,290.92942 C 200.34513,291.48762 200.34332,291.81672 200.48526,292.50402 C 200.80686,294.06092 201.48833,295.09052 202.70632,295.85932 C 204.34074,296.89112 207.50812,297.05092 209.39393,296.19672 C 211.33678,295.31672 212.34982,293.13612 211.67837,291.27922 C 211.48939,290.75662 211.49702,290.69782 211.78387,290.46552 C 211.95394,290.32782 212.61733,290.09152 213.25809,289.94052 L 214.42312,289.66582 L 214.68482,290.01282 C 215.02785,290.46762 215.33565,292.47842 215.2013,293.38682 C 214.92865,295.23032 213.77302,297.27892 212.38842,298.37342 C 211.33681,299.20472 210.79383,299.45042 209.02659,299.89492 C 207.2908,300.33152 205.78538,300.38282 204.31626,300.05552 z M 113.81857,286.01312 C 111.91827,282.94832 111.00346,281.54722 110.33935,280.68452 C 109.68943,279.84022 108.53829,278.21192 107.61564,276.83172 C 107.0901,276.04562 104.97919,273.26102 104.00491,272.06872 C 103.09116,270.95052 102.33821,269.98452 101.1821,268.44702 C 100.69527,267.79962 100.04741,267.00162 99.742422,266.67372 C 98.954652,265.82672 96.176752,261.80532 94.800242,259.51922 C 92.375462,255.49212 91.311622,253.01532 90.978732,250.62192 C 90.644712,248.22042 90.608032,246.30002 90.873402,245.10722 C 91.528602,242.16222 92.609602,240.14032 94.657022,238.03042 C 95.657442,236.99942 96.020462,236.74112 97.446662,236.04562 L 99.086222,235.24602 L 101.0529,235.18072 C 104.19959,235.07612 105.39364,235.56652 107.6037,237.87082 C 109.35841,239.70032 110.36683,241.83142 111.16496,245.39682 C 111.37155,246.31972 111.45956,246.49082 111.76721,246.56802 C 112.46061,246.74212 112.57556,246.57562 112.57267,245.40132 C 112.5712,244.80442 112.46807,243.67882 112.34349,242.90002 C 112.21891,242.12122 112.05821,241.11522 111.98637,240.66432 C 111.54258,237.87872 109.98451,233.53862 107.74428,228.84772 C 107.36144,228.04602 107.08845,227.32502 107.13765,227.24542 C 107.26801,227.03442 120.9222,227.04952 120.9222,227.26062 C 120.9222,227.34852 120.54412,228.20372 120.08201,229.16102 C 119.61991,230.11822 119.07761,231.33742 118.87689,231.87032 C 118.67617,232.40312 118.45787,232.90622 118.39177,232.98812 C 118.32567,233.07012 118.19064,233.53182 118.0917,234.01412 C 117.99276,234.49642 117.74773,235.45692 117.54719,236.14872 C 116.98014,238.10462 116.44794,241.56762 116.34907,243.94482 C 116.24951,246.33852 116.31584,246.54652 117.14818,246.45082 L 117.5656,246.40272 L 117.74027,244.72132 C 118.05785,241.66412 118.7958,240.03012 120.74826,238.06102 C 122.58911,236.20452 124.42661,235.44752 127.09235,235.44752 C 130.33191,235.44752 132.69103,236.61722 134.83395,239.28582 C 136.01305,240.75422 136.53857,241.79092 136.95105,243.46212 C 137.87537,247.20712 137.68879,250.60542 136.36112,254.20722 C 134.93237,258.08322 132.92758,261.41922 128.78495,266.81412 C 128.19044,267.58842 127.46927,268.54252 127.18235,268.93442 C 126.89542,269.32632 126.12201,270.31942 125.46364,271.14132 C 124.40367,272.46462 123.07901,274.23862 120.56359,277.70352 C 120.14699,278.27732 119.48417,279.14932 119.09065,279.64112 C 118.41762,280.48242 117.504,281.76712 116.04373,283.92582 C 114.89971,285.61702 114.29999,286.42292 114.18558,286.42292 C 114.12351,286.42292 113.95836,286.23852 113.81857,286.01312 z M 205.07237,262.16442 C 204.01794,260.29262 202.78935,258.29472 202.16245,257.43252 C 200.54946,255.21402 198.53472,251.53512 197.87697,249.60732 C 197.40962,248.23762 197.35556,246.49652 197.74407,245.32692 C 198.84321,242.01762 202.7159,241.09562 204.10226,243.81312 C 204.41055,244.41742 204.80864,244.56152 205.12314,244.18252 C 205.62116,243.58242 204.48818,240.37612 203.2041,238.75162 C 202.87305,238.33282 202.60218,237.92112 202.60218,237.83672 C 202.60218,237.67022 208.37383,237.61632 208.97411,237.77722 C 209.44032,237.90212 209.3996,238.05782 208.69279,238.85282 C 207.53384,240.15632 206.32817,243.39802 206.67051,244.29012 C 206.86119,244.78702 207.35756,244.56762 207.87654,243.75712 C 208.56648,242.67952 209.27303,242.30292 210.59671,242.30712 C 212.15812,242.31212 213.45263,243.04652 214.13023,244.31192 C 214.40762,244.82982 214.4508,245.14752 214.44492,246.62632 C 214.43362,249.47042 213.69643,251.25182 210.66494,255.76042 C 208.919,258.35702 207.83844,260.12952 206.89786,261.93972 C 206.46172,262.77902 206.0378,263.46632 205.95582,263.46702 C 205.87385,263.46762 205.4763,262.88142 205.07237,262.16442 z M 109.85516,91.64656 C 108.52651,91.62166 107.65666,91.54676 107.65666,91.45726 C 107.65666,91.37586 107.96786,90.69016 108.34822,89.93346 C 108.72859,89.17686 109.33137,87.86246 109.68775,87.01256 C 111.46372,82.77746 112.92349,73.66396 112.00715,72.53236 C 111.81536,72.29546 111.64718,72.22736 111.42704,72.29716 C 111.05551,72.41506 110.94112,72.78296 110.93605,73.87626 C 110.93397,74.32706 110.76595,75.36426 110.56268,76.18096 C 110.08929,78.08306 109.18948,79.61106 107.70136,81.03986 C 105.40035,83.24916 102.5678,83.94656 99.086222,83.16116 C 97.670652,82.84176 96.537122,82.24716 95.386382,81.22036 C 92.541812,78.68206 91.432212,76.18116 91.179062,71.73766 C 91.051892,69.50546 91.251522,67.81696 91.886612,65.75296 C 93.430952,60.73386 95.828932,56.82536 102.70523,48.11926 C 103.50203,47.11046 104.50786,45.83606 104.94042,45.28736 C 105.37297,44.73856 106.24492,43.59436 106.87808,42.74466 C 107.51124,41.89496 108.43172,40.69426 108.92359,40.07636 C 109.41546,39.45856 110.11614,38.54396 110.48066,38.04406 C 110.84518,37.54416 111.51591,36.62466 111.97117,36.00076 C 112.42643,35.37676 113.16502,34.35396 113.61248,33.72766 C 114.05994,33.10146 114.47252,32.58906 114.52933,32.58906 C 114.58613,32.58906 114.76464,32.80706 114.92602,33.07346 C 116.27822,35.30596 117.8929,37.80126 118.19492,38.12506 C 118.39687,38.34156 118.77453,38.82286 119.03416,39.19456 C 120.57699,41.40336 121.9563,43.23816 123.74464,45.46056 C 124.85659,46.84236 125.90051,48.15296 126.06446,48.37296 C 126.22842,48.59296 127.16744,49.76606 128.15118,50.97996 C 131.26819,54.82606 133.92767,58.87606 135.82218,62.66186 C 137.34905,65.71296 137.67171,66.86156 137.93327,70.17716 C 138.11484,72.47876 137.96397,73.62586 137.17701,75.92736 C 136.65445,77.45556 136.06005,78.45206 134.66491,80.13856 C 133.03557,82.10816 130.67774,83.45096 128.3904,83.71176 C 125.78802,84.00866 123.58518,83.41526 121.96415,81.98086 C 120.29459,80.50356 119.49093,79.43546 118.70981,77.65576 C 118.25891,76.62836 118.13971,76.24416 117.44488,73.57816 C 117.12567,72.35336 117.09932,72.30966 116.65266,72.26586 C 116.34306,72.23556 116.16157,72.29636 116.10257,72.45006 C 115.85534,73.09436 116.54597,78.47486 117.14656,80.58356 C 117.97332,83.48626 118.69266,85.29766 121.15853,90.68636 C 121.42362,91.26566 121.46949,91.49126 121.33225,91.54076 C 121.09802,91.62526 112.79877,91.70176 109.85516,91.64656 z M 21.169792,80.77886 C 21.026322,80.74136 20.908952,80.67716 20.908952,80.63626 C 20.908952,80.59526 21.267092,80.10406 21.704832,79.54456 C 22.319682,78.75876 22.609542,78.19916 22.979152,77.08456 C 23.551742,75.35776 23.585402,74.13086 23.062252,74.05596 C 22.836762,74.02376 22.631822,74.20416 22.283552,74.74166 C 21.566432,75.84836 20.842392,76.26106 19.617742,76.26106 C 18.367082,76.26106 17.561092,75.89666 16.734302,74.95736 C 15.905712,74.01596 15.625762,73.00376 15.762012,71.44176 C 15.918252,69.65076 16.484942,67.90646 17.513382,66.05106 C 18.363132,64.51796 18.879732,63.68616 20.845692,60.68516 C 21.275322,60.02936 22.074232,58.65436 22.621032,57.62966 C 24.039112,54.97216 24.010982,55.02126 24.114662,55.02126 C 24.166592,55.02126 24.714252,55.92676 25.331672,57.03346 C 25.949092,58.14016 26.972282,59.81696 27.605412,60.75976 C 29.716922,63.90376 31.682182,67.51046 32.148062,69.09636 C 32.291702,69.58536 32.385882,70.46226 32.385882,71.31086 C 32.385882,72.57106 32.338812,72.81436 31.928702,73.67366 C 31.174592,75.25376 30.098642,76.08796 28.632112,76.22966 C 27.628162,76.32666 26.782712,75.88066 26.157142,74.92406 C 25.798102,74.37496 25.572952,74.17436 25.316042,74.17436 C 24.841302,74.17436 24.778342,74.41996 24.946762,75.61506 C 25.122612,76.86296 25.961662,78.72306 26.833732,79.79826 C 27.182132,80.22786 27.467192,80.64736 27.467192,80.73046 C 27.467192,80.88046 21.727302,80.92456 21.169792,80.77886 z M 20.163692,50.62426 C 17.581382,50.58326 15.384742,50.49546 15.282272,50.42916 C 14.843662,50.14526 15.169292,46.42996 15.816412,44.33476 C 16.658292,41.60906 18.517032,39.17166 21.803252,36.48406 C 26.047322,33.01306 27.846052,31.41016 28.585962,30.43976 C 28.778512,30.18726 29.142142,29.56526 29.394032,29.05746 C 30.297152,27.23696 29.908362,25.15946 28.378192,23.62936 C 27.368272,22.61936 26.283422,22.16406 24.605152,22.04576 C 21.870372,21.85296 19.800062,22.86716 18.929712,24.82606 C 18.651592,25.45206 18.627682,26.39686 18.852082,27.89396 C 18.912522,28.29726 18.125822,28.66596 16.922252,28.79866 L 15.991102,28.90126 L 15.743542,28.32306 C 15.373672,27.45926 15.305222,25.51846 15.607902,24.47726 C 16.251532,22.26326 17.734892,20.37996 19.473532,19.56936 C 22.158872,18.31736 25.317832,18.24286 27.988872,19.36846 C 31.269672,20.75096 33.753162,24.37896 33.518802,27.44686 C 33.385572,29.19076 32.834652,30.52976 31.556322,32.21646 C 30.434682,33.69636 29.020962,34.98136 25.290992,37.91086 C 24.643392,38.41946 23.944082,38.98956 23.736962,39.17776 C 23.529842,39.36596 23.026792,39.81816 22.619082,40.18256 C 20.659272,41.93446 18.722382,44.94236 18.634832,46.36986 C 18.577542,47.30406 18.633732,47.31356 24.512432,47.36856 C 27.355112,47.39506 29.718322,47.37946 29.764002,47.33376 C 29.809692,47.28806 29.889802,46.38326 29.942042,45.32296 C 29.994272,44.26276 30.099422,43.32816 30.175702,43.24626 C 30.370662,43.03666 32.636102,43.06416 32.850602,43.27866 C 32.972022,43.40016 33.016662,44.29296 32.999452,46.25566 C 32.972422,49.33846 32.874352,50.49166 32.624752,50.66166 C 32.459942,50.77386 28.920382,50.76326 20.163692,50.62426 z"
     id="path5470" />
  <g
     id="g3796"
     transform="translate(1.593878e-6,0)">
    <rect
       ry="11.25"
       rx="11.25"
       y="3.4247196"
       x="3.6058116"
       height="311.81104"
       width="223.22835"
       id="rect2382"
       style="fill:none;fill-opacity:1;fill-rule:nonzero;stroke:#000000;stroke-width:0.03543307;stroke-linejoin:round;stroke-miterlimit:4;stroke-dasharray:none;stroke-opacity:1" />
    <g
       transform="translate(3.5433116,3.3622195)"
       id="g3164">
      <path
         style="fill:none;fill-rule:evenodd;stroke:#000000;stroke-width:0.03221492;stroke-linecap:butt;stroke-linejoin:miter;stroke-miterlimit:4;stroke-dasharray:none;stroke-opacity:1"
         d="M 219.74754,0.062511534 L 226.70838,0.062511534"
         id="path3160"
         sodipodi:nodetypes="cc" />
      <path
         sodipodi:nodetypes="cc"
         id="path3162"
         d="M 223.29036,-3.2997195 L 223.29036,3.6063107"
         style="fill:none;fill-rule:evenodd;stroke:#000000;stroke-width:0.03196126;stroke-linecap:butt;stroke-linejoin:miter;stroke-miterlimit:4;stroke-dasharray:none;stroke-opacity:1" />
    </g>
    <g
       transform="matrix(1.0001093,0,0,1,3.519309,315.17275)"
       id="g3168">
      <path
         sodipodi:nodetypes="cc"
         id="path3170"
         d="M 219.74754,0.062511534 L 226.70838,0.062511534"
         style="fill:none;fill-rule:evenodd;stroke:#000000;stroke-width:0.03221492;stroke-linecap:butt;stroke-linejoin:miter;stroke-miterlimit:4;stroke-dasharray:none;stroke-opacity:1" />
      <path
         style="fill:none;fill-rule:evenodd;stroke:#000000;stroke-width:0.03196126;stroke-linecap:butt;stroke-linejoin:miter;stroke-miterlimit:4;stroke-dasharray:none;stroke-opacity:1"
         d="M 223.29036,-3.2997195 L 223.29036,3.6063107"
         id="path3172"
         sodipodi:nodetypes="cc" />
    </g>
    <g
       id="g3174"
       transform="matrix(1.0001093,0,0,1,-219.70906,315.17275)">
      <path
         style="fill:none;fill-rule:evenodd;stroke:#000000;stroke-width:0.03221492;stroke-linecap:butt;stroke-linejoin:miter;stroke-miterlimit:4;stroke-dasharray:none;stroke-opacity:1"
         d="M 219.74754,0.062511534 L 226.70838,0.062511534"
         id="path3176"
         sodipodi:nodetypes="cc" />
      <path
         sodipodi:nodetypes="cc"
         id="path3178"
         d="M 223.29036,-3.2997195 L 223.29036,3.6063107"
         style="fill:none;fill-rule:evenodd;stroke:#000000;stroke-width:0.03196126;stroke-linecap:butt;stroke-linejoin:miter;stroke-miterlimit:4;stroke-dasharray:none;stroke-opacity:1" />
    </g>
    <g
       transform="translate(-219.68504,3.3622195)"
       id="g3180">
      <path
         sodipodi:nodetypes="cc"
         id="path3182"
         d="M 219.74754,0.062511534 L 226.70838,0.062511534"
         style="fill:none;fill-rule:evenodd;stroke:#000000;stroke-width:0.03221492;stroke-linecap:butt;stroke-linejoin:miter;stroke-miterlimit:4;stroke-dasharray:none;stroke-opacity:1" />
      <path
         style="fill:none;fill-rule:evenodd;stroke:#000000;stroke-width:0.03196126;stroke-linecap:butt;stroke-linejoin:miter;stroke-miterlimit:4;stroke-dasharray:none;stroke-opacity:1"
         d="M 223.29036,-3.2997195 L 223.29036,3.6063107"
         id="path3184"
         sodipodi:nodetypes="cc" />
    </g>
  </g>
</svg>
