<?xml version="1.0" encoding="UTF-8" standalone="no"?>
<!-- Created with Inkscape (http://www.inkscape.org/) -->
<svg
   xmlns:dc="http://purl.org/dc/elements/1.1/"
   xmlns:cc="http://creativecommons.org/ns#"
   xmlns:rdf="http://www.w3.org/1999/02/22-rdf-syntax-ns#"
   xmlns:svg="http://www.w3.org/2000/svg"
   xmlns="http://www.w3.org/2000/svg"
   xmlns:sodipodi="http://sodipodi.sourceforge.net/DTD/sodipodi-0.dtd"
   xmlns:inkscape="http://www.inkscape.org/namespaces/inkscape"
   id="svg5552"
   sodipodi:version="0.32"
   inkscape:version="0.46"
   width="230.31497"
   height="318.84155"
   version="1.0"
   sodipodi:docname="3c.svg"
   inkscape:output_extension="org.inkscape.output.svg.inkscape">
  <metadata
     id="metadata5557">
    <rdf:RDF>
      <cc:Work
         rdf:about="">
        <dc:format>image/svg+xml</dc:format>
        <dc:type
           rdf:resource="http://purl.org/dc/dcmitype/StillImage" />
      </cc:Work>
    </rdf:RDF>
  </metadata>
  <defs
     id="defs5555">
    <inkscape:perspective
       sodipodi:type="inkscape:persp3d"
       inkscape:vp_x="0 : 526.18109 : 1"
       inkscape:vp_y="0 : 1000 : 0"
       inkscape:vp_z="744.09448 : 526.18109 : 1"
       inkscape:persp3d-origin="372.04724 : 350.78739 : 1"
       id="perspective5559" />
  </defs>
  <sodipodi:namedview
     inkscape:window-height="667"
     inkscape:window-width="875"
     inkscape:pageshadow="2"
     inkscape:pageopacity="0.0"
     guidetolerance="10.0"
     gridtolerance="10.0"
     objecttolerance="10.0"
     borderopacity="1.0"
     bordercolor="#666666"
     pagecolor="#ffffff"
     id="base"
     showgrid="false"
     inkscape:zoom="1.4489956"
     inkscape:cx="115.15749"
     inkscape:cy="159.42078"
     inkscape:window-x="66"
     inkscape:window-y="87"
     inkscape:current-layer="svg5552" />
  <path
     style="fill:#000000"
     d="M 24.916452,18.62124 C 29.450592,18.66634 33.243892,18.75724 33.346012,18.82334 C 33.469132,18.90304 33.531682,19.34504 33.531682,20.13534 L 33.531682,21.32704 L 31.266472,23.77774 C 26.941292,28.45714 26.705422,28.77884 27.478742,28.94364 C 27.662552,28.98284 28.188592,29.08734 28.647692,29.17584 C 30.209742,29.47694 32.328982,30.72094 33.547292,32.05194 C 34.263072,32.83394 35.266892,35.05644 35.525992,36.43284 C 35.905472,38.44874 35.732042,41.29114 35.096492,43.47164 C 34.770852,44.58894 33.351732,46.73214 32.317752,47.66824 C 30.495432,49.31804 27.846822,50.50894 25.662242,50.66074 C 24.208482,50.76174 22.240072,50.55174 21.054452,50.16904 C 19.849472,49.78014 17.495912,47.94124 16.427472,46.55404 C 15.393932,45.21204 14.615112,43.74364 14.750192,43.39164 C 14.885482,43.03914 16.567412,41.80094 16.911062,41.80094 C 17.100292,41.80094 17.423592,42.15854 17.884522,42.87784 C 19.627692,45.59804 21.233662,46.78774 23.663022,47.15854 C 27.070812,47.67874 30.149402,46.03664 31.620052,42.91434 C 32.142472,41.80524 32.343372,40.77494 32.343372,39.20504 C 32.343372,37.78294 31.921862,35.95734 31.380072,35.03284 C 30.676522,33.83224 28.980762,32.66214 27.424562,32.30334 C 25.658582,31.89624 24.001032,32.21454 22.060352,33.33344 C 21.492762,33.66064 20.946852,33.92844 20.847242,33.92844 C 20.636972,33.92844 19.271992,32.12064 19.271992,31.84224 C 19.271992,31.65074 19.786002,31.07024 22.159602,28.58064 C 25.998942,24.55374 27.738682,22.60214 27.738682,22.32194 C 27.738682,22.25154 26.919862,22.18404 25.919082,22.17214 C 24.918302,22.16014 23.263962,22.12604 22.242762,22.09634 C 21.221552,22.06654 20.035102,22.08114 19.606202,22.12874 L 18.826372,22.21524 L 18.826372,23.90214 C 18.826372,26.04814 18.819942,26.05584 17.043912,26.05584 C 15.119372,26.05584 15.214322,26.26184 15.286312,22.24274 C 15.319472,20.39184 15.408962,18.86944 15.489222,18.79154 C 15.737422,18.55044 16.470762,18.53714 24.916452,18.62124 z M 117.38166,32.81924 C 121.96674,33.54324 125.31102,36.08544 127.16715,40.25784 C 127.98845,42.10404 128.20871,43.41854 128.0977,45.81144 C 127.91288,49.79544 126.97897,52.11184 124.29641,55.24004 C 122.55226,57.27394 122.31037,57.71084 122.70827,58.10884 C 122.92998,58.33054 123.01735,58.30104 123.82358,57.73244 C 124.87379,56.99184 126.31684,56.27584 127.33297,55.99124 C 127.74188,55.87664 128.47749,55.67084 128.96767,55.53394 C 130.22627,55.18224 132.68072,55.18204 134.01798,55.53344 C 136.77793,56.25874 138.99834,57.68454 140.50619,59.69984 C 141.58224,61.13804 142.30594,62.40414 142.72216,63.57674 C 143.16166,64.81494 143.28025,68.11794 142.94734,69.84864 C 142.23067,73.57454 139.56496,76.93624 135.80631,78.85414 C 132.87324,80.35074 129.62383,80.42504 126.24008,79.07284 C 124.18144,78.25024 122.68955,77.09414 120.86496,74.90744 C 119.74344,73.56344 119.05538,72.27374 118.74647,70.93654 C 118.49291,69.83904 118.30768,69.58444 117.9346,69.82054 C 117.34815,70.19164 117.71087,73.63074 118.73929,77.45014 C 120.01404,82.18444 120.48001,83.52924 121.71508,86.03834 C 122.41148,87.45314 122.93569,88.65624 122.88,88.71204 C 122.8243,88.76774 119.70981,88.83634 115.9589,88.86434 C 108.54472,88.91974 108.66852,88.93334 109.18753,88.11984 C 109.57286,87.51574 111.19012,83.65014 111.66677,82.19384 C 112.77303,78.81394 113.53381,75.07034 113.69041,72.23604 C 113.80071,70.23964 113.71896,69.72614 113.29084,69.72614 C 112.95115,69.72614 112.80426,70.02964 112.5604,71.23524 C 112.37454,72.15394 111.46994,74.13604 110.78761,75.11944 C 109.11023,77.53714 105.57916,79.67864 102.28551,80.27594 C 101.80064,80.36384 100.6876,80.43694 99.812072,80.43834 C 97.211132,80.44244 95.098572,79.72594 93.169882,78.18564 C 91.222922,76.63064 90.008362,75.06574 89.198222,73.06834 C 88.356672,70.99344 88.193852,70.15634 88.193852,67.90444 C 88.193852,66.10114 88.239212,65.75004 88.651602,64.36094 C 89.595972,61.18014 91.155812,59.04254 93.912582,57.15154 C 95.117082,56.32524 97.522632,55.76504 99.870572,55.76394 C 101.79308,55.76314 104.91319,56.61734 106.48051,57.57374 C 108.15266,58.59414 108.4334,57.49304 106.84195,56.15624 C 105.54118,55.06354 104.00246,52.69294 103.3273,50.74144 C 102.50635,48.36854 102.21445,46.11924 102.44533,43.94514 C 102.65965,41.92664 102.87884,41.16914 103.66299,39.73704 C 106.08476,35.31394 109.70061,33.03704 114.85651,32.68854 C 115.56849,32.64044 116.58069,32.69284 117.38166,32.81924 z M 25.792142,55.39564 C 27.486422,55.86994 28.649552,56.82404 29.409562,58.36294 C 30.022802,59.60474 30.036522,61.28224 29.445032,62.69794 C 29.196392,63.29304 27.863292,65.01734 27.402202,65.34034 C 27.140842,65.52334 27.128962,65.57044 27.325162,65.64574 C 27.456342,65.69604 28.115602,65.44014 28.842572,65.05674 C 29.970102,64.46214 30.241302,64.37894 31.050032,64.37964 C 32.257742,64.38074 32.987412,64.59514 33.945322,65.23064 C 35.070942,65.97734 35.593022,66.81034 35.846892,68.26444 C 36.516652,72.10094 34.353472,75.11374 30.926662,75.11734 C 29.276132,75.11904 28.508462,74.78774 27.408602,73.59904 C 26.501032,72.61824 26.371712,72.36674 25.842202,70.55244 C 25.637632,69.85154 25.362062,69.90304 25.362092,70.64214 C 25.362152,72.17504 26.116672,75.20254 26.943892,76.98914 C 27.299332,77.75674 27.590142,78.46574 27.590142,78.56474 C 27.590142,78.90024 24.170322,79.05704 21.596752,78.83954 C 20.274062,78.72764 20.219352,78.63094 20.885082,77.58124 C 21.908502,75.96744 23.256842,72.33634 23.388252,70.84024 C 23.457642,70.05014 23.441402,69.97424 23.245202,70.17184 C 23.123472,70.29434 22.836202,70.89594 22.606842,71.50864 C 21.624552,74.13264 19.362222,75.27634 16.409522,74.64134 C 13.722962,74.06374 12.210562,70.75224 13.187972,67.58774 C 13.545002,66.43184 14.221802,65.69294 15.531192,65.02944 C 16.285312,64.64734 16.526212,64.60164 17.786602,64.60164 L 19.197722,64.60164 L 20.868772,65.43194 C 21.787862,65.88864 22.539362,66.18944 22.538782,66.10044 C 22.538202,66.01134 22.070172,65.47844 21.498712,64.91634 C 20.803792,64.23264 20.299932,63.56964 19.977252,62.91414 C 19.525672,61.99684 19.494792,61.83414 19.494792,60.37134 C 19.494792,58.93114 19.529552,58.73994 19.938272,57.93334 C 20.945362,55.94574 23.618122,54.78704 25.792142,55.39564 z M 117.15886,131.61444 C 120.55874,132.12504 122.91596,133.18094 124.83268,135.05194 C 126.24313,136.42874 126.78717,137.19484 127.63153,138.99294 C 128.69832,141.26464 128.93825,143.11374 128.53124,145.92644 C 128.23859,147.94874 128.03829,148.65324 127.32759,150.15974 C 126.5837,151.73664 126.16068,152.34284 124.32584,154.46114 C 122.93972,156.06134 122.71515,156.53694 123.16816,156.91284 C 123.41006,157.11364 123.46626,157.08834 124.51151,156.30904 C 125.9248,155.25534 128.57544,154.29944 130.65695,154.09294 C 135.35952,153.62634 139.46355,155.82894 142.00839,160.18524 C 142.98227,161.85224 143.27728,162.67704 143.463,164.25174 C 143.84707,167.50834 143.239,170.41744 141.69067,172.73094 C 138.86091,176.95904 134.16164,179.34854 129.8589,178.74714 C 127.29213,178.38834 124.9929,177.39164 123.22611,175.87184 C 121.01353,173.96844 119.47351,171.75504 119.02543,169.83424 C 118.73124,168.57314 118.3459,168.19164 117.90404,168.72404 C 117.76121,168.89614 117.75857,169.32224 117.89188,170.68744 C 117.98552,171.64644 118.12336,172.70064 118.19819,173.02994 C 118.27302,173.35934 118.47391,174.26384 118.64463,175.03994 C 118.81534,175.81614 119.07802,176.85214 119.22837,177.34234 C 119.37871,177.83254 119.71911,179.03564 119.98481,180.01604 C 120.25051,180.99634 120.62149,182.13274 120.80921,182.54114 C 121.61474,184.29404 122.37411,185.85724 122.73639,186.50844 C 122.95041,186.89314 123.0825,187.27744 123.02992,187.36254 C 122.90291,187.56804 109.90652,187.57624 109.36713,187.37114 L 108.98299,187.22514 L 109.48743,186.21994 C 112.02366,181.16634 113.73978,175.26474 113.99342,170.72414 C 114.09043,168.98744 113.94972,168.45184 113.41761,168.53244 C 113.1736,168.56934 113.05808,168.79484 112.8381,169.66374 C 112.0925,172.60884 110.70578,174.60774 108.17228,176.38924 C 104.82096,178.74594 100.78317,179.59164 97.246272,178.67764 C 95.015892,178.10134 92.105872,176.06794 90.719362,174.11694 C 89.915932,172.98644 89.005162,170.97504 88.623942,169.48914 C 88.359322,168.45774 88.324292,167.97794 88.383972,166.20194 C 88.464822,163.79594 88.808112,162.47974 89.914252,160.33464 C 90.717892,158.77624 91.326922,158.02604 92.857582,156.70894 C 94.892202,154.95814 96.666302,154.36104 99.854122,154.35384 C 101.50377,154.35014 101.99995,154.40844 103.25955,154.75354 C 104.70326,155.14924 106.36177,155.87094 107.20203,156.46934 C 107.70378,156.82654 107.85405,156.84084 108.09209,156.55404 C 108.38706,156.19864 108.12428,155.73564 106.90497,154.46244 C 106.27095,153.80044 105.52212,152.89574 105.24092,152.45194 C 103.2642,149.33274 102.44246,145.71044 102.8948,142.11024 C 103.11102,140.38944 103.37328,139.64214 104.30501,138.09174 C 106.07284,135.15014 108.40858,133.23564 111.39078,132.28384 C 113.12148,131.73154 115.83868,131.41614 117.15886,131.61444 z M 119.31266,230.30833 C 121.27337,230.35573 122.8943,230.40593 122.91472,230.41973 C 123.02398,230.49363 122.86806,230.88163 122.00161,232.69233 C 120.48832,235.85483 119.84949,237.57623 119.03213,240.69403 C 118.21712,243.80273 117.62237,248.19063 117.91163,248.96053 C 118.23885,249.83163 118.64131,249.49823 119.01491,248.04663 C 119.30607,246.91543 119.98497,245.45383 120.74852,244.31443 C 122.46823,241.74833 126.51188,239.36973 129.79719,238.99173 C 133.6858,238.54433 136.62238,239.47733 139.32194,242.01793 C 140.89013,243.49383 141.61358,244.50853 142.32791,246.23423 C 143.23747,248.43143 143.49303,249.82463 143.38955,252.02193 C 143.31298,253.64783 143.22542,254.14453 142.77422,255.51253 C 141.85969,258.28533 140.57993,260.13213 138.47548,261.71603 C 136.48317,263.21543 134.86067,263.71133 131.93844,263.71383 C 129.27211,263.71613 126.83505,263.05523 124.82233,261.78413 C 124.00844,261.27013 123.79754,261.19373 123.61359,261.34643 C 123.26923,261.63213 123.48561,262.04553 124.62161,263.27183 C 125.97313,264.73073 126.39855,265.36063 127.2617,267.18043 C 127.75351,268.21733 128.10516,269.25443 128.37912,270.47593 C 128.73897,272.08053 128.76988,272.44373 128.68879,274.11513 C 128.52335,277.52533 127.8738,279.18293 125.69767,281.74803 C 123.29162,284.58413 119.7232,286.14853 115.67347,286.14273 C 113.17827,286.13913 111.60267,285.75353 109.16888,284.55103 C 105.94886,282.96013 103.4108,279.38613 102.8073,275.59293 C 102.56939,274.09753 102.57154,273.96493 102.86619,271.96133 C 103.21018,269.62233 103.41981,268.91043 104.26577,267.20813 C 104.92016,265.89133 105.34343,265.32813 107.20218,263.30093 C 108.56887,261.81043 108.88695,261.33713 108.75426,260.99133 C 108.57925,260.53523 108.19709,260.58983 107.33625,261.19363 C 106.30975,261.91373 105.3695,262.34293 103.56758,262.91433 C 102.33628,263.30473 102.04897,263.33823 99.928392,263.33823 C 97.701292,263.33823 97.578402,263.32183 96.168462,262.83753 C 92.935362,261.72703 90.234872,259.05373 88.804672,255.54783 C 88.319232,254.35783 88.285792,254.16423 88.223372,252.18053 C 88.091802,247.99903 89.023002,245.49973 91.831372,242.49693 C 93.412252,240.80663 96.166602,239.23953 98.291552,238.82153 C 99.981072,238.48913 102.37765,238.61043 103.93893,239.10743 C 106.67432,239.97803 108.58783,241.31843 110.65705,243.81333 C 111.86736,245.27253 112.38595,246.32173 112.98806,248.52943 C 113.1285,249.04433 113.22464,249.16063 113.50952,249.16063 C 113.99819,249.16063 114.05886,248.77623 113.88634,246.77243 C 113.68122,244.39003 112.88369,240.66893 111.61258,236.16353 C 111.35614,235.25463 110.42445,233.13713 109.60137,231.59263 C 109.2647,230.96083 108.98924,230.37333 108.98924,230.28703 C 108.98924,230.12523 112.0046,230.13143 119.31266,230.30833 z M 209.81839,240.10763 L 210.16124,240.24523 L 209.46271,241.52663 C 208.02512,244.16393 206.75729,248.30823 207.26036,248.72573 C 207.48079,248.90873 207.69602,248.55003 208.15361,247.23713 C 208.48528,246.28563 209.76124,244.81603 210.57552,244.44773 C 210.94169,244.28213 211.55282,244.20333 212.52057,244.19693 C 213.7412,244.18893 214.04338,244.23983 214.75909,244.57423 C 217.43782,245.82553 218.30852,250.11773 216.39717,252.64923 C 215.93839,253.25693 215.5572,253.56353 214.79243,253.94003 C 213.90021,254.37923 213.65776,254.43273 212.59796,254.42443 C 211.54468,254.41613 211.28596,254.35493 210.36676,253.89643 C 209.79489,253.61123 209.03456,253.16543 208.67715,252.90593 C 208.31974,252.64633 207.96662,252.47143 207.89246,252.51723 C 207.77464,252.59003 209.35821,254.52063 209.71831,254.74323 C 209.79267,254.78913 210.04418,255.20623 210.27721,255.67003 C 211.4408,257.98593 211.21891,260.52243 209.71793,262.06343 C 207.35309,264.49133 203.54032,264.21423 201.7739,261.48613 C 200.9875,260.27163 200.75201,259.42533 200.82303,258.06923 C 200.89805,256.63663 201.51537,255.41383 202.82843,254.09683 C 203.33903,253.58473 203.7568,253.06673 203.7568,252.94563 C 203.7568,252.60023 203.32918,252.68663 202.7384,253.15143 C 201.31215,254.27363 199.7025,254.68913 198.3289,254.28983 C 196.93278,253.88393 195.94777,253.11103 195.34765,251.95053 C 195.06042,251.39513 195.00745,251.13523 194.90019,249.75483 C 194.74563,247.76593 195.52081,245.70573 196.80981,244.67963 C 198.36247,243.44353 201.17566,243.33233 202.41995,244.45793 C 203.60122,245.52643 204.18824,246.33123 204.48334,247.28663 C 204.86491,248.52203 205.06447,248.89913 205.26948,248.77243 C 205.37352,248.70813 205.40162,248.29973 205.34897,247.61713 C 205.20316,245.72693 204.46215,242.99153 203.65849,241.37693 C 203.37782,240.81313 203.18275,240.26163 203.22503,240.15153 C 203.28623,239.99203 203.92995,239.95323 206.38869,239.96073 C 208.08646,239.96593 209.62982,240.03203 209.81839,240.10763 z M 207.39599,268.32593 C 209.48099,268.56093 210.15001,268.79733 211.62934,269.82233 C 213.23584,270.93553 214.61784,272.46483 215.54683,274.15753 C 216.14581,275.24893 216.08539,275.48913 215.016,276.26723 C 214.50948,276.63583 213.99146,276.93343 213.86483,276.92863 C 213.73821,276.92383 213.33382,276.44223 212.96618,275.85833 C 211.43145,273.42083 209.51999,272.03763 207.25841,271.72803 C 205.16313,271.44123 203.61727,271.77323 202.0018,272.85703 C 199.53912,274.50903 198.45195,277.13533 198.8333,280.51103 C 198.98366,281.84213 199.09762,282.24093 199.63732,283.32453 C 200.1747,284.40353 200.39954,284.68753 201.18349,285.27783 C 202.51947,286.28383 203.53687,286.63333 205.16791,286.64643 C 206.65893,286.65843 207.46647,286.41353 209.01972,285.47823 C 209.49445,285.19233 209.99174,284.95933 210.12482,284.96033 C 210.25788,284.96133 210.53387,285.20433 210.73811,285.50043 C 211.44046,286.51863 211.62778,286.81543 211.62855,286.91143 C 211.62934,287.00663 211.06364,287.66903 209.62212,289.26083 C 209.21256,289.71303 208.6444,290.34883 208.35954,290.67363 C 208.07468,290.99843 207.47038,291.66693 207.01665,292.15903 C 205.22764,294.09943 203.62662,295.93553 203.47246,296.22353 C 203.35178,296.44903 203.35659,296.55503 203.4913,296.63823 C 203.59081,296.69973 205.48185,296.77163 207.6936,296.79803 C 210.76755,296.83473 211.77354,296.80173 211.96349,296.65813 C 212.16467,296.50593 212.21707,296.17323 212.23881,294.91053 C 212.25357,294.05273 212.32536,293.23393 212.39834,293.09093 C 212.50806,292.87593 212.73739,292.83103 213.72386,292.83103 C 215.6079,292.83103 215.49134,292.60113 215.49134,296.31723 C 215.49134,298.06543 215.42536,299.66943 215.3447,299.88153 L 215.19808,300.26723 L 206.64317,300.22543 C 198.37168,300.18503 198.08126,300.17413 197.87748,299.89533 C 197.65974,299.59743 197.60145,298.16503 197.78856,297.71003 C 197.88623,297.47253 199.16119,296.00223 200.73067,294.31713 C 202.13863,292.80543 204.35095,290.24673 204.35095,290.13003 C 204.35095,290.00563 204.24518,289.97633 202.60528,289.64683 C 199.92843,289.10903 197.3801,286.95553 196.35419,284.36433 C 195.39928,281.95233 195.33058,278.85453 196.15654,275.45203 C 196.42042,274.36493 197.61824,272.47473 198.70784,271.42593 C 201.07838,269.14423 204.33748,267.98133 207.39599,268.32593 z"
     id="path5563" />
  <g
     id="g3796"
     transform="translate(1.5938779e-6,0)">
    <rect
       ry="11.25"
       rx="11.25"
       y="3.4247196"
       x="3.6058116"
       height="311.81104"
       width="223.22835"
       id="rect2382"
       style="fill:none;fill-opacity:1;fill-rule:nonzero;stroke:#000000;stroke-width:0.03543307;stroke-linejoin:round;stroke-miterlimit:4;stroke-dasharray:none;stroke-opacity:1" />
    <g
       transform="translate(3.5433116,3.3622195)"
       id="g3164">
      <path
         style="fill:none;fill-rule:evenodd;stroke:#000000;stroke-width:0.03221492;stroke-linecap:butt;stroke-linejoin:miter;stroke-miterlimit:4;stroke-dasharray:none;stroke-opacity:1"
         d="M 219.74754,0.062511534 L 226.70838,0.062511534"
         id="path3160"
         sodipodi:nodetypes="cc" />
      <path
         sodipodi:nodetypes="cc"
         id="path3162"
         d="M 223.29036,-3.2997195 L 223.29036,3.6063107"
         style="fill:none;fill-rule:evenodd;stroke:#000000;stroke-width:0.03196126;stroke-linecap:butt;stroke-linejoin:miter;stroke-miterlimit:4;stroke-dasharray:none;stroke-opacity:1" />
    </g>
    <g
       transform="matrix(1.0001093,0,0,1,3.519309,315.17275)"
       id="g3168">
      <path
         sodipodi:nodetypes="cc"
         id="path3170"
         d="M 219.74754,0.062511534 L 226.70838,0.062511534"
         style="fill:none;fill-rule:evenodd;stroke:#000000;stroke-width:0.03221492;stroke-linecap:butt;stroke-linejoin:miter;stroke-miterlimit:4;stroke-dasharray:none;stroke-opacity:1" />
      <path
         style="fill:none;fill-rule:evenodd;stroke:#000000;stroke-width:0.03196126;stroke-linecap:butt;stroke-linejoin:miter;stroke-miterlimit:4;stroke-dasharray:none;stroke-opacity:1"
         d="M 223.29036,-3.2997195 L 223.29036,3.6063107"
         id="path3172"
         sodipodi:nodetypes="cc" />
    </g>
    <g
       id="g3174"
       transform="matrix(1.0001093,0,0,1,-219.70906,315.17275)">
      <path
         style="fill:none;fill-rule:evenodd;stroke:#000000;stroke-width:0.03221492;stroke-linecap:butt;stroke-linejoin:miter;stroke-miterlimit:4;stroke-dasharray:none;stroke-opacity:1"
         d="M 219.74754,0.062511534 L 226.70838,0.062511534"
         id="path3176"
         sodipodi:nodetypes="cc" />
      <path
         sodipodi:nodetypes="cc"
         id="path3178"
         d="M 223.29036,-3.2997195 L 223.29036,3.6063107"
         style="fill:none;fill-rule:evenodd;stroke:#000000;stroke-width:0.03196126;stroke-linecap:butt;stroke-linejoin:miter;stroke-miterlimit:4;stroke-dasharray:none;stroke-opacity:1" />
    </g>
    <g
       transform="translate(-219.68504,3.3622195)"
       id="g3180">
      <path
         sodipodi:nodetypes="cc"
         id="path3182"
         d="M 219.74754,0.062511534 L 226.70838,0.062511534"
         style="fill:none;fill-rule:evenodd;stroke:#000000;stroke-width:0.03221492;stroke-linecap:butt;stroke-linejoin:miter;stroke-miterlimit:4;stroke-dasharray:none;stroke-opacity:1" />
      <path
         style="fill:none;fill-rule:evenodd;stroke:#000000;stroke-width:0.03196126;stroke-linecap:butt;stroke-linejoin:miter;stroke-miterlimit:4;stroke-dasharray:none;stroke-opacity:1"
         d="M 223.29036,-3.2997195 L 223.29036,3.6063107"
         id="path3184"
         sodipodi:nodetypes="cc" />
    </g>
  </g>
</svg>
