<?xml version="1.0" encoding="UTF-8" standalone="no"?>
<!-- Created with Inkscape (http://www.inkscape.org/) -->
<svg
   xmlns:dc="http://purl.org/dc/elements/1.1/"
   xmlns:cc="http://creativecommons.org/ns#"
   xmlns:rdf="http://www.w3.org/1999/02/22-rdf-syntax-ns#"
   xmlns:svg="http://www.w3.org/2000/svg"
   xmlns="http://www.w3.org/2000/svg"
   xmlns:sodipodi="http://sodipodi.sourceforge.net/DTD/sodipodi-0.dtd"
   xmlns:inkscape="http://www.inkscape.org/namespaces/inkscape"
   id="svg8616"
   sodipodi:version="0.32"
   inkscape:version="0.46"
   width="230.31497"
   height="318.84155"
   version="1.0"
   sodipodi:docname="3d.svg"
   inkscape:output_extension="org.inkscape.output.svg.inkscape">
  <metadata
     id="metadata8621">
    <rdf:RDF>
      <cc:Work
         rdf:about="">
        <dc:format>image/svg+xml</dc:format>
        <dc:type
           rdf:resource="http://purl.org/dc/dcmitype/StillImage" />
      </cc:Work>
    </rdf:RDF>
  </metadata>
  <defs
     id="defs8619">
    <inkscape:perspective
       sodipodi:type="inkscape:persp3d"
       inkscape:vp_x="0 : 526.18109 : 1"
       inkscape:vp_y="0 : 1000 : 0"
       inkscape:vp_z="744.09448 : 526.18109 : 1"
       inkscape:persp3d-origin="372.04724 : 350.78739 : 1"
       id="perspective8623" />
  </defs>
  <sodipodi:namedview
     inkscape:window-height="667"
     inkscape:window-width="871"
     inkscape:pageshadow="2"
     inkscape:pageopacity="0.0"
     guidetolerance="10.0"
     gridtolerance="10.0"
     objecttolerance="10.0"
     borderopacity="1.0"
     bordercolor="#666666"
     pagecolor="#ffffff"
     id="base"
     showgrid="false"
     inkscape:zoom="1.4489956"
     inkscape:cx="115.15749"
     inkscape:cy="159.42078"
     inkscape:window-x="44"
     inkscape:window-y="58"
     inkscape:current-layer="svg8616" />
  <path
     style="fill:#e00000;fill-opacity:1"
     d="M 198.51916,300.22936 L 197.69823,300.15096 L 197.65547,298.95616 L 197.61271,297.76126 L 198.17788,297.14866 C 198.48873,296.81176 198.97815,296.27476 199.26551,295.95536 C 199.55285,295.63596 200.6178,294.45476 201.63205,293.33036 C 202.64631,292.20606 203.67259,291.01896 203.91267,290.69256 L 204.3492,290.09896 L 203.56114,289.94366 C 203.1277,289.85826 202.5044,289.74216 202.17603,289.68576 C 200.71699,289.43486 198.22739,287.82586 197.26483,286.51176 C 195.54914,284.16936 194.93446,281.29506 195.39575,277.77176 C 195.74818,275.07996 196.51311,273.35726 198.13261,271.60806 C 199.61351,270.00846 202.25666,268.52986 204.34205,268.13436 C 206.14197,267.79306 208.85271,268.06246 210.26437,268.72306 C 211.76782,269.42666 213.4309,270.76466 214.34072,272.00276 C 214.54595,272.28196 214.7948,272.59276 214.8937,272.69336 C 215.19062,272.99526 216.13184,274.78326 216.13184,275.04536 C 216.13184,275.34266 214.2205,276.81936 213.91281,276.75976 C 213.79176,276.73636 213.40935,276.25196 213.06301,275.68336 C 210.95352,272.22016 208.27702,270.93946 204.50179,271.58686 C 201.98813,272.01796 199.87007,273.89466 198.94535,276.51016 C 198.65407,277.33406 198.60979,277.74716 198.61924,279.55306 C 198.63099,281.80246 198.83567,282.66486 199.68205,284.03086 C 201.10324,286.32466 204.58066,287.41226 207.35858,286.43176 C 207.91038,286.23706 208.61563,285.87876 208.92581,285.63556 C 209.23598,285.39246 209.65428,285.10706 209.85535,285.00146 C 210.18028,284.83086 210.2467,284.84576 210.45239,285.13536 C 210.5797,285.31466 210.90214,285.73356 211.16894,286.06626 C 211.43575,286.39896 211.65404,286.77456 211.65404,286.90096 C 211.65404,287.11736 210.62056,288.30236 207.84791,291.26506 C 206.39804,292.81426 204.56043,294.85536 204.0465,295.48726 C 203.83867,295.74276 203.55109,296.05526 203.40743,296.18156 C 203.0318,296.51176 203.08518,296.74606 203.55669,296.83676 C 204.00136,296.92226 211.90715,296.80776 212.21376,296.71136 C 212.34986,296.66856 212.40034,296.15106 212.40034,294.79826 C 212.40034,292.64996 212.31238,292.76256 213.98958,292.76256 C 215.80091,292.76256 215.68406,292.49946 215.68406,296.57866 C 215.68406,299.25326 215.63977,300.09976 215.49748,300.14476 C 215.20289,300.23806 199.43311,300.31656 198.51916,300.22936 z M 114.60452,285.73126 C 114.39736,285.45276 113.95057,284.75476 113.61165,284.18016 C 113.27272,283.60546 112.79952,282.86666 112.56007,282.53826 C 112.32063,282.20996 111.39107,280.83296 110.49439,279.47846 C 109.59771,278.12396 108.48201,276.47836 108.01505,275.82156 C 107.5481,275.16486 106.76341,274.05656 106.2713,273.35876 C 105.77919,272.66096 105.10409,271.77476 104.77108,271.38936 C 104.43807,271.00396 103.77076,270.15826 103.28817,269.50996 C 101.25589,266.78006 95.233662,260.41596 93.328222,258.98466 C 92.815142,258.59916 92.395342,258.18666 92.395342,258.06786 C 92.395342,257.94906 93.747762,256.35376 95.400712,254.52276 C 98.201932,251.41986 99.705042,249.70246 101.10311,248.00766 C 102.33817,246.51046 102.77865,245.99396 103.01762,245.76256 C 103.41887,245.37416 106.21609,241.73416 106.98664,240.59776 C 107.37595,240.02366 108.0037,239.15036 108.38164,238.65706 C 109.05985,237.77196 110.36578,235.75326 111.36218,234.04976 C 111.64355,233.56866 112.00233,232.96416 112.15946,232.70636 C 112.31659,232.44856 112.87585,231.39806 113.40226,230.37196 C 114.4063,228.41466 114.75551,227.92336 115.01655,228.10066 C 115.10322,228.15946 115.44723,228.67786 115.78102,229.25246 C 118.4878,233.91246 122.68551,240.27646 125.38012,243.80536 C 125.74458,244.28266 126.72243,245.60166 126.98827,245.97466 C 127.31256,246.42966 128.52168,247.85606 129.13487,248.50706 C 129.52149,248.91746 130.06101,249.51896 130.3338,249.84366 C 131.1852,250.85706 132.26699,251.98876 133.8133,253.48376 C 136.91324,256.48076 136.85011,256.38966 136.23828,256.98466 C 135.87996,257.33316 133.3591,260.08986 132.59378,260.97026 C 132.34399,261.25756 131.71828,261.96276 131.2033,262.53746 C 130.68833,263.11206 130.19812,263.73336 130.11396,263.91806 C 130.02979,264.10286 129.91472,264.25396 129.85823,264.25396 C 129.7693,264.25396 129.04222,265.12546 127.24754,267.38336 C 125.11626,270.06476 121.49614,274.98846 120.94734,275.95226 C 120.84805,276.12666 120.64655,276.43026 120.49956,276.62696 C 119.72225,277.66686 119.56065,277.90426 119.56065,278.00616 C 119.56065,278.06756 119.20229,278.70936 118.7643,279.43246 C 117.5728,281.39946 116.94883,282.52816 116.13973,284.18016 C 115.73765,285.00106 115.31248,285.79986 115.19492,285.95516 C 114.99063,286.22516 114.96452,286.21526 114.60452,285.73126 z M 206.095,262.64586 C 205.97094,262.50416 205.47886,261.75006 205.00146,260.97026 C 204.16361,259.60146 203.88906,259.18846 202.42145,257.08946 C 201.52629,255.80926 198.51028,252.03756 198.01426,251.57816 C 197.55796,251.15546 197.52224,250.84056 197.88481,250.43656 C 198.02847,250.27646 198.72126,249.50816 199.42434,248.72926 C 201.98171,245.89586 203.64784,243.72986 205.16398,241.26786 C 206.38957,239.27766 206.36449,239.29796 206.86597,239.89136 C 207.09337,240.16036 207.37034,240.56336 207.48146,240.78686 C 207.59259,241.01036 207.8286,241.39476 208.00593,241.64106 C 208.18327,241.88736 208.9453,242.99556 209.69932,244.10386 C 211.90938,247.35216 212.46252,248.05336 214.30664,249.94416 C 215.57055,251.24016 215.5749,251.27536 214.60036,252.31946 C 214.25233,252.69226 213.59857,253.43116 213.14756,253.96126 C 212.69656,254.49146 212.28972,254.95876 212.24347,254.99986 C 212.16993,255.06506 210.66243,257.00776 209.99875,257.89256 C 209.86822,258.06656 209.03745,259.23416 208.15261,260.48726 C 207.26775,261.74036 206.49357,262.79666 206.43218,262.83456 C 206.3708,262.87256 206.21907,262.78756 206.095,262.64586 z M 114.45798,188.318 C 114.33514,188.1743 113.97856,187.6202 113.66558,187.0866 C 112.57726,185.2311 108.52936,179.272 106.86234,177.0712 C 106.65094,176.7921 106.08112,176.0264 105.59607,175.3697 C 105.11102,174.7129 104.31007,173.6676 103.81617,173.0467 C 103.32227,172.4258 102.71667,171.657 102.47039,171.3383 C 100.79661,169.1718 95.002612,162.9959 92.915992,161.154 L 92.029762,160.3717 L 92.780512,159.5868 C 93.193432,159.1551 93.929852,158.3317 94.417002,157.757 C 94.904152,157.1824 95.807202,156.1704 96.423772,155.5083 C 98.043242,153.7691 98.536922,153.2179 99.012172,152.6183 C 99.244572,152.325 99.716012,151.7829 100.05982,151.4135 C 102.53778,148.7509 107.57515,142.2172 109.75893,138.8332 C 110.2243,138.112 110.60506,137.4928 110.60506,137.4572 C 110.60506,137.4215 110.91377,136.9151 111.29108,136.3318 C 111.66839,135.7486 112.45761,134.3465 113.04488,133.2161 C 114.70749,130.016 114.69682,130.0233 115.52385,131.5116 C 115.79012,131.9908 116.2422,132.7522 116.52847,133.2037 C 116.81474,133.6553 117.83238,135.2808 118.7899,136.816 C 120.61613,139.7441 123.07855,143.4723 123.35423,143.7266 C 123.44322,143.8087 123.79004,144.2453 124.12494,144.6968 C 124.45983,145.1483 125.40561,146.4244 126.22666,147.5327 C 127.04771,148.641 128.21864,150.085 128.82871,150.7418 C 129.43878,151.3985 130.24985,152.3053 130.63108,152.7568 C 131.01231,153.2083 132.47203,154.7196 133.8749,156.1151 C 135.27778,157.5107 136.42484,158.7197 136.42392,158.8018 C 136.42301,158.8839 136.21653,159.1862 135.96509,159.4735 C 135.71364,159.7608 135.33268,160.1974 135.11851,160.4437 C 134.90434,160.69 134.28149,161.3952 133.73442,162.0109 C 133.18734,162.6266 132.57866,163.3251 132.38179,163.5632 C 132.18493,163.8013 131.55369,164.5504 130.97904,165.228 C 130.40439,165.9055 129.59838,166.875 129.18792,167.3824 C 128.77745,167.8898 128.30729,168.4594 128.1431,168.6482 C 127.8306,169.0074 125.21182,172.3178 124.01231,173.8698 C 123.62851,174.3663 123.21538,174.8835 123.09423,175.0191 C 122.84666,175.296 120.69252,178.3797 120.23232,179.116 C 120.06814,179.3787 119.68193,179.971 119.37408,180.4324 C 119.06623,180.8938 118.81435,181.308 118.81435,181.3529 C 118.81435,181.3979 118.64644,181.6548 118.4412,181.9238 C 118.23597,182.1929 118.06805,182.4669 118.06805,182.5328 C 118.06805,182.5986 117.84211,182.9953 117.56597,183.4143 C 117.04559,184.2038 115.9289,186.2292 115.19161,187.7209 C 114.9583,188.193 114.74804,188.5792 114.72437,188.5792 C 114.70071,188.5792 114.58083,188.4616 114.45798,188.318 z M 113.24938,90.1139 C 113.06744,89.811 112.75067,89.2786 112.54543,88.9307 C 110.69191,85.789 108.32725,81.9412 107.45297,80.6444 C 107.15595,80.2038 106.47447,79.1716 105.93858,78.3507 C 102.19259,72.6123 99.401512,69.1078 95.123572,64.7715 C 94.120262,63.7544 93.091212,62.6853 92.836802,62.3955 L 92.374222,61.8687 L 92.869882,61.3597 C 93.391022,60.8246 94.414642,59.6908 96.748782,57.0633 C 97.523252,56.1914 99.228192,54.1452 100.53753,52.516 C 102.85442,49.6332 104.25678,47.8966 104.73365,47.32 C 107.3812,44.1187 111.39523,37.9308 113.33672,34.0578 C 113.73796,33.2574 114.15859,32.6025 114.27144,32.6025 C 114.45546,32.6025 115.53063,34.0983 115.53063,34.3543 C 115.53063,34.4115 115.95809,35.0987 116.48053,35.8813 C 117.99706,38.153 119.18143,39.9682 119.26213,40.1443 C 119.63781,40.9641 125.97471,49.5736 127.54606,51.3991 C 127.87443,51.7806 128.47893,52.4905 128.8894,52.9766 C 129.89404,54.1663 131.19019,55.593 132.41505,56.8573 C 132.97177,57.4319 133.58167,58.0736 133.77039,58.2832 C 133.9591,58.4928 134.55008,59.026 135.08369,59.4682 C 136.1083,60.3172 136.42703,60.6431 136.42703,60.842 C 136.42703,60.9907 134.16832,63.5385 132.41666,65.3657 C 131.70806,66.1048 130.79246,67.107 130.382,67.5928 C 129.97153,68.0785 129.26628,68.8873 128.81477,69.3901 C 128.36326,69.8928 127.55725,70.8335 127.02365,71.4806 C 126.49005,72.1276 125.77897,72.9642 125.44348,73.3396 C 124.911,73.9354 124.26944,74.7576 123.04121,76.418 C 122.86215,76.6601 121.99815,77.8274 121.12122,79.0121 C 119.2289,81.5685 116.71251,85.5311 115.22378,88.2989 C 113.75337,91.0327 113.78421,91.0043 113.24938,90.1139 z M 22.962592,78.4627 C 22.840262,78.319 22.284862,77.4962 21.728362,76.6342 C 19.518502,73.2113 16.972582,69.9036 15.240962,68.2057 C 14.741252,67.7157 14.332392,67.2644 14.332392,67.2027 C 14.332392,67.141 14.757342,66.568 15.276732,65.9293 C 16.132142,64.8774 18.967602,61.0792 19.332602,60.4964 C 19.916712,59.5635 22.277702,56.0331 22.540622,55.6993 C 22.718962,55.4729 22.920662,55.3222 22.988832,55.3643 C 23.057012,55.4064 23.524312,56.0954 24.027292,56.8954 C 24.918852,58.3134 25.790382,59.6002 26.184542,60.0805 C 26.291982,60.2115 26.670792,60.7488 27.026342,61.2746 C 27.871542,62.5245 29.323032,64.3454 30.571482,65.7218 C 31.121722,66.3284 31.591082,66.9029 31.614502,66.9983 C 31.663352,67.1975 31.457942,67.4756 29.106002,70.395 C 26.497822,73.6326 25.508512,75.073 24.026322,77.791 C 23.488112,78.7779 23.320932,78.8835 22.962592,78.4627 z M 22.243172,50.5281 C 20.311832,50.3078 18.786202,49.5299 16.972652,47.8409 C 15.689892,46.6462 14.183132,44.3969 14.183132,43.6767 C 14.183132,43.2619 15.668972,42.0059 16.159722,42.0059 C 16.404602,42.0059 16.708322,42.3725 17.093702,43.1332 C 17.557112,44.0479 19.648842,46.075 20.601312,46.5324 C 22.432422,47.4118 25.423222,47.4082 27.108532,46.5247 C 28.847662,45.6129 30.176252,44.1094 30.903862,42.2298 C 31.197392,41.4715 31.250622,41.0597 31.251112,39.5431 C 31.251762,37.5694 31.042482,36.6045 30.290932,35.1156 C 29.158152,32.8716 25.742742,31.6068 23.036102,32.4289 C 22.464672,32.6024 21.748392,32.9133 21.444362,33.1196 C 20.594432,33.6964 20.042562,33.9514 19.827152,33.8669 C 19.589002,33.7735 18.511672,32.1799 18.511672,31.921 C 18.511672,31.7512 19.677892,30.4002 22.690442,27.0799 C 24.119792,25.5046 26.049772,23.2601 26.444442,22.7142 L 26.741102,22.3039 L 26.348172,22.1545 C 25.815842,21.9521 18.433302,21.9566 18.054082,22.1596 C 17.798492,22.2964 17.765372,22.4836 17.765372,23.7917 C 17.765372,24.6044 17.699862,25.4417 17.619802,25.6522 C 17.478352,26.0243 17.436092,26.0351 16.123512,26.0351 C 14.852432,26.0351 14.765102,26.0149 14.642612,25.6927 C 14.445772,25.175 14.577532,19.0402 14.791012,18.7829 C 14.937962,18.6059 16.307662,18.5725 23.343582,18.5744 C 27.951262,18.5756 31.807252,18.6313 31.912452,18.6981 C 32.187472,18.8726 32.313892,20.699 32.081132,21.1351 C 31.919102,21.4386 29.185332,24.6624 28.748652,25.0649 C 28.659582,25.147 28.183772,25.6843 27.691292,26.259 C 27.198812,26.8336 26.651142,27.4641 26.474252,27.66 C 26.054172,28.1251 25.751602,28.6977 25.865622,28.8118 C 25.915362,28.8615 26.447202,28.9942 27.047492,29.1066 C 31.495492,29.9398 34.482482,33.8268 34.482482,38.782 C 34.482482,40.3212 34.169042,42.6578 33.839762,43.5731 C 33.608712,44.2154 32.861802,45.5365 32.340912,46.2242 C 31.873432,46.8414 30.253682,48.4241 30.089552,48.4241 C 30.012412,48.4241 29.810632,48.5523 29.641152,48.709 C 29.189702,49.1264 27.689822,49.8441 26.528342,50.1985 C 25.359792,50.5551 23.639292,50.6874 22.243172,50.5281 z"
     id="path8627" />
  <g
     id="g3796"
     transform="translate(1.5938779e-6,0)">
    <rect
       ry="11.25"
       rx="11.25"
       y="3.4247196"
       x="3.6058116"
       height="311.81104"
       width="223.22835"
       id="rect2382"
       style="fill:none;fill-opacity:1;fill-rule:nonzero;stroke:#000000;stroke-width:0.03543307;stroke-linejoin:round;stroke-miterlimit:4;stroke-dasharray:none;stroke-opacity:1" />
    <g
       transform="translate(3.5433116,3.3622195)"
       id="g3164">
      <path
         style="fill:none;fill-rule:evenodd;stroke:#000000;stroke-width:0.03221492;stroke-linecap:butt;stroke-linejoin:miter;stroke-miterlimit:4;stroke-dasharray:none;stroke-opacity:1"
         d="M 219.74754,0.062511534 L 226.70838,0.062511534"
         id="path3160"
         sodipodi:nodetypes="cc" />
      <path
         sodipodi:nodetypes="cc"
         id="path3162"
         d="M 223.29036,-3.2997195 L 223.29036,3.6063107"
         style="fill:none;fill-rule:evenodd;stroke:#000000;stroke-width:0.03196126;stroke-linecap:butt;stroke-linejoin:miter;stroke-miterlimit:4;stroke-dasharray:none;stroke-opacity:1" />
    </g>
    <g
       transform="matrix(1.0001093,0,0,1,3.519309,315.17275)"
       id="g3168">
      <path
         sodipodi:nodetypes="cc"
         id="path3170"
         d="M 219.74754,0.062511534 L 226.70838,0.062511534"
         style="fill:none;fill-rule:evenodd;stroke:#000000;stroke-width:0.03221492;stroke-linecap:butt;stroke-linejoin:miter;stroke-miterlimit:4;stroke-dasharray:none;stroke-opacity:1" />
      <path
         style="fill:none;fill-rule:evenodd;stroke:#000000;stroke-width:0.03196126;stroke-linecap:butt;stroke-linejoin:miter;stroke-miterlimit:4;stroke-dasharray:none;stroke-opacity:1"
         d="M 223.29036,-3.2997195 L 223.29036,3.6063107"
         id="path3172"
         sodipodi:nodetypes="cc" />
    </g>
    <g
       id="g3174"
       transform="matrix(1.0001093,0,0,1,-219.70906,315.17275)">
      <path
         style="fill:none;fill-rule:evenodd;stroke:#000000;stroke-width:0.03221492;stroke-linecap:butt;stroke-linejoin:miter;stroke-miterlimit:4;stroke-dasharray:none;stroke-opacity:1"
         d="M 219.74754,0.062511534 L 226.70838,0.062511534"
         id="path3176"
         sodipodi:nodetypes="cc" />
      <path
         sodipodi:nodetypes="cc"
         id="path3178"
         d="M 223.29036,-3.2997195 L 223.29036,3.6063107"
         style="fill:none;fill-rule:evenodd;stroke:#000000;stroke-width:0.03196126;stroke-linecap:butt;stroke-linejoin:miter;stroke-miterlimit:4;stroke-dasharray:none;stroke-opacity:1" />
    </g>
    <g
       transform="translate(-219.68504,3.3622195)"
       id="g3180">
      <path
         sodipodi:nodetypes="cc"
         id="path3182"
         d="M 219.74754,0.062511534 L 226.70838,0.062511534"
         style="fill:none;fill-rule:evenodd;stroke:#000000;stroke-width:0.03221492;stroke-linecap:butt;stroke-linejoin:miter;stroke-miterlimit:4;stroke-dasharray:none;stroke-opacity:1" />
      <path
         style="fill:none;fill-rule:evenodd;stroke:#000000;stroke-width:0.03196126;stroke-linecap:butt;stroke-linejoin:miter;stroke-miterlimit:4;stroke-dasharray:none;stroke-opacity:1"
         d="M 223.29036,-3.2997195 L 223.29036,3.6063107"
         id="path3184"
         sodipodi:nodetypes="cc" />
    </g>
  </g>
</svg>
