<?xml version="1.0" encoding="UTF-8" standalone="no"?>
<!-- Created with Inkscape (http://www.inkscape.org/) -->
<svg
   xmlns:dc="http://purl.org/dc/elements/1.1/"
   xmlns:cc="http://creativecommons.org/ns#"
   xmlns:rdf="http://www.w3.org/1999/02/22-rdf-syntax-ns#"
   xmlns:svg="http://www.w3.org/2000/svg"
   xmlns="http://www.w3.org/2000/svg"
   xmlns:sodipodi="http://sodipodi.sourceforge.net/DTD/sodipodi-0.dtd"
   xmlns:inkscape="http://www.inkscape.org/namespaces/inkscape"
   id="svg9218"
   sodipodi:version="0.32"
   inkscape:version="0.46"
   width="230.31497"
   height="318.84155"
   version="1.0"
   sodipodi:docname="3h.svg"
   inkscape:output_extension="org.inkscape.output.svg.inkscape">
  <metadata
     id="metadata9223">
    <rdf:RDF>
      <cc:Work
         rdf:about="">
        <dc:format>image/svg+xml</dc:format>
        <dc:type
           rdf:resource="http://purl.org/dc/dcmitype/StillImage" />
      </cc:Work>
    </rdf:RDF>
  </metadata>
  <defs
     id="defs9221">
    <inkscape:perspective
       sodipodi:type="inkscape:persp3d"
       inkscape:vp_x="0 : 526.18109 : 1"
       inkscape:vp_y="0 : 1000 : 0"
       inkscape:vp_z="744.09448 : 526.18109 : 1"
       inkscape:persp3d-origin="372.04724 : 350.78739 : 1"
       id="perspective9225" />
  </defs>
  <sodipodi:namedview
     inkscape:window-height="667"
     inkscape:window-width="852"
     inkscape:pageshadow="2"
     inkscape:pageopacity="0.0"
     guidetolerance="10.0"
     gridtolerance="10.0"
     objecttolerance="10.0"
     borderopacity="1.0"
     bordercolor="#666666"
     pagecolor="#ffffff"
     id="base"
     showgrid="false"
     inkscape:zoom="1.4489956"
     inkscape:cx="115.15749"
     inkscape:cy="159.42078"
     inkscape:window-x="110"
     inkscape:window-y="145"
     inkscape:current-layer="svg9218" />
  <path
     style="fill:#e00000;fill-opacity:1"
     d="M 31.400152,18.62981 C 32.030292,18.69691 32.119232,18.88801 32.122372,20.18141 C 32.124252,20.95351 31.904392,21.47951 31.380922,21.95531 C 31.335762,21.99631 30.259842,23.17171 28.989982,24.56731 C 27.720112,25.96291 26.644232,27.13831 26.599122,27.17931 C 26.405682,27.35531 25.407772,28.63511 25.407772,28.70721 C 25.407772,28.80351 25.772202,28.90951 27.078782,29.19351 C 29.902562,29.80721 32.493802,31.94371 33.506132,34.49301 C 34.345542,36.60681 34.539452,38.70301 34.141222,41.35891 C 33.848752,43.30951 33.572002,44.23211 32.992532,45.18851 C 31.653832,47.39801 30.352352,48.58231 28.019802,49.71381 C 25.984592,50.70101 25.485662,50.81831 23.318142,50.81931 C 20.303732,50.82071 18.918352,50.33951 16.704762,48.52221 C 14.975792,47.10291 12.990922,44.20861 13.322112,43.58981 C 13.553142,43.15811 15.234442,41.92971 15.521692,41.98281 C 15.664082,42.00911 15.922052,42.31071 16.094952,42.65301 C 16.874112,44.19571 18.591672,46.01431 19.977492,46.76391 C 21.356802,47.51011 23.938752,47.66441 25.791972,47.11151 C 27.386492,46.63581 29.216722,45.11831 30.007032,43.61681 C 30.729922,42.24341 30.963512,41.18511 30.950152,39.34391 C 30.931132,36.72631 30.342372,35.05301 29.034352,33.89921 C 27.615262,32.64731 25.663922,31.97661 23.947932,32.15101 C 22.709352,32.27681 22.201352,32.45841 20.734152,33.29961 C 20.011872,33.71381 19.353612,34.01111 19.271372,33.96021 C 19.067912,33.83451 17.795572,32.07611 17.795572,31.92071 C 17.795572,31.85231 17.980282,31.61231 18.206032,31.38741 C 18.431792,31.16251 18.845172,30.71141 19.124682,30.38501 C 19.404182,30.05851 20.484352,28.88461 21.525072,27.77641 C 24.333542,24.78571 26.303322,22.53601 26.303322,22.31911 C 26.303322,22.08491 23.455002,21.99181 19.735932,22.10451 L 17.273172,22.17921 L 17.231282,24.00481 C 17.192602,25.69051 17.165122,25.84341 16.872542,26.00001 C 16.521782,26.18771 14.260682,26.12441 13.925902,25.91751 C 13.762262,25.81631 13.738332,25.13231 13.799022,22.29101 C 13.849052,19.94831 13.928992,18.75511 14.040522,18.68621 C 14.212972,18.57961 30.434012,18.52691 31.400152,18.62981 z M 127.72465,31.97641 C 132.11279,32.53201 136.12497,36.14451 137.56516,40.83651 C 138.20815,42.93131 138.31691,43.72181 138.3147,46.28451 C 138.31191,49.51721 137.99835,51.49321 137.06441,54.16361 C 135.62131,58.28991 135.18252,59.09241 130.69549,65.81281 C 129.96454,66.90761 128.9635,68.43171 128.47095,69.19971 C 127.97839,69.96781 126.83656,71.64781 125.93355,72.93311 C 125.03053,74.21841 123.93583,75.78391 123.50088,76.41211 C 123.06593,77.04021 122.4757,77.89001 122.18927,78.30051 C 120.60272,80.57401 117.93901,85.04621 116.94414,87.10671 C 115.96156,89.14181 115.9476,89.16671 115.75155,89.23201 C 115.66337,89.26141 115.27823,88.76991 114.89568,88.13981 C 114.51314,87.50971 114.11992,86.91151 114.02187,86.81041 C 113.92381,86.70941 113.67567,86.34731 113.47044,86.00581 C 113.01302,85.24471 108.54133,78.82591 107.93677,78.06261 C 107.6966,77.75931 107.50009,77.46171 107.50009,77.40121 C 107.50009,77.34081 107.16156,76.88031 106.74779,76.37791 C 105.34464,74.67441 103.89914,72.70761 100.51031,67.89121 C 98.921762,65.63351 96.583462,61.90761 96.130132,60.91181 C 95.961952,60.54241 95.452782,59.46771 94.998652,58.52371 C 93.214212,54.81421 92.756562,53.54701 92.276482,50.98611 C 92.045532,49.75411 92.005402,48.94631 92.046592,46.35911 C 92.095982,43.25691 92.145792,42.86551 92.773272,40.64931 C 93.236172,39.01431 94.757612,36.75361 96.377862,35.29311 C 97.470452,34.30831 99.748762,33.08271 101.34901,32.61901 C 104.14254,31.80941 107.24618,32.38841 109.84973,34.20461 C 111.62664,35.44421 113.60446,38.56261 114.4379,41.43861 C 114.87783,42.95671 114.90069,43.00081 115.24848,43.00081 C 115.46526,43.00081 115.5499,42.79451 115.69248,41.91861 C 116.17133,38.97711 116.84682,37.39761 118.55889,35.21621 C 119.19963,34.39981 119.70569,33.96731 120.84781,33.25991 C 122.11278,32.47651 123.11412,32.13191 124.62941,31.95821 C 126.09563,31.79021 126.26198,31.79121 127.72465,31.97641 z M 28.800152,55.37791 C 30.418592,55.84081 31.604322,56.88991 32.276702,58.45391 C 32.657732,59.34021 32.868352,61.51641 32.687942,62.70291 C 32.349102,64.93131 30.853052,68.26581 28.770432,71.43461 C 27.313972,73.65061 25.221152,77.15401 24.512892,78.56171 C 24.068872,79.44421 23.620622,80.16621 23.516752,80.16621 C 23.412892,80.16621 22.944522,79.51131 22.475942,78.71091 C 22.007372,77.91051 21.477772,77.05411 21.299062,76.80791 C 21.120352,76.56161 20.936532,76.25931 20.890542,76.13621 C 20.815882,75.93631 19.871462,74.46451 17.571682,70.96421 C 16.470272,69.28771 16.362362,69.09881 15.111612,66.65581 C 13.751112,63.99851 13.396812,62.77881 13.399782,60.76261 C 13.401692,59.46181 13.442832,59.26081 13.897422,58.33151 C 14.601242,56.89251 15.587202,55.92621 16.694272,55.59021 C 17.778172,55.26131 19.462902,55.25331 20.204552,55.57351 C 21.416362,56.09671 22.307422,57.28611 22.722212,58.93411 C 22.810022,59.28301 22.938482,59.56851 23.007662,59.56851 C 23.076842,59.56851 23.213562,59.24941 23.311462,58.85951 C 23.520882,58.02541 24.199562,56.78741 24.748132,56.23881 C 25.702662,55.28431 27.292232,54.94661 28.800152,55.37791 z M 127.93242,130.47321 C 129.40946,130.62791 130.15881,130.84821 131.75464,131.59701 C 133.95346,132.62891 136.11509,134.83141 137.33341,137.28151 C 138.5853,139.79911 138.92504,141.45961 138.90117,144.94451 C 138.87511,148.74921 138.61935,149.99361 136.93777,154.49711 C 136.42592,155.86781 134.72733,159.24831 134.23781,159.87041 C 134.01171,160.15771 133.562,160.81631 133.23846,161.33401 C 132.91491,161.85171 131.97853,163.28221 131.1576,164.51291 C 130.33668,165.74361 129.26202,167.38201 128.76946,168.15391 C 128.27691,168.92581 127.72135,169.74541 127.5349,169.97521 C 127.114,170.49401 125.79479,172.35091 124.10982,174.79631 C 123.40273,175.82241 122.51631,177.09451 122.13999,177.62311 C 121.76368,178.15171 121.2207,179.00311 120.93338,179.51511 C 120.64606,180.02711 119.9462,181.20161 119.37815,182.12511 C 118.8101,183.04861 117.92071,184.66561 117.40173,185.71841 C 116.88275,186.77111 116.40411,187.63251 116.3381,187.63251 C 116.27208,187.63251 115.46545,186.50751 114.54558,185.13241 C 113.62571,183.75741 112.44099,182.02781 111.91287,181.28901 C 111.38475,180.55021 110.54628,179.37481 110.04962,178.67701 C 108.31149,176.23501 107.26835,174.82081 106.30603,173.60181 C 105.77243,172.92581 105.20151,172.18341 105.03733,171.95191 C 104.60537,171.34281 103.42933,169.83171 103.19573,169.58571 C 103.08587,169.46991 102.83775,169.13411 102.64435,168.83941 C 102.45097,168.54461 101.88483,167.73261 101.38628,167.03481 C 98.999742,163.69461 97.659832,161.49571 96.292812,158.67631 C 95.636062,157.32181 95.008752,156.04561 94.898792,155.84041 C 94.496992,155.09051 93.640812,152.90101 93.322872,151.81041 C 93.143392,151.19471 92.941262,150.55021 92.873722,150.37821 C 92.560522,149.58061 92.363862,147.51461 92.377802,145.16841 C 92.404722,140.63941 93.113612,138.21631 95.186742,135.56671 C 96.753152,133.56481 99.255272,131.89891 101.75363,131.19461 C 104.46223,130.43101 107.69239,130.98641 110.13789,132.63621 C 112.3819,134.15011 114.24214,137.25151 115.35601,141.33601 C 115.38565,141.44471 115.52527,141.51141 115.66626,141.48421 C 115.93914,141.43171 115.99389,141.26201 116.38009,139.27271 C 116.67836,137.73631 117.28685,136.32241 118.35192,134.69091 C 119.94739,132.24701 122.32348,130.81161 125.33651,130.47131 C 126.07534,130.38791 126.71342,130.32811 126.75447,130.33861 C 126.79552,130.34911 127.3256,130.40971 127.93242,130.47321 z M 118.05285,232.29976 C 119.71585,234.78576 120.29671,235.63606 122.00272,238.08196 C 122.31765,238.53346 122.96285,239.47376 123.43651,240.17156 C 123.91017,240.86936 125.17317,242.61566 126.24318,244.05226 C 128.28352,246.79166 129.41185,248.35806 130.59605,250.09506 C 130.987,250.66856 131.63238,251.57536 132.03024,252.11006 C 132.4281,252.64486 132.92247,253.41386 133.12884,253.81896 C 133.33521,254.22406 133.72138,254.87136 133.98699,255.25756 C 134.7019,256.29686 137.22914,261.49646 138.04428,263.60516 C 139.15897,266.48876 139.45057,267.87786 139.54866,270.77146 C 139.74476,276.55586 138.66905,279.89396 135.62935,282.93366 C 134.27278,284.29026 131.8355,285.66456 129.93861,286.14256 C 126.95381,286.89466 124.12185,286.31876 121.43476,284.41326 C 119.44907,283.00516 117.47431,279.54356 116.68992,276.09586 C 116.61594,275.77076 116.52071,275.68636 116.26878,275.72276 C 116.03069,275.75716 115.91521,275.91006 115.83896,276.29216 C 115.78161,276.57946 115.61801,277.41016 115.47541,278.13816 C 114.85122,281.32446 112.83878,284.08586 110.1495,285.44616 C 108.34233,286.36036 107.37093,286.59106 105.32835,286.59106 C 103.45302,286.59106 102.04103,286.29646 100.44301,285.57186 C 98.052182,284.48786 95.642312,282.10046 94.541202,279.72516 C 93.784192,278.09216 93.651592,277.70356 93.308202,276.11216 C 92.625362,272.94756 92.965702,268.39726 94.142142,264.96266 C 95.405842,261.27336 96.318052,259.50906 99.112992,255.34886 C 103.61279,248.65096 104.52821,247.29936 104.99374,246.66556 C 105.26399,246.29766 105.74071,245.64316 106.05314,245.21106 C 107.20422,243.61896 107.81953,242.77796 107.99342,242.55906 C 108.19075,242.31066 111.31923,237.60916 112.19201,236.24946 C 113.4116,234.34946 114.62412,232.25066 115.25494,230.94776 C 115.62071,230.19226 115.99013,229.57486 116.07586,229.57576 C 116.16159,229.57666 117.05123,230.80246 118.05285,232.29976 z M 207.71948,238.46856 C 207.85784,238.60686 208.1798,239.16426 208.43496,239.70706 C 208.69012,240.24986 209.11349,241.02976 209.37579,241.44026 C 209.63808,241.85066 210.44016,243.19406 211.1582,244.42546 C 211.87624,245.65676 212.79002,247.20716 213.18882,247.87056 C 214.59572,250.21116 216.26178,253.65596 216.61182,254.94816 C 217.09352,256.72636 217.07821,258.84896 216.57497,260.05986 C 215.7936,261.94006 214.86219,262.81346 213.18014,263.24316 C 211.60562,263.64546 210.2139,263.31456 209.26666,262.31286 C 208.74172,261.75766 208.10379,260.37046 208.10195,259.78006 C 208.10044,259.29936 207.77564,258.88456 207.52298,259.04066 C 207.44444,259.08926 207.33276,259.41406 207.2748,259.76256 C 207.08198,260.92186 206.16277,262.24866 205.04068,262.98716 C 204.5204,263.32956 204.29015,263.37986 203.24958,263.37846 C 201.38283,263.37586 200.35227,262.81366 199.33754,261.24426 C 198.5362,260.00486 198.34013,259.17356 198.3454,257.03776 C 198.34961,255.33666 198.39203,255.04936 198.82612,253.78216 C 199.39749,252.11426 201.11267,248.76776 202.20645,247.18666 C 203.17423,245.78776 205.60618,241.73506 206.48626,240.05466 C 206.98999,239.09276 207.41694,238.28586 207.43503,238.26136 C 207.45312,238.23696 207.58113,238.33016 207.71948,238.46856 z M 209.54816,268.24516 C 212.03911,268.62306 214.6316,270.65426 216.45601,273.65726 C 217.22839,274.92866 217.22383,275.22386 216.42166,275.87786 C 215.75106,276.42456 215.22852,276.73996 214.99321,276.73996 C 214.91509,276.73996 214.56324,276.25296 214.21135,275.65786 C 213.08946,273.76036 211.21513,272.18916 209.51845,271.72406 C 208.52191,271.45086 206.28511,271.46146 205.18399,271.74466 C 203.29,272.23186 201.26296,274.08526 200.42123,276.09956 C 199.62543,278.00386 199.72873,281.29276 200.64663,283.27586 C 202.21144,286.65666 206.8974,287.63486 210.30041,285.29106 C 211.24521,284.64046 211.30609,284.65966 212.16748,285.88156 C 212.80729,286.78916 212.80272,286.91536 212.10332,287.65216 C 211.99499,287.76636 211.33549,288.49206 210.63777,289.26486 C 209.94006,290.03776 209.23485,290.81076 209.07067,290.98276 C 208.90649,291.15486 208.33557,291.79556 207.80197,292.40666 C 207.26837,293.01776 206.27767,294.13826 205.6004,294.89656 C 204.92314,295.65486 204.36902,296.33926 204.36902,296.41736 C 204.36902,296.49546 204.47526,296.60016 204.60512,296.65006 C 204.90847,296.76646 211.15349,296.73546 212.42899,296.61126 L 213.39917,296.51676 L 213.4738,294.70006 C 213.51485,293.70096 213.59929,292.83286 213.66144,292.77106 C 213.72359,292.70936 214.32607,292.66646 215.0003,292.67586 C 215.98247,292.68956 216.26415,292.74486 216.4172,292.95416 C 216.68803,293.32456 216.69212,299.77196 216.42166,299.98646 C 216.21202,300.15266 201.53331,300.36286 200.14434,300.21956 L 199.29422,300.13176 L 199.27934,299.51836 C 199.267,299.00906 199.24612,298.96826 199.15643,299.27806 L 199.04838,299.65116 L 198.9346,299.30666 C 198.87203,299.11716 198.86695,298.62666 198.92334,298.21676 C 199.00835,297.59866 199.15749,297.32616 199.79675,296.62086 C 200.22075,296.15316 200.83011,295.46816 201.1509,295.09876 C 201.47168,294.72936 202.21739,293.88976 202.80803,293.23306 C 204.80735,291.00996 205.41383,290.27666 205.41383,290.08216 C 205.41383,289.97266 205.17012,289.85126 204.85411,289.80336 C 201.8612,289.34956 199.78004,288.12126 198.27317,285.91936 C 196.62019,283.50386 196.20855,278.61436 197.3655,275.13776 C 198.28025,272.38896 200.81102,269.96616 204.14264,268.64986 C 205.1943,268.23426 205.53801,268.17266 206.98105,268.14086 C 207.88406,268.12106 209.03927,268.16796 209.54816,268.24516 z"
     id="path9229" />
  <g
     id="g3796"
     transform="translate(1.5938779e-6,0)">
    <rect
       ry="11.25"
       rx="11.25"
       y="3.4247196"
       x="3.6058116"
       height="311.81104"
       width="223.22835"
       id="rect2382"
       style="fill:none;fill-opacity:1;fill-rule:nonzero;stroke:#000000;stroke-width:0.03543307;stroke-linejoin:round;stroke-miterlimit:4;stroke-dasharray:none;stroke-opacity:1" />
    <g
       transform="translate(3.5433116,3.3622195)"
       id="g3164">
      <path
         style="fill:none;fill-rule:evenodd;stroke:#000000;stroke-width:0.03221492;stroke-linecap:butt;stroke-linejoin:miter;stroke-miterlimit:4;stroke-dasharray:none;stroke-opacity:1"
         d="M 219.74754,0.062511534 L 226.70838,0.062511534"
         id="path3160"
         sodipodi:nodetypes="cc" />
      <path
         sodipodi:nodetypes="cc"
         id="path3162"
         d="M 223.29036,-3.2997195 L 223.29036,3.6063107"
         style="fill:none;fill-rule:evenodd;stroke:#000000;stroke-width:0.03196126;stroke-linecap:butt;stroke-linejoin:miter;stroke-miterlimit:4;stroke-dasharray:none;stroke-opacity:1" />
    </g>
    <g
       transform="matrix(1.0001093,0,0,1,3.519309,315.17275)"
       id="g3168">
      <path
         sodipodi:nodetypes="cc"
         id="path3170"
         d="M 219.74754,0.062511534 L 226.70838,0.062511534"
         style="fill:none;fill-rule:evenodd;stroke:#000000;stroke-width:0.03221492;stroke-linecap:butt;stroke-linejoin:miter;stroke-miterlimit:4;stroke-dasharray:none;stroke-opacity:1" />
      <path
         style="fill:none;fill-rule:evenodd;stroke:#000000;stroke-width:0.03196126;stroke-linecap:butt;stroke-linejoin:miter;stroke-miterlimit:4;stroke-dasharray:none;stroke-opacity:1"
         d="M 223.29036,-3.2997195 L 223.29036,3.6063107"
         id="path3172"
         sodipodi:nodetypes="cc" />
    </g>
    <g
       id="g3174"
       transform="matrix(1.0001093,0,0,1,-219.70906,315.17275)">
      <path
         style="fill:none;fill-rule:evenodd;stroke:#000000;stroke-width:0.03221492;stroke-linecap:butt;stroke-linejoin:miter;stroke-miterlimit:4;stroke-dasharray:none;stroke-opacity:1"
         d="M 219.74754,0.062511534 L 226.70838,0.062511534"
         id="path3176"
         sodipodi:nodetypes="cc" />
      <path
         sodipodi:nodetypes="cc"
         id="path3178"
         d="M 223.29036,-3.2997195 L 223.29036,3.6063107"
         style="fill:none;fill-rule:evenodd;stroke:#000000;stroke-width:0.03196126;stroke-linecap:butt;stroke-linejoin:miter;stroke-miterlimit:4;stroke-dasharray:none;stroke-opacity:1" />
    </g>
    <g
       transform="translate(-219.68504,3.3622195)"
       id="g3180">
      <path
         sodipodi:nodetypes="cc"
         id="path3182"
         d="M 219.74754,0.062511534 L 226.70838,0.062511534"
         style="fill:none;fill-rule:evenodd;stroke:#000000;stroke-width:0.03221492;stroke-linecap:butt;stroke-linejoin:miter;stroke-miterlimit:4;stroke-dasharray:none;stroke-opacity:1" />
      <path
         style="fill:none;fill-rule:evenodd;stroke:#000000;stroke-width:0.03196126;stroke-linecap:butt;stroke-linejoin:miter;stroke-miterlimit:4;stroke-dasharray:none;stroke-opacity:1"
         d="M 223.29036,-3.2997195 L 223.29036,3.6063107"
         id="path3184"
         sodipodi:nodetypes="cc" />
    </g>
  </g>
</svg>
