<?xml version="1.0" encoding="UTF-8" standalone="no"?>
<!-- Created with Inkscape (http://www.inkscape.org/) -->
<svg
   xmlns:dc="http://purl.org/dc/elements/1.1/"
   xmlns:cc="http://creativecommons.org/ns#"
   xmlns:rdf="http://www.w3.org/1999/02/22-rdf-syntax-ns#"
   xmlns:svg="http://www.w3.org/2000/svg"
   xmlns="http://www.w3.org/2000/svg"
   xmlns:sodipodi="http://sodipodi.sourceforge.net/DTD/sodipodi-0.dtd"
   xmlns:inkscape="http://www.inkscape.org/namespaces/inkscape"
   id="svg5645"
   sodipodi:version="0.32"
   inkscape:version="0.46"
   width="230.31497"
   height="318.84155"
   version="1.0"
   sodipodi:docname="3s.svg"
   inkscape:output_extension="org.inkscape.output.svg.inkscape">
  <metadata
     id="metadata5650">
    <rdf:RDF>
      <cc:Work
         rdf:about="">
        <dc:format>image/svg+xml</dc:format>
        <dc:type
           rdf:resource="http://purl.org/dc/dcmitype/StillImage" />
      </cc:Work>
    </rdf:RDF>
  </metadata>
  <defs
     id="defs5648">
    <inkscape:perspective
       sodipodi:type="inkscape:persp3d"
       inkscape:vp_x="0 : 526.18109 : 1"
       inkscape:vp_y="0 : 1000 : 0"
       inkscape:vp_z="744.09448 : 526.18109 : 1"
       inkscape:persp3d-origin="372.04724 : 350.78739 : 1"
       id="perspective5652" />
  </defs>
  <sodipodi:namedview
     inkscape:window-height="667"
     inkscape:window-width="840"
     inkscape:pageshadow="2"
     inkscape:pageopacity="0.0"
     guidetolerance="10.0"
     gridtolerance="10.0"
     objecttolerance="10.0"
     borderopacity="1.0"
     bordercolor="#666666"
     pagecolor="#ffffff"
     id="base"
     showgrid="false"
     inkscape:zoom="1.4489956"
     inkscape:cx="115.15749"
     inkscape:cy="159.42078"
     inkscape:window-x="132"
     inkscape:window-y="174"
     inkscape:current-layer="svg5645" />
  <path
     style="fill:#000000"
     d="M 31.846732,18.64928 C 32.517032,18.69028 33.110192,18.76888 33.164892,18.82398 C 33.345442,19.00568 33.418542,20.65568 33.262882,21.03578 C 33.178902,21.24078 31.662342,22.97408 29.892802,24.88738 C 28.123242,26.80078 26.675422,28.45788 26.675422,28.56988 C 26.675422,28.69988 26.931282,28.80788 27.383902,28.86888 C 28.547972,29.02568 29.683002,29.38608 30.553422,29.87518 C 32.710182,31.08728 33.951272,32.44118 34.760452,34.46468 C 35.509742,36.33848 35.665912,38.52598 35.256142,41.40788 C 34.990022,43.27958 34.610292,44.30958 33.665812,45.72178 C 31.743682,48.59558 28.199892,50.56168 24.933662,50.56638 C 22.149652,50.57048 20.675992,50.15408 18.841382,48.84488 C 17.315752,47.75618 15.203402,45.19438 14.700642,43.82298 C 14.519622,43.32928 16.391642,41.66598 16.906132,41.86348 C 17.014372,41.90498 17.357112,42.37358 17.667772,42.90478 C 18.938502,45.07758 20.807172,46.63418 22.647572,47.05278 C 26.470092,47.92218 30.072392,46.24168 31.612602,42.87048 C 32.646072,40.60838 32.541702,37.36318 31.360402,35.03038 C 30.565322,33.46018 28.294942,32.12748 26.137142,31.96428 C 24.737092,31.85838 23.560042,32.17198 22.038542,33.05618 C 21.416082,33.41788 20.836842,33.71378 20.751372,33.71378 C 20.593062,33.71378 19.424102,32.24658 19.277002,31.86328 C 19.228202,31.73608 19.688032,31.11978 20.437462,30.30778 C 21.120192,29.56818 23.054712,27.47908 24.736422,25.66538 C 26.418132,23.85168 27.794072,22.28618 27.794072,22.18648 C 27.794072,21.91708 18.768402,21.84688 18.591552,22.11488 C 18.523092,22.21868 18.472602,22.87408 18.479362,23.57138 C 18.500062,25.70398 18.509032,25.65278 18.085832,25.81368 C 17.854842,25.90148 17.244802,25.91498 16.567432,25.84728 C 15.526742,25.74328 15.427452,25.70388 15.339782,25.36118 C 15.206902,24.84168 15.386132,18.85078 15.539112,18.69878 C 15.672112,18.56658 29.794802,18.52368 31.846732,18.64928 z M 116.90672,33.95628 C 117.43038,34.76628 118.00388,35.66398 118.18118,35.95108 C 119.05331,37.36358 119.38612,37.85098 119.95529,38.54978 C 120.29516,38.96708 121.08501,40.04648 121.71052,40.94848 C 123.19502,43.08918 125.41775,46.03278 127.27964,48.32378 C 129.4276,50.96678 131.48271,53.55978 131.82195,54.05508 C 131.94121,54.22918 132.62171,55.21058 133.33416,56.23608 C 136.72097,61.11068 138.80931,65.39198 139.2637,68.39208 C 139.74741,71.58588 139.61498,73.38668 138.70142,76.03788 C 138.17254,77.57268 137.57753,78.56778 136.17477,80.26348 C 134.98507,81.70168 134.29533,82.19628 132.1333,83.16178 C 131.05405,83.64368 130.67452,83.73548 129.50796,83.79648 C 127.09236,83.92288 125.60926,83.51358 123.95166,82.26318 C 121.88478,80.70398 120.43365,78.38588 119.56724,75.25918 C 119.31627,74.35348 119.03599,73.34398 118.9444,73.01588 C 118.8195,72.56838 118.69192,72.40708 118.43407,72.37048 C 117.73675,72.27158 117.61405,72.57378 117.71933,74.13038 C 117.81939,75.60988 118.24298,78.17918 118.70362,80.10068 C 119.20894,82.20848 120.85608,86.41788 122.57085,89.98358 C 122.91644,90.70218 123.17672,91.40698 123.14925,91.54968 C 123.10278,91.79108 122.62286,91.81188 116.27753,91.84798 C 112.52556,91.86938 109.45576,91.82918 109.45576,91.75868 C 109.45576,91.68818 109.9256,90.64648 110.49984,89.44378 C 111.07408,88.24098 111.54391,87.19608 111.54391,87.12168 C 111.54391,87.04728 111.68413,86.66208 111.85551,86.26558 C 112.02689,85.86908 112.2553,85.14208 112.36308,84.64978 C 112.47087,84.15758 112.73024,83.08368 112.93946,82.26338 C 113.49218,80.09618 113.78208,78.09668 113.92229,75.48438 C 114.0623,72.87578 113.98474,72.49378 113.31507,72.49378 C 112.77411,72.49378 112.58799,72.85068 112.58799,73.88778 C 112.58799,74.82638 112.26896,76.59518 111.92881,77.54248 C 111.52626,78.66358 110.35419,80.36928 109.36109,81.27928 C 107.55647,82.93288 105.63194,83.68188 103.19725,83.67808 C 99.966482,83.67308 97.635162,82.48398 95.439772,79.72138 C 94.215412,78.18058 93.693032,77.03498 93.259812,74.94038 C 91.862602,68.18498 93.885442,62.45618 101.07557,52.80548 C 102.02292,51.53398 103.26041,49.88958 103.82555,49.15118 C 105.33464,47.17968 107.60958,44.14698 107.96524,43.63258 C 109.16387,41.89888 110.78772,39.65398 111.30344,39.01778 C 111.64079,38.60158 112.63688,37.18678 113.51698,35.87378 C 114.39708,34.56078 115.30559,33.26088 115.53588,32.98498 L 115.9546,32.48338 L 116.90672,33.95628 z M 24.841442,56.24318 C 25.682372,57.61298 27.874932,60.87668 29.102022,62.58508 C 30.314932,64.27378 32.339172,67.85708 32.719412,68.98868 C 33.100072,70.12148 33.173172,71.95298 32.877172,72.94128 C 32.264932,74.98538 30.400322,76.42708 28.716892,76.15788 C 27.826722,76.01558 27.312512,75.68308 26.731232,74.87398 C 26.193262,74.12518 25.811762,73.96108 25.495192,74.34258 C 24.992842,74.94788 26.388712,78.47068 27.678192,79.85198 C 28.048302,80.24838 28.292902,80.62778 28.221762,80.69508 C 28.113802,80.79718 23.023902,80.93718 21.939792,80.86788 C 21.496752,80.83958 21.514742,80.53498 21.985582,80.09268 C 23.245662,78.90888 24.620742,74.71928 23.935762,74.15088 C 23.581942,73.85718 23.305862,74.03348 22.743172,74.91228 C 22.033562,76.02058 21.238792,76.44968 19.951302,76.41968 C 18.805012,76.39288 18.142352,76.14968 17.370972,75.47238 C 16.351842,74.57758 16.158302,74.01218 16.172732,71.97178 C 16.183402,70.45868 16.246352,69.99738 16.579772,68.98868 C 17.060792,67.53338 18.587202,64.70858 20.337642,62.03428 C 21.055752,60.93708 22.177002,58.99908 22.829312,57.72758 C 23.481602,56.45608 24.073792,55.39438 24.145282,55.36828 C 24.216772,55.34218 24.530042,55.73588 24.841442,56.24318 z M 116.84339,131.06568 C 118.70259,133.94448 119.14697,134.59068 120.56677,136.48078 C 121.39871,137.58818 122.30542,138.82998 122.58168,139.24008 C 123.13324,140.05898 123.56103,140.60378 126.49186,144.21988 C 127.58142,145.56418 128.74134,147.01088 129.06948,147.43478 C 129.39762,147.85878 130.08728,148.71888 130.60205,149.34628 C 132.24681,151.35078 134.81563,155.24568 136.3607,158.07778 C 138.58047,162.14658 139.21577,164.05198 139.47083,167.40588 C 139.64581,169.70698 139.59135,170.32918 139.04445,172.27768 C 138.14904,175.46768 135.44162,178.99688 133.2012,179.89448 C 133.01261,179.96998 132.49782,180.20238 132.05724,180.41078 C 130.61415,181.09348 128.2138,181.20588 126.31463,180.67978 C 125.18344,180.36638 124.50826,179.99658 123.59176,179.18858 C 121.19863,177.07878 120.11798,175.10908 119.16921,171.12768 C 118.81237,169.63018 118.7902,169.59288 118.25708,169.59288 C 117.70421,169.59288 117.61449,169.88028 117.73391,171.26838 C 118.06136,175.07458 118.87329,178.45888 120.3525,182.18328 C 121.06738,183.98318 120.97545,183.77408 122.19641,186.37658 C 122.73623,187.52728 123.17791,188.57598 123.17791,188.70718 C 123.17791,188.85488 123.00059,188.98108 122.7118,189.03878 C 122.01045,189.17908 109.70935,189.14638 109.48429,189.00368 C 109.33389,188.90828 109.47858,188.49538 110.11475,187.20458 C 111.04382,185.31928 112.00368,182.97878 112.26035,181.97268 C 113.51303,177.06228 113.98268,174.03878 113.90273,171.39948 C 113.85947,169.97138 113.83068,169.84088 113.53477,169.73168 C 112.90459,169.49928 112.70381,169.86248 112.57329,171.47138 C 112.32033,174.58958 111.50517,176.34358 109.34075,178.42708 C 107.62909,180.07468 105.76943,180.77948 103.13324,180.77948 C 100.32445,180.77948 98.516812,179.99898 96.405132,177.87468 C 94.122462,175.57838 93.245682,173.50838 92.907872,169.61788 C 92.751342,167.81518 92.929762,165.56028 93.352432,163.99958 C 94.420722,160.05508 96.298472,156.34858 99.578742,151.70938 C 100.69924,150.12468 103.77065,146.04718 104.75812,144.83338 C 105.80685,143.54428 108.01278,140.61338 109.08007,139.09098 C 109.48266,138.51668 110.18494,137.58438 110.64069,137.01908 C 111.09645,136.45378 112.18473,134.97718 113.0591,133.73768 C 115.35647,130.48108 115.77665,129.92608 115.94847,129.92178 C 116.03299,129.91968 116.4357,130.43448 116.84339,131.06568 z M 122.52098,226.92588 C 122.56469,227.03976 122.23601,227.86196 121.79057,228.75296 C 119.59832,233.13816 118.39631,237.76396 118.099,242.95956 C 117.97822,245.07036 117.99035,245.46546 118.18513,245.76276 C 118.461,246.18376 118.93575,246.21216 119.14551,245.82026 C 119.23043,245.66156 119.29991,245.19826 119.29991,244.79056 C 119.29991,244.38296 119.42868,243.40926 119.58608,242.62686 C 120.34267,238.86586 123.30062,235.73956 126.74355,235.06226 C 128.05944,234.80336 130.62976,234.94976 131.79065,235.34966 C 133.50901,235.94176 135.31072,237.32976 136.7013,239.13286 C 138.07806,240.91816 138.74439,242.99606 139.00994,246.33246 C 139.151,248.10486 139.13932,248.66876 138.9327,250.06136 C 138.3083,254.26976 136.26575,258.50476 131.83793,264.77156 C 131.15683,265.73556 127.76411,270.16786 126.88579,271.24116 C 125.52139,272.90846 124.6679,274.01416 123.55079,275.56186 C 122.97655,276.35746 122.18562,277.42226 121.79317,277.92816 C 120.11821,280.08736 118.97507,281.63456 117.91769,283.17346 C 117.29766,284.07586 116.56154,285.07766 116.28185,285.39976 L 115.77333,285.98546 L 114.66563,284.20656 C 112.30216,280.41106 109.24639,276.24596 104.1608,269.88816 C 103.25842,268.76006 102.10388,267.32776 101.59516,266.70516 C 101.08645,266.08266 99.907162,264.46586 98.974532,263.11226 C 95.090082,257.47456 92.968012,253.13986 92.585442,250.06136 C 91.947382,244.92686 92.808492,241.71306 95.781932,238.13136 C 96.749072,236.96636 97.887352,236.15076 99.717532,235.31146 C 100.76493,234.83116 101.14263,234.73786 102.32806,234.66716 C 105.36092,234.48626 107.16506,235.17396 109.17288,237.27646 C 111.10335,239.29796 111.78414,240.62346 112.65508,244.05616 C 113.17299,246.09736 113.36688,246.39706 113.96766,246.08476 C 114.27799,245.92346 114.30979,244.99336 114.07649,242.90196 C 113.93183,241.60526 113.84901,241.11946 113.38987,238.87476 C 113.12182,237.56426 111.991,234.22746 111.21638,232.46116 C 110.89258,231.72286 110.57462,230.95096 110.5098,230.74596 C 110.44497,230.54086 110.04706,229.68626 109.62554,228.84696 C 109.20402,228.00756 108.85915,227.22676 108.85915,227.11176 C 108.85915,226.99676 109.01016,226.86228 109.19474,226.81278 C 109.37932,226.76338 112.43535,226.72198 115.98592,226.72078 C 121.35777,226.71908 122.45484,226.75358 122.52098,226.92588 z M 209.38878,237.30676 C 209.6338,237.46286 209.66157,237.40646 208.75688,238.59196 C 207.87845,239.74306 207.25456,241.48236 207.239,242.82356 C 207.22808,243.76436 207.26606,243.94636 207.4823,243.98956 C 207.65692,244.02436 207.88703,243.79926 208.20473,243.28296 C 208.85654,242.22366 209.64952,241.78226 210.89343,241.78656 C 212.47117,241.79196 213.75158,242.57476 214.46397,243.96946 C 214.78966,244.60716 214.83045,244.86666 214.81199,246.18336 C 214.77003,249.17396 213.73894,251.56186 210.01566,257.29146 C 209.56391,257.98666 208.65827,259.59746 208.00313,260.87116 C 207.348,262.14476 206.75923,263.20756 206.69478,263.23276 C 206.63032,263.25806 206.39566,262.95606 206.17331,262.56156 C 204.96957,260.42626 203.98946,258.83776 202.57584,256.73086 C 200.94681,254.30296 199.41137,251.62126 198.75035,250.04936 C 197.41916,246.88396 198.16201,243.67586 200.55024,242.27626 C 201.8834,241.49496 203.51321,241.85486 204.39764,243.12566 C 204.73264,243.60706 204.96666,243.79686 205.22505,243.79686 C 205.56821,243.79686 205.58295,243.75816 205.53447,242.98336 C 205.43136,241.33526 204.5115,239.29706 203.29045,238.01106 C 202.84499,237.54196 202.79149,237.42166 202.97625,237.30486 C 203.26848,237.12016 209.0987,237.12176 209.38878,237.30676 z M 207.22605,268.27976 C 209.24709,268.51276 210.41881,269.01456 212.03695,270.34046 C 213.40354,271.46016 215.23062,273.77466 215.52587,274.76016 C 215.68715,275.29846 215.67271,275.37756 215.35045,275.72056 C 214.83158,276.27286 213.63539,277.00136 213.39838,276.90936 C 213.28499,276.86536 213.03006,276.54516 212.83189,276.19796 C 211.71792,274.24606 209.72453,272.41076 208.2271,271.95826 C 206.99754,271.58666 204.52594,271.62156 203.39571,272.02646 C 200.99542,272.88636 199.07237,275.16486 198.63702,277.66486 C 198.28945,279.66076 198.63568,282.06296 199.5211,283.79856 C 200.46557,285.64986 203.70374,287.02926 205.93632,286.53136 C 206.87177,286.32276 207.85939,285.88136 208.93467,285.19136 C 209.32681,284.93966 209.74041,284.77336 209.85382,284.82176 C 210.10966,284.93096 211.32778,286.58376 211.32778,286.82176 C 211.32778,286.98076 210.71176,287.71056 207.67352,291.15096 C 203.83398,295.49866 203.08981,296.39876 203.22378,296.53266 C 203.31141,296.62036 205.02672,296.66116 207.60877,296.63696 L 211.84982,296.59726 L 211.89175,294.76476 C 211.93309,292.95716 211.93884,292.93016 212.31163,292.78846 C 212.74091,292.62526 213.67424,292.60446 214.49324,292.73986 C 214.87757,292.80336 215.08142,292.92906 215.15546,293.14836 C 215.34512,293.71006 215.22074,299.85346 215.01564,300.05466 C 214.87885,300.18876 212.93917,300.23886 207.30063,300.25406 C 197.41906,300.28056 197.96777,300.29406 197.69088,300.01716 C 197.42705,299.75336 197.36366,298.27156 197.59126,297.68836 C 197.66537,297.49846 198.17503,296.83966 198.72383,296.22446 C 203.43531,290.94236 204.0272,290.22386 203.8463,290.00586 C 203.75727,289.89856 203.53557,289.81076 203.35366,289.81076 C 202.61601,289.81076 200.74508,289.20926 199.8383,288.68046 C 198.59193,287.95366 197.0529,286.39746 196.45627,285.26056 C 195.12703,282.72766 194.88792,279.07116 195.82456,275.59996 C 196.33992,273.69006 197.91434,271.56306 199.75426,270.29116 C 202.07752,268.68506 204.67521,267.98576 207.22605,268.27976 z"
     id="path5656" />
  <g
     id="g3796"
     transform="translate(1.5938779e-6,0)">
    <rect
       ry="11.25"
       rx="11.25"
       y="3.4247196"
       x="3.6058116"
       height="311.81104"
       width="223.22835"
       id="rect2382"
       style="fill:none;fill-opacity:1;fill-rule:nonzero;stroke:#000000;stroke-width:0.03543307;stroke-linejoin:round;stroke-miterlimit:4;stroke-dasharray:none;stroke-opacity:1" />
    <g
       transform="translate(3.5433116,3.3622195)"
       id="g3164">
      <path
         style="fill:none;fill-rule:evenodd;stroke:#000000;stroke-width:0.03221492;stroke-linecap:butt;stroke-linejoin:miter;stroke-miterlimit:4;stroke-dasharray:none;stroke-opacity:1"
         d="M 219.74754,0.062511534 L 226.70838,0.062511534"
         id="path3160"
         sodipodi:nodetypes="cc" />
      <path
         sodipodi:nodetypes="cc"
         id="path3162"
         d="M 223.29036,-3.2997195 L 223.29036,3.6063107"
         style="fill:none;fill-rule:evenodd;stroke:#000000;stroke-width:0.03196126;stroke-linecap:butt;stroke-linejoin:miter;stroke-miterlimit:4;stroke-dasharray:none;stroke-opacity:1" />
    </g>
    <g
       transform="matrix(1.0001093,0,0,1,3.519309,315.17275)"
       id="g3168">
      <path
         sodipodi:nodetypes="cc"
         id="path3170"
         d="M 219.74754,0.062511534 L 226.70838,0.062511534"
         style="fill:none;fill-rule:evenodd;stroke:#000000;stroke-width:0.03221492;stroke-linecap:butt;stroke-linejoin:miter;stroke-miterlimit:4;stroke-dasharray:none;stroke-opacity:1" />
      <path
         style="fill:none;fill-rule:evenodd;stroke:#000000;stroke-width:0.03196126;stroke-linecap:butt;stroke-linejoin:miter;stroke-miterlimit:4;stroke-dasharray:none;stroke-opacity:1"
         d="M 223.29036,-3.2997195 L 223.29036,3.6063107"
         id="path3172"
         sodipodi:nodetypes="cc" />
    </g>
    <g
       id="g3174"
       transform="matrix(1.0001093,0,0,1,-219.70906,315.17275)">
      <path
         style="fill:none;fill-rule:evenodd;stroke:#000000;stroke-width:0.03221492;stroke-linecap:butt;stroke-linejoin:miter;stroke-miterlimit:4;stroke-dasharray:none;stroke-opacity:1"
         d="M 219.74754,0.062511534 L 226.70838,0.062511534"
         id="path3176"
         sodipodi:nodetypes="cc" />
      <path
         sodipodi:nodetypes="cc"
         id="path3178"
         d="M 223.29036,-3.2997195 L 223.29036,3.6063107"
         style="fill:none;fill-rule:evenodd;stroke:#000000;stroke-width:0.03196126;stroke-linecap:butt;stroke-linejoin:miter;stroke-miterlimit:4;stroke-dasharray:none;stroke-opacity:1" />
    </g>
    <g
       transform="translate(-219.68504,3.3622195)"
       id="g3180">
      <path
         sodipodi:nodetypes="cc"
         id="path3182"
         d="M 219.74754,0.062511534 L 226.70838,0.062511534"
         style="fill:none;fill-rule:evenodd;stroke:#000000;stroke-width:0.03221492;stroke-linecap:butt;stroke-linejoin:miter;stroke-miterlimit:4;stroke-dasharray:none;stroke-opacity:1" />
      <path
         style="fill:none;fill-rule:evenodd;stroke:#000000;stroke-width:0.03196126;stroke-linecap:butt;stroke-linejoin:miter;stroke-miterlimit:4;stroke-dasharray:none;stroke-opacity:1"
         d="M 223.29036,-3.2997195 L 223.29036,3.6063107"
         id="path3184"
         sodipodi:nodetypes="cc" />
    </g>
  </g>
</svg>
