<?xml version="1.0" encoding="UTF-8" standalone="no"?>
<!-- Created with Inkscape (http://www.inkscape.org/) -->
<svg
   xmlns:dc="http://purl.org/dc/elements/1.1/"
   xmlns:cc="http://creativecommons.org/ns#"
   xmlns:rdf="http://www.w3.org/1999/02/22-rdf-syntax-ns#"
   xmlns:svg="http://www.w3.org/2000/svg"
   xmlns="http://www.w3.org/2000/svg"
   xmlns:sodipodi="http://sodipodi.sourceforge.net/DTD/sodipodi-0.dtd"
   xmlns:inkscape="http://www.inkscape.org/namespaces/inkscape"
   id="svg5738"
   sodipodi:version="0.32"
   inkscape:version="0.46"
   width="230.31497"
   height="318.84155"
   version="1.0"
   sodipodi:docname="4c.svg"
   inkscape:output_extension="org.inkscape.output.svg.inkscape">
  <metadata
     id="metadata5743">
    <rdf:RDF>
      <cc:Work
         rdf:about="">
        <dc:format>image/svg+xml</dc:format>
        <dc:type
           rdf:resource="http://purl.org/dc/dcmitype/StillImage" />
      </cc:Work>
    </rdf:RDF>
  </metadata>
  <defs
     id="defs5741">
    <inkscape:perspective
       sodipodi:type="inkscape:persp3d"
       inkscape:vp_x="0 : 526.18109 : 1"
       inkscape:vp_y="0 : 1000 : 0"
       inkscape:vp_z="744.09448 : 526.18109 : 1"
       inkscape:persp3d-origin="372.04724 : 350.78739 : 1"
       id="perspective5745" />
  </defs>
  <sodipodi:namedview
     inkscape:window-height="667"
     inkscape:window-width="847"
     inkscape:pageshadow="2"
     inkscape:pageopacity="0.0"
     guidetolerance="10.0"
     gridtolerance="10.0"
     objecttolerance="10.0"
     borderopacity="1.0"
     bordercolor="#666666"
     pagecolor="#ffffff"
     id="base"
     showgrid="false"
     inkscape:zoom="1.4489956"
     inkscape:cx="115.15749"
     inkscape:cy="159.42078"
     inkscape:window-x="22"
     inkscape:window-y="29"
     inkscape:current-layer="svg5738" />
  <path
     style="fill:#000000"
     d="M 200.55954,300.0544 C 200.2799,299.85 200.26833,299.5253 200.19629,289.8683 C 200.13745,281.9796 200.08157,279.8531 199.92915,279.7008 C 199.80552,279.5773 199.14986,279.4813 198.10052,279.4331 C 196.86909,279.3766 196.42984,279.3028 196.32385,279.1348 C 196.09096,278.7656 196.1441,276.67 196.39155,276.4646 C 196.51106,276.3655 197.32805,276.2496 198.25195,276.2009 C 199.34837,276.1431 199.95412,276.0479 200.06333,275.9163 C 200.30752,275.6221 200.17626,271.8659 199.91616,271.7052 C 199.80777,271.6382 199.38959,271.5444 198.98688,271.4967 C 198.58418,271.449 198.18933,271.3696 198.10944,271.3202 C 197.92237,271.2046 197.91987,269.3767 198.10631,269.0283 C 198.2345,268.7888 198.61565,268.7522 201.98459,268.6555 C 204.79484,268.5749 205.77373,268.5924 205.93466,268.7259 C 206.2146,268.9583 206.23081,270.9299 205.95585,271.3059 C 205.80974,271.5057 205.54873,271.5708 204.877,271.5751 C 203.43901,271.5843 203.47006,271.5322 203.47006,273.9354 L 203.47006,276.0172 L 203.86518,276.1674 C 204.11007,276.2605 206.49219,276.3104 210.13091,276.2986 C 214.02358,276.286 216.05372,276.3317 216.15638,276.4344 C 216.40124,276.6792 216.4834,278.73 216.26511,279.1481 C 216.07796,279.5065 213.37955,283.5963 206.73638,293.5901 C 202.71586,299.6384 202.7412,299.6011 202.3912,299.9821 C 202.07482,300.3264 200.99033,300.3692 200.55954,300.0544 z M 205.448,289.8827 C 208.42276,285.3875 210.74884,281.8079 211.49179,280.5819 C 212.11038,279.5611 212.15273,279.5716 207.60323,279.616 L 203.54447,279.6556 L 203.50558,285.831 C 203.4842,289.2275 203.50046,292.0945 203.54173,292.202 C 203.58301,292.3096 203.68034,292.3583 203.75803,292.3102 C 203.83573,292.2622 204.59621,291.1698 205.448,289.8827 z M 161.42836,286.2794 C 160.17428,286.095 158.97566,285.6927 157.34247,284.9079 C 156.09408,284.308 155.56374,283.9467 154.68489,283.0975 C 151.86383,280.3715 150.48632,277.0543 150.69185,273.4816 C 150.80395,271.5331 151.12525,269.8212 151.52646,269.0348 C 151.69546,268.7035 151.83373,268.3224 151.83373,268.1879 C 151.83373,267.7488 152.87668,265.9458 153.66598,265.0205 C 154.09052,264.5228 154.92736,263.5726 155.52563,262.9089 C 156.64518,261.6669 156.79769,261.2583 156.26611,260.9251 C 156.06122,260.7967 155.84074,260.8854 155.14516,261.3759 C 154.22452,262.0252 153.10448,262.5185 151.07594,263.1684 C 149.95982,263.5259 149.592,263.5697 147.66711,263.5747 C 145.79348,263.5796 145.36246,263.5335 144.39334,263.2249 C 142.664,262.6742 142.11409,262.4018 140.83153,261.4604 C 139.15987,260.2334 137.89793,258.7054 136.87974,256.6754 C 136.17757,255.2755 136.04222,254.7089 135.91737,252.647 C 135.81331,250.9284 135.83692,250.4338 136.08071,249.2244 C 136.86472,245.3352 139.46656,242.1103 143.44072,240.102 C 144.30907,239.6631 146.13398,239.1766 147.45139,239.0327 C 150.02007,238.7521 153.88382,239.9862 156.13201,241.8052 C 157.36822,242.8055 159.16763,244.9253 159.79668,246.1224 C 160.08342,246.668 160.42561,247.5909 160.55713,248.1733 C 160.82443,249.357 161.19314,249.7501 161.62812,249.3151 C 161.83823,249.105 161.84471,248.855 161.6873,247.0313 C 161.51484,245.0332 161.00994,242.3124 160.53404,240.8168 C 160.40383,240.4075 160.14148,239.47 159.95102,238.7334 C 159.29245,236.1863 159.0827,235.6157 157.91603,233.1977 C 157.27163,231.8621 156.74439,230.7118 156.74439,230.6416 C 156.74439,230.5713 157.02899,230.4746 157.37682,230.4266 C 158.2695,230.3036 170.38043,230.4979 170.60861,230.6389 C 170.75382,230.7287 170.7245,230.8844 170.48004,231.3217 C 170.30586,231.6333 169.72983,232.8333 169.19994,233.9883 C 167.44246,237.8191 166.21564,242.2592 165.66483,246.7825 C 165.46626,248.4132 165.55526,249.3374 165.92451,249.4791 C 166.35314,249.6436 166.62898,249.2876 166.82438,248.3178 C 167.18866,246.5097 168.61037,244.0071 169.94353,242.8272 C 170.83901,242.0347 172.49198,240.9105 173.54824,240.3758 C 175.44106,239.4175 178.21631,238.8641 180.30986,239.0275 C 183.38561,239.2676 185.47458,240.273 188.07879,242.7666 C 188.95372,243.6044 189.8763,245.0396 190.44208,246.443 C 191.24685,248.4392 191.41889,249.3391 191.42607,251.5902 C 191.43182,253.3888 191.38686,253.768 191.03571,254.8834 C 190.24069,257.4087 189.27336,259.0905 187.82165,260.4715 C 186.63442,261.6009 185.91188,262.1142 184.69936,262.6895 C 182.81017,263.586 179.48467,263.8464 176.98226,263.2939 C 175.82599,263.0386 173.35546,262.117 172.96445,261.7951 C 172.84168,261.694 172.5188,261.4986 172.24693,261.3608 C 171.86056,261.165 171.70619,261.1489 171.54009,261.2867 C 171.13807,261.6203 171.32999,262.047 172.36124,263.112 C 173.83706,264.6362 174.3337,265.3237 175.17491,267.0069 C 175.93828,268.5344 176.55179,270.7252 176.76969,272.7017 C 176.90996,273.9739 176.57645,276.7478 176.13422,277.9873 C 175.42278,279.9813 173.49589,282.5371 171.69958,283.8693 C 170.7179,284.5973 168.60174,285.6823 168.16349,285.6823 C 168.01054,285.6823 167.75373,285.7528 167.5928,285.8389 C 166.70995,286.3114 163.30261,286.5549 161.42836,286.2794 z M 64.111492,286.0413 C 59.801192,285.2826 56.632992,282.9912 54.821132,279.3221 C 53.652432,276.9554 53.330742,275.1349 53.611912,272.479 C 53.867922,270.0608 54.164822,268.9536 55.039382,267.1557 C 55.729642,265.7368 56.064572,265.264 57.555442,263.6041 C 59.253592,261.7135 59.503762,261.2683 59.096672,260.8612 C 58.802672,260.5672 58.570042,260.6476 57.460692,261.4266 C 56.877982,261.8359 56.338132,262.1707 56.261032,262.1707 C 56.183932,262.1707 55.909842,262.2688 55.651932,262.3887 C 55.394032,262.5085 54.613832,262.7931 53.918152,263.0211 C 52.754852,263.4023 52.468092,263.4356 50.346762,263.4356 C 48.305412,263.4356 47.920492,263.3947 46.998592,263.0802 C 45.600642,262.6034 45.033692,262.3056 43.694492,261.3447 C 42.453302,260.4541 41.968512,259.9397 40.911312,258.3912 C 39.382172,256.1515 39.048462,255.1996 38.897392,252.647 C 38.799522,250.9933 38.824732,250.3881 39.039942,249.2244 C 39.320402,247.7079 39.942512,245.9138 40.355762,245.4298 C 40.495522,245.2661 40.861212,244.7554 41.168422,244.2948 C 41.931842,243.1503 43.343332,241.8287 44.853542,240.8443 C 46.609602,239.6996 48.013802,239.196 50.078222,238.9702 C 52.880142,238.6638 56.673962,239.8653 58.811352,241.7359 C 60.900552,243.5643 62.816282,246.3022 63.069352,247.8213 C 63.251842,248.9167 63.443632,249.2448 63.872382,249.195 L 64.260302,249.15 L 64.240952,247.5075 C 64.222252,245.9209 63.778212,243.1875 63.226562,241.2632 C 63.109242,240.854 62.735672,239.5147 62.396402,238.287 C 61.753712,235.9614 60.599772,233.0637 59.762922,231.674 C 59.055592,230.4994 59.092722,230.3762 60.192662,230.2485 C 61.447772,230.1029 72.948692,230.3269 73.055112,230.4991 C 73.101812,230.5747 73.044892,230.7842 72.928612,230.9648 C 72.446292,231.7137 70.555312,236.1729 70.075952,237.6918 C 68.997232,241.1098 68.285232,244.5807 68.107982,247.2854 C 68.006192,248.8386 68.144102,249.3732 68.646592,249.3732 C 69.018882,249.3732 69.088382,249.2405 69.333962,248.0607 C 69.450032,247.5031 69.882942,246.3857 70.320042,245.5155 C 71.225472,243.7131 72.514552,242.2786 74.230432,241.164 C 76.807212,239.4903 78.461652,238.9571 81.415452,238.8483 C 83.995752,238.7533 85.063262,238.9647 86.983312,239.951 C 88.988112,240.9808 91.281452,243.1975 92.201042,244.9943 C 92.596992,245.768 93.303242,247.6397 93.516412,248.4804 C 93.820442,249.6793 93.771342,252.9814 93.431782,254.1723 C 92.470292,257.5442 91.359392,259.2999 88.981192,261.206 C 87.254372,262.59 85.654802,263.1455 82.935692,263.3057 C 80.417472,263.4541 77.557972,262.7798 75.465782,261.5441 C 74.356502,260.889 73.955552,260.8624 73.888212,261.4393 C 73.852812,261.7427 74.070922,262.0533 74.945702,262.9452 C 76.370602,264.3982 76.687102,264.8234 77.475242,266.3436 C 78.961152,269.2098 79.515772,272.4753 79.076842,275.7736 C 78.822742,277.6831 78.423922,278.6591 77.095322,280.6229 C 76.061572,282.1508 75.913052,282.3235 74.998392,283.0604 C 72.648112,284.9541 71.181922,285.5914 68.110132,286.0544 C 66.350582,286.3196 65.680132,286.3174 64.111492,286.0413 z M 204.81914,263.4218 C 203.59533,263.0928 202.88501,262.6324 202.10325,261.6616 C 201.1932,260.5314 200.86784,259.5903 200.90046,258.1823 C 200.93769,256.5749 201.78859,254.9307 203.23892,253.6637 C 204.03927,252.9646 203.36225,253.0063 201.95398,253.743 C 200.43149,254.5394 199.4235,254.717 198.30784,254.3857 C 195.65984,253.5994 194.52948,251.8548 194.73348,248.8693 C 194.84995,247.1645 195.16215,246.3966 196.15748,245.3663 C 197.24235,244.2434 198.30037,243.8052 199.85997,243.8329 C 201.21089,243.8569 202.09904,244.2282 203.0731,245.1763 C 203.88858,245.97 204.38688,246.8585 204.65511,247.9972 C 204.85161,248.8314 205.03379,249.0595 205.295,248.7983 C 205.41196,248.6813 205.40501,248.2931 205.27006,247.405 C 204.89817,244.9576 204.4763,243.4781 203.67232,241.8018 C 203.17823,240.7717 203.04651,240.3623 203.16948,240.2394 C 203.35551,240.0533 209.91496,239.9949 210.0977,240.1776 C 210.15537,240.2353 210.05962,240.5366 209.88487,240.8472 C 208.50786,243.2951 207.19026,246.9487 207.19026,248.3191 C 207.19026,249.0654 207.64283,248.8304 207.84684,247.9783 C 208.07172,247.039 208.90079,245.6126 209.51386,245.1102 C 210.89888,243.9753 213.38276,243.6459 214.89037,244.3971 C 216.91308,245.4051 217.89383,247.2822 217.71493,249.8032 C 217.67032,250.432 217.50367,251.2377 217.34028,251.6147 C 217.02369,252.3452 216.06047,253.2841 214.97501,253.9202 C 214.36103,254.28 214.19655,254.3076 212.94351,254.2606 C 211.69417,254.2137 211.4618,254.1541 210.16642,253.5475 C 209.3889,253.1834 208.64703,252.7983 208.51782,252.6918 C 208.38861,252.5853 208.23794,252.4982 208.183,252.4982 C 207.89845,252.4982 208.18965,252.9265 209.18361,253.9699 C 210.48263,255.3336 210.98931,256.2583 211.22737,257.6998 C 211.62996,260.1376 210.61885,262.0304 208.32465,263.1339 C 207.09108,263.7272 206.22112,263.7987 204.81914,263.4218 z M 161.91009,88.9937 C 157.34496,88.9611 156.42256,88.9196 156.35495,88.7434 C 156.31037,88.6272 156.54096,87.9751 156.86739,87.2943 C 158.47496,83.9417 159.16017,82.1226 159.99615,78.9882 C 160.63768,76.5828 161.07026,73.9963 161.16692,71.9881 C 161.23797,70.5115 161.21479,70.2359 161.00158,70.0227 C 160.67868,69.6998 160.33267,69.8421 160.23807,70.3366 C 160.00607,71.5495 159.27094,73.3818 158.56192,74.5144 C 157.59059,76.066 157.26588,76.4234 155.90477,77.4391 C 150.4754,81.4905 144.29165,81.5282 139.72387,77.5377 C 138.21732,76.2215 137.25925,74.9056 136.44629,73.0359 C 135.68602,71.2873 135.46486,70.1006 135.46486,67.7695 C 135.46486,65.9973 135.51177,65.6382 135.92519,64.245 C 136.58269,62.0293 137.5282,60.3043 138.72883,59.1303 C 141.49795,56.4224 142.8823,55.8043 146.48744,55.6662 C 148.22327,55.5998 148.71094,55.6353 149.95725,55.9192 C 151.67636,56.3109 152.92467,56.7966 154.03152,57.5047 C 154.92558,58.0766 155.30616,58.1011 155.3788,57.5915 C 155.41424,57.3428 155.14387,56.9519 154.35074,56.1049 C 152.92281,54.5801 152.53259,54.0293 151.69158,52.3516 C 150.43218,49.8392 149.85724,47.3551 149.97921,44.9529 C 150.08941,42.7824 150.30396,41.8585 151.05797,40.3075 C 152.21736,37.9227 154.2226,35.7751 156.47348,34.5076 C 158.27361,33.4939 161.91145,32.7321 164.03349,32.9244 C 166.45998,33.1442 169.03818,33.9969 170.78749,35.158 C 171.67786,35.749 173.26381,37.3578 173.96676,38.3832 C 175.21905,40.2097 176.17998,42.9926 176.22086,44.9112 C 176.23093,45.3834 175.84477,48.3346 175.65281,49.2527 C 175.40551,50.4354 174.41543,52.5747 173.63328,53.6165 C 173.44892,53.862 172.65893,54.7776 171.87773,55.6512 C 171.09652,56.5248 170.38555,57.3737 170.29777,57.5377 C 169.97347,58.1436 170.53367,58.6359 171.08893,58.2329 C 173.71318,56.3282 177.04406,55.3233 180.03282,55.5346 C 184.51911,55.8518 187.84977,58.1833 190.03655,62.5374 C 190.8119,64.0812 191.10737,65.4336 191.11108,67.4556 C 191.11783,71.1521 189.94329,73.9367 187.25096,76.6073 C 184.38809,79.447 180.82317,80.7975 177.39459,80.3413 C 174.07158,79.8991 171.02352,78.2581 168.90519,75.7709 C 167.36808,73.9661 166.70787,72.8521 166.34131,71.4448 C 166.00703,70.1614 165.9785,70.0946 165.72274,69.9965 C 165.30401,69.8358 165.07763,70.2 165.07763,71.0344 C 165.07763,72.6619 165.63428,75.822 166.41317,78.6162 C 166.6413,79.4346 167.04255,80.9078 167.30481,81.8899 C 167.66192,83.2273 168.09507,84.3098 169.03007,86.2016 C 169.7167,87.5909 170.22994,88.7716 170.1706,88.8253 C 169.99159,88.9874 167.66866,89.0348 161.91009,88.9937 z M 61.507362,88.6607 C 59.810222,88.6093 59.061542,88.5348 59.082822,88.4195 C 59.099762,88.3278 59.612652,87.1559 60.222582,85.8154 C 62.143512,81.5934 63.346162,77.2221 63.902342,72.4405 C 64.102732,70.7177 64.012562,69.8391 63.613442,69.6255 C 63.196832,69.4025 63.052502,69.6095 62.729232,70.8933 C 62.251312,72.7915 60.934212,75.1543 59.663792,76.3927 C 58.558632,77.4699 55.620862,79.1967 54.077132,79.6764 C 52.508292,80.1639 51.178462,80.3395 49.751532,80.2477 C 47.811492,80.1228 46.844752,79.8574 45.139452,78.9814 C 43.989342,78.3907 43.414882,77.9719 42.434852,77.0101 C 40.906282,75.5099 40.236062,74.5284 39.505602,72.7206 C 38.668912,70.6499 38.523362,69.8418 38.557282,67.4556 C 38.584752,65.5229 38.625672,65.2485 39.123082,63.661 C 40.047842,60.7096 41.159252,59.0688 43.391752,57.3591 C 45.260102,55.9282 46.541992,55.5049 49.379512,55.3815 C 51.010262,55.3106 51.535992,55.3464 52.727692,55.6099 C 54.448952,55.9905 55.491322,56.3935 56.687182,57.1407 C 57.648952,57.7417 58.233582,57.8683 58.233582,57.4757 C 58.233582,57.0665 57.918042,56.6217 56.749332,55.383 C 55.791522,54.3679 55.448502,53.8536 54.615752,52.1837 C 53.752312,50.4522 53.574982,49.9499 53.249992,48.3151 C 52.836892,46.237 52.802712,45.4742 53.034132,43.4975 C 53.315382,41.0952 54.056352,39.4595 55.876762,37.2225 C 58.607122,33.8673 63.229562,32.2087 68.006932,32.8701 C 69.289552,33.0477 71.552492,33.8366 72.804112,34.5427 C 74.491882,35.4947 76.358332,37.5652 77.388722,39.6285 C 78.566662,41.9873 78.903402,43.77 78.632532,46.2132 C 78.408062,48.2379 78.125592,49.4908 77.617602,50.7147 C 77.110902,51.9356 76.099942,53.6086 75.459552,54.2861 C 73.622412,56.2297 72.800612,57.2972 72.845132,57.6824 C 72.919302,58.3242 73.430892,58.2734 74.494052,57.5187 C 75.597552,56.7353 76.839452,56.2208 78.920782,55.6846 C 80.294432,55.3308 80.638562,55.2976 82.179772,55.3709 C 84.893162,55.4998 86.889812,56.2317 88.817352,57.804 C 90.461462,59.1451 91.943222,61.1884 92.795072,63.289 L 93.277842,64.4794 L 93.274222,67.158 C 93.271872,68.8971 93.202982,70.0714 93.077782,70.5061 C 92.162812,73.6836 90.228882,76.2937 87.388362,78.1847 C 84.198042,80.3086 81.129682,80.7698 77.636792,79.6503 C 74.871612,78.7641 73.128032,77.5018 70.977242,74.829 C 69.914682,73.5086 69.165622,72.0772 68.948692,70.9526 C 68.722332,69.7791 68.504622,69.5072 67.959112,69.7165 C 67.743252,69.7993 67.725832,70.0221 67.810812,71.6119 C 67.933842,73.9131 68.664392,77.3494 70.090882,82.3364 C 70.396492,83.4048 71.586842,86.135 72.316972,87.4422 C 72.605502,87.9588 72.803482,88.4807 72.756922,88.602 C 72.684262,88.7913 72.055672,88.8164 68.317482,88.7788 C 65.922342,88.7548 62.857792,88.7016 61.507362,88.6607 z M 20.199702,78.6347 C 20.156502,78.5222 20.419182,77.8358 20.783432,77.1094 C 21.887482,74.9079 23.111832,70.9102 22.872822,70.2874 C 22.720102,69.8894 22.511582,70.0392 22.205852,70.7666 C 21.417722,72.6416 21.227172,72.9542 20.450732,73.6463 C 19.415842,74.5686 18.509652,74.8834 17.165902,74.7873 C 14.730532,74.613 13.157702,73.1334 12.684012,70.571 C 12.087582,67.3446 14.096392,64.6391 17.238092,64.4374 C 18.234552,64.3735 18.422852,64.4095 19.347112,64.8412 C 19.905292,65.1019 20.713562,65.5568 21.143262,65.8521 C 21.572962,66.1474 21.966342,66.3473 22.017422,66.2962 C 22.121552,66.192 21.777052,65.7605 20.602282,64.5236 C 19.217462,63.0654 18.558982,60.8554 18.947752,58.9705 C 19.284132,57.3395 20.230832,56.1895 21.919942,55.3599 C 22.991492,54.8336 24.540422,54.8149 25.824062,55.3126 C 28.216502,56.2402 29.663752,59.4577 28.795002,61.9175 C 28.463342,62.8565 27.470372,64.3325 26.626392,65.1411 C 26.331972,65.4231 26.091082,65.7005 26.091082,65.7576 C 26.091082,66.0963 26.628742,65.9362 27.453042,65.3519 C 28.818572,64.384 29.279932,64.2126 30.557932,64.1983 C 31.516412,64.1875 31.801012,64.2487 32.545452,64.6253 C 34.161562,65.443 34.944202,66.7141 35.112632,68.7949 C 35.343302,71.6444 33.837212,74.2183 31.584232,74.825 C 28.905442,75.5463 26.539852,74.1709 25.524372,71.3017 C 24.672512,68.8947 24.356382,70.5561 25.109422,73.4823 C 25.597282,75.3781 25.972362,76.4228 26.548002,77.4893 C 26.787762,77.9336 26.983932,78.3778 26.983932,78.4764 C 26.983932,78.7803 26.422552,78.8353 23.296262,78.8374 C 20.871032,78.839 20.262812,78.7992 20.199702,78.6347 z M 23.919112,49.7436 C 23.758952,49.1055 23.925452,47.4353 24.164282,47.2842 C 24.282812,47.2092 24.827282,47.1468 25.374222,47.1456 C 26.609942,47.1428 26.602732,47.1593 26.458812,44.664 C 26.356932,42.8977 26.334502,42.7999 26.002352,42.6736 C 25.810232,42.6006 23.092402,42.5377 19.962732,42.5339 C 16.561772,42.5297 14.215332,42.4699 14.130512,42.385 C 13.941402,42.1959 13.828252,40.7422 13.951512,40.0852 C 14.005622,39.7967 14.391292,39.0403 14.808572,38.4042 C 15.225842,37.768 15.717962,37.0132 15.902172,36.7268 C 16.086372,36.4403 16.824312,35.3019 17.542042,34.197 C 18.259772,33.0921 19.594802,31.0159 20.508772,29.5831 C 21.422742,28.1504 22.895542,25.8736 23.781662,24.5237 C 24.667772,23.1737 25.624212,21.7009 25.907082,21.2507 C 26.189952,20.8006 26.548582,20.2649 26.704052,20.0603 C 26.859512,19.8557 27.154332,19.4371 27.359202,19.1302 C 27.711062,18.6031 27.774902,18.5723 28.511082,18.5745 C 28.939732,18.5757 29.376972,18.6316 29.482712,18.6987 C 29.636282,18.7962 29.681212,20.8598 29.705932,28.9518 C 29.722952,34.5239 29.792662,39.1387 29.860832,39.2069 C 29.929012,39.2751 30.728042,39.3737 31.636462,39.426 C 32.984752,39.5036 33.324142,39.5704 33.484212,39.7893 C 33.714482,40.1042 33.747682,41.7384 33.535162,42.2974 C 33.391992,42.6739 33.368842,42.6791 31.814092,42.6791 C 30.947312,42.6791 30.107612,42.7489 29.948082,42.8343 C 29.680542,42.9775 29.659872,43.146 29.681822,45.0039 C 29.705272,46.9882 29.711012,47.0203 30.065762,47.1552 C 30.263832,47.2305 30.626822,47.2921 30.872402,47.2921 C 31.732102,47.2921 31.894592,47.4956 31.894592,48.572 C 31.894592,50.224 32.171282,50.1195 27.799972,50.1195 L 24.013442,50.1195 L 23.919112,49.7436 z M 26.481632,34.7923 C 26.504432,29.3902 26.403762,26.7273 26.179492,26.8002 C 26.000462,26.8584 25.125032,28.136 22.487542,32.1881 C 21.528652,33.6613 20.306642,35.5363 19.771962,36.3547 C 19.237292,37.1732 18.666092,38.0908 18.502632,38.3938 C 18.222242,38.9136 18.220132,38.9534 18.465262,39.0975 C 18.629132,39.1938 20.154002,39.2376 22.594102,39.2161 L 26.463102,39.1821 L 26.481632,34.7923 z"
     id="path5749" />
  <g
     id="g3796"
     transform="translate(1.593878e-6,0)">
    <rect
       ry="11.25"
       rx="11.25"
       y="3.4247196"
       x="3.6058116"
       height="311.81104"
       width="223.22835"
       id="rect2382"
       style="fill:none;fill-opacity:1;fill-rule:nonzero;stroke:#000000;stroke-width:0.03543307;stroke-linejoin:round;stroke-miterlimit:4;stroke-dasharray:none;stroke-opacity:1" />
    <g
       transform="translate(3.5433116,3.3622195)"
       id="g3164">
      <path
         style="fill:none;fill-rule:evenodd;stroke:#000000;stroke-width:0.03221492;stroke-linecap:butt;stroke-linejoin:miter;stroke-miterlimit:4;stroke-dasharray:none;stroke-opacity:1"
         d="M 219.74754,0.062511534 L 226.70838,0.062511534"
         id="path3160"
         sodipodi:nodetypes="cc" />
      <path
         sodipodi:nodetypes="cc"
         id="path3162"
         d="M 223.29036,-3.2997195 L 223.29036,3.6063107"
         style="fill:none;fill-rule:evenodd;stroke:#000000;stroke-width:0.03196126;stroke-linecap:butt;stroke-linejoin:miter;stroke-miterlimit:4;stroke-dasharray:none;stroke-opacity:1" />
    </g>
    <g
       transform="matrix(1.0001093,0,0,1,3.519309,315.17275)"
       id="g3168">
      <path
         sodipodi:nodetypes="cc"
         id="path3170"
         d="M 219.74754,0.062511534 L 226.70838,0.062511534"
         style="fill:none;fill-rule:evenodd;stroke:#000000;stroke-width:0.03221492;stroke-linecap:butt;stroke-linejoin:miter;stroke-miterlimit:4;stroke-dasharray:none;stroke-opacity:1" />
      <path
         style="fill:none;fill-rule:evenodd;stroke:#000000;stroke-width:0.03196126;stroke-linecap:butt;stroke-linejoin:miter;stroke-miterlimit:4;stroke-dasharray:none;stroke-opacity:1"
         d="M 223.29036,-3.2997195 L 223.29036,3.6063107"
         id="path3172"
         sodipodi:nodetypes="cc" />
    </g>
    <g
       id="g3174"
       transform="matrix(1.0001093,0,0,1,-219.70906,315.17275)">
      <path
         style="fill:none;fill-rule:evenodd;stroke:#000000;stroke-width:0.03221492;stroke-linecap:butt;stroke-linejoin:miter;stroke-miterlimit:4;stroke-dasharray:none;stroke-opacity:1"
         d="M 219.74754,0.062511534 L 226.70838,0.062511534"
         id="path3176"
         sodipodi:nodetypes="cc" />
      <path
         sodipodi:nodetypes="cc"
         id="path3178"
         d="M 223.29036,-3.2997195 L 223.29036,3.6063107"
         style="fill:none;fill-rule:evenodd;stroke:#000000;stroke-width:0.03196126;stroke-linecap:butt;stroke-linejoin:miter;stroke-miterlimit:4;stroke-dasharray:none;stroke-opacity:1" />
    </g>
    <g
       transform="translate(-219.68504,3.3622195)"
       id="g3180">
      <path
         sodipodi:nodetypes="cc"
         id="path3182"
         d="M 219.74754,0.062511534 L 226.70838,0.062511534"
         style="fill:none;fill-rule:evenodd;stroke:#000000;stroke-width:0.03221492;stroke-linecap:butt;stroke-linejoin:miter;stroke-miterlimit:4;stroke-dasharray:none;stroke-opacity:1" />
      <path
         style="fill:none;fill-rule:evenodd;stroke:#000000;stroke-width:0.03196126;stroke-linecap:butt;stroke-linejoin:miter;stroke-miterlimit:4;stroke-dasharray:none;stroke-opacity:1"
         d="M 223.29036,-3.2997195 L 223.29036,3.6063107"
         id="path3184"
         sodipodi:nodetypes="cc" />
    </g>
  </g>
</svg>
