<?xml version="1.0" encoding="UTF-8" standalone="no"?>
<!-- Created with Inkscape (http://www.inkscape.org/) -->
<svg
   xmlns:dc="http://purl.org/dc/elements/1.1/"
   xmlns:cc="http://creativecommons.org/ns#"
   xmlns:rdf="http://www.w3.org/1999/02/22-rdf-syntax-ns#"
   xmlns:svg="http://www.w3.org/2000/svg"
   xmlns="http://www.w3.org/2000/svg"
   xmlns:sodipodi="http://sodipodi.sourceforge.net/DTD/sodipodi-0.dtd"
   xmlns:inkscape="http://www.inkscape.org/namespaces/inkscape"
   id="svg9820"
   sodipodi:version="0.32"
   inkscape:version="0.46"
   width="230.31497"
   height="318.84155"
   version="1.0"
   sodipodi:docname="4d.svg"
   inkscape:output_extension="org.inkscape.output.svg.inkscape">
  <metadata
     id="metadata9825">
    <rdf:RDF>
      <cc:Work
         rdf:about="">
        <dc:format>image/svg+xml</dc:format>
        <dc:type
           rdf:resource="http://purl.org/dc/dcmitype/StillImage" />
      </cc:Work>
    </rdf:RDF>
  </metadata>
  <defs
     id="defs9823">
    <inkscape:perspective
       sodipodi:type="inkscape:persp3d"
       inkscape:vp_x="0 : 526.18109 : 1"
       inkscape:vp_y="0 : 1000 : 0"
       inkscape:vp_z="744.09448 : 526.18109 : 1"
       inkscape:persp3d-origin="372.04724 : 350.78739 : 1"
       id="perspective9827" />
  </defs>
  <sodipodi:namedview
     inkscape:window-height="667"
     inkscape:window-width="799"
     inkscape:pageshadow="2"
     inkscape:pageopacity="0.0"
     guidetolerance="10.0"
     gridtolerance="10.0"
     objecttolerance="10.0"
     borderopacity="1.0"
     bordercolor="#666666"
     pagecolor="#ffffff"
     id="base"
     showgrid="false"
     inkscape:zoom="1.4489956"
     inkscape:cx="115.15749"
     inkscape:cy="159.42078"
     inkscape:window-x="176"
     inkscape:window-y="232"
     inkscape:current-layer="svg9820" />
  <path
     style="fill:#e00000;fill-opacity:1"
     d="M 201.90339,300.123 C 201.70749,299.9992 201.67583,298.6843 201.65774,289.9176 C 201.64244,282.5092 201.5911,279.8084 201.46311,279.6802 C 201.36429,279.5812 200.57921,279.4692 199.64432,279.4206 C 198.73737,279.3734 197.92329,279.2589 197.82975,279.1654 C 197.72529,279.0609 197.66912,278.4891 197.68355,277.6768 C 197.70211,276.6321 197.75958,276.3188 197.95987,276.1704 C 198.12532,276.0478 198.76988,275.983 199.82434,275.983 C 200.8168,275.983 201.47439,275.9208 201.53603,275.8211 C 201.64723,275.6411 201.66126,271.6431 201.55108,271.5329 C 201.51282,271.4947 201.11936,271.4142 200.67672,271.3542 C 200.23407,271.2941 199.78928,271.1939 199.68831,271.1315 C 199.46776,270.9952 199.43778,268.9752 199.65126,268.637 C 199.77016,268.4487 200.41565,268.4049 203.62277,268.3674 L 207.4523,268.3227 L 207.60769,268.7315 C 207.78492,269.1976 207.64046,271.1431 207.41843,271.2803 C 207.34007,271.3287 206.79704,271.4116 206.2117,271.4644 C 205.18895,271.5567 205.14243,271.578 205.01982,272.0102 C 204.88228,272.495 204.96713,275.7249 205.1241,275.9789 C 205.18676,276.0803 207.33866,276.1329 211.4232,276.1329 C 216.22316,276.1329 217.65393,276.1753 217.74565,276.3203 C 217.81085,276.4234 217.84305,277.0704 217.81719,277.7582 L 217.77019,279.0087 L 215.71015,282.1058 C 214.57713,283.8093 213.32956,285.7089 212.93779,286.3274 C 212.54601,286.9458 211.94377,287.8601 211.59946,288.3592 C 211.25515,288.8584 210.26602,290.3426 209.40138,291.6574 C 208.53676,292.9723 207.79413,294.0819 207.7511,294.1231 C 207.70806,294.1643 207.36383,294.6703 206.98614,295.2475 C 204.74481,298.6726 203.95436,299.8465 203.75496,300.0459 C 203.50285,300.298 202.26197,300.3497 201.90339,300.123 z M 206.1272,291.0823 C 206.51261,290.4872 207.06202,289.663 207.34811,289.2508 C 207.63419,288.8385 208.31475,287.8265 208.86045,287.002 C 209.40614,286.1774 209.94256,285.3679 210.05248,285.203 C 210.90698,283.9211 213.01216,280.5869 213.2164,280.192 C 213.35543,279.9231 213.42481,279.6588 213.37056,279.6046 C 213.22499,279.4592 205.24789,279.4846 205.10155,279.6309 C 205.03289,279.6995 204.9577,282.5498 204.93447,285.9649 C 204.8945,291.8382 204.90666,292.1739 205.15934,292.1692 C 205.32339,292.1662 205.69686,291.7467 206.1272,291.0823 z M 61.939452,286.5148 C 61.496562,285.7317 61.151432,285.1717 60.345542,283.9287 C 60.051532,283.4752 59.200262,282.1596 58.453842,281.0053 C 57.707422,279.8509 56.967922,278.7378 56.810512,278.5316 C 56.653112,278.3255 56.109852,277.5496 55.603282,276.8076 C 53.265672,273.3831 50.442282,269.7133 47.990742,266.913 C 45.883572,264.506 42.236102,260.7618 41.078662,259.8176 C 40.645772,259.4644 40.291592,259.0739 40.291592,258.9497 C 40.291592,258.7438 42.844262,255.7827 44.929082,253.5702 C 45.395272,253.0755 46.439472,251.8949 47.249502,250.9467 C 48.059542,249.9984 48.866532,249.0539 49.042802,248.8478 C 49.219082,248.6417 49.631612,248.1357 49.959532,247.7234 C 50.287442,247.3112 50.835202,246.6555 51.176762,246.2664 C 51.887552,245.4566 53.447552,243.3946 54.837912,241.4269 C 55.362282,240.6848 56.141132,239.6054 56.568692,239.0282 C 57.241502,238.1199 58.515252,236.0815 59.967872,233.5883 C 60.194362,233.1996 60.791632,232.072 61.295142,231.0825 C 62.422002,228.8681 62.514012,228.7578 62.924572,229.1293 C 63.092042,229.2809 63.229072,229.5028 63.229072,229.6224 C 63.229072,229.742 63.380862,230.0297 63.566392,230.2616 C 63.751912,230.4936 64.308482,231.3661 64.803212,232.2005 C 66.882852,235.7079 70.069302,240.6222 71.600102,242.683 C 72.066912,243.3114 72.901052,244.4665 73.453732,245.2498 C 74.884952,247.2783 75.211162,247.6871 76.867052,249.5279 C 78.210542,251.0214 78.520732,251.3901 78.520732,251.4932 C 78.520732,251.5509 79.802532,252.8723 81.369172,254.4297 C 82.935822,255.9872 84.217622,257.3328 84.217622,257.4199 C 84.217622,257.6099 83.969082,257.9008 80.882112,261.3231 C 79.564632,262.7837 78.140162,264.4079 77.716632,264.9324 C 77.293112,265.4569 76.541812,266.374 76.047082,266.9705 C 75.552352,267.567 75.012642,268.2367 74.847732,268.4588 C 74.682822,268.6808 74.109382,269.4295 73.573432,270.1225 C 71.059762,273.3727 70.377512,274.301 69.431842,275.7581 C 69.217782,276.0879 68.720732,276.83 68.327282,277.4072 C 67.933822,277.9844 67.411122,278.794 67.165722,279.2062 C 66.920312,279.6185 66.373832,280.5155 65.951312,281.1995 C 65.528792,281.8835 65.022702,282.7606 64.826672,283.1485 C 63.186062,286.3947 62.720462,287.2269 62.544722,287.2269 C 62.433332,287.2269 62.160962,286.9064 61.939452,286.5148 z M 168.17811,285.3154 C 168.01175,285.0887 167.52062,284.3193 167.08672,283.6058 C 164.59261,279.5042 161.62364,275.2865 156.73048,268.8938 C 154.63925,266.1617 148.94045,260.0706 147.25821,258.7694 C 146.33521,258.0555 145.84777,257.565 145.83898,257.3412 C 145.83149,257.1506 147.09442,255.7066 150.51364,251.9961 C 152.45218,249.8924 153.38709,248.8183 155.08059,246.749 C 155.72165,245.9656 156.62633,244.8862 157.09099,244.3503 C 158.18596,243.0873 160.3073,240.2448 161.67814,238.2036 C 161.81657,237.9975 162.07677,237.6602 162.25633,237.454 C 162.56168,237.1035 164.5114,233.9582 165.78776,231.7571 C 166.09855,231.2212 166.75243,230.0068 167.24084,229.0586 C 167.72924,228.1104 168.23474,227.3137 168.36416,227.2882 C 168.52187,227.2571 168.8424,227.6526 169.33614,228.4876 C 169.74131,229.1727 170.38717,230.223 170.7714,230.8217 C 171.15564,231.4203 171.47,231.9437 171.47,231.9848 C 171.47,232.1241 173.82256,235.6967 175.77944,238.5292 C 180.25999,245.0146 182.44875,247.6748 187.22444,252.4396 C 188.83948,254.0509 190.19568,255.4704 190.23823,255.5941 C 190.33082,255.8633 190.45318,255.7177 185.77438,260.9052 C 184.21463,262.6346 184.19807,262.6542 182.59266,264.6642 C 181.93409,265.4887 181.06611,266.5681 180.66381,267.0629 C 178.7076,269.4685 176.79961,272.0173 175.40951,274.0818 C 174.56662,275.3336 173.75706,276.5243 173.61049,276.7279 C 173.46391,276.9315 173.18602,277.4035 172.99297,277.777 C 172.79991,278.1504 172.59752,278.4898 172.54322,278.5312 C 172.4889,278.5727 172.37015,278.7415 172.27933,278.9064 C 172.18851,279.0713 171.71933,279.8809 171.23673,280.7054 C 170.75411,281.53 169.97082,282.9973 169.49609,283.9661 C 169.02136,284.935 168.59868,285.7277 168.55677,285.7277 C 168.51489,285.7277 168.34449,285.5422 168.17811,285.3154 z M 207.12636,263.0514 C 207.00091,262.949 206.70758,262.5278 206.47452,262.1156 C 204.94153,259.4038 201.10395,254.2822 198.86755,251.9635 C 198.6408,251.7284 198.45527,251.4321 198.45527,251.3052 C 198.45527,251.1782 198.8122,250.6914 199.24843,250.2234 C 202.13666,247.1249 204.58943,243.9234 206.25724,241.075 C 206.61196,240.4691 206.99523,239.9378 207.10896,239.8941 C 207.31509,239.815 208.05004,240.3908 208.05004,240.6314 C 208.05004,240.8346 210.51726,244.407 212.09075,246.482 C 212.88605,247.5308 214.15746,249.0272 214.91614,249.8073 C 215.6748,250.5874 216.29554,251.3166 216.29554,251.4278 C 216.29554,251.539 215.5455,252.505 214.62878,253.5746 C 213.71206,254.6441 212.61085,255.9914 212.18165,256.5686 C 210.82939,258.3871 208.33328,261.9377 208.12792,262.3348 C 207.7935,262.9815 207.39236,263.2685 207.12636,263.0514 z M 60.813232,90.4264 C 60.691142,90.2796 60.398382,89.8558 60.162652,89.4848 C 59.926922,89.1137 59.622802,88.6415 59.486822,88.4354 C 59.350852,88.2292 58.906032,87.5024 58.498332,86.8202 C 58.090632,86.138 57.588402,85.3176 57.382262,84.9969 C 57.176122,84.6763 56.651142,83.8514 56.215642,83.1639 C 55.351052,81.799 52.593862,77.7625 51.563012,76.3525 C 51.207132,75.8657 50.583732,74.9952 50.177692,74.418 C 49.771652,73.8408 49.387612,73.3011 49.324252,73.2187 C 47.988882,71.4806 47.678512,71.1045 46.730102,70.0748 C 46.272212,69.5776 45.711462,68.9347 45.483992,68.6462 C 45.256522,68.3576 43.781792,66.8259 42.206822,65.2425 L 39.343242,62.3635 L 40.214352,61.3446 C 40.693452,60.7842 41.227282,60.1906 41.400632,60.0256 C 41.573982,59.8605 41.850742,59.5527 42.015652,59.3416 C 42.370112,58.8879 43.494412,57.5732 44.621742,56.2941 C 45.065632,55.7905 45.690872,55.0255 46.011172,54.5941 C 46.468062,53.9788 48.795872,51.0211 49.936582,49.6065 C 50.389072,49.0454 53.204312,45.2282 53.861712,44.2845 C 55.476622,41.966 57.532182,38.7542 57.532182,38.5493 C 57.532182,38.5133 57.659452,38.3049 57.815012,38.086 C 58.210042,37.5302 59.306812,35.5308 59.513612,34.9895 C 59.862462,34.0764 60.643732,32.7408 60.829002,32.7408 C 60.934092,32.7408 61.366692,33.3142 61.790352,34.0151 C 62.765132,35.6277 66.297022,40.917 67.238442,42.174 C 67.630622,42.6977 68.052692,43.2794 68.176372,43.4666 C 68.300052,43.6539 68.573442,44.0157 68.783892,44.2706 C 68.994352,44.5256 69.431952,45.1053 69.756362,45.5588 C 70.080762,46.0123 70.785592,46.9312 71.322652,47.6009 C 71.859712,48.2706 72.602702,49.2113 72.973752,49.6914 C 74.857672,52.1287 80.372422,57.9625 82.103802,59.3496 C 82.771672,59.8847 83.318112,60.4118 83.318112,60.521 C 83.318112,60.7536 81.272642,63.1582 79.342062,65.1952 C 78.598202,65.9801 77.744122,66.9258 77.444102,67.2969 C 77.144092,67.6679 76.586792,68.3088 76.205652,68.7211 C 75.824522,69.1334 75.228142,69.8406 74.880372,70.2927 C 74.532602,70.7448 73.573432,71.9305 72.748882,72.9276 C 71.172232,74.8341 70.056792,76.3393 68.200342,79.0655 C 67.582692,79.9725 67.029192,80.7483 66.970332,80.7895 C 66.911462,80.8308 66.534712,81.3928 66.133092,82.0386 C 65.731482,82.6843 65.218452,83.4939 64.993042,83.8376 C 64.767622,84.1813 64.536432,84.5637 64.479282,84.6874 C 64.422122,84.8111 64.206512,85.1821 64.000142,85.512 C 63.793772,85.8418 63.125552,87.0561 62.515212,88.2105 C 61.206822,90.6851 61.121072,90.7967 60.813232,90.4264 z M 57.760262,67.3004 C 57.612772,67.1375 57.430382,67.0423 57.354942,67.0889 C 57.168042,67.2044 57.510812,67.5967 57.798652,67.5967 C 57.992092,67.5967 57.986032,67.5499 57.760262,67.3004 z M 166.37559,88.9321 C 166.20355,88.6176 165.87955,88.0779 165.65559,87.7327 C 165.43164,87.3874 164.82527,86.4429 164.30809,85.6338 C 161.84344,81.7778 161.05913,80.6012 159.20898,77.9845 C 158.11359,76.4352 156.91751,74.7628 156.55103,74.2681 C 156.18454,73.7734 155.67004,73.065 155.40768,72.6939 C 154.82999,71.8769 153.98598,70.8639 152.22518,68.8743 C 150.082,66.4525 149.33772,65.6815 147.19984,63.6683 C 146.08748,62.6209 145.09541,61.6107 144.99523,61.4235 C 144.79683,61.0528 144.78142,61.0733 147.85653,57.6272 C 149.73038,55.5273 150.83334,54.2328 151.3054,53.5794 C 151.54369,53.2496 151.81292,52.9122 151.9037,52.8298 C 151.99447,52.7473 152.31785,52.3509 152.62232,51.9489 C 152.92679,51.5468 153.41873,50.9397 153.71553,50.5996 C 154.01233,50.2596 154.82824,49.2392 155.52867,48.3322 C 156.22909,47.4252 156.93518,46.5268 157.09775,46.3357 C 159.33435,43.7066 163.59038,37.0422 165.59361,33.0322 C 165.92544,32.368 166.29818,31.7405 166.42195,31.6378 C 166.67891,31.4245 166.66506,31.4088 167.92785,33.3404 C 168.35909,34.0001 169.01726,34.9783 169.39045,35.5142 C 169.76365,36.0502 170.76547,37.5007 171.61672,38.7375 C 172.46798,39.9743 173.47471,41.3826 173.85389,41.8671 C 174.23308,42.3515 175.0493,43.4052 175.66771,44.2085 C 178.16713,47.4555 179.64931,49.283 180.88735,50.6441 C 184.5163,54.6339 187.06513,57.1897 188.44924,58.2268 C 188.99944,58.6391 189.48591,59.0668 189.53027,59.1772 C 189.57463,59.2876 189.45895,59.5649 189.2732,59.7933 C 188.47063,60.7805 186.93934,62.5137 185.88071,63.6332 C 184.54269,65.0481 184.00354,65.6466 182.78305,67.072 C 182.28885,67.6492 181.70821,68.3238 181.49277,68.5712 C 180.74842,69.4258 178.73884,71.8045 178.10168,72.5852 C 177.56121,73.2474 176.32003,74.9451 173.03509,79.5152 C 171.98839,80.9714 169.44027,85.1277 168.67484,86.6273 C 167.10455,89.7038 166.90648,89.9023 166.37559,88.9321 z M 21.246452,77.8286 C 20.347762,76.3469 16.941042,71.5467 15.900062,70.2953 C 15.522822,69.8418 14.869232,69.0744 14.447642,68.59 C 14.026052,68.1057 13.663942,67.6334 13.642962,67.5406 C 13.621982,67.4478 14.364072,66.4605 15.292062,65.3466 C 16.985602,63.3138 19.077332,60.5438 19.761232,59.4283 C 20.348902,58.4698 20.403132,58.375 20.907982,57.4247 C 21.599982,56.1221 21.751432,55.9031 21.960352,55.9031 C 22.062922,55.9031 22.432522,56.3585 22.781672,56.9151 C 23.642612,58.2874 26.094782,61.9185 26.749572,62.7905 C 27.443772,63.715 28.668852,65.1431 29.563182,66.0703 C 30.145192,66.6737 30.670812,67.2557 30.731232,67.3637 C 30.850032,67.576 30.753112,67.7137 28.707632,70.2395 C 27.343132,71.9244 25.363202,74.634 24.325302,76.2367 C 22.852492,78.5111 22.397492,79.1404 22.225832,79.1404 C 22.124772,79.1404 21.684042,78.5501 21.246452,77.8286 z M 22.594182,50.1763 C 22.481182,49.4556 22.476742,47.8255 22.587322,47.6609 C 22.689732,47.5084 23.084632,47.4217 23.853322,47.3829 C 24.967922,47.3266 24.970652,47.3254 25.037332,46.8711 C 25.131382,46.2303 24.989432,42.9591 24.861562,42.8206 C 24.803392,42.7576 22.048302,42.7063 18.739152,42.7067 C 15.430002,42.7071 12.687042,42.65 12.643692,42.5798 C 12.600332,42.5097 12.547752,41.92 12.526852,41.2695 L 12.488842,40.0867 L 13.459772,38.5474 C 13.993782,37.7008 14.700552,36.5676 15.030372,36.0292 C 15.360192,35.4908 16.240722,34.0921 16.987092,32.921 C 17.733472,31.75 18.548162,30.4545 18.797522,30.0422 C 19.769642,28.435 24.606762,20.7029 25.125822,19.9265 C 25.427632,19.4751 25.792632,18.9859 25.936922,18.8396 C 26.217842,18.5547 27.167282,18.4791 27.535752,18.7123 C 27.792972,18.8751 27.793052,18.8775 27.922382,30.3211 C 27.976302,35.092 28.052522,39.0791 28.091752,39.1814 C 28.139592,39.306 28.733982,39.3999 29.896662,39.4663 C 30.850132,39.5207 31.690072,39.6023 31.763202,39.6475 C 31.941252,39.7575 31.934402,42.3692 31.755772,42.4796 C 31.678552,42.5273 30.866512,42.6092 29.951252,42.6615 C 29.035982,42.7139 28.248602,42.8191 28.201512,42.8953 C 28.078932,43.0936 28.094362,47.0539 28.218202,47.1787 C 28.275002,47.236 28.737872,47.3503 29.246792,47.4327 L 30.172112,47.5827 L 30.215602,48.5577 C 30.288302,50.1877 30.447252,50.1235 26.211582,50.1763 C 24.225892,50.2011 22.598062,50.2011 22.594182,50.1763 z M 24.666442,39.3959 L 25.007572,39.2667 L 24.972572,34.7294 C 24.919272,27.8198 24.869462,26.6691 24.623642,26.6691 C 24.363262,26.6691 23.455712,27.9366 21.779182,30.6419 C 21.063782,31.7963 20.323922,32.9769 20.135052,33.2655 C 19.946182,33.5541 19.558912,34.1612 19.274462,34.6147 C 18.990022,35.0682 18.415652,35.979 17.998092,36.6386 C 16.585022,38.8709 16.385062,39.2756 16.619222,39.429 C 16.882722,39.6017 24.202482,39.5715 24.666442,39.3959 z"
     id="path9831" />
  <g
     id="g3796"
     transform="translate(1.593878e-6,0)">
    <rect
       ry="11.25"
       rx="11.25"
       y="3.4247196"
       x="3.6058116"
       height="311.81104"
       width="223.22835"
       id="rect2382"
       style="fill:none;fill-opacity:1;fill-rule:nonzero;stroke:#000000;stroke-width:0.03543307;stroke-linejoin:round;stroke-miterlimit:4;stroke-dasharray:none;stroke-opacity:1" />
    <g
       transform="translate(3.5433116,3.3622195)"
       id="g3164">
      <path
         style="fill:none;fill-rule:evenodd;stroke:#000000;stroke-width:0.03221492;stroke-linecap:butt;stroke-linejoin:miter;stroke-miterlimit:4;stroke-dasharray:none;stroke-opacity:1"
         d="M 219.74754,0.062511534 L 226.70838,0.062511534"
         id="path3160"
         sodipodi:nodetypes="cc" />
      <path
         sodipodi:nodetypes="cc"
         id="path3162"
         d="M 223.29036,-3.2997195 L 223.29036,3.6063107"
         style="fill:none;fill-rule:evenodd;stroke:#000000;stroke-width:0.03196126;stroke-linecap:butt;stroke-linejoin:miter;stroke-miterlimit:4;stroke-dasharray:none;stroke-opacity:1" />
    </g>
    <g
       transform="matrix(1.0001093,0,0,1,3.519309,315.17275)"
       id="g3168">
      <path
         sodipodi:nodetypes="cc"
         id="path3170"
         d="M 219.74754,0.062511534 L 226.70838,0.062511534"
         style="fill:none;fill-rule:evenodd;stroke:#000000;stroke-width:0.03221492;stroke-linecap:butt;stroke-linejoin:miter;stroke-miterlimit:4;stroke-dasharray:none;stroke-opacity:1" />
      <path
         style="fill:none;fill-rule:evenodd;stroke:#000000;stroke-width:0.03196126;stroke-linecap:butt;stroke-linejoin:miter;stroke-miterlimit:4;stroke-dasharray:none;stroke-opacity:1"
         d="M 223.29036,-3.2997195 L 223.29036,3.6063107"
         id="path3172"
         sodipodi:nodetypes="cc" />
    </g>
    <g
       id="g3174"
       transform="matrix(1.0001093,0,0,1,-219.70906,315.17275)">
      <path
         style="fill:none;fill-rule:evenodd;stroke:#000000;stroke-width:0.03221492;stroke-linecap:butt;stroke-linejoin:miter;stroke-miterlimit:4;stroke-dasharray:none;stroke-opacity:1"
         d="M 219.74754,0.062511534 L 226.70838,0.062511534"
         id="path3176"
         sodipodi:nodetypes="cc" />
      <path
         sodipodi:nodetypes="cc"
         id="path3178"
         d="M 223.29036,-3.2997195 L 223.29036,3.6063107"
         style="fill:none;fill-rule:evenodd;stroke:#000000;stroke-width:0.03196126;stroke-linecap:butt;stroke-linejoin:miter;stroke-miterlimit:4;stroke-dasharray:none;stroke-opacity:1" />
    </g>
    <g
       transform="translate(-219.68504,3.3622195)"
       id="g3180">
      <path
         sodipodi:nodetypes="cc"
         id="path3182"
         d="M 219.74754,0.062511534 L 226.70838,0.062511534"
         style="fill:none;fill-rule:evenodd;stroke:#000000;stroke-width:0.03221492;stroke-linecap:butt;stroke-linejoin:miter;stroke-miterlimit:4;stroke-dasharray:none;stroke-opacity:1" />
      <path
         style="fill:none;fill-rule:evenodd;stroke:#000000;stroke-width:0.03196126;stroke-linecap:butt;stroke-linejoin:miter;stroke-miterlimit:4;stroke-dasharray:none;stroke-opacity:1"
         d="M 223.29036,-3.2997195 L 223.29036,3.6063107"
         id="path3184"
         sodipodi:nodetypes="cc" />
    </g>
  </g>
</svg>
