<?xml version="1.0" encoding="UTF-8" standalone="no"?>
<!-- Created with Inkscape (http://www.inkscape.org/) -->
<svg
   xmlns:dc="http://purl.org/dc/elements/1.1/"
   xmlns:cc="http://creativecommons.org/ns#"
   xmlns:rdf="http://www.w3.org/1999/02/22-rdf-syntax-ns#"
   xmlns:svg="http://www.w3.org/2000/svg"
   xmlns="http://www.w3.org/2000/svg"
   xmlns:sodipodi="http://sodipodi.sourceforge.net/DTD/sodipodi-0.dtd"
   xmlns:inkscape="http://www.inkscape.org/namespaces/inkscape"
   id="svg10422"
   sodipodi:version="0.32"
   inkscape:version="0.46"
   width="230.31497"
   height="318.84155"
   version="1.0"
   sodipodi:docname="4h.svg"
   inkscape:output_extension="org.inkscape.output.svg.inkscape">
  <metadata
     id="metadata10427">
    <rdf:RDF>
      <cc:Work
         rdf:about="">
        <dc:format>image/svg+xml</dc:format>
        <dc:type
           rdf:resource="http://purl.org/dc/dcmitype/StillImage" />
      </cc:Work>
    </rdf:RDF>
  </metadata>
  <defs
     id="defs10425">
    <inkscape:perspective
       sodipodi:type="inkscape:persp3d"
       inkscape:vp_x="0 : 526.18109 : 1"
       inkscape:vp_y="0 : 1000 : 0"
       inkscape:vp_z="744.09448 : 526.18109 : 1"
       inkscape:persp3d-origin="372.04724 : 350.78739 : 1"
       id="perspective10429" />
  </defs>
  <sodipodi:namedview
     inkscape:window-height="667"
     inkscape:window-width="876"
     inkscape:pageshadow="2"
     inkscape:pageopacity="0.0"
     guidetolerance="10.0"
     gridtolerance="10.0"
     objecttolerance="10.0"
     borderopacity="1.0"
     bordercolor="#666666"
     pagecolor="#ffffff"
     id="base"
     showgrid="false"
     inkscape:zoom="1.4489956"
     inkscape:cx="115.15749"
     inkscape:cy="159.42078"
     inkscape:window-x="66"
     inkscape:window-y="87"
     inkscape:current-layer="svg10422" />
  <path
     style="fill:#e00000;fill-opacity:1"
     d="M 201.0563,300.1577 L 200.60888,300.062 L 200.57055,289.9361 C 200.54611,283.4792 200.47831,279.7452 200.38344,279.6309 C 200.29475,279.524 199.55865,279.4088 198.56057,279.3457 C 197.6398,279.2874 196.80119,279.169 196.69701,279.0825 C 196.4645,278.8896 196.43132,276.3421 196.65948,276.2011 C 196.74303,276.1494 197.56516,276.0694 198.48643,276.0232 C 199.4077,275.9769 200.24535,275.8728 200.34789,275.7917 C 200.60406,275.5891 200.61071,271.7901 200.35534,271.5347 C 200.25691,271.4363 199.92572,271.3558 199.61936,271.3558 C 199.313,271.3558 198.89019,271.2903 198.67979,271.2103 C 198.32065,271.0738 198.29723,271.0025 198.29723,270.0457 C 198.29723,269.4549 198.37559,268.928 198.48366,268.792 C 198.64053,268.5946 199.25155,268.5436 202.33995,268.4705 C 205.20422,268.4026 206.06732,268.4256 206.27183,268.5751 C 206.49323,268.737 206.52537,268.9541 206.47902,269.9748 C 206.44883,270.6393 206.37507,271.232 206.31507,271.292 C 206.25507,271.352 205.72066,271.4256 205.12751,271.4555 C 204.53435,271.4854 203.97969,271.5793 203.89492,271.6641 C 203.73059,271.8286 203.6755,275.3545 203.83033,275.7975 C 203.91251,276.0326 204.44014,276.0598 210.24329,276.1282 L 216.5667,276.2028 L 216.60897,277.6217 L 216.65122,279.0407 L 213.73805,283.4095 C 212.1358,285.8124 210.82487,287.8073 210.82487,287.8426 C 210.82487,287.8779 210.72395,288.025 210.60058,288.1694 C 210.47723,288.3139 209.88999,289.1801 209.29562,290.0943 C 208.70125,291.0085 207.37049,293.0219 206.33839,294.5685 C 205.3063,296.1151 204.15342,297.852 203.77646,298.4284 C 202.55151,300.3013 202.3442,300.4331 201.0563,300.1577 z M 205.64776,290.0354 C 207.99656,286.5126 210.84521,282.1608 211.62328,280.9067 C 212.10094,280.1368 212.26577,279.7465 212.15852,279.639 C 211.95319,279.4334 204.27284,279.351 203.9645,279.5512 C 203.77285,279.6756 203.73433,280.5768 203.6957,285.8379 C 203.6709,289.2157 203.68556,292.0705 203.72831,292.1818 C 203.77103,292.2932 203.868,292.3843 203.94381,292.3843 C 204.0196,292.3843 204.78638,291.3273 205.64776,290.0354 z M 48.413022,287.092 C 46.858852,286.7451 44.632762,285.554 43.372042,284.3948 C 40.952602,282.1702 39.719612,279.8231 38.997602,276.0678 C 38.433132,273.1319 38.793282,268.9565 39.900742,265.5973 C 40.610462,263.4446 40.616482,263.4298 41.727262,261.0881 C 42.512012,259.4337 42.892562,258.7948 44.494772,256.4419 C 45.128532,255.5112 48.107972,251.0354 48.562162,250.3318 C 49.525202,248.8398 49.941182,248.2405 51.470362,246.1422 C 52.372652,244.9041 53.547122,243.2318 54.080292,242.4258 C 54.613462,241.6199 55.402032,240.4537 55.832662,239.8342 C 56.263302,239.2148 56.615642,238.6764 56.615642,238.6379 C 56.615642,238.5995 57.177022,237.6736 57.863152,236.5806 C 58.549292,235.4875 59.593702,233.6368 60.184072,232.4679 C 60.774442,231.299 61.321302,230.3427 61.399312,230.3427 C 61.477332,230.3427 61.867312,230.8628 62.265932,231.4985 C 63.276072,233.1094 65.560862,236.4811 66.980772,238.4562 C 67.636982,239.369 68.537962,240.6517 68.982952,241.3067 C 69.427952,241.9616 70.206212,243.0344 70.712432,243.6906 C 71.879582,245.2036 73.475312,247.3143 73.766572,247.7304 C 74.053542,248.1404 74.546632,248.8343 75.929912,250.7747 C 77.342682,252.7564 78.389872,254.3311 78.389872,254.4739 C 78.389872,254.5347 78.633642,254.9521 78.931592,255.4014 C 79.918482,256.8895 81.005272,258.9586 82.533172,262.2583 C 83.831892,265.0631 84.485522,267.2747 84.803142,269.939 C 85.094242,272.3807 84.809972,276.0596 84.157792,278.2907 C 83.578242,280.2734 82.014492,282.7065 80.484002,284.0069 C 79.068052,285.21 76.731582,286.4311 75.108822,286.8161 C 73.974402,287.0852 71.693442,287.066 70.581622,286.7779 C 69.477322,286.4918 67.835892,285.7041 66.870432,284.997 C 65.008762,283.6335 62.800922,279.7349 62.206922,276.762 C 62.139272,276.4235 62.026372,276.2773 61.832442,276.2773 C 61.458672,276.2773 61.422502,276.3582 61.154612,277.7928 C 60.829052,279.5361 60.594772,280.2751 59.978172,281.5037 C 58.568572,284.3124 56.929422,285.8407 54.265452,286.8301 C 53.426792,287.1416 52.938442,287.2122 51.321222,287.256 C 49.995152,287.2918 49.076062,287.24 48.413022,287.092 z M 155.04706,286.5675 C 153.84498,286.4205 152.45867,285.9613 151.09489,285.2583 C 150.30142,284.8493 149.64879,284.3159 148.375,283.0352 C 146.84856,281.5005 146.63293,281.2131 145.95744,279.8126 C 145.07697,277.9873 144.52984,275.9272 144.32535,273.6674 C 144.20108,272.2942 144.22459,271.6415 144.46965,269.662 C 144.81268,266.891 144.91167,266.4114 145.42832,265.0174 C 145.64112,264.4432 145.91654,263.6714 146.04036,263.3023 C 146.67457,261.4116 148.46019,258.1878 150.31431,255.5859 C 150.62059,255.1561 150.87118,254.7587 150.87118,254.7028 C 150.87118,254.6469 150.98267,254.478 151.11894,254.3274 C 151.2552,254.1769 151.43976,253.9261 151.52907,253.7702 C 151.61838,253.6143 152.0874,252.9268 152.57133,252.2425 C 153.05527,251.5583 154.04652,250.1259 154.7741,249.0596 C 156.4154,246.6541 156.80153,246.1126 158.60258,243.6906 C 160.06918,241.7183 161.66288,239.4163 162.71351,237.7525 C 163.0338,237.2452 163.67868,236.2262 164.14657,235.488 C 165.13657,233.9259 165.71172,232.8999 166.61702,231.0809 C 166.97659,230.3584 167.33157,229.7297 167.40584,229.6837 C 167.5794,229.5765 167.78199,229.8229 168.69324,231.2494 C 169.45978,232.4494 172.61057,237.0827 173.54024,238.377 C 173.82733,238.7766 174.49021,239.733 175.01328,240.5023 C 175.53637,241.2715 176.2548,242.27 176.60982,242.7212 C 178.41409,245.014 179.67268,246.7136 181.52447,249.3578 C 182.21379,250.3422 183.03149,251.5017 183.34158,251.9347 C 184.47479,253.5169 186.43359,256.8651 187.37448,258.8281 C 189.38922,263.0316 189.65592,263.6536 190.16808,265.343 C 190.89965,267.7562 191.19587,270.1588 191.0749,272.698 C 190.89962,276.3777 190.31227,278.5619 188.92925,280.6769 C 187.531,282.8153 186.09327,284.0867 183.7221,285.2819 C 181.82666,286.2372 181.37884,286.3388 179.05836,286.3398 C 177.10799,286.3407 176.79308,286.3033 175.84811,285.9585 C 174.42157,285.438 172.81207,284.4739 171.97916,283.641 C 170.50684,282.1687 168.69975,278.7865 168.28643,276.7296 C 168.09567,275.7802 167.73762,275.307 167.43907,275.6096 C 167.35995,275.6898 167.15243,276.4584 166.97788,277.3176 C 166.44254,279.953 165.18073,282.4308 163.57324,284.0033 C 162.67915,284.8779 160.90795,285.8945 159.65509,286.2522 C 158.49777,286.5825 156.36409,286.7285 155.04706,286.5675 z M 201.20543,263.0132 C 199.91935,262.6987 198.55205,261.5412 197.90537,260.2195 C 197.64447,259.6862 197.4764,258.9896 197.36374,257.9744 C 197.03554,255.0171 197.83686,252.7431 201.05715,247.4936 C 201.53518,246.7144 202.12959,245.8156 202.37808,245.4964 C 202.62656,245.1772 202.93416,244.7254 203.06161,244.4924 C 203.18908,244.2594 203.81682,243.2119 204.45659,242.1646 C 205.09637,241.1173 205.83171,239.8051 206.09069,239.2487 C 206.39283,238.5995 206.6388,238.2522 206.77714,238.2793 C 206.89574,238.3026 207.22548,238.7578 207.50992,239.291 C 207.79436,239.8242 208.67088,241.3006 209.45773,242.572 C 211.35158,245.6321 211.2926,245.538 212.48235,247.397 C 213.64727,249.2171 215.25913,252.252 215.80326,253.6498 C 216.36325,255.0883 216.54964,256.0903 216.55853,257.7096 C 216.56639,259.1428 216.5454,259.242 216.02129,260.251 C 215.01984,262.179 213.82064,262.9897 211.78217,263.1169 C 210.70304,263.1842 210.47216,263.1501 209.74138,262.8155 C 208.7977,262.3835 207.78899,261.2438 207.55699,260.3474 C 207.47872,260.045 207.35732,259.5626 207.28724,259.2756 C 207.21715,258.9885 207.09819,258.7536 207.02288,258.7536 C 206.94758,258.7536 206.74645,259.1587 206.57596,259.6538 C 205.94705,261.4802 204.94959,262.6272 203.66622,262.9999 C 203.07749,263.1709 201.87672,263.1774 201.20543,263.0132 z M 61.136082,89.2223 C 60.966842,89.0367 60.642202,88.5828 60.414662,88.2137 C 59.530992,86.7802 57.006022,83.0978 55.284792,80.7324 C 54.827382,80.1037 54.370052,79.4662 54.268502,79.3155 C 53.994962,78.9098 52.443072,76.7257 51.843212,75.9023 C 51.556122,75.5082 51.144002,74.9791 50.927392,74.7264 C 50.514632,74.2449 48.533752,71.526 47.388942,69.8696 C 47.020442,69.3365 46.527852,68.6318 46.294312,68.3037 C 44.277762,65.4706 42.987462,63.2837 41.234732,59.7282 C 39.724972,56.6656 39.171182,55.3062 38.587822,53.2309 C 37.960222,50.9982 37.826432,50.0039 37.826542,47.5734 C 37.826812,41.8013 38.936572,38.7745 42.123232,35.8545 C 43.210562,34.8582 46.104552,33.3368 47.513582,33.0208 C 48.632692,32.7698 50.684862,32.8081 51.847282,33.1017 C 53.184802,33.4395 55.150232,34.4421 56.035692,35.2382 C 57.682992,36.7192 59.179572,39.2659 60.004862,41.9924 C 60.232462,42.7443 60.503422,43.3923 60.607002,43.4325 C 60.930472,43.5579 61.238942,43.1597 61.238942,42.6167 C 61.238942,41.6655 61.844202,39.5375 62.501552,38.1777 C 64.104502,34.8618 66.886802,32.8282 70.336392,32.4512 C 74.042442,32.0462 77.410772,33.3319 80.111382,36.1825 C 81.151902,37.2807 81.456222,37.6956 82.111742,38.9096 C 83.678142,41.8103 84.191282,45.3047 83.690612,49.6614 C 83.469012,51.5896 83.319222,52.2381 82.605452,54.3592 C 81.476372,57.7146 79.677292,61.2234 78.145342,63.058 C 77.951722,63.2899 77.793312,63.5454 77.793312,63.6258 C 77.793312,63.7063 77.031962,64.9259 76.101422,66.3362 C 75.170882,67.7464 74.382312,68.9673 74.349042,69.0494 C 74.289352,69.1965 73.190142,70.8332 71.294012,73.5981 C 70.759612,74.3773 70.017642,75.4176 69.645192,75.9097 C 68.873922,76.9289 66.052792,81.275 65.869692,81.7261 C 65.803102,81.8902 65.329132,82.6955 64.816422,83.5158 C 64.303702,84.3361 63.381552,85.9803 62.767192,87.1697 C 62.152842,88.3591 61.603742,89.3834 61.546982,89.446 C 61.490222,89.5086 61.305312,89.408 61.136082,89.2223 z M 51.440612,73.8456 C 51.482812,73.7356 51.459232,73.5516 51.388212,73.4367 C 51.211722,73.1511 50.905652,73.4624 51.034022,73.7969 C 51.149062,74.0967 51.335672,74.119 51.440612,73.8456 z M 54.825982,69.6459 C 54.723872,69.5229 54.539652,69.4222 54.416612,69.4222 C 54.234672,69.4222 54.227572,69.464 54.378562,69.6459 C 54.480682,69.769 54.664892,69.8696 54.787932,69.8696 C 54.969872,69.8696 54.976982,69.8279 54.825982,69.6459 z M 167.10203,88.9221 C 166.97477,88.8196 166.60961,88.3 166.29056,87.7676 C 165.14437,85.8549 159.3807,77.3179 158.03308,75.5369 C 155.7983,72.5834 153.59815,69.4449 151.10803,65.6584 C 148.71599,62.021 145.72367,55.9315 144.93282,53.0916 C 144.12646,50.1959 144.01081,49.4004 144.01081,46.7486 C 144.01081,42.3768 144.76386,39.5118 146.53797,37.1337 C 146.84394,36.7236 147.12196,36.3137 147.15579,36.2229 C 147.33328,35.7465 149.4575,34.1457 150.89427,33.4057 C 154.25687,31.6738 157.2561,31.5505 160.34148,33.0173 C 162.78549,34.1792 164.31556,35.8594 165.67245,38.8715 C 166.1349,39.898 166.61022,41.1575 166.72871,41.6704 C 166.8472,42.1833 167.01438,42.6732 167.10026,42.7591 C 167.39915,43.0579 167.6859,42.7538 167.78782,42.0299 C 168.38743,37.7706 170.48535,34.4901 173.61481,32.9183 C 175.02208,32.2114 176.20669,31.9657 178.2381,31.9594 C 180.34655,31.9528 181.47128,32.1792 183.15351,32.9486 C 185.67867,34.1037 187.97567,36.5025 189.20198,39.2652 C 189.92607,40.8966 190.52181,43.4791 190.59916,45.3221 C 190.66089,46.7928 190.25837,50.4778 189.87393,51.9613 C 189.06492,55.0834 187.16881,59.2066 185.33756,61.8259 C 185.08323,62.1897 184.51952,63.0242 184.08484,63.6804 C 183.1443,65.1003 183.05956,65.2264 180.47597,69.0494 C 179.3673,70.6899 178.2089,72.3752 177.90175,72.7946 C 175.89731,75.5309 172.63923,80.3201 171.36893,82.3973 C 171.14321,82.7664 170.74083,83.4051 170.47479,83.8167 C 169.90834,84.6929 169.36211,85.6516 168.28822,87.6544 C 167.8594,88.4542 167.46915,89.1085 167.421,89.1085 C 167.37284,89.1085 167.22931,89.0246 167.10203,88.9221 z M 23.055502,79.9317 C 22.947912,79.8021 22.512932,79.079 22.088872,78.3249 C 20.179592,74.9295 19.865662,74.3879 18.934792,72.8832 C 18.391452,72.005 17.798072,71.0516 17.616162,70.7645 C 16.897972,69.6309 16.368432,68.6623 15.333332,66.5886 C 13.969972,63.8573 13.612662,62.5101 13.689412,60.3907 C 13.738042,59.0479 13.796402,58.7837 14.246382,57.8697 C 15.024052,56.29 15.845152,55.5804 17.345022,55.1917 C 19.108992,54.7346 20.092172,54.9587 21.195242,56.0693 C 21.920782,56.7997 22.054242,57.0787 22.589072,58.9825 C 22.654892,59.2168 22.801802,59.3554 22.984372,59.3554 C 23.212472,59.3554 23.299372,59.2111 23.388612,58.6842 C 23.511582,57.9583 24.104952,56.7354 24.609362,56.1683 C 26.167112,54.417 29.090632,54.608 30.929472,56.5812 C 31.490252,57.183 32.147582,58.6997 32.282292,59.7028 C 32.461762,61.0391 32.230792,63.4027 31.802512,64.6125 C 31.023262,66.8139 30.020462,68.6682 26.943252,73.5981 C 25.944852,75.1976 24.723892,77.3116 24.230002,78.296 C 23.736122,79.2803 23.313832,80.104 23.291582,80.1265 C 23.269332,80.149 23.163092,80.0613 23.055502,79.9317 z M 24.103452,50.0565 C 23.898382,50.0277 23.681292,49.927 23.621032,49.8328 C 23.438162,49.5467 23.490262,47.5752 23.685862,47.3795 C 23.784292,47.2811 24.216152,47.2006 24.645552,47.2006 C 25.074952,47.2006 25.598422,47.1351 25.808832,47.0551 L 26.191382,46.9097 L 26.191382,44.9109 C 26.191382,43.4919 26.137312,42.8682 26.004962,42.7609 C 25.890992,42.6685 23.557982,42.5718 20.002142,42.512 C 16.803112,42.4583 14.068292,42.3793 13.924742,42.3366 C 13.701932,42.2703 13.663752,42.0676 13.663752,40.9514 L 13.663752,39.6439 L 14.992622,37.6431 C 16.377452,35.5581 19.414452,30.9253 23.357752,24.8827 C 24.629162,22.9344 26.074182,20.7329 26.568912,19.9905 L 27.468432,18.6406 L 28.258832,18.5951 C 29.552422,18.5206 29.530692,18.4566 29.414202,21.9948 C 29.254702,26.8389 29.287412,39.0217 29.460372,39.1947 C 29.542862,39.2772 30.334342,39.3755 31.219212,39.4131 C 32.104072,39.4507 32.911942,39.5487 33.014472,39.6308 C 33.227772,39.8017 33.274922,42.0805 33.071782,42.4009 C 32.984512,42.5385 32.443282,42.6139 31.263562,42.6529 C 30.337542,42.6834 29.508422,42.7799 29.421062,42.8673 C 29.188522,43.0998 29.092732,46.6991 29.312042,46.9633 C 29.407692,47.0786 29.885972,47.2193 30.374882,47.276 C 31.135782,47.3643 31.276212,47.4286 31.349902,47.7222 C 31.457652,48.1515 31.293532,49.7642 31.124922,49.9328 C 31.003612,50.0541 24.857952,50.1623 24.103452,50.0565 z M 26.224102,38.5133 C 26.265042,38.0826 26.311522,35.3142 26.327392,32.3613 C 26.351012,27.9671 26.318452,26.941 26.148062,26.7096 C 25.947572,26.4373 25.929332,26.4416 25.655492,26.8265 C 25.499092,27.0463 25.166702,27.5091 24.916862,27.8549 C 24.667012,28.2007 24.102732,29.0542 23.662902,29.7514 C 23.223072,30.4486 22.353692,31.777 21.730952,32.7035 C 21.108212,33.6299 20.467142,34.603 20.306352,34.866 C 20.145562,35.1289 19.535822,36.0823 18.951372,36.9846 C 17.762272,38.8203 17.629532,39.0962 17.885292,39.2003 C 17.983222,39.2401 19.882762,39.278 22.106492,39.2845 L 26.149652,39.2962 L 26.224102,38.5133 z"
     id="path10433" />
  <g
     id="g3796"
     transform="translate(1.593878e-6,0)">
    <rect
       ry="11.25"
       rx="11.25"
       y="3.4247196"
       x="3.6058116"
       height="311.81104"
       width="223.22835"
       id="rect2382"
       style="fill:none;fill-opacity:1;fill-rule:nonzero;stroke:#000000;stroke-width:0.03543307;stroke-linejoin:round;stroke-miterlimit:4;stroke-dasharray:none;stroke-opacity:1" />
    <g
       transform="translate(3.5433116,3.3622195)"
       id="g3164">
      <path
         style="fill:none;fill-rule:evenodd;stroke:#000000;stroke-width:0.03221492;stroke-linecap:butt;stroke-linejoin:miter;stroke-miterlimit:4;stroke-dasharray:none;stroke-opacity:1"
         d="M 219.74754,0.062511534 L 226.70838,0.062511534"
         id="path3160"
         sodipodi:nodetypes="cc" />
      <path
         sodipodi:nodetypes="cc"
         id="path3162"
         d="M 223.29036,-3.2997195 L 223.29036,3.6063107"
         style="fill:none;fill-rule:evenodd;stroke:#000000;stroke-width:0.03196126;stroke-linecap:butt;stroke-linejoin:miter;stroke-miterlimit:4;stroke-dasharray:none;stroke-opacity:1" />
    </g>
    <g
       transform="matrix(1.0001093,0,0,1,3.519309,315.17275)"
       id="g3168">
      <path
         sodipodi:nodetypes="cc"
         id="path3170"
         d="M 219.74754,0.062511534 L 226.70838,0.062511534"
         style="fill:none;fill-rule:evenodd;stroke:#000000;stroke-width:0.03221492;stroke-linecap:butt;stroke-linejoin:miter;stroke-miterlimit:4;stroke-dasharray:none;stroke-opacity:1" />
      <path
         style="fill:none;fill-rule:evenodd;stroke:#000000;stroke-width:0.03196126;stroke-linecap:butt;stroke-linejoin:miter;stroke-miterlimit:4;stroke-dasharray:none;stroke-opacity:1"
         d="M 223.29036,-3.2997195 L 223.29036,3.6063107"
         id="path3172"
         sodipodi:nodetypes="cc" />
    </g>
    <g
       id="g3174"
       transform="matrix(1.0001093,0,0,1,-219.70906,315.17275)">
      <path
         style="fill:none;fill-rule:evenodd;stroke:#000000;stroke-width:0.03221492;stroke-linecap:butt;stroke-linejoin:miter;stroke-miterlimit:4;stroke-dasharray:none;stroke-opacity:1"
         d="M 219.74754,0.062511534 L 226.70838,0.062511534"
         id="path3176"
         sodipodi:nodetypes="cc" />
      <path
         sodipodi:nodetypes="cc"
         id="path3178"
         d="M 223.29036,-3.2997195 L 223.29036,3.6063107"
         style="fill:none;fill-rule:evenodd;stroke:#000000;stroke-width:0.03196126;stroke-linecap:butt;stroke-linejoin:miter;stroke-miterlimit:4;stroke-dasharray:none;stroke-opacity:1" />
    </g>
    <g
       transform="translate(-219.68504,3.3622195)"
       id="g3180">
      <path
         sodipodi:nodetypes="cc"
         id="path3182"
         d="M 219.74754,0.062511534 L 226.70838,0.062511534"
         style="fill:none;fill-rule:evenodd;stroke:#000000;stroke-width:0.03221492;stroke-linecap:butt;stroke-linejoin:miter;stroke-miterlimit:4;stroke-dasharray:none;stroke-opacity:1" />
      <path
         style="fill:none;fill-rule:evenodd;stroke:#000000;stroke-width:0.03196126;stroke-linecap:butt;stroke-linejoin:miter;stroke-miterlimit:4;stroke-dasharray:none;stroke-opacity:1"
         d="M 223.29036,-3.2997195 L 223.29036,3.6063107"
         id="path3184"
         sodipodi:nodetypes="cc" />
    </g>
  </g>
</svg>
