<?xml version="1.0" encoding="UTF-8" standalone="no"?>
<!-- Created with Inkscape (http://www.inkscape.org/) -->
<svg
   xmlns:dc="http://purl.org/dc/elements/1.1/"
   xmlns:cc="http://creativecommons.org/ns#"
   xmlns:rdf="http://www.w3.org/1999/02/22-rdf-syntax-ns#"
   xmlns:svg="http://www.w3.org/2000/svg"
   xmlns="http://www.w3.org/2000/svg"
   xmlns:sodipodi="http://sodipodi.sourceforge.net/DTD/sodipodi-0.dtd"
   xmlns:inkscape="http://www.inkscape.org/namespaces/inkscape"
   id="svg5831"
   sodipodi:version="0.32"
   inkscape:version="0.46"
   width="230.31497"
   height="318.84155"
   version="1.0"
   sodipodi:docname="4s.svg"
   inkscape:output_extension="org.inkscape.output.svg.inkscape">
  <metadata
     id="metadata5836">
    <rdf:RDF>
      <cc:Work
         rdf:about="">
        <dc:format>image/svg+xml</dc:format>
        <dc:type
           rdf:resource="http://purl.org/dc/dcmitype/StillImage" />
      </cc:Work>
    </rdf:RDF>
  </metadata>
  <defs
     id="defs5834">
    <inkscape:perspective
       sodipodi:type="inkscape:persp3d"
       inkscape:vp_x="0 : 526.18109 : 1"
       inkscape:vp_y="0 : 1000 : 0"
       inkscape:vp_z="744.09448 : 526.18109 : 1"
       inkscape:persp3d-origin="372.04724 : 350.78739 : 1"
       id="perspective5838" />
  </defs>
  <sodipodi:namedview
     inkscape:window-height="667"
     inkscape:window-width="870"
     inkscape:pageshadow="2"
     inkscape:pageopacity="0.0"
     guidetolerance="10.0"
     gridtolerance="10.0"
     objecttolerance="10.0"
     borderopacity="1.0"
     bordercolor="#666666"
     pagecolor="#ffffff"
     id="base"
     showgrid="false"
     inkscape:zoom="1.4489956"
     inkscape:cx="115.15749"
     inkscape:cy="159.42078"
     inkscape:window-x="88"
     inkscape:window-y="116"
     inkscape:current-layer="svg5831" />
  <path
     style="fill:#000000"
     d="M 200.40667,300.1761 C 200.08392,300.0917 200.11219,300.9805 200.06472,289.4264 C 200.03777,282.8691 199.97619,279.9306 199.86283,279.794 C 199.75562,279.6648 199.12821,279.5648 198.0315,279.5021 C 196.9419,279.4397 196.32181,279.3413 196.24372,279.2183 C 196.04225,278.9009 196.09478,276.4541 196.306,276.3174 C 196.40852,276.2511 197.26407,276.1632 198.20722,276.1222 L 199.92204,276.0477 L 199.92204,273.8911 L 199.92204,271.7345 L 199.43742,271.6171 C 199.17088,271.5525 198.73471,271.447 198.46817,271.3827 L 197.98355,271.2658 L 197.93945,270.176 C 197.91215,269.501 197.96167,269.0064 198.06956,268.8764 C 198.21092,268.706 198.95624,268.6665 202.02507,268.6665 L 205.8064,268.6665 L 205.90133,269.0447 C 206.04162,269.6036 205.89549,271.1776 205.68358,271.39 C 205.58254,271.4913 205.01653,271.6078 204.42578,271.6488 L 203.35169,271.7233 L 203.35169,273.9601 L 203.35169,276.1968 L 209.52671,276.2357 C 214.02431,276.2641 215.75967,276.3228 215.91509,276.4518 C 216.07778,276.5868 216.11637,276.9319 216.07748,277.904 L 216.02647,279.1791 L 214.62033,281.3413 C 211.35101,286.3684 202.41562,299.7779 202.17519,300.0179 C 201.92349,300.2692 201.05887,300.3465 200.40667,300.1761 z M 204.47005,291.1736 C 204.92112,290.5135 205.71289,289.3229 206.22955,288.5278 C 206.7462,287.7327 207.82893,286.0757 208.63561,284.8455 C 211.29254,280.7936 211.78889,279.9518 211.62028,279.7832 C 211.3732,279.5361 203.64579,279.5709 203.39642,279.8202 C 203.19306,280.0236 203.18384,280.5673 203.24738,288.6106 C 203.27027,291.5081 203.32009,292.3755 203.46352,292.3747 C 203.56604,292.3742 204.01898,291.8337 204.47005,291.1736 z M 61.794472,284.9573 C 61.475442,284.4857 60.759762,283.3618 60.204072,282.4596 C 59.648382,281.5575 59.004172,280.6025 58.772512,280.3375 C 58.540842,280.0725 58.045212,279.4015 57.671112,278.8463 C 56.142722,276.5784 54.904492,274.8677 53.491072,273.0714 C 51.921802,271.077 50.511772,269.2688 49.763202,268.2909 C 49.517162,267.9694 48.777772,267.0333 48.120102,266.2107 C 47.084642,264.9154 45.348022,262.4818 44.087412,260.5594 C 43.295412,259.3517 41.508912,256.1555 40.834282,254.7393 C 39.922442,252.8252 39.450322,251.1658 39.236452,249.1233 C 38.751782,244.4943 39.668542,241.2163 42.351042,237.9868 C 43.441012,236.6745 44.371902,235.9731 46.057832,235.1936 C 47.592732,234.4839 49.051332,234.2771 50.841982,234.5152 C 52.811042,234.777 53.790332,235.3041 55.429572,236.9846 C 57.051672,238.6474 57.923882,240.242 58.648572,242.8696 C 58.908702,243.8127 59.196712,244.8528 59.288602,245.1809 C 59.442782,245.7313 59.495952,245.7773 59.977582,245.7773 L 60.499482,245.7773 L 60.470222,244.3822 C 60.422962,242.1285 59.708272,238.3355 58.878732,235.9357 C 57.935892,233.2082 57.257262,231.5567 55.493062,227.6964 C 55.141962,226.9281 55.044892,226.5683 55.158172,226.455 C 55.396922,226.2162 68.397732,226.0687 68.542602,226.3031 C 68.601972,226.3992 68.350042,227.096 67.982742,227.8517 C 67.216242,229.4286 66.067142,232.3402 65.822142,233.3262 C 65.506522,234.5964 64.776162,238.025 64.615092,238.9926 C 64.323442,240.7445 64.076272,244.7794 64.230772,245.2662 C 64.360042,245.6735 64.831972,245.8979 65.174082,245.7148 C 65.395372,245.5964 65.468992,245.3175 65.547062,244.3018 C 65.793512,241.0955 66.648312,239.0324 68.496432,237.1833 C 70.456342,235.2223 72.229932,234.485 74.935082,234.5069 C 77.757362,234.5297 79.384722,235.247 81.524702,237.4115 C 83.782752,239.6954 84.641842,241.6983 85.022902,245.5673 C 85.308822,248.4702 84.741872,251.8984 83.509472,254.7187 C 82.061122,258.0333 80.588382,260.5975 78.244172,263.8862 C 76.502132,266.3302 73.920182,269.844 72.649862,271.4997 C 71.989122,272.3608 71.037812,273.6693 70.535822,274.4074 C 68.797042,276.9641 67.968112,278.1394 67.275662,279.03 C 66.893032,279.522 65.852972,281.0318 64.964422,282.3851 C 63.262592,284.9769 62.655862,285.8147 62.480812,285.8147 C 62.422362,285.8147 62.113512,285.4289 61.794472,284.9573 z M 166.34352,284.1988 C 165.48592,282.8751 164.8434,281.8603 164.30347,280.9766 C 164.15039,280.7261 163.70806,280.1185 163.3205,279.6264 C 162.93294,279.1343 162.15654,278.0607 161.59516,277.2406 C 161.03379,276.4205 160.11749,275.1455 159.55895,274.4074 C 159.00041,273.6693 158.39226,272.8641 158.20751,272.6182 C 158.02276,272.3722 157.40189,271.5899 156.82779,270.8797 C 155.82047,269.6336 154.4596,267.9245 153.44054,266.6257 C 153.17118,266.2824 152.54819,265.4977 152.05611,264.8819 C 150.58007,263.0348 147.7227,258.7864 146.82896,257.1101 C 144.17053,252.1239 143.88209,251.2067 143.68701,247.1194 C 143.60259,245.3505 143.62801,245.0494 143.97749,243.6785 C 144.65012,241.04 145.20176,239.9844 147.09135,237.7202 C 148.14532,236.4572 149.36625,235.6012 151.149,234.8753 C 153.36463,233.9732 156.03287,234.0196 158.08584,234.9959 C 159.5086,235.6726 161.52249,237.7368 162.42155,239.4399 C 163.2072,240.9282 163.33856,241.2939 163.9749,243.7643 L 164.45503,245.6282 L 164.95012,245.6765 C 165.2453,245.7054 165.49596,245.6452 165.57092,245.5274 C 165.83365,245.1148 165.40315,241.3662 164.75197,238.3961 C 164.5432,237.444 163.70922,234.9386 162.96504,233.028 C 162.61981,232.1416 161.90749,230.5234 160.62525,227.7126 C 160.35788,227.1264 160.18042,226.5393 160.23088,226.4078 C 160.31321,226.1932 161.01913,226.1687 167.10326,226.1687 C 170.83259,226.1687 173.91398,226.219 173.95078,226.2805 C 173.98758,226.342 173.57215,227.3015 173.02761,228.4127 C 171.8156,230.8858 171.50304,231.7367 170.75729,234.5937 C 169.97497,237.5907 169.62144,239.5617 169.43464,241.9674 C 169.18751,245.15 169.22381,245.3968 169.97148,245.6182 C 170.49941,245.7745 170.77005,245.354 170.77005,244.3775 C 170.77005,241.4643 171.9806,238.7359 174.13515,236.7928 C 175.92271,235.1807 177.86325,234.4516 180.2688,234.4883 C 183.24329,234.5337 185.01334,235.3269 187.33122,237.6532 C 189.34147,239.6708 190.38004,242.4322 190.55505,246.2247 C 190.66263,248.5557 190.35907,250.5951 189.55931,252.9145 C 188.18711,256.894 186.07023,260.3951 181.20724,266.728 C 180.98682,267.015 180.47746,267.6922 180.07532,268.2328 C 179.67319,268.7733 178.83918,269.847 178.22197,270.6186 C 176.95957,272.1968 174.86545,274.9982 173.94054,276.3459 C 173.60285,276.838 172.95754,277.7103 172.50653,278.2844 C 172.05553,278.8585 170.76849,280.6513 169.64644,282.2684 C 168.5244,283.8854 167.5173,285.2824 167.40846,285.3728 C 167.25276,285.502 167.0257,285.2517 166.34352,284.1988 z M 205.55471,262.4469 C 205.30984,262.054 204.87078,261.2965 204.57904,260.7634 C 204.08693,259.8642 203.69437,259.2607 201.08748,255.3952 C 200.56203,254.6161 199.58251,252.8841 198.91077,251.5463 L 197.68942,249.1139 L 197.63372,247.4868 C 197.58938,246.1909 197.63278,245.7074 197.84694,245.1118 C 198.94716,242.0522 202.37051,241.1131 203.90238,243.4507 C 204.43192,244.2588 204.6311,244.404 205.01034,244.2585 C 205.2105,244.1817 205.24001,243.9953 205.18076,243.1821 C 205.08591,241.8797 204.39933,240.261 203.35135,238.8689 C 202.89881,238.2678 202.56675,237.7142 202.61342,237.6387 C 202.70632,237.4884 208.36168,237.4495 208.90622,237.5954 C 209.09075,237.6449 209.24173,237.7455 209.24173,237.8192 C 209.24173,237.8928 208.93986,238.3236 208.57091,238.7766 C 208.20195,239.2296 207.77504,239.8493 207.62219,240.1538 C 207.1342,241.126 206.6712,242.7321 206.65141,243.5211 C 206.6325,244.2749 206.63875,244.2862 207.07666,244.2862 C 207.44698,244.2862 207.58084,244.1778 207.87948,243.6365 C 208.0945,243.2467 208.50998,242.8142 208.91811,242.5554 C 209.4976,242.1879 209.7495,242.124 210.6189,242.124 C 212.16996,242.124 213.4653,242.9033 214.21287,244.2862 C 214.48411,244.7879 214.53412,245.1195 214.52781,246.3738 C 214.51372,249.175 213.68105,251.1008 210.19613,256.3918 C 209.26793,257.801 208.19062,259.5456 207.80209,260.2688 C 206.46136,262.7641 206.28526,263.0661 206.14287,263.1135 C 206.06425,263.1397 205.79959,262.8397 205.55471,262.4469 z M 161.15213,91.9652 C 160.66005,91.9242 160.2599,91.8235 160.2629,91.7415 C 160.26591,91.6595 160.63795,90.8543 161.08966,89.9521 C 162.80678,86.5228 163.4681,84.4107 164.358,79.5141 C 164.81822,76.9818 164.96984,73.2516 164.62652,72.9083 C 164.36212,72.6439 163.79216,72.6911 163.63574,72.9903 C 163.5607,73.1338 163.49175,73.6285 163.48252,74.0895 C 163.46111,75.1573 163.12579,76.9135 162.75995,77.8738 C 162.291,79.1048 161.11226,80.7377 160.00429,81.6913 C 157.70876,83.667 155.09478,84.29 151.88197,83.6269 C 149.54364,83.1444 147.47987,81.6872 145.91339,79.4127 C 144.78924,77.7805 144.51815,77.1501 144.13028,75.2663 C 143.37462,71.5962 143.53636,68.6267 144.67508,65.2639 C 145.25631,63.5475 146.52493,60.8042 147.39444,59.3835 C 149.22622,56.3907 153.16671,50.9652 156.38348,47.007 C 157.89485,45.1472 158.54808,44.2998 159.82133,42.5472 C 160.47125,41.6526 161.39715,40.4448 161.87887,39.8632 C 162.3606,39.2815 163.08166,38.336 163.48124,37.7619 C 164.32928,36.5434 165.73192,34.5634 166.37116,33.6823 C 166.6172,33.3432 166.91194,33.0823 167.02613,33.1025 C 167.14034,33.1227 167.94556,34.2479 168.81551,35.603 C 169.68548,36.958 170.66567,38.4076 170.99373,38.8243 C 171.32178,39.241 171.9928,40.1419 172.48488,40.8263 C 174.23917,43.2661 175.111,44.4194 176.45232,46.0746 C 177.20018,46.9975 178.39164,48.483 179.10001,49.3758 C 179.80839,50.2686 180.91067,51.6348 181.54952,52.4118 C 182.18837,53.1888 182.95213,54.203 183.24675,54.6655 C 183.54135,55.1281 183.96888,55.7435 184.19679,56.0331 C 184.57225,56.5102 185.03118,57.2258 186.7338,59.9889 C 187.72586,61.5988 189.52179,65.3161 189.91208,66.5675 C 190.72054,69.1595 190.80388,73.2192 190.09627,75.5391 C 189.56084,77.2946 189.13642,78.1465 188.11267,79.521 C 186.57151,81.5901 185.79906,82.2692 183.99123,83.1446 C 182.01914,84.0994 180.61906,84.3394 178.59296,84.0698 C 176.31859,83.7671 175.17789,83.1346 173.37732,81.1778 C 171.72338,79.3804 170.96167,77.7006 169.87187,73.4472 C 169.68675,72.7246 169.43735,72.5098 168.95966,72.6614 C 168.71713,72.7384 168.68244,72.9135 168.68244,74.0607 C 168.68244,75.282 169.02917,77.9821 169.4306,79.8869 C 169.86418,81.9442 171.36134,85.9484 172.93291,89.254 C 173.64871,90.7597 174.03673,91.7404 173.95066,91.8265 C 173.80298,91.9742 162.70346,92.0944 161.15213,91.9652 z M 55.971322,91.8315 C 55.807562,91.7277 55.870562,91.501 56.291752,90.6781 C 58.240812,86.8703 59.332452,83.3492 59.960952,78.843 C 60.330972,76.1901 60.419132,73.1563 60.136122,72.8152 C 59.652302,72.2323 59.082892,72.8099 59.082892,73.8836 C 59.082892,74.8164 58.727442,76.725 58.383332,77.6399 C 57.562132,79.8232 55.557722,82.0627 53.626202,82.9549 C 52.160792,83.6318 51.549442,83.7559 49.658542,83.7602 C 46.917352,83.7665 44.897572,82.873 42.924312,80.7812 C 40.737902,78.4635 39.882102,76.3955 39.576752,72.6921 C 39.214282,68.2957 40.215982,64.5991 43.240012,59.1733 C 44.414002,57.0669 48.352802,51.5306 51.683662,47.3052 C 52.136212,46.7311 53.097072,45.4718 53.818912,44.5067 C 54.540752,43.5416 55.768812,41.9047 56.547932,40.8691 C 58.047182,38.8764 59.327882,37.0887 61.033642,34.6075 C 61.606132,33.7748 62.162892,33.0202 62.270892,32.9305 C 62.527162,32.7178 62.660432,32.8783 63.930652,34.9287 C 65.263722,37.0805 66.041012,38.2404 66.578722,38.8802 C 66.819962,39.1673 67.630972,40.2755 68.380972,41.3429 C 69.778992,43.3327 70.611732,44.4136 73.475702,47.9563 C 74.379612,49.0745 75.449612,50.4255 75.853472,50.9585 C 76.257342,51.4916 76.869982,52.2633 77.214902,52.6734 C 77.559822,53.0834 78.288042,54.0819 78.833172,54.8922 C 79.378292,55.7025 79.982102,56.5748 80.174962,56.8307 C 80.367832,57.0866 80.657582,57.5308 80.818862,57.8178 C 80.980142,58.1049 81.464182,58.9101 81.894502,59.6072 C 82.943442,61.3065 84.539642,64.5079 84.979862,65.7955 C 85.455172,67.1856 85.732222,68.8427 85.852462,71.0145 C 85.952692,72.825 85.898922,73.2298 85.200332,75.924 C 84.853472,77.2617 83.612872,79.3108 82.097872,81.0485 C 81.465982,81.7733 79.915282,82.8354 78.915192,83.2285 C 78.546132,83.3735 78.177072,83.547 78.095052,83.614 C 77.752222,83.8941 76.016822,84.0984 74.625942,84.0225 C 72.125832,83.8861 70.621442,83.1293 68.777742,81.0804 C 67.217922,79.347 66.044802,76.758 65.484692,73.813 C 65.290972,72.7944 65.092432,72.5321 64.571072,72.6061 C 64.233602,72.6539 64.227722,72.6859 64.247212,74.3696 C 64.268842,76.2382 64.775552,79.3624 65.414742,81.5682 C 65.934052,83.3602 66.959762,85.954 68.336492,88.9567 C 68.987942,90.3775 69.520942,91.5938 69.520942,91.6594 C 69.520942,91.7251 69.311252,91.8207 69.054962,91.872 C 68.337722,92.0154 56.202382,91.9779 55.971322,91.8315 z M 57.293512,68.405 C 57.293512,68.323 57.222452,68.2559 57.135592,68.2559 C 57.048742,68.2559 57.019152,68.323 57.069842,68.405 C 57.120522,68.487 57.191582,68.5541 57.227752,68.5541 C 57.263922,68.5541 57.293512,68.487 57.293512,68.405 z M 21.244952,81.1237 C 20.782442,81.0346 20.818032,80.8884 21.517812,80.0031 C 22.285202,79.0323 22.732312,78.1516 23.141092,76.8058 C 23.544752,75.4769 23.511002,74.4643 23.060902,74.4 C 22.829512,74.3669 22.635832,74.5426 22.289322,75.1001 C 21.630522,76.1598 20.593252,76.6781 19.383912,76.5517 C 18.322102,76.4407 17.747092,76.1634 16.915452,75.3611 C 16.071542,74.5469 15.630082,73.2213 15.765932,71.9092 C 15.981272,69.8293 16.542172,67.83 17.164302,66.9247 C 17.309302,66.7137 17.664062,66.1049 17.952662,65.5718 C 18.241272,65.0387 19.185652,63.5244 20.051292,62.2067 C 21.605872,59.8402 22.799662,57.8098 23.618192,56.1403 C 23.849392,55.6687 24.124852,55.2829 24.230312,55.2829 C 24.335782,55.2829 24.783702,55.9707 25.225682,56.8113 C 26.069912,58.417 26.821932,59.6552 28.599042,62.3658 C 30.158092,64.7438 32.027302,68.4991 32.330672,69.8626 C 32.951812,72.6545 31.977582,75.2387 29.925372,76.2428 C 29.257072,76.5697 28.960142,76.6308 28.302682,76.5762 C 27.328462,76.4955 26.896292,76.2304 26.164852,75.2649 C 25.481922,74.3635 25.037982,74.3083 24.959052,75.1152 C 24.837112,76.3618 25.730682,78.7372 26.850562,80.1434 C 27.191532,80.5716 27.470502,80.991 27.470502,81.0754 C 27.470502,81.2257 21.995212,81.2682 21.244952,81.1237 z M 24.301812,49.9096 C 24.093172,49.7826 24.040862,49.5411 24.040862,48.7046 C 24.040862,47.2146 24.142852,47.0815 25.285082,47.0815 C 26.746752,47.0815 26.758422,47.0611 26.634692,44.7172 C 26.533492,42.8004 26.517582,42.7277 26.170362,42.5957 C 25.972622,42.5205 23.550512,42.4531 20.787902,42.4459 C 18.025292,42.4387 15.429462,42.3884 15.019402,42.3341 L 14.273822,42.2353 L 14.236012,40.9678 C 14.194962,39.5919 14.183522,39.6228 15.407362,37.8113 C 15.702752,37.374 16.436042,36.2446 17.036902,35.3015 C 18.877402,32.4125 23.600812,25.1692 26.687962,20.5018 L 27.945472,18.6006 L 28.665042,18.6006 C 29.979332,18.6006 29.856342,17.5455 29.856342,28.8203 C 29.856342,37.7475 29.882292,38.8849 30.090672,39.0932 C 30.271602,39.2742 30.655812,39.3276 31.776992,39.3276 C 33.752272,39.3276 33.820302,39.3846 33.765892,40.9934 C 33.733832,41.9411 33.665272,42.2795 33.476442,42.4217 C 33.314062,42.544 32.675822,42.6081 31.620062,42.6081 C 29.698622,42.6081 29.824882,42.4237 29.887802,45.1386 L 29.930902,46.998 L 30.900152,47.1516 L 31.869402,47.3052 L 31.913362,48.484 C 31.937552,49.1323 31.903992,49.7148 31.838812,49.7783 C 31.642632,49.9696 24.601912,50.0922 24.301812,49.9096 z M 26.453322,39.1642 C 26.708502,39.0276 26.724932,38.6868 26.724932,33.5276 C 26.724932,28.2259 26.656632,26.6528 26.426462,26.6528 C 26.366612,26.6528 25.826592,27.4077 25.226402,28.3303 C 23.118412,31.5709 21.995522,33.3021 21.046842,34.7743 C 20.520202,35.5915 19.737022,36.796 19.306452,37.451 C 18.150722,39.2091 18.115072,39.1623 20.648492,39.2116 C 25.579472,39.3076 26.194692,39.3026 26.453322,39.1642 z"
     id="path5842" />
  <g
     id="g3796"
     transform="translate(1.593878e-6,0)">
    <rect
       ry="11.25"
       rx="11.25"
       y="3.4247196"
       x="3.6058116"
       height="311.81104"
       width="223.22835"
       id="rect2382"
       style="fill:none;fill-opacity:1;fill-rule:nonzero;stroke:#000000;stroke-width:0.03543307;stroke-linejoin:round;stroke-miterlimit:4;stroke-dasharray:none;stroke-opacity:1" />
    <g
       transform="translate(3.5433116,3.3622195)"
       id="g3164">
      <path
         style="fill:none;fill-rule:evenodd;stroke:#000000;stroke-width:0.03221492;stroke-linecap:butt;stroke-linejoin:miter;stroke-miterlimit:4;stroke-dasharray:none;stroke-opacity:1"
         d="M 219.74754,0.062511534 L 226.70838,0.062511534"
         id="path3160"
         sodipodi:nodetypes="cc" />
      <path
         sodipodi:nodetypes="cc"
         id="path3162"
         d="M 223.29036,-3.2997195 L 223.29036,3.6063107"
         style="fill:none;fill-rule:evenodd;stroke:#000000;stroke-width:0.03196126;stroke-linecap:butt;stroke-linejoin:miter;stroke-miterlimit:4;stroke-dasharray:none;stroke-opacity:1" />
    </g>
    <g
       transform="matrix(1.0001093,0,0,1,3.519309,315.17275)"
       id="g3168">
      <path
         sodipodi:nodetypes="cc"
         id="path3170"
         d="M 219.74754,0.062511534 L 226.70838,0.062511534"
         style="fill:none;fill-rule:evenodd;stroke:#000000;stroke-width:0.03221492;stroke-linecap:butt;stroke-linejoin:miter;stroke-miterlimit:4;stroke-dasharray:none;stroke-opacity:1" />
      <path
         style="fill:none;fill-rule:evenodd;stroke:#000000;stroke-width:0.03196126;stroke-linecap:butt;stroke-linejoin:miter;stroke-miterlimit:4;stroke-dasharray:none;stroke-opacity:1"
         d="M 223.29036,-3.2997195 L 223.29036,3.6063107"
         id="path3172"
         sodipodi:nodetypes="cc" />
    </g>
    <g
       id="g3174"
       transform="matrix(1.0001093,0,0,1,-219.70906,315.17275)">
      <path
         style="fill:none;fill-rule:evenodd;stroke:#000000;stroke-width:0.03221492;stroke-linecap:butt;stroke-linejoin:miter;stroke-miterlimit:4;stroke-dasharray:none;stroke-opacity:1"
         d="M 219.74754,0.062511534 L 226.70838,0.062511534"
         id="path3176"
         sodipodi:nodetypes="cc" />
      <path
         sodipodi:nodetypes="cc"
         id="path3178"
         d="M 223.29036,-3.2997195 L 223.29036,3.6063107"
         style="fill:none;fill-rule:evenodd;stroke:#000000;stroke-width:0.03196126;stroke-linecap:butt;stroke-linejoin:miter;stroke-miterlimit:4;stroke-dasharray:none;stroke-opacity:1" />
    </g>
    <g
       transform="translate(-219.68504,3.3622195)"
       id="g3180">
      <path
         sodipodi:nodetypes="cc"
         id="path3182"
         d="M 219.74754,0.062511534 L 226.70838,0.062511534"
         style="fill:none;fill-rule:evenodd;stroke:#000000;stroke-width:0.03221492;stroke-linecap:butt;stroke-linejoin:miter;stroke-miterlimit:4;stroke-dasharray:none;stroke-opacity:1" />
      <path
         style="fill:none;fill-rule:evenodd;stroke:#000000;stroke-width:0.03196126;stroke-linecap:butt;stroke-linejoin:miter;stroke-miterlimit:4;stroke-dasharray:none;stroke-opacity:1"
         d="M 223.29036,-3.2997195 L 223.29036,3.6063107"
         id="path3184"
         sodipodi:nodetypes="cc" />
    </g>
  </g>
</svg>
