<?xml version="1.0" encoding="UTF-8" standalone="no"?>
<!-- Created with Inkscape (http://www.inkscape.org/) -->
<svg
   xmlns:dc="http://purl.org/dc/elements/1.1/"
   xmlns:cc="http://creativecommons.org/ns#"
   xmlns:rdf="http://www.w3.org/1999/02/22-rdf-syntax-ns#"
   xmlns:svg="http://www.w3.org/2000/svg"
   xmlns="http://www.w3.org/2000/svg"
   xmlns:sodipodi="http://sodipodi.sourceforge.net/DTD/sodipodi-0.dtd"
   xmlns:inkscape="http://www.inkscape.org/namespaces/inkscape"
   id="svg5924"
   sodipodi:version="0.32"
   inkscape:version="0.46"
   width="230.31497"
   height="318.84155"
   version="1.0"
   sodipodi:docname="5c.svg"
   inkscape:output_extension="org.inkscape.output.svg.inkscape">
  <metadata
     id="metadata5929">
    <rdf:RDF>
      <cc:Work
         rdf:about="">
        <dc:format>image/svg+xml</dc:format>
        <dc:type
           rdf:resource="http://purl.org/dc/dcmitype/StillImage" />
      </cc:Work>
    </rdf:RDF>
  </metadata>
  <defs
     id="defs5927">
    <inkscape:perspective
       sodipodi:type="inkscape:persp3d"
       inkscape:vp_x="0 : 526.18109 : 1"
       inkscape:vp_y="0 : 1000 : 0"
       inkscape:vp_z="744.09448 : 526.18109 : 1"
       inkscape:persp3d-origin="372.04724 : 350.78739 : 1"
       id="perspective5931" />
  </defs>
  <sodipodi:namedview
     inkscape:window-height="667"
     inkscape:window-width="770"
     inkscape:pageshadow="2"
     inkscape:pageopacity="0.0"
     guidetolerance="10.0"
     gridtolerance="10.0"
     objecttolerance="10.0"
     borderopacity="1.0"
     bordercolor="#666666"
     pagecolor="#ffffff"
     id="base"
     showgrid="false"
     inkscape:zoom="1.4489956"
     inkscape:cx="115.15749"
     inkscape:cy="159.42078"
     inkscape:window-x="154"
     inkscape:window-y="203"
     inkscape:current-layer="svg5924" />
  <path
     style="fill:#000000"
     d="M 30.904152,18.7265 C 31.029672,18.8042 31.082412,19.2098 31.066572,19.9757 C 31.034392,21.532 30.949792,21.7956 30.447112,21.906 C 30.216532,21.9567 27.628192,21.9627 24.695292,21.9195 L 19.362712,21.8409 L 19.231942,22.1849 C 19.160002,22.3741 19.052172,23.5825 18.992292,24.8704 C 18.901772,26.8176 18.918232,27.2118 19.090062,27.2114 C 19.203712,27.2111 19.789272,27.0101 20.391332,26.7648 C 23.811522,25.3711 27.289002,26.0198 30.260652,28.6059 C 32.092942,30.2005 33.019552,31.7891 33.584762,34.305 C 34.066012,36.4471 34.050682,40.2626 33.552982,42.2148 C 33.111092,43.9481 32.306102,45.5491 31.160142,46.9736 C 29.282052,49.3082 27.446092,50.3119 24.446942,50.6437 C 20.572422,51.0724 16.646752,49.4204 15.141982,46.7279 C 14.135022,44.9262 13.680022,42.891 14.236442,42.6774 C 14.721302,42.4914 16.579672,42.1502 16.700732,42.225 C 16.769492,42.2675 16.928972,42.6498 17.055112,43.0746 C 17.410972,44.2729 18.039722,45.1317 19.306502,46.1496 C 20.471972,47.0861 22.311182,47.4934 24.156172,47.2237 C 24.810952,47.1279 25.590312,46.9478 25.888072,46.8234 C 26.852652,46.4204 28.022222,45.4317 28.833612,44.3335 C 30.343862,42.2893 30.711862,41.2482 30.822572,38.7067 C 30.896082,37.0189 30.866832,36.702 30.516432,35.3894 C 30.303362,34.5912 29.949592,33.5836 29.730252,33.1502 C 29.274642,32.2499 27.711472,30.6442 26.876592,30.219 C 25.302022,29.417 23.572172,29.2528 21.859182,29.7426 C 20.444892,30.1471 19.661172,30.6468 18.402852,31.9466 C 17.212262,33.1765 17.248742,33.1675 16.029572,32.531 C 15.487102,32.2478 15.409372,32.1407 15.364362,31.6145 C 15.311372,30.9951 15.664182,24.989 15.951822,21.6138 C 16.160772,19.1621 16.279142,18.7489 16.804452,18.6379 C 17.408912,18.5101 30.689512,18.5936 30.904152,18.7265 z M 166.18517,32.155 C 167.5847,32.3589 168.60786,32.6988 170.28296,33.5162 C 171.48153,34.1012 172.0885,34.5135 172.93585,35.3184 C 175.62189,37.8698 177.21544,41.7135 176.93757,44.9705 C 176.53282,49.7147 175.64827,51.7723 172.53882,55.2024 C 171.14189,56.7434 170.93997,57.2071 171.51038,57.5641 C 171.69977,57.6826 171.92465,57.5915 172.51844,57.1556 C 173.62776,56.3413 174.77524,55.8266 176.69177,55.2838 C 178.17359,54.864 178.61109,54.804 180.19985,54.8021 C 181.76663,54.8003 182.18856,54.8555 183.28387,55.2052 C 184.87553,55.7135 185.80207,56.179 186.94129,57.0427 C 188.10301,57.9235 188.6476,58.5205 189.62015,59.9795 C 191.31836,62.5271 191.6437,63.5621 191.6437,66.4169 C 191.6437,69.8627 191.14707,71.5189 189.35651,74.0444 C 186.98709,77.3864 183.30696,79.4232 179.54793,79.4729 C 176.42513,79.5143 173.23506,78.2561 171.07086,76.1295 C 168.8315,73.9291 167.82899,72.4369 167.36496,70.6136 C 167.04713,69.3648 166.90903,69.1328 166.51676,69.1886 C 166.24659,69.2271 166.18207,69.3497 166.13879,69.9068 C 166.01844,71.4562 166.70244,75.3377 167.75667,79.0877 C 168.69335,82.4195 169.01567,83.3018 170.15463,85.6512 C 170.72516,86.828 171.19196,87.8569 171.19196,87.9377 C 171.19196,88.0184 171.04081,88.125 170.85607,88.1745 C 170.40971,88.2941 158.52222,88.2948 157.92444,88.1753 C 157.45908,88.0822 157.30573,87.7441 157.59102,87.4401 C 157.77801,87.2408 159.60141,83.0055 159.96582,81.9241 C 161.72003,76.7179 162.83691,69.9984 162.07488,69.2352 C 161.72729,68.8871 161.3605,69.1108 161.2563,69.7346 C 161.01837,71.1587 160.10541,73.2706 159.19612,74.5001 C 156.79338,77.749 151.98995,79.9748 147.9536,79.7097 C 146.11428,79.5889 144.96713,79.277 143.41212,78.4748 C 141.92393,77.7071 139.92674,75.9874 139.03288,74.7039 C 138.22857,73.549 137.37906,71.6624 136.99465,70.1774 C 136.71123,69.0825 136.68365,68.6817 136.76029,66.7718 C 136.83534,64.9019 136.90761,64.4297 137.2912,63.3032 C 138.21996,60.5755 139.39109,58.8629 141.55931,57.0614 C 143.7948,55.2041 147.4035,54.5606 151.15011,55.3511 C 152.52279,55.6408 153.6454,56.0612 155.00691,56.7956 C 155.99475,57.3284 156.10345,57.3566 156.32296,57.1371 C 156.45457,57.0055 156.56224,56.8306 156.56224,56.7483 C 156.56224,56.666 156.03812,56.0495 155.39753,55.3781 C 154.75694,54.7067 154.02679,53.8552 153.77497,53.4857 C 151.77734,50.5547 150.76934,46.2808 151.2601,42.8227 C 151.539,40.8575 151.77767,40.1101 152.54132,38.8104 C 153.94408,36.4231 155.67446,34.7154 157.90578,33.5161 C 160.18708,32.29 163.44061,31.7552 166.18517,32.155 z M 68.410732,32.4609 C 69.712212,32.6174 71.146132,33.0427 72.588432,33.7 C 75.322242,34.9458 77.234212,36.9216 78.555772,39.8665 C 79.725562,42.4733 79.906382,44.4344 79.298382,47.921 C 78.946342,49.9397 77.730862,52.6655 76.694182,53.7612 C 74.862362,55.6972 73.847332,56.9913 73.889142,57.3373 C 73.978162,58.074 74.338012,58.0702 75.409072,57.3215 C 77.738402,55.6932 81.277212,54.8012 84.127292,55.1241 C 87.509432,55.5072 90.408142,57.232 92.427612,60.0629 C 93.355972,61.3642 94.301762,63.4486 94.478222,64.582 C 94.661362,65.7584 94.582702,68.521 94.327102,69.8893 C 93.527842,74.168 89.232852,78.4243 84.664292,79.4651 C 81.912302,80.092 78.768872,79.5832 76.070262,78.074 C 73.303402,76.5267 70.496292,73.0861 69.985322,70.616 C 69.769622,69.5732 69.495302,69.238 69.051772,69.4754 C 68.761142,69.6309 68.747902,69.733 68.824282,71.2292 C 68.910982,72.9276 69.456582,75.9046 70.042952,77.8787 C 70.240452,78.5436 70.636912,79.9274 70.923982,80.9537 C 71.449882,82.8339 72.095392,84.396 73.352172,86.8297 C 73.863082,87.819 73.992452,88.1954 73.865302,88.3225 C 73.673032,88.5148 60.284632,88.4859 60.090592,88.2928 C 60.030312,88.2328 60.506982,87.0104 61.149872,85.5764 C 63.384022,80.5927 64.644362,75.8183 64.853172,71.5472 C 64.932192,69.9312 64.911752,69.6524 64.701522,69.4779 C 64.434172,69.256 64.028882,69.3445 63.949362,69.6422 C 63.921442,69.7467 63.782822,70.3024 63.641322,70.8771 C 63.330942,72.1379 62.314322,74.1506 61.404712,75.3053 C 60.214962,76.8155 57.096932,78.7743 54.825992,79.4382 C 52.419092,80.1417 49.770832,80.2311 47.884342,79.6723 C 46.900372,79.3809 44.878672,78.3944 44.152272,77.8514 C 43.253842,77.1797 41.606162,75.5342 41.137622,74.8408 C 40.424892,73.7861 39.540852,71.7428 39.202442,70.3682 C 38.757622,68.5613 38.868352,65.6206 39.450252,63.7862 C 39.944662,62.2276 40.989662,60.1653 41.713422,59.3198 C 42.436942,58.4745 44.488622,56.8314 45.392562,56.3734 C 47.072952,55.5218 50.411692,55.0626 52.402122,55.4092 C 54.519292,55.7779 56.368062,56.4365 58.154942,57.4585 C 58.639162,57.7355 58.651202,57.7353 58.864042,57.4505 C 58.983122,57.2911 59.080562,57.1003 59.080562,57.0265 C 59.080562,56.9526 58.484982,56.2755 57.757042,55.5217 C 55.680922,53.3719 54.722112,51.6476 53.989292,48.746 C 53.413242,46.4651 53.322602,45.1272 53.607472,43.1105 C 53.872642,41.2332 54.095752,40.5251 54.842972,39.1889 C 56.494662,36.2354 59.235022,33.9667 62.290992,33.0228 C 63.354272,32.6944 65.865222,32.3012 66.768622,32.3217 C 67.097042,32.3291 67.835992,32.3918 68.410732,32.4609 z M 25.225942,55.4794 C 26.217812,55.7568 27.476332,56.6373 28.029052,57.4407 C 28.864192,58.6545 29.125882,59.4212 29.127882,60.6599 C 29.130332,62.1786 28.591702,63.3431 27.208752,64.8091 C 26.002882,66.0874 26.197762,66.2078 27.946282,65.2646 C 29.350182,64.5074 30.445002,64.3578 31.732192,64.7476 C 34.504852,65.5871 35.680382,67.966 34.972832,71.3056 C 34.608282,73.0263 33.672862,74.2217 32.135002,74.9321 C 31.379042,75.2813 31.052642,75.3438 30.042732,75.3326 C 28.319112,75.3135 27.504892,74.9299 26.398502,73.6155 C 25.585342,72.6495 25.446752,72.3644 25.048862,70.8398 C 24.949312,70.4583 24.796292,70.2054 24.665122,70.2054 C 24.352102,70.2054 24.382582,71.192 24.753422,73.0629 C 25.199252,75.3123 25.303172,75.651 26.044192,77.2693 C 26.413342,78.0754 26.669862,78.7808 26.614262,78.8367 C 26.320622,79.132 19.828192,79.0883 19.541612,78.7891 C 19.449222,78.6927 19.676192,78.132 20.182942,77.2049 C 21.426862,74.929 22.373822,72.3294 22.536552,70.7435 C 22.622842,69.9027 22.262052,70.2161 21.776522,71.4036 C 21.094432,73.0718 20.531072,73.7593 19.353262,74.3608 C 18.481162,74.8061 18.237282,74.8612 17.045992,74.8816 C 15.934132,74.9007 15.584062,74.846 14.928592,74.5512 C 12.735632,73.5646 11.505222,70.8154 12.133582,68.306 C 12.464132,66.9859 12.645382,66.6565 13.448352,65.9163 C 14.604022,64.8511 15.218302,64.609 16.758872,64.6119 C 18.245892,64.6146 19.174362,64.924 20.782522,65.9528 C 22.135892,66.8185 22.116082,66.6131 20.695942,65.0552 C 20.052772,64.3496 19.447642,63.4989 19.165792,62.9041 C 18.737682,62.0006 18.700192,61.7981 18.707372,60.4273 C 18.714002,59.1623 18.770412,58.8206 19.077012,58.1881 C 19.874722,56.5425 21.620792,55.4071 23.476602,55.3273 C 24.051342,55.3026 24.838542,55.371 25.225942,55.4794 z M 118.18083,131.1368 C 119.26987,131.2925 121.63486,132.1392 122.77128,132.7803 C 123.76037,133.3382 125.31844,134.7684 126.20036,135.9281 C 126.8709,136.8098 127.86774,138.7686 128.27002,139.9951 C 128.6538,141.1651 128.78758,142.7637 128.63591,144.3671 C 128.22935,148.6652 127.38261,150.5019 124.13461,154.1309 C 123.41071,154.9398 123.08181,155.434 123.02194,155.8029 C 122.94621,156.2696 122.97776,156.3369 123.31156,156.4207 C 123.60065,156.4932 123.85188,156.3874 124.41218,155.9568 C 125.29165,155.281 126.4393,154.747 128.42242,154.0907 C 129.79661,153.6359 130.06949,153.5961 131.85593,153.5898 C 133.92041,153.5825 134.91113,153.791 136.81582,154.6333 C 137.68995,155.0199 139.51368,156.3309 140.15708,157.0352 C 141.26847,158.2518 142.55449,160.3581 143.12696,161.8996 C 143.6229,163.2349 143.75545,165.9935 143.41939,167.9856 C 142.99829,170.4818 142.04549,172.3256 140.15029,174.3116 C 135.98253,178.679 130.80381,179.5791 125.51141,176.8558 C 122.65844,175.3878 119.79753,171.9831 119.17517,169.3153 C 118.93049,168.2665 118.62302,167.9067 118.17593,168.1459 C 117.83228,168.3299 117.81898,169.066 118.12084,171.1952 C 118.46459,173.6199 118.73112,174.8067 119.69779,178.217 C 120.66949,181.6451 120.85246,182.1254 122.24158,184.8949 C 122.7263,185.8612 123.12288,186.7513 123.12288,186.8729 C 123.12288,187.0647 122.21889,187.0938 116.25119,187.0938 C 110.63189,187.0938 109.36545,187.0572 109.30243,186.893 C 109.26004,186.7825 109.49239,186.1275 109.81877,185.4375 C 110.93756,183.0719 111.59262,181.4943 112.04943,180.0651 C 113.17374,176.5477 113.92731,172.9164 114.10882,170.1415 C 114.21871,168.4617 114.07553,167.9339 113.53164,168.0139 C 113.27279,168.0519 113.16698,168.2613 112.94246,169.1799 C 112.62095,170.4952 111.88921,172.0993 111.05669,173.3137 C 109.35313,175.7986 105.81575,177.8775 102.33591,178.4389 C 100.89059,178.6721 98.091622,178.5628 96.998392,178.2306 C 95.674962,177.8285 93.632662,176.644 92.460852,175.599 C 91.395992,174.6494 89.989612,172.8923 89.708592,172.1604 C 89.630852,171.958 89.389432,171.405 89.172092,170.9316 C 88.954742,170.4582 88.649812,169.4505 88.494452,168.6923 C 88.098942,166.762 88.265662,164.0367 88.899562,162.0705 C 89.382132,160.5737 90.299862,158.7643 91.059952,157.811 C 91.981912,156.6549 94.126032,155.0336 95.365062,154.5558 C 98.842232,153.2148 103.44278,153.6633 106.81464,155.6719 C 107.81684,156.2689 108.1946,156.2697 108.1946,155.6748 C 108.1946,155.4046 107.7953,154.868 106.79109,153.7885 C 105.66991,152.5833 105.21925,151.9559 104.55081,150.6694 C 103.61273,148.8639 102.90346,146.4756 102.74148,144.577 C 102.61794,143.1288 102.89289,140.546 103.28487,139.4726 C 104.30857,136.6693 107.15268,133.5175 109.77239,132.2832 C 112.14774,131.164 115.33345,130.7297 118.18083,131.1368 z M 166.62633,230.3509 C 169.33946,230.3758 171.01262,230.4482 171.13033,230.5459 C 171.27741,230.668 171.22704,230.8999 170.89572,231.6259 C 168.65257,236.5414 167.72919,239.3597 166.99791,243.5227 C 166.56596,245.9816 166.51097,249.1517 166.89597,249.3977 C 167.27003,249.6367 167.4363,249.4029 167.74452,248.2047 C 168.99111,243.3583 172.71412,240.144 178.53948,238.8848 C 179.70954,238.6318 182.35255,238.8014 183.59448,239.2091 C 185.59603,239.8662 186.96748,240.7476 188.63716,242.4499 C 190.11794,243.9596 191.25679,246.0947 191.85127,248.4758 C 192.22776,249.9839 192.19884,253.2992 191.79827,254.5531 C 191.63115,255.0762 191.49442,255.5812 191.49442,255.6753 C 191.49442,255.7694 191.11738,256.6172 190.65656,257.5592 C 189.90304,259.0997 189.68711,259.3998 188.51162,260.541 C 187.02974,261.9796 186.03154,262.6307 184.45344,263.1881 C 183.53182,263.5136 183.02417,263.5857 181.24633,263.6437 C 178.90467,263.7201 177.61916,263.5287 175.74508,262.8246 C 174.68603,262.4268 174.39551,262.2776 173.39789,261.6192 C 173.09222,261.4174 172.73954,261.2917 172.61416,261.3398 C 172.12303,261.5283 172.38096,262.1165 173.43438,263.2104 C 175.39331,265.2445 176.67685,267.6011 177.38743,270.4683 C 177.76709,272.0001 177.78935,272.2657 177.71902,274.4243 C 177.63099,277.1259 177.37365,278.1078 176.27487,279.9349 C 174.49959,282.8869 172.12208,284.8771 169.35608,285.7265 C 165.29434,286.9739 162.08503,286.7407 158.42462,284.9323 C 155.68624,283.5794 153.68543,281.194 152.43771,277.7948 C 151.66146,275.68 151.84702,271.355 152.82271,268.8211 C 153.52356,267.0011 154.2032,265.949 156.0356,263.8477 C 157.81239,261.8102 157.99715,261.4409 157.42061,261.0795 C 157.24505,260.9694 157.08994,260.9644 156.94768,261.0642 C 155.05177,262.3944 154.19862,262.8069 151.98125,263.4653 C 150.87218,263.7946 150.36081,263.8578 148.72489,263.8678 C 146.53903,263.8812 145.5534,263.6758 143.79856,262.8412 C 140.88715,261.4567 138.1672,258.1993 137.23611,254.9821 C 136.9565,254.0159 136.90397,250.7491 137.14472,249.2981 C 137.75354,245.6288 140.87169,241.81 144.85606,239.8539 C 146.08396,239.2511 148.32943,238.8547 149.92841,238.9585 C 152.928,239.1532 156.12617,240.6531 158.1462,242.8126 C 160.09224,244.8929 161.13277,246.563 161.49389,248.1858 C 161.69658,249.0966 162.0451,249.5575 162.42184,249.413 C 162.54835,249.3644 162.67918,249.1781 162.71256,248.9988 C 162.89922,247.9967 162.19401,243.3882 161.50908,241.1342 C 161.3469,240.6005 160.96408,239.2234 160.65836,238.0739 C 160.1079,236.0043 159.16964,233.6981 158.03619,231.6288 C 157.71356,231.0398 157.51189,230.5194 157.58804,230.4723 C 157.77987,230.3538 161.50065,230.3038 166.62633,230.3509 z M 74.104352,230.6103 C 74.151722,230.7338 74.039752,231.1536 73.855522,231.5433 C 72.818562,233.7369 71.786912,236.0878 71.613972,236.6514 C 71.550272,236.859 71.323732,237.6335 71.110592,238.3725 C 70.897432,239.1114 70.625632,240.0519 70.506592,240.4624 C 70.387552,240.8729 70.181882,241.8134 70.049572,242.5524 C 69.917252,243.2913 69.743812,244.1874 69.664162,244.5437 C 69.407062,245.6937 69.310042,249.0047 69.525832,249.2647 C 69.835922,249.6383 70.259782,249.5462 70.359932,249.0835 C 71.102392,245.6532 72.727132,243.1248 75.302882,241.3914 C 78.254852,239.4049 80.855762,238.6223 83.925702,238.7968 C 85.995492,238.9145 86.769452,239.1241 88.495722,240.0343 C 91.641342,241.6928 93.958002,244.671 94.922032,248.2957 C 95.345092,249.8863 95.334562,253.154 94.901582,254.6443 C 94.062842,257.5313 92.962652,259.4057 91.189872,260.9679 C 89.806382,262.187 88.777302,262.7902 87.295012,263.251 C 86.319952,263.5541 85.866972,263.5992 83.786862,263.6002 C 81.750212,263.6011 81.211412,263.5502 80.129432,263.2549 C 79.028102,262.9542 77.469392,262.2815 76.060872,261.4989 C 75.569532,261.2259 75.352382,261.3245 75.352382,261.8204 C 75.352382,262.0772 75.775092,262.6374 76.767812,263.6961 C 78.025102,265.037 78.291612,265.4245 79.153362,267.1652 C 79.936952,268.7479 80.199032,269.4692 80.516262,270.9161 C 80.867182,272.5167 80.898672,272.8984 80.811932,274.4989 C 80.654762,277.3988 80.308622,278.4786 78.802032,280.7688 C 77.577732,282.6299 75.779892,284.2218 73.751942,285.2404 C 72.746712,285.7453 70.334662,286.3489 68.618642,286.525 C 67.495662,286.6402 66.857732,286.6231 65.678892,286.446 C 63.837022,286.1694 63.162282,285.9533 61.233182,285.0225 C 59.983362,284.4194 59.511882,284.0861 58.450702,283.0551 C 56.993572,281.6394 56.233102,280.5345 55.431102,278.6676 C 54.415832,276.3042 54.274802,274.265 54.900232,270.9908 C 55.403642,268.3553 56.425462,266.3781 58.359682,264.2967 C 59.502982,263.0664 60.424102,261.8574 60.424102,261.5871 C 60.424102,261.2425 60.041732,260.9321 59.796192,261.0774 C 59.689962,261.1402 59.334342,261.4066 59.005912,261.6694 C 58.208402,262.3074 57.501672,262.65 55.661522,263.2905 C 52.793212,264.2889 49.946572,264.3396 47.408162,263.4374 C 45.734362,262.8426 43.822342,261.6218 42.764172,260.4723 C 41.757312,259.3786 40.422382,257.2613 39.983772,256.0625 C 39.082872,253.6001 39.213832,249.5817 40.276772,247.0725 C 41.688612,243.7396 45.246752,240.5589 48.780042,239.4713 C 49.723522,239.1808 50.228442,239.1267 51.989622,239.1271 C 53.958212,239.1275 54.161922,239.1558 55.497772,239.6139 C 58.277852,240.5673 59.822422,241.5944 61.741162,243.7656 C 63.052632,245.2497 64.082082,246.9971 64.316532,248.137 C 64.546442,249.2549 64.703832,249.5221 65.099302,249.4658 C 65.412712,249.4212 65.424482,249.3571 65.409362,247.7773 C 65.391282,245.8898 64.940492,243.4801 63.985062,240.1639 C 63.653892,239.0144 63.347972,237.9395 63.305232,237.7753 C 62.930312,236.335 62.499222,235.2504 61.471052,233.1606 C 60.813122,231.8233 60.274822,230.652 60.274822,230.5575 C 60.274822,230.4306 62.067122,230.3858 67.146522,230.3858 C 73.124442,230.3858 74.029412,230.415 74.104352,230.6103 z M 210.08013,239.614 C 210.40856,239.64 210.73062,239.7136 210.79584,239.7774 C 210.86106,239.8412 210.60834,240.5003 210.23424,241.2421 C 208.69758,244.289 207.5636,248.8117 208.47799,248.2466 C 208.55533,248.1988 208.7724,247.7378 208.96038,247.2223 C 209.42939,245.936 209.87675,245.2735 210.73402,244.5959 C 211.6901,243.8402 212.54623,243.6091 214.01657,243.7099 C 216.68326,243.8926 218.18858,245.6102 218.33274,248.6347 C 218.42334,250.5351 218.02732,251.7716 217.04591,252.6526 C 215.87237,253.7061 215.06342,254.0376 213.66292,254.039 C 212.63271,254.04 212.33029,253.9753 211.46133,253.568 C 210.90729,253.3083 210.15706,252.8826 209.79414,252.622 C 208.67808,251.8205 208.73714,252.2019 209.92282,253.453 C 210.60509,254.1728 211.24363,255.0271 211.53636,255.6115 C 211.99878,256.5347 212.02081,256.6569 212.02081,258.2986 C 212.02081,259.8805 211.98836,260.08 211.61625,260.7855 C 211.11459,261.7366 210.21801,262.5316 208.98811,263.1159 C 208.12937,263.524 207.94134,263.5578 206.87745,263.4963 C 204.89242,263.3813 203.2704,262.2807 202.38227,260.4461 C 201.88158,259.4118 201.80382,257.3068 202.22702,256.2438 C 202.51393,255.5232 203.56364,253.9541 204.32429,253.1089 C 204.64498,252.7525 204.72228,252.4797 204.50255,252.4797 C 204.43173,252.4797 204.11264,252.688 203.79346,252.9426 C 202.57263,253.9164 201.83671,254.1921 200.45139,254.1944 C 199.36237,254.1962 199.06225,254.1374 198.33432,253.7799 C 197.3734,253.3081 196.67216,252.5848 196.21261,251.5916 C 195.75086,250.5937 195.77155,247.7033 196.24915,246.4864 C 197.17444,244.1287 199.71985,242.8792 202.15514,243.5872 C 203.57824,244.0009 204.95069,245.5067 205.53959,247.3006 C 205.85501,248.2615 206.19218,248.5863 206.30564,248.0385 C 206.36729,247.7409 206.12814,246.2039 205.76916,244.5908 C 205.515,243.4488 204.9888,242.0074 204.38643,240.8033 C 203.82596,239.6829 203.85268,239.6465 205.26576,239.6063 C 207.04657,239.5555 209.38909,239.5593 210.08013,239.614 z M 209.33372,268.2952 C 210.25663,268.4053 211.43152,268.7921 212.81071,269.44 C 214.02999,270.0128 215.42812,271.4786 216.04382,272.8297 C 216.57595,273.9974 216.94537,275.5535 216.78787,275.9639 C 216.7019,276.188 215.65679,276.487 214.71095,276.5581 C 214.2581,276.5922 214.22927,276.5556 213.65325,275.2152 C 213.37067,274.5576 212.98982,274.0344 212.33886,273.4093 C 211.19036,272.3064 210.73429,272.0712 209.23249,271.8071 C 206.87458,271.3926 204.67254,272.0204 203.16771,273.5362 C 202.23429,274.4765 201.19567,276.0182 200.85978,276.9621 C 200.29326,278.5541 200.15896,280.9611 200.54075,282.68 C 201.12457,285.3085 201.57877,286.1646 203.17423,287.6439 C 204.95393,289.294 206.96829,289.7296 209.36447,288.9825 C 210.10765,288.7508 210.93394,288.3739 211.27325,288.1119 C 211.9927,287.5563 212.90637,286.6351 213.23442,286.1344 C 213.53803,285.671 213.82963,285.6754 214.68952,286.156 C 215.14784,286.4121 215.41364,286.6741 215.47887,286.9341 C 215.53297,287.1496 215.49508,288.4033 215.39469,289.7201 C 215.29428,291.0369 215.15088,293.2227 215.076,294.5774 C 214.87562,298.2033 214.68694,299.8127 214.43241,300.0672 C 214.24433,300.2553 213.21401,300.2832 207.30486,300.2607 C 203.50563,300.2462 200.33353,300.195 200.25574,300.1469 C 200.05363,300.022 200.21933,297.3203 200.44584,297.0473 C 200.60691,296.8532 201.34667,296.8345 206.0276,296.9061 C 209.22945,296.9551 211.50326,296.9327 211.61939,296.8509 C 211.82058,296.7093 212.03272,294.9566 212.11902,292.723 C 212.17091,291.3796 212.07036,291.2534 211.312,291.7103 C 209.92939,292.5433 207.42003,292.9568 205.67829,292.6385 C 202.62549,292.0806 199.71784,289.7241 198.40044,286.7401 C 196.90573,283.3545 196.99936,277.411 198.59721,274.2495 C 199.59327,272.2787 201.60857,270.0905 203.14708,269.3094 C 204.79622,268.472 207.33157,268.0564 209.33372,268.2952 z"
     id="path5935" />
  <g
     id="g3796"
     transform="translate(1.593878e-6,0)">
    <rect
       ry="11.25"
       rx="11.25"
       y="3.4247196"
       x="3.6058116"
       height="311.81104"
       width="223.22835"
       id="rect2382"
       style="fill:none;fill-opacity:1;fill-rule:nonzero;stroke:#000000;stroke-width:0.03543307;stroke-linejoin:round;stroke-miterlimit:4;stroke-dasharray:none;stroke-opacity:1" />
    <g
       transform="translate(3.5433116,3.3622195)"
       id="g3164">
      <path
         style="fill:none;fill-rule:evenodd;stroke:#000000;stroke-width:0.03221492;stroke-linecap:butt;stroke-linejoin:miter;stroke-miterlimit:4;stroke-dasharray:none;stroke-opacity:1"
         d="M 219.74754,0.062511534 L 226.70838,0.062511534"
         id="path3160"
         sodipodi:nodetypes="cc" />
      <path
         sodipodi:nodetypes="cc"
         id="path3162"
         d="M 223.29036,-3.2997195 L 223.29036,3.6063107"
         style="fill:none;fill-rule:evenodd;stroke:#000000;stroke-width:0.03196126;stroke-linecap:butt;stroke-linejoin:miter;stroke-miterlimit:4;stroke-dasharray:none;stroke-opacity:1" />
    </g>
    <g
       transform="matrix(1.0001093,0,0,1,3.519309,315.17275)"
       id="g3168">
      <path
         sodipodi:nodetypes="cc"
         id="path3170"
         d="M 219.74754,0.062511534 L 226.70838,0.062511534"
         style="fill:none;fill-rule:evenodd;stroke:#000000;stroke-width:0.03221492;stroke-linecap:butt;stroke-linejoin:miter;stroke-miterlimit:4;stroke-dasharray:none;stroke-opacity:1" />
      <path
         style="fill:none;fill-rule:evenodd;stroke:#000000;stroke-width:0.03196126;stroke-linecap:butt;stroke-linejoin:miter;stroke-miterlimit:4;stroke-dasharray:none;stroke-opacity:1"
         d="M 223.29036,-3.2997195 L 223.29036,3.6063107"
         id="path3172"
         sodipodi:nodetypes="cc" />
    </g>
    <g
       id="g3174"
       transform="matrix(1.0001093,0,0,1,-219.70906,315.17275)">
      <path
         style="fill:none;fill-rule:evenodd;stroke:#000000;stroke-width:0.03221492;stroke-linecap:butt;stroke-linejoin:miter;stroke-miterlimit:4;stroke-dasharray:none;stroke-opacity:1"
         d="M 219.74754,0.062511534 L 226.70838,0.062511534"
         id="path3176"
         sodipodi:nodetypes="cc" />
      <path
         sodipodi:nodetypes="cc"
         id="path3178"
         d="M 223.29036,-3.2997195 L 223.29036,3.6063107"
         style="fill:none;fill-rule:evenodd;stroke:#000000;stroke-width:0.03196126;stroke-linecap:butt;stroke-linejoin:miter;stroke-miterlimit:4;stroke-dasharray:none;stroke-opacity:1" />
    </g>
    <g
       transform="translate(-219.68504,3.3622195)"
       id="g3180">
      <path
         sodipodi:nodetypes="cc"
         id="path3182"
         d="M 219.74754,0.062511534 L 226.70838,0.062511534"
         style="fill:none;fill-rule:evenodd;stroke:#000000;stroke-width:0.03221492;stroke-linecap:butt;stroke-linejoin:miter;stroke-miterlimit:4;stroke-dasharray:none;stroke-opacity:1" />
      <path
         style="fill:none;fill-rule:evenodd;stroke:#000000;stroke-width:0.03196126;stroke-linecap:butt;stroke-linejoin:miter;stroke-miterlimit:4;stroke-dasharray:none;stroke-opacity:1"
         d="M 223.29036,-3.2997195 L 223.29036,3.6063107"
         id="path3184"
         sodipodi:nodetypes="cc" />
    </g>
  </g>
</svg>
