<?xml version="1.0" encoding="UTF-8" standalone="no"?>
<!-- Created with Inkscape (http://www.inkscape.org/) -->
<svg
   xmlns:dc="http://purl.org/dc/elements/1.1/"
   xmlns:cc="http://creativecommons.org/ns#"
   xmlns:rdf="http://www.w3.org/1999/02/22-rdf-syntax-ns#"
   xmlns:svg="http://www.w3.org/2000/svg"
   xmlns="http://www.w3.org/2000/svg"
   xmlns:sodipodi="http://sodipodi.sourceforge.net/DTD/sodipodi-0.dtd"
   xmlns:inkscape="http://www.inkscape.org/namespaces/inkscape"
   id="svg11024"
   sodipodi:version="0.32"
   inkscape:version="0.46"
   width="230.31497"
   height="318.84155"
   version="1.0"
   sodipodi:docname="5d.svg"
   inkscape:output_extension="org.inkscape.output.svg.inkscape">
  <metadata
     id="metadata11029">
    <rdf:RDF>
      <cc:Work
         rdf:about="">
        <dc:format>image/svg+xml</dc:format>
        <dc:type
           rdf:resource="http://purl.org/dc/dcmitype/StillImage" />
      </cc:Work>
    </rdf:RDF>
  </metadata>
  <defs
     id="defs11027">
    <inkscape:perspective
       sodipodi:type="inkscape:persp3d"
       inkscape:vp_x="0 : 526.18109 : 1"
       inkscape:vp_y="0 : 1000 : 0"
       inkscape:vp_z="744.09448 : 526.18109 : 1"
       inkscape:persp3d-origin="372.04724 : 350.78739 : 1"
       id="perspective11031" />
  </defs>
  <sodipodi:namedview
     inkscape:window-height="667"
     inkscape:window-width="901"
     inkscape:pageshadow="2"
     inkscape:pageopacity="0.0"
     guidetolerance="10.0"
     gridtolerance="10.0"
     objecttolerance="10.0"
     borderopacity="1.0"
     bordercolor="#666666"
     pagecolor="#ffffff"
     id="base"
     showgrid="false"
     inkscape:zoom="1.4489956"
     inkscape:cx="115.15749"
     inkscape:cy="159.42078"
     inkscape:window-x="132"
     inkscape:window-y="174"
     inkscape:current-layer="svg11024" />
  <path
     style="fill:#e00000;fill-opacity:1"
     d="M 198.9181,300.1043 C 198.73395,299.8824 198.7913,297.423 198.98805,297.1047 C 199.07475,296.9644 200.4259,296.9278 204.76943,296.9481 C 209.17664,296.9686 210.46336,296.9329 210.55321,296.7875 C 210.61677,296.6847 210.71026,295.9177 210.76098,295.0832 C 210.81169,294.2487 210.89831,293.1131 210.95346,292.5596 L 211.05375,291.5533 L 210.6683,291.5533 C 210.45629,291.5533 210.24496,291.6147 210.19865,291.6896 C 210.02421,291.9718 208.05978,292.601 206.94636,292.7313 C 204.78687,292.9839 202.48132,292.4353 200.72438,291.2508 C 199.51813,290.4376 197.90192,288.6597 197.27261,287.4538 C 196.59862,286.1622 196.34263,285.305 196.02392,283.2725 C 195.81038,281.9107 195.79846,281.382 195.94059,279.5746 C 196.13486,277.1038 196.46648,275.7057 197.20131,274.2592 C 198.29457,272.1072 200.16145,270.0953 201.79618,269.3074 C 203.59921,268.4383 204.56391,268.231 206.76196,268.2403 C 208.54931,268.2479 208.79899,268.2847 209.97387,268.7137 C 211.77189,269.3702 212.59932,269.8659 213.57671,270.872 C 214.78742,272.1184 215.62587,274.0282 215.63022,275.5496 L 215.63199,276.1679 L 214.70027,276.338 C 214.18782,276.4315 213.58852,276.546 213.3685,276.5924 C 212.99938,276.6702 212.95562,276.6265 212.80248,276.0276 C 212.50429,274.8614 212.3046,274.5137 211.35513,273.5072 C 210.68785,272.7998 210.14966,272.3911 209.4846,272.0865 C 208.62394,271.6924 208.4109,271.6586 206.76196,271.6553 C 205.21894,271.6522 204.85011,271.7007 204.07859,272.0082 C 202.15797,272.7736 200.41901,274.6979 199.48344,277.093 C 199.10328,278.0661 199.0373,278.4622 198.97426,280.149 C 198.89988,282.1387 199.00482,282.8612 199.6454,284.7704 C 200.20582,286.4407 201.79381,288.1921 203.42015,288.9338 C 205.05615,289.6798 206.36545,289.7131 208.40007,289.0603 C 209.6629,288.6551 211.26962,287.4308 211.92663,286.3729 C 212.2903,285.7874 212.57261,285.7684 213.54988,286.2636 L 214.29031,286.6389 L 214.29138,287.419 C 214.29198,287.8481 214.18776,290.111 214.05981,292.4478 C 213.81733,296.8756 213.52173,299.8386 213.30123,300.0513 C 213.23029,300.1197 210.00289,300.2052 206.12926,300.2413 C 200.31482,300.2955 199.05693,300.2716 198.9181,300.1043 z M 59.687692,285.3346 C 59.324602,284.702 58.960442,284.0767 58.878452,283.9451 C 58.026392,282.577 57.719892,282.0944 56.987902,280.9678 C 56.522052,280.2508 56.017952,279.4378 55.867702,279.1612 C 55.633312,278.7297 54.576432,277.1367 52.468002,274.0369 C 51.937822,273.2574 50.064262,270.6996 48.672302,268.8549 C 47.501562,267.3034 44.905562,264.2334 43.662742,262.9307 C 43.076072,262.3158 42.335182,261.5154 42.016312,261.152 C 41.292042,260.3267 40.406362,259.5011 39.515102,258.8206 C 39.137042,258.5319 38.827712,258.1871 38.827712,258.0543 C 38.827712,257.9215 39.213452,257.4009 39.684902,256.8972 C 44.511532,251.7411 45.257802,250.9201 47.548662,248.2462 C 48.122612,247.5763 49.136312,246.3967 49.801332,245.6249 C 50.466362,244.8531 51.673882,243.3318 52.484702,242.2442 C 53.295532,241.1566 54.260822,239.8614 54.629782,239.3659 C 55.582692,238.0863 57.909462,234.5603 57.909462,234.3958 C 57.909462,234.3592 58.167282,233.9387 58.482412,233.4615 C 58.797532,232.9842 59.365222,232.0133 59.743952,231.3038 C 61.250392,228.4819 61.293062,228.4202 61.575252,228.6544 C 61.683872,228.7445 62.060702,229.323 62.412662,229.9398 C 62.764622,230.5567 63.236442,231.3726 63.461152,231.753 C 63.685862,232.1334 64.038402,232.7465 64.244572,233.1155 C 64.450742,233.4845 64.882522,234.2224 65.204072,234.7553 C 65.525622,235.2883 66.029612,236.1399 66.324052,236.6478 C 66.618492,237.1557 67.017602,237.7595 67.210962,237.9895 C 67.404332,238.2195 67.721772,238.676 67.916392,239.004 C 68.666962,240.2688 69.199732,241.0814 70.150542,242.4113 C 70.692752,243.1697 71.323312,244.0885 71.551782,244.4532 C 71.780252,244.8178 72.007662,245.1497 72.057132,245.1907 C 72.106602,245.2317 72.393142,245.6342 72.693902,246.0851 C 73.228102,246.8861 73.756532,247.544 76.443672,250.754 C 77.167432,251.6186 78.825882,253.4118 80.129112,254.739 C 82.018202,256.6628 82.470902,257.2014 82.361872,257.3953 C 82.286652,257.5291 81.768632,258.1155 81.210722,258.6986 C 79.177152,260.8237 76.498982,263.7868 75.500442,265.0164 C 75.213472,265.3698 74.661632,266.0346 74.274142,266.4937 C 73.886652,266.9528 73.184902,267.7954 72.714692,268.3661 C 72.244492,268.9369 71.771592,269.5071 71.663812,269.6333 C 71.398982,269.9434 70.224692,271.4386 69.316622,272.622 C 68.908222,273.1542 68.521762,273.6568 68.457812,273.7387 C 66.746072,275.9335 63.143052,281.6329 61.860862,284.1741 C 60.866922,286.144 60.667372,286.4848 60.507772,286.4848 C 60.419812,286.4848 60.050772,285.9672 59.687692,285.3346 z M 167.95725,286.0748 C 167.79838,285.8493 167.51894,285.3696 167.33625,285.0087 C 167.15356,284.6478 166.59134,283.7394 166.0869,282.99 C 165.58246,282.2406 164.86785,281.1419 164.49888,280.5485 C 163.41649,278.8075 162.26146,277.0756 161.14467,275.5188 C 160.57073,274.7188 159.8328,273.6812 159.50484,273.2131 C 159.17687,272.745 158.30477,271.5707 157.56685,270.6035 C 156.82892,269.6362 156.01696,268.5684 155.76249,268.2306 C 155.50802,267.8927 154.93336,267.2161 154.48546,266.727 C 154.03756,266.2379 153.56385,265.68 153.43277,265.4872 C 152.95177,264.7798 148.29345,260.0303 147.30761,259.2421 C 146.74852,258.7951 146.25541,258.3364 146.2118,258.2227 C 146.13296,258.0173 147.77995,256.1407 150.84719,252.9411 C 151.67328,252.0794 152.6846,250.9725 153.09456,250.4814 C 153.50452,249.9903 153.8795,249.5549 153.92785,249.5139 C 154.03756,249.4208 155.09242,248.2166 156.07609,247.0615 C 156.48604,246.58 156.93194,246.0796 157.06697,245.9493 C 157.40868,245.6196 159.62074,242.8068 160.69745,241.3328 C 161.1894,240.6594 161.96087,239.6205 162.41182,239.0242 C 162.86278,238.428 163.6007,237.3547 164.05165,236.6393 C 164.50261,235.9239 165.17912,234.8551 165.555,234.2643 C 166.25366,233.1661 166.55306,232.6373 167.91243,230.1005 C 168.33971,229.3031 168.76414,228.6045 168.85563,228.5479 C 168.94712,228.4914 169.14961,228.6071 169.3056,228.8051 C 169.58767,229.163 172.10176,233.3783 172.10176,233.4933 C 172.10176,233.5603 173.13029,235.1842 174.44415,237.1915 C 174.91866,237.9165 175.72361,239.1482 176.23293,239.9286 C 176.74227,240.709 177.51828,241.8265 177.95743,242.4119 C 178.39658,242.9973 179.21717,244.1471 179.78096,244.9671 C 180.73809,246.359 182.59874,248.7081 183.14623,249.2157 C 183.27888,249.3387 183.74886,249.8754 184.19063,250.4083 C 185.04054,251.4336 187.16448,253.6595 189.20825,255.6667 C 189.88468,256.331 190.43682,256.9458 190.43522,257.0329 C 190.43363,257.12 189.19644,258.5229 187.68591,260.1503 C 186.1754,261.7778 184.66721,263.4214 184.3344,263.8027 C 183.49179,264.7681 181.33119,267.3573 180.97323,267.8306 C 180.81002,268.0464 180.17272,268.8382 179.557,269.5902 C 177.39675,272.2286 175.88875,274.2487 174.28996,276.6457 C 174.04387,277.0147 173.72501,277.4507 173.5814,277.6147 C 173.43778,277.7787 173.15599,278.2148 172.95518,278.5837 C 172.75438,278.9527 172.32927,279.6729 172.0105,280.1842 C 171.00458,281.7976 170.35239,282.9378 169.59925,284.3997 C 168.74224,286.0633 168.48956,286.4848 168.34915,286.4848 C 168.29247,286.4848 168.11611,286.3003 167.95725,286.0748 z M 205.76381,262.8154 C 205.64385,262.6739 205.15018,261.9207 204.66676,261.1418 C 204.18333,260.3629 203.4993,259.3231 203.14667,258.8311 C 202.79405,258.3392 202.22622,257.5342 201.88482,257.0422 C 201.15548,255.9913 198.3705,252.5497 197.73575,251.9149 C 197.1935,251.3727 197.18014,250.9951 197.68405,250.4533 C 197.89767,250.2236 198.38403,249.6744 198.76485,249.233 C 199.14566,248.7915 199.71399,248.1542 200.02781,247.8168 C 200.76752,247.0213 203.21614,243.8407 203.8309,242.8767 C 204.09352,242.4649 204.6294,241.593 205.02177,240.9392 C 205.41415,240.2853 205.83204,239.7351 205.95042,239.7166 C 206.08088,239.6962 206.75286,240.5768 207.65639,241.9523 C 208.47629,243.2004 209.65027,244.8786 210.26522,245.6815 C 210.88018,246.4845 211.56132,247.3901 211.77888,247.6941 C 211.99644,247.998 212.7772,248.8665 213.51391,249.6239 C 214.25061,250.3814 214.88839,251.0924 214.9312,251.204 C 215.01087,251.4116 214.61841,251.93 212.63665,254.235 C 211.14476,255.9702 209.93822,257.5678 207.90217,260.5041 C 206.9799,261.8341 206.17053,262.9562 206.1036,262.9976 C 206.03666,263.0389 205.88376,262.957 205.76381,262.8154 z M 113.70446,187.7575 C 113.62618,187.6559 113.34188,187.1702 113.07267,186.6783 C 112.80347,186.1863 112.28427,185.3142 111.91889,184.7403 C 108.19891,178.8968 105.81187,175.4069 103.15406,171.926 C 102.41613,170.9596 101.68165,169.9926 101.52188,169.7771 C 101.36211,169.5617 100.78844,168.8823 100.24707,168.2674 C 99.705692,167.6524 99.109512,166.9481 98.922232,166.7021 C 98.623732,166.3101 97.050892,164.5541 95.116582,162.4534 C 94.776842,162.0845 93.947402,161.2867 93.273382,160.6805 C 92.599362,160.0744 92.047892,159.4811 92.047892,159.362 C 92.047892,159.1608 94.180052,156.7692 96.535192,154.3288 C 97.865162,152.9506 100.41908,150.1174 101.50729,148.813 C 101.98609,148.239 102.58817,147.5682 102.84527,147.3222 C 103.10236,147.0762 103.57889,146.5395 103.90422,146.1296 C 104.22956,145.7196 104.53242,145.3507 104.57724,145.3097 C 104.87259,145.0395 108.57673,140.1131 109.50916,138.7503 C 110.87803,136.7497 112.68463,133.7975 113.73215,131.8494 C 114.41582,130.578 114.83073,129.9571 114.97724,129.986 C 115.18486,130.027 115.99225,131.3052 117.40591,133.8308 C 118.21806,135.2818 119.86696,137.9868 121.08634,139.8684 C 121.61768,140.6883 122.24367,141.661 122.47744,142.03 C 122.92446,142.7355 123.76985,143.9563 124.39741,144.8024 C 124.60239,145.0788 125.07198,145.7499 125.44094,146.2937 C 126.23412,147.4628 127.68981,149.325 129.11315,150.9914 C 129.67618,151.6506 130.43033,152.537 130.78905,152.9612 C 131.14777,153.3854 132.47268,154.7842 133.7333,156.0696 C 135.06418,157.4267 136.02535,158.5254 136.02535,158.6897 C 136.02535,158.8454 135.84892,159.1353 135.6333,159.3341 C 135.05249,159.8695 130.13412,165.312 129.05173,166.6171 C 128.53691,167.2378 127.75052,168.1817 127.30419,168.7146 C 126.85785,169.2476 125.88448,170.4215 125.14114,171.3234 C 124.39779,172.2254 123.56097,173.2374 123.28153,173.5724 C 123.00209,173.9074 122.35599,174.746 121.84574,175.4359 C 121.3355,176.1257 120.74248,176.925 120.52792,177.212 C 120.18231,177.6742 117.75039,181.3383 116.86703,182.7278 C 116.33069,183.5714 115.81957,184.4893 114.94359,186.1822 C 114.06868,187.8729 113.92964,188.0497 113.70446,187.7575 z M 60.291392,90.3459 C 60.047222,89.9609 59.847452,89.5958 59.847452,89.5347 C 59.847452,89.3368 54.531172,81.3569 53.427052,79.8975 C 53.134522,79.5108 52.765552,78.9777 52.607142,78.7129 C 52.136432,77.926 48.377372,73.0301 47.250512,71.7363 C 46.676572,71.0773 46.039272,70.3312 45.834292,70.0783 C 44.726292,68.7114 41.309262,65.1321 40.295852,64.2769 C 39.652362,63.7338 39.125862,63.1975 39.125862,63.0851 C 39.125862,62.8697 40.349762,61.4394 43.073402,58.4718 C 44.579992,56.8303 45.773542,55.4502 48.873942,51.7644 C 49.494672,51.0265 50.784502,49.3829 51.740232,48.112 C 52.695962,46.8412 53.670002,45.5537 53.904772,45.2511 C 54.139542,44.9484 54.331632,44.6582 54.331632,44.6062 C 54.331632,44.5541 54.650282,44.0975 55.039742,43.5915 C 55.429202,43.0855 56.084812,42.1347 56.496662,41.4785 C 57.277022,40.2353 59.479962,36.5745 59.681592,36.1859 C 59.745412,36.063 60.093952,35.3718 60.456112,34.65 C 60.818282,33.9282 61.201812,33.2632 61.308422,33.1721 C 61.568622,32.9497 61.764272,33.1702 62.461292,34.4716 C 62.768702,35.0455 63.101562,35.6157 63.200982,35.7387 C 63.300402,35.8617 63.682602,36.499 64.050312,37.1549 C 66.094372,40.8011 68.789422,44.9666 73.145322,51.2121 C 73.531792,51.7662 74.970562,53.5402 75.782262,54.4635 C 76.078212,54.8002 76.487752,55.3033 76.692352,55.5816 C 77.116492,56.1586 79.609092,58.8083 81.340322,60.5226 C 81.982002,61.158 82.507022,61.788 82.507022,61.9226 C 82.507022,62.0573 82.322532,62.347 82.097062,62.5664 C 81.871582,62.7858 81.284592,63.4278 80.792642,63.993 C 80.300692,64.5582 79.797562,65.1259 79.674572,65.2544 C 79.004342,65.9552 76.244532,69.1531 75.531642,70.055 C 75.227512,70.4398 74.576452,71.2448 74.084852,71.8439 C 73.593252,72.443 72.966602,73.2269 72.692312,73.5859 C 72.418012,73.9448 72.064512,74.3809 71.906752,74.5549 C 71.489772,75.0147 69.868612,77.1239 69.090172,78.2192 C 68.721202,78.7384 68.215542,79.4386 67.966482,79.7751 C 67.021722,81.0517 64.728832,84.5445 63.797092,86.1264 C 63.483192,86.6594 63.084492,87.3302 62.911102,87.6172 C 62.737702,87.9042 62.264122,88.793 61.858682,89.5925 C 61.453242,90.3919 61.034632,91.046 60.928432,91.046 C 60.822232,91.046 60.535562,90.7309 60.291392,90.3459 z M 58.136252,68.2408 C 57.989602,68.0788 57.808232,67.9841 57.733222,68.0305 C 57.547362,68.1453 57.888212,68.5355 58.174432,68.5355 C 58.366792,68.5355 58.360752,68.4889 58.136252,68.2408 z M 168.34169,90.5827 C 168.13331,90.3045 167.84484,89.844 167.70063,89.5593 C 167.55642,89.2746 166.66327,87.8993 165.71585,86.5032 C 164.76843,85.1071 163.85545,83.7455 163.68705,83.4774 C 163.51862,83.2092 163.07894,82.5715 162.70997,82.0602 C 162.34101,81.5489 161.43934,80.2924 160.70624,79.268 C 159.97316,78.2436 159.08004,77.0365 158.72154,76.5856 C 158.36304,76.1346 157.63539,75.1954 157.10454,74.4985 C 156.57369,73.8016 155.82324,72.8668 155.43688,72.4211 C 151.60038,67.9962 148.61205,64.8627 147.32154,63.9115 C 146.93409,63.626 146.57735,63.2748 146.52878,63.1313 C 146.43079,62.8416 147.30315,61.777 150.10169,58.771 C 151.93299,56.8039 154.41671,53.9826 154.88348,53.3393 C 155.19153,52.9148 156.2185,51.703 157.28134,50.51 C 158.18531,49.4953 161.90484,44.5038 163.38082,42.3247 C 164.95866,39.9952 166.84871,36.8302 167.80345,34.9188 C 168.90897,32.7055 169.15982,32.5346 169.69053,33.633 C 170.298,34.8903 175.16358,42.8182 175.87569,43.711 C 175.94255,43.7948 176.34505,44.387 176.77014,45.0271 C 180.74699,51.0149 183.16707,54.0422 187.60568,58.5813 C 189.12253,60.1325 190.38287,61.5145 190.40642,61.6523 C 190.42999,61.7901 190.19519,62.1758 189.88465,62.5094 C 186.39521,66.2584 183.03803,70.2251 179.0436,75.3184 C 178.01478,76.6303 177.08296,77.8043 176.9729,77.9273 C 176.69583,78.2369 174.83303,80.9123 174.01469,82.1759 C 173.643,82.7499 173.07744,83.622 172.75788,84.1139 C 172.43832,84.6059 172.10236,85.1425 172.01131,85.3065 C 171.92023,85.4705 171.56436,86.0621 171.22046,86.6213 C 170.87657,87.1804 170.26637,88.2873 169.86449,89.081 C 169.4626,89.8748 169.0408,90.6511 168.92716,90.8063 C 168.73027,91.0751 168.70269,91.0645 168.34169,90.5827 z M 23.427782,78.4891 C 23.228302,78.2211 22.964992,77.8341 22.842632,77.6291 C 22.350222,76.8042 20.984332,74.6903 20.533672,74.0556 C 20.269982,73.6843 19.773262,72.9779 19.429842,72.486 C 19.086432,71.994 18.765502,71.558 18.716672,71.517 C 18.667852,71.476 18.395032,71.1406 18.110422,70.7716 C 17.544242,70.0376 16.915612,69.326 15.841332,68.2027 C 15.042482,67.3675 15.045882,67.2144 15.882882,66.3305 C 16.439362,65.7428 18.178812,63.5402 18.968522,62.4233 C 19.792572,61.2579 20.919852,59.6767 21.147352,59.3673 C 21.420212,58.9961 23.192432,56.3047 23.407852,55.9344 C 23.639142,55.5367 24.002512,55.7445 24.380342,56.4903 C 24.558892,56.8428 25.350162,58.0941 26.138722,59.2711 C 26.927282,60.4481 27.639552,61.5178 27.721542,61.6482 C 27.977442,62.0552 28.071692,62.1846 28.503422,62.7215 C 28.734182,63.0085 29.222872,63.6446 29.589412,64.1352 C 30.360582,65.1673 30.757032,65.6463 31.634792,66.6063 C 31.983252,66.9874 32.268362,67.3949 32.268362,67.5117 C 32.268362,67.6286 32.047592,67.9571 31.777752,68.2417 C 31.077122,68.9806 28.955602,71.4794 28.690532,71.878 C 28.567552,72.0629 28.287592,72.443 28.068422,72.7228 C 26.790472,74.3538 25.750382,75.8945 24.685962,77.7335 C 24.344242,78.3239 24.002962,78.845 23.927552,78.8916 C 23.852152,78.9382 23.627252,78.7571 23.427782,78.4891 z M 20.385882,49.7617 C 18.685102,49.1618 17.722662,48.6104 16.837432,47.7285 C 15.900092,46.7946 15.400382,45.9556 14.992162,44.6303 C 14.598962,43.3537 14.580592,42.6429 14.938262,42.5447 C 15.870112,42.2891 16.797242,42.1297 16.968902,42.1955 C 17.079442,42.238 17.248512,42.5849 17.344622,42.9666 C 17.440722,43.3483 17.697242,43.9293 17.914652,44.2579 C 18.493232,45.1322 20.081202,46.3907 20.966482,46.6766 C 22.664452,47.225 24.839802,47.1243 26.351502,46.4273 C 28.311852,45.5234 30.346092,42.783 30.789122,40.4492 C 31.025032,39.2064 30.983482,36.8084 30.706132,35.6588 C 30.204032,33.5775 29.778752,32.6927 28.742852,31.5738 C 26.864192,29.5447 24.518452,28.8645 22.020602,29.6245 C 20.670452,30.0354 19.422822,30.8412 18.553362,31.8641 C 18.184392,32.2981 17.836642,32.7237 17.780572,32.8099 C 17.649312,33.0115 16.197862,32.3459 16.012162,31.9989 C 15.863412,31.721 16.365882,21.5212 16.605822,19.9483 C 16.686142,19.4217 16.838542,18.907 16.944492,18.8045 C 17.091932,18.6618 18.711212,18.6116 23.845562,18.5903 C 27.535192,18.575 30.647932,18.5698 30.762742,18.5787 C 30.934022,18.592 30.953642,18.8675 30.872002,20.1131 C 30.817282,20.9481 30.750652,21.6531 30.723942,21.6798 C 30.697222,21.7066 28.255162,21.7332 25.297142,21.7391 C 21.108892,21.7474 19.859762,21.793 19.651542,21.9453 C 19.434292,22.1041 19.350292,22.5281 19.203472,24.2066 C 18.941192,27.2052 18.945642,27.3905 19.279962,27.3905 C 19.433622,27.3905 19.852892,27.2281 20.211692,27.0296 C 21.331742,26.4101 22.522492,26.1389 24.143712,26.134 C 26.654262,26.1265 28.436302,26.9031 30.592302,28.9444 C 31.882862,30.1663 32.773642,31.7357 33.277422,33.6752 C 33.642282,35.0799 33.677792,35.4621 33.676852,37.9749 C 33.675952,40.3724 33.630632,40.9081 33.329982,42.0744 C 32.813032,44.0799 31.768962,45.8804 30.143692,47.5692 C 29.173862,48.5769 27.606482,49.5547 26.623462,49.7651 C 26.325492,49.8289 25.813362,49.9511 25.485402,50.0366 C 25.157432,50.122 24.151172,50.1923 23.249262,50.1926 C 21.820692,50.1931 21.451782,50.1376 20.385882,49.7617 z"
     id="path11035" />
  <g
     id="g3796"
     transform="translate(1.593878e-6,0)">
    <rect
       ry="11.25"
       rx="11.25"
       y="3.4247196"
       x="3.6058116"
       height="311.81104"
       width="223.22835"
       id="rect2382"
       style="fill:none;fill-opacity:1;fill-rule:nonzero;stroke:#000000;stroke-width:0.03543307;stroke-linejoin:round;stroke-miterlimit:4;stroke-dasharray:none;stroke-opacity:1" />
    <g
       transform="translate(3.5433116,3.3622195)"
       id="g3164">
      <path
         style="fill:none;fill-rule:evenodd;stroke:#000000;stroke-width:0.03221492;stroke-linecap:butt;stroke-linejoin:miter;stroke-miterlimit:4;stroke-dasharray:none;stroke-opacity:1"
         d="M 219.74754,0.062511534 L 226.70838,0.062511534"
         id="path3160"
         sodipodi:nodetypes="cc" />
      <path
         sodipodi:nodetypes="cc"
         id="path3162"
         d="M 223.29036,-3.2997195 L 223.29036,3.6063107"
         style="fill:none;fill-rule:evenodd;stroke:#000000;stroke-width:0.03196126;stroke-linecap:butt;stroke-linejoin:miter;stroke-miterlimit:4;stroke-dasharray:none;stroke-opacity:1" />
    </g>
    <g
       transform="matrix(1.0001093,0,0,1,3.519309,315.17275)"
       id="g3168">
      <path
         sodipodi:nodetypes="cc"
         id="path3170"
         d="M 219.74754,0.062511534 L 226.70838,0.062511534"
         style="fill:none;fill-rule:evenodd;stroke:#000000;stroke-width:0.03221492;stroke-linecap:butt;stroke-linejoin:miter;stroke-miterlimit:4;stroke-dasharray:none;stroke-opacity:1" />
      <path
         style="fill:none;fill-rule:evenodd;stroke:#000000;stroke-width:0.03196126;stroke-linecap:butt;stroke-linejoin:miter;stroke-miterlimit:4;stroke-dasharray:none;stroke-opacity:1"
         d="M 223.29036,-3.2997195 L 223.29036,3.6063107"
         id="path3172"
         sodipodi:nodetypes="cc" />
    </g>
    <g
       id="g3174"
       transform="matrix(1.0001093,0,0,1,-219.70906,315.17275)">
      <path
         style="fill:none;fill-rule:evenodd;stroke:#000000;stroke-width:0.03221492;stroke-linecap:butt;stroke-linejoin:miter;stroke-miterlimit:4;stroke-dasharray:none;stroke-opacity:1"
         d="M 219.74754,0.062511534 L 226.70838,0.062511534"
         id="path3176"
         sodipodi:nodetypes="cc" />
      <path
         sodipodi:nodetypes="cc"
         id="path3178"
         d="M 223.29036,-3.2997195 L 223.29036,3.6063107"
         style="fill:none;fill-rule:evenodd;stroke:#000000;stroke-width:0.03196126;stroke-linecap:butt;stroke-linejoin:miter;stroke-miterlimit:4;stroke-dasharray:none;stroke-opacity:1" />
    </g>
    <g
       transform="translate(-219.68504,3.3622195)"
       id="g3180">
      <path
         sodipodi:nodetypes="cc"
         id="path3182"
         d="M 219.74754,0.062511534 L 226.70838,0.062511534"
         style="fill:none;fill-rule:evenodd;stroke:#000000;stroke-width:0.03221492;stroke-linecap:butt;stroke-linejoin:miter;stroke-miterlimit:4;stroke-dasharray:none;stroke-opacity:1" />
      <path
         style="fill:none;fill-rule:evenodd;stroke:#000000;stroke-width:0.03196126;stroke-linecap:butt;stroke-linejoin:miter;stroke-miterlimit:4;stroke-dasharray:none;stroke-opacity:1"
         d="M 223.29036,-3.2997195 L 223.29036,3.6063107"
         id="path3184"
         sodipodi:nodetypes="cc" />
    </g>
  </g>
</svg>
