<?xml version="1.0" encoding="UTF-8" standalone="no"?>
<!-- Created with Inkscape (http://www.inkscape.org/) -->
<svg
   xmlns:dc="http://purl.org/dc/elements/1.1/"
   xmlns:cc="http://creativecommons.org/ns#"
   xmlns:rdf="http://www.w3.org/1999/02/22-rdf-syntax-ns#"
   xmlns:svg="http://www.w3.org/2000/svg"
   xmlns="http://www.w3.org/2000/svg"
   xmlns:sodipodi="http://sodipodi.sourceforge.net/DTD/sodipodi-0.dtd"
   xmlns:inkscape="http://www.inkscape.org/namespaces/inkscape"
   id="svg11626"
   sodipodi:version="0.32"
   inkscape:version="0.46"
   width="230.31497"
   height="318.84155"
   version="1.0"
   sodipodi:docname="5h.svg"
   inkscape:output_extension="org.inkscape.output.svg.inkscape">
  <metadata
     id="metadata11631">
    <rdf:RDF>
      <cc:Work
         rdf:about="">
        <dc:format>image/svg+xml</dc:format>
        <dc:type
           rdf:resource="http://purl.org/dc/dcmitype/StillImage" />
      </cc:Work>
    </rdf:RDF>
  </metadata>
  <defs
     id="defs11629">
    <inkscape:perspective
       sodipodi:type="inkscape:persp3d"
       inkscape:vp_x="0 : 526.18109 : 1"
       inkscape:vp_y="0 : 1000 : 0"
       inkscape:vp_z="744.09448 : 526.18109 : 1"
       inkscape:persp3d-origin="372.04724 : 350.78739 : 1"
       id="perspective11633" />
  </defs>
  <sodipodi:namedview
     inkscape:window-height="667"
     inkscape:window-width="873"
     inkscape:pageshadow="2"
     inkscape:pageopacity="0.0"
     guidetolerance="10.0"
     gridtolerance="10.0"
     objecttolerance="10.0"
     borderopacity="1.0"
     bordercolor="#666666"
     pagecolor="#ffffff"
     id="base"
     showgrid="false"
     inkscape:zoom="1.4489956"
     inkscape:cx="115.15749"
     inkscape:cy="159.42078"
     inkscape:window-x="22"
     inkscape:window-y="29"
     inkscape:current-layer="svg11626" />
  <path
     style="fill:#e00000;fill-opacity:1"
     d="M 30.970952,18.6962 C 31.140692,18.8204 31.175822,19.1617 31.134522,20.2856 C 31.105602,21.0728 31.044342,21.7543 30.998382,21.8001 C 30.952432,21.8459 28.438322,21.888 25.411472,21.8936 C 22.384632,21.8991 19.766082,21.9392 19.592482,21.9826 C 19.313212,22.0525 19.266362,22.2019 19.185802,23.2795 C 19.135732,23.9493 19.050762,25.0826 18.996992,25.7979 C 18.875512,27.4141 18.976092,27.4869 20.414432,26.8239 C 22.348362,25.9325 24.985762,25.8648 27.140622,26.6512 C 28.659932,27.2057 29.713762,27.9015 31.033912,29.2216 C 32.347152,30.5349 33.071792,31.8312 33.650752,33.9029 C 34.033262,35.2717 34.061632,35.5686 34.061632,38.2039 C 34.061632,41.4953 33.864332,42.6148 32.951772,44.5019 C 32.291342,45.8676 31.752402,46.6501 30.721522,47.7401 C 28.644952,49.9358 26.757992,50.6931 23.334762,50.7047 C 21.593422,50.7106 21.270162,50.6685 20.131602,50.2881 C 18.643452,49.7908 17.031922,48.8377 16.153032,47.9352 C 15.806852,47.5797 15.294642,46.7892 15.008132,46.1681 C 14.432602,44.9207 14.040222,43.1183 14.289832,42.8687 C 14.489612,42.6689 16.646822,42.1688 16.805722,42.2854 C 16.873212,42.3349 17.047992,42.7086 17.194102,43.1157 C 17.630452,44.3316 18.155362,45.088 19.119652,45.8905 C 20.209742,46.7977 20.621812,46.9883 21.993902,47.2202 C 23.762092,47.519 25.829562,47.1 27.216872,46.1616 C 28.373422,45.3794 29.884442,43.3891 30.484892,41.8569 C 31.103772,40.2777 31.214482,37.3834 30.725302,35.5722 C 30.129312,33.3656 29.844082,32.7969 28.761942,31.6577 C 27.530802,30.3616 26.320902,29.7111 24.718732,29.4839 C 23.565362,29.3203 23.281132,29.3513 21.770422,29.8051 C 20.332962,30.2369 18.748412,31.4057 18.034662,32.5606 C 17.851292,32.8572 17.602832,33.0639 17.429562,33.0639 C 17.066302,33.0639 15.776252,32.4905 15.627102,32.2627 C 15.476282,32.0324 15.486582,30.5909 15.656882,28.0948 C 15.735962,26.9356 15.874792,24.6128 15.965352,22.933 C 16.154582,19.424 16.270102,18.7974 16.747542,18.6908 C 17.457732,18.5322 30.753802,18.5372 30.970952,18.6962 z M 181.40711,32.1621 C 186.44097,32.7772 190.50513,36.875 191.68449,42.5245 C 192.24431,45.2062 192.24434,47.3996 191.68462,51.0155 C 191.14286,54.5154 189.16211,59.0502 186.5084,62.8661 C 186.07899,63.4836 185.37798,64.5228 184.95061,65.1754 C 183.00106,68.1524 180.97559,71.1749 180.61281,71.6484 C 180.39413,71.9339 180.02967,72.4577 179.80289,72.8124 C 179.57609,73.1671 178.89778,74.1068 178.29552,74.9006 C 177.69327,75.6944 176.89328,76.8132 176.51778,77.3868 C 176.14228,77.9604 175.57117,78.7984 175.24866,79.2491 C 174.92615,79.6998 174.29787,80.6719 173.85248,81.4094 C 173.40711,82.1468 172.65212,83.3871 172.17473,84.1656 C 171.69734,84.944 170.91705,86.3631 170.44073,87.319 C 169.96443,88.275 169.50207,89.102 169.41327,89.1569 C 169.17147,89.3063 168.83846,88.9637 168.41676,88.1315 C 168.05817,87.4239 166.26723,84.6826 164.02503,81.4094 C 163.46372,80.5899 162.55583,79.2491 162.00749,78.4297 C 161.45915,77.6103 160.50073,76.2694 159.87767,75.45 C 157.29623,72.055 153.79434,67.0013 152.41846,64.6854 C 150.54679,61.535 147.69934,55.532 147.20684,53.6983 C 146.28112,50.2516 146.10094,48.5918 146.31288,45.463 C 146.6322,40.7489 147.82014,37.9447 150.59741,35.3488 C 151.5868,34.4241 153.73209,33.1713 155.11137,32.7127 C 157.02598,32.0762 158.84863,32.0378 160.77376,32.5934 C 163.74411,33.4507 165.79736,35.2574 167.31908,38.3529 C 167.94466,39.6255 168.25562,40.4696 168.93362,42.7358 C 168.9929,42.9339 169.12617,43.1242 169.22975,43.1586 C 169.44968,43.2316 169.86082,42.3374 169.86082,41.786 C 169.86082,41.0903 170.48887,39.1065 171.08561,37.9173 C 172.3123,35.4727 173.5812,34.1302 175.67449,33.0623 C 177.25281,32.2571 179.41081,31.9182 181.40711,32.1621 z M 75.255792,32.3152 C 79.155232,32.7293 82.976542,35.5314 84.708552,39.2468 C 85.625562,41.2139 86.065572,42.8756 86.287262,45.2087 C 86.402472,46.4211 86.373822,47.1845 86.134582,49.2776 C 85.972602,50.6946 85.709162,52.2689 85.549132,52.7761 C 84.294442,56.7527 82.845472,59.7935 80.921042,62.4883 C 80.452912,63.1439 79.804462,64.0825 79.480002,64.5741 C 79.155542,65.0658 78.361682,66.239 77.715852,67.1814 C 77.070032,68.1237 76.151802,69.4645 75.675342,70.161 C 74.632722,71.6852 73.742442,72.9223 72.350602,74.7811 C 70.929092,76.6796 69.180752,79.1989 68.164392,80.8134 C 67.700162,81.5509 66.946822,82.7241 66.490302,83.4206 C 66.033802,84.1171 65.159302,85.6591 64.546992,86.8473 C 63.934672,88.0354 63.363192,89.0544 63.277032,89.1118 C 63.080382,89.2426 62.630592,88.8437 62.339042,88.2799 C 62.100602,87.8188 60.521442,85.4421 58.896812,83.0993 C 56.782142,80.0498 54.800082,77.2221 54.527072,76.8653 C 53.129452,75.0388 51.079722,72.2669 49.900022,70.608 C 47.562722,67.3213 47.144782,66.7144 46.411582,65.5425 C 46.027072,64.928 45.448262,64.0229 45.125352,63.5312 C 44.109702,61.9848 40.542452,54.5327 40.542452,53.9574 C 40.542452,53.8492 40.409242,53.3443 40.246432,52.8355 C 39.222772,49.6365 39.224412,44.5788 40.250212,41.175 C 40.905002,39.0023 41.734372,37.659 43.511872,35.8918 C 44.527312,34.8823 45.073682,34.4768 46.182412,33.9098 C 49.407342,32.2605 51.423432,31.9786 54.307782,32.7737 C 55.816882,33.1897 58.060082,34.511 58.895842,35.4762 C 60.251982,37.0424 60.506342,37.3506 60.506342,37.4276 C 60.506342,37.4707 60.796212,38.1323 61.150492,38.8978 C 61.798532,40.2981 62.301872,41.633 62.545982,42.5989 C 62.739262,43.3637 63.210752,43.3207 63.363642,42.5245 C 63.971122,39.3607 64.832312,37.3771 66.392152,35.549 C 67.964632,33.7061 70.197282,32.5664 72.723062,32.3173 C 73.501502,32.2405 74.171932,32.1855 74.212902,32.195 C 74.253872,32.2046 74.723172,32.2586 75.255792,32.3152 z M 29.070652,55.4231 C 31.749712,56.187 33.303312,58.8298 33.050872,62.1936 C 32.974002,63.218 32.710012,64.3519 32.236472,65.6915 C 31.936282,66.5408 30.120262,70.0759 29.396422,71.2201 C 29.094342,71.6976 28.579012,72.5278 28.251242,73.065 C 27.923482,73.6023 27.406052,74.4413 27.101432,74.9297 C 26.511342,75.8756 24.721402,79.3391 24.458682,80.0434 C 24.253522,80.5933 24.029562,80.5034 23.483742,79.6521 C 23.237922,79.2686 21.670922,76.8925 20.001502,74.3717 C 15.499032,67.5732 14.279402,65.337 13.774722,62.9547 C 13.483652,61.5808 13.577212,59.7479 13.984892,58.8382 C 14.393962,57.9254 15.315442,56.7171 15.916742,56.305 C 16.709372,55.7619 18.547102,55.3823 19.521092,55.5606 C 20.378492,55.7174 21.382782,56.235 21.802322,56.7363 C 22.160662,57.1643 22.668192,58.1903 22.875012,58.9046 C 23.093362,59.6588 23.446202,59.7009 23.566802,58.9872 C 23.777702,57.7392 24.841692,56.2392 25.890852,55.7108 C 26.697902,55.3044 28.183202,55.17 29.070652,55.4231 z M 128.05434,132.308 C 133.10638,132.8155 137.24156,136.6919 138.6808,142.2694 C 139.04745,143.6903 139.08426,144.0797 139.08223,146.5155 C 139.0796,149.6585 138.83217,151.3696 138.02663,153.8157 C 137.7298,154.7171 137.42986,155.5182 137.3601,155.5961 C 137.29033,155.6739 137.23325,155.8459 137.23325,155.9782 C 137.23325,156.2956 135.48777,159.8243 134.75511,160.9881 C 134.18816,161.8887 131.58177,165.744 129.08715,169.3721 C 128.38762,170.3894 126.85428,172.5079 125.67973,174.0797 C 123.65341,176.7914 122.82877,177.9572 121.08189,180.5794 C 119.38799,183.1221 118.33017,184.8782 117.24936,186.9419 C 116.6238,188.1363 116.03988,189.1376 115.95175,189.1669 C 115.77345,189.2264 115.70384,189.129 113.36382,185.5494 C 112.45322,184.1564 111.66876,182.9831 111.62058,182.9422 C 111.57241,182.9012 111.25862,182.4654 110.92326,181.9738 C 108.64265,178.6303 106.07467,175.0649 105.45177,174.3771 C 105.17026,174.0663 102.43175,170.2941 101.07029,168.3417 C 98.221272,164.2562 96.738572,161.6253 94.730932,157.0934 C 93.823212,155.0444 93.711532,154.7488 93.266982,153.2198 C 92.644092,151.0774 92.388322,149.256 92.393712,147.0013 C 92.405632,142.0139 93.547792,138.7776 96.273572,136.0076 C 97.902662,134.3521 100.53068,132.941 102.79585,132.5057 C 104.01262,132.2718 104.3599,132.2606 105.53667,132.4173 C 107.13787,132.6305 108.66999,133.196 110.15623,134.1223 C 111.26586,134.8139 111.69853,135.2245 112.69699,136.5335 C 113.4827,137.5637 114.70935,140.1407 115.17902,141.748 C 115.4965,142.8345 115.62508,143.0889 115.8567,143.0889 C 116.07772,143.0889 116.17078,142.9368 116.26703,142.4184 C 116.74464,139.846 117.56212,137.8335 118.80763,136.1639 C 120.39888,134.0308 122.8591,132.5741 125.24002,132.3552 C 125.73167,132.31 126.30153,132.2543 126.50638,132.2315 C 126.71124,132.2086 127.40782,132.2431 128.05434,132.308 z M 169.49669,229.686 C 169.8974,230.2783 171.3102,232.4559 171.56927,232.8806 C 171.73186,233.1471 173.9848,236.4408 176.39161,239.9307 C 177.18353,241.079 178.3343,242.6959 178.94886,243.5238 C 180.8814,246.1272 181.51552,247.0182 183.01669,249.2393 C 184.99769,252.1704 185.80214,253.3995 185.80214,253.4949 C 185.80214,253.539 186.03523,253.9394 186.32013,254.3848 C 187.00668,255.458 188.61404,258.5281 188.93078,259.3711 C 189.06932,259.7398 189.4879,260.6795 189.86095,261.4592 C 190.65945,263.128 191.35221,265.2785 191.75755,267.3465 C 192.00116,268.5893 192.04119,269.33 192.00287,271.8858 C 191.9622,274.5978 191.91239,275.1223 191.55838,276.5672 C 190.90964,279.215 189.95749,280.8407 187.90921,282.7976 C 186.94911,283.7149 186.40799,284.0851 185.03516,284.7642 C 182.35547,286.0896 180.31253,286.3548 177.90492,285.6898 C 174.67561,284.7979 172.81077,283.1681 171.1241,279.7637 C 170.50575,278.5156 169.91858,276.9045 169.64764,275.7125 C 169.57367,275.387 169.47903,275.3036 169.22523,275.34 C 168.94765,275.3798 168.87304,275.5336 168.73247,276.3553 C 168.28978,278.9434 167.40331,280.9889 165.90377,282.8824 C 165.43216,283.4779 164.02974,284.6984 163.81709,284.6984 C 163.76587,284.6984 163.53079,284.836 163.29468,285.0041 C 163.05857,285.1723 162.37778,285.4864 161.78183,285.7022 C 160.78834,286.0619 160.50636,286.0947 158.38903,286.097 C 156.2715,286.0993 155.98081,286.0661 154.88789,285.6978 C 153.34761,285.1788 152.24653,284.539 151.00609,283.4424 C 148.22045,280.9796 146.83861,278.1429 146.29236,273.7658 C 146.1285,272.4529 146.1441,271.9739 146.43545,269.3701 C 146.70121,266.995 146.85781,266.1689 147.27182,264.958 C 148.62794,260.9917 149.87898,258.4209 151.69446,255.87 C 152.16099,255.2144 152.70163,254.398 152.89588,254.0556 C 153.09014,253.7132 153.96025,252.3724 154.82947,251.0759 C 155.69869,249.7795 156.59761,248.417 156.82706,248.0483 C 157.05651,247.6796 157.53663,246.9756 157.89398,246.484 C 159.69603,244.0047 161.81566,241.0246 161.81566,240.9704 C 161.81566,240.9367 162.33797,240.1187 162.97635,239.1525 C 163.61473,238.1864 164.34311,237.0607 164.59497,236.651 C 164.84683,236.2413 165.49294,235.1967 166.03079,234.3296 C 166.56864,233.4626 167.28503,232.1888 167.62279,231.4989 C 167.96054,230.8091 168.30073,230.1441 168.37879,230.0212 C 168.45682,229.8983 168.58589,229.6469 168.66561,229.4625 C 168.86938,228.9912 169.06167,229.043 169.49669,229.686 z M 174.33035,249.7616 C 174.43236,249.8845 174.61639,249.9851 174.7393,249.9851 C 174.92104,249.9851 174.92814,249.9434 174.7773,249.7616 C 174.67529,249.6387 174.49127,249.5381 174.36836,249.5381 C 174.1866,249.5381 174.1795,249.5799 174.33035,249.7616 z M 63.275772,229.835 C 63.486342,230.1422 64.206412,231.2363 64.875932,232.2661 C 66.480082,234.7335 67.859262,236.7928 69.010032,238.4388 C 69.525622,239.1763 70.165832,240.1149 70.432712,240.5246 C 71.081792,241.521 71.379592,241.9373 72.510952,243.4298 C 73.038932,244.1263 73.922802,245.3256 74.475102,246.0948 C 75.027382,246.8641 75.729712,247.8362 76.035812,248.2551 C 76.341922,248.674 76.695862,249.2015 76.822352,249.4274 C 76.948832,249.6534 77.547782,250.5342 78.153342,251.3849 C 78.758902,252.2355 79.533472,253.4251 79.874622,254.0283 C 80.215752,254.6315 80.579672,255.2256 80.683322,255.3485 C 80.786972,255.4714 81.456432,256.7788 82.171022,258.2537 C 82.885602,259.7287 83.562652,261.1073 83.675552,261.3173 C 84.059632,262.0318 85.056382,264.8043 85.439672,266.2244 C 86.040692,268.4511 86.184802,269.8702 86.081692,272.5463 C 85.911312,276.9685 85.174262,279.285 83.136762,281.802 C 81.983822,283.2263 81.147522,283.9234 79.528842,284.8093 C 77.673702,285.8246 76.410202,286.2049 74.585362,286.2974 C 71.143172,286.4717 67.932292,284.8838 65.808532,281.9568 C 65.061322,280.927 63.965212,278.5531 63.537072,277.0374 C 63.180372,275.7746 63.092532,275.6026 62.823942,275.6411 C 62.582192,275.6757 62.491312,275.8419 62.392722,276.4298 C 62.324032,276.8395 62.133362,277.7111 61.969012,278.3666 C 61.022432,282.1423 58.380162,285.0162 54.895512,286.06 C 53.511162,286.4746 50.603192,286.5092 49.109042,286.1287 C 45.765582,285.2772 42.599282,282.6356 41.088652,279.4372 C 40.212882,277.583 39.497962,274.4471 39.502982,272.4817 C 39.506192,271.2266 39.870542,268.163 40.170752,266.8671 C 40.664232,264.7367 42.590182,259.9924 43.576592,258.4772 C 44.037532,257.7692 45.190402,256.0515 47.068362,253.2748 C 47.931862,251.9981 49.249832,250.0484 49.997182,248.9422 C 51.562042,246.626 52.893982,244.7499 53.843682,243.5243 C 54.417312,242.784 56.732872,239.3883 57.616332,237.9919 C 58.082882,237.2544 58.814002,236.1147 59.241032,235.4591 C 60.241382,233.9235 61.488542,231.7267 62.137862,230.3564 C 62.419362,229.7623 62.704412,229.2763 62.771312,229.2763 C 62.838202,229.2763 63.065212,229.5277 63.275772,229.835 z M 207.60229,238.9975 C 207.7828,239.2937 209.03124,241.4907 209.86311,242.976 C 210.23731,243.6442 212.26213,247.0525 212.69944,247.7503 C 214.02266,249.8618 215.82425,253.3839 216.3603,254.9073 C 216.64589,255.719 216.7004,256.1855 216.7077,257.8813 C 216.71633,259.8788 216.71296,259.8992 216.21677,260.861 C 215.6652,261.93 215.00413,262.7056 214.35461,263.0457 C 212.97025,263.7704 211.32338,263.8831 210.14363,263.3338 C 209.04529,262.8223 208.13188,261.4851 207.95882,260.1352 C 207.9129,259.7771 207.80584,259.4145 207.72091,259.3296 C 207.49408,259.1028 207.1069,259.4773 207.1069,259.9235 C 207.1069,260.5527 206.182,262.2022 205.48449,262.817 C 204.68634,263.5205 203.91411,263.7467 202.62253,263.6552 C 200.88362,263.5322 199.51621,262.5208 198.66978,260.7316 C 198.38755,260.135 198.25179,259.5249 198.15606,258.4226 C 197.9379,255.9111 198.29288,254.4568 199.90641,251.2515 C 200.81811,249.4404 201.18498,248.8195 203.11944,245.8135 C 204.18742,244.154 205.9673,241.094 206.56169,239.8955 C 206.89807,239.2172 207.22385,238.6623 207.28565,238.6623 C 207.34743,238.6623 207.48992,238.8131 207.60229,238.9975 z M 209.90819,268.5319 C 212.09458,269.1494 213.70576,270.0771 214.84234,271.3731 C 215.8695,272.5443 216.92964,275.5485 216.46989,275.9852 C 216.2245,276.2183 214.34716,276.6525 214.14407,276.5231 C 214.06351,276.4718 213.94748,276.1952 213.88622,275.9084 C 213.65181,274.8111 212.90717,273.7796 211.6911,272.8677 C 210.61456,272.0604 210.02161,271.8677 208.33378,271.7764 C 205.53194,271.625 203.84022,272.4041 202.17093,274.6146 C 200.57927,276.7223 200.00613,278.5701 200.15215,281.1228 C 200.23385,282.5515 200.80681,284.8085 201.35554,285.8633 C 201.79305,286.7044 203.53139,288.3391 204.44184,288.7655 C 206.11699,289.5503 207.22744,289.637 209.00578,289.1219 C 210.45063,288.7034 211.5913,287.9704 212.64395,286.784 C 213.08005,286.2925 213.54643,285.8903 213.68033,285.8903 C 214.04742,285.8903 214.92644,286.2889 215.14795,286.5558 C 215.35549,286.8059 215.3186,288.5805 214.99298,294.01 C 214.72505,298.4776 214.59086,299.775 214.37428,299.9915 C 214.20766,300.1582 212.88332,300.2028 207.24887,300.2318 L 200.32811,300.2673 L 200.3376,298.8262 C 200.34379,297.8863 200.41348,297.305 200.53797,297.155 C 200.70375,296.9553 201.44182,296.9256 206.15265,296.9289 C 209.13577,296.931 211.64787,296.8886 211.73511,296.8347 C 211.82237,296.7807 211.8751,296.5589 211.85232,296.3416 C 211.82952,296.1243 211.85189,295.8796 211.90199,295.7977 C 211.95211,295.7158 212.04203,294.6934 212.10184,293.5258 C 212.19659,291.6753 212.18139,291.4027 211.98344,291.4027 C 211.85853,291.4027 211.26332,291.6364 210.66074,291.9219 C 208.4547,292.9673 206.12798,293.0249 203.8167,292.0913 C 201.68068,291.2286 199.61658,289.251 198.55605,287.0512 C 197.63534,285.1414 197.3072,283.4246 197.28651,280.4089 C 197.26678,277.5368 197.75258,275.5822 198.99828,273.5216 C 200.17578,271.5738 202.17911,269.7038 203.75475,269.0817 C 205.45916,268.4087 208.50755,268.1364 209.90819,268.5319 z"
     id="path11637" />
  <g
     id="g3796"
     transform="translate(1.593878e-6,0)">
    <rect
       ry="11.25"
       rx="11.25"
       y="3.4247196"
       x="3.6058116"
       height="311.81104"
       width="223.22835"
       id="rect2382"
       style="fill:none;fill-opacity:1;fill-rule:nonzero;stroke:#000000;stroke-width:0.03543307;stroke-linejoin:round;stroke-miterlimit:4;stroke-dasharray:none;stroke-opacity:1" />
    <g
       transform="translate(3.5433116,3.3622195)"
       id="g3164">
      <path
         style="fill:none;fill-rule:evenodd;stroke:#000000;stroke-width:0.03221492;stroke-linecap:butt;stroke-linejoin:miter;stroke-miterlimit:4;stroke-dasharray:none;stroke-opacity:1"
         d="M 219.74754,0.062511534 L 226.70838,0.062511534"
         id="path3160"
         sodipodi:nodetypes="cc" />
      <path
         sodipodi:nodetypes="cc"
         id="path3162"
         d="M 223.29036,-3.2997195 L 223.29036,3.6063107"
         style="fill:none;fill-rule:evenodd;stroke:#000000;stroke-width:0.03196126;stroke-linecap:butt;stroke-linejoin:miter;stroke-miterlimit:4;stroke-dasharray:none;stroke-opacity:1" />
    </g>
    <g
       transform="matrix(1.0001093,0,0,1,3.519309,315.17275)"
       id="g3168">
      <path
         sodipodi:nodetypes="cc"
         id="path3170"
         d="M 219.74754,0.062511534 L 226.70838,0.062511534"
         style="fill:none;fill-rule:evenodd;stroke:#000000;stroke-width:0.03221492;stroke-linecap:butt;stroke-linejoin:miter;stroke-miterlimit:4;stroke-dasharray:none;stroke-opacity:1" />
      <path
         style="fill:none;fill-rule:evenodd;stroke:#000000;stroke-width:0.03196126;stroke-linecap:butt;stroke-linejoin:miter;stroke-miterlimit:4;stroke-dasharray:none;stroke-opacity:1"
         d="M 223.29036,-3.2997195 L 223.29036,3.6063107"
         id="path3172"
         sodipodi:nodetypes="cc" />
    </g>
    <g
       id="g3174"
       transform="matrix(1.0001093,0,0,1,-219.70906,315.17275)">
      <path
         style="fill:none;fill-rule:evenodd;stroke:#000000;stroke-width:0.03221492;stroke-linecap:butt;stroke-linejoin:miter;stroke-miterlimit:4;stroke-dasharray:none;stroke-opacity:1"
         d="M 219.74754,0.062511534 L 226.70838,0.062511534"
         id="path3176"
         sodipodi:nodetypes="cc" />
      <path
         sodipodi:nodetypes="cc"
         id="path3178"
         d="M 223.29036,-3.2997195 L 223.29036,3.6063107"
         style="fill:none;fill-rule:evenodd;stroke:#000000;stroke-width:0.03196126;stroke-linecap:butt;stroke-linejoin:miter;stroke-miterlimit:4;stroke-dasharray:none;stroke-opacity:1" />
    </g>
    <g
       transform="translate(-219.68504,3.3622195)"
       id="g3180">
      <path
         sodipodi:nodetypes="cc"
         id="path3182"
         d="M 219.74754,0.062511534 L 226.70838,0.062511534"
         style="fill:none;fill-rule:evenodd;stroke:#000000;stroke-width:0.03221492;stroke-linecap:butt;stroke-linejoin:miter;stroke-miterlimit:4;stroke-dasharray:none;stroke-opacity:1" />
      <path
         style="fill:none;fill-rule:evenodd;stroke:#000000;stroke-width:0.03196126;stroke-linecap:butt;stroke-linejoin:miter;stroke-miterlimit:4;stroke-dasharray:none;stroke-opacity:1"
         d="M 223.29036,-3.2997195 L 223.29036,3.6063107"
         id="path3184"
         sodipodi:nodetypes="cc" />
    </g>
  </g>
</svg>
