<?xml version="1.0" encoding="UTF-8" standalone="no"?>
<!-- Created with Inkscape (http://www.inkscape.org/) -->
<svg
   xmlns:dc="http://purl.org/dc/elements/1.1/"
   xmlns:cc="http://creativecommons.org/ns#"
   xmlns:rdf="http://www.w3.org/1999/02/22-rdf-syntax-ns#"
   xmlns:svg="http://www.w3.org/2000/svg"
   xmlns="http://www.w3.org/2000/svg"
   xmlns:sodipodi="http://sodipodi.sourceforge.net/DTD/sodipodi-0.dtd"
   xmlns:inkscape="http://www.inkscape.org/namespaces/inkscape"
   id="svg6017"
   sodipodi:version="0.32"
   inkscape:version="0.46"
   width="230.31497"
   height="318.84155"
   version="1.0"
   sodipodi:docname="5s.svg"
   inkscape:output_extension="org.inkscape.output.svg.inkscape">
  <metadata
     id="metadata6022">
    <rdf:RDF>
      <cc:Work
         rdf:about="">
        <dc:format>image/svg+xml</dc:format>
        <dc:type
           rdf:resource="http://purl.org/dc/dcmitype/StillImage" />
      </cc:Work>
    </rdf:RDF>
  </metadata>
  <defs
     id="defs6020">
    <inkscape:perspective
       sodipodi:type="inkscape:persp3d"
       inkscape:vp_x="0 : 526.18109 : 1"
       inkscape:vp_y="0 : 1000 : 0"
       inkscape:vp_z="744.09448 : 526.18109 : 1"
       inkscape:persp3d-origin="372.04724 : 350.78739 : 1"
       id="perspective6024" />
  </defs>
  <sodipodi:namedview
     inkscape:window-height="667"
     inkscape:window-width="765"
     inkscape:pageshadow="2"
     inkscape:pageopacity="0.0"
     guidetolerance="10.0"
     gridtolerance="10.0"
     objecttolerance="10.0"
     borderopacity="1.0"
     bordercolor="#666666"
     pagecolor="#ffffff"
     id="base"
     showgrid="false"
     inkscape:zoom="1.4489956"
     inkscape:cx="115.15749"
     inkscape:cy="159.42078"
     inkscape:window-x="22"
     inkscape:window-y="29"
     inkscape:current-layer="svg6017" />
  <path
     style="fill:#000000"
     d="M 29.778152,18.5996 C 29.970562,18.6268 30.180612,18.7993 30.252832,18.9892 C 30.373772,19.3073 30.325492,20.8215 30.170112,21.5843 L 30.101442,21.9213 L 24.354972,21.9213 C 19.940252,21.9213 18.572632,21.9647 18.453682,22.1086 C 18.220322,22.3908 18.033472,27.4643 18.256412,27.4643 C 18.352982,27.4643 18.776952,27.2895 19.198592,27.0758 C 20.409892,26.462 21.232482,26.2567 22.856252,26.1628 C 24.653842,26.0588 25.494842,26.2226 27.185862,27.0062 C 29.689832,28.1663 31.716802,30.4617 32.551432,33.0821 C 33.444792,35.887 33.484782,40.5158 32.638732,43.1868 C 32.370042,44.035 31.484032,45.7154 30.866602,46.5478 C 29.388902,48.5399 27.773592,49.7342 25.711962,50.3588 C 24.669662,50.6745 24.190952,50.729 22.466862,50.7279 C 20.618622,50.7268 20.332682,50.6884 19.146832,50.2826 C 18.433142,50.0383 17.465282,49.6076 16.996042,49.3253 C 15.248632,48.2743 13.870892,46.2487 13.474502,44.1478 C 13.307192,43.2612 13.313112,43.1266 13.526232,42.9708 C 13.813562,42.7606 15.805432,42.3844 15.998532,42.5037 C 16.072912,42.5497 16.220102,42.8956 16.325612,43.2725 C 16.640932,44.3987 17.765562,45.7655 19.045802,46.5784 C 20.664962,47.6066 23.611722,47.6298 25.660952,46.6307 C 26.822922,46.0641 27.763482,45.1716 28.752032,43.6973 C 29.801462,42.1323 30.113272,41.0972 30.212312,38.8498 C 30.287322,37.1475 30.258712,36.8409 29.897582,35.4791 C 29.356672,33.4392 28.882152,32.5312 27.802242,31.4694 C 26.543542,30.2319 25.131692,29.5619 23.554632,29.4538 C 21.310162,29.3 18.957892,30.3618 17.369232,32.2458 C 17.016112,32.6646 16.608522,33.0072 16.463462,33.0072 C 15.889602,33.0072 14.836892,32.4263 14.744652,32.0588 C 14.694422,31.8587 14.723732,30.6925 14.809782,29.4672 C 14.895832,28.242 15.007972,26.1946 15.058982,24.9175 C 15.168602,22.174 15.511232,19.0794 15.729552,18.8611 C 15.829512,18.7612 18.044732,18.691 21.984522,18.6631 C 25.339622,18.6393 28.388082,18.6043 28.758862,18.5852 C 29.129642,18.5662 29.588312,18.5726 29.778152,18.5996 z M 168.64044,33.7516 C 169.11583,34.4906 169.80812,35.5861 170.17886,36.186 C 170.54961,36.7859 171.0612,37.5127 171.31572,37.8011 C 171.57025,38.0895 172.31119,39.1007 172.96225,40.0483 C 174.11957,41.7326 177.76622,46.6412 177.97056,46.7897 C 178.0752,46.8658 180.33991,49.7065 181.22452,50.8713 C 181.49075,51.2219 181.97986,51.8121 182.31146,52.1828 C 182.64305,52.5536 183.30161,53.422 183.77494,54.1125 C 184.24827,54.803 184.77036,55.5513 184.93515,55.7754 C 185.25484,56.21 186.1938,57.6106 186.74488,58.4748 C 187.50342,59.6644 188.9879,62.3551 189.58856,63.6292 C 190.82748,66.257 191.52697,70.2319 191.17282,72.6318 C 190.85343,74.7962 190.27323,76.5244 189.39802,77.9185 C 187.68283,80.6505 186.54072,81.7235 184.20391,82.7986 C 182.22343,83.7098 179.56424,83.8402 177.53901,83.1254 C 175.86632,82.535 173.63232,80.3393 172.48004,78.153 C 171.90389,77.0598 171.09648,74.6276 170.84615,73.2311 C 170.67494,72.276 170.52313,72.0837 169.98172,72.1362 C 169.54294,72.1787 169.50072,72.2303 169.45406,72.7816 C 169.30251,74.5722 170.17557,79.4811 171.10194,82.047 C 171.43368,82.9659 171.79487,83.9874 171.90458,84.3169 C 172.08805,84.8681 172.44896,85.7781 173.0929,87.3131 C 173.23116,87.6427 173.71935,88.7071 174.1778,89.6784 C 174.63623,90.6496 174.96343,91.4923 174.9049,91.551 C 174.79034,91.6658 165.06202,91.8353 162.651,91.7645 C 161.83545,91.7406 161.19036,91.6574 161.19036,91.5762 C 161.19036,91.4961 161.56381,90.6598 162.02025,89.7175 C 162.91672,87.8669 163.95604,85.1152 164.2581,83.7926 C 164.3616,83.3394 164.55509,82.5642 164.68808,82.0698 C 164.92778,81.1788 165.04993,80.4693 165.46189,77.5755 C 165.67844,76.0543 165.75959,72.9265 165.59371,72.4943 C 165.53632,72.3447 165.32119,72.2573 165.0105,72.2573 C 164.42275,72.2573 164.33721,72.4246 164.33401,73.5804 C 164.33071,74.7738 163.82393,77.0388 163.34962,77.98 C 162.34406,79.9752 160.68063,81.7193 158.95754,82.5849 C 157.22878,83.4533 154.77989,83.7161 152.62997,83.2638 C 150.6007,82.8369 148.52246,81.3533 146.86541,79.1485 C 145.47695,77.3011 144.86433,75.4504 144.55274,72.1619 C 144.23458,68.8039 145.04696,65.3296 147.11902,61.1866 C 148.65194,58.1216 149.82714,56.3505 154.06897,50.7125 C 156.59296,47.3578 156.63809,47.2986 158.20785,45.2849 C 158.75095,44.5882 159.65527,43.3441 160.21745,42.5201 C 160.77963,41.6962 161.60082,40.5501 162.04232,39.9734 C 162.48382,39.3966 163.528,37.9472 164.36272,36.7525 C 167.1973,32.6954 167.40736,32.4129 167.59178,32.4104 C 167.69314,32.4091 168.16504,33.0126 168.64044,33.7516 z M 61.990432,32.9045 C 62.169592,33.0952 62.316162,33.309 62.316162,33.3796 C 62.316162,33.4502 62.410442,33.6144 62.525662,33.7445 C 62.640882,33.8746 63.224252,34.7885 63.822032,35.7755 C 64.419832,36.7624 65.218802,37.9501 65.597512,38.4149 C 65.976252,38.8796 66.912032,40.1619 67.677052,41.2645 C 68.442062,42.3671 69.284742,43.5465 69.549672,43.8854 C 71.260912,46.0747 71.886562,46.8714 72.889022,48.138 C 73.508562,48.9207 74.374762,50.0331 74.813882,50.6098 C 75.253012,51.1866 75.738582,51.7941 75.892932,51.9599 C 76.264262,52.3588 77.433062,53.8385 77.867552,54.4599 C 78.057702,54.7318 78.550242,55.4262 78.962102,56.003 C 80.167872,57.6916 81.958692,60.642 83.099402,62.8193 C 84.745882,65.962 85.276542,68.1017 85.291462,71.6581 C 85.298842,73.4157 85.246572,73.8728 84.892292,75.1494 C 84.398222,76.9297 83.977512,77.7894 82.800052,79.4251 C 81.285062,81.5297 80.584492,82.1438 78.566422,83.1364 L 76.775542,84.0173 L 74.601932,84.0131 C 72.596252,84.0092 72.356732,83.9785 71.502162,83.6158 C 70.326652,83.1168 69.540392,82.5094 68.218822,81.0793 C 66.660892,79.3935 65.493522,76.8797 64.852542,73.8303 C 64.629852,72.7708 64.493182,72.5569 64.038972,72.5569 C 63.452802,72.5569 63.357942,72.8506 63.453522,74.3699 C 63.731562,78.79 65.322662,84.1162 68.095482,89.909 C 68.956242,91.7072 69.051822,92.0946 68.670812,92.2408 C 68.292702,92.3859 55.301672,92.3461 55.211112,92.1996 C 55.166182,92.1269 55.556312,91.1662 56.078092,90.0648 C 56.599862,88.9633 57.235592,87.4555 57.490832,86.7139 C 58.074242,85.019 58.964432,81.498 59.162302,80.1028 C 59.245042,79.5194 59.345112,78.948 59.384692,78.8331 C 59.424262,78.7182 59.531062,77.4763 59.622012,76.0734 C 59.813552,73.1189 59.741002,72.7067 59.029332,72.7067 C 58.448342,72.7067 58.271312,73.0479 58.271312,74.1675 C 58.271312,76.9317 57.159102,79.4911 55.083292,81.5036 C 53.162692,83.3657 51.339482,84.0192 48.383892,83.9051 C 45.711192,83.802 44.185962,83.1249 42.242652,81.1791 C 40.288072,79.222 39.397092,77.611 38.923942,75.1786 C 37.970172,70.2754 38.644872,66.3186 41.331522,61.0593 C 42.627572,58.5221 43.610082,57.0561 48.334602,50.6098 C 48.878102,49.8683 49.804652,48.6548 50.393602,47.9133 C 51.827652,46.1077 53.879872,43.3435 54.675722,42.1456 C 55.031552,41.61 55.663582,40.7336 56.080232,40.1981 C 56.496892,39.6625 57.626712,38.0783 58.590932,36.6776 C 59.555152,35.2768 60.588402,33.7769 60.887042,33.3443 C 61.185692,32.9117 61.482832,32.5578 61.547372,32.5578 C 61.611892,32.5578 61.811282,32.7138 61.990432,32.9045 z M 24.175532,56.2661 C 24.332532,56.5333 24.626022,57.0554 24.827702,57.4262 C 25.636862,58.9137 26.379442,60.1125 27.286832,61.3961 C 29.529182,64.5682 31.526952,68.2214 32.038372,70.0851 C 32.284072,70.9804 32.224482,73.11 31.930702,73.933 C 31.373292,75.4946 30.158622,76.6172 28.686592,76.9311 C 27.428992,77.1993 26.573562,76.7429 25.360932,75.1567 C 25.090282,74.8026 24.987272,74.7575 24.761692,74.8941 C 24.366282,75.1335 24.349132,75.881 24.713202,77.0079 C 25.149102,78.3571 25.837372,79.6858 26.531222,80.5176 C 26.850082,80.8998 27.110962,81.2874 27.110962,81.379 C 27.110962,81.6145 20.645722,81.6119 20.410122,81.3763 C 20.284472,81.2507 20.437462,80.9714 21.005072,80.2902 C 22.614772,78.3585 23.662312,74.8248 22.667312,74.683 C 22.426942,74.6488 22.225312,74.8085 21.885472,75.3025 C 20.909002,76.7217 19.967522,77.1619 18.435992,76.9152 C 16.950162,76.6759 16.071702,76.0579 15.466982,74.8265 C 15.109252,74.0981 15.052142,73.8026 15.057292,72.7067 C 15.070862,69.8255 16.240552,67.2037 19.752332,62.1833 C 20.754392,60.7507 21.612612,59.3175 23.026842,56.7146 C 23.306642,56.1996 23.615332,55.7787 23.712812,55.7792 C 23.810302,55.7797 24.018522,55.9988 24.175532,56.2661 z M 116.1317,130.5118 C 116.34545,130.7658 116.84108,131.4981 117.2331,132.1391 C 118.58099,134.3431 119.28249,135.4029 119.69034,135.8514 C 119.91512,136.0986 120.62576,137.0424 121.26954,137.9487 C 122.98932,140.3699 124.99319,143.0178 126.20118,144.4654 C 126.78562,145.1658 127.63654,146.2107 128.0921,146.7875 C 128.54766,147.3642 129.32156,148.3417 129.81186,148.9597 C 130.30216,149.5777 130.9091,150.3529 131.16061,150.6825 C 131.85847,151.597 134.18425,155.0399 134.52876,155.6685 C 134.69667,155.9748 135.03064,156.5288 135.27092,156.8996 C 135.72595,157.6018 136.93722,159.8666 137.75462,161.5437 C 138.308,162.6791 138.93651,164.6619 139.17097,166.0121 C 139.26149,166.5334 139.34851,167.8817 139.36433,169.0083 C 139.38857,170.7343 139.33847,171.2631 139.04596,172.3689 C 138.42681,174.7095 137.69263,176.0561 135.88171,178.1723 C 134.7516,179.493 134.68086,179.5458 132.80148,180.4707 C 130.78627,181.4624 130.68036,181.4881 128.61722,181.4856 C 125.81294,181.4821 124.48793,180.8863 122.41568,178.6971 C 120.67752,176.8609 119.59615,174.5833 118.93027,171.3562 C 118.69891,170.235 118.56266,170.0561 117.98311,170.1126 L 117.52092,170.1577 L 117.56944,171.5809 C 117.65922,174.2144 118.29559,177.4401 119.30702,180.3887 C 119.8821,182.0653 120.16578,182.7992 121.25887,185.4383 C 121.39538,185.7679 121.853,186.7632 122.27582,187.6501 C 122.88578,188.9297 123.00637,189.301 122.85962,189.4479 C 122.62256,189.6851 109.55777,189.7981 109.20651,189.5659 C 109.01198,189.4373 109.00997,189.372 109.1915,189.0793 C 111.12962,185.9546 112.99098,179.8966 113.55535,174.8767 C 113.76075,173.0498 113.74165,170.4832 113.52101,170.2626 C 112.94026,169.6818 112.3525,170.3744 112.3525,171.6394 C 112.3525,173.1876 112.06067,174.4296 111.34537,175.9254 C 110.77074,177.1271 110.46386,177.5498 109.37387,178.6414 C 107.99922,180.0181 106.94265,180.6323 105.15024,181.0968 C 103.19233,181.6041 100.37851,181.2693 98.495132,180.305 C 96.711022,179.3914 94.597392,177.0877 93.637522,175.0106 C 92.792282,173.1815 92.285222,169.3685 92.577662,167.0407 C 93.013262,163.5733 93.540852,162.0982 96.258252,156.7498 C 96.584252,156.1082 99.699842,151.4711 100.6367,150.2331 C 101.01084,149.7387 101.49598,149.0983 101.71481,148.8099 C 101.93363,148.5215 102.41106,147.8835 102.77576,147.392 C 103.14045,146.9005 104.11339,145.6534 104.93782,144.6205 C 105.76227,143.5877 106.97171,142.0011 107.62547,141.0947 C 108.27924,140.1884 109.39117,138.6867 110.09644,137.7576 C 111.52515,135.8756 112.84016,134.0545 114.06924,132.256 C 114.51969,131.5968 115.08058,130.8308 115.31565,130.5537 L 115.74306,130.0499 L 116.1317,130.5118 z M 175.3099,227.1308 C 175.45409,227.159 175.57206,227.2359 175.57206,227.3014 C 175.57206,227.367 175.23724,228.0884 174.828,228.9046 C 173.2817,231.9883 172.3662,234.939 171.66695,239.0927 C 171.35112,240.9688 171.06962,244.8716 171.18774,245.7366 C 171.26964,246.3364 171.56526,246.6366 171.96975,246.5308 C 172.31555,246.4404 172.42111,246.0653 172.42508,244.9126 C 172.42839,243.9504 172.8457,241.9982 173.25767,241.0176 C 174.0064,239.2354 175.99802,236.9947 177.51794,236.2245 C 179.00854,235.4692 180.01509,235.2202 181.5636,235.2239 C 184.44872,235.2307 186.39399,236.0227 188.36884,237.9944 C 190.83415,240.4558 191.62451,242.3036 192.05832,246.6201 C 192.23512,248.3793 192.19776,249.0925 191.8142,251.2795 C 191.46092,253.2939 190.77682,255.2023 189.42432,257.946 C 187.60343,261.6401 185.69913,264.4401 179.01429,273.2526 C 177.9001,274.7214 176.59075,276.4962 176.10465,277.1966 C 175.61855,277.8969 174.871,278.9081 174.44343,279.4437 C 173.75962,280.3002 170.66582,284.6777 169.81571,285.9915 C 169.53365,286.4274 168.98045,286.6696 168.98045,286.3572 C 168.98045,286.237 168.15388,284.8989 166.60694,282.5148 C 166.2327,281.938 165.65299,281.123 165.31869,280.7036 C 164.7322,279.9678 163.98823,278.9535 162.52512,276.895 C 161.8268,275.9124 160.24671,273.9223 157.89456,271.0627 C 157.1942,270.2112 156.2571,269.0352 155.81211,268.4493 C 155.36713,267.8634 154.68364,267.0133 154.29325,266.5601 C 153.40207,265.5256 150.98969,262.0118 149.51069,259.5939 C 148.25685,257.5442 146.77217,254.5472 146.34177,253.197 C 145.78744,251.4582 145.39401,248.3548 145.50992,246.6354 C 145.65102,244.5424 146.54641,241.8969 147.65113,240.3091 C 149.34962,237.8679 150.36473,236.9626 152.53414,235.9541 C 154.05373,235.2478 155.19471,235.0336 156.81943,235.1497 C 159.24051,235.3226 160.61942,236.0052 162.51093,237.9668 C 163.3378,238.8244 163.76004,239.437 164.40702,240.718 C 165.20566,242.2991 165.38529,242.8172 165.98312,245.2637 C 166.28783,246.5106 166.40439,246.6812 166.9033,246.6107 C 167.22811,246.5647 167.26187,246.4794 167.30837,245.5868 C 167.40744,243.6854 166.61,239.3833 165.62647,236.5129 C 164.88042,234.3355 163.48089,231.0026 162.44573,228.938 C 162.07251,228.1936 161.80379,227.4891 161.84858,227.3724 C 161.916,227.1967 162.72306,227.1546 166.54134,227.1276 C 173.88389,227.0758 175.03164,227.0762 175.3099,227.1308 z M 175.87168,250.5305 C 175.87168,250.6129 175.94308,250.6803 176.03033,250.6803 C 176.11759,250.6803 176.14732,250.6129 176.0964,250.5305 C 176.04548,250.4481 175.97408,250.3807 175.93775,250.3807 C 175.9014,250.3807 175.87168,250.4481 175.87168,250.5305 z M 69.572452,227.5943 C 69.634202,227.6942 69.370492,228.4152 68.975302,229.227 C 67.761212,231.7208 67.116182,233.4519 66.591452,235.6244 C 66.116562,237.5907 66.009032,238.1011 65.628842,240.1936 C 65.254882,242.2519 65.155232,246.3405 65.469772,246.7195 C 65.689962,246.9848 66.123822,246.9992 66.322502,246.7478 C 66.403882,246.6448 66.509122,245.9538 66.556352,245.2122 C 66.739112,242.3436 67.809282,239.9602 69.760372,238.0766 C 72.842752,235.1008 77.235172,234.7344 81.323772,237.112 C 81.905532,237.4503 83.565412,239.1514 84.275662,240.1372 C 85.539452,241.8913 86.137882,243.7794 86.437712,246.9586 C 86.785402,250.6456 86.032552,253.8896 83.783462,258.3955 C 82.060022,261.8482 79.683092,265.2799 73.095682,273.8258 C 72.270022,274.897 71.347452,276.1441 71.045512,276.5973 C 70.743592,277.0505 69.745742,278.3988 68.828082,279.5935 C 67.910442,280.7882 66.631872,282.541 65.986852,283.4885 C 64.392222,285.8311 63.659942,286.7849 63.458972,286.7813 C 63.366002,286.7796 62.885442,286.1597 62.391072,285.4039 C 60.870232,283.0786 59.884232,281.6263 59.666802,281.3912 C 59.367862,281.068 57.371242,278.4278 56.890912,277.7205 C 56.366902,276.9488 53.972622,273.938 52.959912,272.7772 C 52.528612,272.2828 51.912442,271.5356 51.590642,271.1168 C 51.268842,270.6979 50.646362,269.9227 50.207362,269.394 C 49.768342,268.8653 49.019262,267.9608 48.542732,267.384 C 47.630812,266.2803 45.088132,262.7196 44.345462,261.5064 C 41.342192,256.6002 40.206392,254.1923 39.698202,251.6541 C 39.615712,251.2421 39.507262,249.8938 39.457212,248.6579 C 39.363602,246.3466 39.375572,246.2486 40.056902,243.747 C 40.453192,242.292 41.383522,240.7231 42.954232,238.8609 C 43.887452,237.7545 44.326742,237.4323 46.151342,236.516 C 48.697042,235.2374 51.641292,235.2196 54.115642,236.4677 C 54.755812,236.7906 55.451722,237.3482 56.323792,238.2368 C 58.039782,239.9854 58.785222,241.3586 59.622592,244.3134 C 60.358262,246.9093 60.433152,247.0849 60.804992,247.0849 C 61.408362,247.0849 61.478762,246.7458 61.296502,244.7173 C 60.864092,239.9045 59.611002,235.9034 56.578782,229.6539 C 56.101052,228.6693 55.763982,227.8111 55.829732,227.7469 C 55.895472,227.6827 58.989602,227.5818 62.705562,227.5228 C 67.878542,227.4406 69.487792,227.4573 69.572452,227.5943 z M 209.95332,237.1638 C 210.67792,237.2552 210.71618,237.4375 210.14376,238.071 C 209.39792,238.8966 208.91172,239.7822 208.45632,241.1448 C 208.04091,242.3877 207.93456,243.7048 208.22644,243.9918 C 208.35842,244.1215 208.48893,244.0536 208.75997,243.7142 C 208.95733,243.467 209.29952,243.042 209.52041,242.7698 C 210.64764,241.3806 212.54441,241.3501 214.33743,242.6925 C 215.66551,243.6867 216.06542,246.0555 215.36439,248.7753 C 214.93568,250.4387 213.87648,252.5471 212.03007,255.4126 C 209.81761,258.8462 208.68488,260.81 207.90764,262.5595 C 207.69481,263.0386 207.50985,263.2629 207.35251,263.2326 C 207.22273,263.2076 206.67347,262.3787 206.13194,261.3905 C 205.5904,260.4024 204.74557,258.9936 204.25452,258.2599 C 203.76348,257.5262 203.23127,256.7172 203.07184,256.4622 C 202.9124,256.2072 202.49822,255.558 202.15141,255.0196 C 201.43291,253.9042 199.50895,250.12 199.25932,249.3313 C 198.95954,248.3841 198.82257,246.7334 198.96672,245.8047 C 199.21329,244.2159 199.95368,243.0383 201.14495,242.3401 C 202.07591,241.7946 202.87079,241.6733 203.76863,241.9399 C 204.39194,242.1251 204.59281,242.288 205.12928,243.0439 C 205.9387,244.1843 206.33541,244.2158 206.40385,243.1451 C 206.49,241.7976 205.57339,239.5378 204.33067,238.034 C 203.99941,237.6331 203.76517,237.2684 203.81013,237.2234 C 203.90361,237.1299 209.27194,237.0778 209.95332,237.1638 z M 209.95332,268.4502 C 214.0321,269.4913 216.24552,271.6192 216.89632,275.1252 C 216.9678,275.5102 216.97887,275.9019 216.92094,275.9957 C 216.79998,276.1914 214.73239,276.6524 214.45427,276.5457 C 214.35262,276.5067 214.18063,276.1575 214.07204,275.7697 C 213.72044,274.5139 212.18966,272.8364 210.8497,272.2386 C 208.71486,271.2861 205.4431,271.7572 203.72678,273.2641 C 202.9473,273.9485 201.53003,275.9955 201.0959,277.0639 C 200.77582,277.8516 200.69871,278.3328 200.63002,279.9711 C 200.5508,281.8604 200.5661,281.9991 201.03551,283.6478 C 201.5971,285.6203 202.12747,286.522 203.44143,287.7385 C 204.54873,288.7637 205.62219,289.1996 207.25675,289.2878 C 208.26351,289.3421 208.63251,289.291 209.56353,288.9686 C 210.1731,288.7575 210.99909,288.3748 211.39907,288.1182 C 212.1049,287.6652 213.47384,286.2837 213.47384,286.0244 C 213.47384,285.9538 213.60044,285.8283 213.75518,285.7455 C 213.97273,285.629 214.22506,285.697 214.86804,286.0453 C 215.81058,286.5558 215.91894,286.7998 215.80153,288.1475 C 215.76134,288.6088 215.65841,290.6312 215.57279,292.6417 C 215.39073,296.9171 215.20919,299.1393 214.99743,299.6843 C 214.89301,299.9531 214.69564,300.1052 214.36568,300.1712 C 214.10177,300.224 210.96999,300.2672 207.40617,300.2672 C 201.7747,300.2672 200.90166,300.2372 200.73645,300.0381 C 200.59886,299.8724 200.57115,299.4577 200.6361,298.5372 C 200.68547,297.8377 200.76674,297.1992 200.8167,297.1184 C 200.87339,297.0266 202.94901,296.9714 206.3381,296.9714 C 210.4491,296.9714 211.82953,296.9259 212.01913,296.7841 C 212.22245,296.6321 212.2999,296.1346 212.43066,294.1409 C 212.54671,292.3712 212.5461,291.6393 212.42847,291.5216 C 212.31066,291.4038 212.06849,291.4685 211.55869,291.7541 C 210.33607,292.4388 209.2209,292.6897 207.40656,292.6881 C 206.00806,292.6869 205.59237,292.6271 204.65986,292.2929 C 203.13515,291.7464 202.09919,291.0819 200.84251,289.8441 C 199.12746,288.1548 198.2159,286.2775 197.73355,283.4414 C 197.48612,281.9866 197.63156,277.7071 197.97125,276.4475 C 198.57862,274.1953 200.85252,270.827 202.35807,269.9494 C 204.33524,268.7968 205.37117,268.5069 207.78108,268.432 C 208.81102,268.3999 209.78853,268.4081 209.95332,268.4502 z"
     id="path6028" />
  <g
     id="g3796"
     transform="translate(1.593878e-6,0)">
    <rect
       ry="11.25"
       rx="11.25"
       y="3.4247196"
       x="3.6058116"
       height="311.81104"
       width="223.22835"
       id="rect2382"
       style="fill:none;fill-opacity:1;fill-rule:nonzero;stroke:#000000;stroke-width:0.03543307;stroke-linejoin:round;stroke-miterlimit:4;stroke-dasharray:none;stroke-opacity:1" />
    <g
       transform="translate(3.5433116,3.3622195)"
       id="g3164">
      <path
         style="fill:none;fill-rule:evenodd;stroke:#000000;stroke-width:0.03221492;stroke-linecap:butt;stroke-linejoin:miter;stroke-miterlimit:4;stroke-dasharray:none;stroke-opacity:1"
         d="M 219.74754,0.062511534 L 226.70838,0.062511534"
         id="path3160"
         sodipodi:nodetypes="cc" />
      <path
         sodipodi:nodetypes="cc"
         id="path3162"
         d="M 223.29036,-3.2997195 L 223.29036,3.6063107"
         style="fill:none;fill-rule:evenodd;stroke:#000000;stroke-width:0.03196126;stroke-linecap:butt;stroke-linejoin:miter;stroke-miterlimit:4;stroke-dasharray:none;stroke-opacity:1" />
    </g>
    <g
       transform="matrix(1.0001093,0,0,1,3.519309,315.17275)"
       id="g3168">
      <path
         sodipodi:nodetypes="cc"
         id="path3170"
         d="M 219.74754,0.062511534 L 226.70838,0.062511534"
         style="fill:none;fill-rule:evenodd;stroke:#000000;stroke-width:0.03221492;stroke-linecap:butt;stroke-linejoin:miter;stroke-miterlimit:4;stroke-dasharray:none;stroke-opacity:1" />
      <path
         style="fill:none;fill-rule:evenodd;stroke:#000000;stroke-width:0.03196126;stroke-linecap:butt;stroke-linejoin:miter;stroke-miterlimit:4;stroke-dasharray:none;stroke-opacity:1"
         d="M 223.29036,-3.2997195 L 223.29036,3.6063107"
         id="path3172"
         sodipodi:nodetypes="cc" />
    </g>
    <g
       id="g3174"
       transform="matrix(1.0001093,0,0,1,-219.70906,315.17275)">
      <path
         style="fill:none;fill-rule:evenodd;stroke:#000000;stroke-width:0.03221492;stroke-linecap:butt;stroke-linejoin:miter;stroke-miterlimit:4;stroke-dasharray:none;stroke-opacity:1"
         d="M 219.74754,0.062511534 L 226.70838,0.062511534"
         id="path3176"
         sodipodi:nodetypes="cc" />
      <path
         sodipodi:nodetypes="cc"
         id="path3178"
         d="M 223.29036,-3.2997195 L 223.29036,3.6063107"
         style="fill:none;fill-rule:evenodd;stroke:#000000;stroke-width:0.03196126;stroke-linecap:butt;stroke-linejoin:miter;stroke-miterlimit:4;stroke-dasharray:none;stroke-opacity:1" />
    </g>
    <g
       transform="translate(-219.68504,3.3622195)"
       id="g3180">
      <path
         sodipodi:nodetypes="cc"
         id="path3182"
         d="M 219.74754,0.062511534 L 226.70838,0.062511534"
         style="fill:none;fill-rule:evenodd;stroke:#000000;stroke-width:0.03221492;stroke-linecap:butt;stroke-linejoin:miter;stroke-miterlimit:4;stroke-dasharray:none;stroke-opacity:1" />
      <path
         style="fill:none;fill-rule:evenodd;stroke:#000000;stroke-width:0.03196126;stroke-linecap:butt;stroke-linejoin:miter;stroke-miterlimit:4;stroke-dasharray:none;stroke-opacity:1"
         d="M 223.29036,-3.2997195 L 223.29036,3.6063107"
         id="path3184"
         sodipodi:nodetypes="cc" />
    </g>
  </g>
</svg>
