<?xml version="1.0" encoding="UTF-8" standalone="no"?>
<!-- Created with Inkscape (http://www.inkscape.org/) -->
<svg
   xmlns:dc="http://purl.org/dc/elements/1.1/"
   xmlns:cc="http://creativecommons.org/ns#"
   xmlns:rdf="http://www.w3.org/1999/02/22-rdf-syntax-ns#"
   xmlns:svg="http://www.w3.org/2000/svg"
   xmlns="http://www.w3.org/2000/svg"
   xmlns:sodipodi="http://sodipodi.sourceforge.net/DTD/sodipodi-0.dtd"
   xmlns:inkscape="http://www.inkscape.org/namespaces/inkscape"
   id="svg6110"
   sodipodi:version="0.32"
   inkscape:version="0.46"
   width="230.31497"
   height="318.84155"
   version="1.0"
   sodipodi:docname="6c.svg"
   inkscape:output_extension="org.inkscape.output.svg.inkscape">
  <metadata
     id="metadata6115">
    <rdf:RDF>
      <cc:Work
         rdf:about="">
        <dc:format>image/svg+xml</dc:format>
        <dc:type
           rdf:resource="http://purl.org/dc/dcmitype/StillImage" />
      </cc:Work>
    </rdf:RDF>
  </metadata>
  <defs
     id="defs6113">
    <inkscape:perspective
       sodipodi:type="inkscape:persp3d"
       inkscape:vp_x="0 : 526.18109 : 1"
       inkscape:vp_y="0 : 1000 : 0"
       inkscape:vp_z="744.09448 : 526.18109 : 1"
       inkscape:persp3d-origin="372.04724 : 350.78739 : 1"
       id="perspective6117" />
  </defs>
  <sodipodi:namedview
     inkscape:window-height="667"
     inkscape:window-width="827"
     inkscape:pageshadow="2"
     inkscape:pageopacity="0.0"
     guidetolerance="10.0"
     gridtolerance="10.0"
     objecttolerance="10.0"
     borderopacity="1.0"
     bordercolor="#666666"
     pagecolor="#ffffff"
     id="base"
     showgrid="false"
     inkscape:zoom="1.4489956"
     inkscape:cx="115.15749"
     inkscape:cy="159.42078"
     inkscape:window-x="88"
     inkscape:window-y="116"
     inkscape:current-layer="svg6110" />
  <path
     style="fill:#000000"
     d="M 203.21988,300.2108 C 202.97325,300.1735 202.28027,300.0005 201.67994,299.8264 C 200.74595,299.5556 200.44394,299.376 199.5873,298.5818 C 198.49338,297.5676 197.46513,295.9945 197.46513,295.3352 C 197.46513,294.8295 197.85025,294.6481 199.18889,294.523 L 200.10028,294.4379 L 200.63849,295.1871 C 201.66531,296.6163 202.76372,297.1665 204.59025,297.1665 C 205.91629,297.1665 207.76352,296.8083 208.57687,296.3933 C 209.87313,295.732 211.3089,293.9093 211.80952,292.2895 C 212.17573,291.1046 212.45885,289.0814 212.28307,288.9057 C 212.20388,288.8265 211.71737,289.0795 211.09526,289.5234 C 209.67787,290.5348 208.80727,290.9543 207.52513,291.2437 C 204.46839,291.9336 201.85825,291.1162 199.48303,288.7249 C 197.67708,286.9068 196.97796,285.331 196.56148,282.1398 C 196.33419,280.3982 196.56577,276.9535 197.02387,275.2618 C 198.42384,270.092 202.08258,267.4851 206.97895,268.1686 C 211.81028,268.843 214.33883,271.2151 215.34367,276.0159 C 215.67812,277.6138 215.72851,278.2909 215.80525,282.2191 C 215.94068,289.1512 215.36315,292.5429 213.48164,295.8649 C 212.38055,297.809 210.85173,299.0225 208.31685,299.9644 C 207.70762,300.1908 204.20583,300.3601 203.21988,300.2108 z M 206.81717,287.7383 C 209.30644,287.2871 211.42099,285.5288 212.29949,283.1797 C 212.59402,282.3921 212.62988,282.0202 212.62261,279.8275 C 212.61559,277.7062 212.5693,277.2289 212.29169,276.4151 C 211.79346,274.9545 211.06388,273.6921 210.27925,272.9329 C 208.04305,270.7693 203.29891,271.0367 201.2624,273.4413 C 199.85606,275.1018 199.0877,279.3907 199.68987,282.2191 C 200.11321,284.2075 201.31164,286.1135 202.69789,287.003 C 204.0322,287.8593 205.09939,288.0498 206.81717,287.7383 z M 64.150132,286.2411 C 62.882252,286.0462 61.657412,285.6294 60.023652,284.8369 C 58.473842,284.0851 56.891802,282.7316 55.839792,281.2573 C 55.019322,280.1075 54.096812,278.1291 53.739402,276.7529 C 53.116422,274.354 53.595302,270.089 54.770402,267.5706 C 55.403622,266.2136 56.110052,265.2124 57.775142,263.3123 C 59.267472,261.6094 59.462912,261.1596 58.871442,260.7893 C 58.668412,260.6622 58.484612,260.7283 57.974602,261.1119 C 56.825152,261.9764 54.615762,262.9318 52.774162,263.3609 C 49.396502,264.1477 45.717392,263.1984 42.960742,260.8288 C 41.287442,259.3904 39.328822,256.0489 39.027122,254.118 C 38.654522,251.7331 38.934432,248.842 39.736242,246.7937 C 40.221442,245.5543 41.737392,243.3572 42.799302,242.3545 C 43.735642,241.4703 45.761752,240.1293 46.869932,239.6604 C 49.872742,238.3896 53.790852,238.7255 57.068012,240.5345 C 59.791242,242.0378 62.528852,245.521 63.082262,248.1867 C 63.270802,249.0949 63.579542,249.4151 64.025952,249.1652 C 64.357912,248.9794 64.364002,248.0666 64.049292,245.6665 C 63.757522,243.4414 63.583922,242.639 62.805582,239.9179 C 62.464602,238.7259 62.051602,237.2663 61.887812,236.6744 C 61.582882,235.5725 61.021812,234.2673 59.859942,231.9573 C 59.497822,231.2373 59.201552,230.5557 59.201552,230.4426 C 59.201552,230.3295 59.352892,230.1964 59.537862,230.1469 C 60.079282,230.0018 72.707782,230.0438 72.941102,230.1915 C 73.115722,230.302 73.059352,230.5065 72.622382,231.3476 C 71.954322,232.6336 70.652132,235.5925 70.363672,236.48 C 68.995842,240.6884 68.290272,243.8545 68.031942,246.9432 C 67.881992,248.7361 68.011772,249.2601 68.605742,249.2601 C 68.928262,249.2601 68.996052,249.1345 69.308072,247.9591 C 69.857252,245.8904 71.047772,243.7791 72.378442,242.5143 C 73.745772,241.2146 76.045342,239.8798 78.035292,239.2309 C 79.203322,238.85 79.498762,238.816 81.697402,238.8101 C 84.395882,238.8028 85.027772,238.9364 86.989872,239.9291 C 88.290032,240.5869 90.204552,242.2232 91.148312,243.4832 C 91.873642,244.4517 93.045092,246.9747 93.318542,248.1574 C 93.423862,248.6129 93.504682,249.9649 93.505112,251.278 C 93.505832,253.5008 93.485582,253.657 93.006142,255.1276 C 92.290792,257.3218 91.462802,258.7761 90.217432,260.0258 C 88.319142,261.9307 86.485782,262.9139 84.252562,263.2245 C 81.280202,263.6379 78.559052,263.1818 75.867912,261.8192 C 74.213872,260.9817 73.850012,260.9398 73.850012,261.5871 C 73.850012,261.9045 74.057332,262.2072 74.687282,262.8093 C 76.623502,264.66 77.932122,266.9649 78.658452,269.8039 C 79.188062,271.874 79.299932,273.3592 79.078092,275.3752 C 78.884282,277.1366 78.475042,278.3549 77.571972,279.8591 C 76.159322,282.212 74.233852,284.0494 72.131062,285.0512 C 70.058022,286.0389 66.391182,286.5856 64.150132,286.2411 z M 161.44186,286.1692 C 159.40424,285.8196 157.6367,285.2088 156.14211,284.3376 C 155.03997,283.6951 153.41361,282.1612 152.53686,280.9371 C 151.87137,280.008 151.1746,278.5997 150.65673,277.137 C 149.91852,275.0519 150.23018,270.7864 151.34208,267.757 C 151.71676,266.7362 153.08817,264.7673 154.49114,263.2359 C 156.08881,261.492 156.26166,261.2417 156.13785,260.8516 C 155.98851,260.3811 155.40521,260.4727 154.44574,261.1173 C 152.67311,262.3082 149.57756,263.2356 147.37432,263.2358 C 145.55723,263.2359 144.67651,263.0693 142.92863,262.3948 C 139.76891,261.1755 136.70008,257.6409 135.81254,254.1987 C 135.27197,252.1022 135.6579,248.0944 136.59756,246.0464 C 137.85324,243.3096 140.38352,240.8047 143.43023,239.2823 C 144.9315,238.5321 147.57412,238.1418 149.33638,238.41 C 152.76679,238.932 155.41162,240.4753 157.8593,243.3834 C 159.08913,244.8446 159.71874,245.9917 160.07641,247.423 C 160.23254,248.0478 160.40581,248.6326 160.46146,248.7226 C 160.62081,248.9805 161.29041,248.916 161.39927,248.6323 C 161.65193,247.9739 160.81688,242.2236 160.1772,240.2169 C 160.05928,239.8469 159.7267,238.6344 159.43813,237.5225 C 158.91792,235.5179 157.83016,232.7427 156.9609,231.2025 C 156.52396,230.4283 156.38965,229.9114 156.62132,229.8955 C 158.04616,229.7978 169.93758,229.8102 170.1232,229.9095 C 170.35317,230.0326 170.24441,230.3388 169.10864,232.7663 C 167.39382,236.4314 166.53229,239.1274 165.56174,243.8655 C 165.42853,244.5158 165.27822,245.8634 165.2277,246.8603 C 165.14713,248.4498 165.16732,248.7042 165.39186,248.9287 C 165.78199,249.3188 166.17708,249.0243 166.29807,248.2531 C 166.50726,246.9196 167.45207,244.8221 168.40709,243.571 C 169.29161,242.4122 170.11598,241.699 171.76112,240.6692 C 177.00403,237.3874 182.88505,237.7807 187.05754,241.6922 C 188.05569,242.6279 189.25994,244.3857 189.85222,245.7715 C 190.73787,247.8436 190.93818,248.9884 190.85109,251.4799 C 190.78656,253.3261 190.71884,253.7689 190.3181,254.9648 C 189.40257,257.697 188.29338,259.3684 186.35031,260.944 C 184.21124,262.6784 182.45676,263.2672 179.37876,263.2834 C 177.7111,263.2922 177.32908,263.242 175.82356,262.8155 C 174.3291,262.3921 172.94264,261.7879 171.74165,261.0368 C 171.24363,260.7253 170.85873,260.8722 170.85873,261.3737 C 170.85873,261.6555 171.18097,262.1008 172.02493,262.9853 C 173.42344,264.4509 173.95404,265.2041 174.62848,266.6807 C 175.37224,268.3091 175.45687,268.557 175.77447,270.037 C 176.2182,272.1048 176.28161,273.0816 176.09151,274.9208 C 175.80619,277.6812 175.03686,279.4195 173.06002,281.7707 C 170.69927,284.5785 167.47917,286.0703 163.5345,286.1838 C 162.58908,286.211 161.64739,286.2045 161.44186,286.1692 z M 204.93883,263.4899 C 203.40357,263.0517 202.45529,262.395 201.65813,261.218 C 200.98922,260.2303 200.75356,259.4439 200.75356,258.1993 C 200.75356,257.1877 200.8157,256.9293 201.28939,255.9706 C 201.6191,255.3033 202.16569,254.5371 202.71022,253.9789 C 203.80506,252.8565 203.54849,252.7814 201.7807,253.7069 C 200.62601,254.3114 200.50482,254.3422 199.27777,254.3422 C 197.77587,254.3422 197.02529,254.0419 195.96456,253.0166 C 194.83359,251.9234 194.34499,250.1595 194.64231,248.2431 C 194.83633,246.9927 195.06912,246.4107 195.76009,245.449 C 196.36394,244.6084 196.92361,244.222 198.14606,243.8014 C 199.8807,243.2046 201.44796,243.5175 202.76837,244.7243 C 203.76735,245.6373 204.27252,246.4548 204.6121,247.7079 C 204.86664,248.6472 205.124,248.9501 205.29316,248.5093 C 205.3938,248.247 205.09916,246.2695 204.71814,244.65 C 204.41843,243.3762 203.84407,241.8355 203.36259,241.0139 C 202.80349,240.0599 202.86189,239.8274 203.68917,239.714 C 204.58011,239.5919 207.35198,239.5934 208.93727,239.7168 C 210.41223,239.8316 210.43729,239.8908 209.60107,241.2853 C 208.27312,243.4998 206.69726,248.2885 207.19518,248.5962 C 207.45822,248.7588 207.54844,248.6541 207.78267,247.9148 C 208.39826,245.9716 209.51859,244.6427 210.93876,244.171 C 212.05412,243.8005 214.00978,243.9198 215.11046,244.4255 C 217.47451,245.5116 218.4395,249.2392 217.03756,251.8695 C 216.74632,252.4159 216.32616,252.9117 215.85825,253.261 C 214.20052,254.4986 212.48155,254.585 210.25663,253.5423 C 209.52877,253.2013 208.81364,252.9222 208.66745,252.9222 C 208.52127,252.9222 208.37163,252.8381 208.33492,252.7353 C 208.29822,252.6326 208.22277,252.5903 208.16724,252.6414 C 208.11171,252.6926 208.43489,253.1119 208.8854,253.5734 C 210.38779,255.1122 211.01811,256.3111 211.16787,257.9147 C 211.32755,259.6248 210.64955,261.3677 209.45723,262.312 C 207.9944,263.4706 206.36199,263.8961 204.93883,263.4899 z M 64.107482,187.5277 C 61.402252,187.0724 59.157602,185.974 57.408002,184.2495 C 56.050172,182.9111 55.425462,182.037 54.673042,180.4229 C 53.857882,178.6741 53.656312,177.9257 53.567672,176.3182 C 53.412672,173.5071 53.900592,170.9916 55.051672,168.6674 C 55.650232,167.4588 56.149002,166.7487 57.480902,165.2086 C 59.524132,162.846 59.700762,162.4938 59.001912,162.1754 C 58.697802,162.0368 58.499392,162.1208 57.463002,162.8265 C 56.309202,163.6121 55.153932,164.128 53.297322,164.6868 C 51.895942,165.1085 48.726162,165.065 47.243622,164.6037 C 43.820072,163.5385 41.525182,161.4912 39.764512,157.9314 C 38.930882,156.2459 38.724952,155.2812 38.727472,153.0735 C 38.732062,149.0626 40.188272,145.9004 43.236162,143.2829 C 47.322402,139.7736 52.045882,139.2463 56.882602,141.7595 C 59.605212,143.1742 62.647602,146.9119 63.026932,149.308 C 63.160862,150.154 63.522302,150.6044 63.956632,150.4666 C 64.249212,150.3737 64.283672,150.2596 64.283672,149.3831 C 64.283672,147.6124 63.639022,143.9474 62.868882,141.3397 C 62.674642,140.6821 62.332852,139.4713 62.109352,138.6492 C 61.700612,137.1458 60.293382,133.9072 59.461052,132.5545 C 59.117212,131.9957 59.054302,131.7861 59.189752,131.6507 C 59.319932,131.5206 61.121152,131.4744 66.072472,131.4744 C 69.760992,131.4744 72.820152,131.5157 72.870602,131.5662 C 72.921052,131.6167 72.764302,132.0875 72.522262,132.6125 C 70.571072,136.8447 69.979312,138.4662 69.091682,142.0124 C 68.362342,144.9262 67.825762,148.5184 67.947182,149.6743 C 67.966532,149.8585 67.990952,150.091 68.001442,150.1908 C 68.011942,150.2907 68.159352,150.4467 68.329022,150.5375 C 68.747452,150.7614 69.032932,150.5077 69.150532,149.8074 C 69.398372,148.3315 70.280802,146.3622 71.303652,145.0023 C 72.839782,142.96 75.697372,141.1428 78.633182,140.3413 C 80.285642,139.8902 83.431502,139.857 84.827432,140.276 C 88.149712,141.2732 90.976072,143.7749 92.460542,147.0323 C 93.591492,149.514 93.924372,152.838 93.290042,155.3156 C 92.784412,157.2905 92.669102,157.6076 91.959982,158.9736 C 90.852252,161.1074 88.411672,163.4112 86.441242,164.183 C 85.491612,164.555 83.394542,164.8819 81.957912,164.8819 C 79.788272,164.8819 77.104652,164.1017 75.132702,162.8975 C 74.446242,162.4784 74.186682,162.3902 73.974282,162.5038 C 73.442202,162.7886 73.671202,163.2231 75.192882,164.8164 C 77.033592,166.7437 78.194232,169.0105 78.861802,171.9819 C 79.223572,173.5922 79.255172,173.959 79.170792,175.5693 C 79.046912,177.9335 78.772852,179.0191 77.876162,180.6978 C 76.195092,183.8448 73.512442,186.1518 70.471662,187.0655 C 69.370932,187.3962 67.033342,187.7527 66.077362,187.7355 C 65.625202,187.7274 64.738752,187.6339 64.107482,187.5277 z M 160.45342,187.1537 C 159.35249,186.9924 158.28473,186.6173 156.58395,185.7943 C 155.33767,185.1913 154.89744,184.8776 153.9355,183.9076 C 152.41208,182.3712 151.95915,181.7756 151.26014,180.3892 C 150.14458,178.1767 149.86267,176.9078 149.97625,174.6103 C 150.19089,170.269 151.07217,168.1729 154.1868,164.5958 C 155.95847,162.561 156.14505,162.1911 155.57858,161.836 C 155.29727,161.6597 154.81183,161.8813 153.81868,162.6397 C 153.22876,163.0901 151.06306,163.9946 149.62037,164.393 C 148.90588,164.5903 148.14804,164.6543 146.64392,164.6443 C 144.7964,164.632 144.5033,164.5905 143.17254,164.1527 C 141.4982,163.6019 139.80725,162.5546 138.63097,161.3398 C 137.18712,159.8486 135.66266,157.2568 135.21218,155.5273 C 134.94131,154.4874 134.90711,151.4985 135.15084,150.1677 C 135.79157,146.6692 138.12312,143.509 141.5737,141.4621 C 143.84065,140.1173 144.85212,139.844 147.54076,139.8499 C 149.58422,139.8544 149.78933,139.8823 151.12814,140.3375 C 153.90335,141.2813 155.63059,142.4892 157.58404,144.8524 C 158.81625,146.343 159.41545,147.4579 159.73305,148.8508 C 159.98592,149.9599 160.26876,150.3118 160.71513,150.0729 C 160.93822,149.9535 160.99344,149.7492 160.99344,149.0432 C 160.99344,146.9384 160.43914,144.1404 159.09796,139.4753 C 158.26243,136.569 157.97245,135.7949 156.94704,133.7333 C 156.29518,132.4227 155.76184,131.2942 155.76184,131.2256 C 155.76184,131.1569 158.92322,131.1008 162.78713,131.1008 C 168.58012,131.1008 169.81241,131.1361 169.81241,131.3023 C 169.81241,131.4131 169.30517,132.6064 168.68521,133.9541 C 167.00218,137.6128 165.70048,141.8024 165.18303,145.2261 C 165.08363,145.8838 164.9411,146.7873 164.8663,147.2341 C 164.57463,148.9758 164.76304,150.2335 165.31566,150.2335 C 165.70199,150.2335 165.81293,150.0368 166.03232,148.9629 C 166.13309,148.4697 166.54924,147.3916 166.95708,146.5671 C 168.16422,144.127 169.87464,142.4991 172.75288,141.0511 C 174.69744,140.0727 175.95809,139.7558 178.27754,139.6622 C 180.67337,139.5655 182.02167,139.8199 183.78824,140.7021 C 186.48743,142.0499 188.45599,144.1215 189.69648,146.9196 C 190.5951,148.9466 190.78824,150.0466 190.69613,152.6131 C 190.62743,154.5271 190.56352,154.9488 190.17101,156.0768 C 189.34019,158.4646 188.43185,160.022 187.17726,161.2099 C 185.07598,163.1994 183.58654,164.0073 181.33847,164.377 C 178.17917,164.8965 174.49394,164.1165 171.57473,162.3103 C 171.04894,161.985 171.00674,161.9806 170.7609,162.2258 C 170.51699,162.4691 170.51648,162.5156 170.75249,163.0105 C 170.89048,163.2999 171.06338,163.5367 171.13672,163.5367 C 171.21006,163.5367 171.78549,164.1215 172.41546,164.8362 C 175.10886,167.8922 176.46455,172.3663 175.94583,176.4874 C 175.72672,178.2281 175.31381,179.4396 174.45523,180.8606 C 172.70767,183.7529 170.14746,185.8024 167.19662,186.6713 C 165.17928,187.2653 162.51529,187.4559 160.45342,187.1537 z M 60.023652,88.6775 C 59.331012,88.6226 59.086602,88.4498 59.306792,88.1707 C 59.390602,88.0644 59.930712,86.9 60.507052,85.5831 C 62.135672,81.8617 63.122042,78.4852 63.671922,74.749 C 64.123782,71.6788 64.171212,70.1464 63.827202,69.7319 C 63.473582,69.3059 63.108822,69.4793 62.942372,70.1527 C 62.569662,71.6605 62.428642,72.0549 61.806782,73.329 C 61.445652,74.0689 60.842762,75.0642 60.467032,75.5409 C 59.177882,77.1762 56.242652,79.0376 53.671002,79.8505 C 52.689192,80.1608 52.262182,80.2044 50.233102,80.2011 C 47.626492,80.197 47.326512,80.1261 45.158602,79.0026 C 43.656882,78.2243 41.840582,76.6352 40.944612,75.3158 C 40.103552,74.0773 39.071382,71.6824 38.783672,70.3019 C 38.601962,69.43 38.560802,68.6449 38.617162,67.1258 C 38.681892,65.3809 38.755962,64.9158 39.164682,63.6879 C 40.030382,61.0871 40.562572,60.1915 42.229882,58.5295 C 43.397472,57.3656 43.996652,56.8961 44.926772,56.416 C 46.373292,55.6695 47.237032,55.4698 49.485732,55.362 C 52.124832,55.2355 54.481372,55.8099 56.686622,57.1174 C 57.906292,57.8406 58.155232,57.8647 58.155232,57.2601 C 58.155232,56.9014 57.885092,56.5213 56.811122,55.3689 C 55.735702,54.215 55.302632,53.6053 54.644732,52.3191 C 52.712882,48.5424 52.267692,43.9433 53.519722,40.6971 C 54.641752,37.788 56.799132,35.3075 59.500492,33.8206 C 61.388732,32.7813 64.098272,32.2211 66.600522,32.3528 C 68.620672,32.4591 70.016592,32.8308 71.989122,33.7878 C 74.512222,35.0119 76.394792,37.0773 77.649382,39.9977 C 78.458252,41.8805 78.681182,43.0969 78.580542,45.0784 C 78.450202,47.6447 77.975022,49.6173 77.036372,51.4886 C 76.415152,52.7271 75.772762,53.6094 74.194242,55.3921 C 72.703122,57.0761 72.597492,57.2625 72.894012,57.6859 C 73.018082,57.863 73.170892,58.0079 73.233602,58.0079 C 73.296302,58.0079 73.711402,57.7365 74.156052,57.4047 C 76.507542,55.6503 80.271592,54.6444 83.162282,54.998 C 87.326652,55.5074 90.411562,57.8644 92.481542,62.1184 C 93.243512,63.6844 93.429062,64.625 93.430262,66.9276 C 93.431852,70.0044 92.895492,71.7719 91.201692,74.2717 C 90.132082,75.8503 89.100172,76.8677 87.555002,77.8671 C 85.943272,78.9096 85.068012,79.2932 83.416362,79.681 C 80.837132,80.2866 78.312882,79.9011 75.370652,78.4523 C 72.621782,77.0987 69.379862,73.207 68.985992,70.7879 C 68.932442,70.4591 68.792662,70.0387 68.675342,69.8537 C 68.428752,69.4649 67.944682,69.4089 67.812302,69.7539 C 67.518932,70.5184 67.980462,74.014 68.777712,77.0659 C 69.475382,79.7365 70.053312,81.8155 70.338902,82.682 C 70.602032,83.4803 72.208662,86.8892 72.794612,87.8925 C 73.346602,88.8377 73.457742,88.8217 66.687352,88.7706 C 63.351162,88.7454 60.352502,88.7035 60.023652,88.6775 z M 58.005752,66.4715 C 58.005752,66.4405 57.888042,66.3228 57.744172,66.2099 C 57.507102,66.024 57.501812,66.0293 57.687742,66.2664 C 57.883012,66.5153 58.005752,66.5945 58.005752,66.4715 z M 158.22817,88.3631 C 156.88056,88.311 155.98981,88.2168 155.99548,88.1269 C 156.00066,88.0447 156.22641,87.5066 156.49713,86.9312 C 158.23283,83.2416 158.84144,81.571 159.7189,78.0873 C 160.15173,76.3689 160.84396,71.8374 160.84396,70.7225 C 160.84396,69.8575 160.65995,69.2946 160.33657,69.1705 C 160.01316,69.0464 159.64817,69.4598 159.64817,69.9503 C 159.64817,70.4742 159.06651,72.1902 158.53034,73.2481 C 156.96366,76.3391 153.45851,78.9031 149.59999,79.7806 C 145.71328,80.6645 142.05545,79.7562 139.17021,77.1906 C 137.6838,75.8689 136.86923,74.8069 136.09362,73.1795 C 135.11368,71.1234 134.82468,69.843 134.81546,67.5168 C 134.80513,64.9103 135.1979,63.3451 136.49635,60.818 C 137.54633,58.7745 140.01142,56.5544 142.09694,55.7742 C 143.97221,55.0725 147.30285,54.9336 149.62671,55.46 C 150.91556,55.752 152.84854,56.5503 153.83724,57.1991 C 154.05297,57.3406 154.33884,57.4145 154.47251,57.3632 C 154.98922,57.1649 154.70502,56.6253 153.28968,55.1175 C 152.08892,53.8382 151.72374,53.3241 150.97645,51.8605 C 149.83183,49.6188 149.3332,47.7834 149.22716,45.4215 C 149.0908,42.3841 149.48688,40.641 150.7905,38.5414 C 152.5925,35.6392 155.12009,33.6009 157.92922,32.7847 C 161.98766,31.6056 165.16922,31.862 168.91557,33.6703 C 169.99323,34.1904 170.413,34.5131 171.68084,35.7957 C 172.88624,37.0151 173.3125,37.5705 173.88292,38.6651 C 175.09138,40.9838 175.26915,41.7236 175.26237,44.4058 C 175.2556,47.0863 175.00921,48.497 174.22157,50.3645 C 173.44184,52.2133 172.5081,53.5201 170.14898,56.0643 C 169.56293,56.6963 169.42886,57.0532 169.66889,57.3425 C 169.95477,57.6869 170.33456,57.5998 171.10234,57.0138 C 171.97113,56.3506 173.47359,55.652 175.27061,55.0755 C 176.51273,54.6771 176.7817,54.6454 178.8556,54.6536 C 180.97616,54.662 181.17343,54.6885 182.49443,55.1413 C 185.62823,56.2155 188.21876,58.6319 189.75621,61.9149 C 190.37967,63.2462 190.58669,64.4188 190.58818,66.6269 C 190.59021,69.6142 189.98892,71.6347 188.4536,73.8 C 185.48905,77.9808 180.77645,80.2649 176.60483,79.5427 C 173.12492,78.9403 170.43319,77.332 168.01091,74.4079 C 166.86514,73.0248 166.36735,72.1141 165.8435,70.4428 C 165.47424,69.2648 165.43366,69.2033 165.05488,69.247 L 164.65555,69.2932 L 164.68077,70.7879 C 164.70219,72.0567 165.45572,76.5926 165.71474,77.0119 C 165.74719,77.0644 166.14092,78.3982 166.58971,79.9759 C 167.23757,82.2535 167.62063,83.2808 168.44913,84.9625 C 169.02302,86.1275 169.62857,87.2837 169.79477,87.5319 C 169.96099,87.7801 170.04976,88.0569 169.99207,88.147 C 169.86603,88.344 161.64171,88.495 158.22817,88.3631 z M 20.375642,79.2837 C 20.083592,79.1659 20.142572,78.9529 20.865802,77.5143 C 21.992502,75.273 23.107302,71.3734 22.828792,70.6476 C 22.657372,70.2009 22.362062,70.6048 21.830732,72.0125 C 21.260672,73.5229 20.464182,74.4192 19.160082,75.0177 C 18.456272,75.3407 18.211722,75.3771 17.206062,75.3081 C 14.735392,75.1388 13.103292,73.593 12.719242,71.0585 C 12.552572,69.9586 12.604832,69.226 12.930472,68.0974 C 13.140212,67.3705 13.344522,67.0494 14.008622,66.4029 C 14.955502,65.4812 15.757792,65.0823 16.945372,64.9427 C 18.053472,64.8124 19.605732,65.3 20.896692,66.1839 C 22.542362,67.3105 22.585622,66.9565 20.997962,65.355 C 19.763162,64.1094 19.452982,63.6152 19.062162,62.2709 C 18.777462,61.2915 18.824802,59.6122 19.167592,58.5311 C 19.397012,57.8075 20.743642,56.4012 21.690292,55.8966 C 22.263542,55.591 22.564112,55.5416 23.850912,55.5416 C 25.554952,55.5416 26.385092,55.8365 27.243852,56.747 C 28.520972,58.1009 28.934312,59.1291 28.927752,60.9356 C 28.923922,61.9878 28.861832,62.2686 28.448522,63.103 C 28.187372,63.6302 27.567362,64.5097 27.070732,65.0574 C 26.574102,65.6051 26.167762,66.1263 26.167762,66.2158 C 26.167762,66.5466 26.756272,66.3626 27.386782,65.8348 C 28.253462,65.1092 29.190782,64.7182 30.278302,64.6288 C 32.026152,64.4851 33.854702,65.5699 34.536592,67.155 C 34.814392,67.8007 34.871242,68.2272 34.889842,69.8047 C 34.910482,71.5561 34.884572,71.7433 34.511412,72.5395 C 34.003132,73.6239 33.175912,74.5218 32.221462,75.0249 C 31.574572,75.3659 31.293242,75.4189 30.128832,75.4192 C 28.529182,75.4196 27.949152,75.1737 26.906692,74.0532 C 26.024382,73.1048 25.646362,72.4546 25.425512,71.5054 C 25.221762,70.6296 24.887292,70.2203 24.663922,70.5733 C 24.447832,70.9148 24.495252,71.3704 24.966072,73.4762 C 25.434642,75.5718 25.761572,76.5343 26.475332,77.9192 C 26.974962,78.8887 27.015562,79.1627 26.678702,79.292 C 26.397132,79.4 20.645192,79.3925 20.375642,79.2837 z M 22.318872,50.5243 C 20.904642,50.3404 19.007552,49.7065 18.166522,49.1368 C 17.028152,48.3656 15.846662,46.9909 15.213602,45.7009 C 14.257942,43.7536 13.943962,41.9714 13.737692,37.3235 C 13.429882,30.3878 13.975222,26.6935 15.834332,23.1203 C 16.733352,21.3923 17.762302,20.3665 19.366692,19.5986 C 21.074742,18.7812 21.510462,18.6835 23.850912,18.5937 C 26.012162,18.5108 27.232822,18.688 28.299092,19.2394 C 29.474622,19.8473 31.399362,22.4143 31.399362,23.3742 C 31.399362,23.6884 31.284382,23.7894 30.700102,23.9885 C 30.315502,24.1195 29.753852,24.2268 29.451982,24.2268 C 28.967162,24.2268 28.811642,24.1216 28.118902,23.3251 C 26.982922,22.019 26.161972,21.6404 24.448812,21.6323 C 21.280082,21.6174 19.234082,22.8041 17.943352,25.4055 C 17.394242,26.5123 17.090582,27.6516 16.959682,29.0961 C 16.873252,30.0499 16.892282,30.2057 17.095142,30.2057 C 17.224942,30.2057 17.370622,30.1418 17.418882,30.0638 C 17.607902,29.7579 19.387102,28.5036 20.104102,28.1708 C 21.372722,27.5818 22.900202,27.3131 24.420372,27.4116 C 25.572242,27.4862 25.934622,27.5812 26.978252,28.082 C 29.123692,29.1114 31.178392,31.4369 31.842572,33.5872 C 32.733582,36.472 32.829012,40.7393 32.064172,43.4967 C 31.159352,46.7589 29.412922,49.0679 27.183822,49.9492 C 26.274162,50.3088 24.419642,50.6926 23.725662,50.6647 C 23.465702,50.6543 22.832652,50.5911 22.318872,50.5243 z M 24.986532,47.0081 C 27.112742,46.5245 28.655742,44.9854 29.227882,42.7774 C 29.598792,41.346 29.787682,38.8453 29.617382,37.621 C 29.057232,33.594 26.701132,30.9531 23.668482,30.9531 C 21.244402,30.9531 18.912242,32.331 17.714502,34.4709 C 16.901012,35.9242 16.700602,36.9753 16.789242,39.3236 C 16.870712,41.4821 17.092762,42.3901 17.966432,44.1377 C 18.528052,45.2611 19.109272,45.903 20.007302,46.3918 C 21.542682,47.2275 23.148212,47.4262 24.986532,47.0081 z"
     id="path6121" />
  <g
     id="g3796"
     transform="translate(1.593878e-6,0)">
    <rect
       ry="11.25"
       rx="11.25"
       y="3.4247196"
       x="3.6058116"
       height="311.81104"
       width="223.22835"
       id="rect2382"
       style="fill:none;fill-opacity:1;fill-rule:nonzero;stroke:#000000;stroke-width:0.03543307;stroke-linejoin:round;stroke-miterlimit:4;stroke-dasharray:none;stroke-opacity:1" />
    <g
       transform="translate(3.5433116,3.3622195)"
       id="g3164">
      <path
         style="fill:none;fill-rule:evenodd;stroke:#000000;stroke-width:0.03221492;stroke-linecap:butt;stroke-linejoin:miter;stroke-miterlimit:4;stroke-dasharray:none;stroke-opacity:1"
         d="M 219.74754,0.062511534 L 226.70838,0.062511534"
         id="path3160"
         sodipodi:nodetypes="cc" />
      <path
         sodipodi:nodetypes="cc"
         id="path3162"
         d="M 223.29036,-3.2997195 L 223.29036,3.6063107"
         style="fill:none;fill-rule:evenodd;stroke:#000000;stroke-width:0.03196126;stroke-linecap:butt;stroke-linejoin:miter;stroke-miterlimit:4;stroke-dasharray:none;stroke-opacity:1" />
    </g>
    <g
       transform="matrix(1.0001093,0,0,1,3.519309,315.17275)"
       id="g3168">
      <path
         sodipodi:nodetypes="cc"
         id="path3170"
         d="M 219.74754,0.062511534 L 226.70838,0.062511534"
         style="fill:none;fill-rule:evenodd;stroke:#000000;stroke-width:0.03221492;stroke-linecap:butt;stroke-linejoin:miter;stroke-miterlimit:4;stroke-dasharray:none;stroke-opacity:1" />
      <path
         style="fill:none;fill-rule:evenodd;stroke:#000000;stroke-width:0.03196126;stroke-linecap:butt;stroke-linejoin:miter;stroke-miterlimit:4;stroke-dasharray:none;stroke-opacity:1"
         d="M 223.29036,-3.2997195 L 223.29036,3.6063107"
         id="path3172"
         sodipodi:nodetypes="cc" />
    </g>
    <g
       id="g3174"
       transform="matrix(1.0001093,0,0,1,-219.70906,315.17275)">
      <path
         style="fill:none;fill-rule:evenodd;stroke:#000000;stroke-width:0.03221492;stroke-linecap:butt;stroke-linejoin:miter;stroke-miterlimit:4;stroke-dasharray:none;stroke-opacity:1"
         d="M 219.74754,0.062511534 L 226.70838,0.062511534"
         id="path3176"
         sodipodi:nodetypes="cc" />
      <path
         sodipodi:nodetypes="cc"
         id="path3178"
         d="M 223.29036,-3.2997195 L 223.29036,3.6063107"
         style="fill:none;fill-rule:evenodd;stroke:#000000;stroke-width:0.03196126;stroke-linecap:butt;stroke-linejoin:miter;stroke-miterlimit:4;stroke-dasharray:none;stroke-opacity:1" />
    </g>
    <g
       transform="translate(-219.68504,3.3622195)"
       id="g3180">
      <path
         sodipodi:nodetypes="cc"
         id="path3182"
         d="M 219.74754,0.062511534 L 226.70838,0.062511534"
         style="fill:none;fill-rule:evenodd;stroke:#000000;stroke-width:0.03221492;stroke-linecap:butt;stroke-linejoin:miter;stroke-miterlimit:4;stroke-dasharray:none;stroke-opacity:1" />
      <path
         style="fill:none;fill-rule:evenodd;stroke:#000000;stroke-width:0.03196126;stroke-linecap:butt;stroke-linejoin:miter;stroke-miterlimit:4;stroke-dasharray:none;stroke-opacity:1"
         d="M 223.29036,-3.2997195 L 223.29036,3.6063107"
         id="path3184"
         sodipodi:nodetypes="cc" />
    </g>
  </g>
</svg>
