<?xml version="1.0" encoding="UTF-8" standalone="no"?>
<!-- Created with Inkscape (http://www.inkscape.org/) -->
<svg
   xmlns:dc="http://purl.org/dc/elements/1.1/"
   xmlns:cc="http://creativecommons.org/ns#"
   xmlns:rdf="http://www.w3.org/1999/02/22-rdf-syntax-ns#"
   xmlns:svg="http://www.w3.org/2000/svg"
   xmlns="http://www.w3.org/2000/svg"
   xmlns:sodipodi="http://sodipodi.sourceforge.net/DTD/sodipodi-0.dtd"
   xmlns:inkscape="http://www.inkscape.org/namespaces/inkscape"
   id="svg12228"
   sodipodi:version="0.32"
   inkscape:version="0.46"
   width="230.31497"
   height="318.84155"
   version="1.0"
   sodipodi:docname="6d.svg"
   inkscape:output_extension="org.inkscape.output.svg.inkscape">
  <metadata
     id="metadata12233">
    <rdf:RDF>
      <cc:Work
         rdf:about="">
        <dc:format>image/svg+xml</dc:format>
        <dc:type
           rdf:resource="http://purl.org/dc/dcmitype/StillImage" />
      </cc:Work>
    </rdf:RDF>
  </metadata>
  <defs
     id="defs12231">
    <inkscape:perspective
       sodipodi:type="inkscape:persp3d"
       inkscape:vp_x="0 : 526.18109 : 1"
       inkscape:vp_y="0 : 1000 : 0"
       inkscape:vp_z="744.09448 : 526.18109 : 1"
       inkscape:persp3d-origin="372.04724 : 350.78739 : 1"
       id="perspective12235" />
  </defs>
  <sodipodi:namedview
     inkscape:window-height="667"
     inkscape:window-width="783"
     inkscape:pageshadow="2"
     inkscape:pageopacity="0.0"
     guidetolerance="10.0"
     gridtolerance="10.0"
     objecttolerance="10.0"
     borderopacity="1.0"
     bordercolor="#666666"
     pagecolor="#ffffff"
     id="base"
     showgrid="false"
     inkscape:zoom="1.4489956"
     inkscape:cx="115.15749"
     inkscape:cy="159.42078"
     inkscape:window-x="88"
     inkscape:window-y="116"
     inkscape:current-layer="svg12228" />
  <path
     style="fill:#e00000;fill-opacity:1"
     d="M 203.48437,300.0653 C 202.28768,299.7357 201.37699,299.2123 200.57086,298.3907 C 199.73638,297.5403 198.73285,295.8991 198.73285,295.3847 C 198.73285,295.038 199.21646,294.8551 200.60723,294.6759 C 201.35897,294.579 201.36266,294.5806 201.75492,295.1733 C 202.25057,295.9223 203.24768,296.7287 204.07543,297.05 C 205.38361,297.5579 208.49607,297.2848 209.97001,296.5328 C 210.91297,296.0518 212.18949,294.6731 212.74175,293.5394 C 213.21087,292.5763 213.81803,290.2157 213.81803,289.3548 C 213.81803,288.7731 213.58431,288.8164 212.38642,289.6196 C 210.14839,291.1204 209.22335,291.4018 206.57416,291.3876 C 204.92593,291.3788 204.5258,291.329 203.92646,291.0583 C 203.22909,290.7433 201.56609,289.7353 201.4213,289.5398 C 201.38023,289.4844 201.19737,289.3371 201.01494,289.2126 C 200.65497,288.967 199.29205,287.1852 198.92635,286.4822 C 197.16171,283.09 197.32424,276.4919 199.26757,272.6304 C 200.88992,269.4068 204.4017,267.6472 208.15499,268.1774 C 210.94735,268.5718 212.45285,269.2047 213.82923,270.5625 C 215.41313,272.1251 216.10047,273.5086 216.68611,276.3128 C 217.00324,277.8313 217.02687,278.2782 216.99798,282.2125 C 216.93912,290.2322 216.52252,292.9614 214.94281,295.6766 C 213.69045,297.8291 212.79134,298.6497 210.81273,299.4457 C 210.10452,299.7307 209.13441,300.0361 208.65696,300.1243 C 207.4895,300.3401 204.35231,300.3043 203.48437,300.0653 z M 209.98527,287.3198 C 212.04241,286.3004 213.26018,284.7754 213.83346,282.5008 C 214.44804,280.0622 213.93731,276.3316 212.69865,274.2116 C 211.65977,272.4334 209.74254,271.417 207.39811,271.4015 C 205.01871,271.3857 202.99011,272.3536 201.95675,273.9978 C 200.82908,275.7919 200.33783,279.6942 200.90304,282.3679 C 201.23298,283.9286 201.77546,285.0461 202.70526,286.0803 C 204.09215,287.6228 205.14505,288.0604 207.28739,287.9847 C 208.64626,287.9367 208.83316,287.8907 209.98527,287.3198 z M 60.311932,285.6619 C 60.005672,285.1768 59.569582,284.4542 59.342852,284.0563 C 59.116112,283.6583 58.679242,282.9462 58.372022,282.4738 C 58.064802,282.0015 57.087712,280.4892 56.200722,279.1133 C 55.313722,277.7373 54.222552,276.1074 53.775892,275.4913 C 53.329232,274.8752 52.738672,274.0351 52.463532,273.6244 C 52.049132,273.0058 50.968712,271.5469 48.403872,268.1428 C 46.913612,266.1648 41.398942,260.3329 39.517822,258.7455 L 38.700392,258.0558 L 39.441452,257.1773 C 39.849042,256.6941 40.217622,256.2652 40.260522,256.2241 C 40.303432,256.1831 40.841042,255.5782 41.455222,254.8799 C 42.069402,254.1817 42.950312,253.2071 43.412792,252.7142 C 44.230362,251.8429 44.992562,250.9804 46.400212,249.3334 C 46.990422,248.6429 47.495002,248.0311 48.746662,246.4884 C 48.886722,246.3158 49.299662,245.8315 49.664322,245.4123 C 50.266582,244.7198 52.573732,241.715 53.101242,240.9361 C 53.220382,240.7602 53.818292,239.9105 54.429932,239.048 C 56.160032,236.6081 59.032642,231.742 60.535772,228.7049 C 60.728892,228.3147 60.983962,227.9954 61.102612,227.9954 C 61.221252,227.9954 61.488102,228.3147 61.695622,228.7049 C 62.123172,229.5088 62.184482,229.6142 63.717042,232.1775 C 64.330972,233.2043 64.866882,234.1117 64.907952,234.1938 C 64.987092,234.3521 65.149742,234.6044 67.074042,237.5544 C 67.743872,238.5812 68.598652,239.8918 68.973562,240.4669 C 69.348472,241.0419 70.015312,241.9987 70.455442,242.593 C 70.895572,243.1874 71.591732,244.1558 72.002462,244.7451 C 72.895982,246.0271 74.029442,247.4593 75.117752,248.6816 C 75.556612,249.1744 76.274442,250.0146 76.712912,250.5485 C 77.151382,251.0825 78.640102,252.652 80.021172,254.0364 C 81.402242,255.4207 82.530552,256.6305 82.528522,256.7248 C 82.526492,256.8191 82.184252,257.2659 81.768002,257.7177 C 80.656232,258.9244 78.262092,261.64 77.027462,263.0946 C 76.434822,263.7929 75.786942,264.5473 75.587732,264.7711 C 75.388522,264.9949 75.106112,265.3646 74.960152,265.5926 C 74.814202,265.8206 74.626702,266.0817 74.543492,266.173 C 73.612152,267.1943 73.213752,267.6711 72.448672,268.6802 C 71.956812,269.329 71.032312,270.5388 70.394212,271.3687 C 69.043812,273.125 66.288072,277.2382 64.880302,279.5987 C 62.796162,283.0933 62.518222,283.5698 62.518222,283.6482 C 62.518222,283.8713 61.120922,286.5438 61.004242,286.5438 C 60.929732,286.5438 60.618192,286.147 60.311932,285.6619 z M 168.76843,286.0564 C 168.6141,285.8588 168.25259,285.2768 167.96508,284.763 C 167.67756,284.2493 167.23761,283.5493 166.98742,283.2074 C 166.73722,282.8656 165.74145,281.3761 164.77458,279.8974 C 162.43025,276.3122 159.76285,272.5801 158.20256,270.7022 C 157.988,270.444 156.85793,268.963 156.38982,268.3265 C 156.10973,267.9457 154.8688,266.5269 153.32798,264.8258 C 151.45,262.7525 148.35994,259.698 147.48042,259.0456 C 146.93404,258.6403 146.44632,258.2027 146.3966,258.0731 C 146.30333,257.8301 147.51392,256.4151 150.27858,253.5357 C 151.02788,252.7553 152.02529,251.6799 152.49505,251.146 C 152.96481,250.612 153.75,249.7271 154.23991,249.1796 C 154.72982,248.6321 155.49022,247.7454 155.92968,247.2093 C 156.36914,246.6732 157.13393,245.7769 157.6292,245.2177 C 158.67273,244.0393 160.26928,241.9981 161.81232,239.8694 C 162.4078,239.048 163.01895,238.2078 163.17042,238.0024 C 163.6429,237.3618 164.90104,235.4264 165.40349,234.5672 C 165.66772,234.1154 166.1576,233.3089 166.49214,232.7749 C 166.82668,232.241 167.24789,231.5016 167.42815,231.132 C 167.8418,230.2838 168.86375,228.4295 169.05494,228.1803 C 169.26533,227.906 169.48957,228.1393 170.29285,229.4678 C 170.67245,230.0956 171.37789,231.2477 171.86053,232.0281 C 172.34317,232.8085 172.87794,233.6823 173.04891,233.9698 C 174.04603,235.6465 177.10478,240.2793 177.97951,241.4377 C 179.01738,242.8121 180.62684,245.0088 180.98878,245.545 C 181.35376,246.0857 181.90965,246.7494 184.75825,250.0455 C 185.24584,250.6097 186.87571,252.2949 188.38018,253.7903 C 189.88465,255.2858 191.11559,256.605 191.11559,256.7219 C 191.11559,256.8387 191.0039,257.0266 190.86739,257.1393 C 190.28081,257.6238 184.17108,264.4421 183.19961,265.6964 C 183.07639,265.8554 182.70463,266.2929 182.37348,266.6685 C 182.04234,267.044 181.10646,268.1915 180.29375,269.2183 C 179.48105,270.2451 178.4249,271.5711 177.94674,272.1649 C 177.11528,273.1975 173.78623,278.0853 173.07904,279.3119 C 172.89336,279.6339 172.65812,280.0293 172.55629,280.1905 C 171.64399,281.6345 171.49272,281.9034 170.28443,284.2288 C 169.72953,285.2967 169.22457,286.2257 169.16229,286.2931 C 169.09999,286.3606 168.92276,286.2541 168.76843,286.0564 z M 205.98024,261.5668 C 205.57144,260.8874 204.79851,259.7033 204.26262,258.9356 C 203.72673,258.1679 203.1263,257.2941 202.92834,256.9939 C 202.59827,256.4935 201.86714,255.5324 200.07708,253.2462 C 199.70742,252.774 199.12005,252.0915 198.77181,251.7295 C 198.07269,251.0027 198.05332,250.957 198.32212,250.6675 C 202.458,246.2139 205.62805,242.1654 206.50786,240.2137 C 206.76438,239.6446 207.11485,239.5542 207.44701,239.9715 C 207.5985,240.1618 208.13764,240.956 208.6451,241.7364 C 211.00279,245.3621 213.00177,248.0194 214.76869,249.8764 C 215.47213,250.6157 216.04977,251.2879 216.05235,251.37 C 216.05492,251.4521 215.8719,251.721 215.64565,251.9674 C 213.40989,254.4026 209.98978,258.652 208.94243,260.296 C 208.74553,260.605 208.48933,260.9747 208.3731,261.1175 C 208.25687,261.2602 207.9358,261.6791 207.6596,262.0484 C 207.38341,262.4177 207.0598,262.7383 206.94047,262.7609 C 206.8071,262.7862 206.43718,262.3261 205.98024,261.5668 z M 59.718832,187.5142 C 59.121742,186.5295 55.665172,181.228 54.804422,179.9768 C 54.521862,179.5661 54.036282,178.851 53.725352,178.3878 C 53.414422,177.9246 52.930032,177.2554 52.648932,176.9008 C 52.367822,176.5461 51.768172,175.7393 51.316362,175.1078 C 50.568832,174.063 50.109212,173.4581 48.030482,170.7837 C 47.101402,169.5884 44.859452,167.0147 42.968572,164.9729 C 40.923172,162.7641 40.539842,162.3811 39.328012,161.3347 C 38.774812,160.8571 38.322202,160.3664 38.322202,160.2442 C 38.322202,159.998 39.494362,158.6385 42.865042,154.9752 C 44.104172,153.6285 45.213322,152.3851 45.329822,152.2121 C 45.446332,152.039 45.793032,151.6286 46.100282,151.3 C 47.234692,150.0868 50.507102,146.179 51.530412,144.8155 C 53.850992,141.7234 55.246322,139.784 55.931102,138.6987 C 57.652482,135.9706 58.802532,134.0083 59.618962,132.4062 C 60.423642,130.8273 60.654632,130.4731 60.884002,130.4669 C 60.952032,130.465 62.379392,132.7704 63.055712,133.9745 C 63.745292,135.2022 64.368102,136.2536 64.802262,136.923 C 65.082442,137.355 65.557262,138.1117 65.857422,138.6046 C 66.157582,139.0975 66.598482,139.7696 66.837212,140.0982 C 67.075942,140.4268 67.638762,141.2677 68.087932,141.967 C 68.537102,142.6662 69.332782,143.8188 69.856102,144.5283 C 70.379422,145.2377 70.988462,146.077 71.209522,146.3934 C 72.366222,148.0489 73.552042,149.5869 74.513132,150.6782 C 75.103792,151.3489 75.842232,152.2152 76.154112,152.6033 C 76.838232,153.4546 76.527322,153.124 79.657072,156.3288 C 81.074102,157.7799 82.233492,159.0238 82.233492,159.093 C 82.233492,159.1622 81.826842,159.6551 81.329822,160.1883 C 80.832802,160.7214 79.951822,161.7122 79.372082,162.3899 C 78.792352,163.0676 78.268322,163.6221 78.207572,163.6221 C 78.146822,163.6221 78.036442,163.752 77.962272,163.9109 C 77.888112,164.0697 77.416222,164.6579 76.913622,165.2179 C 76.411032,165.7779 75.744252,166.5721 75.431892,166.9828 C 75.119522,167.3934 74.680022,167.9311 74.455212,168.1775 C 73.853732,168.8368 72.979612,169.8983 72.301182,170.7931 C 71.972592,171.2265 71.434902,171.8976 71.106312,172.2845 C 70.777722,172.6714 70.139222,173.4759 69.687412,174.0723 C 69.235602,174.6686 68.772442,175.2544 68.658162,175.3741 C 68.393372,175.6512 67.092722,177.5346 66.574062,178.3919 C 66.355952,178.7524 66.009472,179.2507 65.804102,179.4993 C 65.598732,179.7478 65.262672,180.2441 65.057312,180.6022 C 64.851942,180.9603 64.247042,181.9379 63.713082,182.7746 C 63.179132,183.6113 62.271782,185.2026 61.696752,186.3107 C 61.121722,187.4188 60.567712,188.3512 60.465622,188.3826 C 60.363532,188.414 60.027472,188.0232 59.718832,187.5142 z M 168.13437,186.8983 C 165.53037,182.7083 160.27184,174.9361 159.15675,173.6291 C 158.98154,173.4237 158.33043,172.5836 157.70984,171.7621 C 157.08926,170.9406 156.0679,169.673 155.44016,168.945 C 154.81241,168.2171 154.05928,167.3342 153.76653,166.9831 C 152.88685,165.9279 148.21699,160.9336 148.11004,160.9336 C 147.96406,160.9336 146.30814,159.4357 146.30814,159.3036 C 146.30814,159.2417 146.52953,158.9615 146.80011,158.6808 C 147.07069,158.4001 147.92764,157.4656 148.70443,156.6041 C 149.48122,155.7426 150.4619,154.7008 150.88371,154.289 C 151.63512,153.5556 153.00748,152.054 156.48204,148.1635 C 159.07155,145.264 162.11219,141.3812 164.24219,138.2539 C 165.39594,136.56 167.6643,132.9174 167.67102,132.7479 C 167.68016,132.517 169.38676,129.6836 169.52878,129.6635 C 169.68804,129.6411 170.78185,131.1862 170.7948,131.4519 C 170.79925,131.5431 170.9802,131.879 171.19692,132.1984 C 171.41364,132.5177 171.94296,133.3841 172.3732,134.1235 C 174.37393,137.5623 177.23137,141.8891 179.74545,145.2866 C 180.18684,145.8832 180.77116,146.7073 181.04395,147.118 C 182.09778,148.7048 185.85085,152.964 188.78155,155.8993 C 190.06527,157.185 191.11559,158.3238 191.11559,158.4299 C 191.11559,158.5361 190.66191,159.1027 190.10742,159.6889 C 188.14308,161.7659 184.73947,165.6063 183.573,167.0619 C 183.16227,167.5745 182.59977,168.2368 182.32299,168.5338 C 182.04623,168.8307 181.64406,169.3089 181.42926,169.5964 C 181.21449,169.8839 180.56718,170.6695 179.99083,171.3422 C 178.60523,172.9593 177.02913,174.9404 176.09579,176.2383 C 173.80729,179.4207 170.87965,184.078 169.69587,186.4195 C 168.89493,188.0036 168.83312,188.0226 168.13437,186.8983 z M 58.386942,89.2996 C 57.907222,88.5012 57.339602,87.5398 57.125552,87.1633 C 55.867402,84.9498 52.101812,79.1981 49.791472,75.9611 C 47.154232,72.2659 46.519582,71.4318 45.350182,70.1239 C 44.725892,69.4256 43.947772,68.5193 43.621042,68.1099 C 43.294312,67.7005 41.896182,66.2391 40.514102,64.8623 C 39.132012,63.4856 38.023022,62.2647 38.049692,62.1493 C 38.076352,62.0339 38.971912,60.9502 40.039822,59.7411 C 45.487662,53.5729 50.967422,46.7399 53.333452,43.1647 C 53.659632,42.6718 54.071282,42.0872 54.248232,41.8656 C 54.970712,40.9605 57.534672,36.5344 58.621922,34.3153 C 59.034462,33.4733 59.440432,32.7843 59.524082,32.7843 C 59.678182,32.7843 59.986742,33.2253 60.895542,34.7445 C 61.832702,36.311 66.126382,42.6365 67.486392,44.4542 C 67.877692,44.9772 68.482592,45.7883 68.830612,46.2567 C 70.296742,48.2299 72.184732,50.667 72.624822,51.1543 C 72.884972,51.4424 73.686572,52.3503 74.406162,53.1717 C 76.808652,55.9144 79.159812,58.3487 80.366522,59.3428 C 81.534512,60.3051 81.920442,60.6868 81.930032,60.8892 C 81.934182,60.977 81.415002,61.5743 79.485912,63.7015 C 79.225172,63.989 78.232122,65.0644 77.279142,66.0912 C 76.326162,67.118 75.185922,68.3875 74.745282,68.9122 C 74.304642,69.4369 73.488542,70.4114 72.931732,71.0779 C 72.374922,71.7443 71.635602,72.6239 71.288792,73.0326 C 70.723812,73.6983 70.275582,74.2671 68.225912,76.9197 C 67.908532,77.3304 67.286952,78.2042 66.844632,78.8613 C 66.402312,79.5185 65.796012,80.3586 65.497312,80.7283 C 65.198602,81.098 64.798332,81.6693 64.607822,81.9978 C 64.417312,82.3264 63.970032,83.0412 63.613872,83.5862 C 63.257702,84.1312 62.966292,84.6122 62.966292,84.6552 C 62.966292,84.6981 62.663982,85.1931 62.294482,85.7553 C 61.924992,86.3174 61.622542,86.8205 61.622372,86.8732 C 61.622212,86.926 61.305652,87.5309 60.918912,88.2174 C 60.532182,88.904 60.075522,89.73 59.904122,90.053 C 59.732712,90.3759 59.517482,90.6651 59.425822,90.6957 C 59.334152,90.7263 58.866662,90.098 58.386942,89.2996 z M 57.069832,68.4845 C 56.922902,68.3221 56.741192,68.2273 56.666042,68.2737 C 56.479832,68.3888 56.821322,68.7797 57.108082,68.7797 C 57.300812,68.7797 57.294762,68.733 57.069832,68.4845 z M 167.46744,89.9512 C 167.35426,89.7663 167.06706,89.2917 166.82924,88.8964 C 166.5914,88.5012 166.25812,87.9971 166.0886,87.7763 C 165.91908,87.5554 165.56738,86.9913 165.30704,86.5228 C 164.78897,85.5903 162.71451,82.3514 162.02627,81.4004 C 161.78844,81.0718 161.05075,79.9964 160.38694,79.0107 C 159.72313,78.0249 158.81022,76.7143 158.35824,76.0982 C 157.90626,75.4821 157.17765,74.4868 156.7391,73.8864 C 154.81824,71.2566 151.56354,67.5975 148.54328,64.6723 C 145.98399,62.1936 145.8595,62.0592 145.86437,61.7814 C 145.86674,61.6463 146.21224,61.1661 146.63214,60.7143 C 148.33298,58.8842 148.95926,58.1935 149.74338,57.2827 C 150.19519,56.7579 150.80501,56.0551 151.09853,55.7209 C 151.39206,55.3868 152.03056,54.615 152.51744,54.0059 C 153.00431,53.3968 153.68608,52.5566 154.03249,52.1389 C 154.37891,51.7212 155.07965,50.8417 155.5897,50.1846 C 156.09976,49.5274 156.55593,48.9561 156.60341,48.915 C 156.69446,48.8363 157.87812,47.3412 159.00537,45.8811 C 160.04836,44.5301 161.18671,42.932 161.63175,42.1939 C 161.85464,41.8242 162.21616,41.2865 162.43513,40.999 C 163.10175,40.1237 165.79674,35.4984 166.63571,33.7897 C 167.07006,32.9051 167.49646,32.2034 167.58324,32.2305 C 167.67003,32.2576 167.94267,32.5999 168.18911,32.9912 C 170.28228,36.3148 176.07542,44.4612 177.65794,46.3066 C 177.87178,46.5559 178.24838,47.0189 178.49483,47.3353 C 181.9919,51.8258 187.23739,57.4284 189.50999,59.1004 C 190.06448,59.5084 190.51816,59.9462 190.51816,60.0735 C 190.51816,60.3118 188.19679,63.0089 186.17449,65.1204 C 185.02384,66.3218 184.6617,66.7306 182.60217,69.1534 C 180.62071,71.4844 179.54901,72.7329 179.35795,72.9328 C 179.05475,73.2499 177.78918,74.9155 177.22528,75.7393 C 176.93777,76.1594 176.54861,76.6977 176.3605,76.9354 C 174.96666,78.6971 172.55287,82.2736 171.63342,83.9395 C 171.40672,84.3502 171.13867,84.7871 171.03772,84.9103 C 170.7065,85.3147 169.51752,87.448 168.7485,89.0177 C 168.36297,89.8047 168.00092,90.2872 167.79602,90.2872 C 167.72849,90.2872 167.58064,90.136 167.46744,89.9512 z M 22.043492,77.9278 C 21.248922,76.5895 18.272872,72.098 17.466412,71.02 C 16.401502,69.5966 16.369422,69.5578 15.420912,68.5458 C 14.174572,67.216 14.078152,67.0575 14.283132,66.6745 C 14.376762,66.4995 14.799822,65.9703 15.223262,65.4986 C 15.646702,65.0268 16.328822,64.211 16.739082,63.6857 C 17.149342,63.1604 17.567062,62.6442 17.667342,62.5385 C 17.767632,62.4328 18.500652,61.4247 19.296282,60.2981 C 20.091922,59.1716 20.921492,58.0147 21.139772,57.7271 C 21.358062,57.4396 21.791692,56.781 22.103402,56.2636 C 22.415122,55.7461 22.747292,55.3468 22.841572,55.3763 C 22.935852,55.4058 23.200232,55.7893 23.429092,56.2286 C 24.546652,58.3738 28.968912,64.6177 30.647782,66.4209 C 31.007802,66.8075 31.302362,67.2039 31.302362,67.3016 C 31.302362,67.5057 30.622832,68.3702 29.201402,69.9745 C 28.302522,70.9891 26.707742,72.9943 25.328042,74.8447 C 24.818292,75.5284 24.339212,76.3045 23.678292,77.5171 C 23.345162,78.1283 22.809402,78.7866 22.645122,78.7866 C 22.594642,78.7866 22.323912,78.4002 22.043492,77.9278 z M 21.519412,50.1937 C 19.988812,49.9344 18.454382,49.4464 17.969202,49.0647 C 17.760082,48.9002 17.523712,48.7657 17.443932,48.7657 C 17.364152,48.7657 16.867462,48.3083 16.340182,47.7494 C 14.983152,46.3109 14.265902,44.7848 13.729052,42.1939 C 13.320542,40.2224 13.311192,40.0664 13.307982,35.1741 C 13.304692,30.1392 13.363382,29.3677 13.927202,27.034 C 14.237252,25.7508 14.856392,23.999 15.254832,23.2776 C 16.530742,20.9677 17.383412,20.1687 19.503072,19.2968 C 20.862892,18.7374 21.616672,18.6036 23.559542,18.5766 C 26.494552,18.5359 27.879172,19.0216 29.298112,20.5896 C 30.367822,21.7717 30.945402,22.8844 30.871492,23.6208 C 30.856452,23.7707 29.361222,24.1216 28.737672,24.1216 C 28.613822,24.1216 28.200822,23.7202 27.819892,23.2297 C 26.879122,22.0182 25.967192,21.5544 24.350942,21.4652 C 23.039702,21.3928 21.170402,21.7207 20.249862,22.1846 C 18.990012,22.8194 17.449992,24.6205 16.997432,25.9885 C 16.456622,27.6233 16.198832,30.0959 16.569212,30.0959 C 16.680682,30.0959 17.235172,29.7489 17.801422,29.3249 C 19.735982,27.876 21.552592,27.321 23.924422,27.454 C 25.068242,27.5181 25.435512,27.6066 26.239472,28.0114 C 28.162662,28.98 29.196622,29.8791 30.269292,31.5158 C 31.434462,33.2936 31.882102,35.0182 31.994202,38.1612 C 32.115892,41.573 31.796492,43.307 30.594512,45.7601 C 28.896262,49.2259 25.525542,50.8727 21.519412,50.1937 z M 23.873082,47.0596 C 25.606992,46.7279 26.571202,46.2218 27.594622,45.1064 C 28.975952,43.6009 29.659662,38.9802 28.920642,36.1449 C 28.489912,34.4924 27.936142,33.4502 26.971922,32.4774 C 25.871862,31.3676 24.988572,30.9576 23.513762,30.8722 C 20.341042,30.6885 17.585032,32.5597 16.493542,35.6386 C 16.197112,36.4747 16.155452,36.8798 16.157252,38.908 C 16.159202,41.118 16.180252,41.2809 16.620702,42.4976 C 17.382532,44.602 17.959202,45.4345 19.192272,46.2101 C 19.978762,46.7048 20.721422,46.9645 21.803502,47.1232 C 22.222282,47.1846 22.609412,47.2432 22.663792,47.2534 C 22.718182,47.2637 23.262352,47.1765 23.873082,47.0596 z"
     id="path12239" />
  <g
     id="g3796"
     transform="translate(1.593878e-6,0)">
    <rect
       ry="11.25"
       rx="11.25"
       y="3.4247196"
       x="3.6058116"
       height="311.81104"
       width="223.22835"
       id="rect2382"
       style="fill:none;fill-opacity:1;fill-rule:nonzero;stroke:#000000;stroke-width:0.03543307;stroke-linejoin:round;stroke-miterlimit:4;stroke-dasharray:none;stroke-opacity:1" />
    <g
       transform="translate(3.5433116,3.3622195)"
       id="g3164">
      <path
         style="fill:none;fill-rule:evenodd;stroke:#000000;stroke-width:0.03221492;stroke-linecap:butt;stroke-linejoin:miter;stroke-miterlimit:4;stroke-dasharray:none;stroke-opacity:1"
         d="M 219.74754,0.062511534 L 226.70838,0.062511534"
         id="path3160"
         sodipodi:nodetypes="cc" />
      <path
         sodipodi:nodetypes="cc"
         id="path3162"
         d="M 223.29036,-3.2997195 L 223.29036,3.6063107"
         style="fill:none;fill-rule:evenodd;stroke:#000000;stroke-width:0.03196126;stroke-linecap:butt;stroke-linejoin:miter;stroke-miterlimit:4;stroke-dasharray:none;stroke-opacity:1" />
    </g>
    <g
       transform="matrix(1.0001093,0,0,1,3.519309,315.17275)"
       id="g3168">
      <path
         sodipodi:nodetypes="cc"
         id="path3170"
         d="M 219.74754,0.062511534 L 226.70838,0.062511534"
         style="fill:none;fill-rule:evenodd;stroke:#000000;stroke-width:0.03221492;stroke-linecap:butt;stroke-linejoin:miter;stroke-miterlimit:4;stroke-dasharray:none;stroke-opacity:1" />
      <path
         style="fill:none;fill-rule:evenodd;stroke:#000000;stroke-width:0.03196126;stroke-linecap:butt;stroke-linejoin:miter;stroke-miterlimit:4;stroke-dasharray:none;stroke-opacity:1"
         d="M 223.29036,-3.2997195 L 223.29036,3.6063107"
         id="path3172"
         sodipodi:nodetypes="cc" />
    </g>
    <g
       id="g3174"
       transform="matrix(1.0001093,0,0,1,-219.70906,315.17275)">
      <path
         style="fill:none;fill-rule:evenodd;stroke:#000000;stroke-width:0.03221492;stroke-linecap:butt;stroke-linejoin:miter;stroke-miterlimit:4;stroke-dasharray:none;stroke-opacity:1"
         d="M 219.74754,0.062511534 L 226.70838,0.062511534"
         id="path3176"
         sodipodi:nodetypes="cc" />
      <path
         sodipodi:nodetypes="cc"
         id="path3178"
         d="M 223.29036,-3.2997195 L 223.29036,3.6063107"
         style="fill:none;fill-rule:evenodd;stroke:#000000;stroke-width:0.03196126;stroke-linecap:butt;stroke-linejoin:miter;stroke-miterlimit:4;stroke-dasharray:none;stroke-opacity:1" />
    </g>
    <g
       transform="translate(-219.68504,3.3622195)"
       id="g3180">
      <path
         sodipodi:nodetypes="cc"
         id="path3182"
         d="M 219.74754,0.062511534 L 226.70838,0.062511534"
         style="fill:none;fill-rule:evenodd;stroke:#000000;stroke-width:0.03221492;stroke-linecap:butt;stroke-linejoin:miter;stroke-miterlimit:4;stroke-dasharray:none;stroke-opacity:1" />
      <path
         style="fill:none;fill-rule:evenodd;stroke:#000000;stroke-width:0.03196126;stroke-linecap:butt;stroke-linejoin:miter;stroke-miterlimit:4;stroke-dasharray:none;stroke-opacity:1"
         d="M 223.29036,-3.2997195 L 223.29036,3.6063107"
         id="path3184"
         sodipodi:nodetypes="cc" />
    </g>
  </g>
</svg>
