<?xml version="1.0" encoding="UTF-8" standalone="no"?>
<!-- Created with Inkscape (http://www.inkscape.org/) -->
<svg
   xmlns:dc="http://purl.org/dc/elements/1.1/"
   xmlns:cc="http://creativecommons.org/ns#"
   xmlns:rdf="http://www.w3.org/1999/02/22-rdf-syntax-ns#"
   xmlns:svg="http://www.w3.org/2000/svg"
   xmlns="http://www.w3.org/2000/svg"
   xmlns:sodipodi="http://sodipodi.sourceforge.net/DTD/sodipodi-0.dtd"
   xmlns:inkscape="http://www.inkscape.org/namespaces/inkscape"
   id="svg12830"
   sodipodi:version="0.32"
   inkscape:version="0.46"
   width="230.31497"
   height="318.84155"
   version="1.0"
   sodipodi:docname="6h.svg"
   inkscape:output_extension="org.inkscape.output.svg.inkscape">
  <metadata
     id="metadata12835">
    <rdf:RDF>
      <cc:Work
         rdf:about="">
        <dc:format>image/svg+xml</dc:format>
        <dc:type
           rdf:resource="http://purl.org/dc/dcmitype/StillImage" />
      </cc:Work>
    </rdf:RDF>
  </metadata>
  <defs
     id="defs12833">
    <inkscape:perspective
       sodipodi:type="inkscape:persp3d"
       inkscape:vp_x="0 : 526.18109 : 1"
       inkscape:vp_y="0 : 1000 : 0"
       inkscape:vp_z="744.09448 : 526.18109 : 1"
       inkscape:persp3d-origin="372.04724 : 350.78739 : 1"
       id="perspective12837" />
  </defs>
  <sodipodi:namedview
     inkscape:window-height="667"
     inkscape:window-width="781"
     inkscape:pageshadow="2"
     inkscape:pageopacity="0.0"
     guidetolerance="10.0"
     gridtolerance="10.0"
     objecttolerance="10.0"
     borderopacity="1.0"
     bordercolor="#666666"
     pagecolor="#ffffff"
     id="base"
     showgrid="false"
     inkscape:zoom="1.4489956"
     inkscape:cx="115.15749"
     inkscape:cy="159.42078"
     inkscape:window-x="154"
     inkscape:window-y="203"
     inkscape:current-layer="svg12830" />
  <path
     style="fill:#e00000;fill-opacity:1"
     d="M 203.22833,300.0879 C 202.79825,299.9669 202.15893,299.6907 201.80763,299.4739 C 200.6874,298.7827 199.24332,297.0555 198.83703,295.9208 C 198.64996,295.3984 198.65603,295.3282 198.90388,295.1469 C 199.0538,295.0373 199.64006,294.8648 200.20665,294.7635 L 201.23684,294.5794 L 202.32448,295.6967 C 203.20681,296.6031 203.56353,296.8616 204.2144,297.066 C 205.21015,297.3787 206.42686,297.3868 207.85138,297.0901 C 211.04536,296.425 212.8927,294.3121 213.42203,290.7186 C 213.70599,288.7909 213.70651,288.9432 213.41605,288.9432 C 213.20111,288.9432 212.6957,289.2799 211.99106,289.8925 C 211.4368,290.3744 210.07442,291.0019 209.09395,291.2269 C 207.50433,291.5917 206.95756,291.6354 205.65532,291.5017 C 203.42092,291.2724 200.93317,289.6993 199.39423,287.5427 C 198.07402,285.6926 197.48305,283.2719 197.49604,279.7675 C 197.50511,277.3249 197.65839,276.0781 198.132,274.5943 C 199.06202,271.6807 200.95426,269.4675 203.18966,268.6788 C 205.12214,267.997 207.33063,267.9517 209.7679,268.544 C 213.00905,269.3316 215.38341,271.8433 216.25983,275.4115 C 216.87046,277.8977 217.01979,279.6881 217.02041,284.5316 C 217.02107,289.5729 216.89985,290.5897 215.95557,293.4633 C 215.00853,296.3453 213.63087,298.1751 211.66162,299.1664 C 209.88496,300.0608 209.26982,300.1914 206.55261,300.2515 C 204.62933,300.294 203.81989,300.2542 203.22833,300.0879 z M 209.05607,287.5426 C 211.22865,286.7248 212.54349,285.3985 213.36728,283.1938 C 213.65329,282.4284 213.70138,281.9916 213.71317,280.0533 C 213.72776,277.649 213.58999,276.9756 212.66056,274.9086 C 211.60931,272.5706 209.68253,271.494 206.79382,271.6304 C 202.75044,271.8214 200.84838,274.1125 200.55146,279.1496 C 200.30552,283.322 201.95142,286.577 204.87198,287.694 C 206.05785,288.1475 207.59691,288.0918 209.05607,287.5426 z M 49.078232,286.3057 C 48.304302,286.1891 46.567272,285.6277 45.788172,285.2423 C 42.695972,283.7128 40.019292,280.2482 39.115482,276.6055 C 38.695952,274.9147 38.690482,274.8742 38.589572,272.7173 C 38.492282,270.6377 38.787322,267.5036 39.230112,265.9128 C 40.147622,262.6165 42.037892,258.6256 43.916132,256.0191 C 44.369992,255.3892 44.946132,254.548 45.196442,254.1497 C 46.485212,252.099 50.182682,246.7157 51.702812,244.6769 C 53.578672,242.161 56.041202,238.593 57.094022,236.8655 C 57.307872,236.5146 57.921492,235.5208 58.457632,234.6572 C 58.993762,233.7936 59.826432,232.2942 60.307992,231.3252 C 60.916292,230.1013 61.253222,229.5769 61.411772,229.6074 C 61.537282,229.6316 61.942882,230.1633 62.313102,230.7891 C 62.683322,231.4148 63.398902,232.5243 63.903272,233.2546 C 64.407642,233.9849 65.450742,235.5047 66.221272,236.6319 C 68.964682,240.6452 69.842012,241.8861 71.243812,243.7361 C 73.114992,246.2055 75.386962,249.3306 75.515702,249.612 C 75.572132,249.7354 75.989042,250.3411 76.442172,250.958 C 76.895302,251.5749 77.546952,252.5507 77.890282,253.1264 C 78.233622,253.7022 78.812372,254.6443 79.176412,255.2201 C 79.944532,256.435 82.195792,261.0184 83.017462,263.0403 C 83.585462,264.438 83.965532,265.6967 84.404092,267.6326 C 84.715402,269.0068 84.757172,273.9108 84.470342,275.4091 C 83.867072,278.5604 82.675852,281.0079 80.864112,282.8185 C 79.565762,284.116 76.768262,285.6993 75.024872,286.1234 C 73.856922,286.4075 71.273042,286.3594 70.164552,286.0329 C 68.048112,285.4096 66.103232,284.0817 64.771222,282.3507 C 63.919402,281.2437 62.594252,278.4891 62.115132,276.8295 C 61.915282,276.1373 61.686312,275.5491 61.606312,275.5224 C 61.345682,275.4356 61.117382,275.8744 60.956272,276.7719 C 60.543502,279.0715 59.843422,280.7452 58.485832,282.6782 C 57.835292,283.6044 57.436442,283.9849 56.338802,284.7266 C 54.558332,285.9296 53.488062,286.2659 51.246682,286.3266 C 50.300792,286.3523 49.324992,286.3428 49.078232,286.3057 z M 155.108,286.0943 C 153.46277,285.8485 151.12065,284.898 150.01275,284.0265 C 145.30291,280.3218 143.51125,275.0471 144.56126,267.9773 C 144.72379,266.883 144.91842,265.7857 144.99378,265.5389 C 145.23045,264.764 146.20706,262.1228 146.45919,261.5759 C 147.7227,258.835 148.77041,257.0403 150.21706,255.1389 C 150.52178,254.7384 151.03919,253.9872 151.36686,253.4695 C 151.69453,252.9518 152.39759,251.9226 152.92923,251.1823 C 153.46087,250.442 154.42292,249.0624 155.06714,248.1166 C 156.38815,246.1769 157.46344,244.6916 158.51861,243.3491 C 159.52982,242.0625 161.78357,238.7931 163.91812,235.5163 C 164.9332,233.9581 167.14663,229.9775 167.14663,229.7103 C 167.14663,229.6547 167.24883,229.5244 167.37377,229.4207 C 167.56,229.2661 167.65698,229.2829 167.91248,229.5142 C 168.08387,229.6693 168.32646,229.9982 168.45157,230.2452 C 168.79208,230.9173 171.99231,235.6621 173.79766,238.1716 C 174.33021,238.9119 175.02002,239.887 175.33057,240.3387 C 175.64113,240.7903 176.38407,241.7998 176.98156,242.5819 C 182.39322,249.666 185.94065,255.0486 187.8064,259.0065 C 189.77702,263.1868 189.92933,263.5491 190.37327,265.1118 C 191.08984,267.6342 191.24416,268.7554 191.23625,271.3815 C 191.22005,276.7628 190.18536,279.6925 187.27446,282.599 C 186.10025,283.7714 185.69073,284.0697 184.26991,284.788 C 180.20893,286.8407 177.09385,286.7174 173.29966,284.3534 C 171.34728,283.137 169.52846,280.3705 168.40245,276.9046 C 167.91374,275.4003 167.52816,274.9255 167.39252,275.6609 C 167.35737,275.8514 167.20896,276.5457 167.0627,277.2037 C 166.1083,281.4974 163.61603,284.5446 160.10927,285.7053 C 158.82894,286.129 156.53498,286.3075 155.108,286.0943 z M 201.23626,263.3163 C 200.28703,263.0604 199.56566,262.5798 198.77526,261.6771 C 197.83072,260.5983 197.49038,259.6115 197.39395,257.6721 C 197.22887,254.3519 198.23403,252.0172 202.93618,244.7991 C 204.46299,242.4554 204.83875,241.8199 205.66527,240.1839 C 206.1373,239.2496 206.58487,238.5455 206.70674,238.5455 C 206.82427,238.5455 207.11786,238.8988 207.35917,239.3306 C 207.91515,240.3255 208.89249,241.8971 210.55303,244.4664 C 211.27273,245.5799 211.86158,246.5226 211.86158,246.5611 C 211.86158,246.5997 212.18875,247.1169 212.58861,247.7104 C 212.98847,248.3039 213.55496,249.227 213.84746,249.7616 C 214.13998,250.2962 214.58946,251.1038 214.84631,251.5562 C 215.4687,252.6523 215.84492,253.4968 216.31209,254.8462 C 216.64242,255.8003 216.70201,256.2358 216.71115,257.7624 C 216.7216,259.5077 216.70831,259.5837 216.22724,260.5291 C 215.41654,262.1222 214.50515,262.9521 213.17858,263.3052 C 210.42626,264.0379 208.09447,262.6932 207.51446,260.0388 C 207.40858,259.5542 207.25442,259.1977 207.16346,259.2271 C 207.07425,259.2559 206.89967,259.5775 206.77552,259.9417 C 205.78314,262.8525 203.86015,264.024 201.23626,263.3163 z M 48.428172,186.9402 C 47.588572,186.7751 46.400912,186.3284 45.226952,185.7361 C 44.573472,185.4064 43.864492,184.8327 42.867932,183.8274 C 41.017722,181.9609 40.848672,181.7431 40.148192,180.3246 C 38.529082,177.0458 38.116742,173.5832 38.809202,169.0803 C 39.343062,165.6087 41.348142,160.4862 43.262452,157.7033 C 43.654232,157.1337 44.375922,156.0621 44.866222,155.3218 C 45.994092,153.6189 45.924762,153.7221 48.033882,150.611 C 49.614872,148.279 51.144262,146.1326 52.281612,144.6495 C 53.461412,143.111 56.176662,139.1058 57.735272,136.6048 C 58.137312,135.9597 58.574742,135.2666 58.707332,135.0645 C 58.839932,134.8625 59.453152,133.7184 60.070032,132.5222 C 60.686922,131.326 61.258942,130.3472 61.341202,130.3472 C 61.423452,130.3472 61.692632,130.6671 61.939392,131.0581 C 64.642852,135.3416 70.155412,143.3153 71.639692,145.0893 C 72.117292,145.6601 73.900032,148.1457 75.385442,150.3119 C 75.921252,151.0933 76.629782,152.1028 76.959962,152.5552 C 77.290132,153.0076 77.757342,153.7478 77.998202,154.2002 C 78.239062,154.6526 78.620622,155.2919 78.846102,155.6209 C 79.340582,156.3424 80.762222,159.0827 81.445172,160.6308 C 81.717322,161.2477 82.108702,162.1196 82.314912,162.5684 C 83.322062,164.7605 84.211592,167.9825 84.457182,170.3281 C 84.651582,172.1847 84.456142,175.7225 84.067622,177.3802 C 83.476712,179.9013 82.387242,181.8197 80.478662,183.6999 C 79.486202,184.6776 79.017342,185.0025 77.499342,185.7647 C 75.426842,186.8053 74.400252,187.088 72.666732,187.0955 C 70.086272,187.1066 67.061442,185.8029 65.399402,183.9632 C 64.016582,182.4326 62.589072,179.6851 62.017892,177.455 C 61.830082,176.7216 61.672642,176.3927 61.492222,176.3567 C 61.106172,176.2797 60.999432,176.4657 60.832512,177.5063 C 60.469082,179.7721 59.626582,181.6989 58.166372,183.6039 C 56.965792,185.1702 55.145472,186.3576 53.116812,186.8979 C 52.288962,187.1184 49.463862,187.1439 48.428172,186.9402 z M 154.06116,186.9461 C 151.45274,186.5462 149.12157,185.1721 146.87417,182.7097 C 144.29189,179.8803 143.00829,175.1301 143.60014,170.5935 C 143.94537,167.9473 144.17763,166.8649 144.75914,165.192 C 145.88204,161.9617 146.9953,159.6309 148.41164,157.5449 C 152.77621,151.1167 154.74991,148.2935 156.63215,145.7864 C 157.63493,144.4508 158.69781,143.0215 158.99409,142.6102 C 160.91023,139.9505 161.69995,138.8125 162.09627,138.14 C 162.34388,137.7198 162.98846,136.7055 163.52867,135.886 C 164.06888,135.0665 165.00799,133.4345 165.61557,132.2594 C 166.22316,131.0844 166.80704,130.1229 166.91311,130.1229 C 167.01917,130.1229 167.27201,130.3753 167.47495,130.6837 C 167.6779,130.9922 168.43797,132.153 169.16396,133.2634 C 169.88996,134.3738 170.5271,135.316 170.57983,135.3571 C 170.63254,135.3982 170.98886,135.903 171.37161,136.4787 C 171.75436,137.0545 172.43653,138.0303 172.88752,138.6472 C 173.33853,139.2641 174.12741,140.3745 174.64063,141.1147 C 175.15384,141.855 175.81705,142.7635 176.11445,143.1336 C 176.41184,143.5038 176.75336,143.9491 176.87337,144.1233 C 177.23205,144.6438 178.87714,146.7917 178.97894,146.8723 C 179.11492,146.9801 182.59101,151.8526 183.35318,153.0038 C 184.60372,154.8926 185.54108,156.3873 185.54108,156.4925 C 185.54108,156.551 185.71632,156.8765 185.9305,157.2158 C 186.60734,158.288 188.95915,163.4439 189.50058,165.0425 C 190.48088,167.937 190.83214,170.2815 190.70748,173.0982 C 190.59611,175.6145 190.46637,176.4831 189.93967,178.2391 C 189.31798,180.3116 188.33096,181.9044 186.71458,183.4434 C 185.58509,184.5188 185.22177,184.7784 183.7465,185.5641 C 180.28879,187.4059 177.07945,187.4897 173.83584,185.823 C 172.49029,185.1316 171.86185,184.6702 171.09501,183.8108 C 169.60731,182.1434 168.46462,180.0298 167.73962,177.6045 C 167.41438,176.5165 167.27767,176.2496 167.02616,176.2119 C 166.76981,176.1735 166.69842,176.2656 166.62071,176.7353 C 166.56885,177.0489 166.39334,177.8697 166.23069,178.5593 C 165.29802,182.514 162.6225,185.5874 159.15827,186.6835 C 158.09573,187.0197 155.43512,187.1568 154.06116,186.9461 z M 60.895832,88.8183 C 60.759862,88.6288 60.131472,87.6639 59.499422,86.6742 C 58.867362,85.6845 58.103752,84.5317 57.802492,84.1124 C 57.501232,83.6931 57.146872,83.1569 57.015012,82.9209 C 56.883152,82.6849 56.367622,81.9198 55.869392,81.2206 C 55.371162,80.5215 54.512122,79.2765 53.960402,78.454 C 53.408692,77.6315 52.420992,76.24 51.765502,75.3619 C 51.110022,74.4838 50.237232,73.2858 49.825972,72.6998 C 49.414722,72.1137 49.009162,71.5536 48.924742,71.455 C 48.840322,71.3563 48.208062,70.4344 47.519722,69.4063 C 46.831382,68.3782 46.118252,67.3687 45.934972,67.1631 C 45.751702,66.9575 45.509102,66.6051 45.395872,66.3802 C 45.282632,66.1552 44.671782,65.1121 44.038422,64.0622 C 43.405072,63.0122 42.444012,61.2111 41.902742,60.0595 C 41.361472,58.908 40.754592,57.6294 40.554112,57.2181 C 39.710702,55.4879 38.889832,52.9603 38.430872,50.6802 C 38.128052,49.1758 38.097592,44.8606 38.378772,43.2979 C 38.623972,41.9351 39.203992,40.0709 39.673822,39.1355 C 40.749662,36.9935 42.711132,34.9984 44.816212,33.9048 C 48.177212,32.1587 51.084742,32.0115 54.184222,33.4305 C 55.204042,33.8974 56.733772,34.9809 57.188492,35.5584 C 58.273012,36.9358 58.614842,37.4613 59.215122,38.6741 C 59.816882,39.8899 60.493292,41.7396 60.732692,42.8241 C 60.800602,43.1317 60.912912,43.2353 61.178502,43.2353 C 61.584622,43.2353 61.713172,42.9926 61.719592,42.2137 C 61.726362,41.3923 62.351412,39.2515 62.905852,38.1507 C 64.292272,35.3982 66.314972,33.5803 68.928612,32.738 C 70.319382,32.2898 72.954382,32.2393 74.596172,32.6295 C 78.560722,33.5715 81.970512,36.7395 83.369942,40.781 C 84.030462,42.6885 84.222322,43.9559 84.216902,46.3759 C 84.208442,50.1558 83.786802,52.2554 82.258452,56.1284 C 81.311662,58.5277 80.239102,60.4585 78.413202,63.0505 C 78.297322,63.215 77.802282,63.9553 77.313122,64.6955 C 75.959472,66.744 75.129682,67.9696 74.984302,68.1351 C 74.912052,68.2174 74.437382,68.9254 73.929462,69.7085 C 73.421542,70.4916 72.602182,71.6922 72.108672,72.3766 C 71.615162,73.061 71.110442,73.7657 70.987062,73.9426 C 70.863682,74.1194 70.224372,75.0158 69.566352,75.9346 C 67.010232,79.5037 63.696572,84.7549 62.224252,87.5697 C 61.794702,88.3909 61.375712,89.0853 61.293152,89.1128 C 61.210602,89.1404 61.031802,89.0078 60.895832,88.8183 z M 56.181782,69.182 C 56.079382,69.0586 55.894662,68.9577 55.771282,68.9577 C 55.588842,68.9577 55.581722,68.9995 55.733132,69.182 C 55.835532,69.3054 56.020252,69.4063 56.143632,69.4063 C 56.326072,69.4063 56.333192,69.3644 56.181782,69.182 z M 165.72618,87.1652 C 165.0815,86.1576 164.43937,85.1986 164.29922,85.0341 C 164.15906,84.8696 163.53984,83.9947 162.92316,83.09 C 160.31721,79.2666 158.40431,76.5049 158.31358,76.4351 C 158.13899,76.3007 153.46849,69.9606 152.64004,68.7333 C 152.19585,68.0753 151.48682,67.0659 151.06441,66.4901 C 150.64201,65.9144 150.04475,65.0058 149.73717,64.4712 C 149.42959,63.9366 148.94098,63.0954 148.65135,62.6019 C 147.71496,61.0063 145.63876,56.7751 144.98225,55.1244 C 144.52571,53.9766 143.82953,51.461 143.58699,50.0829 C 143.30694,48.4915 143.30867,45.3635 143.59063,43.4928 C 144.03428,40.5496 144.83093,38.6503 146.46241,36.6465 C 148.10566,34.6281 151.13338,32.8654 153.90784,32.3119 C 156.27664,31.8393 160.02666,32.9414 162.0941,34.7177 C 163.62975,36.0372 165.22594,38.7554 166.08122,41.5076 C 166.38359,42.4806 166.57708,42.8761 166.76899,42.9136 C 167.10281,42.9787 167.29003,42.695 167.29688,42.1137 C 167.30478,41.4441 167.94831,39.0961 168.39986,38.0895 C 168.91966,36.9307 170.27985,35.0534 171.07539,34.3967 C 172.02772,33.6107 173.11048,32.9925 174.34043,32.5327 C 175.36576,32.1494 175.61588,32.1183 177.76456,32.1066 C 180.3415,32.0926 181.03369,32.245 183.19641,33.303 C 184.39865,33.891 186.35801,35.5324 187.38406,36.811 C 190.4172,40.5908 191.17609,47.3049 189.2427,53.2551 C 188.90862,54.2832 188.58718,55.1917 188.52838,55.274 C 188.46958,55.3562 188.33512,55.6927 188.22958,56.0217 C 187.84799,57.2113 186.29099,60.0953 185.14341,61.7382 C 184.49848,62.6615 183.70163,63.8627 183.37262,64.4076 C 183.04362,64.9524 182.60257,65.6102 182.39253,65.8694 C 182.18249,66.1285 181.21985,67.5183 180.25335,68.9577 C 179.28684,70.3971 178.31465,71.8186 178.09293,72.1166 C 177.87121,72.4145 177.31966,73.1784 176.86727,73.8141 C 176.41489,74.4497 175.94381,75.0935 175.82043,75.2448 C 175.69706,75.396 175.22598,76.0667 174.7736,76.7351 C 174.32121,77.4036 173.53481,78.5478 173.02603,79.2778 C 172.51726,80.0079 171.93626,80.8951 171.73492,81.2494 C 171.5336,81.6037 170.8285,82.7514 170.16805,83.7999 C 169.50758,84.8484 168.58846,86.4467 168.12554,87.3517 C 167.66263,88.2567 167.19713,88.9971 167.09109,88.9971 C 166.98504,88.9971 166.37083,88.1727 165.72618,87.1652 z M 23.185982,80.0513 C 23.101172,79.9953 22.785672,79.4985 22.484882,78.9473 C 21.984332,78.03 21.516312,77.2774 19.713782,74.4909 C 19.367932,73.9563 18.969172,73.3233 18.827662,73.0842 C 18.686152,72.8451 18.197022,72.0711 17.740712,71.3644 C 16.165122,68.9239 14.688092,66.2494 13.891852,64.3951 C 13.536902,63.5685 13.224512,61.3058 13.308302,60.1683 C 13.410152,58.7854 14.208262,57.067 15.063172,56.3899 C 16.483972,55.2646 18.502762,54.9289 19.780922,55.6053 C 20.911102,56.2034 21.779932,57.4888 22.008262,58.9005 C 22.094282,59.4324 22.166692,59.5361 22.452082,59.5361 C 22.735072,59.5361 22.806352,59.4374 22.870862,58.9565 C 22.989912,58.069 23.691962,56.6427 24.302712,56.0476 C 25.827862,54.5615 28.311952,54.6687 30.115922,56.2985 C 30.996672,57.0942 31.626032,58.4569 31.818362,59.9848 C 32.232292,63.2729 31.368982,65.8249 27.712072,72.123 C 27.536982,72.4246 27.129792,73.1312 26.807212,73.6933 C 26.484632,74.2554 26.085802,74.9106 25.920922,75.1493 C 25.756042,75.388 25.107932,76.6115 24.480672,77.8682 C 23.804082,79.2237 23.277462,80.1117 23.185982,80.0513 z M 22.982052,50.2994 C 20.540502,50.1563 18.565752,49.3228 17.059452,47.7997 C 15.965652,46.6937 14.756892,44.6469 14.756892,43.9007 C 14.756892,43.71 14.685342,43.3657 14.597902,43.1357 C 13.909412,41.3249 13.460592,33.25 13.863432,29.9216 C 14.298692,26.3253 15.398642,23.1478 16.800882,21.4359 C 17.435372,20.6613 18.721302,19.7673 19.936732,19.2557 C 21.284722,18.6884 22.595682,18.5134 24.907322,18.5922 C 26.641132,18.6514 27.056612,18.7141 27.692822,19.0123 C 28.639142,19.456 30.249952,21.1034 30.795952,22.186 C 31.459212,23.5011 31.369262,23.6708 29.864412,23.9433 L 28.895492,24.1187 L 28.518482,23.6796 C 28.311122,23.438 27.961092,23.0269 27.740632,22.766 C 27.520172,22.5051 26.956102,22.1159 26.487142,21.9012 C 25.684042,21.5335 25.537852,21.5156 23.971782,21.593 C 22.782022,21.6519 22.025942,21.7745 21.313642,22.0243 C 18.879892,22.8777 17.279742,25.2275 16.861622,28.5621 C 16.713282,29.7452 16.771072,30.3742 17.028122,30.3742 C 17.151992,30.3742 18.309522,29.4784 18.919792,28.9102 C 19.341882,28.5173 20.645132,27.9572 21.833112,27.6582 C 22.800462,27.4147 23.344352,27.3667 24.429322,27.4289 C 25.692362,27.5012 25.907042,27.562 27.121192,28.1904 C 30.974042,30.1845 32.609562,33.4921 32.578852,39.2275 C 32.565332,41.7521 32.244802,43.8765 31.725912,44.8804 C 31.619632,45.086 31.350432,45.6244 31.127692,46.0768 C 30.286842,47.7845 28.575252,49.3212 26.914672,49.8594 C 25.992802,50.1582 24.494882,50.4264 24.022762,50.3772 C 23.820502,50.3561 23.352182,50.3211 22.982052,50.2994 z M 25.854952,46.7137 C 28.537222,45.7368 29.860462,43.2151 29.861072,39.0791 C 29.861782,34.2737 27.332142,30.8228 23.808842,30.8228 C 21.503812,30.8228 19.104172,32.1742 17.806182,34.2033 C 16.470872,36.2907 16.336072,40.2477 17.503582,43.0858 C 18.386502,45.2321 19.449042,46.2752 21.411792,46.9225 C 22.310002,47.2187 24.787902,47.1023 25.854952,46.7137 z"
     id="path12841" />
  <g
     id="g3796"
     transform="translate(1.593878e-6,0)">
    <rect
       ry="11.25"
       rx="11.25"
       y="3.4247196"
       x="3.6058116"
       height="311.81104"
       width="223.22835"
       id="rect2382"
       style="fill:none;fill-opacity:1;fill-rule:nonzero;stroke:#000000;stroke-width:0.03543307;stroke-linejoin:round;stroke-miterlimit:4;stroke-dasharray:none;stroke-opacity:1" />
    <g
       transform="translate(3.5433116,3.3622195)"
       id="g3164">
      <path
         style="fill:none;fill-rule:evenodd;stroke:#000000;stroke-width:0.03221492;stroke-linecap:butt;stroke-linejoin:miter;stroke-miterlimit:4;stroke-dasharray:none;stroke-opacity:1"
         d="M 219.74754,0.062511534 L 226.70838,0.062511534"
         id="path3160"
         sodipodi:nodetypes="cc" />
      <path
         sodipodi:nodetypes="cc"
         id="path3162"
         d="M 223.29036,-3.2997195 L 223.29036,3.6063107"
         style="fill:none;fill-rule:evenodd;stroke:#000000;stroke-width:0.03196126;stroke-linecap:butt;stroke-linejoin:miter;stroke-miterlimit:4;stroke-dasharray:none;stroke-opacity:1" />
    </g>
    <g
       transform="matrix(1.0001093,0,0,1,3.519309,315.17275)"
       id="g3168">
      <path
         sodipodi:nodetypes="cc"
         id="path3170"
         d="M 219.74754,0.062511534 L 226.70838,0.062511534"
         style="fill:none;fill-rule:evenodd;stroke:#000000;stroke-width:0.03221492;stroke-linecap:butt;stroke-linejoin:miter;stroke-miterlimit:4;stroke-dasharray:none;stroke-opacity:1" />
      <path
         style="fill:none;fill-rule:evenodd;stroke:#000000;stroke-width:0.03196126;stroke-linecap:butt;stroke-linejoin:miter;stroke-miterlimit:4;stroke-dasharray:none;stroke-opacity:1"
         d="M 223.29036,-3.2997195 L 223.29036,3.6063107"
         id="path3172"
         sodipodi:nodetypes="cc" />
    </g>
    <g
       id="g3174"
       transform="matrix(1.0001093,0,0,1,-219.70906,315.17275)">
      <path
         style="fill:none;fill-rule:evenodd;stroke:#000000;stroke-width:0.03221492;stroke-linecap:butt;stroke-linejoin:miter;stroke-miterlimit:4;stroke-dasharray:none;stroke-opacity:1"
         d="M 219.74754,0.062511534 L 226.70838,0.062511534"
         id="path3176"
         sodipodi:nodetypes="cc" />
      <path
         sodipodi:nodetypes="cc"
         id="path3178"
         d="M 223.29036,-3.2997195 L 223.29036,3.6063107"
         style="fill:none;fill-rule:evenodd;stroke:#000000;stroke-width:0.03196126;stroke-linecap:butt;stroke-linejoin:miter;stroke-miterlimit:4;stroke-dasharray:none;stroke-opacity:1" />
    </g>
    <g
       transform="translate(-219.68504,3.3622195)"
       id="g3180">
      <path
         sodipodi:nodetypes="cc"
         id="path3182"
         d="M 219.74754,0.062511534 L 226.70838,0.062511534"
         style="fill:none;fill-rule:evenodd;stroke:#000000;stroke-width:0.03221492;stroke-linecap:butt;stroke-linejoin:miter;stroke-miterlimit:4;stroke-dasharray:none;stroke-opacity:1" />
      <path
         style="fill:none;fill-rule:evenodd;stroke:#000000;stroke-width:0.03196126;stroke-linecap:butt;stroke-linejoin:miter;stroke-miterlimit:4;stroke-dasharray:none;stroke-opacity:1"
         d="M 223.29036,-3.2997195 L 223.29036,3.6063107"
         id="path3184"
         sodipodi:nodetypes="cc" />
    </g>
  </g>
</svg>
