<?xml version="1.0" encoding="UTF-8" standalone="no"?>
<!-- Created with Inkscape (http://www.inkscape.org/) -->
<svg
   xmlns:dc="http://purl.org/dc/elements/1.1/"
   xmlns:cc="http://creativecommons.org/ns#"
   xmlns:rdf="http://www.w3.org/1999/02/22-rdf-syntax-ns#"
   xmlns:svg="http://www.w3.org/2000/svg"
   xmlns="http://www.w3.org/2000/svg"
   xmlns:sodipodi="http://sodipodi.sourceforge.net/DTD/sodipodi-0.dtd"
   xmlns:inkscape="http://www.inkscape.org/namespaces/inkscape"
   id="svg6203"
   sodipodi:version="0.32"
   inkscape:version="0.46"
   width="230.31497"
   height="318.84155"
   version="1.0"
   sodipodi:docname="6s.svg"
   inkscape:output_extension="org.inkscape.output.svg.inkscape">
  <metadata
     id="metadata6208">
    <rdf:RDF>
      <cc:Work
         rdf:about="">
        <dc:format>image/svg+xml</dc:format>
        <dc:type
           rdf:resource="http://purl.org/dc/dcmitype/StillImage" />
      </cc:Work>
    </rdf:RDF>
  </metadata>
  <defs
     id="defs6206">
    <inkscape:perspective
       sodipodi:type="inkscape:persp3d"
       inkscape:vp_x="0 : 526.18109 : 1"
       inkscape:vp_y="0 : 1000 : 0"
       inkscape:vp_z="744.09448 : 526.18109 : 1"
       inkscape:persp3d-origin="372.04724 : 350.78739 : 1"
       id="perspective6210" />
  </defs>
  <sodipodi:namedview
     inkscape:window-height="667"
     inkscape:window-width="773"
     inkscape:pageshadow="2"
     inkscape:pageopacity="0.0"
     guidetolerance="10.0"
     gridtolerance="10.0"
     objecttolerance="10.0"
     borderopacity="1.0"
     bordercolor="#666666"
     pagecolor="#ffffff"
     id="base"
     showgrid="false"
     inkscape:zoom="1.4489956"
     inkscape:cx="115.15749"
     inkscape:cy="159.42078"
     inkscape:window-x="154"
     inkscape:window-y="203"
     inkscape:current-layer="svg6203" />
  <path
     style="fill:#000000"
     d="M 202.92608,300.0421 C 201.54574,299.6882 200.67825,299.1666 199.76373,298.1405 C 198.94456,297.2214 198.00854,295.5242 198.13669,295.1902 C 198.2133,294.9906 198.91865,294.7804 200.21002,294.5724 C 200.73654,294.4876 200.78747,294.5186 201.36112,295.2722 C 202.47237,296.7323 203.53776,297.2286 205.5536,297.2256 C 208.03077,297.2219 209.55677,296.6512 210.98052,295.1962 C 212.14639,294.0047 212.77863,292.6564 213.10586,290.6639 C 213.45517,288.5369 213.41165,288.4889 212.04712,289.4981 C 209.86824,291.1094 208.28411,291.5969 205.61326,291.4782 C 204.20442,291.4155 204.01408,291.3682 202.84964,290.7912 C 200.4763,289.615 198.75876,287.6856 197.92147,285.2549 C 197.54922,284.1742 197.19687,281.8128 197.19687,280.3988 C 197.19687,276.1726 198.24312,272.788 200.19429,270.7022 C 202.56708,268.1656 205.91425,267.4918 210.10503,268.707 C 211.64601,269.1539 212.46318,269.6218 213.51319,270.6587 C 216.09252,273.2058 216.81457,276.423 216.68576,284.7942 C 216.61861,289.1581 216.42129,290.5911 215.52477,293.2255 C 214.46154,296.3497 213.2301,297.9762 211.07501,299.1028 C 209.40684,299.9747 208.60574,300.1601 206.15206,300.2419 C 204.37401,300.3011 203.797,300.2654 202.92608,300.0421 z M 209.2075,287.3565 C 211.26045,286.3908 212.49207,285.1123 213.20178,283.2104 C 213.48983,282.4384 213.53004,282.0334 213.53342,279.8697 L 213.53726,277.4074 L 212.98942,275.9616 C 212.3456,274.2625 211.47743,273.035 210.49998,272.4417 C 208.45922,271.203 205.51499,271.1924 203.37621,272.4161 C 201.38442,273.5557 200.46039,275.6307 200.23952,279.4601 C 200.02719,283.1417 201.52076,286.2522 204.09717,287.4942 C 204.98356,287.9214 205.11138,287.942 206.59819,287.8957 C 208.00337,287.8519 208.27265,287.7963 209.2075,287.3565 z M 61.282602,285.1039 C 60.317352,283.5961 60.038882,283.1472 59.338182,281.9698 C 59.065972,281.5123 58.656782,280.9366 58.428892,280.6904 C 58.200992,280.4442 57.813962,279.9405 57.568812,279.5712 C 56.881692,278.536 55.570852,276.7134 53.490962,273.9015 C 53.203702,273.5131 52.129262,272.148 51.103322,270.8678 C 48.513472,267.6362 46.838192,265.4513 45.476452,263.5292 C 44.365202,261.9607 42.746592,259.4848 42.746592,259.3534 C 42.746592,259.3192 42.554642,259.0025 42.320042,258.6495 C 42.085442,258.2966 41.474222,257.1684 40.961772,256.1425 C 39.415742,253.0473 39.035742,251.5666 38.912872,248.1588 C 38.835122,246.0028 38.859472,245.641 39.163892,244.4282 C 39.739342,242.1356 40.686622,240.367 42.347432,238.4841 C 43.399042,237.2919 44.437762,236.5532 46.136082,235.7898 C 47.190692,235.3158 47.565622,235.2268 48.822172,235.1527 C 51.766152,234.9792 53.300462,235.5851 55.430912,237.7629 C 56.620332,238.9787 56.960122,239.4397 57.541392,240.6263 C 58.169822,241.9091 58.669532,243.4285 59.208892,245.6966 C 59.398622,246.4944 59.418402,246.5173 59.917052,246.5173 L 60.430032,246.5173 L 60.473802,245.3501 C 60.514692,244.26 60.223792,242.058 59.681032,239.3491 C 59.320652,237.5505 57.845732,233.4908 56.402942,230.3262 C 55.154662,227.5882 55.064922,227.3495 55.224022,227.1904 C 55.364592,227.0498 68.671632,226.9529 68.810172,227.0915 C 68.848472,227.1298 68.533762,227.8507 68.110832,228.6935 C 67.052922,230.8016 66.232682,232.95 65.791872,234.7674 C 65.587592,235.6096 65.352612,236.4771 65.269692,236.6952 C 64.983572,237.4478 64.379002,241.7476 64.285332,243.6963 C 64.174662,245.9983 64.239222,246.3802 64.755852,246.4789 C 65.392872,246.6007 65.536002,246.3311 65.643512,244.8069 C 65.865112,241.6652 66.785842,239.6719 68.951052,237.6464 C 71.197082,235.5454 74.327652,234.7714 77.423972,235.5515 C 79.536852,236.0839 81.365802,237.3947 82.938272,239.5037 C 84.026862,240.9636 84.429692,241.8123 84.815402,243.4585 C 85.718372,247.3124 85.447402,251.0931 84.007902,254.7249 C 82.331132,258.9553 80.202802,262.303 74.193272,270.1629 C 71.796822,273.2973 69.853752,275.9158 68.928382,277.2582 C 68.362582,278.0789 67.521012,279.2205 67.058222,279.795 C 66.595432,280.3696 65.490732,281.9141 64.603322,283.2273 C 62.617012,286.1666 62.420682,286.4357 62.261822,286.4357 C 62.192162,286.4357 61.751512,285.8363 61.282602,285.1039 z M 166.74988,285.0072 C 165.36147,282.831 163.94972,280.7307 163.24646,279.795 C 162.87632,279.3026 161.93557,277.9931 161.15591,276.8851 C 160.37626,275.7771 159.46821,274.5348 159.13803,274.1244 C 158.80786,273.714 157.91864,272.5808 157.162,271.6062 C 156.40536,270.6316 155.5464,269.5572 155.2532,269.2186 C 154.96001,268.88 154.52509,268.3344 154.28671,268.0061 C 154.04833,267.6778 153.58245,267.1009 153.25142,266.7241 C 152.74246,266.1447 150.80717,263.5081 149.44229,261.5345 C 147.75288,259.0917 145.34096,254.5181 144.77758,252.6891 C 144.13065,250.5889 143.81295,247.3834 144.06974,245.5474 C 144.23738,244.3488 144.8199,242.4173 145.30737,241.4436 C 145.59119,240.8767 146.71221,239.1403 146.89699,238.9814 C 146.94469,238.9403 147.3358,238.4948 147.7661,237.9913 C 148.61708,236.9956 149.88455,236.1503 151.64666,235.4033 C 153.66029,234.5497 156.53114,234.6249 158.54699,235.5841 C 159.27371,235.9299 159.87425,236.4044 160.94159,237.4762 C 162.15519,238.6949 162.46905,239.1167 163.06052,240.3244 C 163.77831,241.79 164.24073,243.1676 164.66343,245.0996 L 164.90831,246.2189 L 165.49564,246.2189 L 166.08297,246.2189 L 166.03467,244.8012 C 165.97859,243.1552 165.54498,240.1437 165.13224,238.5337 C 164.5225,236.1551 162.99264,232.1993 161.24323,228.4778 C 160.90038,227.7484 160.655,227.0601 160.69795,226.9482 C 160.76231,226.7805 161.98098,226.7447 167.63637,226.7447 C 171.72185,226.7447 174.53152,226.8011 174.58277,226.884 C 174.63012,226.9606 174.43597,227.4474 174.15133,227.9659 C 171.63544,232.5485 169.88827,239.4255 169.88827,244.7456 C 169.88827,245.9504 169.90389,246.0086 170.27293,246.1767 C 170.97973,246.4988 171.1339,246.2292 171.32412,244.3385 C 171.62724,241.3255 172.51555,239.4566 174.5373,237.5783 C 176.49802,235.7568 178.19448,235.1015 180.94924,235.1015 C 184.2046,235.1015 186.75633,236.4751 188.90895,239.3862 C 190.33808,241.319 190.9003,243.0033 191.22481,246.3241 C 191.60329,250.1975 190.50486,254.1828 187.69585,259.128 C 187.29928,259.8262 186.63903,260.8909 186.22866,261.494 C 184.9529,263.369 179.97735,269.995 178.70708,271.5106 C 177.87876,272.4988 178.10243,272.2063 176.30953,274.6467 C 175.49551,275.7547 174.30531,277.3505 173.66463,278.193 C 172.32203,279.9584 170.52519,282.4325 169.41234,284.048 C 168.49556,285.3789 167.7841,286.2864 167.65757,286.2864 C 167.60722,286.2864 167.19876,285.7108 166.74988,285.0072 z M 205.54202,261.8081 C 204.62596,260.2342 203.79434,258.9352 201.91512,256.1425 C 200.74279,254.4003 199.3161,251.7688 198.59804,250.0242 C 198.10475,248.8257 197.92784,246.5053 198.25307,245.4997 C 198.701,244.1146 199.43492,243.1733 200.48449,242.6376 C 202.31454,241.7035 203.51981,242.0716 204.85174,243.9712 C 205.1524,244.4 205.62397,244.4758 205.76147,244.1175 C 206.16409,243.0683 204.9192,239.8172 203.58426,238.4316 C 203.28243,238.1183 203.15926,237.871 203.22271,237.7057 C 203.30985,237.4786 203.62236,237.4613 206.53114,237.5225 C 208.59016,237.5658 209.80258,237.6492 209.9083,237.755 C 210.02873,237.8754 209.88504,238.1292 209.37571,238.6957 C 208.44304,239.7331 207.70546,241.249 207.39166,242.7735 C 207.17647,243.8189 207.16664,244.0648 207.33203,244.2641 C 207.6161,244.6064 207.88815,244.5594 208.19541,244.115 C 209.29071,242.5307 210.18876,242.0204 211.64868,242.1528 C 212.65525,242.244 213.24225,242.5137 214.07813,243.2689 C 214.82003,243.9391 215.08566,244.4423 215.25861,245.505 C 215.55259,247.3112 214.8386,249.9856 213.39473,252.4864 C 212.5165,254.0076 210.58623,256.9899 209.86939,257.9332 C 209.6511,258.2205 208.84895,259.5803 208.08687,260.9551 C 207.32478,262.3298 206.65606,263.4546 206.60083,263.4546 C 206.5456,263.4546 206.06913,262.7137 205.54202,261.8081 z M 61.452242,189.0275 C 61.313042,188.8018 60.917172,188.1807 60.572542,187.6472 C 60.227912,187.1137 59.592662,186.1064 59.160882,185.4088 C 58.729102,184.7111 58.193922,183.9389 57.971602,183.6926 C 57.749282,183.4464 57.170612,182.6849 56.685682,182.0004 C 54.882432,179.455 54.430842,178.8375 53.161082,177.181 C 51.962482,175.6173 51.493962,175.0244 49.462332,172.5006 C 45.397262,167.4508 43.291732,164.2921 40.808042,159.5178 C 39.157972,156.3459 38.727512,154.7799 38.490492,151.0865 C 38.317802,148.3953 39.083372,145.5821 40.615732,143.2771 C 42.982652,139.7168 46.311242,137.8798 49.901132,138.1527 C 51.979232,138.3107 53.479442,139.0032 54.860392,140.442 C 57.091352,142.7663 57.835992,144.2277 58.753932,148.0831 C 58.937112,148.8525 59.171072,149.5144 59.273852,149.5542 C 59.376632,149.5939 59.628452,149.5843 59.833452,149.5328 C 60.194082,149.4423 60.206192,149.3984 60.206192,148.1811 C 60.206192,147.489 60.145912,146.6005 60.072242,146.2066 C 59.998562,145.8127 59.859692,145.0204 59.763632,144.4459 C 59.169912,140.8948 57.957662,137.3036 55.650762,132.2619 C 55.193852,131.2633 54.854642,130.3561 54.896942,130.2459 C 54.959772,130.0822 56.218792,130.0454 61.768392,130.0454 C 66.287332,130.0454 68.562922,130.0964 68.562922,130.1976 C 68.562922,130.2814 68.253012,130.9669 67.874232,131.7211 C 65.531762,136.3852 63.952042,142.7931 63.940052,147.6794 C 63.936062,149.3021 63.990162,149.445 64.608392,149.445 C 65.188102,149.445 65.279922,149.2736 65.279922,148.1918 C 65.279922,146.3974 65.885322,144.2707 66.800382,142.8506 C 68.252382,140.5971 70.524542,138.9603 72.841612,138.4986 C 74.085942,138.2507 76.739422,138.386 77.751032,138.749 C 79.498782,139.3761 80.922612,140.4429 82.359352,142.2018 C 83.618032,143.7427 84.159192,144.8213 84.520812,146.5097 C 85.649892,151.7813 84.963692,155.769 81.917652,161.6371 C 80.467362,164.4311 77.128092,169.2948 73.753732,173.5279 C 71.640092,176.1794 71.193052,176.7594 69.887202,178.5443 C 68.091292,180.999 67.461452,181.8378 66.470112,183.0949 C 66.016702,183.6699 65.373202,184.5432 65.040112,185.0357 C 63.021092,188.0207 61.984582,189.4379 61.820462,189.4379 C 61.757152,189.4379 61.591452,189.2532 61.452242,189.0275 z M 166.94289,188.2237 C 166.71616,187.8842 166.33443,187.2966 166.0946,186.918 C 164.84101,184.9388 163.90633,183.5792 163.09966,182.5615 C 162.60652,181.9394 161.80014,180.866 161.30769,180.1761 C 160.22142,178.6543 158.0415,175.8413 156.91271,174.5048 C 156.45732,173.9655 155.48037,172.7681 154.74169,171.8438 C 154.00302,170.9195 153.0713,169.7826 152.67122,169.3173 C 152.27113,168.8521 151.56116,167.9007 151.09351,167.203 C 150.62585,166.5054 149.93581,165.4981 149.56007,164.9646 C 147.45574,161.9768 144.85468,156.9412 144.30626,154.7933 C 143.83665,152.9541 143.56274,150.4317 143.67686,148.9973 C 143.78257,147.6685 144.39894,145.3487 144.92492,144.2999 C 145.74379,142.6672 147.81197,140.1286 148.92587,139.3891 C 151.19912,137.8797 153.58974,137.2895 156.04488,137.6314 C 157.87478,137.8862 159.09217,138.5383 160.60925,140.0762 C 162.01818,141.5045 162.05581,141.5543 162.84151,143.0337 C 163.44751,144.1747 163.8064,145.2207 164.40125,147.5796 L 164.73993,148.9227 L 165.26222,148.9227 L 165.78452,148.9227 L 165.83484,147.8781 C 165.93643,145.7691 165.12951,141.5384 164.02462,138.387 C 163.05406,135.6187 161.49445,131.9103 160.62725,130.3086 C 160.55008,130.1661 160.48694,129.9143 160.48694,129.749 C 160.48694,129.4522 160.57085,129.4485 167.41721,129.4485 C 171.22885,129.4485 174.38094,129.5027 174.42185,129.5689 C 174.46276,129.635 174.13702,130.3905 173.698,131.2477 C 171.36041,135.8116 169.89357,141.564 169.69438,146.9484 C 169.6367,148.5075 169.78952,148.9973 170.33376,148.9973 C 170.87526,148.9973 171.03222,148.6258 171.13229,147.1073 C 171.31602,144.3191 172.20507,142.3788 174.20543,140.4003 C 175.42511,139.1939 176.84077,138.3872 178.39423,138.0134 C 179.68383,137.7031 182.00848,137.7507 183.32173,138.1144 C 186.68738,139.0464 189.75254,142.331 190.62288,145.9381 C 191.75622,150.6354 191.13709,154.8506 188.55155,160.0402 C 187.48914,162.1727 187.283,162.5264 185.72503,164.89 C 184.32437,167.015 181.14607,171.2332 178.22975,174.8376 C 177.2775,176.0145 175.83726,177.884 175.02919,178.992 C 174.22114,180.1 173.18652,181.4541 172.73003,182.0012 C 172.27355,182.5482 170.96056,184.3099 169.81227,185.916 C 168.66398,187.5221 167.64137,188.8373 167.5398,188.8386 C 167.43824,188.8399 167.16963,188.5632 166.94289,188.2237 z M 54.954202,91.7645 C 54.904642,91.7149 55.228002,90.9088 55.672782,89.9731 C 57.578592,85.9637 58.397322,82.9648 59.093672,77.4428 C 59.308112,75.7423 59.378532,73.0922 59.220242,72.6797 C 59.162412,72.529 58.947632,72.4437 58.626182,72.4437 C 58.034782,72.4437 58.028292,72.462 57.895832,74.5103 C 57.667312,78.0437 55.668532,81.2797 52.783212,82.7876 C 50.174922,84.1507 46.567542,84.1143 44.094292,82.7001 C 42.494172,81.7851 40.403572,79.5171 39.472352,77.6859 C 39.019742,76.7959 38.458112,74.1992 38.297632,72.2546 C 37.747852,65.5927 41.108762,58.7787 51.333722,45.825 C 51.886122,45.1252 54.329162,41.77 54.841402,41.0077 C 54.960452,40.8305 55.662222,39.8841 56.400892,38.9046 C 57.139572,37.9251 58.214002,36.44 58.788532,35.6043 C 60.244292,33.4869 60.946052,32.5323 61.082132,32.4843 C 61.146172,32.4618 61.958892,33.6034 62.888182,35.0212 C 63.817472,36.4391 64.786142,37.8414 65.040782,38.1375 C 65.295422,38.4336 65.936412,39.273 66.465212,40.0028 C 68.599352,42.9483 69.499952,44.1253 70.974292,45.8957 C 73.119632,48.4718 74.208572,49.8061 74.905082,50.7122 C 75.233382,51.1393 75.865882,51.9227 76.310642,52.453 C 76.755402,52.9833 77.340602,53.753 77.611092,54.1633 C 77.881582,54.5737 78.372612,55.2788 78.702282,55.7302 C 79.290262,56.5353 79.828372,57.3732 81.194152,59.6101 C 82.413632,61.6074 83.915752,64.7277 84.291032,66.0431 C 84.787242,67.7823 85.031312,70.0612 84.943792,72.138 C 84.873302,73.8108 84.798492,74.1599 84.034552,76.3813 C 83.462482,78.0448 81.305382,80.9247 79.906992,81.892 C 78.786272,82.6672 76.967912,83.4694 75.916472,83.6525 C 74.625032,83.8774 72.469142,83.7334 71.351022,83.3476 C 69.568372,82.7325 67.356552,80.6679 66.212382,78.5511 C 65.459592,77.1584 65.239902,76.5184 64.346582,73.1152 C 64.159112,72.401 64.128592,72.3691 63.633422,72.3691 L 63.116122,72.3691 L 63.156892,73.936 C 63.197062,75.48 63.417522,77.1119 63.882622,79.3081 C 64.114072,80.4011 65.498462,84.6076 65.724282,84.9042 C 65.786792,84.9862 65.922752,85.322 66.026432,85.6503 C 66.130102,85.9786 66.787472,87.4397 67.487242,88.8972 C 68.187012,90.3546 68.709772,91.597 68.648932,91.6579 C 68.516892,91.7901 55.084362,91.8946 54.954202,91.7645 z M 160.41552,91.2515 C 160.35779,91.1581 160.78302,90.121 161.3605,88.9468 C 163.53309,84.5292 164.95061,78.5278 164.96065,73.7047 C 164.96396,72.1123 164.86492,71.8468 164.26765,71.8468 C 163.82218,71.8468 163.62072,72.2579 163.62072,73.1669 C 163.62072,74.6711 163.10078,76.7448 162.3429,78.2636 C 161.72437,79.503 159.64115,81.5198 158.26574,82.2108 C 155.71972,83.4898 152.46645,83.515 149.96642,82.2752 C 147.97855,81.2893 145.92261,79.156 144.90721,77.0255 C 143.90264,74.9178 143.40022,71.0599 143.75532,68.1805 C 144.27415,63.9737 146.83744,58.7306 151.22826,52.8949 C 153.83227,49.434 154.62021,48.4098 156.45406,46.1017 C 157.56413,44.7046 158.77456,43.1424 159.1439,42.6301 C 159.51323,42.1178 160.36582,40.9777 161.0385,40.0966 C 161.7112,39.2154 163.02068,37.432 163.94844,36.1334 C 166.38649,32.721 166.98869,31.9282 167.14116,31.9305 C 167.26824,31.9323 167.65972,32.495 169.99958,36.0384 C 171.40998,38.1743 175.58565,43.7493 177.13684,45.5674 C 177.38913,45.8631 178.4291,47.1459 179.44787,48.4181 C 180.46665,49.6903 181.68108,51.1874 182.14662,51.7452 C 184.22348,54.2334 188.49554,61.1583 189.62236,63.8631 C 190.66222,66.3592 191.01187,68.4526 190.89358,71.4737 C 190.81807,73.4021 190.45818,75.0422 189.80804,76.4208 C 189.68606,76.6794 189.58627,76.9305 189.58627,76.9787 C 189.58627,77.2088 187.72123,79.6417 186.8789,80.5104 C 186.16695,81.2446 185.57934,81.6686 184.5242,82.2094 C 182.71157,83.1386 181.9347,83.3353 180.11034,83.3269 C 177.27826,83.3139 175.73364,82.6267 173.71367,80.4808 C 172.25971,78.9362 171.31064,77.181 170.69927,74.9059 C 170.47873,74.0852 170.203,73.0671 170.08658,72.6436 C 169.86988,71.8554 169.61087,71.6234 169.12111,71.7788 C 168.87579,71.8567 168.84368,72.0345 168.84368,73.3156 C 168.84368,74.7099 169.32728,78.0205 169.80863,79.9215 C 170.32806,81.9727 172.04432,86.3004 173.5576,89.3748 C 174.11556,90.5083 174.31487,91.0578 174.20715,91.1655 C 173.97743,91.3953 160.55609,91.4789 160.41552,91.2515 z M 20.959402,81.5765 C 20.197702,81.4854 20.194652,81.4251 20.904502,80.4918 C 22.409522,78.5128 23.287212,74.6821 22.235622,74.6821 C 22.113272,74.6821 21.781312,75.0445 21.497942,75.4875 C 21.214562,75.9305 20.776012,76.4151 20.523382,76.5643 C 20.270742,76.7135 20.064042,76.8883 20.064042,76.9527 C 20.064042,77.1609 17.985442,77.0782 17.434612,76.848 C 16.504952,76.4596 15.714852,75.7144 15.304112,74.8387 C 14.962262,74.1099 14.918852,73.8406 14.942032,72.5929 C 14.990172,70.0017 15.843552,67.7572 18.346272,63.6393 C 19.887662,61.1031 21.682442,57.8353 22.259842,56.5137 C 22.483952,56.0007 22.739232,55.581 22.827112,55.581 C 22.915002,55.581 23.347082,56.2022 23.787292,56.9614 C 24.586982,58.3405 26.043802,60.5666 27.620442,62.8185 C 29.544802,65.5671 31.190032,68.7534 31.501592,70.3349 C 32.025792,72.996 31.082112,75.4277 29.144142,76.4097 C 27.705252,77.1389 26.391192,76.8206 25.403472,75.5037 C 24.776052,74.6672 24.625702,74.5751 24.312002,74.8355 C 23.586612,75.4375 24.649352,78.4886 26.281152,80.4888 C 26.643502,80.9329 26.887022,81.347 26.822312,81.4088 C 26.706372,81.5197 21.685162,81.6634 20.959402,81.5765 z M 21.680302,50.3528 C 17.079802,49.5883 14.614042,46.8049 13.885312,41.5536 C 13.690372,40.1489 13.630382,38.6708 13.615772,34.913 C 13.593552,29.1954 14.038932,26.5964 15.594612,23.3653 C 16.486022,21.5139 17.512212,20.4234 19.110942,19.6286 C 20.742162,18.8176 21.916052,18.5724 24.157702,18.5744 C 27.108512,18.5771 28.239372,18.9725 29.647992,20.4939 C 30.423912,21.332 31.405322,22.9851 31.405322,23.454 C 31.405322,23.7227 30.612122,24.0504 29.653742,24.1775 C 28.945082,24.2715 28.874362,24.2506 28.548012,23.8502 C 27.662072,22.7633 26.629352,21.8694 26.085002,21.7183 C 25.266412,21.491 23.284032,21.5237 22.185832,21.7826 C 20.877652,22.091 20.192972,22.4768 19.175312,23.4787 C 18.169072,24.4695 17.534422,25.6729 17.078932,27.4539 C 16.763452,28.6874 16.680852,30.2124 16.929512,30.2124 C 17.011182,30.2124 17.498032,29.8734 18.011412,29.459 C 19.886072,27.9461 21.358162,27.4456 23.869342,27.4675 C 25.672812,27.4832 26.682222,27.8403 28.288522,29.0311 C 29.368432,29.8317 30.810262,31.5184 31.203182,32.4407 C 32.673582,35.8924 32.821742,40.742 31.570542,44.4654 C 30.285592,48.2892 27.609532,50.365 23.869342,50.439 C 23.048592,50.4553 22.063522,50.4165 21.680302,50.3528 z M 24.759482,46.9955 C 27.259172,46.3444 28.585792,44.8263 29.182792,41.9338 C 29.672762,39.5598 29.486502,36.538 28.744162,34.8174 C 27.655062,32.2932 25.843712,30.9585 23.507022,30.9585 C 20.597832,30.9585 17.981392,32.8456 16.925832,35.7051 C 16.595842,36.5991 16.557552,36.9306 16.560542,38.8675 C 16.563382,40.7065 16.615952,41.1988 16.910782,42.1468 C 17.785912,44.9607 18.797222,46.1489 20.937952,46.8786 C 22.119262,47.2813 23.500182,47.3235 24.759482,46.9955 z"
     id="path6214" />
  <g
     id="g3796"
     transform="translate(1.593878e-6,0)">
    <rect
       ry="11.25"
       rx="11.25"
       y="3.4247196"
       x="3.6058116"
       height="311.81104"
       width="223.22835"
       id="rect2382"
       style="fill:none;fill-opacity:1;fill-rule:nonzero;stroke:#000000;stroke-width:0.03543307;stroke-linejoin:round;stroke-miterlimit:4;stroke-dasharray:none;stroke-opacity:1" />
    <g
       transform="translate(3.5433116,3.3622195)"
       id="g3164">
      <path
         style="fill:none;fill-rule:evenodd;stroke:#000000;stroke-width:0.03221492;stroke-linecap:butt;stroke-linejoin:miter;stroke-miterlimit:4;stroke-dasharray:none;stroke-opacity:1"
         d="M 219.74754,0.062511534 L 226.70838,0.062511534"
         id="path3160"
         sodipodi:nodetypes="cc" />
      <path
         sodipodi:nodetypes="cc"
         id="path3162"
         d="M 223.29036,-3.2997195 L 223.29036,3.6063107"
         style="fill:none;fill-rule:evenodd;stroke:#000000;stroke-width:0.03196126;stroke-linecap:butt;stroke-linejoin:miter;stroke-miterlimit:4;stroke-dasharray:none;stroke-opacity:1" />
    </g>
    <g
       transform="matrix(1.0001093,0,0,1,3.519309,315.17275)"
       id="g3168">
      <path
         sodipodi:nodetypes="cc"
         id="path3170"
         d="M 219.74754,0.062511534 L 226.70838,0.062511534"
         style="fill:none;fill-rule:evenodd;stroke:#000000;stroke-width:0.03221492;stroke-linecap:butt;stroke-linejoin:miter;stroke-miterlimit:4;stroke-dasharray:none;stroke-opacity:1" />
      <path
         style="fill:none;fill-rule:evenodd;stroke:#000000;stroke-width:0.03196126;stroke-linecap:butt;stroke-linejoin:miter;stroke-miterlimit:4;stroke-dasharray:none;stroke-opacity:1"
         d="M 223.29036,-3.2997195 L 223.29036,3.6063107"
         id="path3172"
         sodipodi:nodetypes="cc" />
    </g>
    <g
       id="g3174"
       transform="matrix(1.0001093,0,0,1,-219.70906,315.17275)">
      <path
         style="fill:none;fill-rule:evenodd;stroke:#000000;stroke-width:0.03221492;stroke-linecap:butt;stroke-linejoin:miter;stroke-miterlimit:4;stroke-dasharray:none;stroke-opacity:1"
         d="M 219.74754,0.062511534 L 226.70838,0.062511534"
         id="path3176"
         sodipodi:nodetypes="cc" />
      <path
         sodipodi:nodetypes="cc"
         id="path3178"
         d="M 223.29036,-3.2997195 L 223.29036,3.6063107"
         style="fill:none;fill-rule:evenodd;stroke:#000000;stroke-width:0.03196126;stroke-linecap:butt;stroke-linejoin:miter;stroke-miterlimit:4;stroke-dasharray:none;stroke-opacity:1" />
    </g>
    <g
       transform="translate(-219.68504,3.3622195)"
       id="g3180">
      <path
         sodipodi:nodetypes="cc"
         id="path3182"
         d="M 219.74754,0.062511534 L 226.70838,0.062511534"
         style="fill:none;fill-rule:evenodd;stroke:#000000;stroke-width:0.03221492;stroke-linecap:butt;stroke-linejoin:miter;stroke-miterlimit:4;stroke-dasharray:none;stroke-opacity:1" />
      <path
         style="fill:none;fill-rule:evenodd;stroke:#000000;stroke-width:0.03196126;stroke-linecap:butt;stroke-linejoin:miter;stroke-miterlimit:4;stroke-dasharray:none;stroke-opacity:1"
         d="M 223.29036,-3.2997195 L 223.29036,3.6063107"
         id="path3184"
         sodipodi:nodetypes="cc" />
    </g>
  </g>
</svg>
