<?xml version="1.0" encoding="UTF-8" standalone="no"?>
<!-- Created with Inkscape (http://www.inkscape.org/) -->
<svg
   xmlns:dc="http://purl.org/dc/elements/1.1/"
   xmlns:cc="http://creativecommons.org/ns#"
   xmlns:rdf="http://www.w3.org/1999/02/22-rdf-syntax-ns#"
   xmlns:svg="http://www.w3.org/2000/svg"
   xmlns="http://www.w3.org/2000/svg"
   xmlns:sodipodi="http://sodipodi.sourceforge.net/DTD/sodipodi-0.dtd"
   xmlns:inkscape="http://www.inkscape.org/namespaces/inkscape"
   id="svg6296"
   sodipodi:version="0.32"
   inkscape:version="0.46"
   width="230.31497"
   height="318.84155"
   version="1.0"
   sodipodi:docname="7c.svg"
   inkscape:output_extension="org.inkscape.output.svg.inkscape">
  <metadata
     id="metadata6301">
    <rdf:RDF>
      <cc:Work
         rdf:about="">
        <dc:format>image/svg+xml</dc:format>
        <dc:type
           rdf:resource="http://purl.org/dc/dcmitype/StillImage" />
      </cc:Work>
    </rdf:RDF>
  </metadata>
  <defs
     id="defs6299">
    <inkscape:perspective
       sodipodi:type="inkscape:persp3d"
       inkscape:vp_x="0 : 526.18109 : 1"
       inkscape:vp_y="0 : 1000 : 0"
       inkscape:vp_z="744.09448 : 526.18109 : 1"
       inkscape:persp3d-origin="372.04724 : 350.78739 : 1"
       id="perspective6303" />
  </defs>
  <sodipodi:namedview
     inkscape:window-height="667"
     inkscape:window-width="803"
     inkscape:pageshadow="2"
     inkscape:pageopacity="0.0"
     guidetolerance="10.0"
     gridtolerance="10.0"
     objecttolerance="10.0"
     borderopacity="1.0"
     bordercolor="#666666"
     pagecolor="#ffffff"
     id="base"
     showgrid="false"
     inkscape:zoom="1.4489956"
     inkscape:cx="115.15749"
     inkscape:cy="159.42078"
     inkscape:window-x="22"
     inkscape:window-y="29"
     inkscape:current-layer="svg6296" />
  <path
     style="fill:#000000"
     d="M 26.986442,18.65416 L 32.888742,18.73606 L 33.316422,19.24586 C 33.856702,19.88986 34.766012,21.68906 34.766012,22.11416 C 34.766012,22.29116 34.091982,23.48966 33.268202,24.77736 C 31.469452,27.58916 29.688082,31.00636 28.279262,34.34776 C 26.511732,38.53986 24.659442,44.60316 24.039452,48.22626 C 23.907442,48.99776 23.729462,49.71326 23.643952,49.81626 C 23.538792,49.94306 23.041312,50.00366 22.106612,50.00366 C 20.880932,50.00366 20.707072,49.97056 20.568082,49.71086 C 20.481892,49.54986 20.448052,49.26696 20.492862,49.08226 C 20.537682,48.89756 20.635572,48.31376 20.710382,47.78496 C 21.103372,45.00756 22.867772,38.83536 24.367822,34.99056 C 24.812182,33.85166 25.343682,32.48716 25.548962,31.95836 C 26.134732,30.44936 27.679522,27.34856 28.996072,25.03906 C 29.731272,23.74936 30.181962,22.80016 30.153462,22.60136 C 30.082022,22.10326 29.300642,22.03966 23.792032,22.08326 L 18.865462,22.12226 L 18.823382,23.81426 C 18.798192,24.82706 18.711852,25.58986 18.608302,25.71466 C 18.472592,25.87816 18.194802,25.90086 17.319172,25.81986 C 16.705312,25.76296 16.114652,25.64416 16.006602,25.55566 C 15.728162,25.32776 15.814512,19.04896 16.099992,18.76446 C 16.322442,18.54276 17.842522,18.52736 26.986442,18.65416 z M 70.190942,33.07886 C 71.775482,33.32206 72.383772,33.53396 74.310452,34.51406 C 76.880032,35.82116 78.750112,37.97936 80.053322,41.14186 L 80.688012,42.68196 L 80.683232,45.27046 C 80.677652,48.29186 80.379832,49.85466 79.428832,51.85256 C 78.717392,53.34726 78.210202,54.05116 76.551162,55.84646 C 74.918612,57.61306 74.723542,57.90446 74.940992,58.25136 C 75.222762,58.70086 75.685312,58.63136 76.507982,58.01596 C 77.414392,57.33796 79.004962,56.64966 80.692692,56.20526 C 82.230452,55.80026 85.172602,55.76096 86.436842,56.12856 C 88.937792,56.85556 91.342152,58.47886 92.701022,60.35766 C 93.852812,61.95026 94.777842,63.72136 95.041292,64.83866 C 95.358312,66.18316 95.327142,69.02476 94.977542,70.64776 C 93.752462,76.33546 87.949302,80.92176 82.416582,80.57486 C 80.368812,80.44656 77.792862,79.52126 75.969482,78.25926 C 75.324142,77.81256 73.622482,76.08836 72.753622,75.00076 C 72.035512,74.10186 71.183892,72.36496 70.995492,71.41496 C 70.775002,70.30296 70.609252,69.97176 70.273272,69.97176 C 69.767412,69.97176 69.680332,70.39716 69.816522,72.20286 C 69.966202,74.18746 70.409612,76.67656 71.000032,78.84646 C 71.232462,79.70066 71.603232,81.09846 71.823982,81.95266 C 72.251252,83.60596 72.786912,84.95046 73.986212,87.37976 C 74.397852,88.21356 74.682132,88.96536 74.622362,89.06206 C 74.540752,89.19406 73.351202,89.21246 69.764152,89.13706 C 63.557932,89.00656 60.907852,88.91526 60.821472,88.82886 C 60.782862,88.79026 61.089972,88.04266 61.503932,87.16756 C 63.642302,82.64706 64.704142,79.42126 65.606242,74.70496 C 65.947612,72.92016 66.072362,70.34076 65.831342,70.05036 C 65.524702,69.68086 65.104722,69.77256 65.005572,70.23066 C 64.244912,73.74506 62.695972,76.07356 59.866372,77.95626 C 57.448832,79.56486 55.566802,80.17266 52.657562,80.28456 C 50.924752,80.35116 50.489742,80.31876 49.428702,80.04366 C 47.314052,79.49556 45.990592,78.70866 44.102732,76.87726 C 42.906832,75.71706 42.116182,74.55406 41.426912,72.94136 C 40.594122,70.99296 40.323922,69.46076 40.427282,67.27316 C 40.598162,63.65656 42.020172,60.51946 44.472932,58.34806 C 46.871842,56.22436 48.610992,55.59876 52.067142,55.61606 C 54.508642,55.62836 57.524912,56.53006 59.355072,57.79486 C 59.810032,58.10926 59.948102,58.14426 60.131602,57.99196 C 60.543102,57.65046 60.361222,57.22656 59.347052,56.16326 C 57.968172,54.71746 57.527322,54.11686 56.834262,52.73946 C 56.077872,51.23626 55.730392,50.18716 55.318462,48.16276 C 55.044212,46.81516 55.005282,46.28206 55.086192,44.98266 C 55.299262,41.56086 55.959922,39.94496 58.282362,37.16556 C 59.056762,36.23876 60.586852,34.99716 61.833912,34.28356 C 63.085882,33.56716 66.395372,32.82346 68.167862,32.86016 C 68.548392,32.86806 69.458782,32.96646 70.190942,33.07886 z M 167.38959,34.02946 C 169.61299,34.35506 172.34579,35.68066 173.92789,37.20106 C 174.52519,37.77496 175.23569,38.54626 175.50689,38.91506 C 176.13899,39.77446 177.08489,41.67206 177.49529,42.90386 C 177.95669,44.28906 178.04949,46.64816 177.72759,48.80966 C 177.24899,52.02306 176.37169,53.82286 173.92629,56.60806 C 172.97579,57.69066 172.15299,58.71866 172.09779,58.89266 C 172.02949,59.10796 172.08839,59.29996 172.28219,59.49376 C 172.56339,59.77496 172.58009,59.76966 173.57719,59.08686 C 174.64139,58.35826 175.62579,57.91686 177.57509,57.29436 C 178.59529,56.96856 179.02349,56.91676 180.68129,56.91836 C 182.36429,56.91986 182.75879,56.97006 183.84499,57.32056 C 187.38099,58.46156 189.94419,60.95396 191.58239,64.84426 C 191.99059,65.81356 192.03519,66.08746 192.10409,68.04896 C 192.19299,70.57886 191.89169,72.32836 191.05549,74.13696 C 189.58409,77.31976 186.15429,80.32186 183.03919,81.15366 C 180.21809,81.90696 178.18949,81.71486 175.07629,80.39936 C 172.38489,79.26206 169.04619,75.50946 168.35539,72.84506 C 167.85129,70.90076 167.90349,71.00716 167.45299,71.00716 C 167.22089,71.00716 166.99719,71.09526 166.95589,71.20296 C 166.84119,71.50176 167.10979,74.69766 167.37169,76.15066 C 167.60879,77.46636 168.74179,82.25476 169.16449,83.72756 C 169.44059,84.68956 170.49229,87.17586 171.31409,88.80916 C 171.63559,89.44816 171.86309,90.00666 171.81949,90.05016 C 171.70429,90.16536 158.31529,89.88476 158.19559,89.76466 C 158.14009,89.70896 158.32739,89.17656 158.61179,88.58136 C 160.05349,85.56446 160.39379,84.76786 161.01459,82.95636 C 162.68239,78.09006 163.77429,71.80426 163.10309,70.93316 C 162.73149,70.45096 162.39219,70.80986 162.10149,71.99256 C 161.40849,74.81166 159.74879,77.16036 157.31109,78.77146 C 154.73119,80.47676 153.03719,81.04826 150.21139,81.16696 C 146.93709,81.30446 144.62679,80.45696 142.17959,78.22046 C 140.66259,76.83406 139.83139,75.67786 139.09269,73.92616 C 138.20509,71.82176 137.96629,70.49666 138.06699,68.23466 C 138.14229,66.54216 138.22469,66.05756 138.67259,64.67226 C 139.55619,61.93876 140.89429,60.02916 143.03759,58.44236 C 144.35939,57.46376 145.29829,57.01996 146.62699,56.74546 C 149.78599,56.09296 153.66739,56.81286 156.41569,58.56096 C 157.22759,59.07746 157.60439,59.14326 157.73909,58.79236 C 157.89509,58.38556 157.85239,58.31436 156.70249,57.06756 C 155.31179,55.55956 154.89239,54.95786 154.19849,53.47586 C 153.48389,51.94946 153.28729,51.37416 152.94559,49.80956 C 152.61639,48.30176 152.54539,45.77596 152.78369,44.04336 C 153.32859,40.08006 157.25139,35.59026 161.08999,34.53626 C 163.30289,33.92876 165.49649,33.75226 167.38959,34.02946 z M 26.083792,55.18606 C 26.393062,55.26356 27.002842,55.49576 27.438872,55.70206 C 29.942342,56.88646 31.124812,60.28886 29.881922,62.73176 C 29.451482,63.57776 28.325992,65.04386 27.954172,65.24276 C 27.653882,65.40356 27.561822,65.68236 27.809042,65.68236 C 27.887592,65.68236 28.160712,65.47816 28.415982,65.22866 C 28.671252,64.97906 28.968502,64.80886 29.076552,64.85036 C 29.184602,64.89176 29.560452,64.78216 29.911752,64.60666 C 30.391512,64.36696 30.827212,64.28626 31.662012,64.28236 C 32.623592,64.27786 32.905732,64.34216 33.753842,64.75936 C 34.950382,65.34776 35.660442,66.10446 36.094002,67.25306 C 36.379642,68.00976 36.414502,68.33636 36.362052,69.76446 C 36.310532,71.16716 36.244552,71.52306 35.908672,72.20956 C 35.340872,73.37006 34.622892,74.13646 33.635222,74.63626 C 32.856122,75.03046 32.628162,75.07436 31.364032,75.07416 C 29.679032,75.07386 29.164722,74.85346 28.016502,73.63936 C 27.135552,72.70786 26.828602,72.16376 26.499822,70.95076 C 26.368512,70.46626 26.167462,70.03876 26.053072,70.00076 C 25.765452,69.90526 25.927862,71.58046 26.408592,73.66786 C 26.810502,75.41306 26.990342,75.91186 27.781532,77.47546 C 28.189302,78.28146 28.280772,78.58696 28.152622,78.71506 C 27.932662,78.93506 21.340462,78.94016 21.120842,78.72046 C 21.020942,78.62056 21.166742,78.21536 21.564012,77.48876 C 22.925572,74.99856 24.086992,71.47116 23.984112,70.13856 C 23.962952,69.86466 23.524692,70.21516 23.524692,70.50606 C 23.524692,71.02816 22.688252,72.70996 22.107072,73.35636 C 21.143572,74.42806 20.246092,74.77956 18.495682,74.77086 C 16.854042,74.76276 16.314172,74.57426 15.327752,73.66496 C 13.213902,71.71656 13.093212,67.58296 15.097552,65.78096 C 16.253932,64.74126 17.027402,64.42586 18.421732,64.42546 C 19.484342,64.42506 19.723502,64.48166 20.766692,64.97976 C 21.405612,65.28486 22.018612,65.53446 22.128892,65.53446 C 22.239192,65.53446 22.498522,65.71676 22.705182,65.93966 C 22.936612,66.18926 23.080952,66.26456 23.080952,66.13576 C 23.080952,66.02076 22.613232,65.44426 22.041582,64.85466 C 20.318992,63.07816 19.676832,61.12736 20.122822,59.02576 C 20.451342,57.47776 21.556102,56.16836 23.115942,55.47836 C 23.916542,55.12426 25.295552,54.98846 26.083792,55.18606 z M 118.84061,82.19046 C 120.16359,82.42936 122.88309,83.52256 123.83869,84.19976 C 125.52939,85.39766 127.10749,87.28016 127.94019,89.09236 C 128.99779,91.39406 129.06059,91.68846 129.05329,94.30326 C 129.04549,97.05876 128.81959,98.33956 128.00819,100.22836 C 127.23469,102.02896 126.61109,102.88196 124.14689,105.51026 C 123.47029,106.23196 123.35409,106.43716 123.39309,106.84156 C 123.46359,107.57166 123.94119,107.55286 124.96379,106.77966 C 125.94029,106.04136 127.72229,105.29466 129.55129,104.85736 C 131.25429,104.45016 134.02869,104.52906 135.49089,105.02626 C 139.14709,106.26926 141.95699,109.06946 143.40119,112.90896 C 143.96359,114.40406 144.05769,116.82056 143.63819,118.99376 C 143.46659,119.88276 143.27279,120.68146 143.20739,120.76876 C 143.14209,120.85606 142.97349,121.23926 142.83279,121.62026 C 142.29259,123.08296 139.87119,125.85886 138.15649,126.98106 C 135.49319,128.72416 134.39419,129.06636 131.50049,129.05366 C 129.74459,129.04596 129.35369,128.99626 128.26069,128.64226 C 126.66089,128.12396 124.67139,127.08966 123.74979,126.29696 C 123.35119,125.95406 122.49839,125.07156 121.85469,124.33586 C 120.57029,122.86776 119.81199,121.48776 119.45949,119.97656 C 119.19349,118.83616 118.9517,118.53256 118.50147,118.77356 C 118.22989,118.91886 118.18875,119.07266 118.19105,119.93426 C 118.19581,121.71576 118.67783,124.29896 119.78709,128.48786 C 120.65659,131.77116 121.08519,132.93576 122.39399,135.57076 C 122.91919,136.62836 123.29409,137.54886 123.22699,137.61636 C 123.07509,137.76926 109.70021,137.56716 109.44281,137.40806 C 109.29949,137.31946 109.34598,137.12486 109.64071,136.57946 C 109.85259,136.18736 110.337,135.16766 110.71718,134.31356 C 111.09736,133.45936 111.49705,132.57886 111.60538,132.35686 C 112.2383,131.05996 113.62937,126.01866 113.97089,123.78416 C 114.09912,122.94516 114.26852,121.93746 114.34732,121.54486 C 114.58024,120.38426 114.52821,119.15776 114.23045,118.79006 C 113.86886,118.34356 113.48582,118.52836 113.37298,119.20376 C 113.0322,121.24366 111.67165,123.81426 110.17872,125.23916 C 109.21816,126.15586 106.95188,127.57716 105.6533,128.07726 C 103.25236,129.00186 100.03833,129.29426 97.882872,128.78436 C 96.155362,128.37566 94.276862,127.35206 92.890382,126.06406 C 91.334982,124.61906 90.555012,123.54356 89.778782,121.77366 C 88.929042,119.83616 88.734452,118.89466 88.728392,116.69126 C 88.722872,114.68906 88.767082,114.35396 89.233112,112.86626 C 90.015532,110.36846 91.182992,108.56936 93.057032,106.97346 C 95.063532,105.26476 96.595152,104.68156 99.551482,104.50056 C 102.07656,104.34586 104.88139,105.06086 107.18035,106.44516 C 108.12996,107.01706 108.62292,107.05246 108.69391,106.55386 C 108.72737,106.31896 108.35701,105.81946 107.32305,104.70496 C 106.17235,103.46476 105.75095,102.87556 105.07885,101.56726 C 104.17823,99.81426 103.50496,97.49696 103.32492,95.53056 C 103.19018,94.05896 103.46337,91.64736 103.90949,90.37046 C 104.85318,87.66946 107.66392,84.56296 110.42301,83.17166 C 111.01148,82.87496 112.66882,82.40376 114.16507,82.10766 C 115.23436,81.89616 117.42572,81.93496 118.84061,82.19046 z M 69.895122,131.36026 C 70.992092,131.53236 72.349982,132.01076 73.911032,132.77516 C 75.404012,133.50626 77.146502,134.97886 78.172512,136.37656 C 78.777032,137.20006 79.653912,138.92476 80.043642,140.05676 C 81.158992,143.29636 80.363582,148.26706 78.220632,151.44916 C 77.935202,151.87296 77.028232,152.94926 76.205162,153.84076 C 74.688102,155.48416 74.372162,156.02866 74.703852,156.42826 C 74.989272,156.77216 75.256682,156.69716 76.270172,155.98866 C 78.784382,154.23106 82.240512,153.47066 85.499842,153.95786 C 87.609312,154.27316 90.123672,155.65136 91.804592,157.41366 C 93.464342,159.15386 94.896602,161.93336 95.143452,163.89336 C 95.300442,165.13986 95.223252,167.38886 94.980212,168.64936 C 94.399812,171.65936 91.956602,174.89066 88.882662,176.71376 C 85.682972,178.61136 82.606162,178.98816 79.289322,177.88826 C 76.552002,176.98056 74.891042,175.80166 72.809572,173.28906 C 71.649722,171.88896 70.954962,170.58956 70.686522,169.31836 C 70.454732,168.22066 70.314882,168.01166 69.848182,168.06556 C 69.484472,168.10756 69.447332,168.17306 69.402812,168.85096 C 69.302512,170.37806 69.860422,173.69186 70.796282,177.12786 C 71.836742,180.94786 72.086152,181.73406 72.557622,182.68076 C 72.820962,183.20956 73.087322,183.80856 73.149522,184.01196 C 73.211722,184.21536 73.553252,184.88746 73.908472,185.50566 C 74.263702,186.12376 74.554352,186.70616 74.554352,186.79986 C 74.554352,187.00146 72.929242,187.01466 65.649852,186.87216 C 62.908192,186.81856 60.583852,186.72456 60.484632,186.66316 C 60.345842,186.57746 60.355132,186.47206 60.524862,186.20626 C 60.964822,185.51746 62.897752,181.17306 63.326702,179.90886 C 64.621212,176.09386 65.679622,171.22336 65.679622,169.08146 C 65.679622,167.80396 64.757242,167.28986 64.562002,168.45846 C 64.214262,170.54006 62.844302,173.05256 61.256922,174.52006 C 60.532862,175.18946 58.736132,176.37436 57.635962,176.90806 C 54.581412,178.38986 50.433062,178.66096 47.675722,177.55896 C 45.314152,176.61506 43.456102,175.18346 42.007132,173.19126 C 41.126152,171.98006 40.492852,170.57156 39.989032,168.70306 C 39.671052,167.52376 39.638662,167.16096 39.705102,165.52296 C 39.877712,161.26796 41.631552,157.81966 44.814532,155.47716 C 46.740652,154.05966 47.872572,153.69506 50.666552,153.59216 C 52.624032,153.52006 52.833282,153.54056 54.491472,153.96666 C 56.168092,154.39746 57.891962,155.13506 58.690812,155.76346 C 59.133302,156.11146 59.737712,156.14706 59.858592,155.83206 C 59.986892,155.49766 59.621222,154.73616 59.199762,154.45996 C 58.996202,154.32656 58.401312,153.71606 57.877792,153.10326 C 56.103662,151.02646 54.793072,147.66196 54.499822,144.43126 C 54.366042,142.95746 54.786022,140.13786 55.310462,138.98876 C 56.551302,136.27016 58.897772,133.79286 61.486362,132.46856 C 63.470572,131.45346 67.284452,130.95076 69.895122,131.36026 z M 166.01429,131.79716 C 168.91109,132.31946 171.75939,133.81456 173.46089,135.70586 C 176.17019,138.71746 177.18159,142.17556 176.55829,146.29566 C 176.24189,148.38696 175.97939,149.22066 175.11529,150.87966 C 174.43919,152.17766 173.95049,152.81776 171.78479,155.24186 C 170.93059,156.19806 170.75919,156.80846 171.26839,157.08096 C 171.49029,157.19976 171.74879,157.08386 172.60049,156.48386 C 173.83579,155.61346 174.87919,155.16346 176.84689,154.65216 C 180.27339,153.76186 183.63889,154.44866 186.48099,156.61806 C 188.18979,157.92246 189.79909,160.10796 190.69649,162.34286 C 191.14369,163.45656 191.17489,163.65656 191.22689,165.74546 C 191.31509,169.29036 190.82809,171.08266 189.12269,173.48886 C 187.80919,175.34216 186.15859,176.77076 184.07769,177.85566 C 180.78379,179.57286 176.37739,179.31436 172.83139,177.19576 C 170.32549,175.69856 167.42489,171.97726 167.09069,169.83086 C 167.03529,169.47496 166.92319,169.05896 166.84159,168.90646 C 166.66929,168.58456 166.03219,168.53376 165.91749,168.83276 C 165.67299,169.46996 166.50169,174.97496 167.21179,177.42986 C 167.40009,178.08066 167.76929,179.40296 168.03249,180.36816 C 168.52579,182.17806 169.00029,183.33856 170.26169,185.82106 C 170.66389,186.61276 170.99299,187.32826 170.99299,187.41116 C 170.99299,187.58986 169.21679,187.60036 162.21529,187.46346 C 156.66589,187.35486 156.80329,187.38486 157.35139,186.40346 C 158.70529,183.97926 160.58729,178.88566 161.21339,175.95076 C 161.38699,175.13726 161.59579,174.17216 161.67749,173.80606 C 162.14539,171.70866 162.25579,168.93566 161.88609,168.56596 C 161.48169,168.16156 161.17429,168.50306 160.96909,169.58466 C 160.62969,171.37376 159.35149,173.68506 157.99279,174.96656 C 156.43899,176.43206 153.99639,177.79416 151.77829,178.43206 C 150.25539,178.87006 146.68589,178.90076 145.33699,178.48746 C 144.21169,178.14256 142.60019,177.34656 141.72429,176.70286 C 140.84819,176.05896 139.24139,174.38356 138.60609,173.45146 C 137.92289,172.44906 137.16829,170.58246 136.80629,168.99886 C 135.96459,165.31776 137.27869,160.41476 139.82569,157.73346 C 141.57249,155.89456 142.93279,154.99396 144.73859,154.48086 C 145.95349,154.13576 149.12259,154.05276 150.46219,154.33116 C 151.93399,154.63686 153.67529,155.31266 154.90919,156.05686 C 155.97809,156.70146 156.27079,156.77126 156.40779,156.41426 C 156.56669,156.00026 156.51189,155.89806 155.63279,154.97146 C 153.52169,152.74596 152.36649,150.73606 151.66579,148.06936 C 150.99839,145.52926 151.05129,141.80006 151.78249,139.84596 C 152.54149,137.81716 154.87829,134.99266 156.86739,133.69966 C 158.40539,132.69986 158.63229,132.60566 160.56519,132.16496 C 162.47449,131.72956 164.77759,131.57406 166.01429,131.79716 z M 67.473972,228.75016 C 67.511762,228.78786 68.883382,228.82626 70.522012,228.83526 C 72.610202,228.84676 73.541752,228.90366 73.636482,229.02536 C 73.725552,229.13986 73.354262,230.05626 72.547272,231.71356 C 71.395242,234.07956 70.398902,236.78516 69.687652,239.47896 C 69.024882,241.98926 68.505842,245.63646 68.632232,246.89536 C 68.703742,247.60766 68.747272,247.68806 69.061442,247.68806 C 69.372392,247.68806 69.441742,247.56726 69.688572,246.59536 C 70.598782,243.01116 72.956812,240.32886 76.776962,238.53216 C 78.637992,237.65686 80.114202,237.33636 82.245772,237.34486 C 85.691742,237.35846 88.205212,238.46236 90.688222,241.05256 C 91.874432,242.28996 92.525042,243.29556 93.224012,244.97216 C 94.034492,246.91626 94.282792,248.36426 94.175602,250.52186 C 94.007832,253.89886 92.641622,257.08886 90.510162,259.08046 C 88.052012,261.37736 86.114432,262.12556 82.622252,262.12666 C 81.209412,262.12706 80.546102,262.05156 79.417862,261.76196 C 77.977552,261.39236 76.088802,260.60476 75.306262,260.04756 C 74.699312,259.61536 74.258522,259.64336 74.258522,260.11416 C 74.258522,260.36866 74.582602,260.83496 75.289252,261.59706 C 76.710532,263.12986 76.954452,263.47276 77.706352,264.99496 C 78.500772,266.60326 78.752552,267.32376 79.139202,269.09536 C 79.641622,271.39736 79.438342,274.64446 78.673712,276.53096 C 78.168662,277.77706 76.809402,279.77886 75.788242,280.78056 C 73.461992,283.06226 71.293342,284.04296 67.656202,284.45786 C 63.912782,284.88496 59.871062,283.61016 57.358932,281.21016 C 56.085932,279.99386 55.409162,279.13466 54.838442,278.01006 C 53.196782,274.77516 52.960162,272.91186 53.699552,269.04146 C 54.225992,266.28576 55.252132,264.37446 57.481332,261.99736 C 59.186832,260.17866 59.511342,259.73396 59.380892,259.39396 C 59.235142,259.01416 58.768712,259.10646 58.046252,259.65806 C 57.191722,260.31056 55.606252,260.96686 53.694772,261.45926 C 52.309442,261.81616 52.001292,261.84366 50.164492,261.77466 C 48.057772,261.69556 47.206002,261.49776 45.506192,260.69296 C 44.328132,260.13516 42.456012,258.57506 41.596882,257.43526 C 40.643022,256.16976 39.453202,253.87246 39.191552,252.79106 C 38.902422,251.59626 38.923402,248.09756 39.227912,246.72666 C 40.243772,242.15316 44.785262,237.86886 49.409302,237.12196 C 52.019122,236.70046 54.524162,237.21136 57.368392,238.74526 C 58.816312,239.52606 59.717602,240.30606 61.171912,242.03656 C 62.486172,243.60046 63.372792,245.18066 63.595992,246.35686 C 63.804482,247.45576 63.901222,247.63566 64.256312,247.58496 C 64.557672,247.54196 64.569502,247.46886 64.550922,245.76526 C 64.532652,244.09096 64.065622,240.99806 63.601692,239.47896 C 63.514742,239.19426 63.180842,237.92956 62.859682,236.66866 C 62.282942,234.40426 61.665362,232.79366 60.407742,230.27436 C 60.053212,229.56426 59.763142,228.91526 59.763142,228.83226 C 59.763142,228.68266 67.325992,228.60216 67.473972,228.75016 z M 166.00649,229.53426 C 169.19549,229.56476 170.13299,229.61626 170.18979,229.76416 C 170.22999,229.86906 170.02249,230.48366 169.72859,231.13006 C 168.22859,234.42926 167.79479,235.49346 167.31469,237.05096 C 166.80889,238.69176 166.13959,241.38736 165.95899,242.51116 C 165.33079,246.41856 165.24369,247.55246 165.51659,248.27016 C 165.73059,248.83296 166.21159,248.77326 166.33239,248.16876 C 166.51499,247.25476 167.04279,245.76156 167.52179,244.80376 C 168.33929,243.16916 169.21979,242.12416 170.74609,240.97686 C 173.69239,238.76246 176.46089,237.85126 179.63179,238.05246 C 181.35379,238.16166 182.19379,238.38666 183.63949,239.12596 C 184.91169,239.77646 185.42599,240.15436 186.72659,241.39436 C 187.98839,242.59736 188.87709,243.92316 189.56439,245.62806 C 190.37319,247.63406 190.56109,248.78396 190.47899,251.22516 C 190.41729,253.06226 190.35389,253.47226 189.94329,254.69066 C 188.99799,257.49546 188.20729,258.75936 186.38019,260.38636 C 184.69309,261.88866 183.31269,262.55276 181.27289,262.84356 C 178.10409,263.29526 174.52469,262.55216 172.18789,260.95756 C 171.53579,260.51256 171.22979,260.48126 171.09009,260.84526 C 170.98859,261.10986 171.36019,261.78486 171.79629,262.12786 C 172.56739,262.73446 173.99109,264.71686 174.68779,266.15416 C 176.02469,268.91196 176.53749,271.91506 176.18369,274.91466 C 175.99229,276.53776 175.78589,277.25176 175.19919,278.32146 C 173.69999,281.05496 172.36149,282.49236 169.87579,284.03836 C 169.07749,284.53486 166.63259,285.27876 165.08989,285.49446 C 161.19459,286.03926 156.93979,284.61516 154.32409,281.89116 C 152.13209,279.60846 150.72909,276.32236 150.72909,273.47106 C 150.72909,272.10136 151.11879,269.51136 151.49279,268.39576 C 151.91269,267.14336 152.88249,265.26016 153.51139,264.47616 C 153.80509,264.11006 154.55479,263.24476 155.17749,262.55326 C 156.52249,261.05946 156.74069,260.70136 156.48979,260.39906 C 156.22199,260.07636 155.93689,260.13916 155.18619,260.68616 C 154.20479,261.40126 153.12279,261.91576 151.48999,262.44356 C 150.16119,262.87306 149.91139,262.90526 147.84479,262.91386 C 145.78219,262.92236 145.53389,262.89286 144.31639,262.49376 C 142.91899,262.03576 141.28709,261.06556 140.12959,260.00466 C 138.66829,258.66516 137.00539,255.99066 136.46449,254.10996 C 135.95079,252.32366 136.05779,249.16786 136.70439,247.03696 C 137.28799,245.11346 138.80709,242.76786 140.40179,241.32786 C 141.63509,240.21426 143.81429,238.93306 145.25589,238.47416 C 146.37619,238.11756 146.73169,238.07486 148.51039,238.08386 C 150.38389,238.09326 150.59189,238.12416 151.87909,238.58436 C 153.53739,239.17736 155.29709,240.18066 156.43129,241.17996 C 158.30569,242.83136 160.02399,245.39226 160.45089,247.17036 C 160.70579,248.23196 161.11459,248.82486 161.39709,248.54246 C 161.66849,248.27096 161.45129,244.85076 161.03749,242.88096 C 160.69879,241.26866 160.48339,240.42336 159.43519,236.59466 C 158.95859,234.85366 158.24009,233.09806 157.14649,231.00196 C 156.77249,230.28506 156.51229,229.65276 156.56819,229.59676 C 156.67659,229.48836 159.35429,229.47056 166.00649,229.53426 z M 207.77449,239.91726 C 208.60199,239.96096 209.33109,240.04916 209.39479,240.11326 C 209.45859,240.17736 209.23369,240.77636 208.89519,241.44446 C 207.81439,243.57726 207.02129,245.74026 206.76849,247.24426 C 206.48069,248.95736 206.82019,248.97506 207.46769,247.28076 C 208.14599,245.50556 209.65499,244.22216 211.33159,243.99456 C 212.43479,243.84486 214.12279,244.36116 214.97099,245.10776 C 216.24899,246.23276 216.90859,248.46546 216.55439,250.46726 C 216.30949,251.85156 215.99319,252.45136 215.07099,253.28046 C 213.42849,254.75726 211.63359,254.94086 209.52409,253.84786 C 208.87329,253.51076 208.16469,253.09386 207.94939,252.92156 C 207.16179,252.29116 207.27959,252.74296 208.14679,253.67856 C 209.27269,254.89306 209.65669,255.49366 210.04549,256.64796 C 210.77659,258.81816 210.28539,261.15396 208.81249,262.51166 C 207.50709,263.71496 206.12929,264.17416 204.67989,263.88896 C 202.53039,263.46606 201.03979,262.03746 200.48389,259.86756 C 199.97179,257.86856 200.58809,255.86316 202.27039,254.05486 C 203.56459,252.66356 203.30219,252.49526 201.68479,253.67916 C 200.36409,254.64586 198.54259,254.82086 197.09499,254.12006 C 196.08039,253.62896 195.14319,252.58496 194.83979,251.60776 C 194.48609,250.46836 194.49539,248.10876 194.85799,247.00466 C 195.53819,244.93386 197.35069,243.58426 199.42529,243.60366 C 200.78199,243.61636 201.60749,243.99576 202.60079,245.06306 C 203.43029,245.95436 203.91059,246.81916 204.18169,247.90996 C 204.37239,248.67696 204.76249,248.82396 204.83879,248.15766 C 204.89139,247.69856 204.24979,244.42366 203.87749,243.25076 C 203.74829,242.84396 203.40799,241.99256 203.12099,241.35866 C 202.78869,240.62436 202.65079,240.15476 202.74099,240.06456 C 202.91409,239.89146 205.72699,239.80916 207.77449,239.91726 z M 209.15429,269.04666 L 209.81989,269.13536 L 209.78239,270.31706 C 209.74519,271.48936 209.04009,275.16556 208.62889,276.33096 C 208.51109,276.66476 208.41479,277.06786 208.41479,277.22676 C 208.41479,277.60046 207.11029,281.57656 206.25379,283.81346 C 205.88739,284.77056 205.48379,285.85306 205.35689,286.21916 C 204.64649,288.26856 203.35759,291.00056 201.72169,293.92406 C 200.61239,295.90656 200.47719,296.30726 200.82119,296.59306 C 201.18099,296.89196 211.54379,296.97576 211.78779,296.68186 C 211.88369,296.56626 211.97229,295.76296 211.99649,294.78906 L 212.03859,293.09706 L 213.14469,293.05296 C 214.05819,293.01646 214.28349,293.05366 214.43889,293.26616 C 214.71029,293.63716 214.70689,299.66136 214.43519,300.03296 C 214.25479,300.27966 213.76089,300.29236 206.13799,300.24606 L 198.03269,300.19686 L 197.67319,299.75316 C 197.11599,299.06546 196.28599,297.32126 196.28599,296.83816 C 196.28599,296.54716 196.73309,295.68616 197.63899,294.23266 C 198.38309,293.03866 199.04869,292.03956 199.11809,292.01236 C 199.18749,291.98526 199.24419,291.87376 199.24419,291.76456 C 199.24419,291.65536 199.63789,290.77896 200.11899,289.81706 C 202.17189,285.71266 203.44879,282.46446 205.10919,277.12256 C 205.55729,275.68086 206.30769,272.51586 206.56439,270.98426 C 206.91859,268.87096 207.05739,268.76716 209.15429,269.04666 z"
     id="path6307" />
  <g
     id="g3796"
     transform="translate(1.593878e-6,0)">
    <rect
       ry="11.25"
       rx="11.25"
       y="3.4247196"
       x="3.6058116"
       height="311.81104"
       width="223.22835"
       id="rect2382"
       style="fill:none;fill-opacity:1;fill-rule:nonzero;stroke:#000000;stroke-width:0.03543307;stroke-linejoin:round;stroke-miterlimit:4;stroke-dasharray:none;stroke-opacity:1" />
    <g
       transform="translate(3.5433116,3.3622195)"
       id="g3164">
      <path
         style="fill:none;fill-rule:evenodd;stroke:#000000;stroke-width:0.03221492;stroke-linecap:butt;stroke-linejoin:miter;stroke-miterlimit:4;stroke-dasharray:none;stroke-opacity:1"
         d="M 219.74754,0.062511534 L 226.70838,0.062511534"
         id="path3160"
         sodipodi:nodetypes="cc" />
      <path
         sodipodi:nodetypes="cc"
         id="path3162"
         d="M 223.29036,-3.2997195 L 223.29036,3.6063107"
         style="fill:none;fill-rule:evenodd;stroke:#000000;stroke-width:0.03196126;stroke-linecap:butt;stroke-linejoin:miter;stroke-miterlimit:4;stroke-dasharray:none;stroke-opacity:1" />
    </g>
    <g
       transform="matrix(1.0001093,0,0,1,3.519309,315.17275)"
       id="g3168">
      <path
         sodipodi:nodetypes="cc"
         id="path3170"
         d="M 219.74754,0.062511534 L 226.70838,0.062511534"
         style="fill:none;fill-rule:evenodd;stroke:#000000;stroke-width:0.03221492;stroke-linecap:butt;stroke-linejoin:miter;stroke-miterlimit:4;stroke-dasharray:none;stroke-opacity:1" />
      <path
         style="fill:none;fill-rule:evenodd;stroke:#000000;stroke-width:0.03196126;stroke-linecap:butt;stroke-linejoin:miter;stroke-miterlimit:4;stroke-dasharray:none;stroke-opacity:1"
         d="M 223.29036,-3.2997195 L 223.29036,3.6063107"
         id="path3172"
         sodipodi:nodetypes="cc" />
    </g>
    <g
       id="g3174"
       transform="matrix(1.0001093,0,0,1,-219.70906,315.17275)">
      <path
         style="fill:none;fill-rule:evenodd;stroke:#000000;stroke-width:0.03221492;stroke-linecap:butt;stroke-linejoin:miter;stroke-miterlimit:4;stroke-dasharray:none;stroke-opacity:1"
         d="M 219.74754,0.062511534 L 226.70838,0.062511534"
         id="path3176"
         sodipodi:nodetypes="cc" />
      <path
         sodipodi:nodetypes="cc"
         id="path3178"
         d="M 223.29036,-3.2997195 L 223.29036,3.6063107"
         style="fill:none;fill-rule:evenodd;stroke:#000000;stroke-width:0.03196126;stroke-linecap:butt;stroke-linejoin:miter;stroke-miterlimit:4;stroke-dasharray:none;stroke-opacity:1" />
    </g>
    <g
       transform="translate(-219.68504,3.3622195)"
       id="g3180">
      <path
         sodipodi:nodetypes="cc"
         id="path3182"
         d="M 219.74754,0.062511534 L 226.70838,0.062511534"
         style="fill:none;fill-rule:evenodd;stroke:#000000;stroke-width:0.03221492;stroke-linecap:butt;stroke-linejoin:miter;stroke-miterlimit:4;stroke-dasharray:none;stroke-opacity:1" />
      <path
         style="fill:none;fill-rule:evenodd;stroke:#000000;stroke-width:0.03196126;stroke-linecap:butt;stroke-linejoin:miter;stroke-miterlimit:4;stroke-dasharray:none;stroke-opacity:1"
         d="M 223.29036,-3.2997195 L 223.29036,3.6063107"
         id="path3184"
         sodipodi:nodetypes="cc" />
    </g>
  </g>
</svg>
