<?xml version="1.0" encoding="UTF-8" standalone="no"?>
<!-- Created with Inkscape (http://www.inkscape.org/) -->
<svg
   xmlns:dc="http://purl.org/dc/elements/1.1/"
   xmlns:cc="http://creativecommons.org/ns#"
   xmlns:rdf="http://www.w3.org/1999/02/22-rdf-syntax-ns#"
   xmlns:svg="http://www.w3.org/2000/svg"
   xmlns="http://www.w3.org/2000/svg"
   xmlns:sodipodi="http://sodipodi.sourceforge.net/DTD/sodipodi-0.dtd"
   xmlns:inkscape="http://www.inkscape.org/namespaces/inkscape"
   id="svg13432"
   sodipodi:version="0.32"
   inkscape:version="0.46"
   width="230.31497"
   height="318.84155"
   version="1.0"
   sodipodi:docname="7d.svg"
   inkscape:output_extension="org.inkscape.output.svg.inkscape">
  <metadata
     id="metadata13437">
    <rdf:RDF>
      <cc:Work
         rdf:about="">
        <dc:format>image/svg+xml</dc:format>
        <dc:type
           rdf:resource="http://purl.org/dc/dcmitype/StillImage" />
      </cc:Work>
    </rdf:RDF>
  </metadata>
  <defs
     id="defs13435">
    <inkscape:perspective
       sodipodi:type="inkscape:persp3d"
       inkscape:vp_x="0 : 526.18109 : 1"
       inkscape:vp_y="0 : 1000 : 0"
       inkscape:vp_z="744.09448 : 526.18109 : 1"
       inkscape:persp3d-origin="372.04724 : 350.78739 : 1"
       id="perspective13439" />
  </defs>
  <sodipodi:namedview
     inkscape:window-height="667"
     inkscape:window-width="799"
     inkscape:pageshadow="2"
     inkscape:pageopacity="0.0"
     guidetolerance="10.0"
     gridtolerance="10.0"
     objecttolerance="10.0"
     borderopacity="1.0"
     bordercolor="#666666"
     pagecolor="#ffffff"
     id="base"
     showgrid="false"
     inkscape:zoom="1.4489956"
     inkscape:cx="115.15749"
     inkscape:cy="159.42078"
     inkscape:window-x="22"
     inkscape:window-y="29"
     inkscape:current-layer="svg13432" />
  <path
     style="fill:#e00000;fill-opacity:1"
     d="M 199.82806,300.1672 C 199.40897,299.9007 197.98153,297.447 197.98153,296.9931 C 197.98153,296.8557 198.52635,295.8695 199.19222,294.8017 C 201.27644,291.4594 203.98638,285.5848 205.34665,281.4601 C 206.62941,277.5705 207.88657,272.4568 208.25991,269.61 C 208.40955,268.469 208.60125,268.335 210.08358,268.335 C 211.24767,268.335 211.34836,268.3596 211.46692,268.6725 C 211.66655,269.1995 211.06944,272.7605 210.15271,276.5101 C 209.63161,278.6415 208.46838,282.424 207.59251,284.8351 C 207.24787,285.7839 206.8676,286.8408 206.74746,287.1839 C 206.37769,288.2398 205.12027,290.9829 204.28297,292.5602 C 202.21357,296.4585 202.15671,296.6622 203.08157,296.8633 C 203.62952,296.9825 212.01078,296.8833 213.41107,296.7411 L 214.21549,296.6594 L 214.16107,294.8447 L 214.10665,293.0301 L 214.63165,292.8924 C 215.23035,292.7354 216.5578,292.8513 216.78717,293.0807 C 216.98282,293.2763 217.07618,299.5282 216.88794,299.8283 C 216.77526,300.008 215.89751,300.0654 211.90388,300.1542 C 205.36675,300.2997 200.04543,300.3054 199.82806,300.1672 z M 59.969822,285.4726 C 59.545042,284.7508 58.891202,283.6876 58.516842,283.1101 C 58.142482,282.5326 57.621532,281.7226 57.359182,281.3101 C 55.418142,278.2582 54.567012,276.9865 52.891602,274.6351 C 51.401562,272.5438 51.496912,272.6732 49.674832,270.2697 C 46.740962,266.3996 42.000912,261.1914 39.542892,259.137 C 39.068512,258.7406 38.680382,258.3629 38.680382,258.2977 C 38.680382,258.1754 40.005492,256.6375 42.355412,254.0324 C 43.097912,253.2093 44.128282,252.0237 44.645112,251.3978 C 45.161932,250.772 45.904442,249.8932 46.295122,249.4451 C 46.685802,248.9969 47.140442,248.4499 47.305442,248.2294 C 47.698302,247.7046 48.472482,246.7488 49.418892,245.6202 C 49.838782,245.1195 50.533972,244.2373 50.963762,243.6598 C 51.393562,243.0823 51.924042,242.3773 52.142622,242.093 C 52.361202,241.8088 52.941032,240.965 53.431132,240.218 C 53.921232,239.471 54.473492,238.6911 54.658372,238.4848 C 54.843262,238.2786 55.552572,237.1648 56.234632,236.0098 C 56.916692,234.8548 57.757922,233.4373 58.104042,232.8598 C 58.450162,232.2823 59.154442,230.966 59.669122,229.9347 C 60.183792,228.9035 60.671952,227.9922 60.753912,227.9097 C 60.853022,227.81 61.024542,227.9104 61.266002,228.2097 C 61.465682,228.4572 61.629392,228.7036 61.629802,228.7572 C 61.630212,228.8108 61.897852,229.2833 62.224562,229.8072 C 62.551262,230.3311 63.147832,231.3335 63.550282,232.0348 C 65.126672,234.7816 67.852902,239.0122 69.688272,241.5598 C 70.163762,242.2198 71.107132,243.5361 71.784662,244.4848 C 73.956792,247.5266 77.487662,251.616 80.440212,254.5097 C 81.562482,255.6096 82.480702,256.5895 82.480702,256.6872 C 82.480702,256.7849 82.137152,257.235 81.717252,257.6874 C 81.297362,258.1398 80.371702,259.185 79.660242,260.01 C 78.948772,260.835 78.330372,261.5437 78.286002,261.585 C 78.173892,261.6892 76.281442,263.8725 76.142062,264.0585 C 75.438942,264.9963 74.291442,266.4302 73.860122,266.91 C 73.563442,267.24 73.137302,267.794 72.913162,268.141 C 72.689022,268.488 71.690612,269.838 70.694472,271.141 C 67.401022,275.449 64.453212,280.1381 62.203652,284.6476 C 61.617182,285.8233 61.048432,286.7852 60.939752,286.7852 C 60.831072,286.7852 60.394602,286.1945 59.969822,285.4726 z M 169.07813,285.5496 C 168.90805,285.3629 168.4527,284.6701 168.06623,284.0101 C 167.43213,282.9272 165.09543,279.3867 163.22268,276.6713 C 162.29131,275.3209 159.95865,272.1578 158.86576,270.7634 C 158.39303,270.1602 157.6786,269.2489 157.27815,268.7383 C 155.42548,266.3762 149.54713,260.2295 147.84367,258.8732 C 147.12179,258.2984 146.53116,257.7244 146.53116,257.5976 C 146.53116,257.4707 146.85385,257.0166 147.24825,256.5885 C 147.64265,256.1603 148.22875,255.5062 148.55069,255.1349 C 148.87263,254.7637 149.72651,253.8187 150.4482,253.0349 C 152.60106,250.6969 153.53735,249.6342 155.57366,247.2176 C 156.33408,246.3152 157.26758,245.213 157.6481,244.7683 C 158.40688,243.8816 160.55201,241.0523 161.38127,239.8443 C 161.67002,239.4237 162.19963,238.6926 162.55819,238.2197 C 163.26353,237.2893 164.23129,235.8298 164.23129,235.6964 C 164.23129,235.651 164.42503,235.3317 164.66182,234.9868 C 165.49017,233.7804 166.92454,231.2865 167.90735,229.3438 C 168.61414,227.9468 168.97441,227.3847 169.16309,227.3847 C 169.3373,227.3847 169.66922,227.8073 170.13502,228.6222 C 170.9338,230.0197 174.80233,236.1896 175.09614,236.5348 C 175.20148,236.6585 175.88528,237.6373 176.61569,238.7098 C 177.83958,240.5069 178.26155,241.0907 180.19364,243.6598 C 180.5659,244.1548 181.13835,244.9232 181.46574,245.3672 C 181.79313,245.8113 182.63104,246.79 183.32776,247.5422 C 184.02449,248.2944 184.86359,249.2474 185.19246,249.6599 C 185.52132,250.0724 187.01464,251.606 188.51095,253.0679 C 190.00724,254.5298 191.23149,255.8165 191.23149,255.9273 C 191.23149,256.0381 191.021,256.3271 190.76375,256.5694 C 190.02065,257.2693 185.18265,262.7191 184.18143,263.984 C 183.89268,264.3488 183.28035,265.0889 182.8207,265.6287 C 182.36105,266.1684 181.8548,266.8114 181.69569,267.0575 C 181.53659,267.3037 181.30516,267.6108 181.18141,267.7401 C 181.05766,267.8694 180.78766,268.2032 180.58141,268.4818 C 180.37516,268.7605 180.06521,269.1621 179.89265,269.3743 C 179.06599,270.3907 176.38159,274.0655 175.8522,274.9055 C 175.5245,275.4255 175.05262,276.1343 174.80361,276.4805 C 173.94014,277.6811 171.84173,281.284 170.73877,283.4596 C 170.12909,284.6622 169.57562,285.7009 169.50881,285.7677 C 169.44201,285.8345 169.2482,285.7363 169.07813,285.5496 z M 206.86341,262.4959 C 206.68091,262.2491 206.5316,262.01 206.5316,261.9647 C 206.5316,261.9193 206.14582,261.2922 205.67432,260.5711 C 205.20281,259.85 204.74718,259.1445 204.66182,259.0033 C 203.8366,257.6392 200.18356,252.8067 199.23907,251.8298 C 198.87743,251.4557 198.58154,251.0379 198.58154,250.9015 C 198.58154,250.765 199.46365,249.6297 200.5418,248.3787 C 201.61995,247.1276 202.57578,245.9422 202.66589,245.7444 C 202.75599,245.5467 202.88181,245.3849 202.94549,245.3849 C 203.15047,245.3849 204.62283,243.3162 205.85659,241.2947 C 206.5166,240.2134 207.13619,239.3035 207.23347,239.2727 C 207.33076,239.242 208.07326,240.239 208.88348,241.4882 C 211.03151,244.8 213.30102,247.8085 214.88879,249.449 C 215.65487,250.2406 216.28167,250.9665 216.28167,251.0623 C 216.28167,251.1581 215.85728,251.7254 215.33858,252.3232 C 213.03666,254.9758 209.15321,260.2123 207.93469,262.3067 C 207.52433,263.012 207.27722,263.0556 206.86341,262.4959 z M 114.18891,236.7962 C 114.01455,236.5287 113.61393,235.871 113.29864,235.3348 C 112.98336,234.7985 112.55226,234.13 112.34065,233.8491 C 112.12905,233.5682 111.82091,233.1212 111.65591,232.8557 C 110.51586,231.0214 106.96722,225.9253 105.13041,223.4847 C 101.82643,219.0946 100.14933,217.0873 97.304562,214.1179 C 96.588862,213.3708 95.610112,212.3452 95.129542,211.8387 C 94.648972,211.3322 93.766412,210.5362 93.168282,210.0698 C 92.568692,209.6023 92.081562,209.1069 92.082552,208.9657 C 92.083522,208.8248 92.370402,208.405 92.720052,208.0327 C 93.069702,207.6604 93.688752,206.9854 94.095722,206.5327 C 94.502692,206.08 95.346452,205.1641 95.970742,204.4973 C 96.595022,203.8306 97.578312,202.7531 98.155812,202.1027 C 98.733322,201.4524 99.448262,200.6479 99.744582,200.3149 C 100.04089,199.982 100.42215,199.5408 100.59181,199.3345 C 101.16302,198.6401 102.91245,196.5659 103.60336,195.7639 C 103.98032,195.3263 104.49509,194.6748 104.7473,194.316 C 105.19909,193.6735 105.83017,192.8154 107.60976,190.4241 C 108.71585,188.9377 110.39258,186.3936 110.82606,185.5439 C 111.00221,185.1986 111.38912,184.5366 111.68585,184.0727 C 111.98259,183.6089 112.67944,182.3494 113.23443,181.2739 C 113.78941,180.1983 114.35778,179.2489 114.49746,179.1639 C 114.84098,178.9549 115.04115,179.2191 116.82412,182.2344 C 118.69299,185.395 120.0712,187.5744 121.06721,188.9442 C 121.50104,189.5408 122.09649,190.4266 122.39043,190.9125 C 122.68437,191.3984 123.19062,192.1392 123.51544,192.5586 C 123.84025,192.978 124.26158,193.5435 124.45173,193.8153 C 127.34435,197.9501 130.88891,201.947 135.97468,206.8088 C 136.37157,207.1882 136.52308,207.603 136.33241,207.7882 C 136.23535,207.8825 135.67222,208.4951 135.081,209.1496 C 134.48979,209.8041 133.63154,210.7492 133.17377,211.2496 C 131.82218,212.7274 130.47091,214.3058 129.12171,215.9829 C 128.42559,216.8483 127.65895,217.7771 127.41808,218.0469 C 127.17722,218.3168 126.87346,218.6979 126.74308,218.8939 C 126.6127,219.0898 126.22333,219.6123 125.87783,220.0549 C 124.00328,222.4564 121.60552,225.6445 121.40572,226.001 C 121.15851,226.4422 120.41001,227.5392 119.68395,228.5244 C 119.43481,228.8625 119.23097,229.195 119.23097,229.2634 C 119.23097,229.3318 118.93794,229.8314 118.5798,230.3738 C 117.78288,231.5804 117.0955,232.7105 116.79389,233.3098 C 115.64077,235.6009 114.76927,237.1968 114.65002,237.2357 C 114.57077,237.2615 114.36327,237.0637 114.18891,236.7962 z M 59.929302,187.2211 C 59.043822,185.744 55.263622,180.1551 53.605492,177.8716 C 53.110492,177.1898 52.401732,176.2128 52.030482,175.7003 C 51.024272,174.3113 48.180452,170.6747 47.697502,170.1593 C 47.465562,169.9118 46.846762,169.2031 46.322402,168.5843 C 45.798042,167.9655 44.989522,167.0543 44.525702,166.5593 C 42.396702,164.2871 41.691152,163.5304 41.349892,163.153 C 41.147832,162.9295 40.413912,162.2841 39.718952,161.7188 C 39.023992,161.1535 38.455382,160.6168 38.455382,160.5263 C 38.455382,160.3194 41.074222,157.2039 42.588602,155.6092 C 43.539622,154.6077 45.041682,152.8938 46.598152,151.0342 C 46.770782,150.8279 47.508302,149.9504 48.237102,149.0842 C 48.965892,148.2179 49.695672,147.3338 49.858822,147.1195 C 53.832192,141.9006 55.472102,139.5726 56.980832,137.0091 C 57.126502,136.7616 57.607902,135.9477 58.050602,135.2006 C 58.493312,134.4534 59.260532,133.0523 59.755532,132.087 C 60.317302,130.9915 60.733372,130.3464 60.862632,130.3704 C 60.976532,130.3917 61.696992,131.4553 62.463662,132.734 C 63.230332,134.0128 64.115902,135.4851 64.431592,136.0058 C 65.299512,137.4373 66.900442,139.8191 69.693542,143.8341 C 69.837032,144.0404 70.338332,144.7228 70.807562,145.3507 C 71.276782,145.9786 71.938262,146.8899 72.277512,147.3758 C 73.343692,148.9027 77.350752,153.3922 80.043182,156.0765 C 81.466322,157.4953 82.630702,158.7392 82.630702,158.8407 C 82.630702,158.9422 82.175072,159.5309 81.618192,160.1489 C 81.061312,160.7669 80.301932,161.6284 79.930682,162.0633 C 78.763692,163.4303 76.262342,166.4026 76.147042,166.5593 C 76.086322,166.6418 75.496892,167.3658 74.837192,168.1682 C 74.177492,168.9706 73.440882,169.8988 73.200272,170.231 C 72.959672,170.5631 72.164942,171.5866 71.434212,172.5054 C 70.703482,173.4242 69.818862,174.5367 69.468382,174.9777 C 69.117902,175.4186 68.393182,176.4387 67.857882,177.2444 C 67.322572,178.0501 66.563072,179.1918 66.170092,179.7814 C 65.777112,180.3711 65.253072,181.1763 65.005572,181.5708 C 64.758072,181.9653 64.487212,182.3942 64.403662,182.5238 C 63.655032,183.685 62.605692,185.6028 61.833132,187.2219 C 61.449312,188.0263 61.061092,188.6841 60.970412,188.6836 C 60.879732,188.6832 60.411232,188.0251 59.929302,187.2211 z M 168.4005,187.3719 C 168.27547,187.2276 167.91697,186.6369 167.60382,186.0594 C 167.29068,185.4819 166.8594,184.7737 166.64539,184.4855 C 166.4314,184.1974 165.91415,183.4549 165.49598,182.8355 C 162.89766,178.9871 161.53085,177.0308 160.76318,176.0615 C 160.50303,175.7331 160.04629,175.1125 159.74821,174.6826 C 158.97655,173.5695 156.11744,169.9808 154.7218,168.3734 C 152.26875,165.5482 148.28637,161.3613 147.31467,160.5858 C 145.9502,159.4968 145.83934,159.3541 146.10029,159.0229 C 146.4786,158.5427 149.80031,154.8433 150.60845,154.0021 C 151.04721,153.5454 151.77745,152.7429 152.2312,152.2187 C 152.68496,151.6946 153.36423,150.9267 153.7407,150.5124 C 154.77243,149.377 157.93463,145.6913 158.53125,144.9289 C 159.57497,143.595 160.46824,142.4191 161.01524,141.6591 C 161.13399,141.4941 161.64094,140.8053 162.14176,140.1284 C 163.71397,138.0037 165.97573,134.3303 167.84792,130.861 C 168.29254,130.0371 168.75757,129.3452 168.88132,129.3235 C 169.02141,129.2989 169.32728,129.6661 169.69178,130.2965 C 170.01379,130.8534 170.57655,131.7815 170.94237,132.359 C 171.30819,132.9365 171.92315,133.949 172.30895,134.609 C 172.69474,135.2691 173.25234,136.1803 173.54805,136.6341 C 173.84378,137.0878 174.19465,137.6278 174.32776,137.8341 C 174.98571,138.8535 177.38996,142.2774 178.89021,144.3315 C 181.85175,148.3864 183.87591,150.7282 187.89396,154.7479 C 189.4821,156.3367 190.78148,157.7398 190.78148,157.8659 C 190.78148,157.992 190.31654,158.5821 189.74829,159.1772 C 189.18004,159.7723 188.52299,160.4955 188.28819,160.7842 C 188.0534,161.073 187.82552,161.343 187.78181,161.3842 C 187.73809,161.4255 187.197,162.033 186.57938,162.7343 C 185.96177,163.4355 185.42269,164.043 185.38144,164.0843 C 185.34019,164.1255 185.03644,164.492 184.70644,164.8988 C 184.37644,165.3055 183.76893,166.0535 183.35643,166.5609 C 182.94393,167.0683 181.90266,168.3555 181.04253,169.4214 C 180.18238,170.4872 179.43813,171.3931 179.38863,171.4343 C 179.33914,171.4756 179.06413,171.8128 178.77753,172.1838 C 178.4909,172.5548 178.17619,172.9598 178.07816,173.0838 C 177.98013,173.2079 177.6059,173.6806 177.24652,174.1343 C 176.88715,174.5881 176.2586,175.4597 175.84974,176.0712 C 175.44089,176.6828 174.80262,177.623 174.43136,178.1606 C 173.46966,179.5532 172.78723,180.6041 171.7859,182.2344 C 170.77509,183.8802 170.7706,183.8882 169.67115,186.0219 C 169.21416,186.9088 168.79246,187.6344 168.73404,187.6344 C 168.67563,187.6344 168.52552,187.5163 168.4005,187.3719 z M 59.231092,90.9212 C 59.147502,90.7769 58.629082,89.9162 58.079052,89.0087 C 57.529022,88.1012 56.871212,86.9853 56.617252,86.5289 C 55.653552,84.7969 50.890212,77.5133 48.486832,74.0967 C 46.699672,71.5561 43.600542,67.9468 40.648722,64.9685 C 39.318632,63.6265 38.230382,62.422 38.230382,62.292 C 38.230382,62.0871 39.430952,60.6329 41.616082,58.1909 C 42.174442,57.567 43.652812,55.7815 45.348342,53.6835 C 46.851492,51.8235 48.879542,49.2082 50.852782,46.5853 C 51.236312,46.0755 52.073312,44.8821 52.712782,43.9334 C 53.352262,42.9846 53.999102,42.0396 54.150212,41.8334 C 54.575782,41.2525 57.382232,36.5583 57.843712,35.6555 C 58.070212,35.2124 58.519722,34.2949 58.842632,33.6166 C 59.165542,32.9383 59.484102,32.3833 59.550532,32.3833 C 59.667872,32.3833 60.730542,33.9524 60.730542,34.1256 C 60.730542,34.1732 61.113532,34.7962 61.581622,35.5102 C 62.049712,36.2242 63.002412,37.6858 63.698722,38.7584 C 65.071572,40.8729 65.633492,41.6973 66.842162,43.3699 C 67.274772,43.9686 67.958502,44.9309 68.361552,45.5084 C 68.764612,46.0859 69.456902,47.0061 69.899992,47.5532 C 70.343082,48.1003 71.039692,49.0116 71.448022,49.5782 C 71.856342,50.1448 72.639672,51.1147 73.188752,51.7334 C 73.737842,52.3522 74.315012,53.0175 74.471372,53.2119 C 76.017862,55.135 79.696302,58.9461 80.862442,59.8335 C 81.948052,60.6597 82.000002,60.8217 81.385232,61.4642 C 81.098822,61.7636 80.444842,62.5148 79.931962,63.1335 C 79.419082,63.7523 78.584602,64.7024 78.077552,65.2448 C 76.098112,67.3625 75.770642,67.7378 73.309312,70.7086 C 71.806122,72.5229 69.173682,75.8602 68.677432,76.5807 C 68.555422,76.7578 67.818172,77.8041 67.039102,78.9057 C 65.029962,81.7467 63.846622,83.5693 62.914532,85.2587 C 62.686942,85.6712 62.414132,86.1099 62.308302,86.2337 C 62.202472,86.3574 61.625372,87.4037 61.025852,88.5587 C 59.774622,90.9693 59.649632,91.1837 59.495722,91.1837 C 59.433772,91.1837 59.314682,91.0656 59.231092,90.9212 z M 58.558732,68.2371 C 58.411162,68.074 58.228672,67.9788 58.153192,68.0255 C 57.966182,68.141 58.309142,68.5336 58.597142,68.5336 C 58.790692,68.5336 58.784622,68.4867 58.558732,68.2371 z M 167.1479,88.9808 C 166.76371,88.3361 165.9872,87.1 165.42233,86.2337 C 164.85745,85.3674 163.91704,83.9162 163.33253,83.0087 C 161.70416,80.4805 158.92513,76.5265 156.08096,72.6912 C 154.56268,70.6438 152.23425,68.0712 148.90028,64.7575 C 147.26727,63.1344 145.93116,61.7569 145.93116,61.6963 C 145.93116,61.6357 146.42054,61.0403 147.01867,60.3732 C 147.6168,59.706 148.30868,58.926 148.55618,58.6398 C 148.80368,58.3536 149.31719,57.7795 149.69732,57.364 C 150.63233,56.3419 154.39077,51.7286 156.11751,49.4834 C 160.05469,44.3642 161.74865,41.9992 163.19589,39.6011 C 163.57519,38.9726 164.21644,37.9149 164.6209,37.2507 C 165.02537,36.5864 165.8288,35.1188 166.40631,33.9892 C 166.98381,32.8597 167.52627,31.935 167.61177,31.9344 C 167.69729,31.9338 168.14956,32.5577 168.61684,33.3208 C 169.08413,34.0839 169.6022,34.8771 169.7681,35.0833 C 170.06671,35.4545 170.26438,35.7426 172.20254,38.6307 C 172.75045,39.4472 173.47608,40.466 173.81505,40.8949 C 174.15403,41.3237 174.43136,41.7178 174.43136,41.7706 C 174.43136,41.8235 174.89211,42.4498 175.45526,43.1625 C 176.01839,43.8753 176.58401,44.6137 176.71219,44.8035 C 176.84037,44.9933 177.32388,45.6008 177.78666,46.1535 C 178.24946,46.7062 179.08554,47.7416 179.64462,48.4543 C 180.20371,49.167 181.1715,50.3145 181.79526,51.0043 C 182.41904,51.6941 183.19423,52.5603 183.51792,52.9292 C 184.80259,54.3933 188.50507,58.0246 189.30822,58.6082 C 189.77667,58.9486 190.26465,59.3765 190.39262,59.5592 C 190.60774,59.8664 190.60007,59.9223 190.29087,60.3007 C 189.63166,61.1074 186.80269,64.2773 185.88845,65.2335 C 184.10414,67.0999 178.40173,73.9963 177.13138,75.8243 C 176.42173,76.8454 175.27264,78.4672 174.75126,79.1836 C 174.42101,79.6374 173.66478,80.7849 173.07072,81.7337 C 172.47665,82.6824 171.73397,83.8637 171.42032,84.3587 C 171.10665,84.8537 170.27668,86.3387 169.57592,87.6587 C 168.87516,88.9787 168.19934,90.0799 168.07411,90.1058 C 167.92634,90.1363 167.60123,89.7414 167.1479,88.9808 z M 171.30884,39.2509 C 171.20121,39.1432 171.13134,39.1344 171.13134,39.2284 C 171.13134,39.4286 171.30873,39.606 171.40884,39.5059 C 171.45147,39.4632 171.40647,39.3485 171.30884,39.2509 z M 21.768132,78.5551 C 21.446482,78.117 20.835932,77.2524 20.411352,76.6336 C 19.031002,74.622 18.732202,74.2211 17.238672,72.3772 C 16.428492,71.377 15.187542,69.9965 14.480992,69.3096 C 13.003032,67.8726 13.003372,67.8753 14.131672,66.5294 C 14.487102,66.1054 14.907812,65.5437 15.066562,65.2812 C 15.225322,65.0186 15.801382,64.1411 16.346692,63.3311 C 18.001262,60.8736 19.477122,58.4611 20.550952,56.4585 C 20.772142,56.046 21.039032,55.7085 21.144042,55.7085 C 21.323242,55.7085 22.002462,56.5842 22.889232,57.9585 C 24.137512,59.8931 27.309142,63.8618 29.192812,65.8462 C 29.790942,66.4763 30.280322,67.0871 30.280322,67.2036 C 30.280322,67.32 30.089702,67.65 29.856712,67.9369 C 29.067792,68.9084 27.058322,71.6139 26.513122,72.4385 C 26.214922,72.8896 25.636892,73.7649 25.228602,74.3836 C 24.820312,75.0024 24.094272,76.3002 23.615182,77.2678 C 23.136082,78.2353 22.656092,79.1 22.548532,79.1892 C 22.398122,79.3141 22.217902,79.1676 21.768132,78.5551 z M 18.337982,49.8675 C 18.237192,49.6049 18.608072,46.7519 18.943652,45.2084 C 20.272712,39.0955 22.929252,31.3793 25.198762,27.0397 C 25.538612,26.3899 26.179732,25.1653 26.623482,24.3184 C 27.538382,22.5722 27.599612,22.2402 27.045532,22.0295 C 26.440452,21.7995 16.449032,21.8372 16.137082,22.0707 C 15.933162,22.2234 15.879042,22.5788 15.845912,23.9832 L 15.805222,25.7083 L 14.716502,25.7524 C 13.665832,25.7949 13.622642,25.7829 13.480202,25.4082 C 13.396032,25.1869 13.348202,23.6863 13.368902,21.9166 L 13.405202,18.8131 L 14.005202,18.7116 C 14.335212,18.6558 18.059642,18.602 22.281722,18.5922 L 29.958242,18.5743 L 30.333162,19.0662 C 30.833492,19.7228 31.630072,21.4257 31.630212,21.8391 C 31.630332,22.1799 31.340352,22.7164 30.009562,24.8378 C 27.442112,28.9305 24.657492,35.5826 22.926522,41.7584 C 22.741532,42.4184 22.504572,43.2284 22.399942,43.5584 C 22.295312,43.8884 22.031372,45.1034 21.813422,46.2584 C 21.595462,47.4134 21.335712,48.7297 21.236192,49.1834 L 21.055262,50.0084 L 19.740292,50.0518 C 18.675272,50.0869 18.408732,50.0519 18.337982,49.8675 z"
     id="path13443" />
  <g
     id="g3796"
     transform="translate(1.593878e-6,0)">
    <rect
       ry="11.25"
       rx="11.25"
       y="3.4247196"
       x="3.6058116"
       height="311.81104"
       width="223.22835"
       id="rect2382"
       style="fill:none;fill-opacity:1;fill-rule:nonzero;stroke:#000000;stroke-width:0.03543307;stroke-linejoin:round;stroke-miterlimit:4;stroke-dasharray:none;stroke-opacity:1" />
    <g
       transform="translate(3.5433116,3.3622195)"
       id="g3164">
      <path
         style="fill:none;fill-rule:evenodd;stroke:#000000;stroke-width:0.03221492;stroke-linecap:butt;stroke-linejoin:miter;stroke-miterlimit:4;stroke-dasharray:none;stroke-opacity:1"
         d="M 219.74754,0.062511534 L 226.70838,0.062511534"
         id="path3160"
         sodipodi:nodetypes="cc" />
      <path
         sodipodi:nodetypes="cc"
         id="path3162"
         d="M 223.29036,-3.2997195 L 223.29036,3.6063107"
         style="fill:none;fill-rule:evenodd;stroke:#000000;stroke-width:0.03196126;stroke-linecap:butt;stroke-linejoin:miter;stroke-miterlimit:4;stroke-dasharray:none;stroke-opacity:1" />
    </g>
    <g
       transform="matrix(1.0001093,0,0,1,3.519309,315.17275)"
       id="g3168">
      <path
         sodipodi:nodetypes="cc"
         id="path3170"
         d="M 219.74754,0.062511534 L 226.70838,0.062511534"
         style="fill:none;fill-rule:evenodd;stroke:#000000;stroke-width:0.03221492;stroke-linecap:butt;stroke-linejoin:miter;stroke-miterlimit:4;stroke-dasharray:none;stroke-opacity:1" />
      <path
         style="fill:none;fill-rule:evenodd;stroke:#000000;stroke-width:0.03196126;stroke-linecap:butt;stroke-linejoin:miter;stroke-miterlimit:4;stroke-dasharray:none;stroke-opacity:1"
         d="M 223.29036,-3.2997195 L 223.29036,3.6063107"
         id="path3172"
         sodipodi:nodetypes="cc" />
    </g>
    <g
       id="g3174"
       transform="matrix(1.0001093,0,0,1,-219.70906,315.17275)">
      <path
         style="fill:none;fill-rule:evenodd;stroke:#000000;stroke-width:0.03221492;stroke-linecap:butt;stroke-linejoin:miter;stroke-miterlimit:4;stroke-dasharray:none;stroke-opacity:1"
         d="M 219.74754,0.062511534 L 226.70838,0.062511534"
         id="path3176"
         sodipodi:nodetypes="cc" />
      <path
         sodipodi:nodetypes="cc"
         id="path3178"
         d="M 223.29036,-3.2997195 L 223.29036,3.6063107"
         style="fill:none;fill-rule:evenodd;stroke:#000000;stroke-width:0.03196126;stroke-linecap:butt;stroke-linejoin:miter;stroke-miterlimit:4;stroke-dasharray:none;stroke-opacity:1" />
    </g>
    <g
       transform="translate(-219.68504,3.3622195)"
       id="g3180">
      <path
         sodipodi:nodetypes="cc"
         id="path3182"
         d="M 219.74754,0.062511534 L 226.70838,0.062511534"
         style="fill:none;fill-rule:evenodd;stroke:#000000;stroke-width:0.03221492;stroke-linecap:butt;stroke-linejoin:miter;stroke-miterlimit:4;stroke-dasharray:none;stroke-opacity:1" />
      <path
         style="fill:none;fill-rule:evenodd;stroke:#000000;stroke-width:0.03196126;stroke-linecap:butt;stroke-linejoin:miter;stroke-miterlimit:4;stroke-dasharray:none;stroke-opacity:1"
         d="M 223.29036,-3.2997195 L 223.29036,3.6063107"
         id="path3184"
         sodipodi:nodetypes="cc" />
    </g>
  </g>
</svg>
