<?xml version="1.0" encoding="UTF-8" standalone="no"?>
<!-- Created with Inkscape (http://www.inkscape.org/) -->
<svg
   xmlns:dc="http://purl.org/dc/elements/1.1/"
   xmlns:cc="http://creativecommons.org/ns#"
   xmlns:rdf="http://www.w3.org/1999/02/22-rdf-syntax-ns#"
   xmlns:svg="http://www.w3.org/2000/svg"
   xmlns="http://www.w3.org/2000/svg"
   xmlns:sodipodi="http://sodipodi.sourceforge.net/DTD/sodipodi-0.dtd"
   xmlns:inkscape="http://www.inkscape.org/namespaces/inkscape"
   id="svg14034"
   sodipodi:version="0.32"
   inkscape:version="0.46"
   width="230.31497"
   height="318.84155"
   version="1.0"
   sodipodi:docname="7h.svg"
   inkscape:output_extension="org.inkscape.output.svg.inkscape">
  <metadata
     id="metadata14039">
    <rdf:RDF>
      <cc:Work
         rdf:about="">
        <dc:format>image/svg+xml</dc:format>
        <dc:type
           rdf:resource="http://purl.org/dc/dcmitype/StillImage" />
      </cc:Work>
    </rdf:RDF>
  </metadata>
  <defs
     id="defs14037">
    <inkscape:perspective
       sodipodi:type="inkscape:persp3d"
       inkscape:vp_x="0 : 526.18109 : 1"
       inkscape:vp_y="0 : 1000 : 0"
       inkscape:vp_z="744.09448 : 526.18109 : 1"
       inkscape:persp3d-origin="372.04724 : 350.78739 : 1"
       id="perspective14041" />
  </defs>
  <sodipodi:namedview
     inkscape:window-height="667"
     inkscape:window-width="806"
     inkscape:pageshadow="2"
     inkscape:pageopacity="0.0"
     guidetolerance="10.0"
     gridtolerance="10.0"
     objecttolerance="10.0"
     borderopacity="1.0"
     bordercolor="#666666"
     pagecolor="#ffffff"
     id="base"
     showgrid="false"
     inkscape:zoom="1.4489956"
     inkscape:cx="115.15749"
     inkscape:cy="159.42078"
     inkscape:window-x="88"
     inkscape:window-y="116"
     inkscape:current-layer="svg14034" />
  <path
     style="fill:#e00000;fill-opacity:1"
     d="M 30.217662,18.6284 C 30.395832,18.6617 30.735832,19.0378 31.037602,19.5355 C 32.280882,21.5859 32.328262,21.9668 31.497572,23.2336 C 29.891372,25.683 29.498792,26.3653 28.117292,29.1082 C 25.268852,34.7637 22.487652,43.1848 21.629352,48.7529 C 21.537432,49.3492 21.363122,49.9362 21.242002,50.0573 C 20.962612,50.3367 18.660852,50.37 18.389452,50.0986 C 18.154262,49.8635 18.163952,49.2702 18.426732,47.8177 C 19.027342,44.498 20.718072,38.0736 21.408532,36.4877 C 21.694232,35.8314 22.981102,32.3016 22.981102,32.1742 C 22.981102,31.7778 25.319732,26.9207 26.528762,24.8061 C 27.199042,23.6338 27.501672,22.9458 27.512452,22.5699 L 27.528032,22.027 L 22.138442,21.9878 C 18.668852,21.9627 16.603462,22.004 16.340712,22.1039 L 15.932542,22.2591 L 16.009522,23.8834 C 16.059812,24.9441 16.030862,25.5633 15.926092,25.668 C 15.703812,25.8903 13.546192,25.875 13.320742,25.6496 C 13.192352,25.5212 13.141842,24.5367 13.141842,22.1622 C 13.141842,19.1592 13.165942,18.8418 13.402732,18.7259 C 13.652682,18.6035 29.589832,18.5111 30.217662,18.6284 z M 180.6666,32.096 C 184.87387,32.6201 188.86291,36.2342 190.36805,40.8855 C 191.1599,43.3326 191.40673,46.0281 191.07792,48.6377 C 190.71309,51.533 190.60924,52.0443 190.0413,53.7419 C 189.0125,56.8168 187.5065,59.8774 185.97892,61.9976 C 185.51321,62.6441 184.92484,63.5096 184.67143,63.9212 C 184.41803,64.3327 183.60692,65.5304 182.86897,66.5828 C 181.32389,68.7862 181.44896,68.6018 180.37875,70.2542 C 179.92735,70.9512 179.33025,71.802 179.05185,72.1449 C 178.43633,72.9031 175.62585,76.7817 174.21065,78.8261 C 172.17251,81.7703 169.73793,85.7881 168.813,87.7338 C 168.45425,88.4885 168.10184,89.0382 167.97684,89.0382 C 167.858,89.0382 167.57102,88.7317 167.33911,88.357 C 165.43791,85.2854 161.37405,79.2616 159.2114,76.3095 C 157.43435,73.8837 157.00072,73.2858 155.1987,70.776 C 154.12266,69.2773 152.13821,66.4181 151.86042,65.9661 C 151.77842,65.8327 151.65626,65.6528 151.58894,65.5663 C 150.92153,64.7091 148.18979,59.5416 146.93486,56.7625 C 146.82379,56.5165 146.5631,55.9367 146.35554,55.4741 C 145.69534,54.0024 144.93548,50.9315 144.74965,48.984 C 144.41654,45.4929 145.04078,41.2358 146.23232,38.8729 C 146.63081,38.0827 147.43503,36.8422 147.63974,36.7021 C 147.70702,36.656 147.9127,36.415 148.09682,36.1665 C 149.06548,34.859 151.55635,33.2604 153.79845,32.5073 C 156.678,31.5401 159.87555,32.0446 162.63244,33.9012 C 163.35648,34.3888 164.28005,35.3392 165.07499,36.4146 C 165.63264,37.169 166.73438,39.5398 167.29122,41.1837 C 167.5551,41.9626 167.83941,42.6846 167.92305,42.7881 C 168.12932,43.0434 168.48273,42.7484 168.48298,42.3208 C 168.4834,41.635 169.24772,38.9003 169.67623,38.0514 C 171.18849,35.0556 172.9967,33.3676 175.64004,32.4839 C 176.93973,32.0493 179.00973,31.8896 180.6666,32.096 z M 74.292772,32.5451 C 78.803172,33.0636 82.841082,36.4452 84.428932,41.0339 C 85.408382,43.8644 85.620842,46.4625 85.159702,49.9707 C 84.829582,52.4821 84.698702,52.9969 83.739082,55.5587 C 82.762712,58.1652 80.804622,61.7878 79.654342,63.1158 C 79.485062,63.3112 78.924272,64.1245 78.408122,64.9231 C 77.163822,66.8483 74.255802,71.1095 73.294682,72.4159 C 72.872412,72.9898 71.929082,74.2644 71.198382,75.2484 C 69.914552,76.9771 69.486262,77.5885 67.685562,80.2631 C 65.996082,82.7723 63.800452,86.4514 63.013962,88.091 C 62.654242,88.8409 62.289442,89.498 62.203302,89.5512 C 62.117172,89.6044 61.873322,89.3934 61.661422,89.0822 C 61.260002,88.4928 59.839242,86.2991 59.580142,85.8687 C 59.498152,85.7325 58.458322,84.2421 57.269412,82.5568 C 56.080502,80.8714 54.671702,78.867 54.138742,78.1024 C 53.231892,76.8014 52.724582,76.1232 51.958642,75.1878 C 51.513252,74.6439 48.958132,71.1938 48.289692,70.2338 C 47.983492,69.7941 47.206362,68.6931 46.562742,67.7871 C 45.919102,66.8812 45.155572,65.7407 44.866002,65.2528 C 44.576442,64.7648 44.050572,63.896 43.697412,63.322 C 43.114732,62.375 40.776292,57.6786 39.994302,55.8848 C 39.463122,54.6664 38.648222,51.3364 38.475822,49.6798 C 38.089652,45.9689 38.772282,41.6719 40.153612,39.1187 C 41.179252,37.2229 43.036032,35.3514 44.932492,34.3018 C 47.151052,33.0739 48.503952,32.6861 50.569982,32.6861 C 52.316082,32.6861 53.583002,32.9914 55.195732,33.8008 C 57.258622,34.8361 58.161672,35.6913 59.449892,37.8294 C 60.087052,38.8869 61.120472,41.3598 61.367132,42.4172 C 61.482222,42.9105 61.651652,43.3882 61.743662,43.4788 C 62.005482,43.7366 62.283412,43.2379 62.391762,42.316 C 62.669942,39.9492 64.411832,36.4255 65.990572,35.036 C 66.561322,34.5337 68.231182,33.4922 68.897612,33.2228 C 70.121942,32.7281 70.222572,32.6985 70.941462,32.6229 C 72.540432,32.4547 73.343852,32.4361 74.292772,32.5451 z M 28.249772,55.3741 C 30.298252,55.6421 31.887772,57.1088 32.458302,59.2575 C 32.787972,60.4991 32.751142,62.6635 32.375142,64.1419 C 32.079372,65.305 30.636052,68.4932 29.810532,69.807 C 29.630202,70.0939 28.683932,71.6034 27.707712,73.1613 C 26.731482,74.7191 25.812732,76.1655 25.666052,76.3754 C 25.519362,76.5853 24.978832,77.5777 24.464862,78.5807 C 23.795732,79.8866 23.462952,80.3916 23.293002,80.3593 C 23.162452,80.3345 22.861692,79.9459 22.624652,79.4957 C 22.045792,78.3964 20.043682,75.0674 19.605522,74.4756 C 19.412242,74.2146 19.254112,73.9685 19.254112,73.9286 C 19.254112,73.84 17.786872,71.4359 17.078312,70.3635 C 16.794772,69.9344 16.028672,68.528 15.375852,67.2381 C 13.935532,64.3923 13.539862,63.0452 13.525022,60.9367 C 13.515662,59.6041 13.558822,59.351 13.931862,58.5515 C 14.805602,56.6787 15.528132,55.9973 17.187332,55.4814 C 18.771732,54.9888 20.429542,55.3463 21.465852,56.404 C 22.097192,57.0484 22.380282,57.5835 22.672972,58.686 C 22.801442,59.1699 22.973652,59.5622 23.055642,59.5578 C 23.137632,59.5534 23.284242,59.2751 23.381422,58.9394 C 23.784912,57.5458 24.748472,56.223 25.757572,55.6773 C 26.322822,55.3716 27.311712,55.2513 28.249772,55.3741 z M 128.2897,81.1379 C 129.80713,81.3264 132.00058,82.2203 133.22546,83.1494 C 133.93894,83.6905 135.70942,85.487 136.3201,86.2894 C 136.9613,87.132 138.07685,89.6958 138.42427,91.1254 C 138.74935,92.463 138.95857,94.0088 138.96208,95.0991 C 138.96519,96.0671 138.61111,99.3818 138.36333,100.7042 C 137.85802,103.4011 135.45297,108.8758 133.66952,111.389 C 133.17931,112.0798 132.37571,113.2642 131.88375,114.0209 C 131.39178,114.7777 130.30685,116.4263 129.47277,117.6846 C 128.08309,119.781 127.47107,120.6537 125.77148,122.9628 C 124.47427,124.7251 124.18273,125.1462 122.25374,128.0432 C 119.15854,132.6917 118.14024,134.3755 116.87906,136.9301 C 116.44391,137.8115 116.01025,138.5327 115.91539,138.5327 C 115.74054,138.5327 115.39466,138.0789 114.94888,137.2647 C 114.81397,137.0183 114.24209,136.1199 113.67804,135.2683 C 113.11398,134.4167 112.24996,133.1049 111.758,132.3533 C 111.26604,131.6016 110.35866,130.2862 109.74161,129.43 C 109.12456,128.5739 108.35307,127.4799 108.02719,126.9989 C 107.24945,125.8509 107.10193,125.6482 105.33936,123.306 C 104.5149,122.2104 103.62636,121.0121 103.36483,120.6431 C 103.1033,120.2741 102.50801,119.4356 102.04196,118.7796 C 98.672352,114.037 96.932582,111.0765 95.208492,107.1514 C 94.740292,106.0855 94.198972,104.8636 94.005552,104.4362 C 93.812132,104.0087 93.556002,103.2373 93.436382,102.7218 C 93.316742,102.2063 93.151292,101.607 93.068692,101.39 C 92.304312,99.3817 92.246962,93.771 92.962252,90.9763 C 94.146972,86.3473 97.207122,83.1338 101.91874,81.5707 C 103.15931,81.1592 105.56907,81.151 106.91291,81.5537 C 109.12716,82.2172 110.85539,83.3157 112.13687,84.8739 C 113.15522,86.1122 114.60997,88.9431 115.04296,90.529 C 115.18847,91.062 115.36659,91.6155 115.43877,91.7589 C 115.68654,92.2514 115.97221,92.0417 116.14944,91.2372 C 116.24426,90.8067 116.42491,89.9849 116.55088,89.4109 C 116.83654,88.1094 117.86218,85.9892 118.823,84.7142 C 119.90718,83.2753 121.60758,82.0984 123.58513,81.418 C 124.5358,81.091 126.81757,80.9551 128.2897,81.1379 z M 180.63278,130.4758 C 183.16996,130.782 185.48322,131.9711 187.35847,133.9333 C 189.40902,136.0789 190.35994,137.8781 191.01049,140.8434 C 191.45517,142.8702 191.51824,144.8136 191.22339,147.4029 C 190.9042,150.2061 190.80563,150.7142 190.31235,152.0989 C 190.09328,152.7139 189.79622,153.5524 189.6522,153.9624 C 188.93064,156.0164 187.19529,159.4864 186.37075,160.5239 C 186.12074,160.8385 185.56599,161.6565 185.13798,162.3416 C 184.04639,164.0888 183.73225,164.569 182.75446,165.9851 C 182.28152,166.6701 181.58511,167.7001 181.20688,168.2741 C 180.54164,169.2836 178.93592,171.5448 177.31118,173.7601 C 176.87818,174.3505 176.11429,175.4373 175.61364,176.1753 C 175.113,176.9132 174.42027,177.9195 174.07426,178.4115 C 173.72824,178.9034 173.16629,179.7755 172.82546,180.3495 C 172.48464,180.9235 171.82921,181.9968 171.36897,182.7348 C 170.90873,183.4727 170.08784,184.9458 169.54476,186.0083 C 169.00167,187.0708 168.49024,187.959 168.40825,187.9821 C 168.32625,188.0052 168.01697,187.6055 167.72096,187.0939 C 167.23961,186.2619 166.11087,184.4656 164.60672,182.1377 C 164.31974,181.6936 163.58215,180.6064 162.96763,179.7218 C 161.80087,178.0421 160.40812,176.0006 159.73457,174.9826 C 159.51755,174.6547 158.99723,173.9503 158.57831,173.4173 C 158.15938,172.8843 157.71756,172.3038 157.59649,172.1272 C 157.47542,171.9506 156.91066,171.1455 156.34146,170.3382 C 155.77226,169.5309 154.82787,168.166 154.2428,167.305 C 153.65773,166.4441 152.95954,165.4182 152.69127,165.0253 C 152.423,164.6324 151.95297,163.8609 151.64675,163.3109 C 151.34054,162.7609 150.75563,161.7355 150.34697,161.0322 C 149.9383,160.3289 149.28496,159.0207 148.89509,158.1251 C 148.50522,157.2295 148.06312,156.2284 147.91265,155.9004 C 147.26689,154.4929 146.59253,152.6957 146.34637,151.7262 C 146.20064,151.1523 145.99714,150.4143 145.89414,150.0863 C 145.29672,148.1839 145.26185,143.6858 145.82215,140.7981 C 146.69095,136.3203 149.44594,132.9597 153.64937,131.2502 C 156.58732,130.0554 159.5299,130.2692 162.32319,131.8804 C 164.24606,132.9895 165.52177,134.4895 166.75077,137.0863 C 167.13098,137.8897 167.61796,139.1811 167.83296,139.9561 C 168.14177,141.0692 168.28026,141.3652 168.49236,141.3652 C 168.77771,141.3652 168.85583,141.1972 169.01239,140.2471 C 169.35337,138.1778 170.28042,135.8339 171.10881,134.9466 C 171.30437,134.7371 171.46438,134.5182 171.46438,134.4601 C 171.46438,134.1555 172.54779,132.954 173.35311,132.3655 C 174.42688,131.5808 175.12955,131.2099 176.16039,130.8837 C 176.82507,130.6734 177.32075,130.5978 179.21652,130.4175 C 179.5035,130.3903 180.14081,130.4165 180.63278,130.4758 z M 75.045712,131.384 C 77.374902,131.6553 79.654912,132.7994 81.612192,134.6792 C 85.224752,138.1487 86.533952,143.1921 85.514962,149.7136 C 85.171262,151.9133 84.018392,155.2536 82.660322,157.9848 C 82.090292,159.1311 80.442082,161.7368 77.943642,165.4415 C 74.150292,171.0664 73.074262,172.5969 70.869182,175.5044 C 70.499152,175.9923 67.686572,180.2106 67.319082,180.8289 C 67.162352,181.0925 66.554672,182.0988 65.968672,183.0651 C 65.382652,184.0313 64.493262,185.6437 63.992202,186.6481 C 63.491162,187.6525 63.017792,188.4743 62.940252,188.4743 C 62.776352,188.4743 62.837412,188.5599 60.651582,185.2691 C 58.619922,182.2105 56.310252,178.906 55.441592,177.8151 C 55.376312,177.7332 54.927472,177.1294 54.444192,176.4734 C 53.960902,175.8175 53.241642,174.8641 52.845832,174.3547 C 52.002732,173.2698 48.253552,168.234 47.583532,167.2865 C 46.527462,165.7931 45.343042,164.0311 45.343042,163.9535 C 45.343042,163.9077 45.160782,163.5865 44.938012,163.2397 C 44.222682,162.1259 44.016682,161.7515 42.991822,159.702 C 41.441362,156.6014 40.584752,154.6701 40.214702,153.4406 C 40.078972,152.9897 39.894792,152.3928 39.805422,152.1144 C 39.215152,150.2751 39.089972,149.0706 39.137532,145.6885 C 39.183802,142.399 39.193942,142.3043 39.662562,140.7853 C 40.222352,138.9709 40.500352,138.3892 41.504262,136.9315 C 43.366872,134.2269 46.631182,132.1589 49.818162,131.6645 C 52.932942,131.1812 56.812212,132.7315 58.845672,135.2723 C 59.331632,135.8795 59.824582,136.5428 59.941102,136.7464 C 60.654762,137.9928 61.505962,139.9226 61.787522,140.9324 C 62.094912,142.0347 62.377582,142.4289 62.658942,142.1476 C 62.725962,142.0805 62.874882,141.4913 62.989862,140.8382 C 63.317232,138.9787 63.627402,138.0898 64.448732,136.6574 C 65.413202,134.9753 66.316532,133.9169 67.521662,133.0569 C 68.868212,132.0961 70.310062,131.5476 71.941202,131.3757 C 73.448132,131.2168 73.614442,131.2173 75.045712,131.384 z M 169.37284,229.4328 C 169.54795,229.6589 170.22209,230.6825 170.87095,231.7074 C 171.51981,232.7323 172.17035,233.7377 172.31659,233.9416 C 172.46283,234.1455 173.12246,235.1183 173.78243,236.1033 C 174.44241,237.0883 175.61183,238.8334 176.38116,239.9813 C 177.15049,241.1293 178.18335,242.6051 178.67642,243.2611 C 179.1695,243.917 179.89965,244.9233 180.29899,245.4973 C 181.3996,247.0792 183.42739,250.0589 183.76345,250.5882 C 183.92744,250.8465 184.39908,251.5509 184.81152,252.1536 C 185.22398,252.7563 185.75262,253.6366 185.98629,254.1098 C 186.21994,254.583 186.47521,255.0098 186.55353,255.0582 C 186.63186,255.1066 187.12476,256.0381 187.64887,257.1281 C 188.17299,258.2182 188.68783,259.2002 188.79298,259.3104 C 188.89811,259.4206 189.05993,259.7791 189.15256,260.1071 C 189.2452,260.4351 189.61775,261.3743 189.98046,262.1942 C 190.59525,263.584 191.1229,265.2735 191.61,267.412 C 191.91177,268.7368 191.87569,274.1922 191.55475,275.7655 C 191.01174,278.4276 190.0588,280.2967 188.29426,282.1609 C 187.08995,283.4331 186.70913,283.7132 184.84259,284.6997 C 180.98994,286.7359 177.47269,286.4864 173.77771,283.9149 C 172.90283,283.306 171.56956,281.6432 170.97151,280.415 C 169.93453,278.2854 169.86856,278.1059 169.13415,275.4146 C 169.10441,275.3056 168.93049,275.2391 168.74435,275.2655 C 168.46132,275.3057 168.39434,275.4309 168.32008,276.0586 C 168.0245,278.5573 166.73556,281.2953 165.00993,283.0901 C 162.77759,285.412 159.50311,286.3767 155.87884,285.7803 C 154.47364,285.549 152.46547,284.7589 151.48772,284.0525 C 150.64375,283.4428 149.11908,281.9395 148.39861,281.0067 C 147.68979,280.089 146.70511,278.2047 146.42812,277.2361 C 145.70811,274.7181 145.4369,271.2559 145.7987,269.201 C 145.88532,268.709 146.03625,267.7698 146.1341,267.1138 C 146.43379,265.1049 148.35728,260.281 149.81322,257.8869 C 150.11775,257.3861 150.40454,256.9429 150.45052,256.9019 C 150.49651,256.8609 150.73661,256.5255 150.98409,256.1565 C 151.23156,255.7875 151.82185,254.9154 152.29584,254.2184 C 152.76983,253.5215 153.24582,252.7836 153.35358,252.5786 C 153.46135,252.3736 153.67262,252.0692 153.82307,251.9021 C 154.18885,251.4959 154.59975,250.9123 155.99511,248.8172 C 156.97226,247.3501 158.23735,245.5565 158.75745,244.901 C 160.47018,242.7423 163.84452,237.8081 165.79209,234.6145 C 166.04212,234.2045 166.33051,233.7375 166.43299,233.5766 C 166.96291,232.7446 167.3802,231.9895 168.04503,230.6593 C 168.44834,229.8525 168.84044,229.1539 168.91639,229.107 C 168.99234,229.06 169.19774,229.2066 169.37284,229.4328 z M 173.98259,249.4566 C 174.17869,249.6199 174.37273,249.7199 174.4138,249.6789 C 174.54165,249.551 174.12405,249.1495 173.86868,249.1547 C 173.681,249.1585 173.70681,249.2269 173.98259,249.4566 z M 63.581262,231.0644 C 64.833842,232.9675 67.126172,236.3161 68.971062,238.9378 C 69.778862,240.0857 70.722892,241.4274 71.068922,241.9194 C 71.414932,242.4113 71.822652,242.9573 71.974972,243.1326 C 72.127282,243.3079 72.468662,243.744 72.733572,244.1016 C 74.867812,246.9829 76.200872,248.8261 76.977632,249.9697 C 77.478852,250.7076 78.102882,251.5797 78.364382,251.9077 C 79.870302,253.7965 83.752642,261.1016 84.821502,264.0577 C 86.257702,268.0297 86.647532,271.3597 86.110702,275.0705 C 85.699212,277.9148 84.936382,279.8313 83.458322,281.7342 C 81.974772,283.6442 79.564452,285.2634 77.003542,286.0703 C 74.192422,286.956 70.800612,286.4015 68.235892,284.637 C 67.360212,284.0345 67.020282,283.7075 66.151952,282.6326 C 65.399062,281.7005 63.942902,278.9072 63.668942,277.8696 C 63.256582,276.3076 63.048912,275.835 62.774952,275.835 C 62.573412,275.835 62.476882,275.9832 62.410852,276.394 C 61.979882,279.0755 61.131692,281.2277 59.839172,282.9195 C 58.705932,284.4028 56.773022,285.734 54.929552,286.3006 C 53.523672,286.7328 50.195852,286.7603 48.771872,286.3516 C 46.055952,285.5721 43.923862,284.0837 42.142182,281.7236 C 40.449612,279.4816 39.669222,277.1471 39.314592,273.265 C 39.211642,272.1381 39.684202,267.9504 40.067612,266.5921 C 40.418902,265.3474 41.698512,261.9879 42.129002,261.18 C 42.338832,260.7862 42.510532,260.4063 42.510532,260.3358 C 42.510532,260.153 44.092532,257.5616 44.940762,256.3549 C 45.334452,255.7948 46.105942,254.6618 46.655182,253.837 C 48.940082,250.4059 51.364522,246.8145 51.630912,246.4663 C 53.230352,244.3756 55.915482,240.5343 57.244572,238.4355 C 57.627202,237.8313 58.269272,236.825 58.671392,236.1993 C 59.816002,234.4183 60.698242,232.8925 60.698242,232.6939 C 60.698242,232.5941 60.775602,232.4351 60.870152,232.3406 C 60.964692,232.246 61.316892,231.6158 61.652812,230.9402 C 61.988732,230.2646 62.343412,229.6869 62.440982,229.6566 C 62.538562,229.6263 63.051692,230.2598 63.581262,231.0644 z M 207.44223,238.1888 C 207.5843,238.3309 207.83797,238.7165 208.00594,239.0458 C 208.17391,239.375 208.98773,240.76 209.81443,242.1236 C 210.64113,243.4872 211.6409,245.1395 212.03617,245.7955 C 212.43143,246.4514 212.80617,247.0619 212.86893,247.1521 C 213.61506,248.2247 214.01498,248.9266 215.60371,251.9515 C 217.5441,255.6461 217.68698,258.8398 216.02244,261.3113 C 214.83971,263.0673 212.18746,263.7839 210.44153,262.8191 C 209.36513,262.2242 208.61396,261.0382 208.36487,259.5402 C 208.28065,259.0338 207.95194,258.6781 207.75246,258.8776 C 207.71149,258.9185 207.63909,259.2119 207.59153,259.5296 C 207.48989,260.2086 206.7575,261.7466 206.29813,262.2457 C 205.34234,263.284 203.69337,263.6918 202.3056,263.2329 C 199.78433,262.3992 198.61167,260.5001 198.57497,257.1912 C 198.541,254.1272 199.5528,251.5713 203.29263,245.2737 C 205.09191,242.2438 206.17365,240.2277 206.96241,238.4341 C 207.17253,237.9564 207.1972,237.9438 207.44223,238.1888 z M 211.93832,268.9754 C 211.98835,269.0564 211.98441,269.5427 211.9296,270.0562 C 211.78867,271.3761 210.58612,277.0233 210.15934,278.3693 C 210.04235,278.7383 209.703,279.8272 209.40523,280.7891 C 209.10746,281.751 208.80115,282.5768 208.72452,282.6242 C 208.64791,282.6715 208.5852,282.8224 208.5852,282.9595 C 208.5852,283.0965 208.45601,283.5454 208.29812,283.957 C 208.14022,284.3685 207.69551,285.5773 207.30989,286.6433 C 206.64416,288.4835 204.68087,292.6727 203.37478,295.04 C 202.64619,296.3606 202.70789,296.6337 203.77086,296.7931 C 204.61645,296.9199 213.85639,296.7829 214.08739,296.6401 C 214.18973,296.5769 214.25023,295.9077 214.25023,294.8391 C 214.25023,293.2474 214.27091,293.1277 214.57339,292.9658 C 214.97416,292.7513 216.64185,292.9006 216.8128,293.1662 C 216.87849,293.2683 216.91579,294.8602 216.89568,296.7037 L 216.85912,300.0555 L 216.26281,300.1539 C 215.35063,300.3044 200.48871,300.3052 200.25778,300.1548 C 199.76834,299.8359 198.54761,297.439 198.56491,296.8308 C 198.57153,296.598 198.73237,296.1909 198.92234,295.9263 C 199.30592,295.3919 199.32581,295.3594 200.14666,293.9218 C 200.46608,293.3623 200.90213,292.6363 201.11568,292.3083 C 202.29042,290.504 205.45819,283.1521 206.41504,280.0092 C 207.22642,277.3442 207.56071,276.195 207.70438,275.5769 C 208.29137,273.0512 208.48274,272.1543 208.74183,270.7145 C 208.90188,269.825 209.07025,269.0368 209.11597,268.9628 C 209.22923,268.7795 211.82444,268.7912 211.93832,268.9754 z"
     id="path14045" />
  <g
     id="g3796"
     transform="translate(1.593878e-6,0)">
    <rect
       ry="11.25"
       rx="11.25"
       y="3.4247196"
       x="3.6058116"
       height="311.81104"
       width="223.22835"
       id="rect2382"
       style="fill:none;fill-opacity:1;fill-rule:nonzero;stroke:#000000;stroke-width:0.03543307;stroke-linejoin:round;stroke-miterlimit:4;stroke-dasharray:none;stroke-opacity:1" />
    <g
       transform="translate(3.5433116,3.3622195)"
       id="g3164">
      <path
         style="fill:none;fill-rule:evenodd;stroke:#000000;stroke-width:0.03221492;stroke-linecap:butt;stroke-linejoin:miter;stroke-miterlimit:4;stroke-dasharray:none;stroke-opacity:1"
         d="M 219.74754,0.062511534 L 226.70838,0.062511534"
         id="path3160"
         sodipodi:nodetypes="cc" />
      <path
         sodipodi:nodetypes="cc"
         id="path3162"
         d="M 223.29036,-3.2997195 L 223.29036,3.6063107"
         style="fill:none;fill-rule:evenodd;stroke:#000000;stroke-width:0.03196126;stroke-linecap:butt;stroke-linejoin:miter;stroke-miterlimit:4;stroke-dasharray:none;stroke-opacity:1" />
    </g>
    <g
       transform="matrix(1.0001093,0,0,1,3.519309,315.17275)"
       id="g3168">
      <path
         sodipodi:nodetypes="cc"
         id="path3170"
         d="M 219.74754,0.062511534 L 226.70838,0.062511534"
         style="fill:none;fill-rule:evenodd;stroke:#000000;stroke-width:0.03221492;stroke-linecap:butt;stroke-linejoin:miter;stroke-miterlimit:4;stroke-dasharray:none;stroke-opacity:1" />
      <path
         style="fill:none;fill-rule:evenodd;stroke:#000000;stroke-width:0.03196126;stroke-linecap:butt;stroke-linejoin:miter;stroke-miterlimit:4;stroke-dasharray:none;stroke-opacity:1"
         d="M 223.29036,-3.2997195 L 223.29036,3.6063107"
         id="path3172"
         sodipodi:nodetypes="cc" />
    </g>
    <g
       id="g3174"
       transform="matrix(1.0001093,0,0,1,-219.70906,315.17275)">
      <path
         style="fill:none;fill-rule:evenodd;stroke:#000000;stroke-width:0.03221492;stroke-linecap:butt;stroke-linejoin:miter;stroke-miterlimit:4;stroke-dasharray:none;stroke-opacity:1"
         d="M 219.74754,0.062511534 L 226.70838,0.062511534"
         id="path3176"
         sodipodi:nodetypes="cc" />
      <path
         sodipodi:nodetypes="cc"
         id="path3178"
         d="M 223.29036,-3.2997195 L 223.29036,3.6063107"
         style="fill:none;fill-rule:evenodd;stroke:#000000;stroke-width:0.03196126;stroke-linecap:butt;stroke-linejoin:miter;stroke-miterlimit:4;stroke-dasharray:none;stroke-opacity:1" />
    </g>
    <g
       transform="translate(-219.68504,3.3622195)"
       id="g3180">
      <path
         sodipodi:nodetypes="cc"
         id="path3182"
         d="M 219.74754,0.062511534 L 226.70838,0.062511534"
         style="fill:none;fill-rule:evenodd;stroke:#000000;stroke-width:0.03221492;stroke-linecap:butt;stroke-linejoin:miter;stroke-miterlimit:4;stroke-dasharray:none;stroke-opacity:1" />
      <path
         style="fill:none;fill-rule:evenodd;stroke:#000000;stroke-width:0.03196126;stroke-linecap:butt;stroke-linejoin:miter;stroke-miterlimit:4;stroke-dasharray:none;stroke-opacity:1"
         d="M 223.29036,-3.2997195 L 223.29036,3.6063107"
         id="path3184"
         sodipodi:nodetypes="cc" />
    </g>
  </g>
</svg>
