<?xml version="1.0" encoding="UTF-8" standalone="no"?>
<!-- Created with Inkscape (http://www.inkscape.org/) -->
<svg
   xmlns:dc="http://purl.org/dc/elements/1.1/"
   xmlns:cc="http://creativecommons.org/ns#"
   xmlns:rdf="http://www.w3.org/1999/02/22-rdf-syntax-ns#"
   xmlns:svg="http://www.w3.org/2000/svg"
   xmlns="http://www.w3.org/2000/svg"
   xmlns:sodipodi="http://sodipodi.sourceforge.net/DTD/sodipodi-0.dtd"
   xmlns:inkscape="http://www.inkscape.org/namespaces/inkscape"
   id="svg6389"
   sodipodi:version="0.32"
   inkscape:version="0.46"
   width="230.31497"
   height="318.84155"
   version="1.0"
   sodipodi:docname="7s.svg"
   inkscape:output_extension="org.inkscape.output.svg.inkscape">
  <metadata
     id="metadata6394">
    <rdf:RDF>
      <cc:Work
         rdf:about="">
        <dc:format>image/svg+xml</dc:format>
        <dc:type
           rdf:resource="http://purl.org/dc/dcmitype/StillImage" />
      </cc:Work>
    </rdf:RDF>
  </metadata>
  <defs
     id="defs6392">
    <inkscape:perspective
       sodipodi:type="inkscape:persp3d"
       inkscape:vp_x="0 : 526.18109 : 1"
       inkscape:vp_y="0 : 1000 : 0"
       inkscape:vp_z="744.09448 : 526.18109 : 1"
       inkscape:persp3d-origin="372.04724 : 350.78739 : 1"
       id="perspective6396" />
  </defs>
  <sodipodi:namedview
     inkscape:window-height="667"
     inkscape:window-width="782"
     inkscape:pageshadow="2"
     inkscape:pageopacity="0.0"
     guidetolerance="10.0"
     gridtolerance="10.0"
     objecttolerance="10.0"
     borderopacity="1.0"
     bordercolor="#666666"
     pagecolor="#ffffff"
     id="base"
     showgrid="false"
     inkscape:zoom="1.4489956"
     inkscape:cx="115.15749"
     inkscape:cy="159.42078"
     inkscape:window-x="88"
     inkscape:window-y="116"
     inkscape:current-layer="svg6389" />
  <path
     style="fill:#000000"
     d="M 200.31672,300.2227 C 199.84858,300.0789 198.38356,297.5581 198.3895,296.9065 C 198.39085,296.7574 198.54282,296.3857 198.72722,296.0803 C 198.91159,295.7749 199.58969,294.661 200.23409,293.6051 C 203.94297,287.5279 207.51866,277.7993 208.73516,270.4758 C 208.88996,269.5439 209.09853,268.6827 209.19866,268.5621 C 209.45826,268.2493 211.78292,268.2512 212.04287,268.5644 C 212.47983,269.091 211.58912,273.9245 210.13375,278.9244 C 209.34068,281.6489 207.76869,286.1737 206.87456,288.3052 C 206.37309,289.5009 204.55821,293.1318 203.79863,294.4592 C 203.49158,294.9958 203.14956,295.6633 203.03858,295.9428 C 202.67743,296.8519 202.74232,296.8628 208.43521,296.8532 C 211.20522,296.8486 213.70798,296.7949 213.99691,296.7337 L 214.52225,296.6223 L 214.5385,295.0291 C 214.54743,294.1527 214.59597,293.3282 214.64636,293.1969 C 214.76672,292.8833 217.02037,292.8476 217.27574,293.1553 C 217.37612,293.2763 217.47296,294.6011 217.52635,296.5832 C 217.60323,299.4378 217.58525,299.8374 217.37188,300.0146 C 217.17827,300.1751 215.48778,300.2232 208.8469,300.2567 C 204.29097,300.2796 200.45239,300.2643 200.31672,300.2227 z M 60.630642,284.1402 C 59.803282,282.7573 58.910212,281.3558 58.646042,281.0257 C 58.381872,280.6954 57.480742,279.446 56.643512,278.2489 C 54.886992,275.7377 51.322032,271.1242 48.481372,267.6865 C 46.944542,265.8268 44.252022,262.0124 42.976182,259.8877 C 40.840292,256.3309 39.500442,253.2883 39.065132,251.0067 C 38.225032,246.6032 38.965492,242.8875 41.324112,239.671 C 42.721382,237.7656 43.608082,237.0019 45.516432,236.0606 L 47.166252,235.2467 L 49.492722,235.2467 L 51.819202,235.2467 L 53.019962,235.8289 C 53.989852,236.2993 54.480452,236.6744 55.571572,237.7802 C 57.399562,239.6327 58.145832,241.0728 59.031362,244.4564 C 59.233562,245.2291 59.399002,245.9807 59.399002,246.1266 C 59.399002,246.5293 59.788732,246.7767 60.243152,246.6627 L 60.640922,246.5629 L 60.557352,244.8822 C 60.452012,242.7641 59.823872,239.1728 59.229522,237.291 C 58.479102,234.9149 57.654162,232.8107 56.171912,229.4919 C 55.175812,227.2616 55.151762,227.1873 55.378142,227.0438 C 55.680422,226.852 68.762742,226.8841 68.955752,227.0772 C 69.070072,227.1916 68.974322,227.5277 68.624362,228.2405 C 66.684632,232.1911 65.686992,235.2519 64.941602,239.5387 C 64.586912,241.5784 64.332152,245.8934 64.540932,246.325 C 64.635032,246.5195 64.806602,246.5832 65.146062,246.5502 L 65.619852,246.5039 L 65.814092,244.747 C 66.152742,241.6839 66.952412,239.9218 68.842962,238.0726 C 70.755102,236.2021 72.644432,235.4382 75.309082,235.4581 C 77.830932,235.4771 79.597522,236.1462 81.464632,237.7902 C 83.608882,239.6779 84.694162,241.5431 85.292592,244.3684 C 86.478702,249.9684 84.894952,255.6958 80.320662,262.3486 C 78.792572,264.5712 78.423362,265.0822 77.415972,266.3688 C 76.876322,267.0581 76.235602,267.9024 75.992142,268.2451 C 75.748682,268.5877 74.762542,269.8473 73.800732,271.0443 C 72.838912,272.2414 71.333612,274.2001 70.455612,275.3971 C 69.577622,276.5941 68.301072,278.3067 67.618842,279.2027 C 66.936612,280.0986 66.071622,281.2807 65.696632,281.8293 C 65.321652,282.3779 64.576342,283.4684 64.040382,284.2528 C 62.747202,286.1449 62.365342,286.6542 62.239682,286.6542 C 62.182072,286.6542 61.457992,285.523 60.630642,284.1402 z M 167.19925,284.8519 C 166.72762,284.1081 166.03778,283.0144 165.6663,282.4214 C 165.29481,281.8282 164.43758,280.5962 163.76132,279.6834 C 163.08508,278.7707 162.37589,277.8002 162.18533,277.5269 C 161.51421,276.5642 158.85061,273.0586 158.02321,272.0488 C 157.56272,271.487 156.88199,270.6372 156.51051,270.1608 C 156.13902,269.6842 155.29474,268.6348 154.63432,267.8286 C 151.36973,263.8431 149.5091,261.1447 147.30779,257.2031 C 145.87884,254.6446 145.60583,254.0858 145.15994,252.8078 C 144.59073,251.1762 144.36005,249.8356 144.25606,247.5544 C 144.16636,245.5869 144.18652,245.3483 144.57258,243.808 C 145.21745,241.2352 145.83192,240.0523 147.68478,237.817 C 148.65891,236.642 149.49793,236.0312 151.37069,235.1341 C 152.67442,234.5097 152.69616,234.5051 154.66487,234.4488 C 156.38379,234.3996 156.77416,234.4345 157.60802,234.712 C 158.90689,235.1442 159.67651,235.6649 161.03275,237.0291 C 162.8824,238.8896 163.82447,240.8154 164.84201,244.8167 C 165.0531,245.6466 165.16362,245.8471 165.44968,245.919 C 166.11385,246.0857 166.16435,245.9205 166.06887,243.893 C 165.9647,241.6809 165.33636,238.4174 164.56303,236.0723 C 163.92542,234.1385 161.98772,229.3194 161.27394,227.892 C 160.59278,226.53 160.48933,226.1821 160.74034,226.0982 C 161.05534,225.993 173.82188,225.8677 174.19877,225.9663 C 174.38583,226.0152 174.5061,226.1309 174.46604,226.2232 C 174.42597,226.3156 173.99392,227.2714 173.50592,228.3473 C 172.57015,230.4106 171.74881,232.6399 171.53107,233.7073 C 171.45941,234.0587 171.25173,234.9203 171.06953,235.622 C 170.52203,237.7305 170.03159,241.438 170.00052,243.7031 C 169.97518,245.5504 170.05633,245.8283 170.6207,245.8283 C 170.85791,245.8283 171.08875,245.7689 171.13368,245.6962 C 171.1786,245.6236 171.27981,244.8295 171.35861,243.9316 C 171.62534,240.892 172.72047,238.5459 174.71133,236.7488 C 177.95802,233.8181 183.19098,233.6352 186.50805,236.3366 C 189.92714,239.1209 191.33565,242.3518 191.33142,247.4004 C 191.32697,252.7154 188.64102,258.5503 182.44959,266.6953 C 177.98226,272.5723 175.59738,275.7652 174.82882,276.898 C 174.46481,277.4347 173.7213,278.4478 173.17656,279.1494 C 172.63182,279.8512 171.31736,281.7254 170.25556,283.3147 C 169.19376,284.9038 168.26467,286.2039 168.1909,286.2039 C 168.11714,286.2039 167.67089,285.5956 167.19925,284.8519 z M 207.42625,262.3763 C 207.1798,261.9843 206.63616,261.0894 206.21815,260.3876 C 205.80012,259.6859 205.07771,258.5714 204.61277,257.9111 C 201.83346,253.9631 199.71339,250.3024 199.31018,248.7552 C 198.82364,246.8882 198.96378,245.3423 199.74564,243.9522 C 200.53982,242.5402 201.68799,241.7759 203.01507,241.7759 C 204.08373,241.7759 204.75631,242.1203 205.41799,243.0067 C 205.8025,243.5217 206.05364,243.7257 206.26577,243.6952 C 206.53256,243.6569 206.5644,243.5486 206.54279,242.7515 C 206.50339,241.2991 205.48937,239.0902 204.27347,237.808 C 203.80327,237.3123 203.79428,237.2815 204.07597,237.1308 C 204.4522,236.9294 210.4915,236.9154 210.61523,237.1156 C 210.66375,237.194 210.38726,237.674 210.00083,238.1821 C 209.14207,239.3114 208.4858,240.877 208.25854,242.3387 C 208.10556,243.3228 208.11502,243.4626 208.35017,243.694 C 208.5985,243.9386 208.63145,243.9283 208.97287,243.502 C 209.17115,243.2543 209.51444,242.8284 209.73576,242.5558 C 210.39999,241.7371 211.18057,241.4271 212.36406,241.5118 C 214.10795,241.6366 215.54824,242.7941 216.03501,244.4621 C 216.51258,246.0985 215.9585,248.8286 214.60159,251.5247 C 213.92044,252.8781 211.92054,256.2532 211.34169,257.0261 C 210.90071,257.6149 210.01528,259.2331 208.94794,261.4008 C 208.49064,262.3295 208.062,263.0894 207.99541,263.0894 C 207.92879,263.0894 207.67269,262.7684 207.42625,262.3763 z M 54.719982,189.3166 C 54.678122,189.2747 54.995972,188.5149 55.426302,187.6279 C 55.856632,186.7412 56.454532,185.3972 56.754972,184.6416 C 57.356602,183.1283 58.452032,179.0653 58.670922,177.5351 C 59.314742,173.0344 59.438532,170.2415 59.013042,169.8159 C 58.422882,169.2258 57.898122,169.7379 57.897842,170.9042 C 57.897602,171.9205 57.561062,173.8991 57.232522,174.8158 C 56.812492,175.9878 56.061122,177.1256 54.915382,178.3249 C 53.991002,179.2924 53.553592,179.6168 52.431092,180.1675 C 50.683492,181.0249 49.431242,181.2343 47.449442,181.0006 C 45.016852,180.7137 43.576382,180.0194 41.832042,178.2931 C 39.699882,176.1829 38.840952,174.4089 38.304032,171.006 C 37.345032,164.9282 39.569942,158.6618 45.427812,150.9422 C 47.392832,148.3526 49.527542,145.6024 50.999912,143.7638 C 51.826202,142.7319 53.241082,140.866 54.144102,139.6175 C 55.047122,138.3691 56.142972,136.9082 56.579332,136.3711 C 57.015692,135.8339 58.131482,134.3226 59.058872,133.0125 C 61.176732,130.0206 61.278202,129.8928 61.450992,129.9996 C 61.529062,130.0478 62.025692,130.7836 62.554632,131.6347 C 63.648372,133.3944 65.061052,135.4883 65.348682,135.7761 C 65.455222,135.8826 66.201272,136.8959 67.006572,138.028 C 68.388832,139.9713 70.514032,142.6892 72.899582,145.5649 C 73.481692,146.2666 74.275582,147.246 74.663802,147.7413 C 75.052012,148.2366 75.751132,149.0809 76.217412,149.6174 C 76.683682,150.154 77.459222,151.1671 77.940812,151.8688 C 78.422422,152.5706 79.001272,153.3811 79.227172,153.6701 C 79.937812,154.5789 82.010282,158.0716 82.937322,159.9225 C 84.585302,163.2128 85.176072,165.895 85.026912,169.41 C 84.952942,171.1531 84.527502,173.0305 83.900572,174.3802 C 83.191492,175.9068 81.045182,178.6408 79.979192,179.3753 C 78.979212,180.0644 77.128522,180.9264 76.239122,181.117 C 75.802022,181.2109 74.953552,181.2876 74.353642,181.2876 C 71.734522,181.2876 70.054902,180.5717 68.208012,178.6682 C 66.307192,176.7093 65.258012,174.5433 64.496472,171.006 C 64.215512,169.7009 64.116632,169.5543 63.554162,169.6088 L 63.076332,169.6551 L 63.092622,171.156 C 63.120532,173.7279 63.848422,177.4538 64.925292,180.537 C 65.865332,183.2286 66.134142,183.8771 67.613132,187.0222 C 68.145232,188.1537 68.537032,189.1499 68.483792,189.2361 C 68.385382,189.3952 54.877712,189.4743 54.719982,189.3166 z M 160.49861,188.8094 C 160.44642,188.725 160.80708,187.8253 161.30009,186.8104 C 162.42646,184.4913 162.98416,182.9553 163.63205,180.3876 C 164.48067,177.0248 164.91582,173.8238 164.91582,170.9444 C 164.91582,169.1714 164.80653,168.9223 164.10651,169.0987 C 163.65288,169.2132 163.57,169.402 163.56614,170.3306 C 163.56156,171.4294 163.32211,172.8989 162.96345,174.0292 C 162.04038,176.9382 159.31015,179.5476 156.4008,180.3014 C 154.66187,180.7521 151.78865,180.5443 150.12089,179.8476 C 148.21593,179.0516 145.52158,176.3343 144.67205,174.3526 C 143.1565,170.8169 143.04476,165.6527 144.3983,161.7 C 146.08233,156.7824 148.33537,153.3043 156.52034,142.9871 C 157.54684,141.6932 158.85949,139.9805 159.43736,139.181 C 160.01523,138.3814 161.09591,136.9381 161.83888,135.9735 C 162.58185,135.0088 163.72512,133.4458 164.37949,132.5 C 165.98543,130.1791 166.60591,129.3547 166.74683,129.3547 C 166.81187,129.3547 167.25084,129.9457 167.7223,130.6679 C 169.56146,133.4858 170.52974,134.8783 171.41944,135.9852 C 171.92879,136.6188 172.78448,137.7333 173.32098,138.4618 C 173.85748,139.1902 174.668,140.2323 175.12212,140.7774 C 175.57625,141.3227 176.53258,142.4709 177.24729,143.3291 C 177.962,144.1872 179.48504,146.004 180.63181,147.366 C 184.19003,151.5923 186.52103,154.9196 188.50251,158.6002 C 189.61823,160.6726 189.78686,161.0639 190.42082,163.051 C 191.12643,165.2628 191.20912,169.5911 190.58424,171.6063 C 189.80025,174.1349 188.73114,175.9443 186.98612,177.6957 C 186.05993,178.6253 185.58917,178.9598 184.39714,179.5347 C 182.51426,180.4427 181.79202,180.5873 179.56468,180.5029 C 176.94107,180.4033 175.68914,179.795 173.68511,177.6456 C 172.00232,175.8407 170.87022,173.3902 170.13223,169.9554 C 169.94071,169.0639 169.93307,169.0542 169.37853,169.0081 C 168.73597,168.9548 168.76744,168.8648 168.81022,170.6308 C 168.85597,172.5201 169.57574,176.522 170.20049,178.3607 C 171.07784,180.9429 172.34802,183.9979 173.65319,186.665 C 174.15222,187.6849 174.49984,188.5695 174.42769,188.6357 C 174.22329,188.8236 160.61224,188.9933 160.49861,188.8094 z M 150.79201,174.0738 C 150.50111,173.8939 150.43008,174.035 150.66745,174.321 C 150.81221,174.4953 150.88867,174.5131 150.93227,174.3822 C 150.96599,174.2811 150.90287,174.1422 150.79201,174.0738 z M 107.66023,140.1707 C 107.59888,140.0714 107.75274,139.573 108.00227,139.0627 C 109.4066,136.1908 110.15901,134.1676 110.82124,131.4829 C 111.3662,129.2736 111.46269,128.7618 111.85914,125.9774 C 112.12811,124.0884 112.15381,120.9307 111.90225,120.6791 C 111.66708,120.444 111.10741,120.4482 110.92452,120.6866 C 110.84535,120.7899 110.70147,121.6636 110.60479,122.6282 C 110.39217,124.7497 110.05968,125.8751 109.236,127.2617 C 107.07889,130.8926 103.03681,132.6202 98.920842,131.6702 C 96.583732,131.1309 94.431712,129.5269 92.817652,127.1212 C 91.769672,125.5592 91.391312,124.4936 90.922882,121.7848 C 90.696142,120.4736 90.736312,117.616 91.003202,116.0712 C 91.755992,111.7137 94.629882,106.1868 99.237182,100.2362 C 99.908302,99.3694 100.65568,98.39 100.89803,98.0598 C 101.14038,97.7296 101.93809,96.7325 102.67072,95.844 C 104.0703,94.1466 104.18628,93.9982 106.92217,90.405 C 107.86498,89.1666 108.94007,87.7821 109.31126,87.3279 C 109.68244,86.8739 110.24403,86.131 110.55923,85.6769 C 111.33509,84.5594 112.70567,82.6212 113.39394,81.6682 C 113.70448,81.2382 114.0261,80.884 114.10865,80.8811 C 114.1912,80.8781 114.664,81.5209 115.15931,82.3094 C 116.84021,84.9853 117.65658,86.2011 118.07557,86.6526 C 118.30543,86.9002 119.19193,88.0484 120.04555,89.2042 C 121.59018,91.2954 123.73655,93.986 124.90358,95.2938 C 125.24034,95.6711 126.07042,96.6504 126.74819,97.4702 C 127.42596,98.2898 128.42794,99.5007 128.97481,100.1611 C 129.52167,100.8216 130.32166,101.8684 130.75256,102.4876 C 132.88738,105.555 133.2686,106.1284 134.14515,107.5909 C 136.40544,111.3617 137.5276,114.0957 137.90307,116.7467 C 138.08666,118.0429 138.12582,120.8934 137.97214,121.7749 C 137.6147,123.8247 136.72699,125.8741 135.45683,127.582 C 134.04721,129.4772 133.24649,130.1578 131.31306,131.1043 L 129.56844,131.9583 L 127.78407,132.0266 C 124.66227,132.1459 123.31411,131.6217 121.15261,129.448 C 120.12996,128.4195 119.62201,127.7614 119.11104,126.803 C 118.42989,125.5254 117.68565,123.3583 117.31536,121.5743 C 117.09436,120.5096 116.83707,120.2606 116.20592,120.5006 L 115.80696,120.6522 L 115.90277,122.114 C 116.24171,127.2857 117.4698,131.3721 120.75085,138.2461 C 121.21339,139.2151 121.54915,140.0506 121.49697,140.1028 C 121.4448,140.1549 118.33527,140.2322 114.58693,140.2743 C 109.37203,140.3331 107.74556,140.3087 107.66023,140.1707 z M 54.216862,92.1248 C 54.163722,92.0387 54.390752,91.4141 54.721382,90.7364 C 56.207392,87.6909 56.711082,86.2788 57.409722,83.2003 C 58.247122,79.5104 58.314072,79.0752 58.506722,76.0709 C 58.701322,73.036 58.629262,72.6186 57.910622,72.6186 C 57.665792,72.6186 57.414802,72.7007 57.352852,72.801 C 57.290912,72.9011 57.194312,73.6272 57.138202,74.4145 C 56.924282,77.4155 56.086812,79.3779 54.177862,81.3517 C 52.350412,83.2411 50.482522,84.0193 47.763612,84.0237 C 45.310002,84.0277 43.416182,83.2643 41.516782,81.5059 C 39.045272,79.2177 37.878402,76.4521 37.565672,72.1413 C 37.298322,68.456 38.606062,64.0366 41.455862,58.9947 C 42.645862,56.8893 46.279882,51.7687 49.335732,47.8912 C 50.067342,46.963 51.149022,45.5446 51.739482,44.7393 C 52.329932,43.934 53.535022,42.305 54.417442,41.1193 C 56.308102,38.5787 57.802532,36.4767 58.753652,35.0199 C 59.578282,33.7568 60.284172,32.8434 60.435782,32.8434 C 60.555012,32.8434 61.330392,33.9633 62.890852,36.3892 C 63.428402,37.2249 64.401582,38.6094 65.053472,39.4662 C 65.705362,40.3228 66.565832,41.4964 66.965632,42.0743 C 67.365432,42.6521 68.477542,44.0899 69.437002,45.2692 C 70.396452,46.4484 71.519182,47.8424 71.931942,48.3668 C 72.344702,48.8912 73.452872,50.2543 74.394552,51.3956 C 75.336232,52.537 76.431992,53.9461 76.829592,54.5269 C 77.227182,55.1076 77.825392,55.971 78.158932,56.4453 C 80.090002,59.1913 82.512202,63.6502 83.234982,65.7896 C 83.801952,67.4677 83.982902,68.5559 84.108562,71.0431 C 84.200352,72.8599 84.178432,73.1085 83.791062,74.6452 C 83.105522,77.3649 81.891872,79.5131 79.894762,81.5415 C 78.888522,82.5634 76.427602,83.8009 74.933842,84.0358 C 72.902212,84.3553 70.436802,83.9087 69.080032,82.9752 C 68.070782,82.2808 66.192512,80.1755 65.549702,79.0181 C 64.760852,77.5979 64.312042,76.3117 63.687242,73.6802 C 63.561252,73.1497 63.372262,72.661 63.267252,72.5943 C 62.990602,72.4188 62.637932,72.4417 62.430922,72.6486 C 62.216532,72.863 62.191442,74.6066 62.385852,75.7807 C 62.460122,76.2292 62.599162,77.1028 62.694822,77.722 C 63.035642,79.9278 63.480862,81.5203 64.625052,84.6262 C 65.255002,86.3363 66.521192,89.2553 67.261912,90.7052 C 67.557152,91.283 67.799972,91.8302 67.801512,91.921 C 67.805942,92.181 65.551782,92.2812 59.684992,92.2812 C 56.122832,92.2812 54.280942,92.2284 54.216862,92.1248 z M 160.06306,92.022 C 160.01,91.9361 160.36745,91.0278 160.85741,90.0034 C 162.06671,87.4754 162.56244,86.0771 163.26101,83.2236 C 164.04942,80.0031 164.31786,78.1444 164.42221,75.1841 C 164.50236,72.9105 164.48787,72.7061 164.23345,72.52 C 163.57546,72.0388 163.11468,72.4803 163.11468,73.5919 C 163.11468,74.5184 162.77701,76.4049 162.4172,77.4881 C 161.73457,79.5433 159.69095,81.9032 157.74526,82.883 C 155.8505,83.8372 153.53577,84.1138 151.33223,83.6491 C 147.66555,82.8757 144.33475,79.3124 143.45123,75.2178 C 142.4221,70.4483 143.02824,66.4879 145.5719,61.3616 C 146.99546,58.4926 150.00367,53.8616 151.92268,51.5847 C 152.1758,51.2843 152.58552,50.7506 152.83318,50.3984 C 153.08083,50.0463 153.75626,49.1668 154.33413,48.4442 C 154.91199,47.7214 155.65496,46.7789 155.98517,46.35 C 156.31538,45.921 156.8895,45.1766 157.26098,44.6961 C 157.63247,44.2156 158.65973,42.8549 159.54378,41.6726 C 160.42784,40.4902 161.56527,38.9824 162.07141,38.322 C 162.57754,37.6616 163.67143,36.1419 164.50228,34.9449 C 165.33313,33.7478 166.08463,32.7217 166.17229,32.6644 C 166.41173,32.5082 166.57514,32.698 167.62737,34.3554 C 168.59968,35.8868 169.07137,36.5399 172.28154,40.7986 C 174.57063,43.8352 175.56082,45.0692 178.72457,48.8269 C 181.86594,52.5582 181.92628,52.6344 183.7818,55.2077 C 185.96882,58.2407 186.96183,59.8677 188.58149,63.0721 C 190.11755,66.1111 190.49935,67.724 190.50378,71.1927 C 190.5072,73.8723 190.39015,74.5315 189.52022,76.7309 C 189.08446,77.8326 187.74005,79.7651 186.58209,80.9541 C 185.77029,81.7878 185.23802,82.1706 184.05295,82.7731 C 182.31597,83.6561 181.44889,83.8757 179.70019,83.8757 C 177.37038,83.8757 175.73062,83.2878 174.16767,81.8917 C 171.90811,79.8733 170.6263,77.4083 169.69712,73.2941 C 169.49769,72.4111 169.48313,72.3927 168.95044,72.3481 C 168.49919,72.3104 168.39272,72.3578 168.32193,72.6285 C 168.13689,73.3361 168.67695,77.5823 169.27517,80.1234 C 169.7524,82.1506 171.44475,86.4047 173.18573,89.9536 C 173.59042,90.7786 173.92153,91.5722 173.92153,91.7172 C 173.92153,91.9599 173.68469,91.981 170.95715,91.9813 C 169.32674,91.9815 166.2303,92.0258 164.07616,92.0798 C 161.4234,92.1463 160.12843,92.1276 160.06306,92.022 z M 19.361142,81.837 C 19.067122,81.6998 19.133752,81.4982 19.702862,80.8038 C 20.723712,79.5579 21.659492,76.8666 21.546222,75.5021 C 21.509152,75.0554 21.432902,74.9357 21.161362,74.897 C 20.909632,74.8613 20.755552,74.9721 20.560982,75.3287 C 19.760212,76.7964 18.848852,77.3424 17.375392,77.237 C 16.259902,77.1571 15.498552,76.7657 14.708162,75.8654 C 14.047462,75.113 13.841742,74.3026 13.864952,72.5437 C 13.900892,69.8193 15.052872,67.1239 18.487072,61.7288 C 18.910272,61.0639 19.795082,59.4317 20.453312,58.1016 C 21.111542,56.7715 21.702412,55.6774 21.766352,55.6706 C 21.830302,55.6636 22.050992,55.945 22.256782,56.2959 C 23.683402,58.7281 25.062912,60.9296 26.089512,62.4123 C 26.746842,63.3616 27.668082,64.8474 28.136712,65.7143 C 29.991682,69.1453 30.222832,69.7672 30.368032,71.7181 C 30.506762,73.5819 29.743282,75.4382 28.453912,76.3722 C 26.868292,77.5209 25.165862,77.2583 24.189232,75.7147 C 23.724522,74.9801 23.512522,74.8271 23.151042,74.966 C 22.803482,75.0993 22.868762,76.4515 23.281002,77.658 C 23.680072,78.8261 24.341162,80.0103 25.135382,80.9796 C 25.429432,81.3383 25.637412,81.6646 25.597552,81.7045 C 25.489122,81.8129 19.578552,81.9386 19.361142,81.837 z M 18.042322,49.9454 C 17.606062,49.2396 19.406972,40.9635 20.996232,36.3708 C 21.167632,35.8753 21.638972,34.5089 22.043662,33.3339 C 22.863642,30.9532 23.626812,29.1501 24.760602,26.9148 C 25.179312,26.0892 25.623112,25.2112 25.746822,24.9635 C 25.870522,24.7159 26.073492,24.3951 26.197862,24.2509 C 26.497122,23.9038 26.970202,22.49 26.872402,22.2351 C 26.829972,22.1244 26.624342,21.9912 26.415452,21.9388 C 25.983112,21.8303 15.948712,22.0163 15.629602,22.1388 C 15.467972,22.2009 15.421142,22.6178 15.421142,23.9951 C 15.421142,25.0471 15.358372,25.8101 15.267172,25.8664 C 14.994902,26.0348 13.150892,25.9804 12.969012,25.7987 C 12.748942,25.5787 12.653852,19.3679 12.865462,19.0348 C 13.035322,18.7672 15.903842,18.6586 24.159602,18.6069 L 29.370822,18.5743 L 29.844662,19.2173 C 30.549702,20.1739 31.222072,21.6711 31.108022,22.0306 C 31.054892,22.1979 30.540492,23.1289 29.964902,24.0994 C 25.895742,30.9608 22.400852,40.5403 21.189392,48.1531 C 20.850302,50.2841 21.008412,50.1044 19.472452,50.1044 C 18.696872,50.1044 18.099532,50.038 18.042322,49.9454 z"
     id="path6400" />
  <g
     id="g3796"
     transform="translate(1.593878e-6,0)">
    <rect
       ry="11.25"
       rx="11.25"
       y="3.4247196"
       x="3.6058116"
       height="311.81104"
       width="223.22835"
       id="rect2382"
       style="fill:none;fill-opacity:1;fill-rule:nonzero;stroke:#000000;stroke-width:0.03543307;stroke-linejoin:round;stroke-miterlimit:4;stroke-dasharray:none;stroke-opacity:1" />
    <g
       transform="translate(3.5433116,3.3622195)"
       id="g3164">
      <path
         style="fill:none;fill-rule:evenodd;stroke:#000000;stroke-width:0.03221492;stroke-linecap:butt;stroke-linejoin:miter;stroke-miterlimit:4;stroke-dasharray:none;stroke-opacity:1"
         d="M 219.74754,0.062511534 L 226.70838,0.062511534"
         id="path3160"
         sodipodi:nodetypes="cc" />
      <path
         sodipodi:nodetypes="cc"
         id="path3162"
         d="M 223.29036,-3.2997195 L 223.29036,3.6063107"
         style="fill:none;fill-rule:evenodd;stroke:#000000;stroke-width:0.03196126;stroke-linecap:butt;stroke-linejoin:miter;stroke-miterlimit:4;stroke-dasharray:none;stroke-opacity:1" />
    </g>
    <g
       transform="matrix(1.0001093,0,0,1,3.519309,315.17275)"
       id="g3168">
      <path
         sodipodi:nodetypes="cc"
         id="path3170"
         d="M 219.74754,0.062511534 L 226.70838,0.062511534"
         style="fill:none;fill-rule:evenodd;stroke:#000000;stroke-width:0.03221492;stroke-linecap:butt;stroke-linejoin:miter;stroke-miterlimit:4;stroke-dasharray:none;stroke-opacity:1" />
      <path
         style="fill:none;fill-rule:evenodd;stroke:#000000;stroke-width:0.03196126;stroke-linecap:butt;stroke-linejoin:miter;stroke-miterlimit:4;stroke-dasharray:none;stroke-opacity:1"
         d="M 223.29036,-3.2997195 L 223.29036,3.6063107"
         id="path3172"
         sodipodi:nodetypes="cc" />
    </g>
    <g
       id="g3174"
       transform="matrix(1.0001093,0,0,1,-219.70906,315.17275)">
      <path
         style="fill:none;fill-rule:evenodd;stroke:#000000;stroke-width:0.03221492;stroke-linecap:butt;stroke-linejoin:miter;stroke-miterlimit:4;stroke-dasharray:none;stroke-opacity:1"
         d="M 219.74754,0.062511534 L 226.70838,0.062511534"
         id="path3176"
         sodipodi:nodetypes="cc" />
      <path
         sodipodi:nodetypes="cc"
         id="path3178"
         d="M 223.29036,-3.2997195 L 223.29036,3.6063107"
         style="fill:none;fill-rule:evenodd;stroke:#000000;stroke-width:0.03196126;stroke-linecap:butt;stroke-linejoin:miter;stroke-miterlimit:4;stroke-dasharray:none;stroke-opacity:1" />
    </g>
    <g
       transform="translate(-219.68504,3.3622195)"
       id="g3180">
      <path
         sodipodi:nodetypes="cc"
         id="path3182"
         d="M 219.74754,0.062511534 L 226.70838,0.062511534"
         style="fill:none;fill-rule:evenodd;stroke:#000000;stroke-width:0.03221492;stroke-linecap:butt;stroke-linejoin:miter;stroke-miterlimit:4;stroke-dasharray:none;stroke-opacity:1" />
      <path
         style="fill:none;fill-rule:evenodd;stroke:#000000;stroke-width:0.03196126;stroke-linecap:butt;stroke-linejoin:miter;stroke-miterlimit:4;stroke-dasharray:none;stroke-opacity:1"
         d="M 223.29036,-3.2997195 L 223.29036,3.6063107"
         id="path3184"
         sodipodi:nodetypes="cc" />
    </g>
  </g>
</svg>
