<?xml version="1.0" encoding="UTF-8" standalone="no"?>
<!-- Created with Inkscape (http://www.inkscape.org/) -->
<svg
   xmlns:dc="http://purl.org/dc/elements/1.1/"
   xmlns:cc="http://creativecommons.org/ns#"
   xmlns:rdf="http://www.w3.org/1999/02/22-rdf-syntax-ns#"
   xmlns:svg="http://www.w3.org/2000/svg"
   xmlns="http://www.w3.org/2000/svg"
   xmlns:sodipodi="http://sodipodi.sourceforge.net/DTD/sodipodi-0.dtd"
   xmlns:inkscape="http://www.inkscape.org/namespaces/inkscape"
   id="svg6482"
   sodipodi:version="0.32"
   inkscape:version="0.46"
   width="230.31497"
   height="318.84155"
   version="1.0"
   sodipodi:docname="8c.svg"
   inkscape:output_extension="org.inkscape.output.svg.inkscape">
  <metadata
     id="metadata6487">
    <rdf:RDF>
      <cc:Work
         rdf:about="">
        <dc:format>image/svg+xml</dc:format>
        <dc:type
           rdf:resource="http://purl.org/dc/dcmitype/StillImage" />
      </cc:Work>
    </rdf:RDF>
  </metadata>
  <defs
     id="defs6485">
    <inkscape:perspective
       sodipodi:type="inkscape:persp3d"
       inkscape:vp_x="0 : 526.18109 : 1"
       inkscape:vp_y="0 : 1000 : 0"
       inkscape:vp_z="744.09448 : 526.18109 : 1"
       inkscape:persp3d-origin="372.04724 : 350.78739 : 1"
       id="perspective6489" />
  </defs>
  <sodipodi:namedview
     inkscape:window-height="667"
     inkscape:window-width="915"
     inkscape:pageshadow="2"
     inkscape:pageopacity="0.0"
     guidetolerance="10.0"
     gridtolerance="10.0"
     objecttolerance="10.0"
     borderopacity="1.0"
     bordercolor="#666666"
     pagecolor="#ffffff"
     id="base"
     showgrid="false"
     inkscape:zoom="1.4489956"
     inkscape:cx="115.15749"
     inkscape:cy="159.42078"
     inkscape:window-x="154"
     inkscape:window-y="203"
     inkscape:current-layer="svg6482" />
  <path
     style="fill:#000000"
     d="M 204.63708,300.2276 C 202.74347,299.8635 201.02901,298.973 199.78756,297.7088 C 198.28986,296.1838 197.51508,294.624 197.34308,292.7878 C 197.14904,290.7164 197.48787,289.406 198.58683,287.9778 C 198.95168,287.5037 199.49017,286.9327 199.78348,286.709 C 200.07678,286.4853 200.31675,286.2142 200.31675,286.1066 C 200.31675,285.999 200.05522,285.7298 199.73559,285.5082 C 198.63708,284.747 197.20108,283.1094 196.7397,282.0919 C 195.17563,278.6424 195.78106,275.0309 198.4298,272.0103 C 200.49815,269.6516 202.89516,268.5891 206.14841,268.5891 C 210.24212,268.5891 213.00746,269.9789 215.32816,273.2025 C 215.98154,274.1101 216.35159,275.1474 216.55803,276.65 C 217.05461,280.2644 215.69001,283.4889 212.84239,285.4298 C 212.42666,285.7131 212.08638,285.9948 212.08621,286.0557 C 212.08607,286.1166 212.54567,286.6194 213.10757,287.1731 C 214.24583,288.2945 214.52866,288.7601 214.93528,290.182 C 216.05351,294.0923 213.75047,298.3489 209.70455,299.8498 C 208.90804,300.1453 208.39993,300.2179 206.87174,300.2545 C 205.84752,300.2791 204.84193,300.267 204.63708,300.2276 z M 207.69405,297.1796 C 209.50756,296.8443 211.15637,295.663 211.83429,294.2132 C 212.0747,293.6991 212.14844,293.2476 212.15063,292.2765 C 212.15313,291.1717 212.10122,290.9151 211.74373,290.2653 C 210.8319,288.6077 209.56564,287.7618 207.57534,287.4806 C 205.14626,287.1374 203.14877,287.6498 201.83845,288.9523 C 200.80672,289.9779 200.47318,290.7279 200.46901,292.0317 C 200.46634,292.8627 200.54875,293.2272 200.91077,293.9857 C 201.68388,295.6057 202.79019,296.5005 204.71157,297.0601 C 205.77306,297.3693 206.50844,297.3987 207.69405,297.1796 z M 208.80844,284.001 C 211.07938,283.1793 212.60698,281.633 213.20932,279.5463 C 213.74749,277.682 213.16463,275.351 211.82924,274.0268 C 211.25114,273.4536 209.98565,272.7304 208.73395,272.258 C 206.79496,271.5263 203.30009,271.9946 201.70131,273.2005 C 200.76541,273.9063 199.65302,275.5414 199.24339,276.8133 C 198.94386,277.7433 198.93127,277.9187 199.09535,278.8756 C 199.3074,280.1122 199.92789,281.4104 200.672,282.1743 C 201.63371,283.1615 203.39709,284.1633 204.64321,284.4303 C 205.54978,284.6246 207.69661,284.4033 208.80844,284.001 z M 63.555922,286.5484 C 62.167772,286.2928 61.109462,285.9228 59.427152,285.1048 C 58.320172,284.5666 57.887342,284.2376 56.621282,282.972 C 55.334242,281.6855 55.018272,281.2667 54.368232,279.9859 C 53.038822,277.3664 52.726582,275.8591 52.976152,273.2658 C 53.411862,268.7384 54.305872,266.9096 58.085402,262.8145 C 58.866552,261.9681 58.948412,261.5526 58.404732,261.1935 C 58.125002,261.0088 58.014822,261.0468 57.257512,261.5891 C 56.218792,262.3329 54.942762,262.9121 53.117702,263.4681 C 51.848312,263.8549 51.517562,263.8948 49.701072,263.8801 C 47.806792,263.8649 47.601192,263.8333 46.164222,263.3369 C 43.056952,262.2636 40.767302,260.1203 39.122522,256.7455 C 38.368962,255.1993 38.283852,254.8281 38.160492,252.5501 C 38.056142,250.6229 38.475072,248.4352 39.265702,246.7787 C 40.715072,243.7419 43.743632,240.9867 46.796022,239.928 C 48.318932,239.3998 50.465172,239.1622 51.739162,239.3808 C 55.330442,239.9971 57.937632,241.5565 60.343932,244.5274 C 61.532472,245.9948 62.062252,246.9925 62.441412,248.4773 C 62.717542,249.5585 62.875582,249.818 63.257972,249.818 C 63.848732,249.818 63.922162,249.4632 63.730592,247.534 C 63.490762,245.1187 63.195442,243.6831 62.147182,239.8366 C 61.138562,236.1355 60.502732,234.4784 59.113252,231.929 C 58.811822,231.376 58.621252,230.8675 58.689752,230.799 C 58.842792,230.646 72.225592,230.7278 72.385972,230.8827 C 72.449172,230.9438 72.191512,231.6593 71.813392,232.4728 C 70.330852,235.6626 70.143822,236.1299 69.372922,238.5703 C 68.248292,242.1304 67.618262,245.2026 67.478742,247.8069 C 67.395472,249.3612 67.407732,249.4606 67.716812,249.7373 C 68.152232,250.1271 68.503442,249.9026 68.662792,249.1327 C 68.905712,247.959 69.132092,247.3322 69.762502,246.0874 C 70.631672,244.3712 71.600472,243.2097 73.021502,242.18 C 76.282002,239.8176 79.869252,238.868 83.363302,239.4425 C 87.147792,240.0648 90.722552,243.0316 92.274782,246.8385 C 93.035062,248.7031 93.202332,249.5947 93.202332,251.7827 C 93.202332,253.4804 93.145132,253.9783 92.819692,255.1132 C 92.009132,257.9397 90.531022,260.1979 88.436362,261.8097 C 86.541852,263.2675 85.395512,263.6402 82.401512,263.772 C 80.567712,263.8528 80.139562,263.8237 78.856242,263.5311 C 77.191012,263.1514 76.025292,262.7194 74.952662,262.0845 C 73.887502,261.4541 73.747982,261.4212 73.465012,261.7339 C 73.127262,262.1071 73.308322,262.4295 74.595842,263.7474 C 75.926252,265.1092 76.256372,265.5656 77.074452,267.1739 C 79.262752,271.4759 79.302282,276.9609 77.169152,280.3172 C 75.712812,282.6087 73.788072,284.4023 71.694352,285.4191 C 69.521572,286.4743 65.890382,286.9781 63.555922,286.5484 z M 161.80273,286.1805 C 160.49067,285.9696 159.31589,285.5707 157.70935,284.7905 C 156.31635,284.114 155.9877,283.8727 154.70754,282.5863 C 153.41958,281.292 153.18299,280.9653 152.43391,279.4465 C 151.04028,276.6208 150.78371,274.9874 151.2319,271.7946 C 151.51246,269.796 151.54585,269.6572 152.06248,268.3418 C 152.78561,266.5007 153.59648,265.3381 155.78485,263.0051 C 156.9288,261.7855 157.06912,261.5029 156.7215,261.1188 C 156.36346,260.7231 156.14916,260.7682 155.19021,261.4409 C 153.41125,262.6887 150.42155,263.5641 147.87687,263.5822 C 145.04385,263.6023 142.81759,262.8215 140.53373,261.0066 C 138.87747,259.6904 137.12463,257.1965 136.42349,255.1586 C 136.06614,254.1199 135.95785,250.6938 136.23389,249.1599 C 136.80933,245.9623 139.2165,242.6799 142.3685,240.7948 C 143.89844,239.8797 144.21253,239.7414 145.64222,239.3529 C 148.17965,238.6634 151.1675,239.0378 153.93897,240.3925 C 157.10794,241.9415 160.11387,245.4048 160.70116,248.1834 C 160.79593,248.6318 160.93486,249.116 161.00989,249.2594 C 161.15812,249.5427 161.8044,249.6151 161.95854,249.3657 C 162.01103,249.2808 162.04932,248.6155 162.04364,247.8872 C 162.02725,245.7864 161.05224,241.3944 159.49579,236.4101 C 159.25271,235.6317 158.54983,233.9952 157.93384,232.7734 C 157.31784,231.5516 156.85341,230.5125 156.90176,230.4643 C 157.03311,230.3332 170.57696,230.4511 170.71252,230.5845 C 170.82273,230.6929 170.62619,231.1825 169.48026,233.654 C 168.09988,236.6312 166.81635,240.7872 166.21359,244.2314 C 165.68508,247.2513 165.607,249.0538 165.98821,249.435 C 166.49614,249.9429 166.87256,249.6358 167.08877,248.537 C 167.51598,246.3659 168.77239,244.1432 170.37239,242.728 C 173.93054,239.5809 178.79167,238.2541 182.88122,239.3138 C 186.20847,240.176 189.45732,243.0371 190.80358,246.2907 C 191.63587,248.3022 191.82507,249.2584 191.8251,251.4538 C 191.82514,253.819 191.48941,255.2472 190.40614,257.4904 C 189.67377,259.0069 188.858,260.0012 187.30736,261.2673 C 186.04853,262.2951 185.43332,262.6278 183.92749,263.0951 C 182.95994,263.3953 182.49576,263.4417 180.42833,263.4453 C 178.4045,263.4488 177.84232,263.397 176.70391,263.1018 C 175.51474,262.7934 174.06057,262.1641 172.66937,261.3559 C 172.07537,261.0108 171.71318,261.1495 171.71318,261.722 C 171.71318,262.075 171.94763,262.3988 172.8761,263.3282 C 173.5157,263.9684 174.21145,264.7269 174.42221,265.0137 C 174.91195,265.6801 175.82396,267.4044 176.19514,268.3657 C 176.61481,269.4526 177.22533,272.4802 177.22533,273.4744 C 177.22533,274.6411 176.95993,276.6891 176.68581,277.6378 C 176.13012,279.5608 174.07089,282.3721 172.21812,283.737 C 169.76894,285.5414 167.91975,286.1527 164.63678,286.2433 C 163.48965,286.2749 162.21432,286.2467 161.80273,286.1805 z M 204.71878,263.3654 C 203.5236,262.9445 202.81468,262.4171 202.12806,261.4382 C 200.46515,259.0675 200.70739,256.7984 202.88029,254.3919 C 203.47264,253.7359 203.81341,253.2762 203.63758,253.3703 C 203.46175,253.4644 203.21246,253.5009 203.08361,253.4515 C 202.95478,253.4021 202.84936,253.4358 202.84936,253.5265 C 202.84936,253.6172 202.74238,253.6914 202.61164,253.6914 C 202.4809,253.6914 202.19598,253.7866 201.97849,253.9029 C 200.68198,254.5961 199.73559,254.7246 198.44891,254.3819 C 197.11645,254.027 195.77379,252.9348 195.32425,251.8401 C 194.89864,250.8036 194.78004,249.3629 195.01837,248.1244 C 195.52977,245.4668 197.12783,244.0131 199.67472,243.8887 C 201.42069,243.8034 202.1307,244.0721 203.25576,245.2437 C 204.26422,246.2939 204.5032,246.6976 204.86262,247.9578 C 205.16433,249.0156 205.27193,249.1618 205.52476,248.8571 C 205.67678,248.674 205.679,248.3838 205.53586,247.3983 C 205.17371,244.905 204.61238,243.008 203.7725,241.4391 C 203.37217,240.6913 203.27779,240.3914 203.40332,240.2659 C 203.51006,240.1591 204.55117,240.0692 206.23979,240.0208 C 209.10831,239.9385 210.29821,240.0338 210.29821,240.3457 C 210.29821,240.4518 209.96953,241.1684 209.56782,241.9381 C 208.24979,244.4635 207.02439,248.3915 207.42851,248.7957 C 207.6814,249.0485 207.87042,248.837 208.14725,247.9913 C 208.70976,246.273 209.55347,245.1377 210.699,244.5578 C 211.94981,243.9246 213.93679,243.8837 215.15547,244.4662 C 216.08861,244.9121 217.08543,245.9832 217.47338,246.9569 C 217.95378,248.1624 217.9694,250.6156 217.50313,251.624 C 216.71162,253.3358 215.09072,254.3473 213.19672,254.3113 C 212.02205,254.2889 211.50009,254.1361 209.85479,253.3326 C 208.2296,252.539 208.12133,252.6885 209.38124,253.9864 C 210.8434,255.4928 211.37388,256.5768 211.46099,258.2363 C 211.55493,260.0262 211.23322,260.965 210.15677,262.0424 C 209.03193,263.1681 208.13883,263.5825 206.72276,263.6357 C 205.88652,263.6672 205.38237,263.5992 204.71878,263.3654 z M 113.23973,237.0067 C 111.61628,236.8115 110.18026,236.3337 108.24284,235.3443 C 107.06314,234.7418 105.06734,232.9194 104.24288,231.6918 C 103.37831,230.4045 102.57785,228.5709 102.27043,227.1736 C 101.98225,225.8637 101.972,225.613 102.13277,223.8073 C 102.49397,219.7508 103.28249,217.9075 106.01102,214.7413 C 107.09674,213.4814 107.80207,212.5372 107.80207,212.3435 C 107.80207,212.1678 107.66702,211.9019 107.50195,211.7525 C 107.2095,211.4878 107.18571,211.493 106.57084,211.957 C 105.44604,212.8058 104.91844,213.1026 103.66722,213.5905 C 101.51741,214.4289 100.7643,214.5728 98.565502,214.5651 C 96.709012,214.5586 96.447402,214.5218 95.164282,214.0862 C 94.399762,213.8266 93.628802,213.5375 93.451042,213.4435 C 92.574102,212.9802 90.386092,211.2063 89.924842,210.5847 C 89.638062,210.1982 89.212122,209.6329 88.978302,209.3284 C 88.363982,208.5286 87.423532,206.6005 87.166632,205.6141 C 86.912552,204.6387 86.873302,201.7156 87.093802,200.1914 C 87.396982,198.0958 88.998992,195.2885 90.893122,193.5337 C 93.695842,190.9371 97.426492,189.593 100.51116,190.0684 C 103.15205,190.4755 105.67338,191.5906 107.31494,193.0776 C 109.64434,195.1877 110.90795,197.0501 111.44189,199.1602 C 111.73077,200.3019 112.00961,200.5659 112.55908,200.2182 C 113.07188,199.8937 112.43817,195.1729 111.4479,191.9405 C 111.24709,191.285 110.81117,189.8101 110.47919,188.663 C 110.02475,187.0927 109.55891,185.9415 108.594,184.004 C 107.88912,182.5887 107.34178,181.4013 107.37769,181.3654 C 107.42682,181.3163 118.74686,181.2471 120.89217,181.2828 C 121.36394,181.2906 121.33069,181.4065 119.96267,184.5207 C 118.02636,188.9287 116.72166,193.997 116.4975,197.9818 C 116.39409,199.8202 116.51357,200.3577 117.02564,200.3577 C 117.40758,200.3577 117.5831,200.0929 117.70979,199.3255 C 117.97714,197.7061 119.09461,195.4471 120.31139,194.0662 C 121.04516,193.2335 123.00589,191.786 124.26438,191.1481 C 125.42824,190.5581 127.13133,189.9943 128.42823,189.7697 C 129.69667,189.55 132.60844,189.6738 133.61257,189.9902 C 135.23727,190.502 136.80319,191.3772 138.03277,192.4607 C 139.66511,193.8991 140.46649,194.9301 141.25756,196.6095 C 143.17,200.6695 142.90999,205.0289 140.51539,209.0531 C 139.85084,210.1699 138.26243,211.7554 136.90647,212.6555 C 135.40716,213.6506 133.1773,214.2126 130.72746,214.2126 C 128.74957,214.2126 125.75651,213.3931 124.1124,212.4015 C 123.06986,211.7727 122.82781,211.7186 122.5509,212.0523 C 122.28626,212.3711 122.59539,213.0481 123.27679,213.642 C 125.36854,215.4649 126.93477,218.1941 127.69595,221.3424 C 128.07618,222.9151 128.09922,223.1886 128.02223,225.2158 C 127.92495,227.777 127.66902,228.7603 126.65957,230.451 C 124.39709,234.2406 121.47656,236.2287 117.1387,236.9322 C 115.7005,237.1655 114.71594,237.1843 113.23973,237.0067 z M 63.477942,188.0051 C 62.218812,187.802 61.014422,187.3986 59.533552,186.6837 C 57.282672,185.5971 55.122062,183.3357 54.036422,180.9302 C 52.954472,178.5329 52.685082,176.8295 52.972882,174.2051 C 53.211632,172.0281 53.450422,171.0262 54.082172,169.5509 C 54.736272,168.0235 55.202832,167.3351 56.931752,165.3464 C 58.574672,163.4567 58.727822,163.2019 58.509232,162.7222 C 58.270502,162.1982 57.834082,162.2833 56.841372,163.0471 C 55.928802,163.7493 54.754412,164.296 52.829582,164.9146 C 51.849892,165.2294 51.446172,165.2722 49.552092,165.262 C 47.692652,165.252 47.257122,165.2025 46.423582,164.9062 C 43.088882,163.7207 40.769322,161.5116 39.078412,157.9105 C 38.458052,156.5893 38.079372,154.7649 38.086602,153.132 C 38.092272,151.8532 38.601082,149.2898 39.077212,148.1413 C 40.434172,144.868 43.799362,141.7925 47.168462,140.7465 C 48.765932,140.2505 51.521442,140.2499 53.127542,140.7452 C 54.769272,141.2515 56.813402,142.2988 57.732512,143.1047 C 59.973802,145.0698 61.856332,147.8256 62.139902,149.5566 C 62.291092,150.4794 62.461372,150.7484 62.894462,150.7484 C 63.437762,150.7484 63.545912,150.2911 63.388982,148.6572 C 63.192992,146.6168 62.742772,144.2858 62.052072,141.7353 C 60.968502,137.7341 60.580622,136.6184 59.452852,134.2587 C 58.841742,132.9801 58.341732,131.8431 58.341732,131.7322 C 58.341732,131.5654 59.487052,131.5308 64.933962,131.5326 C 68.559692,131.5339 71.619272,131.5939 71.733032,131.6659 C 71.900132,131.7717 71.774862,132.1792 71.081042,133.7866 C 69.772052,136.8191 69.722672,136.936 69.548642,137.4149 C 68.486132,140.3393 67.610962,144.0622 67.147872,147.6276 C 66.845382,149.9565 67.003682,150.8229 67.731682,150.8229 C 68.040912,150.8229 68.119702,150.7276 68.224752,150.227 C 68.655262,148.175 68.986252,147.3467 70.047512,145.6656 C 71.357092,143.5911 74.293212,141.5693 77.410782,140.5953 C 78.380902,140.2922 78.832342,140.2462 80.837252,140.2463 C 83.391972,140.2465 83.811572,140.3346 85.771242,141.2824 C 87.200902,141.9739 89.233602,143.756 90.235542,145.1965 C 92.573512,148.5576 93.194292,152.7929 91.924102,156.7166 C 90.924922,159.8032 89.945642,161.2221 87.380832,163.2996 C 85.336922,164.9552 81.390852,165.5873 78.230152,164.7654 C 76.861612,164.4096 74.770582,163.5244 73.996482,162.9732 C 73.488622,162.6115 73.193662,162.5861 72.947402,162.8829 C 72.651472,163.2394 72.902482,163.6645 74.301812,165.1763 C 75.353992,166.313 75.799632,166.9422 76.428372,168.1787 C 77.350772,169.9926 77.585722,170.6749 78.001122,172.7459 C 78.456792,175.0176 78.364352,177.6884 77.764752,179.5754 C 77.456282,180.5462 76.514582,182.1514 75.513852,183.4123 C 74.523182,184.6605 74.313912,184.862 73.015962,185.8172 C 71.030552,187.2784 68.893612,187.9715 66.088532,188.0642 C 65.064312,188.0981 63.889552,188.0714 63.477942,188.0051 z M 162.18769,187.5327 C 159.68837,187.2093 156.9881,185.9894 155.2855,184.4146 C 152.9604,182.2641 151.67804,180.001 151.15057,177.1173 C 150.82907,175.3597 151.25429,171.9434 152.05586,169.8443 C 152.65173,168.2839 153.28812,167.3252 155.23555,165.0545 C 156.45357,163.6342 156.81856,163.1113 156.78496,162.8348 C 156.72995,162.3822 156.30476,162.0877 156.00543,162.2949 C 155.88765,162.3764 155.43513,162.6938 154.99983,163.0002 C 153.24028,164.2387 150.17235,165.1868 147.8163,165.2202 C 143.549,165.2807 139.97436,163.2862 137.62586,159.5346 C 136.16411,157.1995 135.81194,155.9861 135.8108,153.281 C 135.80958,150.3654 136.29789,148.6107 137.69811,146.4991 C 139.16723,144.2837 141.86391,142.055 144.07778,141.2267 C 146.60499,140.2812 149.20963,140.254 151.87358,141.1454 C 153.86001,141.8101 154.89215,142.3633 156.16839,143.4472 C 158.47273,145.4042 159.98101,147.559 160.44135,149.5516 C 160.69315,150.6416 160.83448,150.8189 161.34838,150.6899 C 161.69929,150.6019 161.73162,150.5278 161.7305,149.8144 C 161.72654,147.2849 160.93543,143.7143 159.16486,138.2343 C 158.73051,136.89 157.46434,134.1496 156.58155,132.6433 C 156.2481,132.0743 156.21209,131.925 156.38282,131.8195 C 156.69769,131.6249 170.17975,131.6371 170.30025,131.8321 C 170.35403,131.9191 170.33394,132.0712 170.25561,132.17 C 169.88938,132.6321 168.0671,136.9856 167.49903,138.7557 C 166.07792,143.1838 165.05634,149.425 165.58957,150.4214 C 165.78093,150.7789 166.46963,150.8785 166.56376,150.5622 C 166.59424,150.4597 166.73431,149.8731 166.87502,149.2586 C 167.32007,147.3149 168.72335,144.8961 170.04999,143.786 C 173.22381,141.1303 176.75291,139.8585 180.34888,140.0745 C 182.18815,140.185 183.00356,140.3841 184.5252,141.0943 C 186.27088,141.9092 188.13251,143.4426 189.3084,145.0343 C 190.02145,145.9996 190.97505,148.0456 191.37321,149.4645 C 191.9142,151.3925 191.76579,154.7038 191.05192,156.633 C 190.14163,159.093 189.31573,160.4183 187.84896,161.7729 C 185.90103,163.5718 184.4397,164.2949 182.15512,164.5903 C 180.29906,164.8302 178.78835,164.7883 177.22096,164.4533 C 175.47528,164.0803 174.48292,163.712 173.19285,162.9586 C 172.06302,162.2987 171.97484,162.2768 171.71479,162.5901 C 171.3934,162.9774 171.69425,163.5678 172.68171,164.4876 C 174.67647,166.3458 175.98804,168.6027 176.7775,171.5354 C 177.24563,173.2744 177.25556,173.3754 177.17979,175.6275 C 177.11868,177.4438 177.0334,178.1434 176.78027,178.905 C 176.11468,180.9078 174.33398,183.4168 172.61056,184.7802 C 170.71413,186.2805 169.23197,186.9119 166.44373,187.407 C 164.74191,187.7093 163.77301,187.7379 162.18769,187.5327 z M 107.22462,138.5524 C 107.05616,138.4411 107.08695,138.2746 107.39742,137.618 C 108.76521,134.7254 109.75783,132.0357 110.63365,128.8488 C 111.38576,126.1119 112.00427,121.2878 111.76594,120.0174 C 111.58663,119.0616 110.86766,119.175 110.69852,120.1858 C 110.35247,122.2539 109.00185,124.807 107.48364,126.2629 C 105.87312,127.8073 103.44537,129.1896 101.32158,129.7714 C 100.38013,130.0293 99.707272,130.0996 98.118572,130.1063 C 95.800552,130.116 95.217582,129.9888 93.270502,129.0485 C 91.094822,127.9978 88.474402,125.444 87.733982,123.6528 C 87.611292,123.356 87.352162,122.7637 87.158142,122.3365 C 86.559312,121.0181 86.335172,119.7089 86.321932,117.452 C 86.311602,115.6921 86.362262,115.1918 86.646272,114.249 C 87.123042,112.6663 87.815092,111.0219 88.373012,110.146 C 89.012772,109.1416 90.582242,107.5678 91.703132,106.8066 C 94.679952,104.7851 99.470562,104.6308 103.30733,106.4329 C 103.90787,106.7149 104.58862,107.0806 104.8201,107.2454 C 105.63207,107.8236 106.22355,107.4826 105.80254,106.679 C 105.68721,106.4589 105.34744,106.0441 105.04751,105.7574 C 103.11338,103.908 101.53644,101.104 100.85846,98.3085 C 100.18799,95.544 100.34953,92.1595 101.24587,90.1919 C 103.06105,86.2074 106.37661,83.587 110.74948,82.681 C 113.92166,82.0238 117.26318,82.5709 120.26157,84.2386 C 121.31413,84.824 123.32899,86.7178 124.05361,87.8028 C 125.39212,89.8071 126.27372,92.398 126.2762,94.3347 C 126.27907,96.5823 125.69518,99.1784 124.73636,101.1812 C 124.05911,102.5958 123.68053,103.149 122.26954,104.7856 C 120.56672,106.7608 120.29213,107.2316 120.6157,107.6215 C 120.90124,107.9656 121.15724,107.892 121.99651,107.2245 C 122.9249,106.4861 124.51581,105.7339 126.26457,105.2065 C 127.35492,104.8777 127.83541,104.8201 129.55271,104.8123 C 131.25205,104.8045 131.73714,104.8566 132.68122,105.1483 C 135.5181,106.0248 137.56281,107.5975 139.33882,110.269 C 140.72332,112.3515 141.31684,114.4071 141.32066,117.1327 C 141.32243,118.3911 140.8913,120.569 140.40778,121.7445 C 139.90549,122.9655 138.34411,125.2346 137.34994,126.1882 C 135.7906,127.684 133.56306,128.9546 131.61404,129.4601 C 130.54968,129.7361 130.10579,129.7709 128.50987,129.7031 C 126.87051,129.6336 126.47417,129.5616 125.19803,129.1019 C 122.79464,128.2361 121.9266,127.6723 120.08542,125.7811 C 118.04352,123.6836 117.24722,122.4023 116.74199,120.401 C 116.4752,119.3443 115.81391,119.0234 115.60643,119.8501 C 115.33788,120.9201 116.10152,125.1919 117.34822,129.5937 C 117.68472,130.7818 118.05958,132.1176 118.18124,132.5622 C 118.3029,133.0068 118.96022,134.4988 119.64194,135.8776 C 120.49294,137.5989 120.82785,138.4195 120.71051,138.4957 C 120.45922,138.659 107.46871,138.7136 107.22462,138.5524 z M 59.198352,89.0993 C 58.747222,89.0474 58.685822,88.8445 58.985942,88.3974 C 59.444432,87.7145 61.198022,83.1766 61.747682,81.2506 C 62.731922,77.802 63.286522,74.5387 63.313742,72.0359 C 63.329652,70.5727 63.292952,70.2749 63.068952,70.0496 C 62.701302,69.6797 62.324652,69.9452 62.163432,70.6879 C 61.596122,73.3012 60.474012,75.4567 58.911032,76.9355 C 56.885432,78.8521 54.523682,80.1512 52.151502,80.6537 C 50.836472,80.9323 48.284012,80.9358 46.986312,80.6608 C 45.663552,80.3805 43.281302,79.1419 42.254652,78.2007 C 41.805342,77.7888 41.387932,77.4517 41.327092,77.4517 C 41.266252,77.4517 40.851572,76.9657 40.405592,76.3716 C 39.596302,75.2937 38.612342,73.3925 38.168452,72.0491 C 37.488022,69.9897 37.481632,66.9613 38.152962,64.7142 C 38.870262,62.3133 39.641872,60.9024 41.008402,59.4931 C 43.392022,57.0348 45.572932,56.1479 49.233352,56.1482 C 51.724962,56.1483 53.920332,56.7039 55.824222,57.8159 C 56.893692,58.4406 57.298892,58.4429 57.298892,57.8245 C 57.298892,57.5488 56.921112,57.0612 55.897312,56.0154 C 54.102412,54.182 52.939052,52.1594 52.203382,49.593 C 51.738962,47.973 51.712872,47.7543 51.723512,45.5707 C 51.740042,42.1768 52.176492,40.8263 54.087642,38.2556 C 55.783292,35.9746 57.816272,34.4965 60.254742,33.7715 C 66.045032,32.05 71.700992,33.6849 74.966592,38.024 C 75.801792,39.1337 76.756352,41.1567 77.121662,42.5911 C 77.854442,45.4685 77.085102,50.1709 75.440612,52.8659 C 75.090302,53.4401 74.194672,54.6313 73.450332,55.5131 C 71.830112,57.4325 71.681452,57.6789 71.898632,58.0847 C 72.144152,58.5435 72.590602,58.4436 73.512712,57.7238 C 74.474552,56.9729 75.496842,56.4927 77.457892,55.8707 C 80.851632,54.7943 84.361382,55.2627 87.282582,57.1819 C 88.687452,58.1049 89.243682,58.6419 90.347102,60.1406 C 91.962662,62.3348 92.527952,63.8694 92.699792,66.5273 C 92.933222,70.1379 91.743632,73.3468 89.100502,76.2364 C 87.876872,77.5741 85.443432,79.1427 83.826542,79.6359 C 82.278562,80.108 80.726552,80.3174 79.645432,80.1999 C 77.599762,79.9775 74.502392,78.7665 73.097572,77.6397 C 71.942872,76.7136 70.243682,74.8901 69.590632,73.8763 C 68.966842,72.9079 68.492542,71.819 68.183152,70.645 C 68.005402,69.9705 67.577802,69.6942 67.198712,70.0088 C 66.925252,70.2358 66.924382,71.1322 67.195822,72.9824 C 67.531812,75.2726 68.037712,77.2415 69.549992,82.1445 C 69.975002,83.5225 71.406352,86.6579 72.168352,87.8801 C 72.446182,88.3258 72.586342,88.8466 72.457302,88.9539 C 72.391812,89.0084 59.624592,89.1483 59.198352,89.0993 z M 57.596852,68.0099 C 57.596852,67.979 57.479532,67.8617 57.336142,67.7492 C 57.099852,67.5639 57.094582,67.5692 57.279892,67.8055 C 57.474512,68.0536 57.596852,68.1326 57.596852,68.0099 z M 161.02408,88.8212 C 157.38373,88.7795 156.51753,88.7313 156.51753,88.5701 C 156.51753,88.4604 156.84511,87.7072 157.24548,86.8963 C 159.12452,83.0907 160.2569,79.5662 161.06969,74.9936 C 161.41595,73.0456 161.4552,69.9058 161.13582,69.7026 C 161.01291,69.6245 160.86685,69.5595 160.81126,69.5582 C 160.55214,69.5524 160.26862,70.0507 160.17471,70.677 C 159.93726,72.2603 158.56996,74.8626 157.26207,76.2204 C 155.73726,77.8033 153.08103,79.3187 150.73451,79.9443 C 148.89145,80.4356 145.95834,80.497 144.52489,80.0743 C 142.40612,79.4494 140.91175,78.5489 139.07893,76.7925 C 137.45432,75.2356 136.37828,73.2913 135.65239,70.6011 C 135.36413,69.5329 135.33512,69.1423 135.40534,67.2759 C 135.48623,65.1259 135.59788,64.5968 136.40186,62.554 C 137.19,60.5515 138.97128,58.4156 140.94944,57.1013 C 143.92842,55.122 149.21123,55.0363 153.01657,56.9056 C 153.67207,57.2276 154.38224,57.6023 154.59471,57.7383 C 155.08912,58.0547 155.47469,57.9101 155.47469,57.4081 C 155.47469,57.1275 155.1534,56.6829 154.314,55.8019 C 152.79791,54.2108 152.52528,53.8298 151.61935,52.0357 C 150.24757,49.3192 149.73838,46.4461 150.09413,43.4296 C 150.2883,41.7833 150.58897,40.8962 151.43042,39.4874 C 153.33766,36.2941 156.01893,34.1989 159.27361,33.3584 C 163.1072,32.3685 166.18794,32.6848 169.77571,34.4367 C 170.82842,34.9508 171.29353,35.3063 172.54155,36.551 C 173.83707,37.8431 174.14474,38.2507 174.79538,39.5371 C 176.22368,42.361 176.48284,43.7688 176.11436,46.7019 C 175.60488,50.7576 174.78932,52.4343 171.61247,55.9575 C 170.84849,56.8047 170.22341,57.5674 170.22341,57.6522 C 170.22341,57.9823 170.5452,58.3827 170.81047,58.3827 C 170.96371,58.3827 171.38034,58.1377 171.73633,57.8384 C 172.74301,56.9917 174.93056,56.0769 177.21062,55.5489 C 177.74752,55.4246 178.66468,55.3888 179.9667,55.4414 C 181.70411,55.5115 182.07396,55.5764 183.33936,56.033 C 186.67686,57.2372 189.1359,59.6402 190.66841,63.1949 C 191.19217,64.4097 191.24373,64.6559 191.32967,66.3518 C 191.54943,70.6877 190.45823,73.5418 187.4211,76.5752 C 185.98014,78.0144 183.74663,79.3859 182.06708,79.8629 C 181.07103,80.1457 180.53266,80.1995 178.78959,80.19 C 176.85455,80.1794 176.60365,80.1445 175.31571,79.7064 C 172.31274,78.6849 170.92418,77.6907 168.61434,74.9082 C 167.47129,73.5312 166.75231,72.1915 166.49733,70.9633 C 166.2697,69.8668 166.04267,69.5935 165.54695,69.8194 C 165.19274,69.9808 165.15843,70.0729 165.16092,70.8563 C 165.16448,71.9782 165.50756,74.2998 165.95947,76.2599 C 166.57181,78.916 167.95555,83.5881 168.40828,84.5281 C 168.64503,85.0198 168.96058,85.6902 169.1095,86.0179 C 169.25841,86.3457 169.643,87.0715 169.96412,87.6309 C 170.28524,88.1904 170.51034,88.6857 170.46434,88.7317 C 170.35004,88.846 166.43684,88.8831 161.02408,88.8212 z M 20.120322,78.8977 C 20.072632,78.7735 20.234432,78.2799 20.479882,77.801 C 21.566162,75.6816 22.728332,72.0587 22.734042,70.7741 C 22.737772,69.9352 22.278502,70.2315 21.845802,71.3472 C 21.068902,73.3503 20.391112,74.1435 18.906932,74.7865 C 18.325202,75.0385 17.971002,75.0847 17.000632,75.0353 C 13.993232,74.8821 12.305312,72.7633 12.484462,69.3665 C 12.595792,67.2556 13.473572,65.9222 15.295962,65.0955 C 16.350562,64.6171 18.012932,64.6706 19.229242,65.2221 C 19.754902,65.4604 20.486192,65.8626 20.854312,66.1159 C 21.470292,66.5397 21.991362,66.7085 21.991362,66.4841 C 21.991362,66.4334 21.431442,65.8035 20.747102,65.0844 C 19.790012,64.0786 19.415332,63.5582 19.123652,62.8297 C 18.113092,60.3053 18.621832,57.8504 20.458312,56.3893 C 21.597212,55.4832 22.444542,55.2092 23.900882,55.2761 C 25.162702,55.334 26.408862,55.8391 27.112262,56.5776 C 28.249682,57.7718 28.993532,59.889 28.760432,61.2687 C 28.566882,62.4144 27.849912,63.7342 26.772962,64.9273 C 26.519262,65.2083 26.311692,65.5212 26.311692,65.6225 C 26.311692,65.7238 26.227892,65.8374 26.125472,65.875 C 25.991942,65.9239 25.984542,65.9917 26.099302,66.1145 C 26.218042,66.2415 26.438492,66.1489 26.953332,65.7558 C 27.335022,65.4644 28.000432,65.0449 28.432022,64.8235 C 30.025162,64.0066 32.157232,64.403 33.523742,65.7701 C 34.262192,66.5089 34.609142,67.2925 34.803022,68.6596 C 35.287932,72.0786 33.260492,75.0264 30.309272,75.1932 C 28.907732,75.2724 27.999112,74.9374 26.929632,73.9473 C 26.036182,73.1201 25.600572,72.4056 25.183332,71.083 C 25.000482,70.5033 24.863902,70.3008 24.655802,70.3008 C 24.264632,70.3008 24.286142,70.9353 24.750612,73.0967 C 25.231792,75.3359 25.315832,75.5948 26.128542,77.3416 C 26.500642,78.1414 26.756192,78.8446 26.696442,78.9044 C 26.636682,78.9641 25.152122,79.0379 23.397412,79.0684 C 20.648952,79.116 20.195022,79.0924 20.120322,78.8977 z M 22.104162,50.045 C 19.485352,49.5669 16.906622,47.9784 15.613022,46.0464 C 14.504962,44.3916 14.095082,42.9625 14.096412,40.7588 C 14.098122,37.9315 15.096972,35.7873 17.253042,33.9825 L 18.425092,33.0014 L 17.460122,32.1305 C 14.347172,29.3209 14.403472,24.2351 17.582792,21.0475 C 19.389062,19.2365 21.156022,18.5489 23.936402,18.575 C 25.414032,18.5889 25.839902,18.6524 26.941852,19.0227 C 28.604822,19.5815 29.597152,20.2306 30.544572,21.3792 C 33.446082,24.8968 33.410162,29.1837 30.455732,31.9833 C 30.143002,32.2796 29.887142,32.6064 29.887142,32.7095 C 29.887142,32.8126 30.138532,33.0674 30.445802,33.2758 C 31.499222,33.9902 32.867152,35.4791 33.325462,36.4101 C 33.571152,36.9092 33.906102,37.9731 34.069792,38.7743 C 34.328132,40.0389 34.345782,40.3892 34.203512,41.4282 C 33.857982,43.9518 33.016432,45.6215 31.173962,47.439 C 29.268752,49.3183 27.532462,50.0341 24.672942,50.1188 C 23.648732,50.1491 22.492782,50.1159 22.104162,50.045 z M 27.271422,46.324 C 28.140752,46.0415 28.449972,45.8419 29.211022,45.0717 C 29.761292,44.5148 30.319782,43.7494 30.634922,43.1203 C 31.112552,42.1669 31.153442,41.9789 31.153442,40.7367 C 31.153442,39.5278 31.103932,39.2836 30.675432,38.379 C 29.356342,35.5942 25.991882,33.9295 22.996532,34.5795 C 19.350002,35.3708 17.224102,37.759 17.224102,41.0641 C 17.224102,42.3069 17.730302,43.6952 18.477862,44.5027 C 19.084962,45.1586 20.443052,45.9463 21.752132,46.4018 C 22.693132,46.7293 23.001062,46.7641 24.523972,46.7152 C 25.778942,46.6748 26.513832,46.5702 27.271422,46.324 z M 25.861312,31.335 C 27.182722,31.0236 28.115242,30.3885 28.835922,29.3093 C 29.509052,28.3013 29.651092,27.7562 29.561912,26.5234 C 29.499972,25.667 29.040652,24.573 28.351942,23.6415 C 27.882502,23.0065 26.660872,22.2506 25.496032,21.8744 C 24.537812,21.5649 24.350912,21.5512 23.095882,21.698 C 20.672452,21.9816 18.812922,23.323 18.251072,25.1928 C 17.976262,26.1073 18.077602,27.653 18.468332,28.5065 C 18.956822,29.5735 20.182162,30.7411 21.152962,31.0647 C 22.615502,31.5523 24.484362,31.6595 25.861312,31.335 z"
     id="path6493" />
  <g
     id="g3796"
     transform="translate(1.593878e-6,0)">
    <rect
       ry="11.25"
       rx="11.25"
       y="3.4247196"
       x="3.6058116"
       height="311.81104"
       width="223.22835"
       id="rect2382"
       style="fill:none;fill-opacity:1;fill-rule:nonzero;stroke:#000000;stroke-width:0.03543307;stroke-linejoin:round;stroke-miterlimit:4;stroke-dasharray:none;stroke-opacity:1" />
    <g
       transform="translate(3.5433116,3.3622195)"
       id="g3164">
      <path
         style="fill:none;fill-rule:evenodd;stroke:#000000;stroke-width:0.03221492;stroke-linecap:butt;stroke-linejoin:miter;stroke-miterlimit:4;stroke-dasharray:none;stroke-opacity:1"
         d="M 219.74754,0.062511534 L 226.70838,0.062511534"
         id="path3160"
         sodipodi:nodetypes="cc" />
      <path
         sodipodi:nodetypes="cc"
         id="path3162"
         d="M 223.29036,-3.2997195 L 223.29036,3.6063107"
         style="fill:none;fill-rule:evenodd;stroke:#000000;stroke-width:0.03196126;stroke-linecap:butt;stroke-linejoin:miter;stroke-miterlimit:4;stroke-dasharray:none;stroke-opacity:1" />
    </g>
    <g
       transform="matrix(1.0001093,0,0,1,3.519309,315.17275)"
       id="g3168">
      <path
         sodipodi:nodetypes="cc"
         id="path3170"
         d="M 219.74754,0.062511534 L 226.70838,0.062511534"
         style="fill:none;fill-rule:evenodd;stroke:#000000;stroke-width:0.03221492;stroke-linecap:butt;stroke-linejoin:miter;stroke-miterlimit:4;stroke-dasharray:none;stroke-opacity:1" />
      <path
         style="fill:none;fill-rule:evenodd;stroke:#000000;stroke-width:0.03196126;stroke-linecap:butt;stroke-linejoin:miter;stroke-miterlimit:4;stroke-dasharray:none;stroke-opacity:1"
         d="M 223.29036,-3.2997195 L 223.29036,3.6063107"
         id="path3172"
         sodipodi:nodetypes="cc" />
    </g>
    <g
       id="g3174"
       transform="matrix(1.0001093,0,0,1,-219.70906,315.17275)">
      <path
         style="fill:none;fill-rule:evenodd;stroke:#000000;stroke-width:0.03221492;stroke-linecap:butt;stroke-linejoin:miter;stroke-miterlimit:4;stroke-dasharray:none;stroke-opacity:1"
         d="M 219.74754,0.062511534 L 226.70838,0.062511534"
         id="path3176"
         sodipodi:nodetypes="cc" />
      <path
         sodipodi:nodetypes="cc"
         id="path3178"
         d="M 223.29036,-3.2997195 L 223.29036,3.6063107"
         style="fill:none;fill-rule:evenodd;stroke:#000000;stroke-width:0.03196126;stroke-linecap:butt;stroke-linejoin:miter;stroke-miterlimit:4;stroke-dasharray:none;stroke-opacity:1" />
    </g>
    <g
       transform="translate(-219.68504,3.3622195)"
       id="g3180">
      <path
         sodipodi:nodetypes="cc"
         id="path3182"
         d="M 219.74754,0.062511534 L 226.70838,0.062511534"
         style="fill:none;fill-rule:evenodd;stroke:#000000;stroke-width:0.03221492;stroke-linecap:butt;stroke-linejoin:miter;stroke-miterlimit:4;stroke-dasharray:none;stroke-opacity:1" />
      <path
         style="fill:none;fill-rule:evenodd;stroke:#000000;stroke-width:0.03196126;stroke-linecap:butt;stroke-linejoin:miter;stroke-miterlimit:4;stroke-dasharray:none;stroke-opacity:1"
         d="M 223.29036,-3.2997195 L 223.29036,3.6063107"
         id="path3184"
         sodipodi:nodetypes="cc" />
    </g>
  </g>
</svg>
