<?xml version="1.0" encoding="UTF-8" standalone="no"?>
<!-- Created with Inkscape (http://www.inkscape.org/) -->
<svg
   xmlns:dc="http://purl.org/dc/elements/1.1/"
   xmlns:cc="http://creativecommons.org/ns#"
   xmlns:rdf="http://www.w3.org/1999/02/22-rdf-syntax-ns#"
   xmlns:svg="http://www.w3.org/2000/svg"
   xmlns="http://www.w3.org/2000/svg"
   xmlns:sodipodi="http://sodipodi.sourceforge.net/DTD/sodipodi-0.dtd"
   xmlns:inkscape="http://www.inkscape.org/namespaces/inkscape"
   id="svg14636"
   sodipodi:version="0.32"
   inkscape:version="0.46"
   width="230.31497"
   height="318.84155"
   version="1.0"
   sodipodi:docname="8d.svg"
   inkscape:output_extension="org.inkscape.output.svg.inkscape">
  <metadata
     id="metadata14641">
    <rdf:RDF>
      <cc:Work
         rdf:about="">
        <dc:format>image/svg+xml</dc:format>
        <dc:type
           rdf:resource="http://purl.org/dc/dcmitype/StillImage" />
      </cc:Work>
    </rdf:RDF>
  </metadata>
  <defs
     id="defs14639">
    <inkscape:perspective
       sodipodi:type="inkscape:persp3d"
       inkscape:vp_x="0 : 526.18109 : 1"
       inkscape:vp_y="0 : 1000 : 0"
       inkscape:vp_z="744.09448 : 526.18109 : 1"
       inkscape:persp3d-origin="372.04724 : 350.78739 : 1"
       id="perspective14643" />
  </defs>
  <sodipodi:namedview
     inkscape:window-height="667"
     inkscape:window-width="878"
     inkscape:pageshadow="2"
     inkscape:pageopacity="0.0"
     guidetolerance="10.0"
     gridtolerance="10.0"
     objecttolerance="10.0"
     borderopacity="1.0"
     bordercolor="#666666"
     pagecolor="#ffffff"
     id="base"
     showgrid="false"
     inkscape:zoom="1.4489956"
     inkscape:cx="115.15749"
     inkscape:cy="159.42078"
     inkscape:window-x="26"
     inkscape:window-y="151"
     inkscape:current-layer="svg14636" />
  <path
     style="fill:#e00000;fill-opacity:1"
     d="M 205.72188,300.2271 C 204.51595,299.9185 202.56896,299.1841 201.99946,298.8229 C 201.25639,298.3517 199.84364,296.7338 199.25147,295.6759 C 198.49214,294.3194 198.14202,292.2004 198.43831,290.7546 C 198.71327,289.4129 199.26666,288.395 200.32495,287.2843 C 200.85521,286.7278 201.28927,286.2295 201.28951,286.177 C 201.28975,286.1246 201.10403,285.961 200.8768,285.8135 C 199.97741,285.2298 198.66697,283.9733 198.06505,283.1175 C 197.10606,281.754 196.70664,280.334 196.71285,278.31 C 196.72114,275.604 197.55721,273.5416 199.50967,271.4108 C 200.52716,270.3004 202.1928,269.274 203.81852,268.7556 C 205.19254,268.3175 208.17882,268.1951 209.5604,268.5202 C 212.7213,269.2641 215.30884,271.1355 216.44924,273.5025 C 217.22249,275.1073 217.29024,275.4602 217.2858,277.8593 C 217.28201,279.9004 217.24608,280.2048 216.90441,281.0893 C 216.32824,282.5809 215.39081,283.8418 214.13472,284.8146 C 213.5262,285.2859 213.0238,285.7482 213.0183,285.842 C 213.01278,285.9358 213.17873,286.1242 213.38708,286.2607 C 214.06055,286.702 215.13419,287.9064 215.50427,288.6357 C 217.25647,292.0891 216.05809,296.4694 212.74394,298.7251 C 211.21072,299.7687 209.84556,300.1857 207.75005,300.2505 C 206.79982,300.2799 205.88714,300.2693 205.72188,300.2271 z M 209.45083,297.0803 C 212.25254,296.2817 213.76629,294.0948 213.31425,291.4989 C 213.10329,290.2875 212.92257,289.9241 212.04686,288.9501 C 210.88042,287.6527 209.06064,287.1579 206.36116,287.4039 C 204.17763,287.6029 202.69414,288.5284 201.86574,290.2084 C 201.45153,291.0484 201.41278,291.247 201.47013,292.2365 C 201.54557,293.5386 201.90044,294.3582 202.86751,295.4637 C 204.31392,297.1172 207.00415,297.7778 209.45083,297.0803 z M 208.96222,284.1523 C 211.05974,283.5296 212.86396,282.1124 213.67373,280.4514 C 214.48662,278.7841 214.46012,276.6153 213.60618,274.9237 C 213.10495,273.9308 212.42197,273.2887 211.23651,272.696 C 209.61973,271.8876 208.85557,271.7053 207.074,271.7033 C 204.11495,271.7 202.18481,272.5956 200.88391,274.5755 C 199.35049,276.9094 199.35497,279.2671 200.89698,281.4662 C 201.61138,282.485 203.39931,283.798 204.55678,284.1539 C 205.54484,284.4577 207.93628,284.4568 208.96222,284.1523 z M 61.420122,286.476 C 61.158042,286.1161 60.839742,285.6189 60.712782,285.371 C 60.585832,285.1231 59.723752,283.771 58.797052,282.3663 C 57.870352,280.9616 56.807872,279.3391 56.435972,278.7607 C 56.064082,278.1823 55.340192,277.1344 54.827322,276.432 C 54.314462,275.7297 53.567782,274.6818 53.168042,274.1034 C 52.768312,273.525 52.315252,272.9047 52.161262,272.7249 C 52.007262,272.5452 51.272822,271.6055 50.529162,270.6368 C 48.770912,268.3465 46.950702,266.243 44.841472,264.064 C 44.334012,263.5398 43.411772,262.5806 42.792052,261.9326 C 42.172342,261.2845 41.361072,260.5213 40.989232,260.2364 C 40.617402,259.9516 40.081132,259.5154 39.797512,259.2671 C 39.316052,258.8456 39.296112,258.7928 39.497042,258.4713 C 39.753112,258.0616 41.531592,256.0441 42.933612,254.5729 C 43.484812,253.9945 44.602282,252.7437 45.416882,251.7935 C 46.231482,250.8433 47.084002,249.863 47.311372,249.6151 C 48.677422,248.1258 52.183352,243.7377 53.603142,241.7402 C 54.038762,241.1274 54.457412,240.5527 54.533472,240.4632 C 54.609532,240.3737 54.855172,240.0227 55.079342,239.6831 C 55.303502,239.3436 55.865112,238.4985 56.327352,237.8052 C 57.693322,235.7565 59.832982,232.1287 60.728352,230.3434 C 61.186962,229.4289 61.622832,228.6433 61.696962,228.5975 C 61.887692,228.4796 62.137882,228.8136 63.234682,230.6504 C 65.108632,233.7887 65.707892,234.7659 66.191152,235.4714 C 66.459702,235.8634 66.679412,236.2185 66.679412,236.2605 C 66.679412,236.3026 67.268532,237.195 67.988562,238.2436 C 70.362932,241.7017 71.364892,243.1322 71.481302,243.2301 C 71.530422,243.2714 72.075732,244.0151 72.693092,244.8827 C 73.310462,245.7503 73.928632,246.5954 74.066822,246.7606 C 74.205002,246.9259 74.576832,247.3725 74.893112,247.7531 C 76.281512,249.424 78.180862,251.4682 80.835342,254.1486 C 82.404532,255.7331 83.664212,257.0975 83.634632,257.1807 C 83.605052,257.2638 82.972402,257.999 82.228732,258.8145 C 81.485072,259.6299 80.437182,260.7961 79.900092,261.406 C 79.363002,262.016 78.590852,262.878 78.184192,263.3217 C 77.777542,263.7653 77.270502,264.3527 77.057432,264.6269 C 76.844372,264.9011 76.130082,265.7934 75.470122,266.6097 C 69.755692,273.6783 65.783672,279.5504 63.135242,284.8452 C 61.877832,287.359 61.987382,287.2549 61.420122,286.476 z M 169.19172,285.033 C 166.86188,281.2678 162.03504,274.2885 160.05045,271.8153 C 159.55467,271.1975 159.01536,270.5131 158.85197,270.2944 C 157.86564,268.9743 156.62076,267.4625 155.49374,266.2161 C 153.14871,263.6226 149.24716,259.7374 148.40724,259.1593 C 147.95278,258.8465 147.4506,258.4455 147.29128,258.268 C 147.00292,257.9469 147.00396,257.943 147.52146,257.3859 C 147.80737,257.0782 148.41096,256.4169 148.86276,255.9164 C 149.31457,255.4159 150.29889,254.3342 151.05013,253.5126 C 153.39992,250.9429 154.83097,249.3071 156.49706,247.2865 C 157.00805,246.6667 157.57566,245.9907 157.75842,245.7841 C 159.74929,243.5338 163.82749,237.9468 165.39867,235.3172 C 165.8346,234.5876 166.50612,233.4836 166.89092,232.8639 C 167.27573,232.2442 168.05269,230.8398 168.61748,229.743 C 169.18227,228.6462 169.71673,227.7722 169.80516,227.8006 C 169.95765,227.8496 170.39156,228.5184 172.89527,232.5634 C 174.52493,235.1963 175.47441,236.6623 176.02001,237.3881 C 176.29244,237.7505 176.8251,238.5202 177.20368,239.0987 C 177.98483,240.2921 182.40307,246.1867 183.11554,246.986 C 185.67537,249.8576 187.24857,251.5179 189.42017,253.6397 C 190.82553,255.0128 191.97501,256.1901 191.97454,256.2559 C 191.97407,256.3218 191.61914,256.7484 191.18581,257.204 C 188.74085,259.7744 185.44845,263.5326 184.01293,265.3915 C 183.80636,265.6591 183.27567,266.3089 182.83361,266.8357 C 182.39158,267.3625 181.85073,268.021 181.63173,268.2989 C 181.41275,268.5769 181.08993,268.9826 180.91436,269.2003 C 179.65846,270.7583 177.01549,274.4002 176.05048,275.9026 C 175.76127,276.3529 175.34804,276.9773 175.13219,277.2903 C 174.35542,278.4164 172.07041,282.405 171.12679,284.2818 C 170.59711,285.3353 170.10713,286.1973 170.03797,286.1973 C 169.96878,286.1973 169.58798,285.6734 169.19172,285.033 z M 206.88637,262.9122 C 206.28337,261.8251 202.85009,256.7699 201.70277,255.2798 C 200.3353,253.5038 200.15193,253.277 199.2226,252.2126 C 198.50305,251.3884 198.50468,251.3745 199.44376,250.3404 C 199.75682,249.9956 200.6214,249.0159 201.36507,248.1633 C 202.10873,247.3106 202.84084,246.4772 202.99199,246.3112 C 203.14313,246.1453 203.71444,245.4179 204.26158,244.6949 C 204.80872,243.9719 205.34001,243.3803 205.44223,243.3803 C 205.54445,243.3803 205.62213,243.262 205.61482,243.1174 C 205.59627,242.7498 207.28372,240.0752 207.53421,240.0752 C 207.64711,240.0752 207.82066,240.2273 207.91988,240.4132 C 208.07555,240.7049 211.01832,245.1617 211.76379,246.2348 C 212.43445,247.2002 213.78618,248.8428 214.99061,250.1559 C 215.71817,250.9492 216.31345,251.7059 216.31345,251.8375 C 216.31345,252.0202 215.2367,253.3384 214.50857,254.047 C 214.46611,254.0883 214.12813,254.494 213.75748,254.9484 C 213.38684,255.4029 212.92759,255.9437 212.73692,256.1503 C 212.54626,256.3569 212.27812,256.7118 212.14106,256.9391 C 212.00399,257.1663 211.84433,257.3522 211.78627,257.3522 C 211.72819,257.3522 211.52661,257.6057 211.33831,257.9156 C 211.15002,258.2254 210.9533,258.5128 210.90116,258.5541 C 210.79997,258.6342 208.92489,261.232 208.05052,262.5033 C 207.76132,262.9238 207.44027,263.2946 207.33707,263.3272 C 207.23388,263.3598 207.03106,263.1731 206.88637,262.9122 z M 114.64599,236.5131 C 114.39952,236.1173 114.04053,235.5231 113.84825,235.1925 C 113.65596,234.862 113.29159,234.3245 113.03853,233.9981 C 112.78547,233.6717 112.37511,233.0806 112.1266,232.6844 C 110.00182,229.2972 103.33167,220.2338 101.64462,218.4413 C 101.45019,218.2348 100.96567,217.6939 100.56791,217.2395 C 98.767992,215.1829 94.743752,211.0941 93.721712,210.2834 C 93.101992,209.7918 92.540232,209.2955 92.473342,209.1804 C 92.387622,209.033 92.897282,208.3627 94.201052,206.9082 C 95.218162,205.7735 96.096582,204.824 96.153092,204.7983 C 96.209592,204.7726 96.861802,204.0627 97.602432,203.2208 C 98.343062,202.379 99.074372,201.5549 99.227552,201.3897 C 99.380732,201.2244 100.02266,200.4808 100.65405,199.7371 C 101.28544,198.9934 102.23185,197.8863 102.75718,197.2768 C 104.40452,195.3655 107.89891,190.6841 109.55557,188.169 C 110.92429,186.0911 113.03794,182.5199 113.82367,180.9577 C 114.70318,179.2091 114.92,178.8949 115.14377,179.045 C 115.23386,179.1055 115.58947,179.6281 115.93401,180.2065 C 116.27855,180.785 116.83575,181.6976 117.17224,182.2347 C 117.50873,182.7718 118.42244,184.2412 119.20272,185.5001 C 119.98299,186.7589 121.18969,188.5843 121.88426,189.5564 C 126.00482,195.3236 127.75257,197.62 129.3029,199.3037 C 129.77083,199.8118 130.72834,200.8609 131.43069,201.635 C 132.13303,202.409 133.64225,203.9211 134.78451,204.9953 C 135.92676,206.0695 136.92459,207.0635 137.00191,207.2041 C 137.10425,207.3902 137.06484,207.5333 136.85704,207.7299 C 136.70004,207.8785 135.51058,209.1831 134.21378,210.6291 C 131.36843,213.8019 130.33893,215.0492 125.93251,220.6624 C 124.51978,222.462 123.20147,224.18 123.00292,224.4803 C 122.80438,224.7805 121.99315,225.9952 121.20018,227.1797 C 120.4072,228.3642 119.57691,229.6376 119.35508,230.0094 C 119.13325,230.3813 118.639,231.1925 118.25674,231.8123 C 117.87449,232.432 117.08225,233.8814 116.4962,235.0332 C 115.91015,236.1849 115.35494,237.151 115.26239,237.18 C 115.16984,237.209 114.89246,236.9089 114.64599,236.5131 z M 59.490142,187.0047 C 58.418222,185.2332 56.087892,181.6853 54.136872,178.8544 C 52.844682,176.9795 52.020262,175.8467 50.528862,173.8967 C 50.149682,173.4009 49.386182,172.3864 48.832192,171.6421 C 46.790472,168.8993 41.411562,162.9448 39.554792,161.372 C 38.856412,160.7804 38.285012,160.2362 38.285012,160.1628 C 38.285012,160.0173 40.401452,157.6246 42.947252,154.8919 C 44.573102,153.1467 45.681432,151.8883 47.431322,149.8007 C 47.958492,149.1718 48.678512,148.353 49.031362,147.9811 C 50.230112,146.7179 54.998332,140.3387 56.274362,138.291 C 58.537842,134.6587 59.032952,133.8342 59.437992,133.0227 C 60.410182,131.0749 60.894682,130.2534 61.071282,130.2534 C 61.173012,130.2534 61.508202,130.7098 61.816152,131.2675 C 62.124092,131.8252 62.558412,132.552 62.781322,132.8825 C 63.004222,133.213 63.430012,133.9424 63.727512,134.5032 C 64.025012,135.0641 64.567012,135.9845 64.931952,136.5487 C 65.296882,137.1128 65.779182,137.9046 66.003722,138.3083 C 66.228262,138.7119 66.631692,139.3464 66.900232,139.7182 C 67.168772,140.09 68.009832,141.307 68.769242,142.4224 C 70.767062,145.357 73.268042,148.794 74.100002,149.7482 C 77.233882,153.3427 79.117672,155.4014 80.471852,156.7117 C 81.378132,157.5886 82.238982,158.4882 82.384862,158.7108 C 82.649552,159.1148 82.648882,159.1169 82.059282,159.7456 C 80.824242,161.0624 79.640502,162.368 78.698212,163.4525 C 78.161122,164.0707 77.448802,164.8819 77.115272,165.2553 C 76.781732,165.6287 75.940732,166.6441 75.246372,167.5117 C 74.552002,168.3793 73.743202,169.365 73.449032,169.7021 C 73.154852,170.0393 72.238112,171.1761 71.411822,172.2284 C 70.585522,173.2807 69.571442,174.5619 69.158292,175.0755 C 66.943032,177.8296 63.087682,183.8872 61.350792,187.3427 C 60.899462,188.2406 60.691262,188.5446 60.527572,188.5446 C 60.469462,188.5446 60.002612,187.8516 59.490142,187.0047 z M 168.53007,186.4789 C 168.23659,186.0037 167.88004,185.3644 167.73775,185.058 C 167.59546,184.7516 167.41356,184.4605 167.33351,184.4111 C 167.25347,184.3616 166.66928,183.5306 166.0353,182.5643 C 162.57175,177.2855 162.08487,176.5946 157.94783,171.0888 C 156.26651,168.8512 153.05742,165.1383 150.66158,162.6587 C 149.95878,161.9313 149.36184,161.2739 149.33504,161.1979 C 149.30823,161.1219 148.83499,160.7047 148.28339,160.2709 C 147.18096,159.4039 146.7259,158.9517 146.7887,158.7857 C 146.87473,158.5582 149.30137,155.7991 150.94582,154.0589 C 152.84194,152.0523 153.42892,151.4026 153.67344,151.0395 C 153.80177,150.849 154.25286,150.3026 154.67587,149.8254 C 155.41921,148.9867 157.45445,146.6335 158.12365,145.8388 C 159.04728,144.7421 161.90574,140.8834 163.69898,138.3126 C 164.60828,137.009 167.45003,132.3243 167.64375,131.8096 C 167.83414,131.3037 168.9154,129.574 169.34517,129.0878 L 169.64512,128.7485 L 170.43498,130.0644 C 170.86938,130.7881 171.47689,131.8196 171.78496,132.3567 C 173.03323,134.5329 176.74971,140.3705 177.71502,141.6713 C 177.86832,141.8778 178.23154,142.3849 178.52217,142.798 C 178.81282,143.2112 179.35506,143.9548 179.72715,144.4506 C 180.09925,144.9464 180.63581,145.6901 180.9195,146.1032 C 181.42842,146.8443 182.33021,147.9553 184.38852,150.3771 C 184.96692,151.0576 186.70777,152.9017 188.25707,154.4751 C 189.80636,156.0485 191.07397,157.3987 191.07397,157.4757 C 191.07397,157.5526 190.44862,158.3095 189.6843,159.1576 C 187.30325,161.7996 185.72598,163.6373 184.24486,165.4951 C 183.45945,166.4803 182.55852,167.5906 182.24279,167.9624 C 181.92705,168.3342 181.50594,168.8751 181.30697,169.1643 C 180.97971,169.64 178.80843,172.4071 178.18297,173.1455 C 177.76285,173.6415 177.07167,174.5857 176.31327,175.6995 C 175.91943,176.2779 175.27666,177.2193 174.88488,177.7915 C 174.49309,178.3636 174.12793,178.9045 174.07343,178.9933 C 171.919,182.5053 171.31258,183.5716 170.15782,185.8779 C 169.75446,186.6836 169.34327,187.3427 169.24407,187.3427 C 169.14486,187.3427 168.82357,186.954 168.53007,186.4789 z M 113.86781,139.6931 C 113.60349,139.3832 112.10145,136.9312 111.30629,135.5116 C 109.60595,132.4761 106.46155,127.5429 104.07654,124.1689 C 103.66768,123.5905 103.09658,122.7792 102.80743,122.3661 C 101.88357,121.046 100.48045,119.2619 100.08989,118.9107 C 99.998012,118.828 99.337352,118.0506 98.621762,117.183 C 97.906162,116.3154 96.351262,114.6252 95.166422,113.4271 C 93.981582,112.229 92.943782,111.1135 92.860202,110.9482 C 92.727922,110.6867 93.109622,110.1883 95.806522,107.1012 C 97.510582,105.1506 99.716082,102.5566 100.70763,101.3367 C 101.69918,100.1168 102.64567,98.9642 102.81092,98.7754 C 102.97618,98.5865 103.63101,97.7665 104.2661,96.953 C 104.90118,96.1396 105.66016,95.1698 105.95272,94.798 C 106.24528,94.4261 106.83571,93.6149 107.26479,92.9951 C 107.69387,92.3754 108.0921,91.8346 108.14975,91.7933 C 108.2074,91.7519 108.50014,91.3463 108.8003,90.8919 C 109.10046,90.4374 109.47396,89.8965 109.63031,89.69 C 109.78665,89.4834 110.46572,88.4017 111.13935,87.2862 C 111.81298,86.1707 112.42664,85.1566 112.50304,85.0327 C 112.57945,84.9087 113.02559,84.0437 113.49447,83.1103 C 114.10885,81.8873 114.41431,81.4263 114.58801,81.4597 C 114.72058,81.4853 115.04562,81.8771 115.31032,82.3305 C 115.57503,82.7838 116.04842,83.5603 116.36231,84.056 C 116.6762,84.5517 117.03822,85.1263 117.16682,85.333 C 118.73768,87.8576 120.62232,90.6283 122.0902,92.5713 C 122.53041,93.154 123.20404,94.0792 123.58716,94.6274 C 123.97028,95.1755 124.43375,95.793 124.6171,95.9997 C 124.80044,96.2063 125.45023,97.0665 126.06108,97.9111 C 126.67193,98.7557 127.80886,100.168 128.58758,101.0496 C 129.36631,101.9312 130.60812,103.336 131.34715,104.1713 C 132.94031,105.9719 134.98106,108.0195 135.97529,108.8148 C 136.36778,109.1288 136.68891,109.4925 136.68891,109.623 C 136.68891,109.8573 134.47049,112.4383 132.38647,114.6287 C 131.79666,115.2486 130.82135,116.3304 130.21912,117.0327 C 129.61689,117.7351 128.94309,118.5126 128.72179,118.7604 C 127.36759,120.2773 126.94592,120.7695 126.59793,121.2393 C 126.38373,121.5285 126.04825,121.9379 125.85244,122.1491 C 124.86456,123.2144 120.90842,128.4988 119.4563,130.6927 C 118.40036,132.2881 116.30257,135.8427 115.33139,137.6823 C 114.16914,139.8838 114.10523,139.9716 113.86781,139.6931 z M 59.025032,89.3519 C 58.702302,88.8355 58.137942,87.9397 57.770912,87.3613 C 57.403882,86.7829 56.784292,85.7688 56.394042,85.1078 C 55.380072,83.3903 52.774592,79.3342 51.602752,77.6489 C 49.863582,75.1478 48.018312,72.5503 47.867832,72.3915 C 47.761612,72.2793 47.370472,71.7852 46.998632,71.2934 C 46.626802,70.8016 45.949272,69.9903 45.493012,69.4906 C 45.036742,68.9908 44.395112,68.2439 44.067152,67.8308 C 43.739192,67.4176 42.270242,65.8753 40.802812,64.4034 C 39.335392,62.9314 38.134772,61.6639 38.134772,61.5866 C 38.134772,61.5092 38.726322,60.8154 39.449332,60.0446 C 40.596442,58.8218 41.323902,57.9999 43.848232,55.0745 C 44.716322,54.0685 48.062392,49.9775 48.528762,49.3519 C 48.590372,49.2693 48.832972,48.965 49.067872,48.6758 C 49.859132,47.7017 52.179792,44.7133 52.407092,44.3758 C 52.531042,44.1918 53.173292,43.2536 53.834322,42.2909 C 54.495362,41.3282 55.103812,40.4285 55.186442,40.2914 C 55.269072,40.1544 55.512852,39.7707 55.728172,39.4389 C 56.349872,38.4806 57.364852,36.7836 57.364852,36.7024 C 57.364852,36.6617 57.491472,36.4488 57.646242,36.2295 C 57.801002,36.0102 58.351032,35.0026 58.868522,33.9904 C 59.386012,32.9782 59.866832,32.15 59.937012,32.15 C 60.007182,32.15 60.319132,32.5588 60.630222,33.0584 C 61.209362,33.9885 66.022872,41.2674 66.686632,42.2168 C 67.215472,42.9731 69.645692,46.2114 70.357292,47.1079 C 70.689392,47.5263 71.366752,48.3968 71.862522,49.0425 C 72.358302,49.6881 72.831542,50.2923 72.914172,50.3852 C 72.996792,50.478 73.772682,51.3652 74.638372,52.3567 C 75.504052,53.3482 76.693392,54.6664 77.281352,55.2862 C 77.869312,55.9059 78.648352,56.7449 79.012562,57.1506 C 79.376762,57.5563 80.300092,58.3875 81.064412,58.9976 C 81.828732,59.6078 82.454092,60.1648 82.454092,60.2354 C 82.454092,60.3061 82.065352,60.7964 81.590232,61.3251 C 81.115122,61.8537 80.467352,62.5873 80.150762,62.9552 C 79.834162,63.3232 79.022892,64.2019 78.347942,64.9079 C 76.861292,66.4629 75.889862,67.5452 75.371322,68.2242 C 75.157942,68.5036 74.720602,69.0072 74.399462,69.3433 C 73.875782,69.8915 73.279192,70.6006 70.450462,74.0373 C 70.004342,74.5793 68.911582,76.0412 68.022102,77.2859 C 67.132622,78.5307 66.158682,79.8871 65.857802,80.3003 C 64.808112,81.7416 62.037092,86.2437 61.234312,87.812 C 60.248132,89.7387 59.912832,90.2909 59.729192,90.2909 C 59.664642,90.2909 59.347762,89.8684 59.025032,89.3519 z M 55.111322,68.582 C 55.008462,68.458 54.822892,68.3566 54.698942,68.3566 C 54.515662,68.3566 54.508512,68.3987 54.660622,68.582 C 54.763482,68.7059 54.949052,68.8073 55.073002,68.8073 C 55.256272,68.8073 55.263432,68.7652 55.111322,68.582 z M 166.92001,88.552 C 166.6948,88.174 166.12182,87.2607 165.6467,86.5226 C 165.17159,85.7844 164.78285,85.1476 164.78285,85.1075 C 164.78285,85.0236 162.13404,80.9367 160.49872,78.4975 C 158.19504,75.0613 155.22773,71.0091 153.83394,69.3958 C 153.03893,68.4756 152.12892,67.409 151.81169,67.0256 C 151.06314,66.1208 150.25448,65.2837 147.6713,62.7396 C 146.50611,61.592 145.55343,60.6117 145.55423,60.5612 C 145.55502,60.5106 146.03561,59.9622 146.62219,59.3425 C 147.20877,58.7228 148.02865,57.8101 148.44414,57.3143 C 148.85963,56.8186 149.37753,56.2439 149.59503,56.0373 C 150.01151,55.6418 151.32953,54.1141 152.83917,52.2772 C 153.33494,51.674 154.07861,50.7937 154.49175,50.321 C 155.21119,49.498 156.53866,47.8471 158.73194,45.0479 C 159.29186,44.3333 160.18941,43.1298 160.7265,42.3736 C 161.26359,41.6174 161.92081,40.7147 162.187,40.3677 C 162.45317,40.0207 162.81756,39.4675 162.99675,39.1382 C 163.17593,38.809 163.64639,38.0506 164.04221,37.4529 C 164.43803,36.8552 164.97586,35.9753 165.2374,35.4975 C 165.49895,35.0198 165.76776,34.5613 165.83477,34.4786 C 165.90177,34.396 166.30036,33.6398 166.72051,32.7982 C 167.14066,31.9565 167.54497,31.2305 167.61896,31.1848 C 167.79532,31.0758 167.97392,31.3024 168.97677,32.9075 C 171.76801,37.375 176.97149,44.6126 180.24152,48.5758 C 182.97518,51.8889 187.36004,56.5269 189.47513,58.3424 C 189.94135,58.7426 190.3228,59.1694 190.3228,59.2909 C 190.3228,59.5493 188.35855,61.8601 186.5522,63.7268 C 184.84733,65.4886 184.16474,66.2383 183.67759,66.884 C 183.45183,67.1833 183.03386,67.6754 182.74876,67.9777 C 182.46366,68.28 181.70466,69.1481 181.0621,69.9068 C 180.41953,70.6655 179.55857,71.658 179.14882,72.1125 C 178.5428,72.7846 176.14092,75.9204 175.02344,77.4983 C 174.88596,77.6924 174.44434,78.2916 174.04206,78.8297 C 173.63977,79.3679 172.73539,80.7302 172.03234,81.8571 C 171.32927,82.9839 170.535,84.244 170.26733,84.6571 C 169.99964,85.0702 169.31813,86.2702 168.75286,87.3238 C 168.1876,88.3773 167.63609,89.2393 167.52727,89.2393 C 167.41847,89.2393 167.14519,88.93 166.92001,88.552 z M 22.477932,78.7651 C 22.347222,78.6179 21.545122,77.4496 20.695492,76.1688 C 19.845872,74.8881 18.593502,73.0965 17.912472,72.1876 C 16.700482,70.5701 16.474732,70.3066 14.666482,68.399 C 13.655032,67.332 13.653802,67.3629 14.761322,66.028 C 16.391242,64.0634 19.912272,58.878 21.628712,55.9144 C 22.002122,55.2697 22.294442,55.3397 22.768882,56.1876 C 23.311342,57.157 24.154142,58.4101 25.925642,60.8812 C 26.443472,61.6035 26.867152,62.2289 26.867152,62.2709 C 26.867152,62.3129 26.985462,62.4725 27.130062,62.6256 C 27.274662,62.7787 27.606542,63.1675 27.867572,63.4895 C 28.859062,64.7125 30.148692,66.1921 30.528542,66.5424 C 30.745762,66.7427 30.923492,66.9945 30.923492,67.102 C 30.923492,67.2094 30.500072,67.823 29.982562,68.4654 C 26.863132,72.3382 24.984602,75.016 23.788022,77.2956 C 22.892332,79.002 22.790162,79.1166 22.477932,78.7651 z M 21.608922,50.1845 C 18.839872,49.8871 16.477312,48.5646 14.753762,46.3472 C 13.579932,44.837 13.045582,43.1608 13.029592,40.9387 C 13.016972,39.1858 13.197592,38.3336 13.892912,36.8652 C 14.502922,35.5769 15.284682,34.6586 16.582932,33.7054 L 17.553792,32.9926 L 16.576942,32.0079 C 15.330232,30.7512 15.203732,30.5612 14.775772,29.303 C 14.282852,27.8537 14.176372,26.7886 14.403392,25.5782 C 15.003242,22.3796 16.978172,20.0023 19.886342,18.9782 C 20.972422,18.5958 21.256782,18.5588 22.961042,18.5784 C 24.669722,18.598 24.954072,18.6427 26.115972,19.0744 C 28.286932,19.8811 29.089922,20.5298 30.399862,22.5349 C 31.398752,24.064 31.577902,24.7208 31.588162,26.8918 C 31.596632,28.6853 31.576262,28.8137 31.134722,29.7501 C 30.843002,30.3687 30.302982,31.1166 29.671192,31.777 C 29.120522,32.3526 28.669972,32.8682 28.669972,32.9227 C 28.669972,32.9773 28.864552,33.1468 29.102362,33.2995 C 30.178542,33.9906 31.715582,35.6778 32.260732,36.7664 C 32.702732,37.649 33.044882,39.3751 33.043142,40.7134 C 33.039992,43.144 32.022302,45.4054 30.005672,47.4631 C 29.367062,48.1147 28.686972,48.6968 28.494352,48.7567 C 28.301742,48.8165 27.959782,48.9953 27.734442,49.154 C 26.521532,50.0082 23.967742,50.4379 21.608922,50.1845 z M 25.420502,46.7277 C 27.005752,46.3223 28.002742,45.6319 28.844542,44.3566 C 29.903502,42.7523 30.226252,41.8043 30.137192,40.5596 C 30.096122,39.9856 29.995132,39.4304 29.912782,39.3259 C 29.830422,39.2214 29.715532,38.9376 29.657462,38.6953 C 29.188522,36.7385 26.572392,34.8015 24.060302,34.5512 C 23.414392,34.4869 22.581702,34.4672 22.209862,34.5074 C 21.109732,34.6265 21.238442,34.5897 19.765382,35.2056 C 18.839312,35.5928 17.407222,36.7929 16.889042,37.6161 C 16.078782,38.9033 15.975112,39.2972 15.975112,41.089 C 15.975112,42.5866 16.012392,42.812 16.372602,43.4927 C 16.961202,44.605 17.915172,45.4647 19.316632,46.1457 C 21.223662,47.0723 23.299322,47.2702 25.420502,46.7277 z M 25.273322,31.3725 C 26.530092,31.0566 27.821662,29.8721 28.481782,28.4303 C 28.808422,27.7168 28.847542,27.4704 28.768532,26.6243 C 28.564112,24.4352 27.275642,22.7379 25.215182,21.9433 C 22.134402,20.7552 18.663782,21.9386 17.442132,24.5937 C 17.100012,25.3373 17.045272,25.6454 17.067622,26.702 C 17.096652,28.0745 17.345312,28.7348 18.256122,29.8581 C 19.111652,30.9131 20.101582,31.3413 22.284982,31.6008 C 22.912822,31.6754 24.573082,31.5486 25.273322,31.3725 z"
     id="path14647" />
  <g
     id="g3796"
     transform="translate(1.593878e-6,0)">
    <rect
       ry="11.25"
       rx="11.25"
       y="3.4247196"
       x="3.6058116"
       height="311.81104"
       width="223.22835"
       id="rect2382"
       style="fill:none;fill-opacity:1;fill-rule:nonzero;stroke:#000000;stroke-width:0.03543307;stroke-linejoin:round;stroke-miterlimit:4;stroke-dasharray:none;stroke-opacity:1" />
    <g
       transform="translate(3.5433116,3.3622195)"
       id="g3164">
      <path
         style="fill:none;fill-rule:evenodd;stroke:#000000;stroke-width:0.03221492;stroke-linecap:butt;stroke-linejoin:miter;stroke-miterlimit:4;stroke-dasharray:none;stroke-opacity:1"
         d="M 219.74754,0.062511534 L 226.70838,0.062511534"
         id="path3160"
         sodipodi:nodetypes="cc" />
      <path
         sodipodi:nodetypes="cc"
         id="path3162"
         d="M 223.29036,-3.2997195 L 223.29036,3.6063107"
         style="fill:none;fill-rule:evenodd;stroke:#000000;stroke-width:0.03196126;stroke-linecap:butt;stroke-linejoin:miter;stroke-miterlimit:4;stroke-dasharray:none;stroke-opacity:1" />
    </g>
    <g
       transform="matrix(1.0001093,0,0,1,3.519309,315.17275)"
       id="g3168">
      <path
         sodipodi:nodetypes="cc"
         id="path3170"
         d="M 219.74754,0.062511534 L 226.70838,0.062511534"
         style="fill:none;fill-rule:evenodd;stroke:#000000;stroke-width:0.03221492;stroke-linecap:butt;stroke-linejoin:miter;stroke-miterlimit:4;stroke-dasharray:none;stroke-opacity:1" />
      <path
         style="fill:none;fill-rule:evenodd;stroke:#000000;stroke-width:0.03196126;stroke-linecap:butt;stroke-linejoin:miter;stroke-miterlimit:4;stroke-dasharray:none;stroke-opacity:1"
         d="M 223.29036,-3.2997195 L 223.29036,3.6063107"
         id="path3172"
         sodipodi:nodetypes="cc" />
    </g>
    <g
       id="g3174"
       transform="matrix(1.0001093,0,0,1,-219.70906,315.17275)">
      <path
         style="fill:none;fill-rule:evenodd;stroke:#000000;stroke-width:0.03221492;stroke-linecap:butt;stroke-linejoin:miter;stroke-miterlimit:4;stroke-dasharray:none;stroke-opacity:1"
         d="M 219.74754,0.062511534 L 226.70838,0.062511534"
         id="path3176"
         sodipodi:nodetypes="cc" />
      <path
         sodipodi:nodetypes="cc"
         id="path3178"
         d="M 223.29036,-3.2997195 L 223.29036,3.6063107"
         style="fill:none;fill-rule:evenodd;stroke:#000000;stroke-width:0.03196126;stroke-linecap:butt;stroke-linejoin:miter;stroke-miterlimit:4;stroke-dasharray:none;stroke-opacity:1" />
    </g>
    <g
       transform="translate(-219.68504,3.3622195)"
       id="g3180">
      <path
         sodipodi:nodetypes="cc"
         id="path3182"
         d="M 219.74754,0.062511534 L 226.70838,0.062511534"
         style="fill:none;fill-rule:evenodd;stroke:#000000;stroke-width:0.03221492;stroke-linecap:butt;stroke-linejoin:miter;stroke-miterlimit:4;stroke-dasharray:none;stroke-opacity:1" />
      <path
         style="fill:none;fill-rule:evenodd;stroke:#000000;stroke-width:0.03196126;stroke-linecap:butt;stroke-linejoin:miter;stroke-miterlimit:4;stroke-dasharray:none;stroke-opacity:1"
         d="M 223.29036,-3.2997195 L 223.29036,3.6063107"
         id="path3184"
         sodipodi:nodetypes="cc" />
    </g>
  </g>
</svg>
