<?xml version="1.0" encoding="UTF-8" standalone="no"?>
<!-- Created with Inkscape (http://www.inkscape.org/) -->
<svg
   xmlns:dc="http://purl.org/dc/elements/1.1/"
   xmlns:cc="http://creativecommons.org/ns#"
   xmlns:rdf="http://www.w3.org/1999/02/22-rdf-syntax-ns#"
   xmlns:svg="http://www.w3.org/2000/svg"
   xmlns="http://www.w3.org/2000/svg"
   xmlns:sodipodi="http://sodipodi.sourceforge.net/DTD/sodipodi-0.dtd"
   xmlns:inkscape="http://www.inkscape.org/namespaces/inkscape"
   id="svg15238"
   sodipodi:version="0.32"
   inkscape:version="0.46"
   width="230.31497"
   height="318.84155"
   version="1.0"
   sodipodi:docname="8h.svg"
   inkscape:output_extension="org.inkscape.output.svg.inkscape">
  <metadata
     id="metadata15243">
    <rdf:RDF>
      <cc:Work
         rdf:about="">
        <dc:format>image/svg+xml</dc:format>
        <dc:type
           rdf:resource="http://purl.org/dc/dcmitype/StillImage" />
      </cc:Work>
    </rdf:RDF>
  </metadata>
  <defs
     id="defs15241">
    <inkscape:perspective
       sodipodi:type="inkscape:persp3d"
       inkscape:vp_x="0 : 526.18109 : 1"
       inkscape:vp_y="0 : 1000 : 0"
       inkscape:vp_z="744.09448 : 526.18109 : 1"
       inkscape:persp3d-origin="372.04724 : 350.78739 : 1"
       id="perspective15245" />
  </defs>
  <sodipodi:namedview
     inkscape:window-height="667"
     inkscape:window-width="820"
     inkscape:pageshadow="2"
     inkscape:pageopacity="0.0"
     guidetolerance="10.0"
     gridtolerance="10.0"
     objecttolerance="10.0"
     borderopacity="1.0"
     bordercolor="#666666"
     pagecolor="#ffffff"
     id="base"
     showgrid="false"
     inkscape:zoom="1.4489956"
     inkscape:cx="115.15749"
     inkscape:cy="159.42078"
     inkscape:window-x="22"
     inkscape:window-y="29"
     inkscape:current-layer="svg15238" />
  <path
     style="fill:#e00000;fill-opacity:1"
     d="M 204.94695,300.18773 C 204.16615,300.05713 202.59075,299.48633 201.61525,298.98043 C 200.51875,298.41193 199.57195,297.42113 198.61585,295.84173 C 197.89085,294.64433 197.61595,293.56953 197.58935,291.82813 C 197.57085,290.62193 197.62735,290.19163 197.89345,289.51213 C 198.29685,288.48213 199.19425,287.25883 200.00155,286.63833 C 200.33635,286.38103 200.61035,286.11963 200.61035,286.05753 C 200.61035,285.99553 200.25695,285.68373 199.82505,285.36463 C 198.64205,284.49063 197.32445,282.98643 196.84555,281.96313 C 195.93275,280.01243 195.77085,277.36103 196.43725,275.27413 C 197.20325,272.87533 199.24765,270.53403 201.55165,269.41723 C 202.30875,269.05023 203.32925,268.64653 203.81945,268.51993 C 204.92445,268.23473 207.66725,268.22373 208.90975,268.49953 C 213.87315,269.60143 216.91985,273.21513 216.90735,277.98563 C 216.89945,281.04383 215.65495,283.39303 213.05935,285.24973 C 212.62765,285.55853 212.27435,285.86363 212.27435,285.92773 C 212.27435,285.99183 212.54205,286.22973 212.86935,286.45653 C 214.98885,287.92543 216.05815,291.15363 215.33925,293.91363 C 214.50675,297.11013 212.12345,299.38303 208.88505,300.06923 C 207.93805,300.26983 205.81945,300.33363 204.94695,300.18773 z M 207.96775,297.13543 C 210.05425,296.70163 211.89085,295.23483 212.35755,293.62963 C 213.21165,290.69163 211.38275,287.86113 208.34655,287.42203 C 206.22345,287.11493 204.32135,287.33593 203.05515,288.03693 C 200.92265,289.21733 200.07455,291.78393 201.11445,293.90963 C 202.30985,296.35283 205.19655,297.71163 207.96775,297.13543 z M 208.40635,284.04633 C 210.49505,283.42603 212.15045,282.17673 212.97875,280.59563 C 213.56485,279.47693 213.64875,279.09193 213.63345,277.59433 C 213.61275,275.56633 212.85485,274.13653 211.25995,273.11633 C 209.74695,272.14843 208.79795,271.85273 206.93325,271.76813 C 203.76345,271.62423 201.83335,272.42743 200.43205,274.47343 C 199.66895,275.58763 199.11495,277.01003 199.11495,277.85513 C 199.11495,278.62433 199.59745,280.25343 200.05785,281.03903 C 200.61125,281.98333 201.74685,282.95503 203.04915,283.59853 C 204.76425,284.44593 206.55615,284.59573 208.40635,284.04633 z M 49.577262,287.33193 C 48.703862,287.24533 46.797262,286.64483 45.801012,286.14243 C 44.335212,285.40343 42.477222,283.72323 41.252922,282.02963 C 40.766502,281.35673 39.898462,279.50273 39.510892,278.30893 C 38.971722,276.64813 38.770532,274.92633 38.859892,272.73733 C 38.946272,270.62133 38.970522,270.36063 39.265362,268.37723 C 39.624992,265.95813 41.993082,260.36403 43.670202,257.97173 C 44.044992,257.43713 45.013352,256.02403 45.822122,254.83153 C 48.720442,250.55783 49.520902,249.39113 50.783232,247.60083 C 51.487642,246.60183 52.370872,245.38073 52.745972,244.88723 C 53.684452,243.65263 56.606612,239.48703 57.046922,238.75613 C 57.245122,238.42723 57.856622,237.45143 58.405802,236.58783 C 59.518572,234.83803 60.239582,233.55723 61.204762,231.61573 C 61.562522,230.89613 61.918002,230.30733 61.994712,230.30733 C 62.071432,230.30733 62.314112,230.59333 62.534022,230.94283 C 63.211512,232.01973 64.558972,234.09673 64.886612,234.56913 C 65.057732,234.81583 65.829562,235.95983 66.601812,237.11123 C 67.374052,238.26273 68.124022,239.33933 68.268422,239.50383 C 68.412812,239.66833 68.964342,240.44273 69.494042,241.22463 C 70.373052,242.52223 71.797272,244.47143 73.426762,246.60693 C 73.771922,247.05923 74.313742,247.79943 74.630792,248.25183 C 77.388342,252.18623 78.638162,254.03073 79.146002,254.91563 C 79.473482,255.48613 80.031742,256.42403 80.386592,256.99973 C 80.946772,257.90863 82.143782,260.30443 83.207222,262.64513 C 85.196192,267.02293 85.864702,271.74183 85.150582,276.36283 C 84.699792,279.27983 83.423602,281.75373 81.292542,283.84183 C 79.282582,285.81113 75.856882,287.28113 73.277412,287.28113 C 71.091992,287.28113 67.888412,286.00103 66.382552,284.52593 C 65.000212,283.17193 63.468642,280.35703 62.771652,277.88953 C 62.551372,277.10973 62.278092,276.44393 62.159652,276.39843 C 61.888722,276.29443 61.540282,276.76053 61.540282,277.22683 C 61.540282,278.04773 60.874042,280.27113 60.252612,281.52393 C 58.828712,284.39473 56.775322,286.22063 54.096052,286.99853 C 53.083502,287.29243 50.844902,287.45763 49.577262,287.33193 z M 155.31169,286.53103 C 151.95799,285.81933 148.83142,283.50343 147.03788,280.40243 C 145.30165,277.40053 144.7132,273.11123 145.40694,268.51423 C 145.76143,266.16513 146.15104,264.84543 147.26112,262.23363 C 148.39944,259.55523 149.70226,257.24163 151.09248,255.42963 C 151.25024,255.22403 151.84551,254.34923 152.41532,253.48563 C 154.75158,249.94483 157.89172,245.35663 158.39628,244.74643 C 159.11508,243.87723 162.5173,239.02653 163.17463,237.93373 C 163.39724,237.56363 163.9905,236.62153 164.49297,235.84023 C 165.91201,233.63353 166.41976,232.75643 167.3227,230.95193 C 167.78319,230.03163 168.23279,229.23363 168.32181,229.17863 C 168.50158,229.06753 168.64829,229.25303 169.73084,230.96023 C 170.14207,231.60873 170.71405,232.49553 171.00195,232.93083 C 171.28975,233.36613 171.86175,234.23533 172.27295,234.86233 C 172.68425,235.48933 173.46355,236.62193 174.00475,237.37923 C 174.54605,238.13653 175.41665,239.39543 175.93965,240.17683 C 176.46255,240.95813 177.30125,242.13573 177.80335,242.79373 C 180.43925,246.24763 184.42925,252.01073 186.22585,254.95913 C 187.64115,257.28183 189.91305,262.15893 190.68585,264.53323 C 191.64475,267.47973 191.83405,268.86513 191.74075,272.25263 C 191.65715,275.28943 191.52005,276.23373 190.88455,278.15113 C 190.27895,279.97793 189.55835,281.11963 187.97715,282.75733 C 186.57115,284.21353 186.38015,284.35473 184.68735,285.18853 C 182.28795,286.37033 181.39205,286.58613 179.30125,286.48603 C 177.18545,286.38473 175.60085,285.83523 173.69355,284.54143 C 171.87105,283.30503 169.8246,279.91893 169.06652,276.88533 C 168.90698,276.24693 168.70805,275.65613 168.62445,275.57253 C 168.36309,275.31123 168.05074,275.72743 167.94199,276.48193 C 167.53096,279.33393 166.18992,282.17413 164.40695,283.96883 C 163.58324,284.79793 161.78515,285.85583 160.53426,286.24723 C 159.41829,286.59633 156.39398,286.76073 155.31169,286.53103 z M 201.46795,263.64103 C 200.06515,263.31053 198.82095,262.28673 198.14635,260.90803 C 197.34505,259.27013 197.31645,256.37963 198.07925,254.12083 C 198.40855,253.14563 200.05475,249.82193 200.39935,249.43633 C 200.51545,249.30653 200.61035,249.15273 200.61035,249.09453 C 200.61035,249.03633 201.00445,248.36873 201.48605,247.61093 C 204.07535,243.53693 205.06495,241.89203 205.80525,240.43143 C 206.25535,239.54323 206.70055,238.84223 206.79445,238.87353 C 206.94375,238.92333 207.25855,239.41463 208.68345,241.82173 C 208.98555,242.33213 210.31725,244.42173 210.79215,245.13073 C 211.65075,246.41243 213.67715,249.70623 214.18435,250.64443 C 214.51775,251.26123 214.97365,252.10243 215.19745,252.51363 C 215.98865,253.96773 216.13175,254.32173 216.45795,255.63193 C 216.94795,257.60023 216.85785,259.47753 216.20755,260.85033 C 215.94455,261.40553 215.67305,261.85973 215.60425,261.85973 C 215.53545,261.85973 215.36485,262.05313 215.22525,262.28953 C 215.07805,262.53873 214.60905,262.89993 214.10885,263.14933 C 213.33155,263.53693 213.09855,263.57943 211.75095,263.57943 C 210.35515,263.57943 210.21125,263.55063 209.58945,263.14703 C 209.22315,262.90923 208.80095,262.57283 208.65125,262.39933 C 208.19925,261.87583 207.68125,260.77693 207.56895,260.10343 C 207.39425,259.05593 207.02865,259.16003 206.76535,260.33213 C 206.58315,261.14283 205.82015,262.32723 205.06195,262.97623 C 204.19985,263.71413 202.84325,263.96503 201.46795,263.64103 z M 101.79477,237.78153 C 99.041032,237.40023 97.014782,236.33713 94.810572,234.11723 C 92.589682,231.88053 91.187942,228.51063 90.924382,224.77443 C 90.778542,222.70693 91.235232,218.93103 91.873922,216.92363 C 93.010522,213.35143 94.686102,209.91473 96.472792,207.49113 C 96.892512,206.92183 97.637242,205.85043 98.127742,205.11023 C 98.618242,204.36993 99.519732,203.05783 100.13106,202.19423 C 100.74238,201.33063 101.43623,200.32123 101.67296,199.95113 C 101.90968,199.58103 102.35206,198.94173 102.65602,198.53053 C 102.95997,198.11933 103.98247,196.73983 104.92824,195.46503 C 105.87401,194.19023 106.94045,192.70973 107.29812,192.17513 C 107.65579,191.64053 108.22285,190.83203 108.55824,190.37843 C 109.12711,189.60913 109.34988,189.26223 109.7572,188.51153 C 109.84645,188.34703 110.43232,187.43853 111.05915,186.49273 C 111.68597,185.54693 112.62188,183.93193 113.13893,182.90383 C 113.65599,181.87573 114.15167,180.98493 114.24045,180.92433 C 114.3952,180.81853 115.21178,181.63963 115.22031,181.90953 C 115.22557,182.07613 118.25409,186.61663 119.6737,188.58623 C 119.94045,188.95633 120.57936,189.85063 121.0935,190.57353 C 121.90743,191.71783 123.63869,194.05553 125.80562,196.93603 C 126.15599,197.40173 126.55801,197.95103 126.699,198.15673 C 126.96081,198.53843 128.81736,201.13913 129.69023,202.34683 C 130.36728,203.28363 131.52394,205.02473 131.52394,205.10713 C 131.52394,205.14483 131.86699,205.69933 132.28627,206.33923 C 132.70555,206.97923 133.53845,208.51213 134.13715,209.74583 C 136.64358,214.91063 137.03148,215.90983 137.59119,218.64333 C 138.28188,222.01663 138.08498,226.70793 137.14033,229.38533 C 136.33714,231.66183 134.66066,233.91173 132.69901,235.34593 C 131.54861,236.18693 129.49196,237.14373 128.07822,237.49553 C 126.54357,237.87753 125.07512,237.85003 123.42277,237.40833 C 120.53815,236.63733 118.77846,235.40713 117.32951,233.14853 C 116.291,231.52973 115.71235,230.31803 115.15882,228.60303 C 114.82834,227.57903 114.59181,227.07673 114.42482,227.04393 C 114.15363,226.99083 113.87849,227.54603 113.87849,228.14643 C 113.87849,228.71083 113.18966,230.94873 112.74722,231.82183 C 111.18541,234.90393 109.21122,236.62293 106.1773,237.54233 C 105.22722,237.83033 103.01782,237.95083 101.79477,237.78153 z M 49.502492,188.03893 C 47.097242,187.75023 44.800202,186.65983 43.016682,184.96043 C 40.621012,182.67763 39.166832,179.66173 38.658212,175.92123 C 38.302682,173.30653 38.792802,169.29963 39.862552,166.07533 C 40.674892,163.62693 42.268512,160.21713 43.319442,158.67873 C 44.178742,157.42093 44.847412,156.42793 46.743402,153.59443 C 47.596412,152.31963 48.346242,151.20933 48.409692,151.12703 C 48.473142,151.04483 49.001152,150.25413 49.583062,149.37003 C 50.164962,148.48583 50.693722,147.76243 50.758082,147.76243 C 50.822442,147.76243 50.948872,147.60053 51.039032,147.40263 C 51.129192,147.20483 51.800382,146.24583 52.530552,145.27173 C 53.705992,143.70363 56.050372,140.27843 57.887992,137.44433 C 59.103622,135.56963 59.796852,134.36453 60.597772,132.73393 C 61.042142,131.82923 61.461872,131.03283 61.530512,130.96423 C 61.674152,130.82053 62.144372,131.42113 62.974692,132.80873 C 63.294592,133.34333 63.593572,133.81433 63.639082,133.85543 C 63.684602,133.89663 63.991452,134.33403 64.320972,134.82743 C 64.962082,135.78753 66.357272,137.81053 66.848872,138.49293 C 67.132212,138.88613 68.101262,140.25653 69.385502,142.08003 C 69.997422,142.94893 70.732632,143.93463 71.885902,145.43223 C 72.969442,146.83933 75.484402,150.27083 76.224042,151.35133 C 76.589992,151.88593 77.187382,152.75033 77.551572,153.27213 C 77.915762,153.79393 78.371862,154.50053 78.565122,154.84233 C 78.758382,155.18403 79.159832,155.83373 79.457252,156.28613 C 80.726782,158.21703 83.398582,163.96553 84.282292,166.66753 C 85.106982,169.18893 85.375342,171.19943 85.271862,174.08113 C 85.118032,178.36483 84.309282,180.83693 82.230462,183.37783 C 80.955492,184.93623 80.018122,185.67023 78.064202,186.63993 C 75.918962,187.70463 74.801182,187.98613 73.026972,187.90853 C 70.899952,187.81553 69.101272,187.22073 67.372252,186.03843 C 65.334762,184.64523 63.683312,182.06293 62.508052,178.43243 C 62.094092,177.15363 61.773432,176.83253 61.535502,177.45833 C 61.455882,177.66773 61.390742,177.93023 61.390742,178.04173 C 61.390742,179.24543 59.949892,182.88273 58.963652,184.16883 C 56.721412,187.09253 53.294632,188.49433 49.502492,188.03893 z M 154.85183,187.28123 C 153.20788,187.06883 151.27123,186.25283 149.77126,185.14063 C 148.20913,183.98243 146.50629,182.01323 145.79926,180.54743 C 144.13245,177.09193 143.7638,174.05243 144.43975,169.33843 C 144.97433,165.61023 147.33527,160.03363 149.73668,156.82673 C 150.05174,156.40603 150.5745,155.63813 150.89837,155.12023 C 151.22225,154.60233 151.58817,154.01833 151.71154,153.82253 C 151.83491,153.62673 152.48083,152.70463 153.14691,151.77343 C 153.813,150.84223 154.59467,149.71023 154.88396,149.25783 C 155.17324,148.80553 155.604,148.18583 155.84119,147.88073 C 156.07838,147.57573 156.42798,147.10473 156.61808,146.83403 C 156.80819,146.56333 157.26642,145.93813 157.63638,145.44463 C 159.4762,142.99063 159.91278,142.39593 160.38088,141.70623 C 161.69451,139.77073 162.74756,138.18693 163.21729,137.44013 C 163.5004,136.99013 164.04491,136.14523 164.42732,135.56253 C 164.80972,134.97983 165.49681,133.76863 165.95416,132.87083 C 167.16053,130.50283 167.31389,130.25803 167.56221,130.30393 C 167.68539,130.32663 168.00221,130.71453 168.26625,131.16573 C 168.82461,132.12003 169.25205,132.75343 171.99885,136.69663 C 173.11605,138.30043 174.32445,139.97363 174.68425,140.41493 C 175.04415,140.85613 175.33845,141.26963 175.33845,141.33373 C 175.33845,141.42553 178.31275,145.36513 178.90215,146.05393 C 179.20085,146.40293 181.60225,149.68783 182.22695,150.60203 C 182.59175,151.13573 183.10245,151.85593 183.36195,152.20243 C 184.00935,153.06703 186.15335,156.54183 186.83955,157.83883 C 187.91275,159.86723 189.71945,163.95173 190.22205,165.48603 C 190.49985,166.33403 190.87305,167.79043 191.05155,168.72263 C 191.33805,170.21923 191.36615,170.74103 191.29155,173.18393 C 191.19895,176.21853 191.00445,177.36913 190.26795,179.24013 C 189.66565,180.77033 188.77545,182.11773 187.52735,183.38833 C 186.33835,184.59873 185.71165,185.04233 183.92255,185.93983 C 182.13315,186.83743 180.99075,187.12403 179.22645,187.11773 C 175.97235,187.10623 173.05125,185.70013 171.18675,183.24793 C 170.15557,181.89173 168.73588,179.06963 168.38065,177.67003 C 168.05732,176.39603 167.88664,176.18593 167.53148,176.62443 C 167.38408,176.80653 167.26347,177.13983 167.26347,177.36523 C 167.26347,177.59053 167.20456,177.97003 167.13256,178.20843 C 167.06056,178.44693 166.91789,179.01213 166.8155,179.46443 C 166.63094,180.27993 165.87211,181.89683 165.20133,182.90383 C 163.92809,184.81533 161.88305,186.36133 159.85525,186.94513 C 158.88309,187.22503 155.94432,187.42243 154.85183,187.28123 z M 114.03148,137.48173 C 113.85638,137.25553 112.64538,135.45553 111.34037,133.48163 C 108.6699,129.44233 107.57753,127.84633 107.07347,127.24723 C 106.88359,127.02163 106.52272,126.48153 106.27153,126.04703 C 106.02034,125.61253 105.63726,125.05513 105.42024,124.80843 C 105.20322,124.56173 104.51224,123.65323 103.88474,122.78963 C 103.25723,121.92613 102.67521,121.14243 102.59134,121.04823 C 102.50747,120.95403 101.86687,120.05233 101.16778,119.04463 C 100.46869,118.03683 99.545842,116.71693 99.117012,116.11143 C 98.227062,114.85483 95.378972,110.15433 94.963512,109.25653 C 93.955112,107.07723 92.860942,104.63763 92.549062,103.87313 C 91.915822,102.32103 91.186332,99.59393 90.993202,98.05683 C 90.792022,96.45563 90.875602,93.02663 91.153962,91.46153 C 91.723802,88.25763 93.278992,85.61403 95.784422,83.59043 C 96.519082,82.99703 99.007012,81.69363 100.19579,81.27933 C 101.40641,80.85743 103.96339,80.82113 105.42204,81.20513 C 106.83081,81.57603 108.43073,82.33563 109.46713,83.12563 C 111.083,84.35733 112.77745,87.14933 113.66004,90.03433 C 113.92313,90.89433 114.21675,91.62413 114.31254,91.65603 C 114.59485,91.75013 114.92526,91.37983 114.92526,90.96933 C 114.92526,90.21363 115.72158,87.55243 116.23229,86.60153 C 117.73867,83.79673 119.5022,82.26213 122.34481,81.28253 C 123.29386,80.95543 125.46982,80.78253 126.85975,80.92383 C 131.83693,81.42983 136.0867,85.25653 137.43521,90.44673 C 138.18678,93.33933 138.23214,94.98423 137.66282,98.70183 C 137.21548,101.62283 135.72425,105.56233 133.86565,108.73313 C 133.45587,109.43223 132.79434,110.44163 132.3956,110.97623 C 131.73868,111.85693 130.35075,113.88613 127.53731,118.07923 C 126.98546,118.90173 126.35451,119.81013 126.13519,120.09803 C 125.91587,120.38583 125.23911,121.29433 124.63127,122.11673 C 124.02344,122.93923 123.44372,123.71303 123.34301,123.83643 C 123.02252,124.22903 122.4232,125.07983 121.81558,126.00473 C 121.49139,126.49823 121.16904,126.96923 121.09924,127.05153 C 121.02944,127.13373 120.67159,127.63843 120.30401,128.17303 C 119.93644,128.70763 119.60205,129.17863 119.56093,129.21983 C 119.5198,129.26093 119.35829,129.53013 119.20201,129.81793 C 119.04573,130.10583 118.4794,131.01423 117.9435,131.83673 C 117.4076,132.65913 116.81757,133.56763 116.63232,133.85543 C 116.44707,134.14333 115.90443,135.16953 115.42646,136.13593 C 114.9485,137.10233 114.51073,137.89303 114.45364,137.89303 C 114.39656,137.89303 114.20659,137.70793 114.03148,137.48173 z M 61.150692,89.15903 C 60.977532,88.94493 60.722202,88.54873 60.583282,88.27843 C 60.341722,87.80843 58.664352,85.29193 58.070162,84.50803 C 57.914312,84.30243 56.704232,82.55283 55.381112,80.62003 C 54.057992,78.68723 52.318812,76.22443 51.516272,75.14703 C 49.717052,72.73163 47.204442,69.16233 45.473882,66.56353 C 44.401092,64.95243 42.491982,61.62653 41.954582,60.43243 C 41.676982,59.81563 41.066182,58.50343 40.597262,57.51643 C 38.702232,53.52793 37.922002,49.92523 38.135992,46.15163 C 38.419432,41.15343 39.567722,38.37103 42.444092,35.71283 C 44.616092,33.70553 48.247632,32.30713 50.709262,32.53023 C 52.813202,32.72083 55.386012,33.76653 56.781552,34.99813 C 58.228432,36.27503 59.817552,39.01443 60.562622,41.51593 C 61.054702,43.16803 61.127332,43.31033 61.478412,43.31033 C 61.705642,43.31033 61.788602,43.12893 61.922872,42.33833 C 62.431592,39.34303 63.607722,36.87383 65.370552,35.10023 C 66.069492,34.39703 67.662712,33.43483 68.867632,32.98823 C 69.822452,32.63433 70.280172,32.56233 71.946872,32.50403 C 73.572652,32.44723 74.106082,32.48653 75.093062,32.73613 C 78.681492,33.64363 82.094122,36.59103 83.318482,39.84043 C 83.448782,40.18623 83.673102,40.73833 83.816962,41.06733 C 84.221402,41.99223 84.636032,44.77903 84.640152,46.60023 C 84.644132,48.36493 84.234892,52.30793 84.001102,52.75733 C 83.922992,52.90743 83.573332,53.87143 83.224092,54.89953 C 82.145332,58.07513 80.315652,61.49533 78.569952,63.59953 C 78.250672,63.98443 77.989432,64.36673 77.989432,64.44913 C 77.989432,64.53153 77.404622,65.46153 76.689852,66.51583 C 75.975082,67.57013 75.117112,68.85583 74.783242,69.37293 C 74.196132,70.28223 73.496232,71.27103 69.982222,76.15563 C 69.073692,77.41843 68.198902,78.66803 68.038232,78.93233 C 67.877562,79.19673 67.501722,79.76863 67.203032,80.20343 C 66.904342,80.63813 66.168952,81.76773 65.568822,82.71353 C 64.968702,83.65943 64.230692,84.82083 63.928802,85.29463 C 63.626922,85.76843 63.016472,86.89393 62.572262,87.79573 C 62.128042,88.69753 61.697302,89.46073 61.615052,89.49173 C 61.532812,89.52273 61.323842,89.37303 61.150692,89.15903 z M 56.819602,67.44943 C 56.679882,67.29503 56.502882,67.20743 56.426272,67.25473 C 56.349662,67.30213 56.401292,67.46723 56.541012,67.62153 C 56.680732,67.77593 56.857732,67.86353 56.934342,67.81623 C 57.010952,67.76883 56.959322,67.60373 56.819602,67.44943 z M 167.20199,88.38453 C 166.98907,88.13143 166.81485,87.87333 166.81485,87.81083 C 166.81485,87.74843 166.42793,87.15103 165.95501,86.48343 C 165.4821,85.81583 164.97795,85.08143 164.83468,84.85143 C 164.6914,84.62143 164.15307,83.85133 163.63837,83.14013 C 161.01282,79.51193 160.5516,78.86783 159.86135,77.86543 C 159.45012,77.26813 158.37344,75.81013 157.46874,74.62543 C 151.62663,66.97483 149.44653,63.65953 147.05415,58.78753 C 145.37793,55.37393 145.11266,54.75603 144.58264,53.03033 C 143.93109,50.90893 143.77927,49.93903 143.68647,47.30543 C 143.47912,41.42083 144.73408,37.97123 148.18427,34.94213 C 149.30578,33.95753 151.99303,32.57553 153.43122,32.24373 C 156.3293,31.57523 159.38346,32.20183 162.01044,34.00383 C 162.91055,34.62123 164.16313,36.05123 164.86068,37.25763 C 165.71804,38.74043 166.65992,41.11613 166.84537,42.26363 C 166.87824,42.46693 167.00952,42.56263 167.25535,42.56263 C 167.58931,42.56263 167.63169,42.47563 167.80916,41.42493 C 168.67791,36.28153 171.85095,32.70653 176.30075,31.85753 C 179.66055,31.21643 183.76195,32.37833 186.24065,34.67353 C 189.25145,37.46133 190.69065,40.62753 190.94815,45.03003 C 191.02755,46.38713 190.59855,50.50533 190.23945,51.83403 C 189.84625,53.28843 188.75975,56.04383 187.88085,57.81553 C 186.73655,60.12213 186.71195,60.16263 184.86295,62.78613 C 184.55925,63.21703 184.31075,63.60453 184.31075,63.64703 C 184.31075,63.68963 183.92745,64.27913 183.45905,64.95703 C 182.99055,65.63493 182.30965,66.62703 181.94585,67.16163 C 181.58205,67.69623 181.15785,68.27253 181.00315,68.44233 C 180.84845,68.61213 180.72185,68.79973 180.72185,68.85933 C 180.72185,68.91883 180.31885,69.55383 179.82635,70.27023 C 178.92185,71.58613 178.58825,72.05253 176.84245,74.44163 C 176.31265,75.16673 175.46475,76.36573 174.95835,77.10593 C 174.45185,77.84613 173.65735,79.00043 173.19265,79.67113 C 172.72795,80.34183 172.34775,80.92613 172.34775,80.96963 C 172.34775,81.14583 171.39675,82.56403 171.27865,82.56403 C 171.20865,82.56403 171.15145,82.63793 171.15145,82.72823 C 171.15145,82.81853 170.78625,83.48283 170.33983,84.20443 C 169.89343,84.92613 169.15267,86.26533 168.69366,87.18053 C 168.23467,88.09583 167.79838,88.84463 167.72412,88.84463 C 167.64987,88.84463 167.41492,88.63753 167.20199,88.38453 z M 22.538422,80.13403 C 22.375632,79.86673 22.015772,79.21063 21.738732,78.67603 C 21.461692,78.14143 20.931852,77.19933 20.561312,76.58253 C 20.190782,75.96563 19.788122,75.28263 19.666512,75.06473 C 19.357162,74.51023 17.578292,71.59003 16.947422,70.60103 C 15.855172,68.88863 13.875082,64.58783 13.608342,63.34843 C 12.964352,60.35613 13.912512,57.30193 15.835282,56.17513 C 16.746412,55.64123 18.109592,55.35893 19.055312,55.50843 C 20.749052,55.77623 21.855432,56.97313 22.260902,58.97653 C 22.414992,59.73783 22.503322,59.90903 22.741982,59.90903 C 22.957782,59.90903 23.045922,59.79083 23.078622,59.45733 C 23.102992,59.20893 23.372152,58.50233 23.676772,57.88723 C 24.145462,56.94073 24.363992,56.67743 25.098012,56.17503 C 25.856332,55.65603 26.091372,55.57443 26.967232,55.52613 C 29.370292,55.39353 31.476272,57.11613 32.072392,59.70193 C 32.286712,60.63153 32.256782,63.04953 32.018922,64.02133 C 31.493982,66.16603 29.391522,70.29583 27.485172,72.92703 C 27.339882,73.12753 27.254502,73.26533 25.822472,75.61053 C 25.169602,76.67973 24.289512,78.24423 23.866712,79.08723 C 23.443912,79.93033 23.038682,80.62003 22.966202,80.62003 C 22.893712,80.62003 22.701212,80.40133 22.538422,80.13403 z M 21.538942,50.35513 C 19.586722,49.98123 18.013732,49.18643 16.327382,47.72173 C 15.638612,47.12353 14.590092,45.55813 14.095482,44.38973 C 13.707702,43.47373 13.628052,43.06633 13.569202,41.69803 C 13.414712,38.10583 14.599672,35.56373 17.314502,33.66313 C 17.705172,33.38963 18.024802,33.11453 18.024802,33.05183 C 18.024802,32.98913 17.823832,32.79473 17.578192,32.61983 C 16.262402,31.68293 15.096292,29.38133 14.929522,27.39213 C 14.706472,24.73163 16.098542,21.77623 18.299072,20.23853 C 21.165542,18.23553 24.311872,18.04253 27.912992,19.64903 C 28.942762,20.10843 29.776712,20.84443 30.638352,22.05423 C 32.044412,24.02853 32.463682,25.39513 32.352422,27.64153 C 32.266772,29.37083 31.687592,30.63073 30.330852,32.03913 L 29.376342,33.03003 L 30.317622,33.80963 C 31.801122,35.03833 32.735442,36.29463 33.178392,37.65623 C 33.920992,39.93903 33.946062,41.48303 33.276722,43.71043 C 32.914472,44.91593 31.836022,46.57053 30.611092,47.80013 C 29.638732,48.77623 28.101312,49.68213 26.628272,50.14703 C 25.448072,50.51943 22.933812,50.62223 21.538942,50.35513 z M 26.377302,46.74343 C 27.843362,46.24253 28.656472,45.64383 29.414812,44.50663 C 30.686362,42.59993 30.986742,41.27343 30.532242,39.57193 C 30.040872,37.73243 28.866112,36.36673 26.928972,35.38313 C 25.862132,34.84133 25.630262,34.78183 24.397672,34.73313 C 19.781082,34.55103 16.367082,37.50473 16.559032,41.51493 C 16.673522,43.90673 17.926772,45.45713 20.641222,46.56523 C 21.052722,46.73313 21.658572,46.92263 21.987552,46.98623 C 23.001142,47.18213 25.497162,47.04403 26.377302,46.74343 z M 26.625052,31.20343 C 27.687022,30.68393 28.589452,29.77853 29.051612,28.76903 C 29.833252,27.06173 29.177572,24.53373 27.603512,23.18593 C 24.660632,20.66603 19.593432,21.54683 18.073362,24.84243 C 17.737962,25.56963 17.701412,25.81213 17.757852,26.93603 C 17.829012,28.35273 18.077452,28.97443 18.999812,30.04403 C 20.039822,31.25003 21.674712,31.75073 24.271292,31.65823 C 25.564582,31.61213 25.936572,31.54033 26.625052,31.20343 z"
     id="path15249" />
  <g
     id="g3796"
     transform="translate(1.593878e-6,0)">
    <rect
       ry="11.25"
       rx="11.25"
       y="3.4247196"
       x="3.6058116"
       height="311.81104"
       width="223.22835"
       id="rect2382"
       style="fill:none;fill-opacity:1;fill-rule:nonzero;stroke:#000000;stroke-width:0.03543307;stroke-linejoin:round;stroke-miterlimit:4;stroke-dasharray:none;stroke-opacity:1" />
    <g
       transform="translate(3.5433116,3.3622195)"
       id="g3164">
      <path
         style="fill:none;fill-rule:evenodd;stroke:#000000;stroke-width:0.03221492;stroke-linecap:butt;stroke-linejoin:miter;stroke-miterlimit:4;stroke-dasharray:none;stroke-opacity:1"
         d="M 219.74754,0.062511534 L 226.70838,0.062511534"
         id="path3160"
         sodipodi:nodetypes="cc" />
      <path
         sodipodi:nodetypes="cc"
         id="path3162"
         d="M 223.29036,-3.2997195 L 223.29036,3.6063107"
         style="fill:none;fill-rule:evenodd;stroke:#000000;stroke-width:0.03196126;stroke-linecap:butt;stroke-linejoin:miter;stroke-miterlimit:4;stroke-dasharray:none;stroke-opacity:1" />
    </g>
    <g
       transform="matrix(1.0001093,0,0,1,3.519309,315.17275)"
       id="g3168">
      <path
         sodipodi:nodetypes="cc"
         id="path3170"
         d="M 219.74754,0.062511534 L 226.70838,0.062511534"
         style="fill:none;fill-rule:evenodd;stroke:#000000;stroke-width:0.03221492;stroke-linecap:butt;stroke-linejoin:miter;stroke-miterlimit:4;stroke-dasharray:none;stroke-opacity:1" />
      <path
         style="fill:none;fill-rule:evenodd;stroke:#000000;stroke-width:0.03196126;stroke-linecap:butt;stroke-linejoin:miter;stroke-miterlimit:4;stroke-dasharray:none;stroke-opacity:1"
         d="M 223.29036,-3.2997195 L 223.29036,3.6063107"
         id="path3172"
         sodipodi:nodetypes="cc" />
    </g>
    <g
       id="g3174"
       transform="matrix(1.0001093,0,0,1,-219.70906,315.17275)">
      <path
         style="fill:none;fill-rule:evenodd;stroke:#000000;stroke-width:0.03221492;stroke-linecap:butt;stroke-linejoin:miter;stroke-miterlimit:4;stroke-dasharray:none;stroke-opacity:1"
         d="M 219.74754,0.062511534 L 226.70838,0.062511534"
         id="path3176"
         sodipodi:nodetypes="cc" />
      <path
         sodipodi:nodetypes="cc"
         id="path3178"
         d="M 223.29036,-3.2997195 L 223.29036,3.6063107"
         style="fill:none;fill-rule:evenodd;stroke:#000000;stroke-width:0.03196126;stroke-linecap:butt;stroke-linejoin:miter;stroke-miterlimit:4;stroke-dasharray:none;stroke-opacity:1" />
    </g>
    <g
       transform="translate(-219.68504,3.3622195)"
       id="g3180">
      <path
         sodipodi:nodetypes="cc"
         id="path3182"
         d="M 219.74754,0.062511534 L 226.70838,0.062511534"
         style="fill:none;fill-rule:evenodd;stroke:#000000;stroke-width:0.03221492;stroke-linecap:butt;stroke-linejoin:miter;stroke-miterlimit:4;stroke-dasharray:none;stroke-opacity:1" />
      <path
         style="fill:none;fill-rule:evenodd;stroke:#000000;stroke-width:0.03196126;stroke-linecap:butt;stroke-linejoin:miter;stroke-miterlimit:4;stroke-dasharray:none;stroke-opacity:1"
         d="M 223.29036,-3.2997195 L 223.29036,3.6063107"
         id="path3184"
         sodipodi:nodetypes="cc" />
    </g>
  </g>
</svg>
