<?xml version="1.0" encoding="UTF-8" standalone="no"?>
<!-- Created with Inkscape (http://www.inkscape.org/) -->
<svg
   xmlns:dc="http://purl.org/dc/elements/1.1/"
   xmlns:cc="http://creativecommons.org/ns#"
   xmlns:rdf="http://www.w3.org/1999/02/22-rdf-syntax-ns#"
   xmlns:svg="http://www.w3.org/2000/svg"
   xmlns="http://www.w3.org/2000/svg"
   xmlns:sodipodi="http://sodipodi.sourceforge.net/DTD/sodipodi-0.dtd"
   xmlns:inkscape="http://www.inkscape.org/namespaces/inkscape"
   id="svg6575"
   sodipodi:version="0.32"
   inkscape:version="0.46"
   width="230.31497"
   height="318.84155"
   version="1.0"
   sodipodi:docname="8s.svg"
   inkscape:output_extension="org.inkscape.output.svg.inkscape">
  <metadata
     id="metadata6580">
    <rdf:RDF>
      <cc:Work
         rdf:about="">
        <dc:format>image/svg+xml</dc:format>
        <dc:type
           rdf:resource="http://purl.org/dc/dcmitype/StillImage" />
      </cc:Work>
    </rdf:RDF>
  </metadata>
  <defs
     id="defs6578">
    <inkscape:perspective
       sodipodi:type="inkscape:persp3d"
       inkscape:vp_x="0 : 526.18109 : 1"
       inkscape:vp_y="0 : 1000 : 0"
       inkscape:vp_z="744.09448 : 526.18109 : 1"
       inkscape:persp3d-origin="372.04724 : 350.78739 : 1"
       id="perspective6582" />
  </defs>
  <sodipodi:namedview
     inkscape:window-height="667"
     inkscape:window-width="803"
     inkscape:pageshadow="2"
     inkscape:pageopacity="0.0"
     guidetolerance="10.0"
     gridtolerance="10.0"
     objecttolerance="10.0"
     borderopacity="1.0"
     bordercolor="#666666"
     pagecolor="#ffffff"
     id="base"
     showgrid="false"
     inkscape:zoom="1.4489956"
     inkscape:cx="115.15749"
     inkscape:cy="159.42078"
     inkscape:window-x="22"
     inkscape:window-y="29"
     inkscape:current-layer="svg6575" />
  <path
     style="fill:#000000"
     d="M 204.00518,300.1072 C 201.11579,299.2919 199.7445,298.3577 198.43079,296.3098 C 197.07959,294.2034 196.70649,291.9142 197.37966,289.8603 C 197.81448,288.5336 197.8691,288.4484 199.09613,287.1836 C 199.69501,286.5663 200.13797,285.9923 200.08047,285.908 C 200.02295,285.8237 199.74087,285.5935 199.4536,285.3965 C 198.63915,284.8381 197.38887,283.5973 196.90373,282.8662 C 196.27123,281.9129 195.71498,280.0278 195.62463,278.5313 C 195.47181,275.9998 196.51964,273.4397 198.54775,271.3894 C 200.37756,269.5395 202.37051,268.682 205.11072,268.5657 C 208.07177,268.4399 210.33925,269.0747 212.40304,270.6072 C 215.02567,272.5546 216.16361,275.0965 215.97934,278.5958 C 215.89185,280.257 215.47316,281.6156 214.65647,282.8883 C 214.14797,283.6808 212.64915,285.1293 211.97921,285.4757 C 211.73842,285.6002 211.5414,285.7716 211.5414,285.8565 C 211.5414,285.9414 212.03544,286.4937 212.63924,287.0838 C 213.59837,288.0212 213.79557,288.3097 214.19985,289.3667 C 215.05446,291.6012 214.93963,293.5996 213.82943,295.8135 C 212.88122,297.7044 210.81948,299.3954 208.78061,299.9545 C 207.5448,300.2934 204.95819,300.3761 204.00518,300.1072 z M 208.92984,296.6137 C 210.95534,295.6653 211.9844,294.2258 211.98838,292.3353 C 211.99165,290.7779 211.6548,289.9833 210.49878,288.8212 C 209.37267,287.6893 208.94027,287.5178 206.72703,287.3256 C 204.30805,287.1154 202.58992,287.6224 201.42021,288.8914 C 200.13012,290.291 199.81149,291.5694 200.32852,293.2716 C 200.78208,294.7648 201.70495,295.8442 203.09509,296.5073 C 204.41908,297.1388 204.56671,297.1667 206.39289,297.1316 C 207.7347,297.1058 207.99059,297.0535 208.92984,296.6137 z M 207.44347,284.272 C 211.98125,283.1059 214.34837,279.0155 212.60244,275.3572 C 211.28257,272.5917 207.31205,271.0739 203.70672,271.9568 C 202.96802,272.1377 202.18167,272.415 201.95928,272.5731 C 201.7369,272.7312 201.48329,272.8605 201.39574,272.8605 C 201.12115,272.8605 199.99778,274.1063 199.47473,274.9908 C 199.19907,275.457 198.85123,276.3043 198.70173,276.8738 C 198.45428,277.8162 198.44897,278.0003 198.64254,278.9255 C 198.93318,280.3146 199.52216,281.4117 200.47859,282.3455 C 202.34306,284.1659 204.99832,284.9004 207.44347,284.272 z M 61.447742,284.5089 C 59.973252,282.206 58.558312,280.1045 56.947152,277.8244 C 55.339702,275.5495 52.342162,271.4998 52.168342,271.3682 C 52.114152,271.3271 51.657402,270.7563 51.153362,270.0997 C 50.649312,269.4431 49.953212,268.5365 49.606462,268.0851 C 49.259722,267.6336 48.526512,266.727 47.977102,266.0704 C 47.427702,265.4138 46.868862,264.6623 46.735232,264.4005 C 46.601612,264.1387 46.143372,263.4672 45.716912,262.9082 C 43.727302,260.3004 40.709522,254.7324 39.912382,252.1984 C 39.331902,250.3531 39.057852,247.3857 39.301842,245.5877 C 39.634482,243.1365 40.446372,241.0629 41.745282,239.3471 C 43.145402,237.4976 44.188952,236.5808 45.769352,235.812 C 47.487362,234.9762 48.122252,234.8148 49.709072,234.8099 C 52.647162,234.801 54.339062,235.6102 56.377332,237.999 C 57.826342,239.6973 58.532462,241.276 59.388292,244.731 C 59.584342,245.5225 59.781732,246.2071 59.826942,246.2523 C 59.973082,246.3984 60.685162,246.3394 60.857702,246.1669 C 61.192512,245.8321 60.965302,243.0567 60.309132,239.4662 C 59.887852,237.1609 58.258422,232.6755 56.420792,228.7624 C 55.748082,227.3299 55.668812,227.0358 55.913642,226.8806 C 56.146072,226.7334 67.435332,226.6993 68.481592,226.8427 C 68.862392,226.8949 69.173962,226.995 69.173962,227.0653 C 69.173962,227.1356 68.837312,227.874 68.425862,228.7063 C 67.217832,231.1497 66.567122,232.9317 65.925922,235.5525 C 65.085202,238.9887 64.872722,240.2204 64.675742,242.7996 C 64.470482,245.4871 64.546492,246.1045 65.099712,246.2433 C 65.746522,246.4057 65.953972,246.146 66.081812,245.0141 C 66.411132,242.0984 66.860372,240.6655 67.903312,239.2039 C 69.350832,237.1754 71.482632,235.7245 73.615182,235.3165 C 75.628812,234.9312 78.193272,235.3043 79.846442,236.223 C 81.623722,237.2106 83.780222,239.5603 84.588132,241.3895 C 85.552952,243.5739 85.990772,247.7118 85.541612,250.401 C 84.860322,254.48 82.492982,259.2416 78.449622,264.6657 C 76.669082,267.0543 74.850722,269.4244 73.420972,271.2203 C 71.759532,273.3073 70.289592,275.2602 68.872952,277.2628 C 68.350392,278.0015 67.680282,278.8858 67.383802,279.2279 C 66.899512,279.7868 65.100602,282.3103 63.625232,284.5006 C 62.874242,285.6155 62.678952,285.8437 62.475912,285.8437 C 62.380462,285.8437 61.917782,285.243 61.447742,284.5089 z M 166.37711,284.3933 C 165.9601,283.7547 165.32428,282.7388 164.96418,282.1359 C 164.60407,281.533 164.09874,280.7943 163.84119,280.4943 C 163.37842,279.9554 161.44597,277.2906 160.57863,275.9953 C 159.94822,275.0539 157.08084,271.3736 154.8226,268.6074 C 152.59674,265.8808 151.24985,264.1615 150.94352,263.6556 C 150.75371,263.3422 150.32231,262.7164 149.98486,262.265 C 147.7326,259.252 144.90327,253.9363 144.30562,251.5949 C 143.77642,249.5217 143.55981,247.0068 143.77663,245.4533 C 144.12717,242.9418 144.85106,241.1156 146.20746,239.3212 C 147.94758,237.0191 148.94318,236.2126 151.14526,235.3213 C 152.32686,234.843 152.73086,234.7546 154.01966,234.6927 C 157.20597,234.5395 159.27773,235.5543 161.56714,238.3896 C 162.16764,239.1333 163.0011,240.6419 163.38005,241.671 C 163.67581,242.4742 164.38077,245.2225 164.3827,245.5798 C 164.3848,245.9697 164.93639,246.2832 165.40207,246.1592 C 165.78775,246.0565 165.80331,246.0112 165.84601,244.87 C 165.91401,243.052 165.25382,239.1454 164.44481,236.5786 C 163.90924,234.8794 162.93999,232.4231 161.91994,230.1801 C 160.52212,227.1064 160.4429,226.9084 160.56292,226.7884 C 160.83485,226.5166 174.08414,226.6644 174.08414,226.9392 C 174.08414,227.0205 173.71943,227.8333 173.27368,228.7455 C 171.71414,231.9368 170.76628,234.9062 170.07663,238.7609 C 169.65641,241.1097 169.6218,241.4068 169.51725,243.5643 C 169.40686,245.8421 169.50682,246.1917 170.24792,246.1193 C 170.85742,246.0599 171.09441,245.5972 171.09731,244.4612 C 171.10017,243.3335 171.47949,241.6752 171.99151,240.5517 C 173.15663,237.9953 175.7338,235.821 178.26264,235.2608 C 179.16359,235.0612 181.78897,235.0655 182.76957,235.2682 C 184.63415,235.6535 186.78229,237.1282 188.37959,239.1193 C 189.87948,240.989 190.50675,242.79 190.81702,246.1176 C 190.97044,247.7631 190.95973,248.2497 190.73583,249.8041 C 190.23622,253.2728 188.34276,257.665 185.74994,261.3696 C 184.62075,262.983 180.30675,268.653 178.18803,271.3084 C 176.34102,273.6233 175.81241,274.3064 175.20338,275.1657 C 174.87507,275.6289 174.08534,276.6932 173.44843,277.5307 C 171.11789,280.5955 170.56101,281.3432 169.75641,282.4879 C 168.22272,284.6697 167.59183,285.4666 167.36334,285.5106 C 167.21938,285.5384 166.85576,285.1264 166.37711,284.3933 z M 206.27966,262.5289 C 206.08357,262.2607 205.62693,261.5375 205.26491,260.9219 C 204.9029,260.3063 204.1356,259.1369 203.55978,258.3231 C 200.26736,253.6702 198.69152,250.9376 198.19437,249.019 C 197.50405,246.355 198.3526,243.8912 200.33133,242.8142 C 201.7417,242.0466 203.23443,242.328 204.02201,243.51 C 204.70638,244.5371 205.04531,244.7134 205.48689,244.2718 C 206.06888,243.6898 205.14767,240.941 203.67412,238.8627 C 203.30648,238.3442 203.04187,237.8837 203.08614,237.8395 C 203.13038,237.7952 204.13274,237.7234 205.31359,237.6799 C 207.51728,237.5988 209.15369,237.7112 209.15369,237.9437 C 209.15369,238.016 208.85945,238.498 208.49983,239.015 C 207.72816,240.1242 207.30203,241.0873 206.99463,242.4171 C 206.71071,243.6453 206.70891,244.1295 206.9872,244.4078 C 207.33515,244.7558 207.76847,244.5332 208.24222,243.7633 C 208.88965,242.7111 209.46851,242.3598 210.66635,242.2921 C 211.85649,242.2248 212.48797,242.4103 213.37508,243.0877 C 214.36925,243.8468 214.72636,244.7107 214.73261,246.3718 C 214.7396,248.2292 214.29172,249.8037 213.10989,252.0767 C 212.17619,253.8724 211.76352,254.5679 210.2629,256.8747 C 209.29221,258.367 208.30765,260.0795 207.53516,261.6195 C 207.1986,262.2904 206.85865,262.8793 206.7797,262.9281 C 206.70078,262.9768 206.47575,262.7972 206.27966,262.5289 z M 113.62434,236.5084 C 111.93121,233.794 111.05674,232.4767 110.66175,232.0455 C 110.43618,231.7993 109.90612,231.0941 109.48383,230.4786 C 108.18986,228.5923 106.92018,226.8612 105.43737,224.9615 C 104.65763,223.9625 103.71747,222.7558 103.34812,222.2799 C 102.2176,220.8233 100.32024,218.4163 99.718462,217.6753 C 99.404742,217.2891 98.818742,216.4837 98.416252,215.8856 C 98.013752,215.2874 97.389632,214.3808 97.029322,213.8709 C 96.669002,213.361 96.205732,212.6416 95.999832,212.2722 C 95.793922,211.9029 95.348352,211.1485 95.009682,210.5958 C 94.020492,208.9816 92.455302,205.7806 92.085542,204.6155 C 91.481152,202.7113 91.360362,201.8273 91.347462,199.2144 C 91.335882,196.8702 91.364942,196.5811 91.729892,195.409 C 92.446312,193.1082 92.947792,192.2085 94.664592,190.1442 C 96.689412,187.7096 100.08295,186.414 103.23703,186.8715 C 105.0421,187.1333 106.12716,187.7206 107.68616,189.2799 C 109.56336,191.1575 110.34196,192.6793 111.26054,196.2664 C 111.49833,197.1949 111.73317,198.0199 111.78242,198.0995 C 111.91184,198.309 112.71115,198.2777 112.84954,198.0579 C 113.18722,197.5214 112.59958,192.6925 111.84721,189.8211 C 111.24811,187.5346 109.7521,183.6833 108.17533,180.3682 C 107.81273,179.6058 107.55597,178.9175 107.60476,178.8385 C 107.70411,178.6778 120.84467,178.6319 121.00451,178.7918 C 121.05773,178.845 120.93953,179.1975 120.74186,179.5752 C 118.97632,182.9486 117.8056,186.5358 117.08516,190.7795 C 116.68535,193.1347 116.40619,196.6477 116.55438,197.4591 C 116.66323,198.0552 117.1189,198.3415 117.60581,198.1196 C 117.89754,197.9867 117.96015,197.8163 118.03647,196.9477 C 118.16577,195.4761 118.55491,193.3925 118.81987,192.7531 C 119.24016,191.7389 120.3636,190.2096 121.37473,189.2755 C 123.21918,187.5715 125.42363,186.8472 128.12745,187.0569 C 130.51694,187.2422 132.20581,188.0463 133.97327,189.84 C 136.31486,192.2163 137.15782,194.2231 137.52618,198.298 C 137.6958,200.1744 137.55086,201.896 137.05956,203.8406 C 136.3848,206.5114 134.40657,210.5907 132.13842,213.9884 C 130.53085,216.3966 127.35787,220.7941 126.43152,221.8977 C 126.15595,222.226 124.99624,223.7541 123.85438,225.2935 C 122.71253,226.8328 121.17389,228.906 120.43519,229.9006 C 118.16092,232.9627 117.57169,233.7803 116.4694,235.4032 C 115.42146,236.9461 114.73494,237.7909 114.52912,237.7909 C 114.47148,237.7909 114.06433,237.2138 113.62434,236.5084 z M 61.175212,188.1317 C 60.756662,187.4968 60.121962,186.5073 59.764762,185.9328 C 59.407552,185.3582 58.703452,184.3509 58.200092,183.6943 C 57.300882,182.5213 56.743382,181.744 55.310252,179.665 C 54.914192,179.0905 54.228372,178.1878 53.786212,177.6591 C 53.344052,177.1303 52.747242,176.3785 52.459962,175.9884 C 52.172692,175.5983 51.585592,174.8556 51.155302,174.3382 C 50.725012,173.8207 50.109872,173.0615 49.788332,172.6511 C 49.466792,172.2407 48.671722,171.2334 48.021502,170.4126 C 44.198492,165.5868 40.445882,159.0892 39.402712,155.4894 C 38.883242,153.6968 38.605252,150.118 38.875322,148.6998 C 39.437532,145.7476 40.208312,144.1386 42.199562,141.7604 C 43.217292,140.5449 43.807102,140.1139 45.744522,139.17 L 47.162222,138.4793 L 49.027632,138.4442 C 52.121092,138.3861 53.268962,138.8456 55.464022,141.0211 C 57.079522,142.6222 58.063502,144.5533 58.798592,147.5652 C 59.289232,149.5755 59.440202,149.8861 59.929032,149.8909 C 60.388302,149.8955 60.518502,149.5491 60.518502,148.3227 C 60.518502,145.1531 59.363842,140.2559 57.686912,136.3131 C 57.425092,135.6975 57.043042,134.7909 56.837902,134.2985 C 56.632762,133.806 56.168192,132.7807 55.805532,132.0201 C 55.442872,131.2595 55.146142,130.5711 55.146142,130.4905 C 55.146142,130.252 68.567172,130.2937 68.658792,130.5324 C 68.698602,130.6362 68.385972,131.4253 67.964062,132.2859 C 66.693402,134.878 65.931302,137.116 65.068162,140.7901 C 64.324302,143.9564 63.929162,148.9519 64.379502,149.4964 C 64.621032,149.7884 65.194732,149.8225 65.406212,149.5574 C 65.488062,149.4548 65.628642,148.6577 65.718622,147.786 C 65.808592,146.9143 66.046522,145.6836 66.247362,145.0511 C 67.162542,142.1692 69.878192,139.5775 72.673482,138.9182 C 73.756722,138.6627 76.166492,138.6363 77.262462,138.868 C 80.433842,139.5383 83.906192,143.0615 84.745792,146.4609 C 85.822332,150.8196 85.372802,154.7665 83.237872,159.7005 C 82.522872,161.353 81.080952,163.989 80.227922,165.2032 C 77.181372,169.5396 75.994442,171.1382 73.257662,174.5911 C 70.934762,177.5219 70.404862,178.2143 69.024732,180.1222 C 68.327072,181.0867 67.449932,182.2514 67.075532,182.7104 C 66.396582,183.5429 64.986872,185.4722 63.267082,187.9227 C 62.767902,188.6339 62.264242,189.2317 62.147842,189.251 C 62.028182,189.2708 61.605482,188.7844 61.175212,188.1317 z M 166.52195,188.0943 C 165.34786,186.1443 164.24721,184.5179 162.7425,182.5095 C 161.96276,181.4688 160.79355,179.8993 160.14427,179.0219 C 159.49498,178.1445 158.31978,176.6511 157.5327,175.7034 C 156.74563,174.7557 155.63159,173.3873 155.05704,172.6626 C 154.4825,171.9378 153.59008,170.8329 153.07388,170.2072 C 152.55769,169.5815 151.81932,168.5995 151.43308,168.0249 C 151.04683,167.4504 150.4547,166.6109 150.11725,166.1595 C 148.23899,163.6469 145.08617,157.7077 144.46243,155.507 C 143.93374,153.6417 143.66806,150.275 143.92716,148.724 C 144.31587,146.3972 145.0586,144.6075 146.35604,142.8716 C 147.92347,140.7743 148.87446,140.0002 151.10239,139.0081 C 152.12046,138.5548 152.38481,138.5033 154.02692,138.4388 C 156.899,138.3259 158.25304,138.7782 160.06492,140.4557 C 162.24009,142.4696 163.40537,144.6876 164.2392,148.4009 C 164.49702,149.5491 164.62442,149.744 165.11719,149.744 C 165.79327,149.744 165.91556,149.4605 165.80673,148.1457 C 165.58152,145.4252 165.03972,142.425 164.43797,140.5662 C 163.68644,138.2448 161.62293,133.1192 161.25377,132.6569 C 161.05662,132.41 160.3206,130.4775 160.39528,130.4028 C 160.50689,130.2912 173.53739,130.2591 173.80568,130.3698 C 174.01529,130.4563 173.94725,130.6763 173.32113,131.9367 C 170.99166,136.6263 169.50136,142.695 169.44619,147.7158 C 169.43065,149.13 169.46462,149.3798 169.69545,149.5486 C 170.47913,150.1216 170.88678,149.5989 170.99778,147.8786 C 171.1755,145.1243 172.02616,143.1495 173.84734,141.2634 C 177.13927,137.8542 182.64272,137.6134 186.31076,140.7181 C 189.13619,143.1096 190.2875,145.5576 190.63812,149.9194 C 191.06716,155.2569 188.83505,160.8543 183.26426,168.4108 C 180.71985,171.8621 180.05176,172.7385 178.49571,174.6657 C 177.04586,176.4615 176.27178,177.481 174.52996,179.8889 C 174.08465,180.5045 173.21751,181.6451 172.60297,182.4237 C 171.66854,183.6075 170.19175,185.6482 168.03867,188.7309 C 167.82369,189.0387 167.55654,189.2905 167.44498,189.2905 C 167.33343,189.2905 166.91806,188.7522 166.52195,188.0943 z M 108.04893,140.7901 C 107.99821,140.708 108.31662,139.9189 108.75651,139.0366 C 109.77732,136.989 110.74853,134.5301 110.95214,133.4777 C 111.03948,133.0263 111.24758,132.1532 111.41459,131.5377 C 112.29625,128.288 112.8676,123.0072 112.45497,121.9219 C 112.3439,121.6298 112.20462,121.5391 111.86685,121.5391 C 111.62343,121.5391 111.37504,121.6188 111.31488,121.7161 C 111.25472,121.8134 111.15355,122.5353 111.09006,123.3203 C 110.84693,126.3264 109.96849,128.2704 107.99392,130.1722 C 106.27913,131.8238 104.77377,132.4929 102.37811,132.6682 C 100.83658,132.781 99.165082,132.4565 97.698002,131.7598 C 95.780192,130.8491 93.202922,128.0185 92.418952,125.962 C 92.027152,124.9343 91.610712,122.6839 91.485862,120.9199 C 91.166412,116.4063 93.037492,111.2099 97.200602,105.049 C 98.143452,103.6536 99.324752,101.9828 99.825722,101.3359 C 100.32668,100.689 101.03875,99.7431 101.4081,99.2339 C 101.77745,98.7247 102.65866,97.6087 103.36635,96.7539 C 104.07404,95.8991 105.30224,94.3266 106.0957,93.2596 C 108.09557,90.5703 108.96071,89.4376 109.91433,88.2603 C 110.36576,87.703 111.30592,86.4305 112.00358,85.4324 C 113.52977,83.2491 114.41007,82.1097 114.62578,82.0384 C 114.71371,82.0093 115.14294,82.5411 115.57962,83.2202 C 117.69052,86.5029 118.06695,87.0592 118.78809,87.9619 C 119.21431,88.4954 120.0938,89.6706 120.7425,90.5735 C 121.81418,92.065 122.57591,93.0406 125.80755,97.0606 C 129.66014,101.8531 130.38619,102.7796 131.07362,103.7805 C 131.49642,104.3961 132.03129,105.1684 132.26223,105.4967 C 133.22158,106.8605 134.89698,109.7248 135.89302,111.7039 C 137.60007,115.0957 138.1192,117.1572 138.1192,120.544 C 138.1192,123.851 137.25044,126.2913 135.12248,128.9617 C 133.80437,130.6158 132.84692,131.3566 130.86821,132.2533 C 128.6784,133.2457 125.64134,133.1702 123.51462,132.0704 C 122.83738,131.7202 121.31978,130.323 120.47983,129.2764 C 119.7343,128.3475 118.77054,126.6031 118.55482,125.7922 C 118.48931,125.546 118.22428,124.5387 117.96587,123.5537 C 117.70745,122.5688 117.4272,121.679 117.34309,121.5764 C 117.14673,121.3369 116.53214,121.3349 116.3848,121.5733 C 116.09048,122.0495 116.41819,125.6212 117.01837,128.4784 C 117.56224,131.0675 119.5516,136.3743 121.19826,139.6285 C 121.39416,140.0157 121.55443,140.469 121.55443,140.6359 C 121.55443,140.9364 121.49149,140.9393 114.84779,140.9393 C 110.53807,140.9393 108.1082,140.886 108.04893,140.7901 z M 160.86438,92.7501 C 160.74626,92.6243 160.93267,92.1045 161.55321,90.8294 C 163.03921,87.7758 164.05555,84.448 164.68504,80.5749 C 165.01395,78.5512 165.24327,73.8408 165.02735,73.5438 C 164.82518,73.2657 164.30807,73.1754 164.05388,73.3738 C 163.87732,73.5116 163.76956,74.0313 163.64576,75.342 C 163.35773,78.3913 162.51396,80.2839 160.60265,82.1678 C 158.7788,83.9654 157.02668,84.6788 154.43557,84.6788 C 151.26568,84.6788 148.96502,83.5054 146.68144,80.7241 C 145.10021,78.7983 144.42548,76.8741 144.08748,73.3266 C 143.8717,71.062 144.20992,68.3226 144.99822,65.9502 C 146.53767,61.317 149.55701,56.456 156.39936,47.5946 C 157.47676,46.1993 158.95157,44.2182 159.6767,43.1923 C 160.40184,42.1663 161.33792,40.894 161.75689,40.3649 C 162.17586,39.8359 163.16937,38.4592 163.9647,37.3057 C 166.0445,34.2891 166.77451,33.3187 166.92419,33.3712 C 166.99671,33.3967 167.78114,34.5366 168.66737,35.9043 C 169.55362,37.2721 170.75473,39.0181 171.3365,39.7844 C 171.91828,40.5507 172.88673,41.8492 173.48863,42.6699 C 174.09051,43.4907 175.09537,44.8002 175.72162,45.58 C 176.34787,46.3597 177.71881,48.0721 178.76814,49.3854 C 179.81746,50.6986 181.03984,52.2096 181.48453,52.7431 C 181.92923,53.2766 182.63777,54.2168 183.05908,54.8324 C 183.48039,55.4479 184.07204,56.2874 184.37383,56.6978 C 185.37375,58.0574 187.30848,61.294 188.3881,63.4132 C 189.74668,66.08 190.27857,67.7826 190.50923,70.2033 C 190.8979,74.2821 190.31278,76.893 188.35796,79.8027 C 186.96683,81.8733 185.92581,82.833 184.07692,83.7494 C 182.20612,84.6766 180.91596,84.9123 178.93989,84.6877 C 176.82321,84.4472 175.46282,83.6935 173.65882,81.7618 C 172.30977,80.3173 171.46173,78.6373 170.72443,75.9487 C 170.43182,74.8817 170.14306,73.8408 170.08274,73.6356 C 169.99297,73.3302 169.87892,73.2625 169.45435,73.2625 L 168.93563,73.2625 L 168.89251,74.6598 C 168.77522,78.4592 170.68653,85.0169 173.63092,90.9175 C 174.36059,92.3798 174.39828,92.737 173.82299,92.7381 C 173.59727,92.7386 170.62569,92.7803 167.21947,92.8308 C 162.62269,92.8989 160.98459,92.8781 160.86438,92.7501 z M 55.966922,92.6363 C 55.115872,92.5203 55.115892,92.5238 55.956852,90.8405 C 56.833202,89.0864 57.809832,86.8058 57.988372,86.0965 C 58.050352,85.8503 58.270242,85.0108 58.477022,84.2311 C 59.253102,81.3046 59.669522,78.6703 59.848982,75.5521 C 59.943212,73.9146 59.930752,73.794 59.636872,73.5001 C 59.273982,73.1373 59.171452,73.1211 58.836702,73.3745 C 58.656652,73.5107 58.547012,73.9835 58.430072,75.1279 C 58.209192,77.2895 57.842612,78.5125 56.992092,79.9253 C 55.661322,82.1358 53.491992,83.7945 51.266112,84.3034 C 49.312102,84.7501 46.797982,84.4722 45.062102,83.6177 C 43.638422,82.9168 41.910452,81.3504 40.934122,79.8757 C 39.826342,78.2024 39.711572,77.9497 39.353972,76.3964 C 38.311822,71.8698 38.772632,67.7853 40.821042,63.3926 C 41.148702,62.69 41.416792,62.087 41.416792,62.0527 C 41.416792,62.0184 41.763312,61.3703 42.186852,60.6125 C 43.081902,59.0111 45.323022,55.6667 46.847302,53.6578 C 47.430902,52.8886 48.207162,51.8477 48.572322,51.3447 C 48.937492,50.8416 50.051332,49.4227 51.047512,48.1915 C 53.586512,45.0536 58.987812,37.8934 60.447312,35.7306 C 60.807342,35.1971 61.341492,34.492 61.634302,34.1637 C 62.067782,33.6777 62.191602,33.6084 62.300812,33.7906 C 62.374582,33.9137 62.725642,34.4642 63.080962,35.0138 C 63.436282,35.5634 64.096342,36.5959 64.547772,37.3081 C 64.999192,38.0203 65.722702,39.048 66.155552,39.5918 C 66.588412,40.1357 67.287502,41.0844 67.709082,41.6999 C 68.130672,42.3155 69.052452,43.5759 69.757492,44.5008 C 71.497722,46.7838 71.694382,47.0352 73.576312,49.3814 C 76.882302,53.503 77.782212,54.6819 79.116792,56.6397 C 80.922492,59.2887 82.047702,61.1829 83.317652,63.7117 C 85.122862,67.3062 85.512862,68.9838 85.399222,72.6656 C 85.335492,74.7306 85.270512,75.2247 84.918432,76.3218 C 84.202072,78.5538 83.178282,80.1982 81.355602,82.0441 C 80.494922,82.9158 80.017452,83.2539 78.855392,83.8146 C 76.737162,84.8365 74.906642,85.0731 72.713692,84.6084 C 71.204012,84.2885 70.310242,83.7342 68.726272,82.1355 C 66.971862,80.3647 66.287832,79.1417 65.516452,76.3964 C 64.555492,72.9764 64.677992,73.2625 64.174692,73.2625 L 63.726992,73.2625 L 63.683142,74.6802 C 63.640532,76.0581 63.974552,78.6346 64.489942,80.9035 C 65.015482,83.217 66.169212,86.2571 68.542052,91.5811 C 68.752472,92.0532 68.874462,92.4897 68.813142,92.5511 C 68.698242,92.6661 56.766482,92.7452 55.966922,92.6363 z M 20.860062,81.2968 C 20.571052,81.1802 20.625522,81.0314 21.326452,80.0224 C 22.531522,78.2878 23.119382,76.66 23.031552,75.3008 C 22.992852,74.702 22.941982,74.6056 22.664502,74.6056 C 22.443982,74.6056 22.185112,74.8409 21.843732,75.3515 C 21.144312,76.3976 20.126052,76.9447 19.106592,76.8222 C 16.595012,76.5202 15.121362,74.6315 15.353232,72.0118 C 15.604732,69.1702 16.432952,67.2785 19.542562,62.4432 C 20.859422,60.3955 21.470272,59.348 22.501412,57.3693 C 23.036052,56.3433 23.531832,55.5039 23.603142,55.5039 C 23.674442,55.5039 24.145692,56.2426 24.650352,57.1455 C 25.155012,58.0483 26.337202,59.9622 27.277452,61.3986 C 31.665362,68.1017 32.670262,70.9219 31.661342,73.7014 C 31.223372,74.908 30.685372,75.6284 29.805392,76.1864 C 28.250742,77.1724 26.733782,76.8449 25.695712,75.2992 C 24.267482,73.1726 24.098692,75.9649 25.485062,78.7841 C 25.646512,79.1124 26.083572,79.774 26.456302,80.2542 C 26.993372,80.9462 27.090772,81.1547 26.925702,81.2592 C 26.709992,81.3958 21.190182,81.43 20.860062,81.2968 z M 22.821002,50.0533 C 19.798502,49.6731 16.923742,47.8201 15.522522,45.349 C 14.801082,44.0767 14.570332,43.3379 14.385032,41.707 C 14.176862,39.8749 14.435972,38.3738 15.250352,36.6939 C 15.843482,35.4704 17.010052,34.1453 18.169732,33.3779 C 18.479812,33.1727 18.733512,32.9237 18.733512,32.8246 C 18.733512,32.7255 18.507462,32.4826 18.231182,32.2848 C 17.163332,31.5204 16.280402,30.0329 15.841862,28.2595 C 15.537572,27.029 15.537662,26.4384 15.842312,25.09 C 16.480922,22.2636 18.401852,20.0512 21.084982,19.0517 C 22.425832,18.5522 24.932252,18.4193 26.317562,18.7742 C 28.887522,19.4326 30.333512,20.4008 31.618042,22.3233 C 32.593722,23.7836 32.926492,24.7903 33.020492,26.566 C 33.089022,27.8606 33.053722,28.2112 32.768522,29.0682 C 32.407702,30.1525 31.392602,31.6273 30.581192,32.2462 C 30.103642,32.6105 29.905472,33.0445 30.216702,33.0445 C 30.563322,33.0445 33.019392,35.5983 33.398362,36.3528 C 34.433152,38.4129 34.637372,41.2273 33.910912,43.4161 C 32.970762,46.2487 30.443352,48.7333 27.456842,49.7608 C 26.444552,50.1091 24.326522,50.2427 22.821002,50.0533 z M 26.841982,46.4824 C 28.598922,45.98 29.383402,45.3875 30.407942,43.7892 C 31.186292,42.5749 31.474502,41.5563 31.375112,40.3708 C 31.204852,38.3398 30.253762,36.7237 28.616102,35.6827 C 27.050032,34.6871 26.352182,34.4747 24.628182,34.4685 C 23.345732,34.464 22.988942,34.5209 22.091232,34.8733 C 20.300792,35.576 19.294672,36.3329 18.376642,37.6674 C 17.663502,38.7042 17.468552,39.4242 17.466642,41.0284 C 17.465272,42.1698 17.524092,42.4974 17.858292,43.2102 C 18.074572,43.6714 18.490392,44.3132 18.782312,44.6364 C 19.350662,45.2654 21.373422,46.3695 22.389692,46.6053 C 23.488692,46.8603 25.737512,46.7983 26.841982,46.4824 z M 26.724392,31.2407 C 29.154552,30.4901 30.611542,27.8717 29.859312,25.607 C 29.194362,23.605 28.015632,22.4999 25.825242,21.8248 C 24.899312,21.5394 24.650482,21.5203 23.581602,21.6528 C 22.095672,21.8369 20.618442,22.5247 19.798502,23.4142 C 18.596022,24.7187 18.222352,26.9631 18.948122,28.5219 C 19.425952,29.5482 20.442562,30.6312 21.256082,30.9805 C 22.710822,31.6052 25.165952,31.722 26.724392,31.2407 z"
     id="path6586" />
  <g
     id="g3796"
     transform="translate(1.593878e-6,0)">
    <rect
       ry="11.25"
       rx="11.25"
       y="3.4247196"
       x="3.6058116"
       height="311.81104"
       width="223.22835"
       id="rect2382"
       style="fill:none;fill-opacity:1;fill-rule:nonzero;stroke:#000000;stroke-width:0.03543307;stroke-linejoin:round;stroke-miterlimit:4;stroke-dasharray:none;stroke-opacity:1" />
    <g
       transform="translate(3.5433116,3.3622195)"
       id="g3164">
      <path
         style="fill:none;fill-rule:evenodd;stroke:#000000;stroke-width:0.03221492;stroke-linecap:butt;stroke-linejoin:miter;stroke-miterlimit:4;stroke-dasharray:none;stroke-opacity:1"
         d="M 219.74754,0.062511534 L 226.70838,0.062511534"
         id="path3160"
         sodipodi:nodetypes="cc" />
      <path
         sodipodi:nodetypes="cc"
         id="path3162"
         d="M 223.29036,-3.2997195 L 223.29036,3.6063107"
         style="fill:none;fill-rule:evenodd;stroke:#000000;stroke-width:0.03196126;stroke-linecap:butt;stroke-linejoin:miter;stroke-miterlimit:4;stroke-dasharray:none;stroke-opacity:1" />
    </g>
    <g
       transform="matrix(1.0001093,0,0,1,3.519309,315.17275)"
       id="g3168">
      <path
         sodipodi:nodetypes="cc"
         id="path3170"
         d="M 219.74754,0.062511534 L 226.70838,0.062511534"
         style="fill:none;fill-rule:evenodd;stroke:#000000;stroke-width:0.03221492;stroke-linecap:butt;stroke-linejoin:miter;stroke-miterlimit:4;stroke-dasharray:none;stroke-opacity:1" />
      <path
         style="fill:none;fill-rule:evenodd;stroke:#000000;stroke-width:0.03196126;stroke-linecap:butt;stroke-linejoin:miter;stroke-miterlimit:4;stroke-dasharray:none;stroke-opacity:1"
         d="M 223.29036,-3.2997195 L 223.29036,3.6063107"
         id="path3172"
         sodipodi:nodetypes="cc" />
    </g>
    <g
       id="g3174"
       transform="matrix(1.0001093,0,0,1,-219.70906,315.17275)">
      <path
         style="fill:none;fill-rule:evenodd;stroke:#000000;stroke-width:0.03221492;stroke-linecap:butt;stroke-linejoin:miter;stroke-miterlimit:4;stroke-dasharray:none;stroke-opacity:1"
         d="M 219.74754,0.062511534 L 226.70838,0.062511534"
         id="path3176"
         sodipodi:nodetypes="cc" />
      <path
         sodipodi:nodetypes="cc"
         id="path3178"
         d="M 223.29036,-3.2997195 L 223.29036,3.6063107"
         style="fill:none;fill-rule:evenodd;stroke:#000000;stroke-width:0.03196126;stroke-linecap:butt;stroke-linejoin:miter;stroke-miterlimit:4;stroke-dasharray:none;stroke-opacity:1" />
    </g>
    <g
       transform="translate(-219.68504,3.3622195)"
       id="g3180">
      <path
         sodipodi:nodetypes="cc"
         id="path3182"
         d="M 219.74754,0.062511534 L 226.70838,0.062511534"
         style="fill:none;fill-rule:evenodd;stroke:#000000;stroke-width:0.03221492;stroke-linecap:butt;stroke-linejoin:miter;stroke-miterlimit:4;stroke-dasharray:none;stroke-opacity:1" />
      <path
         style="fill:none;fill-rule:evenodd;stroke:#000000;stroke-width:0.03196126;stroke-linecap:butt;stroke-linejoin:miter;stroke-miterlimit:4;stroke-dasharray:none;stroke-opacity:1"
         d="M 223.29036,-3.2997195 L 223.29036,3.6063107"
         id="path3184"
         sodipodi:nodetypes="cc" />
    </g>
  </g>
</svg>
