<?xml version="1.0" encoding="UTF-8" standalone="no"?>
<!-- Created with Inkscape (http://www.inkscape.org/) -->
<svg
   xmlns:dc="http://purl.org/dc/elements/1.1/"
   xmlns:cc="http://creativecommons.org/ns#"
   xmlns:rdf="http://www.w3.org/1999/02/22-rdf-syntax-ns#"
   xmlns:svg="http://www.w3.org/2000/svg"
   xmlns="http://www.w3.org/2000/svg"
   xmlns:sodipodi="http://sodipodi.sourceforge.net/DTD/sodipodi-0.dtd"
   xmlns:inkscape="http://www.inkscape.org/namespaces/inkscape"
   id="svg6668"
   sodipodi:version="0.32"
   inkscape:version="0.46"
   width="230.31497"
   height="318.84155"
   version="1.0"
   sodipodi:docname="9c.svg"
   inkscape:output_extension="org.inkscape.output.svg.inkscape">
  <metadata
     id="metadata6673">
    <rdf:RDF>
      <cc:Work
         rdf:about="">
        <dc:format>image/svg+xml</dc:format>
        <dc:type
           rdf:resource="http://purl.org/dc/dcmitype/StillImage" />
      </cc:Work>
    </rdf:RDF>
  </metadata>
  <defs
     id="defs6671">
    <inkscape:perspective
       sodipodi:type="inkscape:persp3d"
       inkscape:vp_x="0 : 526.18109 : 1"
       inkscape:vp_y="0 : 1000 : 0"
       inkscape:vp_z="744.09448 : 526.18109 : 1"
       inkscape:persp3d-origin="372.04724 : 350.78739 : 1"
       id="perspective6675" />
  </defs>
  <sodipodi:namedview
     inkscape:window-height="667"
     inkscape:window-width="842"
     inkscape:pageshadow="2"
     inkscape:pageopacity="0.0"
     guidetolerance="10.0"
     gridtolerance="10.0"
     objecttolerance="10.0"
     borderopacity="1.0"
     bordercolor="#666666"
     pagecolor="#ffffff"
     id="base"
     showgrid="false"
     inkscape:zoom="1.4489956"
     inkscape:cx="115.15749"
     inkscape:cy="159.42078"
     inkscape:window-x="88"
     inkscape:window-y="116"
     inkscape:current-layer="svg6668" />
  <path
     style="fill:#000000"
     d="M 26.024412,18.7017 C 27.732502,18.9956 29.111172,19.7287 30.611252,21.141 C 32.117742,22.5594 32.892842,24.3079 33.491892,27.6395 C 33.791692,29.3068 33.827632,30.001 33.835032,34.2694 C 33.842012,38.2967 33.800502,39.2683 33.567662,40.5268 C 32.700432,45.2146 31.253132,47.8982 28.796632,49.3732 C 26.936742,50.49 25.047712,50.8694 22.699372,50.5976 C 20.080982,50.2945 17.707742,48.6525 16.691432,46.4408 C 16.416352,45.8422 16.191292,45.2183 16.191292,45.0544 C 16.191292,44.5616 18.522082,43.6595 18.947542,43.9876 C 19.029492,44.0508 19.264142,44.428 19.469002,44.8258 C 19.967662,45.7941 21.079222,46.7758 22.037132,47.094 C 23.792752,47.6771 26.123262,47.3101 27.411252,46.2478 C 28.034672,45.7336 29.129772,44.1575 29.596022,43.1035 C 30.246452,41.6331 30.905152,37.6216 30.496152,37.6216 C 30.396142,37.6216 29.993712,37.9098 29.601862,38.2621 C 28.060552,39.6479 25.396542,40.5794 23.542352,40.3808 C 20.536862,40.0589 18.390782,38.7018 17.124842,36.3225 C 15.861882,33.9488 15.405792,31.9032 15.423882,28.6938 C 15.437092,26.3471 15.679842,24.7355 16.204422,23.5117 C 17.241442,21.0924 19.687992,19.1732 22.311952,18.7205 C 23.398582,18.533 24.996922,18.5249 26.024412,18.7017 z M 21.503962,22.4813 C 19.869942,23.2808 19.013682,24.5265 18.640452,26.6473 C 18.366442,28.2042 18.369662,29.3529 18.652182,30.8427 C 19.456562,35.0842 21.126092,36.781 24.485332,36.771 C 25.695132,36.7674 25.963832,36.7144 26.833142,36.3076 C 28.162072,35.6857 29.323242,34.5583 29.973512,33.2584 C 30.449332,32.3073 30.494012,32.106 30.494012,30.9136 C 30.494012,29.3137 30.173022,27.5562 29.582962,25.9255 C 29.235532,24.9654 28.953472,24.4899 28.308542,23.7772 C 26.996032,22.3268 26.076762,21.9635 23.862242,22.0196 C 22.570022,22.0523 22.254602,22.1141 21.503962,22.4813 z M 166.74229,32.6302 C 167.99829,32.8665 168.60409,33.0806 170.33618,33.9003 C 171.48841,34.4456 171.8511,34.7209 173.15074,36.0367 C 174.73128,37.6368 175.25168,38.4189 176.10075,40.4701 C 177.00412,42.6524 177.17542,44.57 176.72946,47.508 C 176.2578,50.6155 175.22573,52.8227 173.23631,54.9785 C 171.44388,56.9209 171.1374,57.3123 171.1374,57.659 C 171.1374,57.9288 171.23834,58.0524 171.51557,58.122 C 171.8082,58.1954 172.08929,58.0797 172.75807,57.6106 C 174.48015,56.4026 177.45746,55.5 179.71967,55.5 C 184.32881,55.5 188.01758,57.9365 190.37716,62.5394 C 191.66703,65.0557 191.72063,69.4454 190.49715,72.3643 C 189.60017,74.5043 187.72968,76.8129 185.83536,78.1181 C 183.40672,79.7914 181.87293,80.2937 179.18268,80.2969 C 177.52665,80.2989 177.18007,80.252 176.05396,79.8741 C 173.90047,79.1514 172.39477,78.2807 171.0629,76.988 C 168.84123,74.8316 167.80899,73.2137 167.26442,71.0345 C 166.99725,69.9654 166.81214,69.6612 166.42532,69.656 C 165.97885,69.6499 165.91983,70.0485 166.08121,71.9796 C 166.25289,74.0339 166.73778,76.687 167.31711,78.7419 C 167.51348,79.4384 167.85987,80.7793 168.08687,81.7216 C 168.31388,82.664 168.75789,83.992 169.07358,84.6729 C 169.38925,85.3538 169.64753,85.9494 169.64753,85.9964 C 169.64753,86.0435 169.88219,86.5424 170.16898,87.1052 C 170.45578,87.668 170.69044,88.2204 170.69044,88.3328 C 170.69044,88.4703 170.4356,88.5616 169.91061,88.612 C 168.0113,88.7945 157.51844,88.8608 157.34863,88.6914 C 157.28961,88.6325 157.81399,87.2917 158.51391,85.7117 C 160.53493,81.1496 161.4889,77.8194 162.13232,73.0804 C 162.46851,70.6043 162.40365,69.739 161.86915,69.5693 C 161.44533,69.4348 161.3139,69.6317 161.07943,70.7524 C 160.82605,71.9634 160.25914,73.2839 159.4404,74.5703 C 157.3049,77.9254 151.96876,80.5163 147.91733,80.1651 C 145.10496,79.9214 143.02035,78.9897 140.94679,77.0496 C 139.41042,75.6122 138.61453,74.477 137.90292,72.7079 C 136.97959,70.4126 136.81394,69.4651 136.9155,67.0601 C 137.00486,64.9441 137.07403,64.6116 137.87919,62.4279 C 138.29125,61.3103 139.21127,59.7723 140.0162,58.8556 C 141.18499,57.5244 143.34565,56.0918 144.84126,55.6563 C 145.16903,55.5608 146.41444,55.4438 147.60884,55.3961 C 149.37217,55.3258 150.00242,55.3589 150.96104,55.572 C 152.51493,55.9174 154.03515,56.5121 155.09103,57.1875 C 155.56157,57.4885 156.04346,57.7348 156.1619,57.7348 C 156.34951,57.7348 156.6857,57.3121 156.6857,57.0762 C 156.6857,57.031 156.08275,56.3394 155.3458,55.5393 C 154.2226,54.3199 153.86098,53.7944 153.10981,52.2905 C 151.8675,49.8032 151.429,47.8913 151.43689,44.9964 C 151.44666,41.408 152.24216,39.2805 154.57186,36.6119 C 155.45358,35.6019 157.58521,33.967 158.54803,33.5623 C 161.02704,32.5202 164.22467,32.1565 166.74229,32.6302 z M 69.817452,32.569 C 71.201232,32.7481 72.682092,33.2273 74.263722,34.0078 C 76.525492,35.1239 78.461882,37.1409 79.664102,39.6329 C 80.885752,42.1651 81.141442,43.7101 80.798302,46.4863 C 80.490102,48.9799 80.248722,49.8734 79.427062,51.5626 C 78.917802,52.6096 78.412572,53.3321 77.333582,54.5565 C 76.551372,55.4442 75.756632,56.3116 75.567492,56.484 C 75.037422,56.9674 74.855852,57.3888 75.034102,57.7218 C 75.246002,58.1178 75.808212,58.0253 76.586472,57.4664 C 79.510212,55.3667 84.661142,54.7587 88.144732,56.1021 C 91.143332,57.2585 93.777412,59.9294 95.179392,63.2351 C 95.627322,64.2913 95.662512,64.5025 95.720812,66.4854 C 95.818842,69.8188 95.289952,71.8988 93.794052,74.0627 C 92.471782,75.9754 90.886092,77.3977 88.820582,78.5236 C 86.873222,79.5851 85.788092,79.8452 83.309772,79.8445 C 81.345882,79.844 81.141232,79.8156 79.808592,79.359 C 76.962422,78.3838 75.399912,77.2987 73.366342,74.8849 C 72.083452,73.3621 71.324802,71.9565 71.030932,70.5578 C 70.838252,69.6406 70.655642,69.3557 70.260452,69.3557 C 69.772092,69.3557 69.691352,69.7907 69.844462,71.5971 C 70.063372,74.1797 70.348622,75.4861 72.022542,81.5726 C 72.236642,82.3511 72.640472,83.4908 72.919922,84.1054 C 73.199392,84.72 73.581472,85.558 73.768972,85.9677 C 73.956482,86.3775 74.323272,87.0742 74.584072,87.516 C 74.930812,88.1035 75.013932,88.3638 74.893322,88.4844 C 74.778752,88.5991 72.645162,88.6626 67.905252,88.6924 C 59.897242,88.7427 60.371632,88.8442 61.219912,87.2618 C 62.938862,84.0553 64.559762,79.489 65.354812,75.6132 C 66.032572,72.3092 66.158282,69.5924 65.648002,69.277 C 65.401942,69.1249 64.909922,69.3619 64.909922,69.6324 C 64.909922,70.0869 64.459132,71.6426 64.098912,72.4315 C 63.581302,73.565 62.493542,75.1563 61.757832,75.8564 C 60.179662,77.3582 57.657452,78.7434 55.374782,79.3621 C 53.700062,79.816 50.295062,79.8473 48.893862,79.4216 C 46.230232,78.6125 43.551152,76.6615 42.003512,74.4038 C 41.416552,73.5476 40.425962,71.2372 40.094622,69.9517 C 39.894112,69.1738 39.860982,68.5582 39.926172,66.823 C 39.998702,64.8921 40.057742,64.5203 40.482092,63.3218 C 41.572342,60.2425 42.778312,58.6184 45.306632,56.8245 C 46.833152,55.7413 48.221302,55.3398 50.783202,55.2402 C 53.894312,55.1194 56.422932,55.7127 58.710482,57.1003 C 59.377142,57.5047 59.645552,57.5965 59.827882,57.4822 C 60.356952,57.1507 60.192322,56.7273 59.118662,55.6579 C 57.722642,54.2674 56.948642,53.1906 56.234682,51.6458 C 55.157902,49.3159 54.735072,47.4181 54.740022,44.9374 C 54.745642,42.1279 55.155132,40.6342 56.501912,38.5106 C 56.841402,37.9753 57.212752,37.4382 57.327132,37.3171 C 57.441512,37.196 57.799402,36.796 58.122462,36.4281 C 59.295942,35.0918 61.334942,33.7954 63.153072,33.2296 C 65.459332,32.5118 67.676922,32.292 69.817452,32.569 z M 27.104802,55.4234 C 27.992142,55.6676 29.210612,56.4404 29.666272,57.048 C 29.857362,57.3028 30.204302,57.88 30.437242,58.3307 C 30.809532,59.051 30.861102,59.3123 30.863612,60.491 C 30.866092,61.6519 30.812142,61.9424 30.461682,62.6553 C 30.239032,63.1082 29.585352,63.9905 29.009062,64.6159 C 28.432752,65.2413 27.961242,65.7939 27.961242,65.8439 C 27.961242,66.0363 28.814562,65.707 29.572452,65.2222 C 31.778092,63.8113 34.411192,64.0775 35.990022,65.8712 C 37.607602,67.7088 37.567882,71.1268 35.903132,73.3468 C 34.816222,74.7962 32.206622,75.4308 30.286992,74.7126 C 29.679162,74.4852 29.250122,74.1699 28.593852,73.4684 C 27.856562,72.6802 27.660822,72.351 27.379682,71.4264 C 26.990602,70.1469 26.884732,69.9157 26.652452,69.8382 C 26.214472,69.6922 26.319972,71.0149 26.982362,73.9743 C 27.211462,74.9979 27.925432,76.8397 28.414292,77.6683 C 28.979832,78.6268 28.897452,78.7002 27.120092,78.8213 C 25.418782,78.9373 21.912292,78.8511 21.750522,78.6893 C 21.696532,78.6353 21.994652,77.9043 22.413022,77.0649 C 23.434752,75.0149 24.039042,73.4491 24.391012,71.9396 C 24.758082,70.3654 24.768602,69.9132 24.436662,69.978 C 24.280512,70.0085 24.040492,70.442 23.783442,71.158 C 23.250282,72.643 22.718872,73.4205 21.873482,73.9524 C 20.930832,74.5454 20.190662,74.758 19.033262,74.768 C 17.820512,74.7785 17.051912,74.5628 16.132462,73.9537 C 14.770392,73.0515 14.180852,71.682 14.185232,69.4302 C 14.188722,67.6384 14.470722,66.8829 15.514792,65.8682 C 16.885792,64.5357 18.953822,64.2083 20.908312,65.0143 C 21.476642,65.2486 22.222022,65.6174 22.564692,65.8337 C 23.160952,66.2101 23.789612,66.3537 23.789612,66.1134 C 23.789612,66.051 23.290242,65.5195 22.679882,64.9325 C 21.964972,64.2449 21.395162,63.53 21.078282,62.923 C 20.608672,62.0235 20.586402,61.9067 20.586402,60.342 C 20.586402,58.8533 20.622852,58.6341 20.984532,57.9488 C 21.823542,56.3591 23.720732,55.1922 25.428462,55.2154 C 25.961092,55.2227 26.715442,55.3163 27.104802,55.4234 z M 69.448222,97.5309 C 70.854852,97.7359 71.866622,98.0751 73.625642,98.9316 C 75.996942,100.0862 77.817452,101.8922 79.023312,104.2862 C 80.219092,106.6602 80.553242,108.2256 80.385942,110.67 C 80.243262,112.7549 79.939322,114.2054 79.347062,115.628 C 78.735762,117.0964 78.056472,118.0696 76.207792,120.1253 C 75.361202,121.0667 74.623292,121.9547 74.567982,122.0987 C 74.467222,122.3611 74.796302,122.9909 75.034122,122.9909 C 75.102982,122.9909 75.654822,122.6528 76.260452,122.2395 C 77.035052,121.7109 77.890152,121.3075 79.143792,120.8794 C 80.814742,120.3088 81.056722,120.2663 83.020202,120.1976 C 84.823482,120.1346 85.288462,120.1684 86.367102,120.4412 C 89.832662,121.3175 92.644102,123.6633 94.333522,127.0881 C 95.171872,128.7876 95.299442,129.3931 95.313222,131.7385 C 95.336202,135.651 94.271932,138.1629 91.403072,140.9673 C 87.932742,144.3596 83.751442,145.4702 79.528092,144.1213 C 76.910512,143.2853 75.028202,141.961 72.904562,139.4615 C 71.707452,138.0525 71.142872,137.0078 70.714382,135.4088 C 70.542782,134.7685 70.323102,134.1942 70.226182,134.1326 C 68.838012,133.2498 69.187522,137.3322 71.089922,144.2215 C 71.474592,145.6145 71.847142,146.9893 71.917842,147.2764 C 72.062102,147.8625 72.926032,149.7978 73.954572,151.8389 C 74.352192,152.6279 74.601292,153.2994 74.547962,153.4384 C 74.465452,153.6534 73.955182,153.6721 69.571242,153.6203 C 66.884592,153.5886 63.731072,153.556 62.563382,153.5479 C 60.633772,153.5345 60.440322,153.5091 60.440322,153.2684 C 60.440322,153.1227 60.534972,152.8684 60.650682,152.7032 C 61.114102,152.0416 63.124052,147.2326 63.697472,145.4134 C 64.776742,141.9895 65.463802,138.6072 65.604112,136.0273 C 65.686192,134.5181 65.669842,134.3675 65.397622,134.1241 C 65.021532,133.7878 64.633222,133.9302 64.530322,134.4421 C 64.116402,136.5012 63.313222,138.2657 62.109792,139.7594 C 60.279552,142.0313 56.853282,143.9397 53.688002,144.4503 C 52.329592,144.6695 49.580282,144.5632 48.435262,144.2473 C 46.948532,143.8371 45.048982,142.7128 43.682432,141.4342 C 42.178662,140.0273 41.417192,138.965 40.611912,137.1508 C 39.757372,135.2256 39.530022,133.923 39.623222,131.4861 C 39.686662,129.8275 39.771032,129.2628 40.101042,128.288 C 40.542342,126.9844 41.260992,125.5079 41.948432,124.4924 C 42.440282,123.7659 44.002672,122.3466 45.186952,121.5505 C 47.352262,120.0949 51.241662,119.6311 54.438262,120.4473 C 55.849632,120.8076 57.569472,121.487 58.331132,121.9851 C 59.094592,122.4843 59.332012,122.5501 59.617142,122.3417 C 59.977902,122.0779 59.773792,121.4518 59.147852,120.9022 C 57.119662,119.1214 55.408972,116.2463 54.761522,113.5303 C 54.465722,112.2894 54.409112,111.6794 54.422782,109.8801 C 54.446022,106.8211 54.778072,105.6652 56.284582,103.3992 C 58.080022,100.6986 60.368772,98.9278 63.121552,98.1096 C 65.397062,97.4333 67.474072,97.2433 69.448222,97.5309 z M 166.36983,97.7343 C 168.78517,98.1441 171.26728,99.4098 172.93071,101.0799 C 174.6606,102.8167 175.78724,104.7747 176.46193,107.2167 C 176.97879,109.0875 176.68514,113.3986 175.90421,115.4045 C 175.09402,117.4855 174.32015,118.6512 172.26137,120.8917 C 171.15064,122.1005 170.97928,122.357 171.018,122.7528 C 171.08376,123.4251 171.47195,123.4109 172.48653,122.6992 C 173.51864,121.9753 174.91737,121.3746 176.57541,120.9434 C 181.58032,119.6417 186.24253,121.3816 189.08697,125.6124 C 191.14139,128.6682 191.67391,131.3077 190.96898,134.9408 C 190.61783,136.7506 190.19698,137.8073 189.26049,139.2305 C 187.7742,141.4892 186.44302,142.7477 184.17373,144.0395 C 182.3475,145.0791 181.57379,145.2625 179.03369,145.2583 C 177.18073,145.2552 176.73922,145.2071 175.93031,144.9204 C 172.80787,143.8137 171.3551,142.7646 169.20361,140.0628 C 168.14823,138.7374 167.33434,137.1132 167.08723,135.8392 C 166.89846,134.866 166.74722,134.6119 166.35683,134.6119 C 165.84714,134.6119 165.76119,135.0768 165.92515,136.9471 C 166.11086,139.0655 166.48028,140.9859 167.36753,144.445 C 167.73533,145.879 168.10031,147.3204 168.17857,147.6482 C 168.32644,148.2675 169.5729,151.284 170.20106,152.5426 C 170.39944,152.9401 170.52578,153.3592 170.4818,153.4738 C 170.41496,153.648 169.32448,153.6822 163.84173,153.6822 C 156.70982,153.6822 157.06225,153.7285 157.49375,152.8484 C 159.16344,149.4429 160.70613,144.8893 161.44493,141.1856 C 162.39247,136.4354 162.43615,134.4629 161.59382,134.4629 C 161.25862,134.4629 161.15207,134.6886 160.79172,136.1623 C 160.40282,137.7528 159.41172,139.5639 158.19071,140.9154 C 156.8367,142.4141 153.8554,144.1802 151.69465,144.7635 C 150.14442,145.182 147.10243,145.2265 145.70282,144.8511 C 144.72928,144.59 142.86611,143.7144 142.234,143.2209 C 140.06834,141.5303 138.57449,139.6536 137.70543,137.5317 C 136.86593,135.482 136.67718,134.3626 136.75831,131.9146 C 136.82159,130.0053 136.87987,129.6261 137.28915,128.4612 C 137.84364,126.8828 138.84628,124.9615 139.53615,124.1552 C 140.27703,123.2893 142.34404,121.658 143.20241,121.2617 C 144.59452,120.6189 145.74495,120.4101 147.96998,120.3965 C 149.54482,120.3868 150.31128,120.4504 151.0987,120.6563 C 152.67657,121.0687 154.01467,121.6006 154.91052,122.1713 C 155.76399,122.7151 156.34431,122.8305 156.47768,122.4829 C 156.60755,122.1445 156.17691,121.4895 155.19539,120.5326 C 153.10136,118.4912 151.79688,115.6143 151.29747,111.9358 C 151.08428,110.3657 151.29384,107.7898 151.75574,106.3028 C 152.50089,103.904 155.13873,100.6274 157.38486,99.3105 C 159.92079,97.8238 163.35061,97.2221 166.36983,97.7343 z M 117.12975,123.9868 C 118.90338,124.2144 120.86184,124.9041 122.52302,125.8861 C 123.46153,126.4409 125.17456,128.1226 126.04658,129.3452 C 126.77539,130.3669 127.74748,132.5864 128.01114,133.8305 C 128.52831,136.271 128.06693,140.0006 126.94268,142.4676 C 126.26835,143.9473 125.78027,144.6396 123.95509,146.7049 C 122.36025,148.5096 122.10949,149.0366 122.69613,149.3505 C 122.91922,149.4699 123.17427,149.358 123.99976,148.7782 C 125.13001,147.9845 127.1864,147.1553 129.02729,146.7509 C 129.90252,146.5587 130.59783,146.5133 131.78354,146.571 C 136.25569,146.7887 139.93578,149.4278 142.01132,153.9057 C 142.63885,155.2595 142.81164,156.0745 142.90105,158.1018 C 142.98673,160.0447 142.64724,162.2807 142.04036,163.7707 C 141.2056,165.8201 139.16839,168.2768 137.26121,169.5338 C 134.98516,171.0339 134.00108,171.4159 131.68227,171.6998 C 128.80874,172.0516 125.12922,170.8268 122.77125,168.7337 C 120.63831,166.8403 119.08788,164.5016 118.5707,162.3975 C 118.31705,161.3655 118.03338,161.0101 117.59696,161.1776 C 116.97128,161.4177 117.55364,165.9999 118.76508,170.3687 C 118.98095,171.1471 119.35642,172.4994 119.59947,173.3737 C 120.06903,175.0627 121.02261,177.3523 121.98873,179.1103 C 122.37968,179.8217 122.52074,180.2133 122.41059,180.2813 C 122.21334,180.4032 109.39416,180.3781 108.90305,180.2548 C 108.50821,180.1557 108.48271,180.0187 108.77436,179.5634 C 108.8906,179.3819 109.46395,178.1405 110.04847,176.8048 C 111.97943,172.3921 113.10734,168.1508 113.51243,163.779 C 113.71396,161.6041 113.61793,161.057 113.0346,161.057 C 112.74253,161.057 112.64678,161.1593 112.54628,161.5785 C 111.99322,163.8854 111.31853,165.3771 110.11675,166.95 C 108.78719,168.6901 105.95722,170.4944 103.34868,171.2652 C 101.77133,171.7312 99.074762,171.8366 97.401642,171.4976 C 93.794222,170.7666 90.445582,167.8651 88.967182,164.1891 C 88.176022,162.222 88.077352,161.6269 88.077352,158.8222 C 88.077352,156.5533 88.114032,156.1808 88.429402,155.2465 C 88.987092,153.5944 89.791452,151.8843 90.397872,151.0615 C 91.365232,149.7489 93.168962,148.2135 94.483772,147.5834 C 95.911702,146.8991 96.792652,146.6979 98.873812,146.5809 C 101.33065,146.4428 104.30046,147.178 106.3992,148.4438 C 107.17861,148.9139 107.46708,149.0204 107.61904,148.8943 C 108.01124,148.5688 107.8005,148.1409 106.64251,146.9116 C 105.17785,145.3566 104.67544,144.6299 103.87204,142.9042 C 102.8788,140.7708 102.52598,139.0231 102.54389,136.3252 C 102.56516,133.121 102.85031,132.0878 104.336,129.8315 C 105.9317,127.408 108.40371,125.4181 110.71906,124.6933 C 112.86417,124.0217 115.30515,123.7527 117.12975,123.9868 z M 67.703422,163.776 C 72.820932,163.8089 73.998112,163.8535 73.998112,164.0146 C 73.998112,164.1236 73.558422,165.2123 73.021012,166.434 C 70.812852,171.4539 69.525842,176.304 69.286492,180.5075 C 69.178022,182.4126 69.306532,182.9375 69.861242,182.8553 C 70.119722,182.8171 70.228842,182.5899 70.491712,181.5427 C 71.200272,178.72 72.759952,176.4602 75.153102,174.7888 C 75.583492,174.4883 75.967982,174.2423 76.007542,174.2423 C 76.047092,174.2423 76.409292,174.0394 76.812442,173.7913 C 78.482582,172.7637 81.565992,172.0615 83.682242,172.2269 C 85.605732,172.3772 86.305132,172.5623 87.928362,173.3505 C 89.698562,174.2101 91.697092,175.8609 92.629212,177.2335 C 93.439432,178.4266 94.319662,180.3708 94.718052,181.8473 C 95.175872,183.544 95.075112,186.5278 94.496942,188.3955 C 93.772542,190.7355 92.696272,192.6339 91.406452,193.8469 C 89.087222,196.028 87.372532,196.7719 84.182882,196.9809 C 81.419532,197.162 78.303202,196.3148 75.871392,194.7215 C 75.555782,194.5147 75.498572,194.5152 75.286892,194.7269 C 74.943142,195.0706 75.193232,195.5884 76.142262,196.498 C 77.331152,197.6374 78.115382,198.7222 78.944332,200.3741 C 80.315832,203.1071 80.840662,206.1974 80.452512,209.2542 C 80.211182,211.1547 80.090932,211.5497 79.318702,212.9789 C 78.018842,215.3844 76.058102,217.4029 73.849122,218.6095 C 71.950852,219.6463 68.341262,220.2829 66.066092,219.9821 C 61.282052,219.3496 57.696512,216.7601 55.853232,212.6064 C 54.782052,210.1925 54.550062,209.0644 54.687562,206.9378 C 54.958002,202.7547 55.910352,200.4272 58.598062,197.3806 C 59.451442,196.4133 60.253462,195.4314 60.380312,195.1987 C 60.591472,194.8112 60.589212,194.7513 60.353572,194.491 C 60.212002,194.3345 60.034772,194.2065 59.959722,194.2065 C 59.884682,194.2065 59.409012,194.5019 58.902662,194.8629 C 57.799362,195.6494 56.780172,196.1146 54.909702,196.6854 C 53.628002,197.0765 53.327632,197.111 51.277642,197.102 C 49.158952,197.0927 48.974372,197.0677 47.724892,196.6211 C 46.230262,196.0868 45.728342,195.8077 44.326142,194.7311 C 43.180792,193.8516 42.580422,193.1685 41.463782,191.4739 C 40.239672,189.6163 39.866102,188.526 39.686252,186.2859 C 39.549542,184.5833 39.565912,184.2398 39.854122,182.7665 C 40.221702,180.8874 40.789372,179.5198 41.779642,178.1274 C 44.125722,174.8286 47.269322,172.8692 50.875372,172.4579 C 54.117032,172.0882 57.984222,173.4632 60.444882,175.8605 C 62.759142,178.1152 63.590742,179.3576 64.159512,181.4101 C 64.503202,182.6503 64.593922,182.7786 65.078982,182.7099 C 65.422702,182.6613 65.430962,182.6253 65.414272,181.2447 C 65.395742,179.7124 64.834392,176.4581 64.244942,174.4658 C 64.050982,173.8103 63.721172,172.637 63.512012,171.8585 C 62.863472,169.4447 62.535642,168.582 61.369912,166.2212 C 60.176972,163.8054 60.152842,163.6232 61.036272,163.7021 C 61.241132,163.7205 64.241342,163.7537 67.703422,163.776 z M 167.88497,163.9623 C 169.41481,164.0032 170.71411,164.0846 170.77231,164.143 C 170.83052,164.2014 170.35799,165.3747 169.72228,166.7503 C 168.52188,169.3477 167.70385,171.643 166.9617,174.4963 C 166.06153,177.9571 165.51138,182.3877 165.90475,183.0083 C 165.97422,183.1179 166.18712,183.185 166.37787,183.1573 C 166.63514,183.12 166.75618,182.9724 166.84666,182.5856 C 167.93052,177.9517 170.87821,174.8682 175.75598,173.2655 C 176.91261,172.8855 177.22255,172.8485 179.33166,172.8382 C 181.7882,172.8262 182.26476,172.9144 183.95025,173.6923 C 185.58977,174.449 187.59765,176.122 188.67114,177.626 C 189.44301,178.7073 190.37117,180.8005 190.82555,182.4844 C 191.10857,183.5333 191.1352,183.9091 191.05359,185.7032 C 190.98915,187.1195 190.86967,188.021 190.65894,188.6806 C 190.4927,189.201 190.35667,189.7023 190.35667,189.7946 C 190.35667,189.887 190.01468,190.6597 189.59668,191.5117 C 188.94634,192.8373 188.65072,193.2469 187.54811,194.3503 C 185.53666,196.363 184.29857,197.0508 182.01342,197.4248 C 178.61975,197.9803 175.2981,197.3387 172.72494,195.6308 C 171.83457,195.0398 171.69899,195.0063 171.44328,195.3144 C 171.18948,195.6202 171.41845,195.9867 172.78699,197.4651 C 174.92075,199.7701 176.3501,203.2654 176.58968,206.7642 C 176.69968,208.3705 176.3485,211.1084 175.87985,212.2983 C 174.98185,214.5782 172.87738,217.1646 170.79024,218.5533 C 168.01722,220.3984 163.58419,221.0608 160.26481,220.1261 C 156.27039,219.0014 153.63173,216.6046 151.85329,212.4858 C 151.0335,210.5872 150.80687,207.8765 151.25153,205.2883 C 151.84513,201.8333 152.79683,199.9904 155.47411,197.1118 C 156.96781,195.5057 157.25583,194.847 156.57808,194.5869 C 156.3576,194.5023 154.95582,195.3045 154.52539,195.7617 C 154.3575,195.94 153.44906,196.2899 151.69465,196.8522 C 150.31174,197.2953 147.37715,197.4749 145.91974,197.2055 C 144.10733,196.8704 142.03147,195.7929 140.3438,194.3111 C 139.72109,193.7643 138.22203,191.681 137.67598,190.6034 C 136.84044,188.9545 136.68898,188.3 136.61351,186.0123 C 136.49767,182.5011 137.04696,180.4714 138.75606,178.0951 C 141.55634,174.2018 146.13966,171.9953 150.1637,172.6031 C 152.44543,172.9478 155.25096,174.2475 156.8216,175.6874 C 158.69174,177.402 160.47475,180.0518 160.7793,181.5692 C 161.03118,182.8242 161.15318,183.0325 161.63631,183.0325 L 162.09421,183.0325 L 162.00301,181.133 C 161.78867,176.6682 159.62707,168.8011 157.62193,165.1881 C 157.33669,164.6741 157.1428,164.1507 157.19106,164.025 C 157.26749,163.8258 157.78356,163.8022 161.19113,163.842 C 163.34291,163.8672 166.35514,163.9213 167.88497,163.9623 z M 169.38681,229.7125 C 169.93992,229.7877 170.39246,229.9149 170.39246,229.9952 C 170.39246,230.0756 169.92538,231.1719 169.35449,232.4315 C 167.9363,235.5607 166.76451,239.2758 166.28423,242.1657 C 165.44758,247.2 165.4404,248.8255 166.25533,248.7087 C 166.46063,248.6793 166.62654,248.519 166.69012,248.2887 C 167.36333,245.8494 167.67638,245.0758 168.54987,243.6933 C 169.24348,242.5955 169.91742,241.8949 171.28638,240.8484 C 175.25661,237.8134 180.18279,237.1591 184.13136,239.1421 C 185.77347,239.9669 187.81064,241.7444 188.76267,243.1833 C 189.63132,244.4961 190.5434,246.6983 190.87722,248.2887 C 191.51287,251.3171 190.5961,255.8191 188.81432,258.419 C 188.09492,259.4687 186.53259,260.9696 185.34262,261.7542 C 184.02461,262.6232 181.6233,263.188 179.25717,263.1856 C 177.30457,263.1835 174.05693,262.1657 172.55,261.0836 C 172.17242,260.8124 171.80188,260.6536 171.66731,260.7052 C 171.17517,260.8941 171.45274,261.4507 172.76818,262.9127 C 173.83586,264.0993 174.27665,264.7407 174.9841,266.1372 C 175.98834,268.1196 176.08636,268.3906 176.49941,270.3282 C 176.98129,272.5887 176.83851,275.8171 176.17726,277.6121 C 175.6074,279.159 174.09769,281.365 172.67522,282.7293 C 170.46885,284.8454 167.18007,286.039 163.61357,286.0179 C 158.82787,285.9896 154.62471,283.4176 152.56941,279.2599 C 151.33443,276.7616 151.26404,276.4706 151.25815,273.8399 C 151.25119,270.734 151.58258,269.1145 152.70631,266.763 C 153.23082,265.6654 153.82539,264.8477 155.44651,262.9943 C 157.09221,261.1128 157.325,260.5969 156.60947,260.4174 C 156.31804,260.3442 156.05646,260.4584 155.427,260.9337 C 154.45988,261.6639 153.33026,262.1833 151.62015,262.6843 C 147.42385,263.9136 143.58133,263.0957 140.51553,260.3207 C 139.33848,259.2553 137.85108,256.9727 137.09256,255.0676 C 136.72288,254.1391 136.66989,253.7876 136.60957,251.8644 C 136.4993,248.3484 136.94521,246.5008 138.46884,244.1604 C 139.89885,241.9639 141.58686,240.4433 143.94734,239.2253 C 147.79158,237.2417 153.28834,238.1641 156.67254,241.3607 C 158.83392,243.4023 160.28709,245.5754 160.70739,247.3948 C 160.95496,248.4664 161.10475,248.7356 161.45327,248.7356 C 161.96989,248.7356 162.05547,248.2906 161.88744,246.4781 C 161.73642,244.8491 160.95283,240.7031 160.70908,240.2434 C 160.64391,240.1205 160.41333,239.2824 160.19669,238.3811 C 159.52042,235.5674 158.79601,233.6595 157.32385,230.8147 C 157.03516,230.2568 156.83664,229.7627 156.8827,229.7167 C 157.02695,229.5724 168.32879,229.5686 169.38681,229.7125 z M 67.585872,229.6281 C 71.065252,229.6504 73.967062,229.7237 74.034362,229.791 C 74.101652,229.8583 73.960922,230.3101 73.721602,230.795 C 71.677462,234.9369 70.166012,239.3272 69.673702,242.5527 C 69.586152,243.1263 69.418412,244.2325 69.300932,245.011 C 69.047792,246.6885 69.022012,248.048 69.235782,248.4475 C 69.558042,249.0496 70.273442,248.6368 70.273442,247.8487 C 70.273442,246.8909 71.514312,244.2978 72.696872,242.7844 C 74.373232,240.6391 78.037732,238.6274 81.149472,238.1442 C 82.572652,237.9232 85.106552,238.0645 86.289512,238.4308 C 89.627732,239.4646 92.592132,242.1221 93.962202,245.309 C 94.793922,247.2436 95.024492,248.4154 95.032242,250.747 C 95.038722,252.6982 95.008222,252.9289 94.559612,254.3226 C 93.952722,256.2081 93.095142,257.872 92.201612,258.8976 C 90.582392,260.7563 88.380242,262.1823 86.512992,262.5811 C 85.160322,262.87 82.365362,262.9552 81.211302,262.7427 C 79.130182,262.3595 77.173192,261.598 75.768952,260.6248 C 75.423362,260.3853 75.041012,260.5854 75.041012,261.0057 C 75.041012,261.256 75.410922,261.7435 76.252192,262.602 C 77.890522,264.2737 79.260572,266.5104 79.759182,268.3274 C 80.154642,269.7685 80.553492,272.0077 80.550612,272.7707 C 80.544512,274.3909 80.129122,276.757 79.683652,277.7089 C 77.902062,281.5161 74.837262,284.1652 71.167362,285.0701 C 68.003872,285.8501 65.184522,285.7357 62.464372,284.7169 C 59.202412,283.4952 57.110922,281.6195 55.613102,278.5728 C 54.491932,276.2922 54.405952,275.9168 54.409662,273.3184 C 54.413862,270.3801 54.698712,268.9764 55.756502,266.6812 C 56.338542,265.4182 56.921682,264.631 58.731102,262.6659 C 60.224652,261.0438 60.434662,260.6702 60.062272,260.2978 C 59.726332,259.9619 59.631122,259.9864 58.757832,260.6335 C 56.334222,262.4294 52.353912,263.3845 49.291582,262.905 C 45.995532,262.3889 43.222252,260.596 41.302072,257.7399 C 39.881912,255.6275 39.446022,254.4566 39.269812,252.2807 C 38.875462,247.4113 40.668022,243.5095 44.656452,240.5559 C 48.607552,237.6299 52.896382,237.3354 57.555212,239.6701 C 60.245172,241.0182 63.474992,244.7572 64.009402,247.1418 C 64.272872,248.3175 64.424212,248.5867 64.821712,248.5867 C 65.064262,248.5867 65.221772,248.4797 65.288392,248.2698 C 65.542832,247.4681 64.768682,242.5437 63.944622,239.722 C 63.753182,239.0664 63.348692,237.6719 63.045772,236.6231 C 62.742852,235.5743 62.305772,234.334 62.074482,233.8669 C 61.843202,233.3997 61.484272,232.6488 61.276872,232.1981 C 61.069462,231.7474 60.697432,231.0129 60.450132,230.5659 C 59.955522,229.6717 60.018842,229.4951 60.812792,229.5542 C 61.058622,229.5726 64.106512,229.6058 67.585872,229.6281 z M 206.8197,239.4985 C 207.72107,239.5394 208.54136,239.6266 208.64257,239.6921 C 208.77902,239.7805 208.6566,240.1497 208.16876,241.1211 C 206.94208,243.5635 205.66939,247.8155 206.03362,248.2544 C 206.27141,248.5409 206.5021,248.2474 206.82648,247.2458 C 207.58101,244.9158 209.17227,243.6705 211.39545,243.6702 C 214.24096,243.6699 216.12493,245.7841 216.12975,248.9831 C 216.13156,250.1758 215.74611,251.624 215.26358,252.2375 C 214.79851,252.8287 213.67763,253.6375 212.98444,253.8821 C 212.64609,254.0015 211.89161,254.0977 211.30782,254.0959 C 210.09031,254.0921 209.49227,253.8667 207.90991,252.8147 C 206.37637,251.7952 206.34918,252.1911 207.85364,253.6338 C 208.4208,254.1777 208.86683,254.7994 209.24309,255.5706 C 209.77497,256.6608 209.79729,256.7693 209.79834,258.2708 C 209.79937,259.7411 209.76971,259.896 209.30483,260.8467 C 208.90062,261.6733 208.64419,261.979 207.90213,262.519 C 206.14521,263.7974 204.48971,263.9561 202.60257,263.0271 C 200.56661,262.0248 199.33719,259.1591 199.95848,256.8638 C 200.25411,255.7717 201.16172,254.309 202.08002,253.4448 C 203.16801,252.421 202.73297,252.0404 201.54979,252.981 C 200.51917,253.8003 199.4381,254.2482 198.49127,254.2482 C 196.77481,254.2482 195.01656,253.1637 194.39663,251.7226 C 193.68244,250.0624 193.73046,247.6275 194.5091,246.0191 C 195.55985,243.8485 197.8629,242.7872 200.07132,243.4559 C 200.80334,243.6775 201.14113,243.8938 201.79146,244.5576 C 202.7237,245.509 202.95431,245.8876 203.4675,247.3091 C 204.05626,248.9399 204.49058,248.7395 204.20483,246.9689 C 203.75475,244.1798 203.16962,242.1586 202.33615,240.5138 C 202.12611,240.0994 202.00981,239.707 202.07769,239.6419 C 202.24301,239.4835 204.79259,239.4063 206.8197,239.4985 z M 208.53305,268.4566 C 209.7805,268.7287 210.87686,269.3956 212.1101,270.6322 C 213.02566,271.5503 213.30303,271.9442 213.63721,272.8007 C 214.10827,274.008 214.1213,274.113 213.83009,274.3547 C 213.51024,274.6202 211.65068,275.2417 211.42985,275.1569 C 211.32482,275.1166 211.05341,274.7171 210.82672,274.269 C 209.53066,271.7074 206.03344,270.7948 203.40841,272.3331 C 202.69667,272.7503 201.53224,274.2284 200.87181,275.5532 C 200.46263,276.374 200.09745,277.7821 199.89775,279.3091 C 199.67712,280.9961 199.87247,281.2798 200.70415,280.4803 C 201.82872,279.3993 204.36108,278.384 205.93268,278.384 C 209.03348,278.384 211.59156,279.9863 212.9245,282.7636 C 214.11346,285.2408 214.26918,286.037 214.26806,289.6325 C 214.26697,293.0987 214.11316,294.0344 213.26383,295.7409 C 212.14685,297.9853 209.92912,299.7011 207.583,300.136 C 206.16945,300.398 203.81878,300.2534 202.59246,299.829 C 201.74645,299.5362 200.05232,298.4293 199.44353,297.7716 C 197.85487,296.0554 197.15294,294.2909 196.67983,290.8244 C 196.35702,288.4591 196.44598,281.1506 196.82401,278.9799 C 197.50602,275.0638 198.80803,271.9629 200.35854,270.5621 C 201.32687,269.6872 202.70072,268.8676 203.73319,268.5487 C 204.84117,268.2065 207.18054,268.1616 208.53305,268.4566 z M 203.02784,282.5921 C 201.78401,283.2197 200.76993,284.2453 200.18853,285.4635 C 199.75872,286.3641 199.7246,286.552 199.7305,287.9868 C 199.75483,293.9014 202.11747,297.0585 206.34722,296.8282 C 207.76292,296.7511 208.65048,296.4103 209.54845,295.5991 C 210.86749,294.4074 211.40154,292.7937 211.39979,290.0049 C 211.39743,286.2644 210.23178,283.6164 208.15505,282.6339 C 206.9968,282.086 206.36255,281.9622 205.10635,282.0389 C 204.22955,282.0924 203.78201,282.2115 203.02784,282.5921 z"
     id="path6679" />
  <g
     id="g3796"
     transform="translate(1.593878e-6,0)">
    <rect
       ry="11.25"
       rx="11.25"
       y="3.4247196"
       x="3.6058116"
       height="311.81104"
       width="223.22835"
       id="rect2382"
       style="fill:none;fill-opacity:1;fill-rule:nonzero;stroke:#000000;stroke-width:0.03543307;stroke-linejoin:round;stroke-miterlimit:4;stroke-dasharray:none;stroke-opacity:1" />
    <g
       transform="translate(3.5433116,3.3622195)"
       id="g3164">
      <path
         style="fill:none;fill-rule:evenodd;stroke:#000000;stroke-width:0.03221492;stroke-linecap:butt;stroke-linejoin:miter;stroke-miterlimit:4;stroke-dasharray:none;stroke-opacity:1"
         d="M 219.74754,0.062511534 L 226.70838,0.062511534"
         id="path3160"
         sodipodi:nodetypes="cc" />
      <path
         sodipodi:nodetypes="cc"
         id="path3162"
         d="M 223.29036,-3.2997195 L 223.29036,3.6063107"
         style="fill:none;fill-rule:evenodd;stroke:#000000;stroke-width:0.03196126;stroke-linecap:butt;stroke-linejoin:miter;stroke-miterlimit:4;stroke-dasharray:none;stroke-opacity:1" />
    </g>
    <g
       transform="matrix(1.0001093,0,0,1,3.519309,315.17275)"
       id="g3168">
      <path
         sodipodi:nodetypes="cc"
         id="path3170"
         d="M 219.74754,0.062511534 L 226.70838,0.062511534"
         style="fill:none;fill-rule:evenodd;stroke:#000000;stroke-width:0.03221492;stroke-linecap:butt;stroke-linejoin:miter;stroke-miterlimit:4;stroke-dasharray:none;stroke-opacity:1" />
      <path
         style="fill:none;fill-rule:evenodd;stroke:#000000;stroke-width:0.03196126;stroke-linecap:butt;stroke-linejoin:miter;stroke-miterlimit:4;stroke-dasharray:none;stroke-opacity:1"
         d="M 223.29036,-3.2997195 L 223.29036,3.6063107"
         id="path3172"
         sodipodi:nodetypes="cc" />
    </g>
    <g
       id="g3174"
       transform="matrix(1.0001093,0,0,1,-219.70906,315.17275)">
      <path
         style="fill:none;fill-rule:evenodd;stroke:#000000;stroke-width:0.03221492;stroke-linecap:butt;stroke-linejoin:miter;stroke-miterlimit:4;stroke-dasharray:none;stroke-opacity:1"
         d="M 219.74754,0.062511534 L 226.70838,0.062511534"
         id="path3176"
         sodipodi:nodetypes="cc" />
      <path
         sodipodi:nodetypes="cc"
         id="path3178"
         d="M 223.29036,-3.2997195 L 223.29036,3.6063107"
         style="fill:none;fill-rule:evenodd;stroke:#000000;stroke-width:0.03196126;stroke-linecap:butt;stroke-linejoin:miter;stroke-miterlimit:4;stroke-dasharray:none;stroke-opacity:1" />
    </g>
    <g
       transform="translate(-219.68504,3.3622195)"
       id="g3180">
      <path
         sodipodi:nodetypes="cc"
         id="path3182"
         d="M 219.74754,0.062511534 L 226.70838,0.062511534"
         style="fill:none;fill-rule:evenodd;stroke:#000000;stroke-width:0.03221492;stroke-linecap:butt;stroke-linejoin:miter;stroke-miterlimit:4;stroke-dasharray:none;stroke-opacity:1" />
      <path
         style="fill:none;fill-rule:evenodd;stroke:#000000;stroke-width:0.03196126;stroke-linecap:butt;stroke-linejoin:miter;stroke-miterlimit:4;stroke-dasharray:none;stroke-opacity:1"
         d="M 223.29036,-3.2997195 L 223.29036,3.6063107"
         id="path3184"
         sodipodi:nodetypes="cc" />
    </g>
  </g>
</svg>
