<?xml version="1.0" encoding="UTF-8" standalone="no"?>
<!-- Created with Inkscape (http://www.inkscape.org/) -->
<svg
   xmlns:dc="http://purl.org/dc/elements/1.1/"
   xmlns:cc="http://creativecommons.org/ns#"
   xmlns:rdf="http://www.w3.org/1999/02/22-rdf-syntax-ns#"
   xmlns:svg="http://www.w3.org/2000/svg"
   xmlns="http://www.w3.org/2000/svg"
   xmlns:sodipodi="http://sodipodi.sourceforge.net/DTD/sodipodi-0.dtd"
   xmlns:inkscape="http://www.inkscape.org/namespaces/inkscape"
   id="svg15840"
   sodipodi:version="0.32"
   inkscape:version="0.46"
   width="230.31497"
   height="318.84155"
   version="1.0"
   sodipodi:docname="9d.svg"
   inkscape:output_extension="org.inkscape.output.svg.inkscape">
  <metadata
     id="metadata15845">
    <rdf:RDF>
      <cc:Work
         rdf:about="">
        <dc:format>image/svg+xml</dc:format>
        <dc:type
           rdf:resource="http://purl.org/dc/dcmitype/StillImage" />
      </cc:Work>
    </rdf:RDF>
  </metadata>
  <defs
     id="defs15843">
    <inkscape:perspective
       sodipodi:type="inkscape:persp3d"
       inkscape:vp_x="0 : 526.18109 : 1"
       inkscape:vp_y="0 : 1000 : 0"
       inkscape:vp_z="744.09448 : 526.18109 : 1"
       inkscape:persp3d-origin="372.04724 : 350.78739 : 1"
       id="perspective15847" />
  </defs>
  <sodipodi:namedview
     inkscape:window-height="667"
     inkscape:window-width="835"
     inkscape:pageshadow="2"
     inkscape:pageopacity="0.0"
     guidetolerance="10.0"
     gridtolerance="10.0"
     objecttolerance="10.0"
     borderopacity="1.0"
     bordercolor="#666666"
     pagecolor="#ffffff"
     id="base"
     showgrid="false"
     inkscape:zoom="1.4489956"
     inkscape:cx="115.15749"
     inkscape:cy="159.42078"
     inkscape:window-x="88"
     inkscape:window-y="116"
     inkscape:current-layer="svg15840" />
  <path
     style="fill:#e00000;fill-opacity:1"
     d="M 206.20842,300.215 C 205.22154,300.1035 203.55763,299.5673 202.92073,299.1555 C 199.42204,296.8934 198.16302,293.7187 197.95827,286.6423 C 197.77484,280.3023 198.64042,275.3342 200.49319,272.093 C 201.44341,270.4307 203.12884,269.0715 205.09604,268.381 C 206.0491,268.0466 206.45455,267.9909 207.92698,267.9925 C 210.00418,267.9948 211.00493,268.235 212.40601,269.0673 C 213.29844,269.5975 215.09741,271.3249 215.09945,271.6536 C 215.09983,271.7128 215.2723,272.1376 215.48274,272.5977 C 216.03654,273.8084 216.0166,273.8505 214.59721,274.4665 C 213.39347,274.989 213.17699,274.9456 212.70017,274.0864 C 211.73104,272.3402 210.73555,271.6355 208.80554,271.3296 C 207.2518,271.0833 205.62618,271.5033 204.52239,272.4363 C 203.88021,272.9791 202.79178,274.5135 202.33184,275.5245 C 201.64182,277.0412 201.05084,281.0354 201.51645,281.0354 C 201.60712,281.0354 202.01767,280.733 202.42882,280.3633 C 203.41518,279.4765 205.02712,278.7096 206.52215,278.4159 C 207.61866,278.2005 207.85627,278.1997 209.04776,278.4077 C 209.77114,278.5339 210.79252,278.8382 211.31749,279.0839 C 212.29825,279.5428 213.887,280.9119 214.25976,281.6193 C 214.37207,281.8324 214.62973,282.3094 214.83234,282.6793 C 215.20615,283.3616 215.90815,285.3729 216.0581,286.1911 C 216.33468,287.7003 216.42997,289.8522 216.29393,291.5172 C 216.08567,294.0663 215.62919,295.441 214.48986,296.95 C 213.90525,297.7243 212.19611,299.1326 211.36412,299.5255 C 210.18283,300.0834 207.82931,300.3982 206.20842,300.215 z M 210.01032,296.5382 C 211.02173,296.1617 212.14363,295.0764 212.6369,293.9972 C 213.14395,292.888 213.35801,291.2732 213.26643,289.2481 C 213.05004,284.4633 210.98114,281.9321 207.28662,281.9321 C 204.66323,281.9321 202.14953,283.8307 201.41142,286.3697 C 201.06812,287.5506 201.30888,290.6744 201.87079,292.3295 C 202.7971,295.0579 204.22923,296.4923 206.41324,296.8791 C 207.38943,297.052 209.05387,296.8943 210.01032,296.5382 z M 60.401322,286.1603 C 60.189542,285.8403 59.832532,285.2159 59.607962,284.7727 C 59.383392,284.3295 58.770202,283.3136 58.245322,282.515 C 57.720442,281.7164 57.290992,281.0302 57.290992,280.9901 C 57.290992,280.8721 55.561882,278.1234 54.217312,276.1039 C 52.039022,272.8321 48.526562,267.8729 47.845372,267.1074 C 47.574682,266.8032 47.117832,266.2735 46.830162,265.9302 C 46.542482,265.587 46.239872,265.2303 46.157672,265.1376 C 44.649082,263.4362 43.681152,262.335 43.320492,261.9099 C 42.613802,261.0769 40.695262,259.1959 39.918532,258.5745 C 39.528122,258.2622 39.208692,257.9037 39.208692,257.7778 C 39.208692,257.5527 41.413142,254.9779 43.467052,252.8041 C 44.042782,252.1947 44.614702,251.5853 44.737992,251.4499 C 44.930922,251.2378 46.918532,249.0039 47.352572,248.5112 C 47.435112,248.4175 47.939752,247.8173 48.474002,247.1773 C 49.008252,246.5373 49.806762,245.6052 50.248462,245.106 C 51.683992,243.4835 56.039622,237.512 57.396042,235.3066 C 57.775192,234.6902 58.400032,233.6815 58.784572,233.065 C 59.169112,232.4486 59.969932,231.0196 60.564172,229.8894 C 61.158412,228.7593 61.706542,227.8346 61.782252,227.8346 C 61.905632,227.8346 62.670842,228.9203 62.670842,229.0953 C 62.670842,229.1344 63.485752,230.5648 64.481742,232.2739 C 65.477732,233.983 66.478742,235.7176 66.706202,236.1285 C 66.933672,236.5395 67.559652,237.5482 68.097272,238.3702 C 70.424272,241.9277 71.067982,242.8966 71.572432,243.6006 C 71.866902,244.0115 72.355002,244.7178 72.657112,245.17 C 73.584332,246.5579 73.981822,247.0679 75.916102,249.3514 C 76.091352,249.5583 76.652372,250.232 77.162792,250.8484 C 77.673222,251.4649 79.132062,253.0612 80.404662,254.3958 C 81.677262,255.7305 82.696582,256.9169 82.669812,257.0322 C 82.643052,257.1476 81.973502,257.9386 81.181942,258.79 C 78.933122,261.2087 76.981842,263.3823 76.524602,263.9779 C 76.294812,264.2773 75.992192,264.6578 75.852122,264.8234 C 73.795142,267.2559 73.099752,268.1011 72.534062,268.856 C 72.164532,269.3492 71.810892,269.7907 71.748202,269.8371 C 71.685502,269.8836 71.134572,270.5897 70.523912,271.4063 C 69.913252,272.2228 69.249732,273.059 69.049422,273.2645 C 68.849112,273.47 68.357522,274.1349 67.957002,274.7421 C 67.556482,275.3493 66.977602,276.2235 66.670602,276.6848 C 66.363602,277.1461 65.993742,277.716 65.848682,277.9512 C 65.703622,278.1863 65.322872,278.7916 65.002562,279.2961 C 64.143472,280.6494 62.372682,283.7864 61.743142,285.0703 C 61.440882,285.6867 61.101962,286.3151 60.989972,286.4666 C 60.799352,286.7246 60.761832,286.7051 60.401322,286.1603 z M 167.76963,285.4065 C 167.03309,284.2111 166.31653,282.9753 165.40845,281.3343 C 164.23261,279.2094 162.88283,276.9672 162.1166,275.8661 C 161.76823,275.3654 161.36569,274.7265 161.22208,274.4464 C 161.07847,274.1662 160.91248,273.9034 160.85323,273.8623 C 160.79398,273.8212 160.62729,273.5569 160.48281,273.2751 C 160.33833,272.9933 159.9759,272.4429 159.67739,272.0521 C 159.37889,271.6613 158.98216,271.1185 158.79576,270.846 C 158.60936,270.5734 158.15691,269.9133 157.7903,269.3791 C 157.4237,268.8448 156.82415,267.9706 156.45798,267.4363 C 156.0918,266.9021 155.1993,265.7851 154.47463,264.9542 C 153.74996,264.1233 152.82257,263.0473 152.41376,262.5632 C 152.00495,262.079 150.60955,260.6183 149.31287,259.3171 C 148.01619,258.0159 146.95527,256.9055 146.95527,256.8495 C 146.95527,256.7935 147.42856,256.2442 148.00702,255.6287 C 148.58548,255.0133 149.34202,254.1761 149.68822,253.7683 C 150.03442,253.3606 150.4858,252.8506 150.69128,252.6351 C 153.03973,250.1719 160.29304,241.3862 161.97457,238.9679 C 162.37464,238.3926 162.9753,237.5312 163.30938,237.0537 C 164.74169,235.0066 167.09338,231.1052 168.1008,229.1048 C 168.51547,228.2815 168.94741,227.6104 169.06272,227.6104 C 169.17785,227.6104 169.56841,228.1148 169.93065,228.7312 C 170.2929,229.3477 170.85185,230.2555 171.17277,230.7487 C 171.4937,231.2418 172.32505,232.5196 173.02023,233.5881 C 175.54331,237.466 180.97027,244.9172 182.22322,246.2237 C 182.34651,246.3522 182.85087,246.9236 183.34403,247.4934 C 184.54103,248.8764 185.39859,249.8277 186.50295,250.9975 C 187.00747,251.532 187.72446,252.3055 188.09625,252.7164 C 188.46804,253.1274 189.31328,253.9008 189.97454,254.435 C 190.63581,254.9693 191.21861,255.5264 191.26966,255.673 C 191.36462,255.9458 190.25665,257.2458 187.29384,260.3379 C 185.7801,261.9177 184.55825,263.2577 183.41875,264.5878 C 182.63031,265.5081 182.06742,266.1623 180.56237,267.9072 C 179.23968,269.4407 178.25468,270.6935 177.06753,272.3522 C 176.40999,273.271 175.45592,274.5956 174.94737,275.2958 C 174.43883,275.996 173.6278,277.2208 173.14506,278.0176 C 171.52288,280.6951 170.50058,282.4489 170.01201,283.3925 C 168.91806,285.5051 168.53892,286.1164 168.32254,286.1164 C 168.25898,286.1164 168.01017,285.797 167.76963,285.4065 z M 206.91251,262.8771 C 205.56068,260.6294 200.63481,254.3292 198.97386,252.7235 C 198.63776,252.3986 198.36279,252.0464 198.36279,251.9409 C 198.36279,251.8354 198.71637,251.3279 199.14854,250.8131 C 202.54665,246.7651 203.89478,244.9128 205.53963,242.0322 C 206.07911,241.0874 206.62912,240.2935 206.76189,240.2679 C 206.9173,240.238 207.20646,240.5305 207.57374,241.0891 C 209.60271,244.175 212.60221,247.9119 214.76389,250.0467 C 215.52416,250.7976 216.14621,251.5151 216.14621,251.6412 C 216.14621,251.7673 215.82142,252.2289 215.42444,252.667 C 215.02747,253.1052 214.12246,254.237 213.41329,255.1822 C 212.70413,256.1274 212.0438,256.9927 211.94589,257.1051 C 211.6641,257.4286 208.41942,262.3109 208.05317,262.9625 C 207.8713,263.2861 207.63144,263.5509 207.52012,263.5509 C 207.4088,263.5509 207.13538,263.2477 206.91251,262.8771 z M 60.699752,220.9977 C 60.576482,220.8539 60.250802,220.3327 59.976012,219.8395 C 59.701232,219.3464 59.362832,218.7748 59.224012,218.5693 C 59.085192,218.3638 58.154982,216.8844 57.156872,215.2816 C 56.158762,213.6789 54.839142,211.6379 54.224392,210.7461 C 53.609642,209.8544 53.106652,209.0916 53.106652,209.051 C 53.106652,209.0104 52.619112,208.3291 52.023212,207.5369 C 51.427322,206.7448 50.771652,205.8513 50.566172,205.5515 C 50.360692,205.2516 50.040522,204.8132 49.854692,204.5773 C 49.668852,204.3413 49.265362,203.8065 48.958042,203.3888 C 47.660102,201.6245 43.999932,197.6583 41.308092,195.0992 C 39.861402,193.7238 39.107092,192.9048 39.176302,192.7846 C 39.265272,192.63 40.676702,191.0066 41.234592,190.4171 C 41.677052,189.9497 45.369802,185.4432 46.082952,184.5004 C 46.535012,183.9028 47.207492,183.0349 47.577362,182.5717 C 47.947222,182.1086 48.317092,181.6216 48.399282,181.4895 C 48.481472,181.3574 49.250032,180.3157 50.107182,179.1745 C 52.535992,175.9408 52.347462,176.2109 54.475742,172.9152 C 55.339552,171.5776 57.335682,168.113 57.919782,166.9376 C 58.042312,166.691 58.251232,166.2876 58.384042,166.041 C 58.516852,165.7944 58.926212,164.937 59.293742,164.1356 C 59.661262,163.3342 59.999012,162.6786 60.044282,162.6786 C 60.134492,162.6786 60.703352,163.5517 61.246642,164.5241 C 61.822662,165.555 66.121582,171.9162 67.311432,173.4983 C 67.923512,174.3121 68.686982,175.3545 69.008042,175.8146 C 69.329102,176.2748 69.905452,177.0211 70.288832,177.4732 C 70.672202,177.9252 71.396422,178.8331 71.898192,179.4906 C 72.903632,180.8082 72.901412,180.8056 74.924962,183.0167 C 77.693992,186.0424 80.394162,188.7306 81.472682,189.5354 C 82.073912,189.9841 82.601572,190.4443 82.645252,190.5581 C 82.719202,190.7508 80.346452,193.6701 78.644222,195.4807 C 77.729312,196.4539 74.906502,199.8445 73.631822,201.5014 C 73.080942,202.2175 72.518302,202.9042 72.381502,203.0275 C 72.117532,203.2654 70.724022,205.1255 70.126162,206.038 C 69.929872,206.3376 69.378392,207.1392 68.900662,207.8194 C 68.422932,208.4995 67.925072,209.2631 67.794302,209.5162 C 67.663532,209.7694 67.308872,210.2791 67.006162,210.6489 C 66.703462,211.0188 66.063302,212.0275 65.583592,212.8906 C 65.103872,213.7536 64.322992,215.1428 63.848292,215.9777 C 63.373592,216.8127 62.878932,217.7541 62.749062,218.0699 C 62.188822,219.432 61.238142,221.2558 61.087522,221.2574 C 60.997522,221.2584 60.823022,221.1415 60.699752,220.9977 z M 169.5794,220.4736 C 169.40615,220.2071 169.10773,219.72 168.91624,219.3912 C 168.32517,218.3764 164.02541,211.9062 163.23195,210.8376 C 162.81927,210.2818 162.09841,209.3018 161.63007,208.6598 C 161.16171,208.0178 160.3414,206.9317 159.80715,206.2463 C 159.2729,205.5609 158.53317,204.61 158.1633,204.1332 C 157.79344,203.6564 157.1882,202.9217 156.81834,202.5005 C 156.44847,202.0792 155.71292,201.2353 155.18377,200.6251 C 153.83615,199.071 148.96675,194.2549 148.03131,193.5509 C 147.60387,193.2292 147.25415,192.9214 147.25415,192.8669 C 147.25415,192.7329 150.19383,189.3464 151.59988,187.8607 C 152.67171,186.7281 155.12173,183.9242 155.9258,182.91 C 156.12902,182.6536 157.10597,181.4432 158.0968,180.22 C 159.08762,178.9969 160.11214,177.6936 160.3735,177.3237 C 160.63485,176.9539 161.51733,175.7098 162.33456,174.5591 C 164.34716,171.7253 166.68295,167.9219 167.79534,165.6674 C 169.07191,163.0801 169.53646,162.2302 169.67419,162.2302 C 169.84219,162.2302 170.17104,162.7358 171.61832,165.2191 C 173.42792,168.324 175.36574,171.5051 175.64491,171.8292 C 175.73468,171.9333 176.362,172.8592 177.03897,173.8866 C 179.79513,178.0695 182.04963,181.0805 184.31213,183.6002 C 184.86563,184.2167 185.68123,185.1306 186.12455,185.6311 C 186.56788,186.1316 187.95613,187.5373 189.20957,188.7548 C 190.463,189.9723 191.4877,191.0422 191.48667,191.1324 C 191.48563,191.2226 190.89721,191.9413 190.17906,192.7294 C 189.46091,193.5176 188.20084,194.9229 187.37892,195.8522 C 186.557,196.7816 185.81518,197.6162 185.73041,197.7069 C 185.56195,197.8872 184.33924,199.4322 183.67109,200.3092 C 183.44001,200.6125 183.05837,201.0623 182.82302,201.3089 C 182.58766,201.5555 182.17149,202.0702 181.89821,202.4526 C 181.62491,202.8351 180.95105,203.7094 180.40074,204.3954 C 176.67577,209.039 173.56895,213.8718 171.16892,218.7561 C 170.57319,219.9684 170.04272,220.9599 169.99009,220.9593 C 169.93745,220.9588 169.75264,220.7402 169.5794,220.4736 z M 113.41243,187.4483 C 112.5286,185.941 106.99828,177.5965 106.46153,176.9603 C 106.24878,176.7081 105.8764,176.1992 105.63404,175.8293 C 105.39167,175.4595 104.75475,174.6064 104.21865,173.9336 C 103.68256,173.2608 102.93418,172.2721 102.5556,171.7366 C 102.17702,171.2011 101.56272,170.4066 101.19049,169.9711 C 100.81826,169.5356 100.02668,168.6076 99.431422,167.909 C 97.374122,165.4944 94.491392,162.3914 93.787982,161.8342 C 92.832252,161.0772 92.110622,160.4023 92.110622,160.2655 C 92.110622,160.1199 94.477822,157.4604 96.148022,155.7296 C 97.715102,154.1056 99.932252,151.6584 101.145,150.214 C 101.63443,149.6311 102.5764,148.549 103.23827,147.8092 C 104.5751,146.3151 109.31699,140.0256 110.33637,138.3945 C 111.00482,137.3249 111.51966,136.511 112.48555,134.997 C 112.78625,134.5257 113.03228,134.1002 113.03228,134.0515 C 113.03228,133.8937 114.84616,130.7032 114.98449,130.6177 C 115.14198,130.5204 116.31705,132.3453 117.25476,134.1434 C 117.64548,134.8927 120.46992,139.4744 121.48751,141.0097 C 122.89181,143.1284 124.81286,145.8935 125.33014,146.5405 C 125.42937,146.6647 125.77947,147.169 126.10814,147.6613 C 126.64861,148.4709 128.68652,151.0275 129.08491,151.3958 C 129.17382,151.478 129.61439,151.9824 130.06395,152.5166 C 131.19099,153.856 131.60738,154.2978 134.21547,156.9215 C 135.4689,158.1825 136.49356,159.2707 136.49249,159.3399 C 136.49142,159.409 136.0375,159.9418 135.48377,160.5238 C 134.04243,162.0387 133.13776,163.0247 131.86136,164.4719 C 131.24515,165.1705 130.70247,165.7757 130.65542,165.8168 C 130.60836,165.8579 130.24417,166.295 129.84611,166.7882 C 129.44806,167.2813 128.64596,168.2495 128.06367,168.9397 C 127.04619,170.1457 126.56237,170.7395 124.62761,173.157 C 124.14199,173.7637 123.3626,174.7309 122.89563,175.3063 C 122.42867,175.8816 121.85089,176.655 121.6117,177.0248 C 121.3725,177.3947 121.03003,177.8599 120.85065,178.0585 C 120.67127,178.2572 120.40228,178.6589 120.25289,178.9513 C 120.10349,179.2437 119.86949,179.5855 119.73288,179.7109 C 119.59626,179.8363 119.19799,180.4097 118.84782,180.985 C 118.49766,181.5604 117.753,182.7708 117.19304,183.6749 C 116.63307,184.5791 115.79156,186.0753 115.32301,187 C 114.85447,187.9247 114.39557,188.6812 114.30324,188.6812 C 114.21091,188.6812 113.81004,188.1264 113.41243,187.4483 z M 101.82425,156.6174 C 101.82425,156.5812 101.757,156.5515 101.67481,156.5515 C 101.59261,156.5515 101.52537,156.6227 101.52537,156.7098 C 101.52537,156.7968 101.59261,156.8265 101.67481,156.7757 C 101.757,156.7249 101.82425,156.6537 101.82425,156.6174 z M 59.671642,155.9376 C 59.397992,155.5111 59.069832,154.9747 58.942392,154.7456 C 58.408022,153.785 54.900082,148.2505 54.369412,147.5308 C 54.118712,147.1908 53.467042,146.2583 52.921252,145.4587 C 52.375472,144.6591 51.760212,143.7849 51.554012,143.516 C 51.347822,143.2471 50.479292,142.0814 49.623952,140.9256 C 48.768602,139.7697 47.437042,138.1013 46.664902,137.218 C 45.892772,136.3347 44.992042,135.2866 44.663272,134.8888 C 44.334502,134.4911 42.795912,132.924 41.244182,131.4065 C 39.692452,129.8889 38.448362,128.579 38.479532,128.4955 C 38.510702,128.412 39.085812,127.7471 39.757552,127.0179 C 40.429292,126.2887 41.131182,125.4903 41.317312,125.2437 C 41.503432,124.9972 41.962552,124.4547 42.337572,124.0383 C 43.515372,122.7304 44.657402,121.3812 44.812712,121.1141 C 44.894902,120.9728 45.500142,120.2045 46.157672,119.4068 C 47.678042,117.5624 48.259222,116.8271 48.596112,116.322 C 48.744162,116.1 49.181652,115.5284 49.568312,115.0518 C 50.868052,113.4495 54.302182,108.5771 54.302182,108.3353 C 54.302182,108.287 54.537552,107.9269 54.825222,107.535 C 55.112892,107.1431 55.348262,106.7779 55.348262,106.7233 C 55.348262,106.6687 55.598082,106.2406 55.903412,105.7719 C 56.208742,105.3033 56.576452,104.6845 56.720542,104.3968 C 56.864632,104.1091 57.255882,103.403 57.589982,102.8277 C 57.924092,102.2523 58.344742,101.4453 58.524752,101.0344 C 59.032562,99.8751 59.622602,98.8126 59.789442,98.757 C 59.872682,98.7292 60.322332,99.3312 60.788662,100.0946 C 61.254982,100.8581 61.894552,101.8526 62.209922,102.3046 C 62.525292,102.7567 63.453452,104.1353 64.272502,105.3681 C 65.819192,107.6963 66.750782,109.0164 68.280072,111.0469 C 68.775302,111.7044 69.279342,112.386 69.400162,112.5614 C 69.520982,112.7369 70.127062,113.5103 70.747022,114.28 C 71.366972,115.0497 71.972212,115.8205 72.091982,115.9929 C 73.253872,117.6647 79.469542,124.1244 81.246042,125.5064 C 82.030532,126.1167 82.396852,126.4986 82.366842,126.6748 C 82.342332,126.8188 81.209702,128.1696 79.849902,129.6767 C 77.596632,132.174 75.241142,134.863 74.099392,136.2414 C 73.854822,136.5366 73.251232,137.2456 72.758082,137.8168 C 71.369512,139.4252 69.969422,141.2482 68.458692,143.4147 C 68.148842,143.8591 67.402982,144.9288 66.801242,145.7918 C 65.779802,147.2567 64.070892,149.9726 63.086892,151.6947 C 62.852072,152.1057 62.597682,152.5428 62.521572,152.6661 C 62.445452,152.7893 62.149122,153.3946 61.863042,154.011 C 61.192782,155.4553 60.535802,156.5907 60.330822,156.659 C 60.241932,156.6887 59.945292,156.364 59.671642,155.9376 z M 52.210012,114.1851 C 52.210012,114.0618 52.109142,113.961 51.985852,113.961 C 51.862562,113.961 51.761692,114.0618 51.761692,114.1851 C 51.761692,114.3084 51.862562,114.4093 51.985852,114.4093 C 52.109142,114.4093 52.210012,114.3084 52.210012,114.1851 z M 168.30619,156.1602 C 168.19339,156.0271 167.83211,155.4587 167.50334,154.8969 C 166.46023,153.1146 163.79548,148.9441 162.78372,147.5104 C 162.55171,147.1816 161.99928,146.3746 161.55608,145.7171 C 160.23198,143.7526 155.92611,137.9861 155.1398,137.1242 C 154.95232,136.9188 154.17254,136.0445 153.40695,135.1815 C 152.64136,134.3185 150.73431,132.3622 149.16906,130.8342 L 146.32315,128.056 L 147.25707,126.9487 C 147.77073,126.3397 148.30021,125.7406 148.4337,125.6173 C 148.56719,125.494 148.82827,125.1977 149.01388,124.9588 C 149.19949,124.72 149.70328,124.1182 150.1334,123.6215 C 150.56352,123.1248 151.18443,122.4048 151.5132,122.0215 C 152.17525,121.2496 155.56819,116.9343 155.9217,116.4146 C 156.19084,116.0189 157.41101,114.384 158.23576,113.3139 C 159.4124,111.7873 161.1418,109.2809 161.81488,108.1266 C 161.9846,107.8356 162.3125,107.3312 162.54352,107.0058 C 163.21445,106.0609 165.4248,102.0974 166.41537,100.063 C 166.91563,99.0356 167.42605,98.0772 167.54963,97.9332 C 167.79213,97.6507 167.75265,97.6017 169.36951,100.1888 C 169.64389,100.6278 169.94149,101.0649 170.03082,101.1601 C 170.12018,101.2554 170.99817,102.5437 171.98193,104.0232 C 172.9657,105.5026 174.27135,107.3856 174.88337,108.2075 C 175.49537,109.0294 176.23095,110.0382 176.51798,110.4491 C 179.4167,114.5995 186.08478,122.051 189.15532,124.5712 C 189.80622,125.1055 190.40762,125.653 190.49172,125.7879 C 190.61538,125.9863 190.40366,126.3041 189.38538,127.4486 C 188.69279,128.2271 187.48726,129.5916 186.70644,130.4808 C 185.92561,131.3701 185.01367,132.4049 184.67988,132.7803 C 184.3461,133.1558 183.90899,133.6715 183.70851,133.9264 C 183.50805,134.1813 183.00779,134.7891 182.59683,135.2771 C 182.18586,135.7651 181.6815,136.3861 181.47602,136.6572 C 181.27054,136.9283 181.03517,137.2283 180.95298,137.324 C 179.894,138.5562 178.52073,140.2876 177.79243,141.3086 C 176.1897,143.5555 173.42804,147.6995 172.99087,148.5134 C 172.75744,148.9481 172.38418,149.5903 172.1614,149.9406 C 171.5261,150.9396 170.95843,151.9759 169.78848,154.2725 C 169.19182,155.4438 168.66037,156.4021 168.60746,156.4021 C 168.55458,156.4021 168.419,156.2932 168.30619,156.1602 z M 59.453982,91.2087 C 59.320872,91.0237 58.543422,89.7292 57.726312,88.3319 C 56.909202,86.9347 56.177332,85.6906 56.099922,85.5673 C 56.022512,85.444 55.644642,84.8388 55.260202,84.2223 C 54.875762,83.6059 54.008832,82.2609 53.333682,81.2335 C 52.658532,80.2061 51.994872,79.1638 51.858882,78.9172 C 51.722892,78.6706 51.314412,78.0654 50.951152,77.5722 C 50.587892,77.0791 49.782632,75.9309 49.161682,75.0208 C 48.090062,73.4501 47.124082,72.2141 44.602532,69.1872 C 43.993782,68.4565 42.396632,66.7445 41.053322,65.3829 C 39.710002,64.0212 38.610932,62.8339 38.610932,62.7444 C 38.610932,62.5749 39.487902,61.4502 39.927112,61.0564 C 40.169902,60.8388 42.507252,58.1969 44.066482,56.3777 C 44.476912,55.8988 44.918072,55.3462 45.046852,55.1496 C 45.175622,54.9531 45.545492,54.4926 45.868772,54.1265 C 46.192052,53.7603 46.658302,53.1804 46.904882,52.8377 C 47.151452,52.495 47.470882,52.1512 47.614722,52.0736 C 47.758552,51.9961 47.876322,51.851 47.876422,51.7511 C 47.876522,51.6513 48.263202,51.0884 48.735702,50.5004 C 52.676342,45.596 54.705972,42.6477 57.849172,37.2617 C 58.197282,36.6652 58.584592,35.9418 58.709882,35.6542 C 59.245132,34.4252 59.969652,33.1884 60.154362,33.1884 C 60.264022,33.1884 60.724362,33.8273 61.177352,34.6081 C 61.975302,35.9835 62.976162,37.5772 63.523592,38.3441 C 63.670282,38.5496 64.190842,39.3566 64.680392,40.1374 C 66.368082,42.8292 71.953022,50.5189 73.471902,52.2421 C 73.797912,52.6119 74.208842,53.0827 74.385062,53.2881 C 77.489622,56.9081 79.673022,59.2072 81.410292,60.6854 L 82.288402,61.4326 L 81.192922,62.7029 C 79.711612,64.4205 79.215602,64.9731 77.975472,66.2876 C 76.998002,67.3237 74.441822,70.2927 73.335192,71.6773 C 73.077252,72.0001 72.464232,72.7187 71.972932,73.2743 C 70.591372,74.8367 66.492782,80.4228 64.948092,82.8486 C 63.223072,85.5576 61.705302,88.1787 60.323452,90.8351 C 60.120352,91.2255 59.896092,91.5449 59.825092,91.5449 C 59.754082,91.5449 59.587082,91.3936 59.453982,91.2087 z M 58.116102,70.029 C 57.969092,69.8666 57.787282,69.7717 57.712082,69.8181 C 57.525772,69.9333 57.867452,70.3244 58.154372,70.3244 C 58.347202,70.3244 58.341152,70.2777 58.116102,70.029 z M 167.28732,90.2119 C 166.95407,89.7212 166.68142,89.2766 166.68142,89.2238 C 166.68142,89.1711 166.48814,88.848 166.25191,88.5058 C 166.01569,88.1636 165.25915,86.954 164.5707,85.8179 C 163.166,83.4997 162.52025,82.4803 161.73493,81.3413 C 161.43904,80.9122 160.61139,79.6868 159.89569,78.6183 C 159.18001,77.5498 158.2315,76.1712 157.78791,75.5548 C 157.34431,74.9383 156.79338,74.1661 156.56361,73.8386 C 154.97083,71.5688 152.05582,68.2389 148.86734,65.047 C 147.40474,63.5828 146.20807,62.3247 146.20807,62.2511 C 146.20807,62.1775 146.36602,61.9632 146.55908,61.7749 C 147.414,60.9413 152.16396,55.4902 153.06508,54.3086 C 153.3991,53.8706 153.97554,53.1424 154.34606,52.6904 C 154.71658,52.2383 155.30204,51.4986 155.64707,51.0465 C 155.9921,50.5945 156.32006,50.191 156.37586,50.1499 C 156.76203,49.8655 161.24759,43.8288 161.96087,42.6336 C 162.11801,42.3703 162.41611,41.9246 162.62332,41.6433 C 163.53326,40.4078 165.83464,36.4753 166.91545,34.3092 C 167.93471,32.2665 167.88789,32.292 168.56837,33.4074 C 169.52601,34.9771 174.45893,42.3581 175.49939,43.778 C 176.41908,45.0332 178.90644,48.2927 180.20578,49.9455 C 181.54557,51.6497 183.34457,53.6933 186.10684,56.6488 C 187.73865,58.3948 188.18124,58.8175 189.15379,59.5587 C 189.6348,59.9252 190.13123,60.3822 190.25696,60.5741 C 190.46983,60.8989 190.46004,60.9508 190.11489,61.3272 C 189.91101,61.5496 189.50689,62.0005 189.21686,62.3293 C 187.7382,64.0054 185.72768,66.2409 185.52085,66.4389 C 185.39208,66.5622 184.97403,67.0329 184.59184,67.485 C 184.20966,67.937 183.70531,68.5194 183.47105,68.7791 C 182.82253,69.4981 182.49562,69.8892 181.92908,70.6237 C 181.64401,70.9933 180.93708,71.8337 180.35815,72.4912 C 178.50682,74.5939 174.42052,80.2548 172.37562,83.5498 C 171.24306,85.3748 169.91245,87.6241 169.6138,88.2186 C 168.93444,89.571 168.15949,90.9396 168.02662,91.0217 C 167.95324,91.0671 167.62056,90.7027 167.28732,90.2119 z M 170.79103,41.034 C 170.74023,40.9518 170.66901,40.8846 170.63277,40.8846 C 170.59652,40.8846 170.56687,40.9518 170.56687,41.034 C 170.56687,41.1162 170.63809,41.1835 170.72513,41.1835 C 170.81217,41.1835 170.84182,41.1162 170.79103,41.034 z M 22.674722,78.5809 C 22.536202,78.3549 22.297702,77.9682 22.144732,77.7217 C 21.991752,77.4751 21.434302,76.5672 20.905952,75.7042 C 19.199892,72.9175 16.744632,69.472 15.900922,68.6805 C 15.857102,68.6394 15.533452,68.2857 15.181682,67.8945 C 14.612212,67.2611 14.561422,67.1464 14.718372,66.8484 C 14.815322,66.6643 14.935082,66.48 14.984512,66.4389 C 15.217592,66.2451 17.002382,64.1256 18.004682,62.8523 C 19.591082,60.837 20.635822,59.3911 22.522222,56.6 C 22.920072,56.0114 23.333552,55.5298 23.441082,55.5298 C 23.548612,55.5298 23.852962,55.9501 24.117402,56.4638 C 24.381852,56.9775 24.758532,57.6118 24.954472,57.8735 C 25.150412,58.1351 25.310732,58.3889 25.310732,58.4375 C 25.310732,58.5432 26.527532,60.5035 26.659652,60.6107 C 26.710292,60.6518 27.200812,61.3699 27.749682,62.2064 C 28.298562,63.043 28.833962,63.8163 28.939472,63.925 C 29.044972,64.0337 29.294582,64.3579 29.494152,64.6456 C 30.053512,65.4519 31.305882,66.948 31.533112,67.0815 C 31.971392,67.3388 31.724662,67.883 30.602462,69.1344 C 27.211322,72.9157 26.125072,74.34 23.682852,78.2073 C 23.410362,78.6389 23.128722,78.9919 23.056992,78.9919 C 22.985262,78.9919 22.813242,78.807 22.674722,78.5809 z M 19.964832,50.3919 C 18.666332,50.0611 17.302622,49.2763 16.377342,48.3273 C 15.467782,47.3944 15.073662,46.7801 14.637242,45.6151 C 14.408202,45.0037 14.397822,44.8611 14.570582,44.6988 C 14.794222,44.4886 16.384312,43.8734 16.703812,43.8734 C 16.813182,43.8734 17.163712,44.3201 17.482772,44.8661 C 18.481122,46.5746 19.866282,47.3382 22.006352,47.3598 C 23.352212,47.3733 24.407232,47.0581 25.198402,46.4059 C 25.941052,45.7938 27.307572,43.7066 27.688132,42.6032 C 27.987812,41.7342 28.446312,39.1422 28.448102,38.3067 C 28.449372,37.7129 28.169522,37.7839 26.974522,38.6803 C 25.038812,40.1324 22.806092,40.6912 20.735062,40.2418 C 18.155622,39.682 16.575682,38.4756 15.468992,36.2207 C 14.093892,33.4189 13.715182,30.7701 14.103782,26.6721 C 14.289892,24.7096 14.689032,23.4626 15.534602,22.202 C 16.348252,20.989 18.024402,19.5953 19.244652,19.1171 C 20.407502,18.6614 22.132482,18.4695 23.619182,18.6306 C 25.622052,18.8475 26.694072,19.3449 28.261272,20.7844 C 30.710072,23.0337 31.582112,26.3493 31.602282,33.4873 C 31.612812,37.2137 31.559662,38.1083 31.193832,40.3615 C 30.644872,43.7428 29.466632,46.6311 28.086612,47.9785 C 27.102442,48.9393 25.940852,49.6996 24.787692,50.1378 C 23.661912,50.5655 21.163142,50.6972 19.964832,50.3919 z M 24.525492,36.6907 C 25.261732,36.4186 26.717962,35.3424 27.253452,34.6746 C 27.986292,33.7608 28.585182,32.1895 28.592502,31.1615 C 28.601352,29.9183 28.202672,27.1739 27.876442,26.2322 C 26.794302,23.1087 24.740222,21.5882 21.948322,21.8438 C 19.312672,22.0852 17.591512,23.4948 17.007232,25.8904 C 16.520472,27.8863 16.589132,30.7328 17.172422,32.7393 C 17.988002,35.5448 20.151662,37.1089 22.956362,36.9205 C 23.592982,36.8778 24.299082,36.7744 24.525492,36.6907 z"
     id="path15851" />
  <g
     id="g3796"
     transform="translate(1.593878e-6,0)">
    <rect
       ry="11.25"
       rx="11.25"
       y="3.4247196"
       x="3.6058116"
       height="311.81104"
       width="223.22835"
       id="rect2382"
       style="fill:none;fill-opacity:1;fill-rule:nonzero;stroke:#000000;stroke-width:0.03543307;stroke-linejoin:round;stroke-miterlimit:4;stroke-dasharray:none;stroke-opacity:1" />
    <g
       transform="translate(3.5433116,3.3622195)"
       id="g3164">
      <path
         style="fill:none;fill-rule:evenodd;stroke:#000000;stroke-width:0.03221492;stroke-linecap:butt;stroke-linejoin:miter;stroke-miterlimit:4;stroke-dasharray:none;stroke-opacity:1"
         d="M 219.74754,0.062511534 L 226.70838,0.062511534"
         id="path3160"
         sodipodi:nodetypes="cc" />
      <path
         sodipodi:nodetypes="cc"
         id="path3162"
         d="M 223.29036,-3.2997195 L 223.29036,3.6063107"
         style="fill:none;fill-rule:evenodd;stroke:#000000;stroke-width:0.03196126;stroke-linecap:butt;stroke-linejoin:miter;stroke-miterlimit:4;stroke-dasharray:none;stroke-opacity:1" />
    </g>
    <g
       transform="matrix(1.0001093,0,0,1,3.519309,315.17275)"
       id="g3168">
      <path
         sodipodi:nodetypes="cc"
         id="path3170"
         d="M 219.74754,0.062511534 L 226.70838,0.062511534"
         style="fill:none;fill-rule:evenodd;stroke:#000000;stroke-width:0.03221492;stroke-linecap:butt;stroke-linejoin:miter;stroke-miterlimit:4;stroke-dasharray:none;stroke-opacity:1" />
      <path
         style="fill:none;fill-rule:evenodd;stroke:#000000;stroke-width:0.03196126;stroke-linecap:butt;stroke-linejoin:miter;stroke-miterlimit:4;stroke-dasharray:none;stroke-opacity:1"
         d="M 223.29036,-3.2997195 L 223.29036,3.6063107"
         id="path3172"
         sodipodi:nodetypes="cc" />
    </g>
    <g
       id="g3174"
       transform="matrix(1.0001093,0,0,1,-219.70906,315.17275)">
      <path
         style="fill:none;fill-rule:evenodd;stroke:#000000;stroke-width:0.03221492;stroke-linecap:butt;stroke-linejoin:miter;stroke-miterlimit:4;stroke-dasharray:none;stroke-opacity:1"
         d="M 219.74754,0.062511534 L 226.70838,0.062511534"
         id="path3176"
         sodipodi:nodetypes="cc" />
      <path
         sodipodi:nodetypes="cc"
         id="path3178"
         d="M 223.29036,-3.2997195 L 223.29036,3.6063107"
         style="fill:none;fill-rule:evenodd;stroke:#000000;stroke-width:0.03196126;stroke-linecap:butt;stroke-linejoin:miter;stroke-miterlimit:4;stroke-dasharray:none;stroke-opacity:1" />
    </g>
    <g
       transform="translate(-219.68504,3.3622195)"
       id="g3180">
      <path
         sodipodi:nodetypes="cc"
         id="path3182"
         d="M 219.74754,0.062511534 L 226.70838,0.062511534"
         style="fill:none;fill-rule:evenodd;stroke:#000000;stroke-width:0.03221492;stroke-linecap:butt;stroke-linejoin:miter;stroke-miterlimit:4;stroke-dasharray:none;stroke-opacity:1" />
      <path
         style="fill:none;fill-rule:evenodd;stroke:#000000;stroke-width:0.03196126;stroke-linecap:butt;stroke-linejoin:miter;stroke-miterlimit:4;stroke-dasharray:none;stroke-opacity:1"
         d="M 223.29036,-3.2997195 L 223.29036,3.6063107"
         id="path3184"
         sodipodi:nodetypes="cc" />
    </g>
  </g>
</svg>
