<?xml version="1.0" encoding="UTF-8" standalone="no"?>
<!-- Created with Inkscape (http://www.inkscape.org/) -->
<svg
   xmlns:dc="http://purl.org/dc/elements/1.1/"
   xmlns:cc="http://creativecommons.org/ns#"
   xmlns:rdf="http://www.w3.org/1999/02/22-rdf-syntax-ns#"
   xmlns:svg="http://www.w3.org/2000/svg"
   xmlns="http://www.w3.org/2000/svg"
   xmlns:sodipodi="http://sodipodi.sourceforge.net/DTD/sodipodi-0.dtd"
   xmlns:inkscape="http://www.inkscape.org/namespaces/inkscape"
   id="svg16442"
   sodipodi:version="0.32"
   inkscape:version="0.46"
   width="230.31497"
   height="318.84155"
   version="1.0"
   sodipodi:docname="9h.svg"
   inkscape:output_extension="org.inkscape.output.svg.inkscape">
  <metadata
     id="metadata16447">
    <rdf:RDF>
      <cc:Work
         rdf:about="">
        <dc:format>image/svg+xml</dc:format>
        <dc:type
           rdf:resource="http://purl.org/dc/dcmitype/StillImage" />
      </cc:Work>
    </rdf:RDF>
  </metadata>
  <defs
     id="defs16445">
    <inkscape:perspective
       sodipodi:type="inkscape:persp3d"
       inkscape:vp_x="0 : 526.18109 : 1"
       inkscape:vp_y="0 : 1000 : 0"
       inkscape:vp_z="744.09448 : 526.18109 : 1"
       inkscape:persp3d-origin="372.04724 : 350.78739 : 1"
       id="perspective16449" />
  </defs>
  <sodipodi:namedview
     inkscape:window-height="667"
     inkscape:window-width="850"
     inkscape:pageshadow="2"
     inkscape:pageopacity="0.0"
     guidetolerance="10.0"
     gridtolerance="10.0"
     objecttolerance="10.0"
     borderopacity="1.0"
     bordercolor="#666666"
     pagecolor="#ffffff"
     id="base"
     showgrid="false"
     inkscape:zoom="1.4489956"
     inkscape:cx="115.15749"
     inkscape:cy="159.42078"
     inkscape:window-x="154"
     inkscape:window-y="203"
     inkscape:current-layer="svg16442" />
  <path
     style="fill:#e00000;fill-opacity:1"
     d="M 23.938732,18.6476 C 25.736912,18.9101 27.299022,19.5006 28.259272,20.2806 C 29.843222,21.5673 30.973052,23.1679 31.449922,24.8009 C 32.072542,26.9329 32.314272,29.2317 32.293592,32.8241 C 32.256972,39.1867 31.682432,42.5414 30.055242,45.8936 C 29.205512,47.6441 28.319262,48.6309 26.770132,49.5512 C 25.187712,50.4913 24.144072,50.7798 22.299912,50.7867 C 19.496282,50.7973 17.819942,50.1592 16.156492,48.448 C 15.110182,47.3716 14.045282,45.4875 14.135492,44.8722 C 14.181602,44.5578 15.396022,43.9868 16.431782,43.7924 C 16.899252,43.7047 16.926662,43.7286 17.324632,44.5698 C 18.166872,46.3502 19.511372,47.2275 21.675722,47.4089 C 23.717992,47.5802 25.346232,46.8344 26.561012,45.1715 C 27.808392,43.464 28.532382,41.4333 28.787562,38.9262 C 28.907842,37.7444 28.797532,37.6751 27.997712,38.4297 C 27.445482,38.9506 25.681602,39.9096 24.802122,40.1669 C 22.502322,40.8398 20.038422,40.4693 18.013952,39.146 C 17.104372,38.5514 16.109442,37.4622 15.640752,36.5478 C 14.984332,35.2673 14.288222,33.1979 14.103242,31.9772 C 13.875772,30.4761 13.994972,26.5307 14.308522,25.1824 C 14.886702,22.6963 16.589782,20.5763 18.965172,19.3859 C 20.262552,18.7357 22.384652,18.4207 23.938732,18.6476 z M 20.987982,22.1818 C 19.346642,22.6076 17.859102,24.1081 17.425452,25.7754 C 16.994912,27.4308 16.874912,29.0519 17.069882,30.579 C 17.629412,34.9615 19.699112,37.029 23.342792,36.8453 C 24.736762,36.775 25.463672,36.4872 26.843922,35.4592 C 28.418472,34.2864 29.004012,32.9519 29.004112,30.536 C 29.004292,26.7204 27.968312,24.1659 25.852982,22.7661 C 24.716042,22.0137 22.610842,21.7609 20.987982,22.1818 z M 181.42692,32.1101 C 185.28101,32.7223 188.55038,35.3319 190.41524,39.2847 C 191.56492,41.7215 192.08973,45.5495 191.69291,48.6041 C 191.60999,49.2424 191.47139,50.3011 191.38493,50.9566 C 190.98236,54.0089 188.72665,59.3615 186.48768,62.5774 C 185.97423,63.3149 184.2847,65.829 182.73316,68.1643 C 179.63224,72.8317 179.37532,73.2069 178.09161,74.9431 C 177.03266,76.3752 173.67324,81.4357 173.29476,82.1688 C 173.1467,82.4556 172.91089,82.8578 172.77074,83.0627 C 171.92932,84.2926 171.34112,85.3246 170.3266,87.3512 C 169.6996,88.6037 169.12294,89.5891 169.04515,89.541 C 168.96735,89.4929 168.72321,89.1386 168.50261,88.7536 C 168.15845,88.153 167.28118,86.7938 166.36809,85.4464 C 166.22927,85.2416 165.3473,83.9342 164.40816,82.5412 C 161.69422,78.5157 160.38738,76.6156 160.00206,76.1349 C 159.02104,74.9112 158.12816,73.7202 157.99148,73.4532 C 157.90758,73.2893 157.68917,72.9877 157.50612,72.7828 C 156.92218,72.1293 153.26037,66.7571 152.29064,65.1312 C 151.94161,64.546 151.37214,63.6041 151.02515,63.038 C 150.3184,61.8851 147.66547,56.2091 147.18889,54.8302 C 146.17574,51.899 145.88932,50.1492 145.9086,47.0086 C 145.94126,41.6876 147.01127,38.6675 149.89807,35.7481 C 151.37473,34.2548 153.58448,33.0215 155.86406,32.4185 C 156.80396,32.1698 159.01183,32.2303 160.1846,32.5368 C 161.95855,33.0005 164.22229,34.3196 164.97633,35.329 C 165.15354,35.5662 165.55152,36.0955 165.86071,36.5052 C 166.52844,37.39 167.77188,39.9681 168.06698,41.0796 C 168.18219,41.5136 168.31063,41.9692 168.35239,42.0921 C 168.39415,42.215 168.46872,42.4999 168.51809,42.7253 C 168.57791,42.9982 168.70304,43.135 168.89297,43.135 C 169.20056,43.135 169.27198,42.9748 169.42438,41.9431 C 169.6991,40.0834 170.80336,37.1015 171.47705,36.4003 C 171.57903,36.2941 171.90618,35.872 172.20403,35.4623 C 173.21344,34.0739 175.05874,32.876 177.16877,32.2394 C 177.83299,32.0391 180.47462,31.9588 181.42692,32.1101 z M 76.026142,32.7698 C 77.421462,33.0875 79.428142,34.0118 80.379852,34.7752 C 83.277522,37.0996 84.718432,39.4374 85.486462,43.0605 C 85.857012,44.8086 86.001272,47.9399 85.778162,49.3923 C 85.683742,50.0069 85.542842,50.9707 85.465042,51.5342 C 85.122612,54.0142 82.946282,59.3372 81.185282,62.0019 C 80.714432,62.7143 79.841522,64.0404 79.245482,64.9486 C 77.204632,68.0585 75.049942,71.219 73.518202,73.3495 C 71.075402,76.7472 68.390162,80.6714 67.789322,81.7218 C 67.484652,82.2545 66.888702,83.2266 66.465002,83.8821 C 65.364072,85.5854 64.739052,86.6959 63.871442,88.4902 C 63.452682,89.3563 63.054222,90.0649 62.986002,90.0649 C 62.917782,90.0649 62.720532,89.8471 62.547682,89.5807 C 61.037582,87.2542 57.996022,82.7799 56.648282,80.9024 C 56.118902,80.165 55.320752,79.0252 54.874612,78.3697 C 54.428482,77.7142 53.714252,76.742 53.287462,76.2094 C 51.925462,74.5098 49.687502,71.4586 48.151442,69.2072 C 47.676262,68.5107 47.108052,67.7062 46.888772,67.4194 C 46.669512,67.1326 46.171772,66.3616 45.782722,65.7061 C 45.393662,65.0505 44.869242,64.179 44.617332,63.7693 C 44.020282,62.7982 42.994792,60.7523 41.667592,57.8844 C 39.974702,54.2264 39.285422,51.2734 39.284502,47.6751 C 39.283202,42.5737 40.490912,39.1816 43.287922,36.4307 C 45.586362,34.1702 48.578972,32.8517 51.398282,32.8576 C 53.916352,32.8629 56.874682,34.0928 58.456462,35.7919 C 59.231162,36.6241 60.344002,38.2694 60.715932,39.1325 C 60.870062,39.4902 61.134342,40.0845 61.303212,40.4533 C 61.571012,41.038 61.726342,41.5164 62.222302,43.284 C 62.279772,43.4888 62.432162,43.6769 62.560922,43.7019 C 62.828112,43.7537 63.043562,43.18 63.193462,42.0176 C 63.477982,39.8112 65.171962,36.4689 66.687722,35.1233 C 67.531802,34.374 69.067132,33.4584 70.123782,33.0742 C 71.077952,32.7272 71.524052,32.6602 73.177952,32.6151 C 74.476682,32.5797 75.414992,32.6307 76.026142,32.7698 z M 29.600122,55.5586 C 31.924582,56.2272 33.204672,57.8576 33.509062,60.5373 C 33.764002,62.7817 33.394762,64.5149 32.062142,67.3289 C 31.418072,68.689 30.227212,70.7027 27.779722,74.5706 C 26.492392,76.605 25.728342,77.9287 25.105412,79.2038 C 24.750532,79.9302 24.379592,80.5258 24.281082,80.5273 C 24.136162,80.5294 23.044832,78.8854 23.044832,78.6649 C 23.044832,78.5455 19.572632,72.8837 18.323302,70.966 C 17.379612,69.5174 15.349802,65.5699 15.009342,64.5211 C 13.933222,61.2061 14.312902,58.5557 16.123762,56.7421 C 16.927772,55.9368 17.674822,55.6106 19.168522,55.4125 C 21.201242,55.1428 23.241372,56.7734 23.615852,58.9671 C 23.766462,59.8494 24.054832,59.7576 24.406632,58.7155 C 24.901552,57.2495 25.876162,56.0742 26.928762,55.674 C 27.612632,55.414 28.903642,55.3582 29.600122,55.5586 z M 182.15974,98.1 C 182.80722,98.2299 184.2039,98.752 185.03456,99.1746 C 187.07389,100.212 189.50846,102.8467 190.48626,105.0745 C 191.96972,108.4545 192.30816,111.8367 191.62301,116.4351 C 191.14547,119.6401 189.17629,124.4849 187.17225,127.3854 C 186.71932,128.041 185.09176,130.4545 183.55545,132.7489 C 182.01914,135.0432 180.47126,137.3227 180.11571,137.8143 C 178.24566,140.4002 175.84304,143.8855 174.80929,145.5121 C 174.16709,146.5225 173.2343,147.9862 172.73644,148.7646 C 172.23857,149.5431 171.25554,151.303 170.55192,152.6756 C 169.84831,154.0481 169.20825,155.1878 169.12957,155.2083 C 168.97881,155.2475 168.86958,155.0901 167.55931,152.9459 C 165.98462,150.369 161.54115,143.715 159.65392,141.1077 C 159.12638,140.3789 158.14614,139.0045 157.4756,138.0535 C 156.80507,137.1026 156.07902,136.0898 155.86217,135.803 C 155.30328,135.0639 153.04209,131.6257 151.84485,129.6947 C 150.1409,126.9464 147.55624,121.2991 146.79901,118.6699 C 146.14678,116.4052 145.89188,112.2289 146.24434,109.5818 C 146.59692,106.9339 147.62063,104.4465 149.106,102.6287 C 150.31197,101.1529 151.26003,100.3618 152.85874,99.4974 C 154.99116,98.3444 156.30965,97.9611 158.14388,97.9611 C 159.89263,97.9611 162.46054,98.9116 164.0544,100.1488 C 164.8262,100.7479 166.0606,102.1809 166.46906,102.9521 C 167.46649,104.835 168.02768,106.1377 168.38459,107.3983 C 168.62559,108.2496 168.89242,108.9005 169.02051,108.9496 C 169.32889,109.068 169.64508,108.5776 169.64508,107.981 C 169.64508,107.1259 170.38373,104.7997 171.0764,103.4735 C 171.96195,101.7779 172.98849,100.5302 174.18749,99.692 C 175.4943,98.7785 176.07788,98.4952 177.25279,98.2037 C 178.26337,97.953 181.1258,97.8925 182.15974,98.1 z M 76.645472,98.7884 C 78.439832,99.3189 79.881492,100.0991 81.138662,101.2198 C 82.954582,102.8387 84.258532,104.6716 85.020782,106.6767 C 85.083092,106.8405 85.212142,107.168 85.307562,107.4044 C 85.892592,108.8537 86.245712,113.2554 85.925462,115.1066 C 85.848672,115.5505 85.709672,116.4835 85.616552,117.18 C 85.248712,119.9313 83.301212,124.6067 81.267022,127.622 C 78.385962,131.8927 76.829762,134.1789 76.306772,134.9091 C 75.984012,135.3598 75.416152,136.1744 75.044872,136.7194 C 74.391232,137.6789 72.500402,140.2941 71.204232,142.0315 C 70.856142,142.498 70.463522,143.0746 70.331722,143.3127 C 70.199912,143.5509 70.029162,143.819 69.952272,143.9087 C 69.533282,144.3971 67.713242,147.0395 67.413262,147.5948 C 67.220622,147.9514 66.802592,148.6454 66.484252,149.1371 C 65.476372,150.6937 64.525422,152.365 63.729122,153.9791 C 63.304672,154.8395 62.896582,155.6043 62.822282,155.6786 C 62.629222,155.8719 62.259232,155.5214 61.903652,154.8085 C 61.737442,154.4752 61.248482,153.6662 60.817032,153.0107 C 57.256642,147.6009 56.555542,146.5664 56.282042,146.3189 C 56.110572,146.1637 55.968712,145.9633 55.966792,145.8736 C 55.960842,145.5968 54.639552,143.6408 52.419972,140.6232 C 49.711862,136.9413 46.674372,132.4904 44.980482,129.7217 C 43.995032,128.1109 41.557962,123.134 40.918382,121.4261 C 40.448202,120.1706 39.756052,117.4668 39.590292,116.2381 C 39.239072,113.6348 39.462182,110.2369 40.157162,107.6049 C 40.994042,104.4353 43.421282,101.4525 46.412792,99.9175 C 48.683152,98.7525 49.654962,98.4812 51.500772,98.4972 C 54.792662,98.5258 57.766042,100.0477 59.628072,102.6571 C 60.529542,103.9203 61.686272,106.4028 62.091132,107.943 C 62.473292,109.3969 62.686022,109.7325 63.039552,109.4391 C 63.166572,109.3337 63.270502,109.0618 63.270502,108.835 C 63.270502,108.0436 64.035682,105.476 64.611942,104.3337 C 66.185632,101.2142 68.296692,99.4435 71.408202,98.6331 C 72.778692,98.2761 75.150752,98.3465 76.645472,98.7884 z M 128.99765,130.4327 C 132.13772,131.0093 134.57641,132.5098 136.65813,135.1461 C 138.83824,137.9069 139.91688,142.2292 139.46187,146.3809 C 139.14007,149.3171 138.94533,150.2451 138.20643,152.3637 C 137.04522,155.6932 135.85723,158.0947 134.16461,160.5344 C 133.27064,161.8229 131.92657,163.8112 129.33035,167.6856 C 128.04107,169.6097 125.59581,172.9984 125.18024,173.437 C 124.87595,173.7582 121.3328,178.966 120.02138,181.0197 C 119.28883,182.1668 118.2041,184.0601 117.61088,185.2268 C 117.01765,186.3935 116.45888,187.3489 116.36915,187.3498 C 116.15115,187.3521 115.80661,186.9453 115.48724,186.3086 C 115.25564,185.8469 113.16912,182.6784 112.44591,181.6901 C 111.80594,180.8156 109.61717,177.7138 108.89344,176.6557 C 108.46137,176.0241 107.43912,174.6357 106.62178,173.5705 C 105.28783,171.832 102.97898,168.7372 102.48891,168.0309 C 102.38559,167.8819 101.88277,167.1666 101.37153,166.4413 C 100.86031,165.7159 100.37498,165.0173 100.29304,164.8887 C 100.2111,164.7601 99.892652,164.2865 99.585372,163.8363 C 99.278092,163.3861 99.026682,162.9611 99.026682,162.8919 C 99.026682,162.8227 98.779722,162.4148 98.477892,161.9854 C 97.643152,160.798 94.376742,154.0863 93.892572,152.5637 C 92.900892,149.4451 92.703812,148.2085 92.705422,145.1145 C 92.707562,140.9435 93.319642,138.4162 94.877872,136.1444 C 95.562722,135.1459 96.802062,133.7902 97.628542,133.1356 C 98.602162,132.3644 101.09431,131.1145 102.3228,130.7813 C 103.56732,130.4438 105.91059,130.4547 107.22079,130.8042 C 108.86688,131.2433 111.02105,132.3982 111.81107,133.265 C 113.49099,135.1084 114.91776,137.7319 115.64225,140.3098 C 115.82469,140.9589 115.95006,141.1665 116.15984,141.1665 C 116.37864,141.1665 116.47082,140.9869 116.59957,140.3098 C 116.93677,138.5365 117.2605,137.5333 117.9,136.28 C 119.42386,133.2936 121.08105,131.7971 123.97328,130.7958 C 125.13032,130.3952 127.75903,130.2053 128.99765,130.4327 z M 168.84149,163.7771 C 168.93213,163.8373 169.32872,164.4229 169.72279,165.0784 C 171.06092,167.3043 175.01198,173.0973 177.24215,176.1032 C 180.98372,181.1461 181.66992,182.0911 183.13865,184.2228 C 183.67498,185.0013 184.31034,185.9063 184.55057,186.2341 C 184.7908,186.5619 185.23429,187.2658 185.5361,187.7984 C 185.83793,188.3311 186.30748,189.0922 186.57957,189.4898 C 187.54414,190.8995 190.34617,196.9491 190.8964,198.8099 C 191.10453,199.5138 191.33565,200.2899 191.40999,200.5346 C 191.7987,201.8143 192.02424,204.4615 191.92755,206.6097 C 191.70976,211.4486 190.71325,214.1255 188.14948,216.7588 C 185.27967,219.7063 181.08583,221.0589 177.71389,220.1245 C 175.46136,219.5003 173.71463,218.4112 172.44621,216.8399 C 171.56199,215.7446 170.11864,212.9902 169.79071,211.7724 C 169.62978,211.1748 169.29704,210.891 168.75729,210.891 C 168.41939,210.891 168.25082,211.2151 167.99504,212.3564 C 167.39574,215.0306 165.49399,217.8021 163.35064,219.1248 C 161.51543,220.2574 160.56134,220.5004 157.94984,220.5004 C 155.48664,220.5004 154.83661,220.363 152.90099,219.433 C 151.23284,218.6316 149.61587,217.2387 148.35297,215.5152 C 145.95084,212.237 145.13371,207.2657 146.08426,201.7126 C 146.42736,199.7082 147.52533,196.6147 148.74907,194.2048 C 149.59773,192.5334 149.86035,192.1136 152.30211,188.5252 C 152.95013,187.5728 154.3095,185.5616 155.32294,184.0557 C 157.21101,181.2501 157.76644,180.4644 159.91476,177.5599 C 160.59493,176.6403 161.39547,175.5006 161.69372,175.0272 C 161.99198,174.5537 162.48824,173.8312 162.79653,173.4215 C 163.10482,173.0118 163.74079,172.0397 164.2098,171.2612 C 164.67882,170.4828 165.1102,169.8123 165.16844,169.7714 C 165.32955,169.658 166.87647,166.9085 167.74592,165.1901 C 168.17089,164.3502 168.55416,163.6641 168.59764,163.6653 C 168.64111,163.6666 168.75085,163.7169 168.84149,163.7771 z M 178.28615,205.8255 C 178.28615,205.9074 178.34923,205.9745 178.42635,205.9745 C 178.50345,205.9745 178.60797,205.9074 178.65861,205.8255 C 178.70925,205.7436 178.64617,205.6765 178.51842,205.6765 C 178.39068,205.6765 178.28615,205.7436 178.28615,205.8255 z M 63.728972,164.7432 C 64.321352,165.7403 65.104412,166.9581 65.860632,168.0581 C 66.029642,168.3039 66.800202,169.4436 67.573032,170.5908 C 68.345842,171.738 69.258442,173.0453 69.601012,173.496 C 69.943602,173.9467 70.464372,174.6841 70.758302,175.1348 C 71.052222,175.5855 71.655922,176.4235 72.099852,176.9971 C 73.924202,179.3543 77.275012,183.9808 77.275012,184.1425 C 77.275012,184.1919 77.633962,184.7162 78.072672,185.3077 C 78.511392,185.8991 79.126942,186.8189 79.440572,187.3515 C 79.754212,187.8841 80.323402,188.8227 80.705462,189.4373 C 81.902262,191.3624 84.483962,196.7788 85.072722,198.5998 C 86.070862,201.687 86.386412,203.7139 86.290602,206.423 C 86.103552,211.7122 84.971532,214.6922 82.081312,217.504 C 80.997622,218.5583 80.693182,218.7628 78.839352,219.6826 C 77.328392,220.4322 75.605162,220.8729 74.184582,220.8729 C 71.603482,220.8729 68.502542,219.5456 66.934382,217.7695 C 65.561702,216.2149 64.298152,213.7627 63.625402,211.3478 C 63.241782,209.9708 63.137492,209.7941 62.787352,209.9285 C 62.626092,209.9904 62.519952,210.3075 62.449142,210.939 C 62.313612,212.1478 61.748322,214.0973 61.245772,215.0891 C 60.038032,217.4725 58.663292,218.9584 56.823792,219.8686 C 54.874792,220.833 54.349852,220.9474 51.873232,220.9474 C 49.385492,220.9474 49.002982,220.8612 46.733282,219.7896 C 45.633572,219.2704 45.248982,218.9739 43.810902,217.5368 C 42.375332,216.1022 42.061602,215.6962 41.454202,214.4865 C 40.248162,212.0846 39.683062,209.6994 39.666972,206.9429 C 39.647972,203.6871 40.125322,200.9753 41.233912,198.0415 C 42.477872,194.7494 43.499932,192.8389 45.637832,189.8097 C 45.811322,189.5639 46.279622,188.8612 46.678502,188.2483 C 47.077362,187.6353 47.942232,186.3615 48.600412,185.4176 C 49.258592,184.4737 49.952542,183.4332 50.142502,183.1054 C 50.489762,182.5063 51.412082,181.2215 53.671792,178.189 C 54.940092,176.487 56.562872,174.1308 57.814502,172.174 C 58.214252,171.5491 58.824542,170.602 59.170692,170.0693 C 60.226692,168.4445 60.854642,167.3412 61.793102,165.4622 C 62.287312,164.4727 62.780702,163.663 62.889512,163.663 C 62.998312,163.663 63.376072,164.1491 63.728972,164.7432 z M 169.23156,228.4338 C 169.35729,228.5772 169.56261,228.8971 169.68781,229.1447 C 169.81302,229.3922 170.39334,230.2973 170.97743,231.156 C 171.56152,232.0146 172.35549,233.2101 172.74179,233.8126 C 173.12811,234.4151 173.64909,235.1864 173.89954,235.5267 C 174.14999,235.8669 175.08258,237.2176 175.97196,238.5282 C 176.86133,239.8389 178.06719,241.5481 178.65163,242.3266 C 179.87055,243.9502 181.85746,246.7707 183.00707,248.5094 C 183.44049,249.1649 184.0371,250.0365 184.33288,250.4462 C 184.62866,250.8559 185.14162,251.6604 185.47281,252.234 C 185.80399,252.8076 186.29035,253.6121 186.5536,254.0218 C 187.17227,254.9846 187.43757,255.5156 189.04737,259.0128 C 190.58852,262.3608 190.76403,262.8285 191.37662,265.2201 C 191.95345,267.472 192.19012,269.7951 192.0571,271.8999 C 191.74461,276.845 190.88299,279.0391 188.19359,281.7382 C 186.83281,283.1039 186.55532,283.3062 184.99043,284.0737 C 182.17359,285.4552 180.10586,285.6942 177.482,284.9413 C 176.25246,284.5886 174.48095,283.6076 173.52233,282.7486 C 171.91853,281.3116 170.15343,277.875 169.573,275.0594 C 169.38803,274.1622 168.60219,274.5055 168.60219,275.4835 C 168.60219,276.3842 167.97847,278.4616 167.30743,279.7961 C 166.12139,282.1547 164.70747,283.587 162.41936,284.748 C 160.64509,285.6482 156.93546,285.7873 154.78465,285.0342 C 153.06259,284.4313 152.00486,283.7863 150.63276,282.5026 C 149.11892,281.0862 148.11676,279.7156 147.49302,278.2084 C 146.38459,275.5301 146.10788,273.9888 146.17317,270.857 C 146.23128,268.07 146.55788,265.8829 147.18321,264.0933 C 147.42948,263.3885 147.757,262.4497 147.91105,262.007 C 148.62593,259.9526 150.18739,257.1206 152.6953,253.33 C 154.12414,251.1703 155.75137,248.6994 156.31136,247.839 C 156.87136,246.9786 158.24009,245.0112 159.353,243.4671 C 160.46591,241.9229 161.53618,240.3809 161.73138,240.0404 C 161.92658,239.7 162.36906,239.0191 162.71467,238.5275 C 163.90477,236.8345 166.97761,231.7206 167.86952,229.9486 C 168.36105,228.9721 168.81715,228.1731 168.88307,228.1731 C 168.94901,228.1731 169.10584,228.2904 169.23156,228.4338 z M 172.32679,249.7013 C 172.4288,249.8242 172.61283,249.9248 172.73574,249.9248 C 172.91749,249.9248 172.92459,249.883 172.77375,249.7013 C 172.67174,249.5784 172.48771,249.4778 172.3648,249.4778 C 172.18306,249.4778 172.17595,249.5195 172.32679,249.7013 z M 63.576072,229.4022 C 64.992242,231.6832 71.247122,240.9035 72.916112,243.1703 C 78.710972,251.0408 80.882412,254.5316 83.419592,260.0557 C 84.741262,262.9333 84.941482,263.4867 85.629412,266.164 C 86.554632,269.7648 86.255562,275.1701 84.955692,278.3407 C 84.239722,280.0871 82.734732,282.0692 81.264802,283.2017 C 80.153412,284.0581 78.083342,285.1177 76.679082,285.5493 C 73.454152,286.5402 69.115062,285.3383 66.878222,282.8345 C 65.268782,281.0329 64.055352,278.5927 63.274542,275.5873 C 63.011392,274.5744 62.464322,274.8078 62.296892,276.0044 C 61.952902,278.4626 61.226192,280.2594 59.783122,282.2197 C 58.685742,283.7103 56.924402,284.9461 55.030292,285.5543 C 53.535462,286.0343 50.309552,286.0486 48.739592,285.5822 C 44.567372,284.3426 41.318612,280.8132 40.190842,276.2949 C 39.509612,273.5656 39.452702,271.6017 39.949072,267.9518 C 40.317402,265.2434 41.259772,262.4993 42.955402,259.1978 C 43.917042,257.3255 44.164022,256.9322 46.954392,252.83 C 47.846182,251.5189 49.372772,249.273 50.346812,247.839 C 51.320852,246.405 52.711622,244.4273 53.437412,243.444 C 54.794582,241.6053 58.275252,236.4924 58.711352,235.6968 C 58.846112,235.451 59.415392,234.5289 59.976422,233.6477 C 60.537452,232.7665 61.390252,231.2748 61.871512,230.3328 C 62.352792,229.3908 62.823942,228.6201 62.918512,228.6201 C 63.013072,228.6201 63.308992,228.972 63.576072,229.4022 z M 207.97583,239.6076 C 208.42585,240.4066 209.00314,241.4625 209.25867,241.9541 C 209.51421,242.4458 210.09602,243.4514 210.55159,244.1889 C 211.00715,244.9264 211.65502,246.0326 211.99129,246.6471 C 212.32757,247.2617 212.77794,248.0327 212.99214,248.3604 C 213.60028,249.2911 215.47835,253.3043 215.88548,254.5433 C 216.47655,256.342 216.47801,258.9076 215.88872,260.2611 C 215.39737,261.3896 214.52933,262.3773 213.59536,262.8706 C 212.9428,263.2153 211.20585,263.5225 210.6565,263.3904 C 210.02888,263.2395 209.08433,262.7323 208.77638,262.3808 C 208.22708,261.7538 207.74427,260.7672 207.58022,259.9365 C 207.44375,259.2454 207.35752,259.0873 207.11709,259.0873 C 206.8909,259.0873 206.80026,259.2189 206.7304,259.6486 C 206.48955,261.1303 205.08085,262.8613 203.83928,263.2011 C 202.98022,263.4363 201.56934,263.3047 200.7648,262.9144 C 199.81507,262.4537 198.91764,261.5021 198.35323,260.3571 C 197.9091,259.4562 197.874,259.2687 197.82406,257.5303 C 197.76881,255.6066 197.90069,254.6359 198.4062,253.2454 C 198.79416,252.1783 200.00598,249.7892 200.96755,248.1958 C 203.00652,244.8169 203.69098,243.7093 203.99601,243.295 C 204.37942,242.7742 205.29887,241.1317 206.18515,239.3841 C 206.52799,238.7081 206.88706,238.155 206.98306,238.155 C 207.07907,238.155 207.52581,238.8087 207.97583,239.6076 z M 210.07371,268.4054 C 211.01746,268.5522 212.18809,269.0347 213.09822,269.6522 C 214.39165,270.5296 216.22347,273.2579 216.09746,274.1192 C 216.0655,274.3376 215.79079,274.5165 215.0852,274.7784 C 213.64397,275.3133 213.61102,275.3053 213.044,274.2836 C 212.14721,272.6678 210.89084,271.8478 208.94964,271.6116 C 207.9333,271.4879 206.3597,271.836 205.50921,272.3728 C 204.90293,272.7555 203.29595,274.8121 202.92109,275.6851 C 202.57659,276.4874 202.16513,278.0526 202.05579,278.9766 C 202.00247,279.4273 201.92899,279.9637 201.8925,280.1685 C 201.74513,280.9959 202.02412,280.9874 203.28178,280.1261 C 204.66203,279.1808 205.74721,278.7367 207.24678,278.5036 C 209.21329,278.1979 211.6756,278.993 213.33084,280.4683 C 214.11692,281.1689 215.01364,282.6803 215.62801,284.3401 C 216.05021,285.4807 216.32288,287.6849 216.2996,289.7691 C 216.2479,294.3967 215.4138,296.5245 212.85087,298.5667 C 211.47051,299.6666 210.15682,300.1589 208.36449,300.248 C 205.44366,300.3932 203.61235,299.7285 201.60063,297.7929 C 199.3225,295.601 198.40139,291.5221 198.59988,284.5048 C 198.65228,282.6525 198.72658,280.9023 198.76502,280.6155 C 198.80344,280.3287 198.87585,279.7253 198.92593,279.2746 C 199.14047,277.3441 200.05559,274.3894 200.97642,272.654 C 201.87458,270.9614 203.83622,269.3415 205.81756,268.6564 C 206.79721,268.3176 208.76341,268.2017 210.07371,268.4054 z M 206.07828,282.1843 C 205.02933,282.4576 203.49453,283.504 202.84095,284.3915 C 201.90442,285.6633 201.67967,286.359 201.67829,287.9902 C 201.67631,290.3474 202.29586,293.0838 203.14559,294.471 C 203.54703,295.1263 204.55735,295.9839 205.40124,296.3855 C 206.3628,296.8432 208.38417,297.0015 209.54545,296.71 C 210.41674,296.4912 211.63279,295.6966 212.16598,294.9976 C 213.50117,293.247 213.93531,289.6131 213.16511,286.6343 C 212.83119,285.3428 212.06068,283.8583 211.4635,283.3558 C 210.0054,282.1289 207.98154,281.6886 206.07828,282.1843 z"
     id="path16453" />
  <g
     id="g3796"
     transform="translate(1.593878e-6,0)">
    <rect
       ry="11.25"
       rx="11.25"
       y="3.4247196"
       x="3.6058116"
       height="311.81104"
       width="223.22835"
       id="rect2382"
       style="fill:none;fill-opacity:1;fill-rule:nonzero;stroke:#000000;stroke-width:0.03543307;stroke-linejoin:round;stroke-miterlimit:4;stroke-dasharray:none;stroke-opacity:1" />
    <g
       transform="translate(3.5433116,3.3622195)"
       id="g3164">
      <path
         style="fill:none;fill-rule:evenodd;stroke:#000000;stroke-width:0.03221492;stroke-linecap:butt;stroke-linejoin:miter;stroke-miterlimit:4;stroke-dasharray:none;stroke-opacity:1"
         d="M 219.74754,0.062511534 L 226.70838,0.062511534"
         id="path3160"
         sodipodi:nodetypes="cc" />
      <path
         sodipodi:nodetypes="cc"
         id="path3162"
         d="M 223.29036,-3.2997195 L 223.29036,3.6063107"
         style="fill:none;fill-rule:evenodd;stroke:#000000;stroke-width:0.03196126;stroke-linecap:butt;stroke-linejoin:miter;stroke-miterlimit:4;stroke-dasharray:none;stroke-opacity:1" />
    </g>
    <g
       transform="matrix(1.0001093,0,0,1,3.519309,315.17275)"
       id="g3168">
      <path
         sodipodi:nodetypes="cc"
         id="path3170"
         d="M 219.74754,0.062511534 L 226.70838,0.062511534"
         style="fill:none;fill-rule:evenodd;stroke:#000000;stroke-width:0.03221492;stroke-linecap:butt;stroke-linejoin:miter;stroke-miterlimit:4;stroke-dasharray:none;stroke-opacity:1" />
      <path
         style="fill:none;fill-rule:evenodd;stroke:#000000;stroke-width:0.03196126;stroke-linecap:butt;stroke-linejoin:miter;stroke-miterlimit:4;stroke-dasharray:none;stroke-opacity:1"
         d="M 223.29036,-3.2997195 L 223.29036,3.6063107"
         id="path3172"
         sodipodi:nodetypes="cc" />
    </g>
    <g
       id="g3174"
       transform="matrix(1.0001093,0,0,1,-219.70906,315.17275)">
      <path
         style="fill:none;fill-rule:evenodd;stroke:#000000;stroke-width:0.03221492;stroke-linecap:butt;stroke-linejoin:miter;stroke-miterlimit:4;stroke-dasharray:none;stroke-opacity:1"
         d="M 219.74754,0.062511534 L 226.70838,0.062511534"
         id="path3176"
         sodipodi:nodetypes="cc" />
      <path
         sodipodi:nodetypes="cc"
         id="path3178"
         d="M 223.29036,-3.2997195 L 223.29036,3.6063107"
         style="fill:none;fill-rule:evenodd;stroke:#000000;stroke-width:0.03196126;stroke-linecap:butt;stroke-linejoin:miter;stroke-miterlimit:4;stroke-dasharray:none;stroke-opacity:1" />
    </g>
    <g
       transform="translate(-219.68504,3.3622195)"
       id="g3180">
      <path
         sodipodi:nodetypes="cc"
         id="path3182"
         d="M 219.74754,0.062511534 L 226.70838,0.062511534"
         style="fill:none;fill-rule:evenodd;stroke:#000000;stroke-width:0.03221492;stroke-linecap:butt;stroke-linejoin:miter;stroke-miterlimit:4;stroke-dasharray:none;stroke-opacity:1" />
      <path
         style="fill:none;fill-rule:evenodd;stroke:#000000;stroke-width:0.03196126;stroke-linecap:butt;stroke-linejoin:miter;stroke-miterlimit:4;stroke-dasharray:none;stroke-opacity:1"
         d="M 223.29036,-3.2997195 L 223.29036,3.6063107"
         id="path3184"
         sodipodi:nodetypes="cc" />
    </g>
  </g>
</svg>
