<?xml version="1.0" encoding="UTF-8" standalone="no"?>
<!-- Created with Inkscape (http://www.inkscape.org/) -->
<svg
   xmlns:dc="http://purl.org/dc/elements/1.1/"
   xmlns:cc="http://creativecommons.org/ns#"
   xmlns:rdf="http://www.w3.org/1999/02/22-rdf-syntax-ns#"
   xmlns:svg="http://www.w3.org/2000/svg"
   xmlns="http://www.w3.org/2000/svg"
   xmlns:sodipodi="http://sodipodi.sourceforge.net/DTD/sodipodi-0.dtd"
   xmlns:inkscape="http://www.inkscape.org/namespaces/inkscape"
   id="svg6761"
   sodipodi:version="0.32"
   inkscape:version="0.46"
   width="230.31497"
   height="318.84155"
   version="1.0"
   sodipodi:docname="9s.svg"
   inkscape:output_extension="org.inkscape.output.svg.inkscape">
  <metadata
     id="metadata6766">
    <rdf:RDF>
      <cc:Work
         rdf:about="">
        <dc:format>image/svg+xml</dc:format>
        <dc:type
           rdf:resource="http://purl.org/dc/dcmitype/StillImage" />
      </cc:Work>
    </rdf:RDF>
  </metadata>
  <defs
     id="defs6764">
    <inkscape:perspective
       sodipodi:type="inkscape:persp3d"
       inkscape:vp_x="0 : 526.18109 : 1"
       inkscape:vp_y="0 : 1000 : 0"
       inkscape:vp_z="744.09448 : 526.18109 : 1"
       inkscape:persp3d-origin="372.04724 : 350.78739 : 1"
       id="perspective6768" />
  </defs>
  <sodipodi:namedview
     inkscape:window-height="667"
     inkscape:window-width="753"
     inkscape:pageshadow="2"
     inkscape:pageopacity="0.0"
     guidetolerance="10.0"
     gridtolerance="10.0"
     objecttolerance="10.0"
     borderopacity="1.0"
     bordercolor="#666666"
     pagecolor="#ffffff"
     id="base"
     showgrid="false"
     inkscape:zoom="1.4489956"
     inkscape:cx="115.15749"
     inkscape:cy="159.42078"
     inkscape:window-x="154"
     inkscape:window-y="203"
     inkscape:current-layer="svg6761" />
  <path
     style="fill:#000000"
     d="M 24.773652,18.7126 C 27.487492,18.9811 30.060092,20.6113 31.375062,22.8959 C 32.623682,25.0651 33.042372,27.6294 33.042092,33.1055 C 33.041782,39.4224 32.479282,42.6884 30.803902,46.101 C 30.069172,47.5976 29.292142,48.4896 27.943742,49.3847 C 26.384902,50.4194 25.517402,50.6878 23.511202,50.7561 C 22.433362,50.7929 21.399462,50.7455 20.900502,50.6365 C 20.004882,50.4408 18.593662,49.7845 17.851822,49.2187 C 17.072402,48.6242 15.956622,47.1583 15.581262,46.2357 C 15.050292,44.9306 15.086722,44.7798 16.027092,44.39 C 16.467722,44.2074 17.055122,44.0224 17.332442,43.9789 C 17.817582,43.9029 17.852642,43.9309 18.259612,44.7204 C 19.397292,46.9274 21.641492,47.9657 24.145742,47.4435 C 24.732172,47.3213 25.514832,47.0438 25.884982,46.8268 C 26.495312,46.4692 27.576232,45.2605 28.260472,44.1707 C 28.683982,43.4961 29.193962,42.0037 29.441712,40.7138 C 30.018442,37.7113 29.936822,37.4271 28.793122,38.4553 C 27.342172,39.7599 24.418932,40.787 22.819132,40.5544 C 18.489282,39.925 16.208382,37.5641 15.221642,32.6905 C 14.661282,29.9228 14.919472,25.7026 15.779512,23.5719 C 16.442612,21.9292 18.650442,19.8259 20.416122,19.155 C 21.027322,18.9228 23.244402,18.5172 23.553692,18.581 C 23.609292,18.5925 24.158272,18.6517 24.773652,18.7126 z M 21.895992,22.2132 C 19.595152,22.8125 18.402352,24.362 17.960352,27.3257 C 17.674682,29.2412 17.829292,31.1142 18.414692,32.83 C 19.403072,35.727 20.999502,36.9098 23.921052,36.9095 C 25.123452,36.9094 25.408732,36.856 26.196812,36.4831 C 27.502132,35.8656 28.843922,34.5641 29.426632,33.3504 C 29.874302,32.4179 29.901282,32.2667 29.884922,30.7827 C 29.859662,28.4915 29.268672,25.7847 28.556312,24.6975 C 27.092662,22.4637 24.560492,21.5192 21.895992,22.2132 z M 169.50996,34.1871 C 169.9575,34.905 170.61401,35.983 170.96887,36.5825 C 171.32373,37.1821 171.80443,37.9205 172.03708,38.2235 C 172.55655,38.9001 173.26663,39.9106 174.74932,42.0833 C 175.37531,43.0006 176.57413,44.6453 177.41336,45.7382 C 178.2526,46.8312 179.32594,48.2289 179.79858,48.8443 C 180.27124,49.4596 181.26293,50.7352 182.00237,51.6787 C 185.77812,56.4969 189.66996,62.9493 190.64053,66.0003 C 191.38579,68.3429 191.45745,68.8254 191.47166,71.5946 C 191.48474,74.1468 191.46411,74.3502 191.05563,75.6972 C 190.52403,77.4501 189.96155,78.5866 188.94587,79.96 C 187.54242,81.8578 186.73013,82.5614 184.92138,83.4462 L 183.28037,84.249 L 181.55157,84.3169 C 178.79619,84.4252 177.41461,83.977 175.80513,82.4528 C 174.60578,81.317 173.74901,80.1966 173.11095,78.9296 C 172.55334,77.8223 171.65738,75.0282 171.49001,73.8745 C 171.3713,73.0562 171.15339,72.8225 170.57155,72.8892 L 170.15229,72.9373 L 170.1948,74.5737 C 170.2922,78.3213 171.17191,82.0046 173.171,87.0351 C 173.709,88.3889 174.20303,89.5664 174.26882,89.6517 C 174.33463,89.737 174.6211,90.3504 174.90546,91.0147 C 175.28526,91.902 175.37838,92.2667 175.25635,92.3887 C 175.05624,92.5888 162.3604,92.623 162.04692,92.4243 C 161.89072,92.3253 161.97555,92.0452 162.44367,91.1141 C 163.41825,89.1758 164.52823,86.3063 164.85835,84.8719 C 165.02829,84.1335 165.23339,83.36 165.31411,83.1532 C 165.74942,82.0379 166.47939,76.781 166.49065,74.6804 C 166.49856,73.2055 166.35743,72.8627 165.74244,72.8627 C 165.17013,72.8627 165.07255,73.1241 164.96268,74.9513 C 164.80061,77.6467 163.83673,79.7476 161.89403,81.6396 C 159.86722,83.6135 157.9197,84.2867 154.94345,84.0421 C 152.55988,83.8463 151.30094,83.2798 149.50925,81.597 C 147.82294,80.0131 146.70982,78.2118 146.21897,76.2723 C 144.66411,70.1289 146.0236,64.4709 150.80199,57.1985 C 151.78258,55.7061 154.29727,52.2395 156.48346,49.3664 C 159.09768,45.9308 160.46878,44.0718 161.48995,42.5786 C 162.13523,41.635 163.01001,40.4266 163.43391,39.8933 C 163.85781,39.36 164.86544,37.9502 165.67312,36.7605 C 168.09344,33.1952 168.32299,32.8817 168.5135,32.8817 C 168.61402,32.8817 169.06243,33.4691 169.50996,34.1871 z M 64.071602,34.1894 C 64.475432,34.824 65.113182,35.8351 65.488842,36.4363 C 65.864512,37.0375 66.473972,37.9232 66.843202,38.4045 C 67.212422,38.8859 68.046652,40.0388 68.697032,40.9665 C 70.623172,43.7139 72.060852,45.5968 75.122842,49.3823 C 80.208832,55.6701 82.271322,58.6507 84.557492,63.0166 C 85.959122,65.6933 86.482932,67.4623 86.713372,70.2971 C 86.906282,72.67 86.807362,73.6732 86.180902,75.6972 C 85.616992,77.5191 84.993342,78.5911 83.335312,80.5886 C 82.331582,81.7979 81.288482,82.5372 79.402672,83.3758 C 78.358472,83.8402 77.944932,83.9402 76.782922,84.0095 C 74.051692,84.1725 72.204172,83.5473 70.406892,81.8518 C 68.389102,79.9483 67.558952,78.4653 66.544102,74.9513 C 66.461172,74.6641 66.308732,74.0263 66.205382,73.534 C 66.019082,72.6466 66.012652,72.6385 65.459442,72.5926 C 65.039502,72.5576 64.876882,72.6102 64.802202,72.8047 C 64.532702,73.5071 65.265682,78.7312 65.972012,81.1423 C 66.673142,83.5357 68.821092,88.9108 69.511482,89.9996 C 69.711432,90.315 70.257012,91.7376 70.269522,91.9763 C 70.272212,92.0274 70.005562,92.1121 69.676982,92.1647 C 68.959322,92.2794 56.592222,92.3004 56.409012,92.1872 C 56.338502,92.1436 56.672242,91.3526 57.150642,90.4293 C 58.341072,88.1319 59.115452,86.0537 59.832842,83.2309 C 60.651172,80.011 60.937452,78.1245 61.094512,74.9169 C 61.173852,73.297 61.157842,73.1447 60.878872,72.8657 C 60.231432,72.2182 59.682422,72.6607 59.682422,73.8299 C 59.682422,74.795 59.358012,76.5199 58.965792,77.6404 C 58.024462,80.3295 55.052012,83.0217 52.402422,83.585 C 51.245942,83.8308 48.897032,83.7929 47.757332,83.5099 C 45.497332,82.9489 43.382352,81.3185 41.824272,78.9362 C 40.946662,77.5944 40.667972,76.9341 40.266672,75.2457 C 39.981482,74.0459 39.931512,73.4268 39.935952,71.1471 C 39.940632,68.7297 39.980242,68.3156 40.332942,66.996 C 40.942242,64.7165 42.143302,61.9895 43.757412,59.2209 C 44.431212,58.0652 46.941582,54.5053 48.663782,52.2634 C 49.996242,50.5288 50.390772,50.0085 50.794442,49.4537 C 50.964932,49.2194 51.507202,48.5382 51.999512,47.9399 C 52.837352,46.9217 54.101122,45.2899 54.610212,44.5688 C 55.678612,43.0555 57.608692,40.4372 58.056732,39.8933 C 58.526782,39.3227 59.512462,37.9278 62.402762,33.7429 C 62.670662,33.355 62.990552,33.0372 63.113632,33.0366 C 63.236702,33.0361 63.667802,33.5548 64.071602,34.1894 z M 25.222602,57.6006 C 26.405042,59.5429 26.737312,60.0371 28.599132,62.6225 C 29.791922,64.2789 31.840382,67.9717 32.334782,69.3569 C 32.686602,70.3426 32.752822,72.2119 32.470052,73.1753 C 31.478302,76.5541 27.945452,77.758 26.385552,75.2486 C 25.992192,74.6158 25.849452,74.4965 25.530002,74.5337 C 25.193042,74.5729 25.141002,74.6562 25.100272,75.2217 C 25.013592,76.4255 25.915972,78.5803 27.172462,80.1699 C 27.494132,80.5768 27.757302,80.9686 27.757302,81.0404 C 27.757302,81.1808 24.953822,81.3661 22.829112,81.3661 C 21.116462,81.3661 21.023742,81.247 21.863192,80.1248 C 22.219162,79.649 22.621392,79.0119 22.757022,78.7092 C 22.892662,78.4064 23.065562,78.0244 23.141262,77.8603 C 23.365812,77.3735 23.724792,75.6651 23.727162,75.0719 C 23.731222,74.0611 23.082142,74.1425 22.408522,75.2372 C 21.632922,76.4977 20.624292,76.9779 19.230372,76.7503 C 16.161922,76.2491 15.094562,73.7004 16.196522,69.5061 C 16.415772,68.6716 18.617352,64.0927 18.958042,63.7627 C 19.319362,63.4126 21.592352,59.5919 22.486852,57.831 C 23.101202,56.6216 23.686672,55.6128 23.787912,55.5892 C 23.889132,55.5656 24.534752,56.4708 25.222602,57.6006 z M 169.14832,97.3716 C 169.5364,97.9695 170.18958,99.0123 170.59983,99.6888 C 171.01009,100.3654 171.74856,101.4383 172.24089,102.0732 C 173.07983,103.155 173.42237,103.6353 174.92613,105.8388 C 175.68631,106.9527 177.53767,109.3929 178.42974,110.4568 C 178.80812,110.908 179.81741,112.1836 180.67255,113.2912 C 181.52771,114.3989 182.51177,115.6409 182.85935,116.0511 C 185.36645,119.0103 189.43828,125.8288 190.56543,128.9554 C 191.28139,130.9414 191.47831,132.2393 191.48213,134.9973 C 191.48559,137.5076 191.36999,138.1345 190.48311,140.4151 C 189.82599,142.1049 187.72526,144.8506 186.44475,145.6935 C 185.6152,146.2395 183.8693,147.0985 183.13119,147.3237 C 182.26378,147.5885 179.4804,147.4918 178.40469,147.1595 C 176.54055,146.5837 174.30692,144.4603 173.09316,142.1101 C 172.56195,141.0815 172.01163,139.3521 171.37564,136.7129 C 171.18357,135.9158 171.1633,135.8924 170.6651,135.8924 L 170.15229,135.8924 L 170.17263,137.5334 C 170.19976,139.7202 170.84569,143.4688 171.57362,145.6639 C 172.59278,148.7372 172.95888,149.677 174.61982,153.4841 C 175.08231,154.5441 175.42646,155.5008 175.38459,155.6099 C 175.32281,155.7709 174.05673,155.8083 168.67394,155.8083 C 165.02164,155.8083 162.00301,155.7494 161.9584,155.6772 C 161.91383,155.6051 162.13515,155.0177 162.45021,154.3719 C 162.76527,153.726 163.27155,152.5599 163.57528,151.7804 C 163.879,151.0009 164.22046,150.1282 164.33407,149.841 C 164.68799,148.9464 165.0153,147.5685 165.76919,143.7991 C 166.15801,141.8551 166.22048,141.1991 166.24514,138.8015 L 166.27353,136.0416 L 165.83334,135.9915 C 165.21738,135.9214 165.00548,136.2818 165.00548,137.3997 C 165.00548,138.4426 164.69967,140.1812 164.33986,141.1837 C 163.93837,142.3024 162.8451,143.8993 161.77244,144.9339 C 160.60794,146.057 159.06669,146.8772 157.58144,147.1641 C 156.28835,147.4138 153.98933,147.2693 152.79274,146.863 C 150.03479,145.9266 147.30316,143.0024 146.30732,139.9204 C 145.97309,138.8859 145.63558,136.7454 145.55459,135.1465 C 145.42553,132.5984 146.14326,129.1684 147.34244,126.6025 C 147.6213,126.0059 147.84945,125.4902 147.84945,125.4566 C 147.84945,125.423 148.32148,124.5349 148.8984,123.4832 C 149.9837,121.5046 151.74164,118.8397 153.48397,116.5319 C 154.03623,115.8003 154.78458,114.7887 155.14697,114.2838 C 155.50935,113.7789 156.42884,112.5822 157.19028,111.6245 C 158.57345,109.8849 160.22456,107.6799 161.3505,106.0688 C 162.38863,104.5833 163.03337,103.6986 163.83524,102.6592 C 164.26367,102.1039 164.75258,101.419 164.92173,101.1372 C 165.27428,100.5499 167.19609,97.6774 167.79417,96.8438 C 168.01493,96.5361 168.25116,96.2844 168.31913,96.2844 C 168.38709,96.2844 168.76023,96.7736 169.14832,97.3716 z M 63.039032,96.5509 C 63.191742,96.6599 63.407952,96.9808 65.422512,100.0886 C 66.060782,101.0732 66.792582,102.1173 67.048762,102.4088 C 67.498912,102.9211 68.193152,103.8637 69.735022,106.0559 C 70.138992,106.6302 70.813102,107.5029 71.233052,107.9952 C 71.653012,108.4875 72.375152,109.3603 72.837822,109.9346 C 73.300502,110.509 74.596242,112.0866 75.717262,113.4404 C 80.096392,118.729 81.900202,121.2264 83.906222,124.7783 C 86.265932,128.9564 86.849772,130.8992 86.887532,134.699 C 86.905182,136.475 86.854682,136.9884 86.550052,138.1302 C 85.950132,140.3787 85.088342,141.9834 83.452722,143.8977 C 82.451162,145.0699 81.779212,145.5685 80.161982,146.3396 C 77.085272,147.8066 73.713782,147.5815 71.333962,145.7502 C 69.409132,144.2691 67.779772,141.8679 67.074332,139.4728 C 66.929332,138.9805 66.717322,138.2901 66.603182,137.9385 C 66.489042,137.5869 66.395652,137.1773 66.395652,137.0283 C 66.395652,136.8794 66.321952,136.546 66.231872,136.2876 C 66.091062,135.8837 65.996272,135.8178 65.555872,135.8178 C 65.251272,135.8178 65.010722,135.9036 64.962432,136.0294 C 64.710662,136.6856 65.636582,142.7482 66.297172,144.7688 C 66.757132,146.1757 68.325612,150.3129 68.474672,150.5123 C 68.535992,150.5944 68.696572,150.9459 68.831522,151.2935 C 68.966472,151.6411 69.377902,152.5484 69.745792,153.3097 C 70.113692,154.0711 70.433472,154.8608 70.456432,155.0647 L 70.498172,155.4354 L 63.719352,155.4742 C 59.923192,155.4959 56.882412,155.4549 56.808422,155.3809 C 56.731712,155.3042 56.904432,154.7958 57.220262,154.1686 C 59.582602,149.4776 61.174252,142.9605 61.174252,137.9786 C 61.174252,136.2679 61.151072,136.1143 60.870252,135.964 C 60.460282,135.7446 59.996152,135.9141 59.915852,136.3126 C 59.879752,136.4918 59.811872,137.1803 59.765022,137.8427 C 59.648422,139.4913 59.346752,140.5905 58.602342,142.0792 C 57.422882,144.4378 54.896832,146.4868 52.551602,146.9871 C 51.550012,147.2008 49.410742,147.2042 48.260052,146.994 C 45.839682,146.552 43.228082,144.5042 41.504382,141.6968 C 40.901172,140.7144 40.635642,139.949 40.286532,138.1867 C 39.150442,132.4517 40.454392,127.5201 44.857322,120.8996 C 46.482532,118.4558 49.626592,114.2256 51.620932,111.7994 C 53.457382,109.5653 59.231232,101.7454 61.093812,98.9697 C 62.734452,96.5247 62.832182,96.4032 63.039032,96.5509 z M 116.09634,126.2328 C 116.21637,126.3764 116.63963,126.9974 117.03691,127.6128 C 118.72418,130.2263 119.15587,130.8594 119.7326,131.5661 C 120.0674,131.9764 120.76816,132.9162 121.28984,133.6547 C 122.76682,135.7454 123.27109,136.4041 126.14336,139.9947 C 127.62027,141.841 129.01666,143.6033 129.24646,143.911 C 129.47626,144.2186 129.98955,144.8421 130.38711,145.2964 C 132.19565,147.3631 135.34168,152.2782 137.09834,155.7815 C 138.86983,159.3143 139.45837,161.9014 139.30918,165.5 C 139.16958,168.8675 138.20972,171.0979 135.67695,173.9399 C 134.70739,175.0278 134.36577,175.2665 132.48363,176.1712 C 131.0555,176.8577 130.48556,176.9842 128.7987,176.9886 C 125.98307,176.9961 124.82199,176.5006 122.70262,174.387 C 120.62229,172.3124 119.96973,170.9728 118.88455,166.5495 C 118.69617,165.7816 118.65212,165.726 118.19787,165.6822 C 117.84677,165.6483 117.68515,165.7066 117.61369,165.8928 C 117.50594,166.1736 117.79924,169.6903 118.01062,170.652 C 118.08276,170.9802 118.22302,171.6851 118.32232,172.2184 C 118.61337,173.7817 120.35627,178.8675 121.05751,180.1997 C 121.18707,180.4459 121.29349,180.7013 121.294,180.7674 C 121.2945,180.8335 121.70134,181.7322 122.19807,182.7647 C 122.69481,183.7971 123.06615,184.7332 123.02326,184.845 C 122.95905,185.0123 121.74845,185.0481 116.1616,185.0481 C 112.43056,185.0481 109.34449,184.9941 109.30365,184.928 C 109.26281,184.8619 109.59563,184.0566 110.04324,183.1385 C 111.97071,179.1848 113.07183,175.2876 113.61339,170.5028 C 113.87081,168.2286 113.89881,166.3493 113.68134,165.9429 C 113.59641,165.7842 113.39981,165.6544 113.24445,165.6544 C 112.70715,165.6544 112.54239,166.0277 112.44061,167.4756 C 112.24064,170.3204 111.36823,172.2937 109.45089,174.2379 C 107.56086,176.1544 105.48666,176.9275 102.57248,176.8016 C 99.863852,176.6846 98.350802,176.009 96.265792,173.9855 C 93.659332,171.456 92.734142,168.9059 92.729132,164.2372 C 92.727022,162.2756 92.789692,161.4307 93.005732,160.5076 C 93.467212,158.5358 94.260032,156.4528 95.418972,154.1673 C 96.412172,152.2086 96.927852,151.3438 98.641022,148.7634 C 99.192322,147.9331 102.01479,144.16 102.1872,144.0229 C 102.23878,143.9819 102.38785,143.7805 102.51843,143.5753 C 102.64902,143.3702 103.85126,141.7926 105.19005,140.0695 C 106.52885,138.3465 108.22715,136.0976 108.96404,135.0719 C 109.70093,134.0463 110.61737,132.8379 111.00056,132.3866 C 111.38375,131.9354 112.02351,131.0962 112.42225,130.5218 C 112.82098,129.9475 113.52033,128.9387 113.97634,128.2802 C 114.93041,126.9023 115.66122,125.9718 115.78933,125.9718 C 115.83815,125.9718 115.9763,126.0893 116.09634,126.2328 z M 69.565782,161.1506 C 69.873472,161.1761 70.125222,161.2612 70.125222,161.3398 C 70.125222,161.4184 69.797612,162.136 69.397212,162.9345 C 68.635882,164.4527 67.141562,168.2833 67.141562,168.7166 C 67.141562,168.8548 66.977312,169.5146 66.776542,170.1829 C 65.856342,173.246 65.144412,179.813 65.687032,180.2329 C 66.417222,180.7979 66.843182,180.4382 66.843232,179.2567 C 66.843362,174.756 69.972012,170.5678 74.052742,169.6055 C 76.055132,169.1334 79.016452,169.4857 80.558842,170.3797 C 82.483302,171.4952 84.488872,173.6699 85.355242,175.5807 C 86.336392,177.7445 86.776372,181.4281 86.400262,184.3295 C 85.825862,188.7605 83.180672,194.0109 78.342492,200.3233 C 77.720382,201.1349 76.919852,202.2037 76.563512,202.6982 C 76.207182,203.1928 75.535852,204.0657 75.071692,204.6379 C 73.716942,206.3081 72.680442,207.6211 72.399932,208.0223 C 71.629832,209.1238 68.838552,212.9124 67.877052,214.1612 C 67.267412,214.953 66.265112,216.3245 65.649732,217.2091 C 63.933212,219.6764 63.253772,220.5541 63.063682,220.5494 C 62.968082,220.5471 62.526582,219.9261 62.082582,219.1695 C 60.827382,217.0304 59.946372,215.6448 59.147892,214.5538 C 58.116032,213.144 57.084052,211.6718 56.433952,210.6822 C 55.737432,209.622 51.970792,204.6982 48.864252,200.7869 C 45.415152,196.4444 41.485612,189.6685 40.561482,186.4701 C 39.927992,184.2776 39.698242,180.9373 40.056742,179.1321 C 40.603732,176.3779 41.484632,174.6085 43.496092,172.2237 C 44.457392,171.0839 45.271412,170.5238 47.292182,169.6114 C 48.392492,169.1146 48.702332,169.0432 50.042082,168.9781 C 52.798782,168.8442 54.590892,169.5328 56.522162,171.468 C 58.584512,173.5345 59.591412,175.6283 60.420922,179.5753 C 60.615102,180.4993 60.791692,180.6636 61.420732,180.5057 L 61.815722,180.4066 L 61.722112,178.7367 C 61.635342,177.1888 61.257142,174.5532 60.893822,172.9643 C 60.387472,170.7501 58.658222,166.0724 57.010352,162.4594 C 56.751502,161.8918 56.592462,161.3747 56.656912,161.3103 C 56.768902,161.1983 68.403202,161.0544 69.565782,161.1506 z M 175.22853,161.4838 C 175.28147,161.5694 175.25886,161.7205 175.1783,161.8195 C 174.95766,162.0905 173.54927,165.2672 173.04813,166.6241 C 172.51895,168.0569 171.52739,171.9227 171.21142,173.7848 C 170.89716,175.6369 170.6239,178.9502 170.71083,179.8548 C 170.77899,180.5641 170.97437,180.8636 171.37238,180.8687 C 171.79709,180.8743 171.97273,180.4143 172.06459,179.0562 C 172.2142,176.844 172.89556,174.8398 173.98345,173.4119 C 175.28543,171.703 177.41895,170.2119 179.11291,169.8271 C 180.13369,169.5952 182.52703,169.6395 183.58908,169.9099 C 185.76586,170.4642 187.8782,172.0927 189.41366,174.4004 C 190.37027,175.8381 190.8256,177.0559 191.17626,179.1144 C 191.90687,183.4033 191.21118,187.2519 188.85001,191.9837 C 187.2998,195.0903 185.68126,197.6265 182.84438,201.3944 C 182.34571,202.0567 181.5207,203.1644 181.011,203.8559 C 180.24747,204.8918 177.69985,208.2777 176.5291,209.8125 C 176.37264,210.0176 175.81124,210.8232 175.28155,211.6027 C 174.75186,212.3822 173.91814,213.5299 173.42883,214.1532 C 172.93954,214.7765 172.00215,216.0758 171.34575,217.0406 C 169.39557,219.9067 168.69446,220.8523 168.52363,220.8467 C 168.43477,220.8438 168.11014,220.4242 167.80218,219.9143 C 166.20642,217.272 164.80026,215.0676 164.49878,214.7355 C 164.31254,214.5304 163.49443,213.3926 162.68074,212.2071 C 161.86706,211.0216 160.82151,209.5447 160.3573,208.9251 C 159.89309,208.3055 159.22176,207.4079 158.86547,206.9305 C 158.50917,206.4531 157.9827,205.7726 157.69552,205.4181 C 157.40834,205.0637 156.86783,204.3802 156.49439,203.8992 C 156.12095,203.4182 155.21001,202.2527 154.47008,201.3091 C 152.03174,198.1996 149.54296,194.3032 147.75221,190.7917 C 146.00373,187.363 145.63801,186.0231 145.51284,182.5866 C 145.43145,180.3522 145.45086,180.0985 145.81663,178.6152 C 146.42119,176.1636 147.02924,175.0064 148.90357,172.7404 C 149.48239,172.0407 150.17972,171.4016 150.77372,171.0264 C 151.29467,170.6974 151.76458,170.4282 151.81798,170.4282 C 151.87138,170.4282 152.32617,170.2153 152.82862,169.9549 C 153.68233,169.5126 153.86579,169.4773 155.62921,169.4156 C 157.2962,169.3573 157.63541,169.3889 158.53827,169.6863 C 159.92029,170.1417 160.90289,170.82 162.24121,172.2426 C 163.73085,173.8261 164.67774,175.7054 165.31078,178.3349 C 165.90223,180.7916 165.95286,180.9021 166.46126,180.8435 C 166.86712,180.7968 166.87062,180.7867 166.91685,179.5284 C 166.9618,178.3052 166.70285,176.1119 166.25635,173.934 C 165.80601,171.7375 163.8954,166.4551 162.32988,163.0783 C 161.99635,162.3588 161.72345,161.6707 161.72345,161.5492 C 161.72345,161.3571 162.60431,161.3281 168.42788,161.3281 C 172.92415,161.3281 175.16399,161.3794 175.22853,161.4838 z M 178.28275,206.0829 C 178.28275,206.165 178.34988,206.2321 178.43193,206.2321 C 178.51398,206.2321 178.58111,206.165 178.58111,206.0829 C 178.58111,206.0009 178.51398,205.9337 178.43193,205.9337 C 178.34988,205.9337 178.28275,206.0009 178.28275,206.0829 z M 67.035692,225.592 C 69.105282,225.6238 69.706822,225.6774 69.767452,225.8354 C 69.810202,225.9468 69.510112,226.7467 69.100572,227.6129 C 67.907992,230.1351 67.348942,231.6625 66.715472,234.1293 C 65.865082,237.4408 65.182902,242.851 65.441742,244.2308 C 65.510402,244.5967 65.632192,244.7486 65.913582,244.8192 C 66.464182,244.9574 66.634652,244.6226 66.745082,243.1859 C 66.970992,240.247 67.867042,238.1878 69.752262,236.275 C 71.456322,234.5461 73.092482,233.7814 75.479812,233.598 C 78.816862,233.3417 81.779262,234.8396 84.169602,237.9919 C 85.410292,239.6281 85.889932,240.9071 86.315102,243.7133 C 87.249272,249.879 85.124312,255.6114 78.621162,264.4687 C 77.845802,265.5248 76.901192,266.8172 76.522032,267.3409 C 76.142882,267.8645 75.488412,268.7123 75.067662,269.2249 C 73.658242,270.942 72.430932,272.5289 70.942982,274.5578 C 70.130652,275.6655 68.989192,277.176 68.406412,277.9144 C 67.464232,279.1083 66.764292,280.0736 64.106632,283.8445 C 63.716282,284.3983 63.316402,284.8501 63.217982,284.8485 C 63.119562,284.8469 62.677282,284.2595 62.235152,283.5432 C 60.641282,280.9608 60.344122,280.5012 59.725682,279.6619 C 59.380252,279.1931 58.379432,277.8025 57.501652,276.5718 C 56.623882,275.341 55.560252,273.8977 55.138062,273.3644 C 52.877582,270.5089 51.349552,268.5708 50.741462,267.788 C 50.366732,267.3057 49.517392,266.2315 48.854032,265.4011 C 47.711462,263.9708 45.343342,260.5153 43.865452,258.1219 C 42.477082,255.8734 40.738472,252.1725 40.366822,250.6743 C 39.660722,247.8281 39.594652,244.09 40.219152,242.3199 C 40.339432,241.979 40.437842,241.5892 40.437842,241.4536 C 40.437842,241.0458 41.453512,239.056 42.193382,238.0143 C 43.711342,235.8771 44.951652,234.8456 47.174802,233.8714 C 48.396582,233.3359 48.454252,233.3261 50.358502,233.3246 C 52.070952,233.3233 52.423872,233.3683 53.374752,233.7096 C 54.061472,233.9561 54.806402,234.3784 55.430802,234.8753 C 57.907742,236.8462 59.319612,239.3741 60.221812,243.4532 C 60.482852,244.6335 60.864642,245.116 61.337292,244.863 C 61.577302,244.7346 61.621802,244.5404 61.621802,243.6214 C 61.621802,241.6628 60.905772,237.5149 60.176462,235.2489 C 59.294072,232.5071 58.599302,230.7569 57.185702,227.7144 C 56.505202,226.2499 56.366452,225.7764 56.595052,225.6991 C 56.844642,225.6148 63.841612,225.543 67.035692,225.592 z M 173.09865,225.8865 C 174.42775,225.9223 174.85154,225.9813 174.85154,226.1307 C 174.85154,226.2391 174.51566,227.0399 174.10514,227.9102 C 171.94901,232.4811 170.67082,238.1551 170.63421,243.3177 C 170.62455,244.6783 170.66151,244.9396 170.88694,245.1044 C 171.16005,245.3042 171.56248,245.2352 171.75372,244.9559 C 171.81399,244.8679 171.86444,244.4266 171.8658,243.9753 C 171.86883,242.9782 172.20817,241.0111 172.53493,240.0966 C 173.26819,238.0445 175.29306,235.7052 177.14214,234.774 C 179.63409,233.5191 182.69478,233.5366 185.25527,234.8204 C 186.54737,235.4683 188.67664,237.4852 189.44977,238.7935 C 191.27833,241.8881 191.85401,246.4807 190.95013,250.7632 C 190.86353,251.1734 190.73735,251.6433 190.66972,251.8074 C 190.6021,251.9715 190.3639,252.6764 190.14039,253.3739 C 189.64341,254.9247 187.79676,258.6659 186.67949,260.3855 C 184.28266,264.0744 182.17361,267.0197 178.67795,271.5595 C 178.19788,272.1829 176.99432,273.8343 176.00337,275.2291 C 175.01242,276.624 173.78765,278.3023 173.28165,278.9587 C 172.77564,279.6151 171.6808,281.1592 170.84866,282.3899 C 168.9929,285.1347 168.81392,285.3654 168.62904,285.2511 C 168.54821,285.2011 168.09133,284.5369 167.61375,283.7751 C 165.94199,281.1083 165.10325,279.8495 164.64601,279.3207 C 164.39243,279.0275 163.43054,277.7184 162.50846,276.4116 C 161.58638,275.1049 160.63655,273.8007 160.39773,273.5135 C 160.15892,273.2264 159.04048,271.8166 157.91231,270.3807 C 156.78415,268.9448 155.34559,267.1322 154.71552,266.3528 C 151.08103,261.8565 146.95395,254.8411 145.99421,251.528 C 145.20698,248.8105 145.0872,245.3985 145.69501,243.0057 C 146.29692,240.6361 146.99962,239.2926 148.71191,237.2377 C 149.75001,235.9918 150.56868,235.3841 152.39953,234.5002 C 153.54157,233.9488 153.67033,233.9212 155.38807,233.8605 C 158.45801,233.752 159.78999,234.2938 161.92286,236.5184 C 162.75853,237.39 163.3389,238.1666 163.77232,238.9931 C 164.38457,240.1606 165.32301,242.8589 165.52271,244.0259 C 165.68977,245.0022 165.90683,245.3382 166.33808,245.288 C 166.70901,245.2448 166.72259,245.2058 166.76903,244.0499 C 166.81823,242.825 166.69687,241.7856 166.18547,239.0523 C 165.82327,237.1164 165.35522,235.5587 164.32527,232.8612 C 163.577,230.9016 163.15974,229.9249 162.06271,227.5652 C 161.34735,226.0266 161.34234,225.9781 161.8874,225.8691 C 162.34094,225.7784 169.50012,225.7895 173.09865,225.8865 z M 209.59461,237.0996 C 209.75847,237.2033 209.66151,237.4137 209.13148,238.1043 C 208.01545,239.5584 207.46729,240.8805 207.30698,242.5046 C 207.15292,244.0655 207.61608,244.2569 208.413,242.9617 C 209.04621,241.9326 210.09589,241.3706 211.17638,241.4821 C 212.59373,241.6283 213.94513,242.5531 214.55016,243.7906 C 215.17715,245.0731 214.9427,247.9411 214.02896,250.1664 C 213.64458,251.1026 212.51802,253.2185 211.7255,254.4927 C 211.47036,254.903 211.12078,255.4964 210.94866,255.8115 C 210.77654,256.1265 210.4136,256.6971 210.14215,257.0795 C 209.6629,257.7546 208.43832,260.0012 207.41913,262.075 C 207.1287,262.666 206.84197,263.0677 206.73582,263.0324 C 206.63521,262.9989 206.29352,262.5071 205.97651,261.9396 C 204.93831,260.0808 203.91374,258.3969 202.89135,256.869 C 200.9836,254.0182 199.07425,250.3645 198.64046,248.7347 C 198.20475,247.0976 198.42814,244.8575 199.14483,243.677 C 200.13439,242.047 201.90616,241.2324 203.245,241.7918 C 203.71606,241.9886 204.98647,243.2779 204.98647,243.5592 C 204.98647,243.6354 205.13752,243.6763 205.32213,243.6501 C 205.60916,243.6093 205.66441,243.4987 205.70356,242.8865 C 205.78806,241.5648 204.91435,239.4027 203.69389,237.9133 C 203.40617,237.5622 203.21404,237.2049 203.26693,237.1193 C 203.38604,236.9266 209.29236,236.9082 209.59461,237.0996 z M 209.46195,268.4869 C 211.60975,268.9783 213.68614,270.6654 214.61355,272.6726 C 215.16678,273.87 215.24122,274.2854 214.94442,274.5187 C 214.73192,274.6857 212.92869,275.3037 212.6539,275.3037 C 212.55417,275.3037 212.20089,274.8087 211.86882,274.2037 C 210.93222,272.4971 209.50641,271.68 207.44798,271.67 C 206.14149,271.6637 205.07472,272.0136 204.25082,272.7189 C 203.42423,273.4264 202.23861,275.1295 201.85045,276.167 C 201.34368,277.5214 200.82363,280.4845 201.03317,280.8236 C 201.08978,280.9152 201.37269,280.7691 201.72854,280.4645 C 202.4803,279.8211 204.06365,278.9868 205.12543,278.6747 C 207.59101,277.9501 210.79207,278.8414 212.56685,280.7466 C 213.46011,281.7056 214.29791,283.2236 214.81465,284.8196 C 215.22657,286.0918 215.48736,289.1582 215.35627,291.1883 C 215.15544,294.2989 214.42962,296.155 212.76201,297.8226 C 210.9284,299.6562 209.51975,300.2461 206.92584,300.2667 C 204.15791,300.2886 202.49905,299.6439 200.662,297.8322 C 199.89487,297.0756 199.49703,296.5225 199.04016,295.5771 C 198.28179,294.0079 198.03973,292.9836 197.73947,290.0728 C 197.46637,287.4254 197.54499,282.6712 197.9086,279.8449 C 198.42435,275.836 199.72922,272.3969 201.35094,270.7724 C 202.06343,270.0587 203.51235,269.1454 204.53892,268.7629 C 205.7108,268.3262 208.15957,268.189 209.46195,268.4869 z M 204.38974,282.4238 C 204.02051,282.6065 203.31562,283.0831 202.82332,283.4829 C 202.1148,284.0583 201.8116,284.4463 201.36879,285.3442 C 200.83192,286.4328 200.80935,286.5406 200.80956,288.0146 C 200.80989,290.5894 201.43486,293.1906 202.38129,294.5563 C 203.46197,296.1157 204.807,296.7861 206.85525,296.7861 C 208.8893,296.7861 210.29912,296.091 211.27475,294.6073 C 212.08778,293.3709 212.37294,292.0641 212.36186,289.6253 C 212.35089,287.2123 212.1112,286.1601 211.20632,284.5531 C 210.16874,282.7103 208.79703,281.9977 206.4037,282.0579 C 205.36441,282.0841 204.90939,282.1668 204.38974,282.4238 z"
     id="path6772" />
  <g
     id="g3796"
     transform="translate(1.593878e-6,0)">
    <rect
       ry="11.25"
       rx="11.25"
       y="3.4247196"
       x="3.6058116"
       height="311.81104"
       width="223.22835"
       id="rect2382"
       style="fill:none;fill-opacity:1;fill-rule:nonzero;stroke:#000000;stroke-width:0.03543307;stroke-linejoin:round;stroke-miterlimit:4;stroke-dasharray:none;stroke-opacity:1" />
    <g
       transform="translate(3.5433116,3.3622195)"
       id="g3164">
      <path
         style="fill:none;fill-rule:evenodd;stroke:#000000;stroke-width:0.03221492;stroke-linecap:butt;stroke-linejoin:miter;stroke-miterlimit:4;stroke-dasharray:none;stroke-opacity:1"
         d="M 219.74754,0.062511534 L 226.70838,0.062511534"
         id="path3160"
         sodipodi:nodetypes="cc" />
      <path
         sodipodi:nodetypes="cc"
         id="path3162"
         d="M 223.29036,-3.2997195 L 223.29036,3.6063107"
         style="fill:none;fill-rule:evenodd;stroke:#000000;stroke-width:0.03196126;stroke-linecap:butt;stroke-linejoin:miter;stroke-miterlimit:4;stroke-dasharray:none;stroke-opacity:1" />
    </g>
    <g
       transform="matrix(1.0001093,0,0,1,3.519309,315.17275)"
       id="g3168">
      <path
         sodipodi:nodetypes="cc"
         id="path3170"
         d="M 219.74754,0.062511534 L 226.70838,0.062511534"
         style="fill:none;fill-rule:evenodd;stroke:#000000;stroke-width:0.03221492;stroke-linecap:butt;stroke-linejoin:miter;stroke-miterlimit:4;stroke-dasharray:none;stroke-opacity:1" />
      <path
         style="fill:none;fill-rule:evenodd;stroke:#000000;stroke-width:0.03196126;stroke-linecap:butt;stroke-linejoin:miter;stroke-miterlimit:4;stroke-dasharray:none;stroke-opacity:1"
         d="M 223.29036,-3.2997195 L 223.29036,3.6063107"
         id="path3172"
         sodipodi:nodetypes="cc" />
    </g>
    <g
       id="g3174"
       transform="matrix(1.0001093,0,0,1,-219.70906,315.17275)">
      <path
         style="fill:none;fill-rule:evenodd;stroke:#000000;stroke-width:0.03221492;stroke-linecap:butt;stroke-linejoin:miter;stroke-miterlimit:4;stroke-dasharray:none;stroke-opacity:1"
         d="M 219.74754,0.062511534 L 226.70838,0.062511534"
         id="path3176"
         sodipodi:nodetypes="cc" />
      <path
         sodipodi:nodetypes="cc"
         id="path3178"
         d="M 223.29036,-3.2997195 L 223.29036,3.6063107"
         style="fill:none;fill-rule:evenodd;stroke:#000000;stroke-width:0.03196126;stroke-linecap:butt;stroke-linejoin:miter;stroke-miterlimit:4;stroke-dasharray:none;stroke-opacity:1" />
    </g>
    <g
       transform="translate(-219.68504,3.3622195)"
       id="g3180">
      <path
         sodipodi:nodetypes="cc"
         id="path3182"
         d="M 219.74754,0.062511534 L 226.70838,0.062511534"
         style="fill:none;fill-rule:evenodd;stroke:#000000;stroke-width:0.03221492;stroke-linecap:butt;stroke-linejoin:miter;stroke-miterlimit:4;stroke-dasharray:none;stroke-opacity:1" />
      <path
         style="fill:none;fill-rule:evenodd;stroke:#000000;stroke-width:0.03196126;stroke-linecap:butt;stroke-linejoin:miter;stroke-miterlimit:4;stroke-dasharray:none;stroke-opacity:1"
         d="M 223.29036,-3.2997195 L 223.29036,3.6063107"
         id="path3184"
         sodipodi:nodetypes="cc" />
    </g>
  </g>
</svg>
