<?xml version="1.0" encoding="UTF-8" standalone="no"?>
<!-- Created with Inkscape (http://www.inkscape.org/) -->
<svg
   xmlns:dc="http://purl.org/dc/elements/1.1/"
   xmlns:cc="http://creativecommons.org/ns#"
   xmlns:rdf="http://www.w3.org/1999/02/22-rdf-syntax-ns#"
   xmlns:svg="http://www.w3.org/2000/svg"
   xmlns="http://www.w3.org/2000/svg"
   xmlns:sodipodi="http://sodipodi.sourceforge.net/DTD/sodipodi-0.dtd"
   xmlns:inkscape="http://www.inkscape.org/namespaces/inkscape"
   id="svg7040"
   sodipodi:version="0.32"
   inkscape:version="0.46"
   width="230.31497"
   height="318.84155"
   version="1.0"
   sodipodi:docname="ac.svg"
   inkscape:output_extension="org.inkscape.output.svg.inkscape">
  <metadata
     id="metadata7045">
    <rdf:RDF>
      <cc:Work
         rdf:about="">
        <dc:format>image/svg+xml</dc:format>
        <dc:type
           rdf:resource="http://purl.org/dc/dcmitype/StillImage" />
      </cc:Work>
    </rdf:RDF>
  </metadata>
  <defs
     id="defs7043">
    <inkscape:perspective
       sodipodi:type="inkscape:persp3d"
       inkscape:vp_x="0 : 526.18109 : 1"
       inkscape:vp_y="0 : 1000 : 0"
       inkscape:vp_z="744.09448 : 526.18109 : 1"
       inkscape:persp3d-origin="372.04724 : 350.78739 : 1"
       id="perspective7047" />
  </defs>
  <sodipodi:namedview
     inkscape:window-height="667"
     inkscape:window-width="796"
     inkscape:pageshadow="2"
     inkscape:pageopacity="0.0"
     guidetolerance="10.0"
     gridtolerance="10.0"
     objecttolerance="10.0"
     borderopacity="1.0"
     bordercolor="#666666"
     pagecolor="#ffffff"
     id="base"
     showgrid="false"
     inkscape:zoom="1.4489956"
     inkscape:cx="115.15749"
     inkscape:cy="159.42078"
     inkscape:window-x="154"
     inkscape:window-y="203"
     inkscape:current-layer="svg7040" />
  <path
     style="fill:#000000"
     d="M 25.105082,18.8227 C 25.449672,19.111 25.615902,19.799 27.384242,28.2555 C 27.453402,28.5862 28.026362,31.0891 28.657482,33.8175 C 29.288622,36.5459 30.239092,40.7656 30.769642,43.1946 C 31.300212,45.6236 31.811252,47.7037 31.905312,47.8171 C 32.003222,47.935 32.361922,48.0231 32.744272,48.0231 C 33.850632,48.0231 33.993742,48.1753 33.993742,49.3513 C 33.993742,49.9418 33.918092,50.4438 33.813352,50.5486 C 33.683142,50.6788 32.636652,50.729 30.051512,50.729 L 26.470082,50.729 L 26.310292,50.3156 C 26.145992,49.8905 26.195622,48.4053 26.380302,48.2206 C 26.437252,48.1636 26.884062,48.0881 27.373222,48.0527 C 27.940072,48.0117 28.291312,47.9135 28.341792,47.782 C 28.447032,47.5078 27.707122,44.1251 27.455042,43.7281 C 27.262592,43.425 27.167392,43.4183 23.898522,43.4804 C 21.658812,43.5229 20.479172,43.6017 20.357982,43.7167 C 20.137382,43.9261 19.491762,47.4714 19.615512,47.7938 C 19.678452,47.9579 19.921652,48.0231 20.469732,48.0231 C 21.681182,48.0231 21.817472,48.1575 21.817472,49.3513 C 21.817472,49.9418 21.741832,50.4438 21.637092,50.5486 C 21.506982,50.6787 20.467892,50.729 17.909042,50.729 C 15.350202,50.729 14.311112,50.6787 14.181002,50.5486 C 14.073542,50.4411 14.000612,49.9231 14.000612,49.2671 C 14.000612,48.2235 14.020742,48.1584 14.386212,48.0194 C 14.598292,47.9388 15.070252,47.8728 15.435012,47.8728 C 16.304952,47.8728 16.465622,47.613 16.782732,45.6931 C 17.137012,43.5481 18.836122,34.4961 19.731332,29.9842 C 21.470212,21.2205 21.814502,19.5838 22.001112,19.1943 C 22.156522,18.8699 22.336902,18.764 22.871672,18.6835 C 24.076132,18.5021 24.773862,18.5455 25.105082,18.8227 z M 23.110202,28.1052 C 22.723062,30.0554 22.058642,33.6114 21.523262,36.5985 C 21.367662,37.4666 21.194952,38.5955 21.139442,39.107 L 21.038512,40.0372 L 21.540742,40.1282 C 21.816962,40.1783 23.091472,40.1656 24.372992,40.1 L 26.703012,39.9808 L 26.682282,39.154 C 26.661212,38.3135 24.242502,27.1979 23.839262,26.0883 C 23.682652,25.6573 23.490722,26.1883 23.110202,28.1052 z M 25.049442,56.7911 C 26.819772,57.2425 28.242752,58.5124 28.926432,60.251 C 29.747442,62.3388 28.914492,64.8908 26.799612,66.7671 C 26.502312,67.0308 26.301652,67.2892 26.353662,67.3412 C 26.449912,67.4375 26.596852,67.3807 27.529792,66.8865 C 29.517852,65.8335 29.508062,65.8366 30.836932,65.8439 C 32.363482,65.8523 33.261222,66.2364 34.242212,67.3006 C 35.124342,68.2576 35.422422,69.2384 35.419142,71.1731 C 35.416732,72.5882 35.371952,72.8484 34.986272,73.6886 C 34.436382,74.8866 33.441462,75.8302 32.257402,76.2767 C 31.524212,76.5531 31.146382,76.6024 30.160472,76.5501 C 28.698312,76.4726 28.059572,76.1723 26.982092,75.0559 C 26.138922,74.1822 25.902702,73.7784 25.502312,72.526 C 25.186602,71.5385 25.016432,71.3131 24.822472,71.6253 C 24.414732,72.2816 25.774192,77.3153 26.901442,79.3231 C 27.204402,79.8627 27.257632,80.0738 27.124312,80.2072 C 26.896702,80.4348 20.500922,80.4393 20.273632,80.2121 C 20.168632,80.107 20.383822,79.5182 20.950862,78.359 C 21.905472,76.4075 22.329602,75.2319 22.729972,73.4279 C 23.071132,71.8907 23.083382,71.624 22.812822,71.624 C 22.606442,71.624 22.532092,71.7735 22.027462,73.2024 C 21.881482,73.6158 21.569652,74.2396 21.334512,74.5887 C 19.999202,76.5707 16.964802,77.1243 14.643512,75.8094 C 13.739972,75.2976 13.383732,74.8511 12.832932,73.5397 C 12.504122,72.7569 12.437442,72.3642 12.431022,71.1731 C 12.424592,69.9797 12.482282,69.6143 12.781952,68.9501 C 13.225922,67.9661 14.210002,67.066 15.477252,66.4849 C 16.389872,66.0665 16.471792,66.0552 17.532962,66.2028 C 18.714982,66.3672 19.943352,66.845 21.111722,67.5947 C 22.359362,68.3953 22.218302,67.8915 20.786662,66.4337 C 19.088852,64.705 18.749552,63.9443 18.743392,61.853 C 18.738202,60.0844 19.086972,59.1919 20.184642,58.1652 C 21.548352,56.8896 23.392652,56.3687 25.049442,56.7911 z M 117.72433,131.5308 C 119.3944,131.7574 120.61756,132.1432 122.38438,133.0009 C 123.42055,133.5039 123.92089,133.8781 125.03066,134.9799 C 126.82289,136.7593 127.93411,138.5701 128.53963,140.698 C 129.28794,143.3277 128.78435,147.7291 127.42166,150.4691 C 126.74059,151.8385 126.45434,152.23 124.22586,154.8394 C 122.99381,156.282 122.82023,156.6323 123.16607,156.9781 C 123.45062,157.2627 123.60209,157.2081 124.88784,156.3573 C 127.21697,154.8161 131.01079,153.8968 133.46662,154.2786 C 136.95459,154.8209 139.72145,156.5972 141.70052,159.5649 C 142.67818,161.0309 142.8623,161.3821 143.32196,162.6574 C 144.39735,165.6412 143.76359,170.6697 142.01896,172.9958 C 141.76143,173.3391 141.34878,173.917 141.10196,174.28 C 139.88747,176.0659 136.72381,178.169 134.26,178.8283 C 130.7303,179.7729 126.55333,178.782 123.4478,176.2632 C 121.55888,174.7312 119.42546,171.6236 119.15564,170.0112 C 118.97265,168.9178 118.45377,168.4423 118.01733,168.9682 C 117.85936,169.1585 117.85678,169.5351 118.0037,170.9606 C 118.50979,175.8713 120.84185,183.6989 122.69733,186.715 C 123.0757,187.33 123.0615,187.619 122.64745,187.7299 C 122.13507,187.8672 109.40955,187.838 109.19056,187.699 C 109.00111,187.5787 109.07495,187.3907 110.61666,184.0666 C 111.95132,181.1889 113.08955,177.2617 113.7515,173.2505 C 114.18071,170.6496 114.22394,169.163 113.88033,168.8194 C 113.41863,168.3577 113.13144,168.639 112.91857,169.7615 C 112.61118,171.3823 111.17513,174.0585 110.03023,175.144 C 108.39463,176.6949 105.78293,178.1736 103.51869,178.8308 C 102.50563,179.1249 101.97258,179.1798 100.1364,179.1793 C 98.288822,179.1788 97.796362,179.1272 96.904422,178.8404 C 94.460602,178.0547 92.016292,176.3197 90.531552,174.317 C 89.655702,173.1355 88.719162,171.058 88.343732,169.4638 C 87.922062,167.6732 88.076022,164.4553 88.669952,162.6454 C 89.489412,160.1481 90.538782,158.4492 92.119292,157.0608 C 94.617182,154.8666 96.238742,154.2701 99.760582,154.2499 C 101.29869,154.2412 101.78596,154.3017 103.06772,154.6608 C 104.53434,155.0716 106.11985,155.7476 107.2226,156.4323 C 107.6873,156.7208 107.80617,156.7417 108.01181,156.571 C 108.14496,156.4605 108.2539,156.2782 108.2539,156.166 C 108.2539,156.0537 107.77221,155.4362 107.18347,154.7939 C 105.63578,153.1052 105.08749,152.3093 104.30771,150.6194 C 103.13575,148.0797 102.59614,145.5734 102.75689,143.4167 C 102.87727,141.8015 103.18521,140.1472 103.50659,139.3891 C 104.43412,137.2012 106.94243,134.3304 108.95554,133.1528 C 111.24517,131.8135 114.86815,131.1433 117.72433,131.5308 z M 210.07595,239.2756 C 210.31677,239.4517 210.28107,239.584 209.59948,241.0419 C 208.7012,242.9633 208.18502,244.46 207.83335,246.1631 C 207.5731,247.4235 207.598,247.9544 207.91737,247.9544 C 208.00442,247.9544 208.13656,247.8022 208.211,247.6161 C 208.28544,247.4301 208.49397,246.902 208.67439,246.4425 C 209.22504,245.0403 209.87549,244.2879 211.02697,243.7212 C 211.91438,243.2845 212.19504,243.2196 213.18201,243.2229 C 214.11307,243.226 214.47015,243.3018 215.17123,243.6448 C 217.14579,244.6108 218.15317,246.8386 217.82235,249.5077 C 217.64686,250.9236 217.10962,251.8563 215.99049,252.6879 C 214.09012,254.1001 212.04853,253.9655 209.43608,252.2559 C 208.98901,251.9633 208.56397,251.7606 208.49152,251.8053 C 208.41907,251.8501 208.89765,252.455 209.55503,253.1494 C 211.31414,255.0078 211.96144,256.6042 211.77321,258.6199 C 211.58782,260.6052 210.42673,262.1302 208.44501,262.9912 C 207.81898,263.2632 207.50192,263.3053 206.54758,263.243 C 204.53806,263.1118 203.13262,262.1806 202.21474,260.3722 C 201.81105,259.5769 201.71125,259.1829 201.65238,258.152 C 201.54252,256.2281 202.08581,254.9516 203.77503,253.1648 C 204.40384,252.4997 204.52855,252.1634 204.14644,252.1634 C 204.06564,252.1634 203.57426,252.4894 203.05448,252.8878 C 200.90425,254.5358 198.43126,254.4287 196.73367,252.6138 C 195.93307,251.7579 195.63083,251.0913 195.44348,249.7684 C 194.83779,245.4915 197.91536,242.1959 201.55995,243.2185 C 202.32337,243.4327 202.63045,243.6268 203.34959,244.3497 C 204.31264,245.3178 204.73607,245.989 205.12594,247.1652 C 205.38797,247.9557 205.73204,248.1934 205.91693,247.7116 C 206.04022,247.3903 205.47798,244.5817 204.98747,243.0688 C 204.77304,242.4074 204.31677,241.3035 203.97355,240.6158 C 203.45481,239.5763 203.38626,239.3421 203.56724,239.2276 C 203.91907,239.005 209.76485,239.0481 210.07595,239.2756 z M 214.82801,268.5073 C 215.36227,268.5389 215.88022,268.6319 215.97906,268.7139 C 216.22873,268.9211 216.38964,270.4954 216.20957,270.969 C 216.07567,271.3211 215.96117,271.3685 215.03412,271.4549 C 213.87502,271.563 213.70314,271.7032 213.55806,272.659 C 213.40942,273.6382 212.86153,276.7901 212.65243,277.8689 C 212.54827,278.4063 212.21911,280.2152 211.92098,281.8887 C 211.62286,283.5621 211.14566,286.0989 210.86052,287.5258 C 210.57539,288.9528 210.20666,290.8982 210.04113,291.849 C 209.49985,294.9582 208.52899,299.6692 208.36724,299.9714 C 208.22689,300.2337 208.04726,300.2672 206.78293,300.2672 C 205.44517,300.2672 205.34839,300.2463 205.21906,299.929 C 205.06799,299.5583 204.6084,297.5154 203.79025,293.5778 C 203.49821,292.1722 203.15498,290.5487 203.0275,289.97 C 202.90003,289.3912 202.69972,288.478 202.58236,287.9406 C 202.21097,286.2399 201.92484,284.9622 201.01706,280.9505 C 200.53063,278.8009 199.91708,275.9936 199.65362,274.7121 C 198.97124,271.3927 198.95555,271.3563 198.14169,271.2057 C 196.6543,270.9303 196.79488,271.0714 196.79488,269.8537 C 196.79488,269.2029 196.868,268.6861 196.97527,268.5789 C 197.1045,268.4496 198.08194,268.3985 200.42199,268.3985 C 204.25872,268.3985 204.16077,268.3615 204.16077,269.8072 C 204.16077,270.8946 204.01211,271.1043 203.24105,271.1043 C 202.16069,271.1043 202.02158,271.3704 202.35823,272.7933 C 202.44164,273.1459 202.61181,273.874 202.73637,274.4114 C 203.08635,275.9214 203.0706,275.9151 206.46987,275.9125 C 208.47061,275.9109 209.46142,275.8529 209.72276,275.7219 C 210.0493,275.5583 210.1409,275.327 210.42144,273.9578 C 210.9637,271.3112 210.89873,271.1043 209.52557,271.1043 C 209.13134,271.1043 208.78489,271.0166 208.68011,270.8904 C 208.46525,270.6315 208.62066,268.924 208.87753,268.7214 C 209.06688,268.572 213.33045,268.4186 214.82801,268.5073 z M 204.04802,279.0159 C 203.8158,279.0781 203.70979,279.2202 203.70979,279.4691 C 203.70979,280.1022 205.21042,287.1094 206.34259,291.7631 C 206.77523,293.5414 206.91484,293.3252 207.59734,289.8197 C 208.61674,284.5838 209.42936,279.3365 209.25361,279.1247 C 209.12455,278.9692 208.52991,278.9216 206.73544,278.9232 C 205.44339,278.9243 204.23405,278.966 204.04802,279.0159 z"
     id="path7051" />
  <g
     id="g3796"
     transform="translate(1.593878e-6,0)">
    <rect
       ry="11.25"
       rx="11.25"
       y="3.4247196"
       x="3.6058116"
       height="311.81104"
       width="223.22835"
       id="rect2382"
       style="fill:none;fill-opacity:1;fill-rule:nonzero;stroke:#000000;stroke-width:0.03543307;stroke-linejoin:round;stroke-miterlimit:4;stroke-dasharray:none;stroke-opacity:1" />
    <g
       transform="translate(3.5433116,3.3622195)"
       id="g3164">
      <path
         style="fill:none;fill-rule:evenodd;stroke:#000000;stroke-width:0.03221492;stroke-linecap:butt;stroke-linejoin:miter;stroke-miterlimit:4;stroke-dasharray:none;stroke-opacity:1"
         d="M 219.74754,0.062511534 L 226.70838,0.062511534"
         id="path3160"
         sodipodi:nodetypes="cc" />
      <path
         sodipodi:nodetypes="cc"
         id="path3162"
         d="M 223.29036,-3.2997195 L 223.29036,3.6063107"
         style="fill:none;fill-rule:evenodd;stroke:#000000;stroke-width:0.03196126;stroke-linecap:butt;stroke-linejoin:miter;stroke-miterlimit:4;stroke-dasharray:none;stroke-opacity:1" />
    </g>
    <g
       transform="matrix(1.0001093,0,0,1,3.519309,315.17275)"
       id="g3168">
      <path
         sodipodi:nodetypes="cc"
         id="path3170"
         d="M 219.74754,0.062511534 L 226.70838,0.062511534"
         style="fill:none;fill-rule:evenodd;stroke:#000000;stroke-width:0.03221492;stroke-linecap:butt;stroke-linejoin:miter;stroke-miterlimit:4;stroke-dasharray:none;stroke-opacity:1" />
      <path
         style="fill:none;fill-rule:evenodd;stroke:#000000;stroke-width:0.03196126;stroke-linecap:butt;stroke-linejoin:miter;stroke-miterlimit:4;stroke-dasharray:none;stroke-opacity:1"
         d="M 223.29036,-3.2997195 L 223.29036,3.6063107"
         id="path3172"
         sodipodi:nodetypes="cc" />
    </g>
    <g
       id="g3174"
       transform="matrix(1.0001093,0,0,1,-219.70906,315.17275)">
      <path
         style="fill:none;fill-rule:evenodd;stroke:#000000;stroke-width:0.03221492;stroke-linecap:butt;stroke-linejoin:miter;stroke-miterlimit:4;stroke-dasharray:none;stroke-opacity:1"
         d="M 219.74754,0.062511534 L 226.70838,0.062511534"
         id="path3176"
         sodipodi:nodetypes="cc" />
      <path
         sodipodi:nodetypes="cc"
         id="path3178"
         d="M 223.29036,-3.2997195 L 223.29036,3.6063107"
         style="fill:none;fill-rule:evenodd;stroke:#000000;stroke-width:0.03196126;stroke-linecap:butt;stroke-linejoin:miter;stroke-miterlimit:4;stroke-dasharray:none;stroke-opacity:1" />
    </g>
    <g
       transform="translate(-219.68504,3.3622195)"
       id="g3180">
      <path
         sodipodi:nodetypes="cc"
         id="path3182"
         d="M 219.74754,0.062511534 L 226.70838,0.062511534"
         style="fill:none;fill-rule:evenodd;stroke:#000000;stroke-width:0.03221492;stroke-linecap:butt;stroke-linejoin:miter;stroke-miterlimit:4;stroke-dasharray:none;stroke-opacity:1" />
      <path
         style="fill:none;fill-rule:evenodd;stroke:#000000;stroke-width:0.03196126;stroke-linecap:butt;stroke-linejoin:miter;stroke-miterlimit:4;stroke-dasharray:none;stroke-opacity:1"
         d="M 223.29036,-3.2997195 L 223.29036,3.6063107"
         id="path3184"
         sodipodi:nodetypes="cc" />
    </g>
  </g>
</svg>
