<?xml version="1.0" encoding="UTF-8" standalone="no"?>
<!-- Created with Inkscape (http://www.inkscape.org/) -->
<svg
   xmlns:dc="http://purl.org/dc/elements/1.1/"
   xmlns:cc="http://creativecommons.org/ns#"
   xmlns:rdf="http://www.w3.org/1999/02/22-rdf-syntax-ns#"
   xmlns:svg="http://www.w3.org/2000/svg"
   xmlns="http://www.w3.org/2000/svg"
   xmlns:sodipodi="http://sodipodi.sourceforge.net/DTD/sodipodi-0.dtd"
   xmlns:inkscape="http://www.inkscape.org/namespaces/inkscape"
   id="svg18248"
   sodipodi:version="0.32"
   inkscape:version="0.46"
   width="230.31497"
   height="318.84155"
   version="1.0"
   sodipodi:docname="ad.svg"
   inkscape:output_extension="org.inkscape.output.svg.inkscape">
  <metadata
     id="metadata18253">
    <rdf:RDF>
      <cc:Work
         rdf:about="">
        <dc:format>image/svg+xml</dc:format>
        <dc:type
           rdf:resource="http://purl.org/dc/dcmitype/StillImage" />
      </cc:Work>
    </rdf:RDF>
  </metadata>
  <defs
     id="defs18251">
    <inkscape:perspective
       sodipodi:type="inkscape:persp3d"
       inkscape:vp_x="0 : 526.18109 : 1"
       inkscape:vp_y="0 : 1000 : 0"
       inkscape:vp_z="744.09448 : 526.18109 : 1"
       inkscape:persp3d-origin="372.04724 : 350.78739 : 1"
       id="perspective18255" />
  </defs>
  <sodipodi:namedview
     inkscape:window-height="667"
     inkscape:window-width="795"
     inkscape:pageshadow="2"
     inkscape:pageopacity="0.0"
     guidetolerance="10.0"
     gridtolerance="10.0"
     objecttolerance="10.0"
     borderopacity="1.0"
     bordercolor="#666666"
     pagecolor="#ffffff"
     id="base"
     showgrid="false"
     inkscape:zoom="1.4489956"
     inkscape:cx="115.15749"
     inkscape:cy="159.42078"
     inkscape:window-x="154"
     inkscape:window-y="203"
     inkscape:current-layer="svg18248" />
  <path
     style="fill:#e00000;fill-opacity:1"
     d="M 205.31856,300.0807 C 205.08228,299.7913 204.12869,295.6425 203.33699,291.4594 C 203.20086,290.7401 202.96624,289.6692 202.37211,287.0555 C 201.45025,282.9998 200.52475,278.688 199.6827,274.5259 C 199.31779,272.7221 198.93537,271.1981 198.8311,271.1319 C 198.727,271.0658 198.40671,271.0098 198.11933,271.0074 C 196.96127,270.9979 196.9078,270.9403 196.95621,269.7566 L 196.99968,268.6932 L 200.58255,268.6932 L 204.16543,268.6932 L 204.16543,269.8129 L 204.16543,270.9325 L 203.34435,271.0088 C 202.36611,271.0996 202.15024,271.2155 202.14949,271.6505 C 202.1484,272.2812 202.79117,275.3395 202.97872,275.596 C 203.1461,275.8249 203.53969,275.8613 206.35396,275.9078 C 208.33825,275.9407 209.69118,275.9018 209.94128,275.8049 C 210.40614,275.6247 210.50754,275.3318 210.89757,273.0415 C 211.22937,271.0931 211.18361,271.0072 209.81348,271.0072 L 208.85487,271.0072 L 208.89873,269.9249 L 208.94259,268.8425 L 212.67474,268.8425 L 216.4069,268.8425 L 216.4069,269.9622 L 216.4069,271.0818 L 215.31323,271.2311 C 214.47279,271.3458 214.18046,271.4495 214.05073,271.679 C 213.89125,271.961 213.70119,272.881 212.38538,279.7404 C 212.08612,281.3005 211.68018,283.3158 211.48329,284.219 C 211.2864,285.1222 210.92265,286.9024 210.67495,288.1751 C 210.42725,289.4478 210.01558,291.4631 209.76012,292.6537 C 209.50466,293.8443 209.20294,295.3222 209.08963,295.938 C 208.71434,297.9776 208.42695,299.2154 208.20587,299.7446 L 207.98747,300.2673 L 206.72919,300.2673 C 205.90336,300.2673 205.41856,300.2032 205.31856,300.0807 z M 207.05673,292.8403 C 207.13428,292.5324 207.30832,291.6759 207.44348,290.9369 C 207.57866,290.1979 207.81933,288.9887 207.9783,288.2498 C 208.49379,285.8536 209.46509,280.2455 209.46509,279.6653 C 209.46509,279.2881 209.3867,279.0705 209.22895,279.01 C 208.92345,278.8927 204.75118,278.9254 204.16543,279.0497 C 203.77322,279.1328 203.71168,279.2163 203.67018,279.7214 C 203.64413,280.0386 203.82356,281.2811 204.06893,282.4825 C 204.31429,283.6839 204.54679,284.8348 204.58561,285.0401 C 204.62442,285.2454 204.83644,286.2195 205.05677,287.2047 C 205.2771,288.19 205.51453,289.2985 205.58439,289.668 C 205.77261,290.6634 206.17207,292.3617 206.34813,292.9149 C 206.55466,293.564 206.88315,293.5294 207.05673,292.8403 z M 205.7671,262.4605 C 205.45229,262.0295 204.61194,260.8371 203.89967,259.8107 C 201.78325,256.7611 200.58727,255.2747 198.58936,253.2108 C 197.17689,251.7517 197.19355,251.8778 198.25818,250.7042 C 199.59535,249.2302 202.38538,245.4636 204.48502,242.2979 C 205.18263,241.246 205.83277,240.4111 205.92978,240.4424 C 206.02679,240.4738 206.52215,241.1289 207.0306,241.8984 C 207.53904,242.6678 208.04384,243.402 208.15237,243.5299 C 208.2609,243.6578 208.51417,243.9976 208.71519,244.2849 C 208.91621,244.5723 209.46873,245.3113 209.943,245.9271 C 210.41727,246.5429 210.85654,247.1139 210.91915,247.196 C 211.58852,248.0737 213.16072,249.9112 213.90636,250.6873 C 214.41953,251.2213 214.8394,251.6881 214.8394,251.7246 C 214.8394,251.8061 213.47165,253.5049 212.11509,255.1082 C 210.95359,256.481 210.99123,256.4336 210.51324,257.1236 C 210.31415,257.4109 210.1102,257.6796 210.06001,257.7207 C 209.81366,257.9222 208.22948,260.3577 207.46244,261.7141 C 206.98653,262.5557 206.53918,263.2443 206.46832,263.2443 C 206.39746,263.2443 206.08192,262.8916 205.7671,262.4605 z M 113.65843,187.3695 C 113.57555,187.2669 113.13533,186.444 112.68016,185.5408 C 112.22499,184.6376 111.37894,183.1261 110.80004,182.1818 C 110.22114,181.2376 109.60292,180.1963 109.42623,179.8679 C 109.24953,179.5395 108.92157,179.0356 108.69742,178.7482 C 108.47327,178.4609 108.17887,178.0242 108.04319,177.7779 C 107.65751,177.0777 105.76366,174.4624 104.36753,172.702 C 103.03637,171.0236 102.64195,170.518 101.90191,169.5412 C 101.65426,169.2144 101.20461,168.6498 100.90269,168.2867 C 100.60076,167.9235 99.585982,166.6859 98.647622,165.5364 C 97.709262,164.3869 96.712572,163.2113 96.432762,162.9239 C 96.152952,162.6365 95.547572,161.9311 95.087472,161.3564 C 94.627382,160.7816 94.041552,160.1141 93.785642,159.8729 C 93.529732,159.6318 93.321032,159.3295 93.321882,159.2011 C 93.322722,159.0728 93.641822,158.6288 94.030992,158.2144 C 95.022172,157.1591 96.770862,155.1896 97.127142,154.7273 C 97.291362,154.5143 97.646822,154.1048 97.917052,153.8174 C 98.187282,153.5301 98.859072,152.733 99.409912,152.0461 C 99.960752,151.3592 100.71793,150.4523 101.09253,150.0307 C 101.46713,149.6091 101.90379,149.0889 102.06289,148.8746 C 102.22199,148.6603 103.26551,147.3503 104.38183,145.9635 C 106.35034,143.518 106.92673,142.7441 108.33291,140.6585 C 108.7008,140.1129 109.10113,139.584 109.22253,139.4833 C 109.34393,139.3825 109.44326,139.2339 109.44326,139.1531 C 109.44326,139.0722 109.9639,138.1884 110.60023,137.1891 C 111.23657,136.1898 112.26104,134.3835 112.87685,133.1751 C 113.49266,131.9666 114.03733,130.9776 114.08724,130.9773 C 114.13715,130.9769 114.43202,131.3965 114.7425,131.9097 C 117.04895,135.7218 119.33276,139.279 120.55318,140.9602 C 122.1826,143.2049 124.66263,146.4147 125.23906,147.0249 C 125.54928,147.3533 126.03318,147.9244 126.31437,148.2938 C 126.59557,148.6633 127.36521,149.5741 128.02467,150.3179 C 128.68413,151.0616 129.62677,152.1365 130.11941,152.7064 C 130.88153,153.5882 132.20441,155.015 133.41469,156.2606 C 133.58494,156.4359 134.15596,157.0824 134.68362,157.6973 C 135.21128,158.3123 135.74263,158.8939 135.8644,158.9897 C 136.05212,159.1375 135.97265,159.2867 135.3419,159.9712 C 134.62998,160.7437 132.22273,163.3884 131.91085,163.7407 C 131.82874,163.8335 131.22401,164.477 130.567,165.1707 C 129.90999,165.8645 128.96948,166.8994 128.47699,167.4704 C 127.98449,168.0415 127.22012,168.9148 126.77838,169.4112 C 126.33664,169.9075 125.82394,170.5487 125.63904,170.8361 C 125.45415,171.1234 125.15247,171.5265 124.96864,171.7318 C 124.62366,172.117 123.57041,173.4689 123.18015,174.0275 C 123.05838,174.2017 122.6524,174.7474 122.27796,175.24 C 121.90352,175.7327 121.29777,176.5724 120.93184,177.1061 C 120.56591,177.6398 120.23293,178.11 120.19187,178.1511 C 119.94042,178.4026 115.47767,185.1111 114.59364,186.5665 C 114.26521,187.1072 113.95433,187.5511 113.90281,187.5529 C 113.85128,187.5547 113.74131,187.4722 113.65843,187.3695 z M 21.886852,77.0492 C 20.509132,74.8843 18.282342,71.6733 17.626832,70.9064 C 17.141012,70.3379 17.132952,70.3288 15.862752,68.9036 C 14.892452,67.815 14.788262,67.6422 14.964752,67.4144 C 15.074562,67.2727 15.508192,66.7537 15.928372,66.261 C 17.339132,64.607 20.619562,60.0797 21.986022,57.901 C 23.103282,56.1196 23.185042,56.0226 23.411552,56.2106 C 23.529202,56.3083 23.763732,56.6614 23.932722,56.9953 C 24.501842,58.1198 27.619022,62.6974 29.111282,64.6 C 29.489542,65.0823 30.218892,65.9511 30.732062,66.5308 C 31.245232,67.1105 31.665102,67.6603 31.665102,67.7526 C 31.665102,67.8449 30.917112,68.8234 30.002912,69.9271 C 27.643722,72.7754 26.171842,74.7079 25.461272,75.89 C 25.239172,76.2595 24.831112,76.909 24.554482,77.3335 C 24.277842,77.7579 24.051502,78.1507 24.051502,78.2062 C 24.051502,78.3651 23.445412,79.1751 23.332222,79.1674 C 23.276232,79.1635 22.625812,78.2104 21.886852,77.0492 z M 26.022692,50.3755 C 25.794952,50.2255 25.690982,49.5274 25.789422,48.8092 L 25.883522,48.1227 L 26.497692,48.1207 C 27.548282,48.1172 27.784032,47.9978 27.780722,47.4708 C 27.777332,46.9316 27.457522,45.096 27.183522,44.0431 C 27.045182,43.5116 26.900892,43.2863 26.633662,43.1847 C 26.434392,43.109 24.902372,43.047 23.229172,43.047 C 20.271052,43.047 20.180672,43.056 19.958682,43.3729 C 19.752432,43.6674 19.611202,44.2284 19.108792,46.749 C 18.905832,47.7673 19.060412,47.9734 20.026842,47.9734 C 21.160032,47.9734 21.215062,48.0252 21.215062,49.0908 C 21.215062,49.7428 21.146772,50.0836 20.990012,50.2137 C 20.667522,50.4813 14.205322,50.3136 14.027292,50.0329 C 13.865262,49.7775 13.869512,48.402 14.033142,48.1438 C 14.103832,48.0322 14.489082,47.9107 14.889252,47.8738 C 16.005222,47.7708 16.247852,47.6978 16.348682,47.4351 C 16.454772,47.1586 16.803142,45.4077 17.563342,41.3302 C 18.206752,37.8791 18.904722,34.3525 19.203142,33.0448 C 19.324942,32.5111 19.999742,29.19 20.702702,25.6646 C 21.405662,22.1392 22.044462,19.1358 22.122252,18.9905 C 22.398942,18.4734 24.515092,18.4231 24.881942,18.9248 C 24.979192,19.0578 25.104432,19.5181 25.160242,19.9477 C 25.216062,20.3772 25.361672,21.1989 25.483822,21.7737 C 25.605962,22.3484 25.871042,23.744 26.072872,24.8748 C 26.587052,27.7558 28.283702,35.9917 29.060252,39.3761 C 29.269162,40.2867 29.499082,41.3675 29.571172,41.7781 C 29.978542,44.0978 30.786772,47.752 30.922482,47.8877 C 31.009302,47.9745 31.463822,48.0797 31.932542,48.1214 L 32.784752,48.1974 L 32.828692,49.1963 C 32.866132,50.0473 32.831182,50.2173 32.592522,50.3451 C 32.296582,50.5034 26.259512,50.5314 26.022692,50.3755 z M 26.386232,39.9863 C 26.433572,39.8629 26.323992,38.9728 26.142702,38.0082 C 25.625532,35.2564 25.136072,32.7962 24.798822,31.2534 C 24.628322,30.4734 24.350772,29.1634 24.182052,28.3423 C 23.746292,26.2217 23.741402,26.2046 23.516182,26.0177 C 23.146122,25.7106 22.999642,26.2881 21.592432,33.6032 C 20.749132,37.9869 20.441432,39.8965 20.550052,40.0722 C 20.597662,40.1493 21.890552,40.2106 23.467852,40.2106 C 25.849822,40.2106 26.313852,40.1749 26.386232,39.9863 z"
     id="path18259" />
  <g
     id="g3796"
     transform="translate(1.593878e-6,0)">
    <rect
       ry="11.25"
       rx="11.25"
       y="3.4247196"
       x="3.6058116"
       height="311.81104"
       width="223.22835"
       id="rect2382"
       style="fill:none;fill-opacity:1;fill-rule:nonzero;stroke:#000000;stroke-width:0.03543307;stroke-linejoin:round;stroke-miterlimit:4;stroke-dasharray:none;stroke-opacity:1" />
    <g
       transform="translate(3.5433116,3.3622195)"
       id="g3164">
      <path
         style="fill:none;fill-rule:evenodd;stroke:#000000;stroke-width:0.03221492;stroke-linecap:butt;stroke-linejoin:miter;stroke-miterlimit:4;stroke-dasharray:none;stroke-opacity:1"
         d="M 219.74754,0.062511534 L 226.70838,0.062511534"
         id="path3160"
         sodipodi:nodetypes="cc" />
      <path
         sodipodi:nodetypes="cc"
         id="path3162"
         d="M 223.29036,-3.2997195 L 223.29036,3.6063107"
         style="fill:none;fill-rule:evenodd;stroke:#000000;stroke-width:0.03196126;stroke-linecap:butt;stroke-linejoin:miter;stroke-miterlimit:4;stroke-dasharray:none;stroke-opacity:1" />
    </g>
    <g
       transform="matrix(1.0001093,0,0,1,3.519309,315.17275)"
       id="g3168">
      <path
         sodipodi:nodetypes="cc"
         id="path3170"
         d="M 219.74754,0.062511534 L 226.70838,0.062511534"
         style="fill:none;fill-rule:evenodd;stroke:#000000;stroke-width:0.03221492;stroke-linecap:butt;stroke-linejoin:miter;stroke-miterlimit:4;stroke-dasharray:none;stroke-opacity:1" />
      <path
         style="fill:none;fill-rule:evenodd;stroke:#000000;stroke-width:0.03196126;stroke-linecap:butt;stroke-linejoin:miter;stroke-miterlimit:4;stroke-dasharray:none;stroke-opacity:1"
         d="M 223.29036,-3.2997195 L 223.29036,3.6063107"
         id="path3172"
         sodipodi:nodetypes="cc" />
    </g>
    <g
       id="g3174"
       transform="matrix(1.0001093,0,0,1,-219.70906,315.17275)">
      <path
         style="fill:none;fill-rule:evenodd;stroke:#000000;stroke-width:0.03221492;stroke-linecap:butt;stroke-linejoin:miter;stroke-miterlimit:4;stroke-dasharray:none;stroke-opacity:1"
         d="M 219.74754,0.062511534 L 226.70838,0.062511534"
         id="path3176"
         sodipodi:nodetypes="cc" />
      <path
         sodipodi:nodetypes="cc"
         id="path3178"
         d="M 223.29036,-3.2997195 L 223.29036,3.6063107"
         style="fill:none;fill-rule:evenodd;stroke:#000000;stroke-width:0.03196126;stroke-linecap:butt;stroke-linejoin:miter;stroke-miterlimit:4;stroke-dasharray:none;stroke-opacity:1" />
    </g>
    <g
       transform="translate(-219.68504,3.3622195)"
       id="g3180">
      <path
         sodipodi:nodetypes="cc"
         id="path3182"
         d="M 219.74754,0.062511534 L 226.70838,0.062511534"
         style="fill:none;fill-rule:evenodd;stroke:#000000;stroke-width:0.03221492;stroke-linecap:butt;stroke-linejoin:miter;stroke-miterlimit:4;stroke-dasharray:none;stroke-opacity:1" />
      <path
         style="fill:none;fill-rule:evenodd;stroke:#000000;stroke-width:0.03196126;stroke-linecap:butt;stroke-linejoin:miter;stroke-miterlimit:4;stroke-dasharray:none;stroke-opacity:1"
         d="M 223.29036,-3.2997195 L 223.29036,3.6063107"
         id="path3184"
         sodipodi:nodetypes="cc" />
    </g>
  </g>
</svg>
