<?xml version="1.0" encoding="UTF-8" standalone="no"?>
<!-- Created with Inkscape (http://www.inkscape.org/) -->
<svg
   xmlns:dc="http://purl.org/dc/elements/1.1/"
   xmlns:cc="http://creativecommons.org/ns#"
   xmlns:rdf="http://www.w3.org/1999/02/22-rdf-syntax-ns#"
   xmlns:svg="http://www.w3.org/2000/svg"
   xmlns="http://www.w3.org/2000/svg"
   xmlns:sodipodi="http://sodipodi.sourceforge.net/DTD/sodipodi-0.dtd"
   xmlns:inkscape="http://www.inkscape.org/namespaces/inkscape"
   id="svg18850"
   sodipodi:version="0.32"
   inkscape:version="0.46"
   width="230.31497"
   height="318.84155"
   version="1.0"
   sodipodi:docname="ah.svg"
   inkscape:output_extension="org.inkscape.output.svg.inkscape">
  <metadata
     id="metadata18855">
    <rdf:RDF>
      <cc:Work
         rdf:about="">
        <dc:format>image/svg+xml</dc:format>
        <dc:type
           rdf:resource="http://purl.org/dc/dcmitype/StillImage" />
      </cc:Work>
    </rdf:RDF>
  </metadata>
  <defs
     id="defs18853">
    <inkscape:perspective
       sodipodi:type="inkscape:persp3d"
       inkscape:vp_x="0 : 526.18109 : 1"
       inkscape:vp_y="0 : 1000 : 0"
       inkscape:vp_z="744.09448 : 526.18109 : 1"
       inkscape:persp3d-origin="372.04724 : 350.78739 : 1"
       id="perspective18857" />
  </defs>
  <sodipodi:namedview
     inkscape:window-height="667"
     inkscape:window-width="854"
     inkscape:pageshadow="2"
     inkscape:pageopacity="0.0"
     guidetolerance="10.0"
     gridtolerance="10.0"
     objecttolerance="10.0"
     borderopacity="1.0"
     bordercolor="#666666"
     pagecolor="#ffffff"
     id="base"
     showgrid="false"
     inkscape:zoom="1.4489956"
     inkscape:cx="115.15749"
     inkscape:cy="159.42078"
     inkscape:window-x="22"
     inkscape:window-y="29"
     inkscape:current-layer="svg18850" />
  <path
     style="fill:#e00000;fill-opacity:1"
     d="M 23.286412,18.7275 C 23.450042,18.9246 24.186952,21.8729 25.286742,26.7306 C 25.548322,27.886 26.087652,30.1817 26.485252,31.8322 C 26.882842,33.4827 27.384742,35.5759 27.600582,36.4837 C 27.816412,37.3915 28.129932,38.7081 28.297302,39.4096 C 28.678212,41.0062 28.926562,42.0975 29.321732,43.911 C 29.492562,44.695 29.774872,45.8849 29.949112,46.5552 L 30.265892,47.7738 L 31.138342,47.8529 C 31.618192,47.8964 32.082892,47.9766 32.171032,48.0311 C 32.378802,48.1595 32.380602,50.1648 32.173052,50.2931 C 32.086042,50.3469 30.474302,50.4261 28.591402,50.4692 C 25.901012,50.5308 25.142502,50.5063 25.049022,50.3551 C 24.983622,50.2493 24.910692,49.7357 24.886972,49.2138 C 24.836672,48.1068 24.976592,47.9623 26.099132,47.9623 C 26.602582,47.9623 26.814662,47.8952 26.884222,47.714 C 26.990252,47.4377 26.553192,44.9996 26.189022,43.836 L 25.954242,43.0858 L 22.728222,43.0434 C 20.953912,43.02 19.358832,43.036 19.183592,43.079 C 19.008352,43.1219 18.792272,43.3435 18.703392,43.5715 C 18.516512,44.051 18.076752,46.8006 18.076752,47.4897 C 18.076752,48.0134 18.223932,48.0814 19.502202,48.1482 L 20.252442,48.1874 L 20.252442,49.3128 L 20.252442,50.4381 L 18.676942,50.5323 C 16.531172,50.6605 13.202672,50.6835 12.912382,50.5721 C 12.725822,50.5005 12.675042,50.2456 12.675042,49.3806 C 12.675042,48.7622 12.745232,48.2368 12.835272,48.1811 C 12.923412,48.1266 13.398842,48.0455 13.891772,48.0008 C 14.581692,47.9382 14.824892,47.8507 14.948062,47.6205 C 15.036082,47.4561 15.266582,46.3685 15.460302,45.2037 C 15.654012,44.0388 15.948032,42.3093 16.113662,41.3602 C 16.279322,40.4112 16.489762,39.1958 16.581332,38.6594 C 16.672902,38.123 16.811112,37.3465 16.888452,36.9338 C 17.443982,33.97 17.663252,32.7865 17.778002,32.1323 C 19.308372,23.4089 20.148292,19.1328 20.377232,18.8997 C 20.473652,18.8015 21.128392,18.6752 21.832202,18.6191 C 22.841392,18.5387 23.148752,18.5616 23.286412,18.7275 z M 21.416272,27.492 C 21.030332,29.4947 20.524942,32.3082 20.326652,33.5578 C 20.254632,34.0117 20.022962,35.4634 19.811822,36.7838 C 19.361022,39.6031 19.351842,39.7987 19.664522,39.9187 C 19.795062,39.9688 21.004932,40.0098 22.353102,40.0098 C 23.701282,40.0098 24.911142,39.9688 25.041682,39.9187 C 25.413112,39.7762 25.336782,38.992 24.663492,36.0336 C 24.325432,34.5481 23.992492,33.0626 23.923612,32.7325 C 23.651342,31.4276 22.275782,25.873 22.190862,25.7356 C 21.953212,25.351 21.732342,25.8519 21.416272,27.492 z M 29.146262,56.4867 C 30.079772,56.7857 30.771612,57.3095 31.574622,58.3254 C 32.902722,60.0056 33.097382,63.1327 32.059712,66.1181 C 31.521462,67.6666 30.278252,69.9059 28.061152,73.3204 C 25.489822,77.2804 25.387272,77.4492 24.326562,79.4686 C 23.872472,80.333 23.434742,81.0624 23.353832,81.0894 C 23.272912,81.1163 22.976792,80.7129 22.695802,80.1928 C 22.034842,78.9696 19.629322,75.0614 17.465492,71.6954 C 16.549872,70.2711 14.517802,66.503 14.214982,65.6679 C 13.795612,64.5115 13.558712,63.1247 13.561402,61.8417 C 13.565272,59.9872 13.946212,59.0154 15.150822,57.7869 C 15.910392,57.0122 16.193352,56.8293 16.961242,56.6168 C 17.984432,56.3337 19.103582,56.2931 19.865262,56.5116 C 21.174832,56.8872 22.264912,58.1663 22.624332,59.7492 C 22.862302,60.7973 23.239962,61.0345 23.401202,60.2371 C 23.561202,59.4458 24.337502,57.9742 24.900902,57.3941 C 25.512012,56.765 26.851332,56.2112 27.730662,56.2241 C 28.074042,56.2292 28.711072,56.3473 29.146262,56.4867 z M 130.08721,131.2226 C 132.39476,131.8466 134.12298,132.9301 135.98526,134.9206 C 136.94073,135.9418 137.35313,136.5355 137.94395,137.7402 C 138.35557,138.5795 138.79404,139.6714 138.91833,140.1665 C 139.04263,140.6617 139.23288,141.4044 139.34112,141.817 C 139.74924,143.3729 139.56219,148.0039 138.98355,150.6698 C 138.4857,152.9635 136.26186,158.1691 134.98487,160.03 C 134.27939,161.0581 133.43673,162.312 132.46754,163.7761 C 132.06614,164.3824 131.63645,165.022 131.51266,165.1974 C 131.38887,165.3728 130.44063,166.7673 129.40547,168.2963 C 128.3703,169.8253 126.83798,171.9961 126.00032,173.1202 C 123.92327,175.9077 121.34003,179.7636 119.32339,183.0866 C 119.09759,183.4587 118.43274,184.7113 117.84596,185.8701 C 116.58921,188.3519 116.76987,188.3515 115.22441,185.876 C 114.67658,184.9985 113.89341,183.8078 113.48401,183.2302 C 113.07462,182.6525 112.34026,181.6059 111.85211,180.9044 C 109.54656,177.5914 108.87027,176.6658 104.89002,171.3764 C 102.32895,167.9729 100.08985,164.7821 99.401552,163.555 C 99.129652,163.0703 98.748202,162.4583 98.553872,162.195 C 97.526542,160.8032 94.530292,154.1839 93.778482,151.6452 C 92.318232,146.7143 92.889542,140.1818 95.060802,136.9827 C 96.495182,134.8693 98.033282,133.5057 100.20525,132.4219 C 102.23269,131.4102 103.16129,131.1698 104.95425,131.1926 C 108.26754,131.2348 111.02716,132.5997 113.01075,135.1776 C 113.81695,136.2253 115.14137,138.8564 115.52201,140.1665 C 115.66587,140.6617 115.83368,141.2356 115.89491,141.4419 C 115.96009,141.6615 116.1377,141.8364 116.3233,141.8638 C 116.67589,141.9159 116.72517,141.7828 117.20209,139.4913 C 117.54375,137.8497 118.61199,135.6908 119.76518,134.3114 C 120.7978,133.0762 122.2652,132.0546 123.86024,131.4606 C 124.84544,131.0936 125.23787,131.035 127.01123,130.99 C 128.64669,130.9485 129.23919,130.9933 130.08721,131.2226 z M 208.2809,237.6418 C 208.36932,237.7549 208.73022,238.3857 209.08289,239.0436 C 209.43556,239.7015 209.80888,240.3767 209.91247,240.5441 C 210.01606,240.7115 210.3039,241.2198 210.55212,241.6736 C 211.07099,242.6224 212.67528,245.3452 213.55813,246.7753 C 214.53555,248.3586 216.53155,252.4674 216.91223,253.6799 C 217.20379,254.6085 217.26472,255.1274 217.26432,256.6784 C 217.26385,258.4265 217.23557,258.6106 216.84845,259.3865 C 215.99712,261.0928 215.00223,261.9076 213.36248,262.2416 C 212.84456,262.3471 212.17433,262.3807 211.78698,262.3205 C 210.36414,262.0996 209.14091,260.7652 208.73668,258.9931 C 208.6124,258.4483 208.4684,257.9602 208.41666,257.9084 C 208.19999,257.6918 207.81824,258.1758 207.6624,258.8648 C 207.35048,260.2439 206.37054,261.5557 205.33604,261.979 C 202.94473,262.9576 200.51283,261.8506 199.30549,259.2338 C 198.86374,258.2764 198.74536,255.3307 199.09295,253.9448 C 199.73233,251.3953 200.67323,249.629 205.15034,242.5739 C 205.59548,241.8725 206.39013,240.522 206.91623,239.573 C 208.2285,237.2057 208.09152,237.3995 208.2809,237.6418 z M 217.38769,268.6014 C 217.57077,268.7845 217.63993,269.1137 217.63993,269.8022 C 217.63993,270.8828 217.58668,270.9329 216.43799,270.9329 C 215.77594,270.9329 215.24475,271.1864 215.23656,271.5063 C 215.23514,271.5623 215.13285,272.0808 215.00927,272.6585 C 214.88569,273.2361 214.62066,274.6879 214.4203,275.8845 C 213.8452,279.3193 213.62131,280.5756 213.06989,283.4619 C 212.7861,284.9473 212.35097,287.2431 212.10294,288.5635 C 211.33681,292.642 210.5895,296.5938 210.27276,298.2416 C 210.1062,299.1081 209.87184,299.9167 209.75198,300.0384 C 209.59363,300.1993 209.17668,300.2608 208.22682,300.2635 L 206.91959,300.2672 L 206.817,299.742 C 206.76059,299.4532 206.64319,298.8455 206.55612,298.3916 C 206.01626,295.5771 204.76204,289.5701 204.11249,286.6879 C 203.69401,284.8311 203.29287,283.0417 203.22107,282.7116 C 203.14927,282.3815 202.98974,281.6726 202.86657,281.1361 C 202.74338,280.5997 202.37312,278.8748 202.04378,277.303 C 201.3867,274.167 200.75072,271.4615 200.62151,271.2524 C 200.57596,271.1787 200.09885,271.0713 199.56129,271.0137 L 198.5839,270.909 L 198.5839,269.8045 C 198.5839,269.197 198.64275,268.6635 198.71468,268.6191 C 198.9246,268.4893 205.44889,268.4454 205.57656,268.5728 C 205.6403,268.6365 205.72167,269.0924 205.75738,269.586 C 205.83955,270.7221 205.67961,270.9329 204.73585,270.9329 C 203.64394,270.9329 203.60776,271.0522 204.05037,273.1924 C 204.25918,274.202 204.53726,275.1918 204.66834,275.3918 L 204.90666,275.7556 L 208.11843,275.7075 C 212.01746,275.6491 211.77417,275.7861 212.22472,273.3949 C 212.3972,272.4795 212.53832,271.5861 212.53832,271.4096 C 212.53832,271.0496 212.28441,270.9583 211.11286,270.8971 L 210.36263,270.8579 L 210.40992,269.7353 C 210.43593,269.1178 210.48975,268.5801 210.52951,268.5403 C 210.56927,268.5006 212.07188,268.4413 213.86862,268.4086 C 216.77864,268.3557 217.16299,268.3767 217.38769,268.6014 z M 205.25097,279.0702 C 205.19079,279.1306 205.29245,279.9071 205.4769,280.7958 C 205.66135,281.6844 205.90316,282.8504 206.01425,283.3869 C 206.12535,283.9233 206.42568,285.3412 206.68168,286.5379 C 206.93766,287.7345 207.25156,289.2537 207.37922,289.9139 C 207.90871,292.6521 208.24136,293.5088 208.5692,292.9783 C 208.7531,292.6808 209.70456,287.9621 210.18554,284.9624 C 210.22523,284.7148 210.43231,283.4994 210.64571,282.2615 C 211.08199,279.7308 211.12148,279.097 210.85028,278.9787 C 210.57209,278.8574 205.37856,278.9423 205.25097,279.0702 z"
     id="path18861" />
  <g
     id="g3796"
     transform="translate(1.593878e-6,0)">
    <rect
       ry="11.25"
       rx="11.25"
       y="3.4247196"
       x="3.6058116"
       height="311.81104"
       width="223.22835"
       id="rect2382"
       style="fill:none;fill-opacity:1;fill-rule:nonzero;stroke:#000000;stroke-width:0.03543307;stroke-linejoin:round;stroke-miterlimit:4;stroke-dasharray:none;stroke-opacity:1" />
    <g
       transform="translate(3.5433116,3.3622195)"
       id="g3164">
      <path
         style="fill:none;fill-rule:evenodd;stroke:#000000;stroke-width:0.03221492;stroke-linecap:butt;stroke-linejoin:miter;stroke-miterlimit:4;stroke-dasharray:none;stroke-opacity:1"
         d="M 219.74754,0.062511534 L 226.70838,0.062511534"
         id="path3160"
         sodipodi:nodetypes="cc" />
      <path
         sodipodi:nodetypes="cc"
         id="path3162"
         d="M 223.29036,-3.2997195 L 223.29036,3.6063107"
         style="fill:none;fill-rule:evenodd;stroke:#000000;stroke-width:0.03196126;stroke-linecap:butt;stroke-linejoin:miter;stroke-miterlimit:4;stroke-dasharray:none;stroke-opacity:1" />
    </g>
    <g
       transform="matrix(1.0001093,0,0,1,3.519309,315.17275)"
       id="g3168">
      <path
         sodipodi:nodetypes="cc"
         id="path3170"
         d="M 219.74754,0.062511534 L 226.70838,0.062511534"
         style="fill:none;fill-rule:evenodd;stroke:#000000;stroke-width:0.03221492;stroke-linecap:butt;stroke-linejoin:miter;stroke-miterlimit:4;stroke-dasharray:none;stroke-opacity:1" />
      <path
         style="fill:none;fill-rule:evenodd;stroke:#000000;stroke-width:0.03196126;stroke-linecap:butt;stroke-linejoin:miter;stroke-miterlimit:4;stroke-dasharray:none;stroke-opacity:1"
         d="M 223.29036,-3.2997195 L 223.29036,3.6063107"
         id="path3172"
         sodipodi:nodetypes="cc" />
    </g>
    <g
       id="g3174"
       transform="matrix(1.0001093,0,0,1,-219.70906,315.17275)">
      <path
         style="fill:none;fill-rule:evenodd;stroke:#000000;stroke-width:0.03221492;stroke-linecap:butt;stroke-linejoin:miter;stroke-miterlimit:4;stroke-dasharray:none;stroke-opacity:1"
         d="M 219.74754,0.062511534 L 226.70838,0.062511534"
         id="path3176"
         sodipodi:nodetypes="cc" />
      <path
         sodipodi:nodetypes="cc"
         id="path3178"
         d="M 223.29036,-3.2997195 L 223.29036,3.6063107"
         style="fill:none;fill-rule:evenodd;stroke:#000000;stroke-width:0.03196126;stroke-linecap:butt;stroke-linejoin:miter;stroke-miterlimit:4;stroke-dasharray:none;stroke-opacity:1" />
    </g>
    <g
       transform="translate(-219.68504,3.3622195)"
       id="g3180">
      <path
         sodipodi:nodetypes="cc"
         id="path3182"
         d="M 219.74754,0.062511534 L 226.70838,0.062511534"
         style="fill:none;fill-rule:evenodd;stroke:#000000;stroke-width:0.03221492;stroke-linecap:butt;stroke-linejoin:miter;stroke-miterlimit:4;stroke-dasharray:none;stroke-opacity:1" />
      <path
         style="fill:none;fill-rule:evenodd;stroke:#000000;stroke-width:0.03196126;stroke-linecap:butt;stroke-linejoin:miter;stroke-miterlimit:4;stroke-dasharray:none;stroke-opacity:1"
         d="M 223.29036,-3.2997195 L 223.29036,3.6063107"
         id="path3184"
         sodipodi:nodetypes="cc" />
    </g>
  </g>
</svg>
