<?xml version="1.0" encoding="UTF-8" standalone="no"?>
<!-- Created with Inkscape (http://www.inkscape.org/) -->
<svg
   xmlns:dc="http://purl.org/dc/elements/1.1/"
   xmlns:cc="http://creativecommons.org/ns#"
   xmlns:rdf="http://www.w3.org/1999/02/22-rdf-syntax-ns#"
   xmlns:svg="http://www.w3.org/2000/svg"
   xmlns="http://www.w3.org/2000/svg"
   xmlns:sodipodi="http://sodipodi.sourceforge.net/DTD/sodipodi-0.dtd"
   xmlns:inkscape="http://www.inkscape.org/namespaces/inkscape"
   id="svg7133"
   sodipodi:version="0.32"
   inkscape:version="0.46"
   width="230.31497"
   height="318.84155"
   version="1.0"
   sodipodi:docname="as.svg"
   inkscape:output_extension="org.inkscape.output.svg.inkscape">
  <metadata
     id="metadata7138">
    <rdf:RDF>
      <cc:Work
         rdf:about="">
        <dc:format>image/svg+xml</dc:format>
        <dc:type
           rdf:resource="http://purl.org/dc/dcmitype/StillImage" />
      </cc:Work>
    </rdf:RDF>
  </metadata>
  <defs
     id="defs7136">
    <inkscape:perspective
       sodipodi:type="inkscape:persp3d"
       inkscape:vp_x="0 : 526.18109 : 1"
       inkscape:vp_y="0 : 1000 : 0"
       inkscape:vp_z="744.09448 : 526.18109 : 1"
       inkscape:persp3d-origin="372.04724 : 350.78739 : 1"
       id="perspective7140" />
  </defs>
  <sodipodi:namedview
     inkscape:window-height="900"
     inkscape:window-width="1027"
     inkscape:pageshadow="2"
     inkscape:pageopacity="0.0"
     guidetolerance="10.0"
     gridtolerance="10.0"
     objecttolerance="10.0"
     borderopacity="1.0"
     bordercolor="#666666"
     pagecolor="#ffffff"
     id="base"
     showgrid="false"
     inkscape:zoom="2"
     inkscape:cx="113.50858"
     inkscape:cy="173.36079"
     inkscape:window-x="22"
     inkscape:window-y="29"
     inkscape:current-layer="svg7133" />
  <path
     style="fill:#000000"
     d="M 22.0625 18.5625 L 21.875 19.0625 C 21.76431 19.3302 21.40042 20.86255 21.09375 22.46875 C 20.78708 24.07485 20.431689 26.029999 20.28125 26.8125 C 18.48079 36.1769 16.732581 45.517699 16.59375 46.5 C 16.54718 46.8294 16.420951 47.284799 16.3125 47.5 C 16.13417 47.8538 16.0008 47.89945 15.03125 47.96875 C 14.36193 48.01665 13.89878 48.1214 13.8125 48.25 C 13.65257 48.4884 13.75439 50.28855 13.9375 50.46875 C 14.00524 50.53535 14.37935 50.626151 14.75 50.65625 C 15.98441 50.75665 21.25423 50.581201 21.40625 50.4375 C 21.48862 50.3596 21.562501 49.811849 21.5625 49.21875 L 21.5625 48.15625 L 20.8125 48.125 C 19.6206 48.0627 19.374999 47.949599 19.375 47.5625 C 19.375 47.0746 19.81835 44.48885 20 43.90625 C 20.09669 43.59615 20.261519 43.418499 20.46875 43.375 C 20.64767 43.3374 22.158341 43.262152 23.8125 43.21875 C 26.09943 43.15895 26.89738 43.200148 27.09375 43.34375 C 27.37207 43.54725 28.05287 46.371652 28.0625 47.34375 C 28.06833 47.93265 27.85982 48.053599 26.9375 48.0625 C 26.6904 48.0648 26.418251 48.120402 26.3125 48.1875 C 26.07835 48.3361 25.996939 50.278199 26.21875 50.5 C 26.41058 50.6919 33.182651 50.66105 33.375 50.46875 C 33.55682 50.28695 33.682539 48.94695 33.5625 48.46875 C 33.47917 48.13675 33.354451 48.089601 32.5625 48 C 32.07025 47.9443 31.602221 47.811249 31.53125 47.71875 C 31.41653 47.56925 31.262649 47.01375 31 45.84375 C 30.75718 44.76205 30.13307 41.994899 29.875 40.8125 C 29.71321 40.0712 29.2356 37.946949 28.8125 36.09375 C 27.24665 29.23495 26.685571 26.681401 26.25 24.5625 C 26.00448 23.3682 25.70667 22.0155 25.59375 21.5625 C 25.48084 21.1095 25.31358 20.348501 25.21875 19.875 C 24.97517 18.6586 24.856069 18.5625 23.34375 18.5625 L 22.0625 18.5625 z M 23.4375 25.9375 C 23.531423 25.938475 23.63574 26.03165 23.71875 26.25 C 23.85093 26.5977 25.02352 31.778601 25.75 35.1875 C 25.96941 36.2171 26.28891 37.622502 26.4375 38.3125 C 26.5861 39.0025 26.664341 39.6475 26.625 39.75 C 26.58566 39.8525 26.25238 39.97955 25.875 40.03125 C 25.49763 40.08305 24.237971 40.125 23.09375 40.125 C 20.69859 40.125 20.77469 40.193099 20.9375 38.75 C 21.09747 37.332 22.756699 28.276001 23.21875 26.25 C 23.26823 26.03305 23.343577 25.936525 23.4375 25.9375 z M 23.9375 56.0625 C 23.84236 56.0308 23.248361 56.981898 22.625 58.1875 C 22.00658 59.3836 20.796861 61.419051 19.9375 62.71875 C 16.80128 67.46175 15.77347 69.633451 15.5 72.03125 C 15.25201 74.20555 15.69988 75.589446 17 76.53125 C 17.85409 77.14995 18.518401 77.316103 19.6875 77.25 C 20.85886 77.1838 21.47054 76.819497 22.1875 75.75 C 22.64776 75.0634 23.256539 74.796449 23.28125 75.28125 C 23.37759 77.17135 22.57921 79.388601 21.28125 80.75 C 20.63836 81.4244 20.60257 81.728699 21.15625 81.8125 C 21.82592 81.914 26.960881 81.942746 27.21875 81.84375 C 27.56336 81.71155 27.5293 81.445497 27.0625 81 C 26.04446 80.0282 24.94093 77.594798 24.875 76.125 C 24.84045 75.3547 24.874561 75.259049 25.15625 75.21875 C 25.38633 75.18595 25.64139 75.36955 26.09375 75.96875 C 26.82186 76.93305 27.68751 77.366197 28.71875 77.25 C 30.84104 77.0107 32.402781 75.09825 32.53125 72.59375 C 32.61882 70.88645 32.301 69.871096 30.90625 67.1875 C 29.84694 65.1493 29.206371 64.100302 27.15625 61.125 C 26.79135 60.5955 25.97174 59.236001 25.3125 58.125 C 24.65325 57.014 24.03189 56.093999 23.9375 56.0625 z M 116.78125 96.03125 C 116.68985 96.00085 116.21741 96.683351 115.71875 97.53125 C 115.2201 98.37905 114.5222 99.434297 114.1875 99.875 C 113.85279 100.3157 113.59375 100.72225 113.59375 100.78125 C 113.59375 100.84025 113.15695 101.4091 112.65625 102.0625 C 112.15556 102.716 110.93328 104.33835 109.9375 105.65625 C 108.22644 107.92075 107.0935 109.3284 106.21875 110.25 C 106.00677 110.4733 105.55209 111 105.1875 111.4375 C 104.82291 111.8749 104.33493 112.4159 104.125 112.625 C 103.91507 112.8341 103.59289 113.1904 103.40625 113.4375 C 103.01635 113.9538 96.761349 120.4309 95.3125 121.8125 C 92.78495 124.2228 88.834087 127.882 87.53125 129 C 85.9746 130.3358 79.45059 137.07735 78.4375 138.40625 C 75.1738 142.68725 74.522103 143.59714 73.96875 144.65625 C 73.72165 145.12915 73.251862 145.90289 72.9375 146.375 C 72.62314 146.847 71.959648 148.05811 71.46875 149.0625 C 70.97786 150.0668 70.515113 150.98609 70.4375 151.125 C 69.85031 152.1759 68.845486 155.20291 68.53125 156.8125 C 67.51111 162.038 67.3239 163.28455 67.21875 166.15625 C 67.09776 169.46045 67.534359 173.94135 68.1875 176.40625 C 69.33323 180.73015 70.813167 183.8674 73.28125 187.125 C 77.87755 193.1917 82.570243 196.22636 88.71875 197.09375 C 92.25514 197.59265 95.21042 197.3818 98 196.4375 C 99.87947 195.8014 102.72428 194.5886 104.5625 193.625 C 106.56746 192.5739 107.05253 192.53535 107.78125 193.34375 C 108.48315 194.12235 108.40627 195.1707 107.34375 198.8125 C 106.66048 201.1545 106.03464 202.57169 104.40625 205.75 C 102.91791 208.6551 102.26521 209.81441 101.375 211 C 101.04379 211.4411 100.44308 212.2517 100.03125 212.8125 C 98.627702 214.7237 97.941359 215.57905 96.8125 216.84375 C 95.38588 218.44205 93.321377 220.53084 92.84375 220.84375 C 92.48493 221.07885 92.340238 221.48335 92.5625 221.71875 C 92.62427 221.78415 94.135374 221.8027 95.90625 221.75 C 97.67713 221.6973 107.54119 221.65585 117.8125 221.65625 C 129.49661 221.65675 136.63632 221.5908 136.875 221.5 C 137.44981 221.2815 137.31847 220.97999 136.375 220.1875 C 134.82245 218.8832 133.75593 217.60301 131.78125 214.75 C 131.20469 213.917 130.49395 212.9404 130.21875 212.5625 C 127.29615 208.5491 123.66511 200.899 122.96875 197.3125 C 122.54721 195.1414 122.50119 194.62146 122.78125 194.03125 C 123.36431 192.80255 124.4805 192.53 125.53125 193.375 C 126.88221 194.4615 127.52625 194.8714 129.53125 195.875 C 131.03048 196.6254 132.10329 197.04145 133.28125 197.34375 C 134.79751 197.73295 135.11902 197.7627 137.53125 197.75 C 139.55553 197.7393 140.50418 197.64994 141.71875 197.40625 C 146.1282 196.52165 147.63005 195.935 151.5 193.5625 C 154.99756 191.4183 158.71558 187.16201 160.78125 182.9375 C 160.98262 182.5257 161.26605 181.98175 161.40625 181.71875 C 161.81052 180.96065 162.67549 178.46015 163 177.09375 C 163.77246 173.84125 164.07217 171.32185 164.09375 167.84375 C 164.12588 162.66225 163.91386 161.26009 162.46875 155.8125 C 162.25025 154.9888 162.01157 154.1036 161.9375 153.8125 C 161.80238 153.2814 161.19237 151.7478 160.875 151.1875 C 160.7817 151.0228 160.21169 149.93435 159.625 148.78125 C 158.15631 145.89465 157.46363 144.74385 156 142.65625 C 153.15812 138.60265 150.28904 135.0559 147.28125 131.875 C 146.73608 131.2984 145.78328 130.23135 145.15625 129.53125 C 144.52922 128.83115 141.1339 125.38555 137.59375 121.84375 C 130.74931 114.99625 127.14784 111.10245 123.875 106.96875 C 123.56895 106.58225 123.01602 105.8906 122.65625 105.4375 C 121.83901 104.4085 120.46875 102.34085 120.46875 102.15625 C 120.46875 102.08025 120.37798 101.94995 120.25 101.84375 C 119.95245 101.59685 118.58846 99.321602 117.65625 97.5 C 117.25902 96.7237 116.87265 96.061749 116.78125 96.03125 z M 116.65625 102.9375 C 116.83958 102.9942 117.6036 103.9923 118.90625 105.875 C 120.39189 108.0222 123.55255 112.1649 124.0625 112.625 C 124.10814 112.6662 124.65331 113.28995 125.28125 114.03125 C 125.90919 114.77255 128.73347 117.6845 131.5625 120.5 C 135.99458 124.911 139.11362 128.08165 144.8125 134.03125 C 146.38276 135.67065 148.81377 138.47485 149.75 139.71875 C 150.15296 140.25415 151.00292 141.3709 151.625 142.1875 C 154.73458 146.2692 157.22551 150.51004 158.375 153.59375 C 159.16407 155.71065 160.08493 159.01666 160.5625 161.53125 C 160.93446 163.49005 160.92949 170.14625 160.5625 172.40625 C 160.02396 175.72295 158.73191 179.92621 157.65625 181.8125 C 157.44488 182.1832 157.05531 182.88509 156.8125 183.375 C 156.02957 184.9547 155.71815 185.34545 152.59375 188.53125 C 151.45114 189.69625 149.72334 191.09374 149.4375 191.09375 C 149.39557 191.09375 149.05469 191.3388 148.65625 191.625 C 148.02516 192.0784 147.27915 192.45644 145.40625 193.28125 C 144.67635 193.60265 142.79387 194.0694 141.5 194.25 C 139.78208 194.4898 139.88429 194.4823 138 194.375 C 135.66939 194.2423 134.4699 193.9247 132.71875 193 C 131.54704 192.3812 130.94764 191.9454 129.9375 190.9375 C 128.52819 189.5313 128.19654 189.04485 127.46875 187.28125 C 126.89124 185.88175 126.81199 184.47716 127.25 183.65625 C 127.64298 182.91965 127.93375 182.91954 129.40625 183.65625 C 130.97585 184.44165 132.30076 184.80005 134.0625 184.90625 C 137.31607 185.10235 140.87515 183.6579 143.4375 181.125 C 144.72699 179.8503 145.16122 179.30206 146.28125 177.40625 C 147.48766 175.36425 148.67751 172.12491 148.9375 170.125 C 149.01781 169.5072 149.13776 168.59746 149.21875 168.09375 C 149.52173 166.20925 149.31637 161.75406 148.78125 159.03125 C 148.36652 156.92095 147.66567 153.98585 147.34375 152.90625 C 147.23323 152.53565 146.99384 151.71155 146.8125 151.09375 C 146.47889 149.95725 145.87874 148.3474 145.28125 147 C 144.66567 145.6119 142.44292 141.30505 141.6875 140.03125 C 139.00243 135.50365 138.46372 134.6996 135.8125 131.25 C 135.06536 130.2778 133.75645 128.5495 132.90625 127.4375 C 131.19291 125.1967 130.45059 124.27665 128.03125 121.40625 C 127.12522 120.33125 126.16328 119.1663 125.875 118.8125 C 123.8653 116.3458 122.97772 115.32815 122.8125 115.15625 C 121.83744 114.14165 118.96351 110.2207 118.09375 108.75 C 117.49354 107.7351 116.89716 106.88825 116.78125 106.84375 C 116.48752 106.73105 116.17246 107.01075 115.5625 107.96875 C 115.1035 108.68965 113.61917 110.57305 112.96875 111.28125 C 112.8452 111.41575 112.41183 111.95165 112 112.46875 C 111.58817 112.98595 111.1152 113.58395 110.9375 113.78125 C 110.7598 113.97845 110.40032 114.4083 110.125 114.75 C 109.84968 115.0916 109.23427 115.80725 108.78125 116.34375 C 108.32824 116.88015 107.31373 118.1023 106.53125 119.0625 C 104.6758 121.3392 102.25607 124.21315 101.5625 124.96875 C 101.09091 125.48255 98.627472 128.54209 97.1875 130.375 C 96.9404 130.6895 96.650552 131.00535 96.5625 131.09375 C 96.47446 131.18215 96.160979 131.64076 95.84375 132.09375 C 95.52653 132.54675 94.65543 133.73034 93.90625 134.71875 C 92.51362 136.55615 89.973971 140.31261 89.28125 141.5625 C 89.06897 141.9456 88.730654 142.4955 88.53125 142.8125 C 87.34907 144.6924 84.600297 150.68886 84.28125 152.09375 C 84.22514 152.34075 84.016294 153.01724 83.8125 153.59375 C 83.42869 154.67965 82.814013 157.43195 82.34375 160.03125 C 82.12408 161.24535 82.061132 162.31915 82.0625 165.71875 C 82.06436 170.33965 82.148297 170.86885 83.21875 173.84375 C 83.8013 175.46275 84.68903 177.18954 85.6875 178.59375 C 87.71676 181.44775 91.755008 183.97769 95.0625 184.5 C 96.53332 184.7323 98.638875 184.63375 100.1875 184.21875 C 101.46131 183.87745 101.66909 183.75581 102.59375 183.125 C 103.39018 182.5816 103.71252 182.59185 104.1875 183.15625 C 104.76932 183.84775 104.84491 184.5245 104.4375 185.6875 C 103.7103 187.7632 102.88702 188.9222 101.125 190.3125 C 99.227572 191.8096 96.843208 192.80495 93.90625 193.34375 C 92.02012 193.68975 87.902323 193.48724 86.1875 192.96875 C 84.5751 192.48125 81.110993 190.59735 79.96875 189.59375 C 79.41953 189.11115 77.273418 186.87315 76.6875 186.15625 C 75.83052 185.10765 73.943371 182.1463 73.46875 181.125 C 73.2008 180.5484 72.890213 179.92464 72.78125 179.71875 C 72.45728 179.10655 71.665963 176.33255 71.28125 174.40625 C 70.79976 171.99545 70.699348 170.69229 70.71875 167.5 C 70.73564 164.7204 70.815102 163.78455 71.3125 161.21875 C 71.47218 160.39515 71.711958 159.21145 71.8125 158.59375 C 71.91303 157.97595 72.179733 156.8876 72.40625 156.1875 C 72.63278 155.4874 72.920963 154.52264 73.0625 154.03125 C 73.20405 153.53975 73.617371 152.5992 73.96875 151.9375 C 74.32013 151.2758 74.990443 149.99975 75.46875 149.09375 C 76.33544 147.45205 77.551732 145.52675 78.34375 144.53125 C 78.5731 144.24295 79.356581 143.22845 80.09375 142.28125 C 80.83092 141.33405 82.014047 139.90129 82.71875 139.125 C 84.39089 137.2832 94.127348 127.5336 97.8125 124 C 99.39682 122.4809 101.97819 119.82345 103.5625 118.09375 C 105.1468 116.36405 107.04328 114.33505 107.75 113.59375 C 108.45673 112.85245 109.41637 111.7428 109.90625 111.125 C 110.39613 110.5073 110.86016 109.9786 110.90625 109.9375 C 111.13078 109.7368 113.09685 107.22065 114.5625 105.28125 C 116.28226 103.00555 116.41378 102.8626 116.65625 102.9375 z M 116.6875 103.9375 C 116.51785 103.9375 115.13806 105.57355 113.96875 107.15625 C 113.23247 108.15295 111.24639 110.5054 109.3125 112.6875 C 108.73594 113.338 108.1045 114.0558 107.90625 114.3125 C 107.70799 114.5692 106.98379 115.3624 106.3125 116.0625 C 105.64122 116.7626 104.44398 118.0947 103.625 119 C 102.80603 119.9054 98.164753 124.58715 93.34375 129.40625 C 85.52891 137.21805 83.375476 139.50096 82.5625 140.78125 C 82.43175 140.98715 81.942908 141.5525 81.5 142.0625 C 78.69395 145.2934 77.150447 147.56961 75.6875 150.5 C 73.36252 155.1572 72.458589 158.36355 71.8125 164.21875 C 71.49153 167.12745 71.471542 171.10644 71.78125 172.96875 C 72.45185 177.00085 73.861017 180.61584 76.03125 183.84375 C 78.093 186.91035 80.575571 189.20724 83.78125 191.03125 C 86.75237 192.72175 91.53434 193.2907 94.875 192.375 C 97.57631 191.6346 99.42249 190.70985 101.1875 189.15625 C 103.44205 187.17175 104.86749 182.6493 102.875 183.8125 C 101.70265 184.4969 101.45213 184.62995 100.46875 184.96875 C 99.542672 185.28775 99.171952 185.34375 97.1875 185.34375 C 94.43722 185.34375 93.292398 185.07364 91.21875 184.03125 C 88.9155 182.87335 87.916127 182.17651 86.625 180.8125 C 82.18611 176.1231 80.540778 170.3804 81.28125 162.1875 C 81.71808 157.3543 82.2813 155.1934 84.8125 148.4375 C 85.28921 147.1651 86.587802 144.47636 87.0625 143.78125 C 87.20313 143.57535 87.591389 142.89895 87.90625 142.28125 C 88.68865 140.74615 90.126428 138.4894 91.9375 136 C 94.88347 131.9507 96.02988 130.5121 100.5625 125.1875 C 101.16922 124.4748 102.0683 123.38385 102.5625 122.78125 C 103.0567 122.17865 103.7803 121.3519 104.15625 120.9375 C 104.53221 120.5231 105.25621 119.6589 105.78125 119 C 106.30629 118.341 107.41996 117.0097 108.25 116.0625 C 111.6709 112.1587 112.99684 110.49635 114.90625 107.65625 C 115.87723 106.21195 116.39304 105.59375 116.59375 105.59375 C 116.77873 105.59375 117.05194 105.8809 117.40625 106.4375 C 118.94172 108.8499 122.24638 113.53335 123.25 114.71875 C 123.42502 114.92545 123.85839 115.453 124.21875 115.875 C 124.5791 116.297 125.17053 116.94325 125.5 117.34375 C 125.82946 117.74425 126.54844 118.62845 127.125 119.28125 C 128.24208 120.54605 131.04688 123.9495 132.53125 125.875 C 133.02545 126.5161 133.70178 127.37605 134.03125 127.78125 C 135.97091 130.16645 136.79096 131.33564 140.125 136.34375 C 142.92505 140.54975 145.42488 145.11339 146.375 147.75 C 146.5234 148.1618 146.91812 149.17629 147.25 150 C 148.04386 151.9702 148.77742 154.696 149.59375 158.6875 C 150.41575 162.7069 150.30566 168.5254 149.34375 172.0625 C 148.38907 175.5731 146.45835 179.31624 144.53125 181.34375 C 143.18217 182.76305 140.67049 184.38545 138.71875 185.09375 C 135.60923 186.22225 132.91021 186.08034 129.5 184.65625 C 128.90173 184.40645 128.31063 184.26529 128.1875 184.3125 C 127.57987 184.5457 127.76276 186.03479 128.59375 187.6875 C 129.0625 188.6198 129.48505 189.20405 130.625 190.34375 C 131.94346 191.66185 132.21144 191.82965 133.4375 192.34375 C 134.64205 192.84895 136.35939 193.33126 137.625 193.53125 C 138.39366 193.65265 140.99698 193.4886 142.03125 193.25 C 145.70209 192.4032 150.64139 189.56329 152.90625 187 C 156.8445 182.5429 158.45952 178.94099 159.5 172.375 C 159.8687 170.0483 159.8714 165.29395 159.5 162.40625 C 159.14566 159.65115 158.35174 156.3326 157.625 154.5625 C 156.49587 151.8124 155.38768 149.3641 155 148.75 C 154.78459 148.4087 154.625 148.08306 154.625 148.03125 C 154.625 147.85195 152.45073 144.4408 151.34375 142.875 C 149.94082 140.8905 148.45145 139.12281 146 136.5 C 145.91505 136.4091 145.16741 135.5615 144.34375 134.625 C 143.52008 133.6886 141.47317 131.51316 139.78125 129.78125 C 138.08933 128.04935 136.08961 125.9699 135.34375 125.1875 C 133.48796 123.2406 132.85394 122.59695 130.34375 120.15625 C 129.14921 118.99475 127.84618 117.6664 127.4375 117.1875 C 126.46711 116.0503 123.37963 112.70795 122.6875 112.03125 C 121.36485 110.73815 119.92773 108.75435 118.8125 106.71875 C 118.29989 105.78305 116.89303 103.9375 116.6875 103.9375 z M 116.5625 108.4375 C 116.76072 108.4375 117.14038 108.9219 117.78125 110.0625 C 118.86602 111.9933 121.29708 115.3457 123.25 117.625 C 123.67342 118.1192 124.6637 119.37675 125.46875 120.40625 C 126.27381 121.43585 127.52055 122.97885 128.21875 123.84375 C 128.91694 124.70855 130.12114 126.3256 130.90625 127.4375 C 131.69135 128.5495 132.57982 129.80695 132.90625 130.21875 C 133.23267 130.63065 133.9926 131.64505 134.5625 132.46875 C 135.1324 133.29235 135.80597 134.25431 136.0625 134.625 C 136.99979 135.9793 138.86159 138.9403 140.15625 141.125 C 140.82795 142.2585 142.39685 145.5854 143 147.125 C 143.36024 148.0445 143.89069 149.3624 144.1875 150.0625 C 144.48432 150.7626 144.98597 152.23175 145.28125 153.34375 C 145.57652 154.45565 145.94029 155.8609 146.09375 156.4375 C 146.24722 157.0141 146.51067 158.31416 146.6875 159.34375 C 146.97571 161.02175 147.01763 161.57326 146.9375 164.59375 C 146.85538 167.68935 146.69133 168.99046 146.21875 171.09375 C 146.12698 171.50215 146.00492 171.91431 145.9375 172 C 145.87008 172.0857 145.77793 172.42059 145.71875 172.75 C 145.56583 173.6014 143.97426 176.7824 143.15625 177.875 C 142.40273 178.8814 140.74047 180.29565 139.65625 180.84375 C 139.27872 181.03465 138.25793 181.39384 137.40625 181.65625 C 135.60537 182.21115 133.44994 182.42984 133.03125 182.09375 C 132.8931 181.98275 132.61045 181.47874 132.40625 180.96875 C 131.89778 179.69875 131.20647 178.88955 130.21875 178.40625 C 129.48068 178.04515 129.2226 177.9938 127.84375 178 C 126.57534 178.0057 126.33246 177.97671 126.46875 177.8125 C 126.55988 177.7027 126.97844 177.52404 127.375 177.40625 C 128.00173 177.22015 128.22124 177.21735 129.03125 177.40625 C 130.92119 177.84715 132.24438 178.8829 133.09375 180.5625 C 133.48982 181.3457 133.85837 181.47695 135.15625 181.34375 C 137.52193 181.10085 140.13496 179.81075 141.84375 178.03125 C 142.52832 177.31825 143.68751 175.78335 143.6875 175.59375 C 143.6875 175.55415 143.83457 175.1849 144.03125 174.75 C 144.22795 174.3152 144.52175 173.65184 144.6875 173.28125 C 145.87041 170.63575 146.37199 163.66255 145.71875 158.96875 C 145.1288 154.72965 143.20331 148.77996 141.0625 144.59375 C 140.85189 144.18195 140.68784 143.78125 140.6875 143.71875 C 140.68646 143.53105 138.44987 139.4468 137.5625 138 C 136.06529 135.5589 135.11614 134.16575 131.9375 129.90625 C 131.52566 129.35445 130.71279 128.25705 130.15625 127.46875 C 129.16419 126.06355 127.83977 124.30435 127.65625 124.15625 C 127.60522 124.11505 126.84531 123.1744 125.96875 122.0625 C 125.09219 120.9505 123.3734 118.7882 122.15625 117.25 C 120.93911 115.7118 119.59933 113.93985 119.1875 113.34375 C 118.77567 112.74775 118.36814 112.2146 118.28125 112.125 C 118.19435 112.0353 117.86812 111.52875 117.53125 111.03125 C 116.81476 109.97305 116.53223 109.7539 116.25 109.875 C 116.13661 109.9237 115.65045 110.50025 115.15625 111.15625 C 114.35858 112.21515 113.22822 113.6771 111.75 115.5625 C 111.48561 115.8997 110.80648 116.7451 110.25 117.4375 C 109.69352 118.1299 108.78482 119.26865 108.25 119.96875 C 107.71517 120.66885 107.20051 121.34525 107.09375 121.46875 C 106.9166 121.67385 105.81063 123.10465 103.96875 125.53125 C 103.57973 126.04375 103.04748 126.78565 102.78125 127.15625 C 102.51502 127.52695 101.51339 128.87435 100.5625 130.15625 C 99.611602 131.43805 98.431703 133.06365 97.9375 133.78125 C 97.4433 134.49885 96.661531 135.5924 96.21875 136.1875 C 94.85232 138.024 93.429121 140.26915 92.0625 142.71875 C 91.85572 143.08945 91.623449 143.44885 91.5625 143.53125 C 91.25476 143.94715 88.874998 148.87475 88.875 149.09375 C 88.875 149.14045 88.520102 150.14641 88.09375 151.3125 C 86.66104 155.231 86.000763 157.8791 85.40625 162.1875 C 85.03614 164.8697 85.380628 169.3709 86.125 171.6875 C 86.67865 173.4106 88.040548 175.6987 89.3125 177.0625 C 90.67368 178.522 93.678033 180.35295 95.5625 180.84375 C 96.4296 181.06965 98.090438 181.13786 98.53125 180.96875 C 98.66535 180.91725 98.947599 180.53681 99.15625 180.125 C 99.59018 179.2687 100.35015 178.48545 101.21875 178.03125 C 101.93678 177.65575 103.63987 177.4904 104.125 177.75 C 104.64527 178.0285 104.34438 178.21875 103.375 178.21875 C 102.88302 178.21875 102.26504 178.32211 102 178.4375 C 101.21858 178.7776 100.05521 179.9333 99.65625 180.75 C 99.2092 181.6652 98.841566 181.81251 97.28125 181.8125 C 96.00978 181.8125 94.148742 181.29691 92.6875 180.5625 C 87.44652 177.9286 84.70593 173.19739 84.46875 166.375 C 84.35449 163.0885 84.580128 161.4151 86.03125 154.625 C 86.16934 153.9789 87.212967 151.04854 87.875 149.46875 C 88.50357 147.96875 90.091123 144.5075 90.375 144 C 90.5147 143.7503 91.039541 142.7597 91.5625 141.8125 C 92.55542 140.0141 96.251672 134.45716 97.46875 132.90625 C 97.85657 132.41205 98.683159 131.35495 99.3125 130.53125 C 99.94184 129.70765 100.78783 128.6192 101.1875 128.125 C 102.11681 126.9759 101.78117 127.38865 104.53125 123.78125 C 105.84537 122.05755 107.17053 120.2992 107.5 119.875 C 107.82946 119.4508 108.60432 118.4423 109.21875 117.625 C 109.83318 116.8078 111.23608 115.0678 112.3125 113.75 C 113.38892 112.4321 114.77098 110.6781 115.375 109.875 C 115.97902 109.0719 116.5021 108.4375 116.5625 108.4375 z M 127.6875 118.6875 C 127.70961 118.64016 127.80016 118.6598 127.96875 118.75 C 128.13348 118.8382 128.24999 119.03555 128.25 119.15625 C 128.25 119.46885 127.9953 119.4041 127.8125 119.0625 C 127.69997 118.85225 127.66539 118.73484 127.6875 118.6875 z M 103.34375 120.59375 C 103.38446 120.57352 103.40625 120.57315 103.40625 120.59375 C 103.40625 120.63495 103.2798 120.74125 103.15625 120.84375 C 103.0327 120.94635 102.9375 121.00995 102.9375 120.96875 C 102.9375 120.92755 103.0327 120.82125 103.15625 120.71875 C 103.21802 120.66745 103.30304 120.61398 103.34375 120.59375 z M 129.65625 120.75 C 129.76502 120.6412 130.18749 120.996 130.1875 121.1875 C 130.1875 121.2597 130.13478 121.3125 130.0625 121.3125 C 129.871 121.3125 129.54748 120.8587 129.65625 120.75 z M 101.25 122.78125 C 101.27762 122.78777 101.3125 122.83305 101.3125 122.875 C 101.3125 122.9061 101.18793 122.98965 101.0625 123.09375 C 100.87181 123.25205 100.85862 123.268 100.9375 123.0625 C 100.99791 122.90507 101.16713 122.7617 101.25 122.78125 z M 131.46875 122.8125 C 131.49966 122.79787 131.52953 122.8125 131.59375 122.8125 C 131.795 122.8125 132.4375 123.40525 132.4375 123.59375 C 132.4375 123.85285 131.87285 123.67435 131.65625 123.34375 C 131.43609 123.00775 131.37601 122.85639 131.46875 122.8125 z M 99.4375 124.71875 C 99.485526 124.71354 99.536955 124.72445 99.5625 124.75 C 99.67652 124.864 99.594651 125.08665 99.28125 125.53125 C 98.69812 126.35875 98.312503 126.44825 98.3125 125.78125 C 98.3125 125.45146 99.101319 124.7552 99.4375 124.71875 z M 133.78125 125.1875 C 134.11716 125.1875 134.73708 126.05165 134.625 126.34375 C 134.49992 126.66975 134.30123 126.60035 133.875 126.09375 C 133.42169 125.55505 133.39859 125.1875 133.78125 125.1875 z M 97.09375 126.9375 C 97.183107 126.9031 97.254606 126.926 97.34375 127 C 97.62661 127.2347 97.603907 127.5839 97.3125 128 C 97.00696 128.4362 96.62281 128.6532 96.375 128.5 C 96.0998 128.33 96.246469 127.7596 96.71875 127.25 C 96.87483 127.0816 97.004393 126.9719 97.09375 126.9375 z M 135.75 127.3125 C 135.99486 127.27459 136.46915 127.63027 136.71875 128.09375 C 136.97636 128.57215 136.97693 128.6888 136.78125 128.8125 C 136.45148 129.021 136.4072 128.96945 136.0625 128.53125 C 135.72206 128.09845 135.50873 127.49135 135.65625 127.34375 C 135.67993 127.32008 135.71502 127.31792 135.75 127.3125 z M 95.21875 129.0625 C 95.296687 129.06103 95.3486 129.06735 95.40625 129.125 C 95.69275 129.4115 95.523389 130.03345 95 130.59375 C 94.52839 131.09865 94.39178 131.1339 94.125 130.8125 C 93.754621 130.36625 94.673189 129.07278 95.21875 129.0625 z M 137.71875 129.71875 C 137.99912 129.68655 138.24137 129.8039 138.5 130.0625 C 138.93978 130.5023 138.97672 130.64835 138.65625 130.96875 C 138.3242 131.30085 138.02936 131.2481 137.59375 130.8125 C 137.0961 130.3148 137.15606 129.78365 137.71875 129.71875 z M 92.65625 131.25 C 92.806081 131.20196 92.874915 131.2665 93 131.4375 C 93.30682 131.8571 93.24886 132.46915 92.84375 132.90625 C 92.64177 133.12415 92.388152 133.28374 92.28125 133.28125 C 91.93728 133.27315 91.561918 132.98076 91.5625 132.71875 C 91.56332 132.34285 92.086408 131.54835 92.46875 131.34375 C 92.538528 131.3064 92.606306 131.26601 92.65625 131.25 z M 140.0625 131.8125 C 140.78685 131.85563 141.34158 132.65846 140.84375 133.15625 C 140.25135 133.74865 139.34375 133.33206 139.34375 132.46875 C 139.34375 132.03745 139.41234 131.92845 139.75 131.84375 C 139.85817 131.8166 139.95902 131.80634 140.0625 131.8125 z M 90.375 133.65625 C 90.585092 133.62503 90.832515 133.6618 91.0625 133.8125 C 91.52628 134.1164 91.562703 134.98455 91.125 135.21875 C 90.68105 135.45635 90.236454 135.42395 89.90625 135.09375 C 89.328473 134.51603 89.744723 133.7499 90.375 133.65625 z M 141.6875 134.125 C 141.86821 134.09983 142.07961 134.12957 142.3125 134.25 C 142.89839 134.553 143.05736 135.12265 142.6875 135.53125 C 142.32572 135.93105 141.66853 135.9191 141.375 135.5 C 140.90716 134.83205 141.14536 134.20051 141.6875 134.125 z M 88.46875 135.84375 C 88.630126 135.8367 88.7487 135.89622 88.8125 136.0625 C 88.89226 136.2703 88.279058 137.27105 87.90625 137.53125 C 87.52246 137.79905 87.218751 137.61896 87.21875 137.15625 C 87.21875 136.52415 87.984621 135.8649 88.46875 135.84375 z M 144.25 136.15625 C 144.49504 136.22928 145.16002 136.91943 145.5 137.46875 C 145.75775 137.88525 145.79827 137.98405 145.625 138.09375 C 145.33759 138.27575 145.12866 138.25075 144.84375 138.03125 C 144.57032 137.82065 144.03987 136.33511 144.1875 136.1875 C 144.20342 136.17157 144.21499 136.14582 144.25 136.15625 z M 89.90625 136.3125 C 89.983036 136.29472 90.019633 136.36365 90.125 136.5 C 90.35737 136.8007 90.285939 137.11356 89.8125 137.65625 C 89.56716 137.93755 89.439392 138.00185 89.28125 137.84375 C 89.06558 137.62805 89.17488 137.02461 89.53125 136.625 C 89.71196 136.42235 89.829464 136.33028 89.90625 136.3125 z M 142.65625 136.75 C 142.84833 136.6837 143.11588 136.7818 143.3125 137.0625 C 143.51904 137.3574 143.63213 138.21876 143.46875 138.21875 C 143.43431 138.21875 143.30787 138.26631 143.1875 138.3125 C 142.95575 138.4014 142.34375 137.74364 142.34375 137.40625 C 142.34375 137.05765 142.46417 136.8163 142.65625 136.75 z M 88.15625 138.4375 C 88.261146 138.412 88.343782 138.43015 88.40625 138.46875 C 88.62695 138.60515 88.60411 139.2465 88.34375 139.75 C 87.88232 140.6423 86.815554 140.06275 87.25 139.15625 C 87.405438 138.83195 87.841563 138.51399 88.15625 138.4375 z M 85.71875 138.46875 C 85.859183 138.43171 85.98603 138.44185 86.09375 138.53125 C 86.42201 138.80365 86.367589 139.3638 85.9375 139.875 C 85.72426 140.1284 85.470631 140.319 85.375 140.3125 C 84.97951 140.2856 84.8125 140.1317 84.8125 139.75 C 84.8125 139.1767 85.297452 138.57987 85.71875 138.46875 z M 144.28125 139.15625 C 144.35725 139.13539 144.42631 139.15922 144.5 139.1875 C 144.85999 139.3257 145.20001 139.9777 145.09375 140.3125 C 144.89073 140.9522 143.84375 140.50805 143.84375 139.78125 C 143.84375 139.49873 144.05325 139.21884 144.28125 139.15625 z M 146.59375 139.46875 C 146.69486 139.44696 146.80679 139.45747 146.9375 139.46875 C 147.59872 139.52575 148.08005 140.08825 147.9375 140.65625 C 147.8129 141.15275 147.40109 141.2481 146.78125 140.9375 C 145.90299 140.49738 145.886 139.62127 146.59375 139.46875 z M 86.1875 140.78125 C 86.406546 140.7528 86.627974 140.8586 86.8125 141.0625 C 87.16659 141.4537 87.118071 141.8305 86.65625 142.3125 C 85.69254 143.3184 84.774192 142.36975 85.59375 141.21875 C 85.77256 140.96765 85.968454 140.8097 86.1875 140.78125 z M 83.84375 141.21875 C 84.3954 141.21875 84.585078 142.07529 84.15625 142.6875 C 84.02607 142.8734 83.762074 143.03124 83.5625 143.03125 C 83.2475 143.03125 82.718748 142.5447 82.71875 142.25 C 82.71875 141.9671 83.534927 141.21875 83.84375 141.21875 z M 145.84375 141.53125 C 146.20357 141.5367 146.60519 141.7889 146.78125 142.15625 C 146.94247 142.49265 146.94311 142.63095 146.78125 142.96875 C 146.5648 143.42035 146.3083 143.51501 145.8125 143.3125 C 145.1584 143.0454 144.95882 141.96379 145.5 141.625 C 145.59316 141.56668 145.72381 141.52943 145.84375 141.53125 z M 148.4375 141.96875 C 149.01041 141.96875 149.77191 143.17036 149.5 143.65625 C 149.20416 144.18485 148.01354 143.7319 147.78125 143 C 147.65987 142.6176 148.07465 141.96875 148.4375 141.96875 z M 81.84375 143.625 C 82.113502 143.62969 82.361879 143.88318 82.40625 144.25 C 82.45752 144.6739 82.297463 144.82006 81.3125 145.34375 C 80.48584 145.78325 80.485331 145.7875 80.375 145.5 C 80.28272 145.2595 81.131659 143.98935 81.5625 143.71875 C 81.651095 143.66307 81.753833 143.62344 81.84375 143.625 z M 84.28125 143.71875 C 84.563184 143.66005 84.844595 143.77305 85 144 C 85.21048 144.3074 85.11013 144.98365 84.8125 145.28125 C 84.45917 145.63455 83.608241 145.66235 83.34375 145.34375 C 83.11554 145.06875 83.51 144.16485 84 143.84375 C 84.083907 143.78877 84.187272 143.73832 84.28125 143.71875 z M 147.3125 144.5 C 147.69162 144.43233 148.20537 144.57144 148.46875 144.90625 C 148.87118 145.41785 148.86151 146.25856 148.46875 146.46875 C 148.04795 146.69395 147.80232 146.64861 147.375 146.3125 C 146.90521 145.943 146.67799 145.29185 146.84375 144.84375 C 146.91501 144.65111 147.08503 144.5406 147.3125 144.5 z M 150.34375 144.6875 C 150.57649 144.63718 150.87207 144.71969 151.125 145 C 151.71035 145.6488 152.01406 146.2924 151.84375 146.5625 C 151.75716 146.6997 151.60774 146.8509 151.53125 146.875 C 151.25418 146.9621 150.19861 146.22639 150 145.8125 C 149.72566 145.24069 149.95584 144.77136 150.34375 144.6875 z M 81.71875 146.21875 C 81.795645 146.21048 81.861488 146.20239 81.9375 146.25 C 82.33203 146.4971 82.34877 147.39189 81.96875 147.875 C 81.59805 148.3463 81.495653 148.3395 81.15625 148 C 80.686077 147.52986 81.180485 146.27665 81.71875 146.21875 z M 83.59375 146.625 C 84.091142 146.55999 84.440036 147.32627 84 147.8125 C 83.85707 147.9705 83.663191 148.125 83.5625 148.125 C 83.02113 148.125 82.874268 147.03225 83.375 146.71875 C 83.450317 146.67159 83.522694 146.63429 83.59375 146.625 z M 79.375 147.09375 C 79.659541 147.11354 79.800542 147.34982 79.84375 147.78125 C 79.87755 148.11875 79.777477 148.3574 79.46875 148.6875 C 78.62072 149.5943 78.024951 149.36116 78.125 148.15625 C 78.16383 147.68845 78.247038 147.53355 78.71875 147.28125 C 78.974811 147.1443 79.204276 147.08187 79.375 147.09375 z M 150.03125 147.25 C 150.20191 147.22699 150.4181 147.3556 150.65625 147.59375 C 150.97003 147.90745 151.03733 148.08775 151 148.59375 C 150.94788 149.30025 150.79533 149.38984 150.25 149.09375 C 149.7477 148.82105 149.51225 148.25724 149.65625 147.71875 C 149.73124 147.43835 149.86059 147.27301 150.03125 147.25 z M 147.75 147.4375 C 147.87266 147.40384 148.01652 147.43972 148.1875 147.53125 C 148.52095 147.70965 148.98284 148.6499 148.84375 148.875 C 148.6721 149.1527 147.897 149.0312 147.65625 148.6875 C 147.27174 148.1385 147.38202 147.53848 147.75 147.4375 z M 152.71875 147.8125 C 153.09076 147.8125 153.56249 148.5775 153.5625 149.1875 C 153.5625 150.2627 152.51188 150.23885 152.1875 149.15625 C 152.04483 148.68005 152.0722 148.50649 152.28125 148.1875 C 152.41862 147.9778 152.60308 147.8125 152.71875 147.8125 z M 82.5 148.78125 C 82.551338 148.77709 82.57884 148.79479 82.625 148.8125 C 83.23275 149.0457 83.366817 149.97734 82.84375 150.46875 C 82.21418 151.06015 81.687499 150.7796 81.6875 149.8125 C 81.6875 149.3512 82.140635 148.81038 82.5 148.78125 z M 80.15625 149.34375 C 80.494658 149.27617 80.781251 149.59206 80.78125 150.21875 C 80.78125 150.61725 80.695963 150.88205 80.46875 151.09375 C 80.06431 151.47055 79.849899 151.47711 79.53125 151.125 C 79.21516 150.7757 79.208523 150.45265 79.53125 149.90625 C 79.723471 149.58086 79.953205 149.3843 80.15625 149.34375 z M 149.09375 149.8125 C 149.18414 149.79428 149.29905 149.78559 149.40625 149.8125 C 149.97976 149.9564 150.21236 151.1626 149.75 151.625 C 149.45088 151.9241 149.32558 151.91596 148.9375 151.59375 C 148.28005 151.04792 148.46101 149.94004 149.09375 149.8125 z M 77.46875 150.375 C 78.08357 150.375 78.288423 151.57405 77.78125 152.21875 C 77.3849 152.72265 76.781513 152.73069 76.5625 152.25 C 76.24682 151.5572 76.826657 150.375 77.46875 150.375 z M 151.65625 150.375 C 151.89928 150.40454 152.13698 150.5298 152.28125 150.75 C 152.58989 151.221 152.62863 152.28825 152.34375 152.46875 C 152.05424 152.65215 152.00086 152.65731 151.5625 152.3125 C 151.05805 151.9156 150.72905 150.92025 151 150.59375 C 151.15278 150.4097 151.41322 150.34546 151.65625 150.375 z M 154.1875 151 C 154.2385 150.99989 154.29698 151.01331 154.34375 151.03125 C 154.98151 151.27605 155.58958 152.83446 155.21875 153.28125 C 154.65698 153.95815 153.42528 152.9629 153.40625 151.8125 C 153.39965 151.41376 153.8305 151.00075 154.1875 151 z M 81.40625 151.875 C 81.572991 151.89794 81.715885 151.99835 81.84375 152.15625 C 82.2216 152.62295 82.186579 153.15725 81.75 153.59375 C 81.08645 154.25735 80.343754 153.91356 80.34375 152.96875 C 80.34375 152.28602 80.906027 151.80618 81.40625 151.875 z M 78.8125 152.3125 C 79.155787 152.21918 79.4375 152.63837 79.4375 153.5 C 79.4375 154.1934 79.114231 154.92281 78.75 155.0625 C 78.38658 155.202 78.301783 155.17389 78.03125 154.875 C 77.68201 154.4891 77.718789 153.92581 78.15625 153.0625 C 78.378228 152.62446 78.606528 152.36849 78.8125 152.3125 z M 150.3125 152.8125 C 150.40911 152.79672 150.51192 152.78411 150.625 152.8125 C 151.04472 152.9178 151.2323 153.32425 151.15625 154.09375 C 151.12638 154.39595 150.9534 154.6782 150.75 154.8125 C 150.44789 155.0119 150.41149 155.00526 150.0625 154.65625 C 149.4142 154.00796 149.6362 152.92299 150.3125 152.8125 z M 152.8125 153.6875 C 152.96273 153.68206 153.12442 153.72333 153.28125 153.84375 C 153.86909 154.29505 154.02108 155.15324 153.625 155.71875 C 153.12824 156.42795 152.38961 155.9935 152.15625 154.875 C 152.01758 154.21035 152.36182 153.70383 152.8125 153.6875 z M 76.25 153.8125 C 76.654884 153.72786 76.921605 154.03094 77.09375 154.75 C 77.17981 155.1096 77.123373 155.2516 76.625 155.75 C 75.73971 156.6353 74.781252 156.51249 74.78125 155.5 C 74.78125 155.079 74.916898 154.8331 75.375 154.375 C 75.712781 154.0372 76.00707 153.86329 76.25 153.8125 z M 155.65625 154.84375 C 155.90243 154.8434 156.14144 154.96725 156.3125 155.15625 C 156.45579 155.31465 156.61297 155.70856 156.65625 156.03125 C 156.72459 156.54065 156.70065 156.65681 156.34375 156.9375 C 156.11764 157.1153 155.89442 157.2565 155.84375 157.25 C 155.14383 157.1602 154.66498 155.89905 155.0625 155.15625 C 155.16387 154.96685 155.41007 154.8441 155.65625 154.84375 z M 80.5625 155 C 80.98658 155 81.07807 155.06351 81.15625 155.375 C 81.28955 155.9061 81.006913 156.53606 80.46875 156.84375 C 79.90684 157.16515 79.828341 157.1721 79.53125 156.875 C 78.95543 156.2992 79.664208 154.99999 80.5625 155 z M 151.03125 155.84375 C 151.79371 155.89054 152.37538 157.39379 151.65625 157.96875 C 151.30557 158.24915 151.06573 158.19109 150.71875 157.75 C 150.15783 157.0369 150.14559 156.18995 150.6875 155.90625 C 150.80087 155.8469 150.92233 155.83707 151.03125 155.84375 z M 77.625 156.375 C 77.821873 156.37215 78.019722 156.497 78.21875 156.75 C 78.60845 157.2454 78.631281 157.78085 78.25 158.40625 C 78.08644 158.67445 77.809748 158.90625 77.65625 158.90625 C 76.89197 158.90625 76.474688 157.456 77.03125 156.75 C 77.23531 156.4911 77.428127 156.37785 77.625 156.375 z M 153.65625 157.125 C 153.91787 157.11672 154.19098 157.20292 154.375 157.40625 C 154.52105 157.56765 154.67731 157.97605 154.71875 158.34375 C 154.78346 158.91775 154.73746 159.07495 154.40625 159.40625 C 153.94984 159.86265 153.86452 159.87715 153.4375 159.53125 C 153.14191 159.29175 152.82135 158.4347 152.8125 157.8125 C 152.80651 157.39113 153.22022 157.13881 153.65625 157.125 z M 74.71875 157.71875 C 75.067958 157.67304 75.510889 157.79213 75.78125 158.0625 C 76.339 158.6203 76.275791 159.21905 75.59375 159.78125 C 74.93858 160.32135 74.663997 160.35231 74.21875 159.9375 C 73.71517 159.4683 73.829803 158.1975 74.40625 157.8125 C 74.492445 157.75495 74.602347 157.73399 74.71875 157.71875 z M 79.75 158.03125 C 80.07024 157.99425 80.221071 158.07941 80.40625 158.4375 C 80.53451 158.6855 80.625001 159.06715 80.625 159.28125 C 80.625 159.78635 80.272207 160.4917 79.90625 160.6875 C 79.55541 160.8753 79.579777 160.88515 79.125 160.65625 C 78.608 160.39605 78.584547 159.6303 79.03125 158.75 C 79.29162 158.2369 79.442968 158.06665 79.75 158.03125 z M 156.34375 158.46875 C 156.57512 158.44874 156.83891 158.55765 157.09375 158.8125 C 157.56845 159.2872 157.59776 160.246 157.15625 160.6875 C 156.4505 161.3932 155.65626 160.78596 155.65625 159.53125 C 155.65625 158.89444 155.95813 158.5021 156.34375 158.46875 z M 151.75 159.21875 C 151.87504 159.23498 152.01186 159.26647 152.15625 159.34375 C 152.86509 159.72305 152.99607 160.66025 152.4375 161.21875 C 151.97928 161.67705 151.85921 161.67175 151.40625 161.21875 C 150.5301 160.34261 150.87473 159.10513 151.75 159.21875 z M 77.21875 160.125 C 77.342251 160.12843 77.471892 160.16322 77.59375 160.21875 C 77.95629 160.38385 77.979091 160.44746 77.90625 161.09375 C 77.84853 161.60575 77.696603 161.90645 77.40625 162.15625 C 76.92072 162.57385 76.814333 162.56429 76.4375 162.1875 C 75.99958 161.7495 75.926823 161.1956 76.21875 160.75 C 76.490228 160.3357 76.848247 160.11471 77.21875 160.125 z M 154.25 160.53125 C 155.04783 160.53125 155.71244 162.6009 155.125 163.25 C 154.74743 163.6672 154.38589 163.62665 153.9375 163.09375 C 153.61923 162.71555 153.56249 162.4536 153.5625 161.75 C 153.5625 160.8273 153.72384 160.53124 154.25 160.53125 z M 74.09375 161.21875 C 74.38499 161.21875 74.6337 161.34205 74.8125 161.59375 C 75.28254 162.25565 75.268618 162.5576 74.84375 163.0625 C 74.28351 163.7283 73.804907 163.69485 73.5 162.96875 C 73.29466 162.47965 73.289349 162.3341 73.46875 161.8125 C 73.64527 161.2992 73.722627 161.21875 74.09375 161.21875 z M 79.28125 161.90625 C 79.579395 161.93663 79.804243 162.1635 80 162.5625 C 80.23651 163.0446 80.073177 163.70641 79.5625 164.25 C 79.38507 164.4388 79.106356 164.59376 78.96875 164.59375 C 77.98437 164.59375 77.986519 162.184 78.96875 161.9375 C 79.08314 161.90877 79.181868 161.89612 79.28125 161.90625 z M 157.15625 162.0625 C 157.28409 162.06566 157.41437 162.1535 157.65625 162.34375 C 158.19701 162.76905 158.21448 163.69176 157.6875 164.21875 C 157.24493 164.66125 157.14389 164.68201 156.6875 164.3125 C 156.40716 164.0855 156.34375 163.8679 156.34375 163.3125 C 156.34375 162.7572 156.40716 162.5395 156.6875 162.3125 C 156.90832 162.1337 157.02841 162.05934 157.15625 162.0625 z M 152.03125 162.65625 C 152.8535 162.58064 153.70387 164.29616 152.96875 165.03125 C 152.4205 165.57955 151.74691 165.34281 151.46875 164.5 C 151.26842 163.893 151.37337 163.04195 151.6875 162.78125 C 151.79942 162.68836 151.91379 162.66705 152.03125 162.65625 z M 76.15625 163.5625 C 76.262557 163.55401 76.385594 163.6046 76.625 163.71875 C 77.22639 164.00555 77.703821 164.84325 77.5625 165.40625 C 77.50969 165.61665 77.270271 165.93035 77.0625 166.09375 C 76.63387 166.43095 76.098491 166.465 75.875 166.1875 C 75.43411 165.6402 75.391182 164.20255 75.8125 163.78125 C 75.957325 163.63645 76.049943 163.57099 76.15625 163.5625 z M 154.6875 164.4375 C 155.10479 164.4375 155.81373 165.09195 155.8125 165.46875 C 155.81099 165.93165 155.515 166.82869 155.28125 167.0625 C 154.73574 167.608 154.12754 167.0362 154.03125 165.875 C 153.95178 164.9168 154.183 164.4375 154.6875 164.4375 z M 73.6875 164.78125 C 74.59318 164.55395 75.045084 166.18709 74.25 166.8125 C 73.78831 167.1757 73.732803 167.18549 73.40625 166.9375 C 72.68324 166.3885 72.866372 164.98735 73.6875 164.78125 z M 79.1875 165.625 C 79.99351 165.625 80.30569 166.7538 79.71875 167.5 C 79.54042 167.7267 79.26511 167.875 79.0625 167.875 C 78.64618 167.875 78.093749 167.2297 78.09375 166.75 C 78.09375 166.2978 78.748157 165.625 79.1875 165.625 z M 157.40625 165.9375 C 157.60282 165.9489 157.78895 166.04615 157.90625 166.1875 C 158.16409 166.4982 158.12266 167.28221 157.8125 167.625 C 157.57175 167.891 157.00505 167.97375 156.8125 167.78125 C 156.64093 167.60965 156.68617 166.31379 156.875 166.125 C 157.00215 165.99785 157.20968 165.9261 157.40625 165.9375 z M 152 166.375 C 152.26011 166.35793 152.5799 166.50445 152.875 166.8125 C 153.33567 167.2933 153.35328 167.5647 153.03125 168.1875 C 152.84718 168.5434 152.71691 168.62499 152.3125 168.625 C 151.76985 168.625 151.55658 168.48575 151.3125 167.84375 C 151.19364 167.53115 151.2119 167.29655 151.375 166.90625 C 151.51566 166.5696 151.73989 166.39207 152 166.375 z M 76.4375 167.5 C 76.693925 167.47855 76.941838 167.53625 77.125 167.65625 C 77.40534 167.83995 77.499999 168.0267 77.5 168.5 C 77.5 169.1484 77.289241 169.64351 76.90625 169.9375 C 76.53441 170.223 75.864083 170.17364 75.6875 169.84375 C 75.46868 169.43485 75.490762 167.96085 75.71875 167.78125 C 75.911 167.62985 76.181075 167.52145 76.4375 167.5 z M 73.90625 168.15625 C 74.162616 168.15425 74.397925 168.294 74.5 168.5625 C 74.70258 169.0953 74.692444 169.87164 74.46875 170.15625 C 74.23958 170.44775 73.724998 170.61614 73.5 170.46875 C 73.2863 170.32885 72.84375 169.46341 72.84375 169.1875 C 72.84375 169.071 72.985543 168.7795 73.15625 168.5625 C 73.36936 168.2916 73.649884 168.15825 73.90625 168.15625 z M 154.34375 168.34375 C 154.40643 168.32748 154.47628 168.34375 154.5625 168.34375 C 155.31636 168.34375 155.65626 168.70105 155.65625 169.53125 C 155.65625 169.93455 155.59559 170.44645 155.5 170.65625 C 155.26346 171.17535 154.59586 171.17535 154.1875 170.65625 C 153.7524 170.10305 153.67636 169.5001 153.9375 168.875 C 154.07519 168.54552 154.15572 168.39255 154.34375 168.34375 z M 79.15625 169.15625 C 79.469238 169.13194 79.79179 169.2293 79.96875 169.40625 C 80.29914 169.73665 80.299401 170.82221 79.96875 171.1875 C 79.55991 171.6393 78.927424 171.5451 78.46875 171 C 78.01026 170.4551 77.989669 170.00705 78.375 169.53125 C 78.53978 169.32775 78.843262 169.18056 79.15625 169.15625 z M 157.3125 169.375 C 157.99118 169.375 158.29216 170.6453 157.75 171.1875 C 157.18228 171.7552 156.71875 171.44495 156.71875 170.53125 C 156.71875 169.80845 156.94068 169.375 157.3125 169.375 z M 152.0625 169.59375 C 152.43347 169.63951 152.79154 169.97105 152.96875 170.5625 C 153.12204 171.0742 153.12694 171.22334 152.875 171.65625 C 152.1115 172.96845 150.49449 171.77805 151.09375 170.34375 C 151.32009 169.80205 151.69153 169.54799 152.0625 169.59375 z M 76.65625 171.21875 C 76.969947 171.11439 77.225795 171.25605 77.5625 171.65625 C 77.90743 172.06615 77.971243 172.23591 77.90625 172.8125 C 77.85533 173.2642 77.721513 173.5706 77.5 173.75 C 76.68177 174.4125 76.000002 173.81325 76 172.40625 C 76 171.80085 76.043882 171.59435 76.3125 171.40625 C 76.436077 171.3197 76.551684 171.25354 76.65625 171.21875 z M 74.15625 171.53125 C 74.381904 171.45565 74.603914 171.51895 74.75 171.71875 C 75.05805 172.13995 74.989679 173.47954 74.65625 173.78125 C 74.20619 174.18855 73.946549 174.0631 73.59375 173.3125 C 73.26992 172.6236 73.271619 172.6071 73.53125 172.125 C 73.6947 171.8215 73.930596 171.60685 74.15625 171.53125 z M 154.0625 171.9375 C 154.24513 171.89892 154.45678 171.95739 154.6875 172.0625 C 155.34479 172.362 155.36166 173.74869 154.71875 174.4375 C 154.54577 174.6228 154.33861 174.7553 154.25 174.75 C 153.36293 174.6978 152.94568 173.79239 153.34375 172.75 C 153.52226 172.28262 153.75811 172.00179 154.0625 171.9375 z M 80.125 172.53125 C 80.281946 172.55161 80.406549 172.66935 80.59375 172.84375 C 81.03977 173.25935 81.04961 174.0093 80.59375 174.4375 C 80.40311 174.6166 80.172277 174.78125 80.09375 174.78125 C 79.82038 174.78125 78.84375 174.02321 78.84375 173.8125 C 78.84375 173.4029 79.169888 172.8521 79.53125 172.6875 C 79.787645 172.57065 79.968054 172.51089 80.125 172.53125 z M 156.71875 172.5625 C 156.8284 172.54835 156.95694 172.59392 157.09375 172.65625 C 157.75289 172.95665 157.96682 174.08045 157.46875 174.53125 C 156.81988 175.11845 156.1875 174.6584 156.1875 173.625 C 156.1875 172.9872 156.38979 172.60494 156.71875 172.5625 z M 151 172.8125 C 151.56867 172.8125 151.87988 173.09655 152.0625 173.78125 C 152.23675 174.43465 152.11856 174.7575 151.59375 175.125 C 151.13832 175.444 150.92809 175.4281 150.5 175 C 149.79242 174.2924 150.12649 172.8125 151 172.8125 z M 75.34375 174.8125 C 75.490055 174.8055 75.624265 174.83895 75.75 174.90625 C 76.48433 175.29925 76.34617 176.67235 75.53125 177.09375 C 74.39383 177.68195 73.522937 176.83665 74.125 175.71875 C 74.406528 175.196 74.904834 174.8335 75.34375 174.8125 z M 77.96875 175.09375 C 78.27414 175.06845 78.650979 175.13235 78.8125 175.21875 C 79.20578 175.42925 79.342398 176.14444 79.09375 176.65625 C 78.85938 177.13875 78.134742 177.48179 77.6875 177.3125 C 77.18537 177.1225 76.988583 176.455 77.21875 175.75 C 77.39255 175.2177 77.468909 175.13525 77.96875 175.09375 z M 155.53125 175.46875 C 155.89662 175.5361 156.46519 175.84212 156.65625 176.09375 C 156.95609 176.48865 156.90679 177.2807 156.5625 177.625 C 156.0853 178.1022 155.41675 178.01851 155.0625 177.4375 C 154.89929 177.1698 154.75031 176.82631 154.75 176.6875 C 154.74919 176.3248 155.05086 175.623 155.25 175.5 C 155.30514 175.46592 155.40946 175.4463 155.53125 175.46875 z M 81.40625 175.53125 C 82.177481 175.58249 82.680534 176.53662 82.03125 177.40625 C 81.27363 178.42105 80.187503 177.97975 80.1875 176.65625 C 80.1875 176.26945 80.302011 176.07326 80.59375 175.84375 C 80.873985 175.62332 81.149173 175.51417 81.40625 175.53125 z M 152.8125 175.53125 C 153.10589 175.45276 153.41226 175.54 153.625 175.84375 C 153.93714 176.28935 153.91959 177.22046 153.59375 177.59375 C 152.92717 178.35755 151.875 177.9934 151.875 177 C 151.875 176.26575 152.32351 175.66207 152.8125 175.53125 z M 149.6875 176.0625 C 150.11224 176.02231 150.59529 176.2785 150.90625 176.8125 C 151.23009 177.3686 151.17189 177.71964 150.65625 178.09375 C 150.02838 178.54925 149.43609 178.58699 149.15625 178.1875 C 148.90802 177.8331 148.83201 176.76715 149.03125 176.46875 C 149.20102 176.2145 149.43266 176.08661 149.6875 176.0625 z M 76.53125 177.96875 C 76.790895 178.00019 77.053876 178.1793 77.3125 178.46875 C 77.75296 178.96165 77.765774 179.8905 77.34375 180.3125 C 76.90486 180.7514 76.47523 180.6658 75.90625 180.0625 C 75.27994 179.3985 75.236817 178.82565 75.78125 178.28125 C 76.011515 178.05095 76.271605 177.93731 76.53125 177.96875 z M 79.21875 178.25 C 79.473064 178.25854 79.779585 178.37044 80.125 178.59375 C 80.51707 178.84725 80.77405 180.04481 80.5 180.375 C 80.22681 180.7042 79.797248 180.7499 79.28125 180.5 C 78.75526 180.2453 78.531247 179.81999 78.53125 179.0625 C 78.53125 178.52819 78.794894 178.23577 79.21875 178.25 z M 151.375 178.5 C 151.68227 178.5 152.01459 178.99331 152.21875 179.75 C 152.45288 180.6177 152.32367 181.1298 151.875 181.25 C 150.94461 181.4993 150.28126 181.01525 150.28125 180.09375 C 150.28125 179.59455 151.0254 178.50001 151.375 178.5 z M 82.6875 178.53125 C 82.811303 178.52697 82.966679 178.5777 83.15625 178.65625 C 84.01805 179.01325 84.153818 180.39521 83.375 180.75 C 82.91661 180.9589 82.907962 180.9464 82.3125 180.6875 C 81.48302 180.3268 81.49273 179.14761 82.3125 178.6875 C 82.473995 178.59685 82.563697 178.53553 82.6875 178.53125 z M 154.1875 178.65625 C 155.16809 178.65625 155.74881 180.10815 155.09375 180.90625 C 154.69556 181.39135 154.22259 181.38779 153.6875 180.9375 C 153.25944 180.5773 153.24935 180.50095 153.3125 179.84375 C 153.39638 178.97085 153.61236 178.65625 154.1875 178.65625 z M 148.28125 179.125 C 149.29367 179.125 149.58115 180.3033 148.75 181.0625 C 148.18381 181.5796 147.84946 181.63076 147.4375 181.21875 C 146.72212 180.50335 147.27668 179.12499 148.28125 179.125 z M 84.875 181.21875 C 85.87638 181.21875 86.263378 182.27324 85.625 183.28125 C 85.39896 183.63825 84.938002 183.69271 84.5 183.4375 C 84.17768 183.2498 83.781251 182.5391 83.78125 182.125 C 83.78125 181.6498 84.291649 181.21876 84.875 181.21875 z M 78.21875 181.4375 C 78.361942 181.43313 78.52349 181.4781 78.8125 181.59375 C 79.31866 181.79625 79.467221 181.93634 79.59375 182.40625 C 79.76602 183.04605 79.58131 183.677 79.15625 184 C 78.74566 184.3119 78.263593 184.24014 77.75 183.78125 C 77.34191 183.41665 77.290451 183.24109 77.28125 182.625 C 77.27145 181.969 77.321617 181.87781 77.75 181.625 C 77.97239 181.49375 78.075558 181.44187 78.21875 181.4375 z M 81.53125 181.5 C 81.728582 181.50178 81.944683 181.57685 82.1875 181.6875 C 82.89598 182.0103 83.09768 183.13456 82.53125 183.53125 C 82.12744 183.81415 81.390149 183.8249 81.03125 183.5625 C 80.88535 183.4558 80.734692 183.10171 80.6875 182.75 C 80.583888 181.9775 80.939253 181.49465 81.53125 181.5 z M 149.5 181.65625 C 149.92154 181.65625 150.40625 182.35701 150.40625 182.9375 C 150.40625 183.2036 150.29572 183.5955 150.125 183.8125 C 149.8852 184.1174 149.6666 184.21875 149.21875 184.21875 C 148.54919 184.21875 148.18749 183.79576 148.1875 183.09375 C 148.1875 182.58185 149.03303 181.65624 149.5 181.65625 z M 146.21875 181.8125 C 146.4517 181.80149 146.69594 181.86905 146.875 182 C 147.21738 182.2504 147.34876 183.16481 147.09375 183.5 C 146.98491 183.643 146.68496 183.79514 146.4375 183.84375 C 145.55551 184.01675 144.91974 182.6725 145.59375 182.0625 C 145.75626 181.9154 145.9858 181.82351 146.21875 181.8125 z M 152.5625 182.125 C 152.86965 182.09285 153.16245 182.19204 153.34375 182.46875 C 153.7566 183.09885 153.7623 183.794 153.375 184.25 C 152.94553 184.7556 152.39744 184.85081 151.875 184.5625 C 151.39369 184.297 151.24735 183.89916 151.375 183.21875 C 151.49194 182.59537 152.05059 182.17859 152.5625 182.125 z M 86.9375 183.5 C 87.494981 183.49326 88.188468 183.88431 88.25 184.5 C 88.28002 184.8003 88.19295 185.10265 88.03125 185.28125 C 87.33254 186.05335 85.948377 185.07719 86.21875 184 C 86.303609 183.6619 86.603011 183.50404 86.9375 183.5 z M 143.96875 183.90625 C 144.39708 183.95044 144.71875 184.29319 144.71875 184.8125 C 144.71875 185.0478 144.62943 185.33925 144.5 185.46875 C 144.14049 185.82825 143.18363 185.779 142.8125 185.375 C 142.44067 184.9703 142.55156 184.53195 143.125 184.15625 C 143.41852 183.96391 143.71175 183.87973 143.96875 183.90625 z M 83.84375 184.375 C 84.919673 184.32093 85.986451 185.59347 85.09375 186.21875 C 84.9107 186.34695 84.730947 186.45071 84.6875 186.4375 C 84.64406 186.4243 84.390698 186.37685 84.125 186.34375 C 83.16699 186.22455 82.63243 184.82136 83.40625 184.46875 C 83.554923 184.40101 83.690047 184.38272 83.84375 184.375 z M 146.625 184.59375 C 147.00057 184.54439 147.38962 184.62905 147.59375 184.875 C 148.01132 185.3782 147.73549 186.4968 147.125 186.8125 C 146.38547 187.1949 145.89498 187.08039 145.5625 186.4375 C 145.27216 185.876 145.28405 185.56495 145.625 185.15625 C 145.88066 184.84985 146.24943 184.64311 146.625 184.59375 z M 80.78125 184.78125 C 81.605047 184.83867 82.435063 185.74062 81.9375 186.5 C 81.51491 187.1449 80.980188 187.12634 80.21875 186.40625 C 79.67243 185.88965 79.593031 185.43079 80 185.0625 C 80.227728 184.8564 80.506651 184.76211 80.78125 184.78125 z M 150.03125 184.84375 C 150.26725 184.82479 150.44281 184.9265 150.65625 185.125 C 151.21258 185.6424 151.3625 186.08815 151.125 186.65625 C 151.01475 186.92005 150.81106 187.21001 150.6875 187.3125 C 150.37472 187.5719 149.67167 187.6641 149.28125 187.5 C 148.83967 187.3144 148.625 186.88955 148.625 186.15625 C 148.625 185.62835 148.70449 185.5096 149.125 185.25 C 149.52673 185.00205 149.79525 184.86271 150.03125 184.84375 z M 89.96875 185.28125 C 90.261452 185.26762 90.547945 185.34511 90.78125 185.5625 C 91.154 185.9097 91.20687 186.14755 90.9375 186.46875 C 90.25893 187.27765 89.03125 187.0122 89.03125 186.0625 C 89.03125 185.5875 89.480913 185.30396 89.96875 185.28125 z M 140.9375 185.5 C 141.65644 185.4982 142.31516 186.21567 141.78125 186.875 C 141.61766 187.077 141.2761 187.2629 140.90625 187.3125 C 140.36203 187.3855 140.28803 187.3578 140.125 187 C 139.86723 186.4343 139.90459 186.09384 140.25 185.78125 C 140.46399 185.5876 140.69785 185.5006 140.9375 185.5 z M 101.78125 185.71875 C 102.05689 185.71875 102.13054 185.9533 101.96875 186.375 C 101.84585 186.6952 101.49392 186.6514 101.3125 186.3125 C 101.13866 185.9876 101.36353 185.71875 101.78125 185.71875 z M 129.625 186 C 129.86619 186.01077 130.0625 186.18393 130.0625 186.4375 C 130.0625 186.8417 129.52844 186.8409 129.3125 186.4375 C 129.18543 186.2 129.19315 186.1323 129.375 186.0625 C 129.46359 186.02853 129.5446 185.99641 129.625 186 z M 87.21875 186.46875 C 87.357104 186.4602 87.454664 186.52825 87.625 186.625 C 88.18626 186.9438 88.357517 187.2737 88.1875 187.75 C 88.00631 188.2574 87.606853 188.38435 86.8125 188.21875 C 85.63883 187.97395 85.540719 187.14515 86.625 186.65625 C 86.90054 186.532 87.080396 186.4773 87.21875 186.46875 z M 143.65625 186.53125 C 143.98361 186.51184 144.33932 186.61643 144.625 186.875 C 144.9796 187.1959 144.90578 188.20329 144.5 188.5 C 143.79475 189.0157 142.625 188.42284 142.625 187.53125 C 142.625 186.944 143.11066 186.56359 143.65625 186.53125 z M 92.9375 186.59375 C 93.87749 186.59375 94.281717 187.4614 93.625 188.0625 C 93.05589 188.5834 92.674403 188.61189 92.25 188.1875 C 91.53757 187.4751 91.91229 186.59375 92.9375 186.59375 z M 99.65625 186.625 C 99.889696 186.63441 100.10987 186.73485 100.34375 186.96875 C 100.64187 187.26685 100.70391 187.46685 100.625 187.78125 C 100.56939 188.00275 100.44018 188.21995 100.34375 188.28125 C 100.04119 188.47375 99.59619 188.4021 99.09375 188.0625 C 98.51859 187.6737 98.467207 187.3793 98.9375 186.9375 C 99.166585 186.72225 99.422804 186.61559 99.65625 186.625 z M 96.46875 186.75 C 96.71828 186.74102 96.972372 186.82804 97.15625 187.03125 C 97.4848 187.39425 97.468829 187.67944 97.09375 188.15625 C 96.75946 188.58125 96.442081 188.6434 95.96875 188.375 C 95.53334 188.1281 95.436067 187.92139 95.53125 187.5 C 95.634944 187.04094 96.052866 186.76496 96.46875 186.75 z M 137.875 186.875 C 138.18744 186.86076 138.49688 186.899 138.65625 187.03125 C 139.02055 187.33365 138.96698 188.1754 138.5625 188.4375 C 138.08169 188.7492 137.03031 188.87405 136.8125 188.65625 C 136.71509 188.55885 136.65625 188.2485 136.65625 187.9375 C 136.65625 187.5009 136.71402 187.31241 137 187.125 C 137.22883 186.9751 137.56256 186.88924 137.875 186.875 z M 131.53125 186.9375 C 131.78407 186.89597 132.03468 186.96036 132.15625 187.1875 C 132.37796 187.6018 132.34856 187.71275 131.9375 188.15625 C 131.36227 188.77695 130.65625 188.59995 130.65625 187.84375 C 130.65625 187.37556 131.10988 187.00672 131.53125 186.9375 z M 134.78125 187.09375 C 134.91821 187.105 135.03078 187.13707 135.125 187.1875 C 135.5228 187.4004 135.53573 188.0941 135.15625 188.4375 C 134.83375 188.7294 134.05778 188.76761 133.84375 188.5 C 133.56712 188.1543 133.47484 187.6561 133.65625 187.4375 C 133.84223 187.2134 134.37037 187.06001 134.78125 187.09375 z M 83.59375 187.28125 C 84.447361 187.22919 85.19701 188.06712 84.875 188.90625 C 84.70156 189.35825 84.309091 189.44854 83.65625 189.15625 C 82.53171 188.65275 82.30191 187.69235 83.21875 187.34375 C 83.342125 187.29685 83.471806 187.28869 83.59375 187.28125 z M 146.9375 187.65625 C 147.96417 187.65625 148.44738 188.3475 148 189.1875 C 147.90418 189.3674 147.72444 189.58979 147.59375 189.6875 C 147.24287 189.95 146.93982 190.00249 146.46875 189.875 C 145.79605 189.6928 145.62501 189.4511 145.625 188.75 C 145.625 187.9536 146.00312 187.65626 146.9375 187.65625 z M 89.96875 187.96875 C 90.608829 187.90403 91.281248 188.27765 91.28125 188.84375 C 91.28125 189.06485 91.19259 189.30734 91.09375 189.40625 C 90.99491 189.50505 90.619893 189.59376 90.28125 189.59375 C 89.21437 189.59375 88.61538 188.69761 89.34375 188.1875 C 89.524915 188.0606 89.75539 187.99032 89.96875 187.96875 z M 140.90625 188.09375 C 141.27217 188.07145 141.62952 188.17628 141.8125 188.4375 C 142.13262 188.8946 142.10561 189.23335 141.71875 189.59375 C 141.05732 190.21005 139.62501 189.82875 139.625 189.03125 C 139.625 188.51238 140.29639 188.13092 140.90625 188.09375 z M 98.09375 188.59375 C 98.179567 188.57026 98.300457 188.61415 98.4375 188.6875 C 98.9066 188.9386 99.129608 189.4184 98.90625 189.6875 C 98.67027 189.9719 98.075314 189.95025 97.78125 189.65625 C 97.48072 189.35565 97.479932 189.25445 97.8125 188.84375 C 97.92778 188.70135 98.007933 188.61724 98.09375 188.59375 z M 132.4375 188.875 C 132.53163 188.85131 132.63952 188.8899 132.8125 188.96875 C 133.19849 189.14465 133.27997 189.48345 133.09375 189.96875 C 132.97686 190.27335 132.39772 190.27275 132.09375 189.96875 C 131.79177 189.66675 131.78223 189.5484 132.125 189.125 C 132.24941 188.9714 132.34337 188.89869 132.4375 188.875 z M 86.34375 189 C 86.922514 188.94874 87.784482 189.24138 87.90625 189.625 C 87.95802 189.7881 87.90727 190.0577 87.78125 190.25 C 87.42377 190.7956 86.772362 190.84019 86.0625 190.375 C 85.68569 190.1281 85.603753 189.49 85.90625 189.1875 C 86.003777 189.08995 86.150829 189.01709 86.34375 189 z M 95.625 189.125 C 95.747945 189.1242 95.881523 189.14688 96.03125 189.1875 C 96.87505 189.4163 96.988153 190.36945 96.21875 190.78125 C 95.46181 191.18635 94.547962 190.4655 94.84375 189.6875 C 94.989348 189.30455 95.256166 189.1274 95.625 189.125 z M 143.625 189.46875 C 143.74798 189.46935 143.89663 189.46887 144.0625 189.5 C 144.47026 189.5765 144.65751 189.73439 144.84375 190.125 C 145.06738 190.5939 145.04508 190.645 144.8125 191 C 144.62623 191.2843 144.43112 191.40625 144.0625 191.40625 C 143.33055 191.40625 142.69698 190.5746 142.9375 189.9375 C 143.06023 189.61245 143.25605 189.46694 143.625 189.46875 z M 92.9375 189.53125 C 93.246546 189.48715 93.520767 189.56902 93.6875 189.8125 C 93.90636 190.1321 93.790991 190.79356 93.46875 191.09375 C 93.28849 191.26175 92.992222 191.40735 92.78125 191.40625 C 92.38962 191.40415 91.874998 190.90115 91.875 190.53125 C 91.875 190.01631 92.422424 189.60475 92.9375 189.53125 z M 134.9375 189.59375 C 135.60271 189.59375 135.82775 189.9308 135.65625 190.625 C 135.53842 191.1019 135.43779 191.17926 135.03125 191.21875 C 134.67727 191.25315 134.52289 191.16195 134.34375 190.90625 C 133.84953 190.20065 134.12525 189.59376 134.9375 189.59375 z M 137.75 189.59375 C 138.08586 189.53477 138.43049 189.618 138.65625 189.84375 C 138.9712 190.15875 138.95742 190.5371 138.59375 191.25 C 138.34197 191.7435 138.22075 191.84375 137.84375 191.84375 C 137.24744 191.84375 136.65625 191.24865 136.65625 190.65625 C 136.65625 190.12462 137.19023 189.69204 137.75 189.59375 z M 89.6875 190.34375 C 90.014433 190.35204 90.365076 190.41105 90.53125 190.5 C 90.8948 190.6946 90.884567 190.96145 90.53125 191.28125 C 90.18223 191.59705 89.121181 191.6211 88.8125 191.3125 C 88.57924 191.0792 88.642171 190.67095 88.9375 190.46875 C 89.056805 190.38705 89.360567 190.33546 89.6875 190.34375 z M 141.1875 190.5 C 141.452 190.51141 141.66451 190.64915 141.8125 190.875 C 142.10568 191.3224 141.91375 191.7833 141.34375 192 C 140.77158 192.2175 140.30509 192.1776 140.03125 191.875 C 139.65692 191.4614 139.74206 191.10995 140.28125 190.78125 C 140.61745 190.57625 140.923 190.48859 141.1875 190.5 z M 116.96875 193.75 C 117.57337 193.74441 118.10146 193.7641 118.40625 193.78125 C 119.12838 193.82185 119.24934 194.03636 119.5 196.03125 C 119.6038 196.85735 120.05251 198.9831 120.40625 200.3125 C 121.12515 203.0144 121.80978 204.85255 123.34375 207.96875 C 125.11922 211.57555 126.04289 213.1408 128.125 216.0625 C 129.10259 217.4342 129.43685 218.1257 129.1875 218.375 C 129.07893 218.4836 125.31204 218.5506 117.28125 218.5625 C 105.31468 218.5801 101.83211 218.52751 101.5 218.3125 C 101.13565 218.0767 101.3164 217.4633 102.09375 216.375 C 106.19346 210.6353 108.35643 206.73745 110.21875 201.71875 C 111.02781 199.53845 111.35267 198.2971 112 195.3125 C 112.14768 194.6316 112.34832 194.04065 112.4375 193.96875 C 112.54079 193.8855 115.15488 193.76676 116.96875 193.75 z M 115.71875 194.53125 C 113.16434 194.53125 113.07099 194.5884 112.90625 195.5625 C 112.58362 197.4705 112.30374 198.61704 112 199.40625 C 111.80978 199.90045 111.42417 200.98881 111.125 201.8125 C 110.42543 203.7385 110.12392 204.43255 109.34375 206.03125 C 107.75236 209.29235 105.20709 213.67815 103.9375 215.34375 C 102.94262 216.64885 102.51236 217.35049 102.59375 217.5625 C 102.65539 217.7232 104.31503 217.74995 111.25 217.78125 C 121.96785 217.82965 127.12503 217.77195 127.59375 217.59375 C 128.1249 217.39185 128.05568 216.9749 127.3125 216.0625 C 126.43153 214.981 124.77491 212.45825 123.84375 210.71875 C 121.81098 206.92145 119.6394 201.39824 119.28125 199.15625 C 119.1938 198.60885 119.07292 198.0461 119.03125 197.9375 C 118.98958 197.8289 118.86623 197.12185 118.75 196.34375 C 118.60029 195.34155 118.46834 194.85556 118.28125 194.71875 C 118.093 194.58105 117.34525 194.53126 115.71875 194.53125 z M 114.40625 196.1875 C 114.91863 196.1875 115.3002 197.56145 115 198.34375 C 114.88396 198.64615 114.33528 198.64425 113.90625 198.34375 C 113.24872 197.88315 113.64478 196.1875 114.40625 196.1875 z M 116.78125 196.1875 C 117.00108 196.19797 117.22103 196.30082 117.4375 196.53125 C 117.89825 197.02165 117.87407 197.73241 117.375 198.125 C 117.15798 198.2957 116.90435 198.41574 116.8125 198.40625 C 116.35501 198.35865 116.15577 198.24816 116 197.90625 C 115.58485 196.99507 116.12177 196.15609 116.78125 196.1875 z M 117.1875 199.3125 C 117.51905 199.32359 117.85122 199.44385 118 199.65625 C 118.34436 200.14795 118.26774 200.79475 117.84375 201.21875 C 117.48123 201.58125 116.83147 201.69945 116.46875 201.46875 C 116.37189 201.40715 116.22659 201.0285 116.125 200.625 C 115.95022 199.9309 115.95955 199.85425 116.28125 199.59375 C 116.52729 199.3945 116.85595 199.30141 117.1875 199.3125 z M 113.9375 199.46875 C 114.51641 199.46875 115.00587 199.94595 115.15625 200.65625 C 115.24154 201.05915 115.18095 201.2076 114.90625 201.5 C 114.71914 201.6992 114.43797 201.875 114.28125 201.875 C 113.92662 201.875 113.14824 201.08744 113.125 200.71875 C 113.06759 199.80795 113.27158 199.46875 113.9375 199.46875 z M 115.28125 202.3125 C 115.80337 202.3125 116.34959 203.48986 116.15625 204.21875 C 116.01533 204.75005 115.27093 204.875 114.875 204.4375 C 114.37314 203.8829 114.67412 202.3125 115.28125 202.3125 z M 112.59375 202.34375 C 112.85646 202.31545 113.1423 202.4064 113.375 202.625 C 113.85562 203.0765 113.89494 204.47395 113.4375 204.71875 C 112.97255 204.96755 112.67719 204.8959 112.21875 204.4375 C 111.62093 203.8397 111.50309 203.3129 111.875 202.8125 C 112.07188 202.5476 112.33104 202.37205 112.59375 202.34375 z M 117.78125 202.5 C 118.19578 202.42409 118.67929 202.62362 118.90625 203.0625 C 119.13843 203.5115 119.06881 204.32139 118.78125 204.6875 C 118.56654 204.9609 117.85888 204.9286 117.59375 204.625 C 117.21357 204.1898 116.97416 203.2778 117.15625 202.9375 C 117.28694 202.6933 117.53253 202.54555 117.78125 202.5 z M 111.40625 205.53125 C 111.68551 205.48907 111.94784 205.6907 112.15625 206.09375 C 112.44045 206.64325 112.44891 207.2696 112.15625 207.6875 C 111.87793 208.0848 111.52831 208.102 111.09375 207.75 C 110.53162 207.2946 110.41403 206.8922 110.65625 206.3125 C 110.85001 205.84875 111.12699 205.57343 111.40625 205.53125 z M 116.40625 205.5625 C 117.32168 205.59683 117.92164 206.91133 117.09375 207.5625 C 116.28933 208.1953 115.6875 207.71836 115.6875 206.46875 C 115.6875 205.86755 115.73012 205.75605 116 205.65625 C 116.14125 205.604 116.27547 205.5576 116.40625 205.5625 z M 114.09375 205.625 C 114.26855 205.64749 114.39886 205.77975 114.53125 205.96875 C 114.80712 206.36265 114.8496 207.4317 114.59375 207.6875 C 114.33729 207.944 113.95159 207.90885 113.5625 207.59375 C 113.12291 207.23785 113.08381 206.1168 113.5 205.8125 C 113.70001 205.66625 113.91895 205.60251 114.09375 205.625 z M 119.375 205.90625 C 120.02922 205.90625 120.47177 206.3588 120.46875 207 C 120.4661 207.5628 120.38265 207.7151 119.875 208.0625 C 119.00792 208.6559 118.28137 208.1705 118.40625 207.0625 C 118.50333 206.2012 118.74204 205.90626 119.375 205.90625 z M 110.375 208.78125 C 110.55816 208.76935 110.73927 208.849 111.03125 209 C 111.40293 209.1922 111.46875 209.30256 111.46875 209.78125 C 111.46875 210.18245 111.36937 210.45791 111.125 210.6875 C 110.6621 211.1224 110.19607 211.10629 109.75 210.625 C 109.25975 210.096 109.27452 209.4611 109.78125 209.0625 C 110.01679 208.8772 110.19184 208.79315 110.375 208.78125 z M 117.1875 208.78125 C 117.64452 208.82355 117.90785 209.10258 118 209.59375 C 118.07878 210.01365 118.04084 210.22406 117.8125 210.53125 C 117.37934 211.11405 116.74951 211.14785 116.15625 210.59375 C 115.35637 209.84655 115.57741 209.0149 116.65625 208.8125 C 116.84859 208.77643 117.03516 208.76715 117.1875 208.78125 z M 113.5 208.875 C 114.07028 208.8663 114.28018 208.94725 114.5 209.21875 C 114.65151 209.40575 114.78125 209.68275 114.78125 209.84375 C 114.78125 210.18185 114.52129 210.74594 114.28125 210.90625 C 114.02945 211.07445 113.71447 211.04104 113.1875 210.78125 C 112.78701 210.58375 112.67759 210.434 112.59375 209.875 C 112.46908 209.0437 112.58721 208.8888 113.5 208.875 z M 120.3125 208.96875 C 120.62809 208.9494 120.92036 208.9909 121.125 209.125 C 121.63865 209.4616 121.65545 210.37475 121.15625 210.84375 C 120.64974 211.31955 119.96295 211.21325 119.46875 210.59375 C 119.21656 210.27765 119.20716 209.43585 119.46875 209.21875 C 119.65953 209.06045 119.99691 208.9881 120.3125 208.96875 z M 115.6875 211.46875 C 115.902 211.50546 116.08341 211.63195 116.25 211.84375 C 116.59433 212.28145 116.68259 212.94245 116.40625 213.21875 C 116.23131 213.39375 114.87511 213.4638 114.5 213.3125 C 114.09102 213.1474 114.43615 212.16304 115.0625 211.65625 C 115.24945 211.505 115.473 211.43204 115.6875 211.46875 z M 118.4375 211.46875 C 118.51786 211.47281 118.60445 211.5098 118.71875 211.53125 C 119.62249 211.70075 120.02295 212.62841 119.5 213.375 C 119.32709 213.6219 119.08795 213.71876 118.65625 213.71875 C 118.22455 213.71875 118.01666 213.62191 117.84375 213.375 C 117.53034 212.9276 117.5714 212.16359 117.90625 211.75 C 118.07799 211.53797 118.19643 211.45658 118.4375 211.46875 z M 112.125 211.5 C 112.44066 211.49975 112.70189 211.69855 112.90625 212.09375 C 113.223 212.70635 113.06405 213.04246 112.3125 213.40625 C 111.54597 213.77735 111.48902 213.76756 111.0625 213.46875 C 110.62258 213.16065 110.65518 212.65215 111.125 212.09375 C 111.45788 211.69815 111.80934 211.50025 112.125 211.5 z M 108.59375 211.53125 C 108.83563 211.45979 108.95072 211.51955 109.21875 211.71875 C 109.78059 212.13625 109.83237 212.841 109.3125 213.25 C 108.66316 213.7607 108.02949 213.63975 107.78125 212.96875 C 107.5542 212.35495 107.73637 211.89705 108.3125 211.65625 C 108.4337 211.60563 108.51312 211.55507 108.59375 211.53125 z M 121.9375 211.75 C 122.26553 211.77331 122.60426 211.91675 122.875 212.1875 C 123.39383 212.7063 123.41337 212.7483 123.03125 213.375 C 122.67452 213.9601 122.28 213.9758 121.4375 213.5 C 120.72042 213.0951 120.58075 212.5443 121.0625 212.0625 C 121.29731 211.8277 121.60947 211.72669 121.9375 211.75 z M 112.71875 214.15625 C 113.02613 214.15951 113.20774 214.4455 113.3125 215 C 113.44065 215.6782 113.29086 216.09635 112.8125 216.34375 C 112.33617 216.59005 112.23492 216.59439 112 216.4375 C 111.40373 216.0394 111.44175 214.9257 112.0625 214.4375 C 112.31494 214.2389 112.53432 214.15429 112.71875 214.15625 z M 106.8125 214.28125 C 107.10123 214.28047 107.35064 214.4238 107.5 214.78125 C 107.76436 215.41395 107.65814 216.03595 107.1875 216.40625 C 106.7097 216.78205 106.53854 216.7741 106.03125 216.375 C 105.66985 216.0907 105.61545 215.9746 105.6875 215.4375 C 105.78403 214.71781 106.33128 214.28254 106.8125 214.28125 z M 123.75 214.3125 C 124.1796 214.3125 124.69231 214.67639 124.90625 215.125 C 125.24864 215.843 125.08469 216.35461 124.4375 216.625 C 124.15479 216.7431 123.89823 216.85024 123.875 216.84375 C 123.23092 216.66355 123 216.3416 123 215.5625 C 123 214.9416 123.38125 214.31251 123.75 214.3125 z M 109.59375 214.34375 C 110.38728 214.27743 110.854 215.47467 110.15625 216.28125 C 109.89368 216.58475 109.18411 216.64849 108.96875 216.375 C 108.51322 215.7967 108.67031 214.7478 109.25 214.4375 C 109.37415 214.37106 109.48039 214.35322 109.59375 214.34375 z M 120.75 214.375 C 120.98144 214.40855 121.24363 214.5424 121.5 214.78125 C 121.85377 215.11085 121.92571 216.0743 121.625 216.375 C 121.44453 216.5555 120.85522 216.5804 120.5 216.4375 C 120.39531 216.3954 120.21557 216.1731 120.09375 215.9375 C 119.60334 214.98913 120.05568 214.27435 120.75 214.375 z M 115.125 214.5 C 115.84876 214.52294 116.37544 215.4714 115.90625 216.1875 C 115.6125 216.6358 115.24648 216.6652 114.71875 216.25 C 114.37976 215.9834 114.30565 215.83209 114.34375 215.3125 C 114.38183 214.7931 114.46539 214.65265 114.8125 214.53125 C 114.92203 214.49295 115.02161 214.49672 115.125 214.5 z M 117.875 214.625 C 118.61432 214.5824 118.69593 214.61121 118.84375 215 C 119.03217 215.4956 118.90926 216.08015 118.5625 216.34375 C 117.81112 216.91495 116.97541 216.3082 117.0625 215.25 L 117.09375 214.6875 L 117.875 214.625 z M 207.28125 237.53125 C 205.7237 237.55024 204.17194 237.60915 204.09375 237.6875 C 204.03539 237.746 204.26367 238.13675 204.59375 238.53125 C 206.05648 240.27955 207.23467 243.5779 206.625 244.1875 C 206.31582 244.4967 206.03221 244.33601 205.5 243.5625 C 204.04845 241.4528 201.02253 242.15264 199.75 244.90625 C 199.36514 245.73905 199.30829 245.97125 199.3125 247.46875 C 199.31669 248.96205 199.36129 249.2302 199.78125 250.25 C 200.37107 251.6822 202.20683 254.8813 203.4375 256.625 C 204.84361 258.6173 205.98851 260.3594 206.71875 261.625 C 207.07519 262.2427 207.49394 262.95469 207.65625 263.1875 C 207.83129 263.4386 208.01377 263.54875 208.09375 263.46875 C 208.16792 263.39465 208.73511 262.3299 209.34375 261.125 C 209.95239 259.9202 210.98235 258.05356 211.65625 256.96875 C 214.67743 252.10555 215.69639 249.91165 216 247.46875 C 216.31687 244.91925 215.55078 243.2574 213.6875 242.375 C 211.9684 241.5608 210.3013 242.10745 209.34375 243.78125 C 208.81294 244.70905 208.21492 244.57084 208.21875 243.53125 C 208.22428 242.03585 208.97301 240.0626 210.09375 238.5 C 210.39689 238.0774 210.57409 237.699 210.5 237.625 C 210.42353 237.5485 208.8388 237.51226 207.28125 237.53125 z M 211.8125 268.71875 C 211.16684 268.73231 210.61902 268.7539 210.3125 268.78125 L 209.1875 268.90625 L 209.15625 270.03125 L 209.125 271.1875 L 209.59375 271.28125 C 209.85442 271.33335 210.3345 271.375 210.65625 271.375 C 211.04737 271.375 211.25274 271.43804 211.3125 271.59375 C 211.50039 272.08335 210.77121 275.6629 210.4375 275.875 C 210.33817 275.9381 208.80691 275.99871 207.0625 276 C 204.47372 276.0018 203.86666 275.96035 203.6875 275.78125 C 203.47073 275.56445 202.6849 272.49679 202.6875 271.875 C 202.68912 271.4873 202.93448 271.375 203.8125 271.375 C 204.39953 271.375 204.51436 271.30081 204.65625 270.9375 C 204.76042 270.6707 204.76983 270.25226 204.6875 269.71875 L 204.5625 268.90625 L 201.1875 268.84375 C 199.30371 268.82325 197.715 268.89125 197.59375 268.96875 C 197.34625 269.12715 197.199 270.8835 197.40625 271.1875 C 197.47616 271.29 197.96118 271.41565 198.46875 271.46875 C 199.56335 271.58315 199.38725 271.2323 200.28125 275.25 C 201.10617 278.9572 202.01081 282.82101 202.625 285.375 C 202.9023 286.5281 203.30732 288.43059 203.5625 289.625 C 203.81768 290.8193 204.12994 292.24584 204.25 292.78125 C 204.37004 293.31655 204.75964 295.0814 205.09375 296.6875 C 205.42787 298.2937 205.76678 299.7522 205.84375 299.9375 C 205.9751 300.2538 206.06093 300.28125 207.40625 300.28125 L 208.84375 300.28125 L 209.0625 299.75 C 209.18345 299.4605 209.42572 298.43534 209.59375 297.46875 C 209.76178 296.50215 209.9593 295.3494 210.03125 294.9375 C 210.10321 294.5257 210.22511 293.88055 210.3125 293.46875 C 210.3999 293.05685 210.70582 291.38745 211 289.78125 C 211.29415 288.17515 211.77986 285.61754 212.0625 284.09375 C 212.34513 282.57005 212.63648 280.95301 212.71875 280.5 C 212.80103 280.047 212.96432 279.12766 213.09375 278.46875 C 213.22318 277.80975 213.54218 276.10911 213.78125 274.6875 C 214.02031 273.266 214.29042 271.9705 214.375 271.8125 C 214.48409 271.6086 214.7441 271.50861 215.3125 271.4375 C 215.75316 271.3825 216.20883 271.28285 216.3125 271.21875 C 216.55117 271.07125 216.67335 269.27104 216.46875 268.96875 C 216.34521 268.78625 215.86366 268.73865 213.875 268.71875 C 213.20189 268.71195 212.45816 268.70519 211.8125 268.71875 z M 209.0625 279.03125 C 209.45774 279.04724 209.64935 279.11136 209.75 279.1875 C 209.99552 279.3732 210.00935 279.49879 209.65625 281.8125 C 209.45078 283.1589 209.20106 284.56416 209.125 284.90625 C 209.04893 285.24835 208.86474 286.34539 208.6875 287.375 C 208.51028 288.4046 208.17212 290.09539 207.96875 291.125 C 207.76538 292.1546 207.53903 293.05439 207.46875 293.125 C 207.17175 293.4235 206.87655 292.30571 205.125 284.25 C 204.8295 282.891 204.51766 281.36919 204.40625 280.875 C 204.11385 279.578 204.13446 279.33219 204.53125 279.25 C 204.71657 279.2116 205.91083 279.11311 207.1875 279.0625 C 208.08688 279.0268 208.66726 279.01526 209.0625 279.03125 z "
     id="path7144" />
  <g
     id="g3796"
     transform="translate(1.593878e-6,0)">
    <rect
       ry="11.25"
       rx="11.25"
       y="3.4247196"
       x="3.6058116"
       height="311.81104"
       width="223.22835"
       id="rect2382"
       style="fill:none;fill-opacity:1;fill-rule:nonzero;stroke:#000000;stroke-width:0.03543307;stroke-linejoin:round;stroke-miterlimit:4;stroke-dasharray:none;stroke-opacity:1" />
    <g
       transform="translate(3.5433116,3.3622195)"
       id="g3164">
      <path
         style="fill:none;fill-rule:evenodd;stroke:#000000;stroke-width:0.03221492;stroke-linecap:butt;stroke-linejoin:miter;stroke-miterlimit:4;stroke-dasharray:none;stroke-opacity:1"
         d="M 219.74754,0.062511534 L 226.70838,0.062511534"
         id="path3160"
         sodipodi:nodetypes="cc" />
      <path
         sodipodi:nodetypes="cc"
         id="path3162"
         d="M 223.29036,-3.2997195 L 223.29036,3.6063107"
         style="fill:none;fill-rule:evenodd;stroke:#000000;stroke-width:0.03196126;stroke-linecap:butt;stroke-linejoin:miter;stroke-miterlimit:4;stroke-dasharray:none;stroke-opacity:1" />
    </g>
    <g
       transform="matrix(1.0001093,0,0,1,3.519309,315.17275)"
       id="g3168">
      <path
         sodipodi:nodetypes="cc"
         id="path3170"
         d="M 219.74754,0.062511534 L 226.70838,0.062511534"
         style="fill:none;fill-rule:evenodd;stroke:#000000;stroke-width:0.03221492;stroke-linecap:butt;stroke-linejoin:miter;stroke-miterlimit:4;stroke-dasharray:none;stroke-opacity:1" />
      <path
         style="fill:none;fill-rule:evenodd;stroke:#000000;stroke-width:0.03196126;stroke-linecap:butt;stroke-linejoin:miter;stroke-miterlimit:4;stroke-dasharray:none;stroke-opacity:1"
         d="M 223.29036,-3.2997195 L 223.29036,3.6063107"
         id="path3172"
         sodipodi:nodetypes="cc" />
    </g>
    <g
       id="g3174"
       transform="matrix(1.0001093,0,0,1,-219.70906,315.17275)">
      <path
         style="fill:none;fill-rule:evenodd;stroke:#000000;stroke-width:0.03221492;stroke-linecap:butt;stroke-linejoin:miter;stroke-miterlimit:4;stroke-dasharray:none;stroke-opacity:1"
         d="M 219.74754,0.062511534 L 226.70838,0.062511534"
         id="path3176"
         sodipodi:nodetypes="cc" />
      <path
         sodipodi:nodetypes="cc"
         id="path3178"
         d="M 223.29036,-3.2997195 L 223.29036,3.6063107"
         style="fill:none;fill-rule:evenodd;stroke:#000000;stroke-width:0.03196126;stroke-linecap:butt;stroke-linejoin:miter;stroke-miterlimit:4;stroke-dasharray:none;stroke-opacity:1" />
    </g>
    <g
       transform="translate(-219.68504,3.3622195)"
       id="g3180">
      <path
         sodipodi:nodetypes="cc"
         id="path3182"
         d="M 219.74754,0.062511534 L 226.70838,0.062511534"
         style="fill:none;fill-rule:evenodd;stroke:#000000;stroke-width:0.03221492;stroke-linecap:butt;stroke-linejoin:miter;stroke-miterlimit:4;stroke-dasharray:none;stroke-opacity:1" />
      <path
         style="fill:none;fill-rule:evenodd;stroke:#000000;stroke-width:0.03196126;stroke-linecap:butt;stroke-linejoin:miter;stroke-miterlimit:4;stroke-dasharray:none;stroke-opacity:1"
         d="M 223.29036,-3.2997195 L 223.29036,3.6063107"
         id="path3184"
         sodipodi:nodetypes="cc" />
    </g>
  </g>
</svg>
